<svg width="22" height="22" viewBox="0 0 22 22" fill="none" xmlns="http://www.w3.org/2000/svg">
<path d="M8.00001 10.9685V4C8.00001 3.20435 8.31608 2.44129 8.87869 1.87868C9.4413 1.31607 10.2044 1 11 1C11.7957 1 12.5587 1.31607 13.1213 1.87868C13.6839 2.44129 14 3.20435 14 4V5.003M14 11.0015V18C14 18.7956 13.6839 19.5587 13.1213 20.1213C12.5587 20.6839 11.7957 21 11 21C10.2044 21 9.4413 20.6839 8.87869 20.1213C8.31608 19.5587 8.00001 18.7956 8.00001 18V16.985" stroke="white" stroke-opacity="0.7" stroke-width="1.2" stroke-linecap="round"/>
<path d="M11 14H3.992C2.34 14 1 12.657 1 11C1 9.343 2.34 8 3.992 8H4.9945M11 8H17.9945C18.7909 7.99934 19.5549 8.31502 20.1185 8.87761C20.6821 9.44021 20.9992 10.2036 21 11C21 12.657 19.6545 14 17.9945 14H17.033" stroke="white" stroke-opacity="0.7" stroke-width="1.2" stroke-linecap="round"/>
</svg>
