<svg width="273" height="163" viewBox="0 0 273 163" fill="none" xmlns="http://www.w3.org/2000/svg">
<path d="M247.335 4.58509L2.64851 88.8372L1.1119 84.3746C1.90398 84.0782 2.75597 83.7344 3.62347 83.4357C61.7526 63.4262 119.888 43.4204 178.016 23.4082C199.708 15.939 221.407 8.47352 243.08 0.948664C245.304 0.17705 246.153 0.326377 246.361 1.65382C246.51 2.61907 246.961 3.50123 247.335 4.58509ZM178.18 25.9486C179.008 25.0349 179.548 24.434 180.094 23.8342C179.488 23.758 178.685 23.4624 178.309 23.6541C177.457 24.0868 176.81 24.7601 176.083 25.3336C176.643 25.4994 177.203 25.6652 178.176 25.9528L178.18 25.9486Z" fill="#129C10"/>
<path d="M271.382 77.9281L26.6964 162.18L25.1598 157.718C25.9518 157.421 26.8038 157.077 27.6713 156.779C85.8004 136.769 143.936 116.763 202.064 96.7512C223.756 89.282 245.455 81.8166 267.128 74.2917C269.351 73.5201 270.2 73.6694 270.409 74.9969C270.558 75.9621 271.009 76.8443 271.382 77.9281ZM202.228 99.2916C203.056 98.3779 203.596 97.777 204.141 97.1772C203.536 97.1011 202.733 96.8054 202.357 96.9971C201.505 97.4298 200.858 98.1031 200.131 98.6766C200.691 98.8425 201.251 99.0083 202.224 99.2958L202.228 99.2916Z" fill="#129C10"/>
<path d="M26.3749 161.246L0.313964 85.5599L5.58911 83.7435C5.69931 83.9821 5.84496 84.2321 5.93736 84.5005C12.1221 102.483 18.301 120.468 24.4889 138.449C26.7993 145.159 29.1039 151.873 31.48 158.56C31.7233 159.246 31.3325 159.627 29.8303 160.067C28.7384 160.387 27.6561 160.805 26.3749 161.246ZM21.6771 139.198C22.45 139.285 22.9597 139.34 23.4667 139.398C23.7123 139.135 24.2501 138.733 24.1422 138.633C23.8997 138.407 23.3399 138.328 22.9104 138.19C22.5792 138.459 22.2481 138.729 21.6735 139.197L21.6771 139.198Z" fill="#129C10"/>
<path d="M267.133 79.367L241.072 3.68062L246.347 1.86424C246.457 2.10287 246.603 2.35287 246.695 2.62121C252.88 20.6033 259.059 38.589 265.247 56.57C267.557 63.2799 269.862 69.9933 272.238 76.6804C272.481 77.3667 272.09 77.748 270.588 78.1882C269.496 78.5076 268.414 78.9259 267.133 79.367ZM262.435 57.3182C263.208 57.4057 263.718 57.4612 264.225 57.5192C264.47 57.2555 265.008 56.8534 264.9 56.7538C264.658 56.5278 264.098 56.4487 263.668 56.3106C263.337 56.5802 263.006 56.8497 262.431 57.3179L262.435 57.3182Z" fill="#129C10"/>
<path d="M48.2601 126.2L41.4723 128.537L41.2913 99.3703L49.6996 96.4751L67.5136 119.57L60.7258 121.907L47.8581 104.473L47.6539 104.544L48.2601 126.2ZM43.8132 116.228L58.0013 111.342L59.6532 116.14L45.4651 121.025L43.8132 116.228ZM70.327 118.601L61.3295 92.4706L72.1237 88.7539C74.0801 88.0802 75.9004 87.8816 77.5845 88.1581C79.2742 88.423 80.7404 89.1028 81.983 90.1972C83.2228 91.2831 84.1517 92.7235 84.7697 94.5183C85.3906 96.3216 85.5384 98.0357 85.213 99.6605C84.8932 101.274 84.1334 102.701 82.9337 103.942C81.734 105.183 80.1346 106.147 78.1357 106.836L71.4754 109.129L69.762 104.153L75.2485 102.264C76.2012 101.936 76.9394 101.496 77.4631 100.945C77.9953 100.39 78.3248 99.7583 78.4515 99.0487C78.5753 98.3305 78.4995 97.5716 78.2242 96.7721C77.946 95.964 77.5399 95.3236 77.0061 94.8509C76.4694 94.3697 75.8221 94.0788 75.0643 93.9782C74.3066 93.8775 73.4556 93.9898 72.5114 94.3149L69.3982 95.3868L76.6428 116.427L70.327 118.601ZM93.7655 110.531L84.768 84.4001L95.5622 80.6834C97.5186 80.0097 99.3389 79.8111 101.023 80.0875C102.713 80.3525 104.179 81.0322 105.422 82.1267C106.661 83.2126 107.59 84.653 108.208 86.4478C108.829 88.2511 108.977 89.9651 108.651 91.59C108.332 93.2034 107.572 94.6305 106.372 95.8714C105.172 97.1123 103.573 98.0769 101.574 98.7651L94.914 101.058L93.2006 96.0824L98.687 94.1933C99.6397 93.8652 100.378 93.4255 100.902 92.8741C101.434 92.3198 101.763 91.6878 101.89 90.9781C102.014 90.26 101.938 89.5011 101.663 88.7015C101.384 87.8935 100.978 87.2531 100.445 86.7804C99.9079 86.2992 99.2606 86.0083 98.5029 85.9076C97.7451 85.807 96.8941 85.9192 95.95 86.2443L92.8367 87.3163L100.081 108.356L93.7655 110.531ZM117.204 102.46L108.207 76.3296L119.001 72.6128C120.957 71.9392 122.767 71.7108 124.431 71.9277C126.1 72.1331 127.547 72.7576 128.772 73.801C129.994 74.8359 130.913 76.2465 131.528 78.0327C132.152 79.8445 132.287 81.5203 131.932 83.0601C131.574 84.5914 130.782 85.9392 129.556 87.1035C128.327 88.2593 126.718 89.1799 124.727 89.8653L117.901 92.2157L116.188 87.2396L121.84 85.2934C122.793 84.9654 123.545 84.5682 124.098 84.1018C124.657 83.6241 125.014 83.0729 125.17 82.4483C125.323 81.8152 125.261 81.0946 124.983 80.2865C124.704 79.4784 124.309 78.8678 123.795 78.4547C123.279 78.033 122.652 77.8016 121.915 77.7605C121.175 77.7109 120.333 77.8487 119.388 78.1738L116.275 79.2458L123.52 100.286L117.204 102.46ZM127.803 85.4522L138.422 95.1542L131.533 97.5266L121.041 87.7807L127.803 85.4522ZM161.158 72.7113C162.148 75.5863 162.434 78.2137 162.017 80.5934C161.599 82.9731 160.625 85.0069 159.094 86.6949C157.571 88.3799 155.641 89.6251 153.301 90.4306C150.954 91.2389 148.66 91.4436 146.42 91.0447C144.18 90.6457 142.164 89.6414 140.373 88.0317C138.587 86.4106 137.201 84.1668 136.214 81.3002C135.224 78.4252 134.934 75.7993 135.343 73.4225C135.76 71.0428 136.73 69.0105 138.253 67.3254C139.775 65.6404 141.71 64.3937 144.058 63.5854C146.397 62.7799 148.685 62.5724 150.922 62.9629C153.168 63.3504 155.188 64.3533 156.982 65.9714C158.776 67.5896 160.168 69.8362 161.158 72.7113ZM154.702 74.9343C154.116 73.2331 153.379 71.879 152.49 70.8721C151.609 69.8623 150.614 69.2107 149.505 68.9172C148.403 68.6208 147.223 68.6893 145.965 69.1228C144.714 69.5534 143.742 70.2258 143.048 71.1402C142.355 72.0546 141.968 73.1822 141.887 74.523C141.815 75.8608 142.072 77.3804 142.657 79.0816C143.243 80.7828 143.976 82.1383 144.857 83.1482C145.746 84.1551 146.745 84.8052 147.855 85.0987C148.964 85.3922 150.144 85.3236 151.395 84.8931C152.654 84.4596 153.626 83.7872 154.311 82.8757C155.005 81.9613 155.387 80.8352 155.46 79.4973C155.54 78.1565 155.288 76.6355 154.702 74.9343ZM164.736 56.865L177.17 73.9915L177.386 73.9168L176.64 52.766L183.709 50.3321L183.89 79.4986L175.481 82.3938L157.667 59.2989L164.736 56.865ZM195.52 75.4941L186.522 49.3634L204.742 43.0897L206.508 48.2189L194.604 52.3178L196.449 57.6767L207.422 53.8984L209.193 59.0404L198.22 62.8186L200.069 68.1902L211.974 64.0912L213.74 69.2204L195.52 75.4941ZM227.354 64.5327L217.695 67.8585L208.697 41.7278L218.343 38.4064C221.006 37.4897 223.478 37.2235 225.761 37.6078C228.049 37.9807 230.053 38.9652 231.773 40.5614C233.49 42.149 234.816 44.2995 235.75 47.013C236.687 49.7349 236.969 52.2542 236.597 54.5709C236.233 56.8846 235.265 58.897 233.695 60.6081C232.121 62.3107 230.008 63.6189 227.354 64.5327ZM222.157 60.2994L225.257 59.2319C226.72 58.7281 227.873 58.0553 228.715 57.2134C229.563 56.36 230.053 55.2827 230.186 53.9812C230.323 52.6683 230.069 51.0719 229.421 49.1921C228.774 47.3122 227.995 45.9059 227.084 44.9732C226.17 44.032 225.113 43.4919 223.914 43.353C222.721 43.2026 221.375 43.3851 219.878 43.9006L216.867 44.9374L222.157 60.2994Z" fill="#129C10"/>
</svg>
