<svg width="30" height="30" viewBox="0 0 30 30" fill="none" xmlns="http://www.w3.org/2000/svg">
<path d="M20.25 9.64706V20.2353C20.25 21.2099 19.4665 22 18.5 22H11.5C10.5335 22 9.75 21.2099 9.75 20.2353V9.64706M8 9.64706H22M17.625 9.64706V8.76471C17.625 7.79009 16.8415 7 15.875 7H14.125C13.1585 7 12.375 7.79009 12.375 8.76471V9.64706" stroke="#1E1E1E" stroke-width="1.5" stroke-linecap="round" stroke-linejoin="round"/>
<path d="M15.9124 17.132H14.0784L13.7844 18H12.5314L14.3094 13.086H15.6954L17.4734 18H16.2064L15.9124 17.132ZM15.6044 16.208L14.9954 14.409L14.3934 16.208H15.6044Z" fill="#4671F3"/>
</svg>
