<svg width="35" height="35" viewBox="0 0 35 35" fill="none" xmlns="http://www.w3.org/2000/svg">
<rect width="35" height="35" rx="17.5" fill="#4169E1" fill-opacity="0.1"/>
<path d="M24.9812 22H9.03066C8.70347 23.7455 11.0756 24.7273 12.3026 25H21.3003C24.5722 25 25.1176 23 24.9812 22Z" fill="#FF6E04"/>
<path d="M14.7584 19.2501L16.0084 20.5001L19.3417 17.1667" stroke="#26335D" stroke-width="1.5" stroke-linecap="round" stroke-linejoin="round"/>
<path d="M15.3334 12.0001H18.6667C20.3334 12.0001 20.3334 11.1667 20.3334 10.3334C20.3334 8.66675 19.5 8.66675 18.6667 8.66675H15.3334C14.5 8.66675 13.6667 8.66675 13.6667 10.3334C13.6667 12.0001 14.5 12.0001 15.3334 12.0001Z" stroke="#26335D" stroke-width="1.5" stroke-miterlimit="10" stroke-linecap="round" stroke-linejoin="round"/>
<path d="M20.3333 10.3501C23.1083 10.5001 24.5 11.5251 24.5 15.3334V20.3334C24.5 23.6668 23.6667 25.3334 19.5 25.3334H14.5C10.3333 25.3334 9.5 23.6668 9.5 20.3334V15.3334C9.5 11.5334 10.8917 10.5001 13.6667 10.3501" stroke="#26335D" stroke-width="1.5" stroke-miterlimit="10" stroke-linecap="round" stroke-linejoin="round"/>
</svg>
