<svg width="12" height="14" viewBox="0 0 12 14" fill="none" xmlns="http://www.w3.org/2000/svg">
<path fill-rule="evenodd" clip-rule="evenodd" d="M7.46873 9.41863L7.46796 9.41954C6.88332 10.1152 5.93727 10.1165 5.35624 9.41862L2.34045 5.7964C2.116 5.52681 2.116 5.08427 2.34045 4.81468C2.56491 4.54509 2.93336 4.54509 3.15782 4.81468L6.1736 8.4369C6.30531 8.59509 6.51966 8.59509 6.65136 8.4369L9.66715 4.81468C9.78218 4.67651 9.92992 4.6111 10.0758 4.6111C10.2285 4.6111 10.3714 4.68762 10.4788 4.80802L10.4817 4.81129L10.4845 4.81468C10.709 5.08427 10.709 5.52681 10.4845 5.7964L7.46873 9.41863Z" fill="#B3B3B3"/>
</svg>
