<svg width="34" height="34" viewBox="0 0 34 34" fill="none" xmlns="http://www.w3.org/2000/svg">
<rect width="34" height="34" rx="3" fill="#F6F8F9"/>
<circle cx="19" cy="22" r="2" fill="#99D1FF"/>
<rect x="13" y="7" width="4" height="4" rx="2" fill="#99D1FF"/>
<path d="M19 11.75H15C14.04 11.75 12.25 11.75 12.25 9C12.25 6.25 14.04 6.25 15 6.25H19C19.96 6.25 21.75 6.25 21.75 9C21.75 9.96 21.75 11.75 19 11.75ZM15 7.75C14.01 7.75 13.75 7.75 13.75 9C13.75 10.25 14.01 10.25 15 10.25H19C20.25 10.25 20.25 9.99 20.25 9C20.25 7.75 19.99 7.75 19 7.75H15Z" fill="#001A72"/>
<path d="M19 27.75H14C8.38 27.75 7.25 25.17 7.25 21V15C7.25 10.44 8.9 8.48997 12.96 8.27997C13.35 8.25997 13.73 8.56997 13.75 8.98997C13.77 9.40997 13.45 9.74997 13.04 9.76997C10.2 9.92997 8.75 10.78 8.75 15V21C8.75 24.7 9.48 26.25 14 26.25H19C19.41 26.25 19.75 26.59 19.75 27C19.75 27.41 19.41 27.75 19 27.75Z" fill="#001A72"/>
<path d="M25.9999 20.7499C25.5899 20.7499 25.2499 20.4099 25.2499 19.9999V14.9999C25.2499 10.7799 23.7999 9.92993 20.9599 9.76993C20.5499 9.74993 20.2299 9.38993 20.2499 8.97993C20.2699 8.56993 20.6299 8.24993 21.0399 8.26993C25.0999 8.48993 26.7499 10.4399 26.7499 14.9899V19.9899C26.7499 20.4099 26.4099 20.7499 25.9999 20.7499Z" fill="#001A72"/>
<path d="M26.0001 27.75C25.8101 27.75 25.6201 27.68 25.4701 27.53L22 24.06C21.71 23.77 21.71 23.29 22 23C22.29 22.71 22.77 22.71 23.06 23L26.5301 26.47C26.8201 26.76 26.8201 27.24 26.5301 27.53C26.3801 27.68 26.1901 27.75 26.0001 27.75Z" fill="#001A72"/>
<circle cx="20.2" cy="21.2" r="3.2" stroke="#001A72" stroke-width="1.2"/>
</svg>
