<svg width="24" height="24" viewBox="0 0 24 24" fill="none" xmlns="http://www.w3.org/2000/svg">
<circle cx="14" cy="17" r="2" fill="#99D1FF"/>
<rect x="8" y="2" width="4" height="4" rx="2" fill="#99D1FF"/>
<path d="M14 6.75H10C9.04 6.75 7.25 6.75 7.25 4C7.25 1.25 9.04 1.25 10 1.25H14C14.96 1.25 16.75 1.25 16.75 4C16.75 4.96 16.75 6.75 14 6.75ZM10 2.75C9.01 2.75 8.75 2.75 8.75 4C8.75 5.25 9.01 5.25 10 5.25H14C15.25 5.25 15.25 4.99 15.25 4C15.25 2.75 14.99 2.75 14 2.75H10Z" fill="#001A72"/>
<path d="M14 22.75H9C3.38 22.75 2.25 20.17 2.25 16V9.99997C2.25 5.43997 3.9 3.48997 7.96 3.27997C8.35 3.25997 8.73 3.56997 8.75 3.98997C8.77 4.40997 8.45 4.74997 8.04 4.76997C5.2 4.92997 3.75 5.77997 3.75 9.99997V16C3.75 19.7 4.48 21.25 9 21.25H14C14.41 21.25 14.75 21.59 14.75 22C14.75 22.41 14.41 22.75 14 22.75Z" fill="#001A72"/>
<path d="M21 15.7499C20.59 15.7499 20.25 15.4099 20.25 14.9999V9.99993C20.25 5.77993 18.8 4.92993 15.96 4.76993C15.55 4.74993 15.23 4.38993 15.25 3.97993C15.27 3.56993 15.63 3.24993 16.04 3.26993C20.1 3.48993 21.75 5.43993 21.75 9.98993V14.9899C21.75 15.4099 21.41 15.7499 21 15.7499Z" fill="#001A72"/>
<path d="M21 22.7502C20.81 22.7502 20.62 22.6802 20.47 22.5302L16.9999 19.0602C16.7099 18.7702 16.7099 18.2902 16.9999 18.0002C17.2899 17.7102 17.7699 17.7102 18.0599 18.0002L21.53 21.4702C21.82 21.7602 21.82 22.2402 21.53 22.5302C21.38 22.6802 21.19 22.7502 21 22.7502Z" fill="#001A72"/>
<circle cx="15.2" cy="16.2" r="3.2" stroke="#001A72" stroke-width="1.2"/>
</svg>
