<svg width="30" height="30" viewBox="0 0 30 30" fill="none" xmlns="http://www.w3.org/2000/svg">
<circle cx="15" cy="15" r="15" fill="#4169E1" fill-opacity="0.09"/>
<path d="M18.5 22C19.5608 22 20.5 18.5 20.5 18.5C20.5 18.5 17.5 18 14.5 19C11.5 20 9.5 19 9.5 19C9.13191 21.9091 9.61966 21.5455 11 22H18.5Z" fill="#4671F3"/>
<path d="M20.25 9.64706V20.2353C20.25 21.2099 19.4665 22 18.5 22H11.5C10.5335 22 9.75 21.2099 9.75 20.2353V9.64706M8 9.64706H22M17.625 9.64706V8.76471C17.625 7.79009 16.8415 7 15.875 7H14.125C13.1585 7 12.375 7.79009 12.375 8.76471V9.64706" stroke="#1E1E1E" stroke-width="1.5" stroke-linecap="round" stroke-linejoin="round"/>
<path d="M16.0428 17.008H13.9468L13.6108 18H12.1788L14.2108 12.384H15.7948L17.8268 18H16.3788L16.0428 17.008ZM15.6908 15.952L14.9948 13.896L14.3068 15.952H15.6908Z" fill="#1E1E1E"/>
</svg>
