<svg width="20" height="20" viewBox="0 0 20 20" fill="none" xmlns="http://www.w3.org/2000/svg">
<path d="M19.2304 19.9998H0.769215C0.348711 19.9998 0 19.6836 0 19.3022C0 18.9208 0.348711 18.6045 0.769215 18.6045H19.2304C19.6509 18.6045 19.9996 18.9208 19.9996 19.3022C19.9996 19.6836 19.6509 19.9998 19.2304 19.9998Z" fill="white" fill-opacity="0.7"/>
<path d="M3.43581 17.2093H1.79483C0.81024 17.2093 0 16.4744 0 15.5813V7.56272C0 6.6697 0.81024 5.93481 1.79483 5.93481H3.43581C4.4204 5.93481 5.23064 6.6697 5.23064 7.56272V15.5813C5.23064 16.4744 4.4204 17.2093 3.43581 17.2093ZM1.79483 7.32085C1.65125 7.32085 1.53843 7.42318 1.53843 7.55341V15.5813C1.53843 15.7116 1.65125 15.8139 1.79483 15.8139H3.43581C3.57939 15.8139 3.69221 15.7116 3.69221 15.5813V7.56272C3.69221 7.43249 3.57939 7.33016 3.43581 7.33016H1.79483V7.32085Z" fill="white" fill-opacity="0.7"/>
<path d="M10.8206 17.2091H9.1796C8.19501 17.2091 7.38477 16.4742 7.38477 15.5812V4.59519C7.38477 3.70217 8.19501 2.96729 9.1796 2.96729H10.8206C11.8052 2.96729 12.6154 3.70217 12.6154 4.59519V15.5812C12.6154 16.4742 11.8052 17.2091 10.8206 17.2091ZM9.1796 4.36263C9.03601 4.36263 8.9232 4.46496 8.9232 4.59519V15.5812C8.9232 15.7114 9.03601 15.8138 9.1796 15.8138H10.8206C10.9642 15.8138 11.077 15.7114 11.077 15.5812V4.59519C11.077 4.46496 10.9642 4.36263 10.8206 4.36263H9.1796Z" fill="white" fill-opacity="0.7"/>
<path d="M18.2054 17.2093H16.5644C15.5798 17.2093 14.7695 16.4744 14.7695 15.5814V1.62791C14.7695 0.734884 15.5798 0 16.5644 0H18.2054C19.19 0 20.0002 0.734884 20.0002 1.62791V15.5814C20.0002 16.4744 19.19 17.2093 18.2054 17.2093ZM16.5644 1.39535C16.4208 1.39535 16.308 1.49767 16.308 1.62791V15.5814C16.308 15.7116 16.4208 15.814 16.5644 15.814H18.2054C18.3489 15.814 18.4618 15.7116 18.4618 15.5814V1.62791C18.4618 1.49767 18.3489 1.39535 18.2054 1.39535H16.5644Z" fill="white" fill-opacity="0.7"/>
</svg>
