<svg width="20" height="20" viewBox="0 0 20 20" fill="none" xmlns="http://www.w3.org/2000/svg">
<path d="M18.3333 18.9583H4.16663C2.44163 18.9583 1.04163 17.5583 1.04163 15.8333V1.66663C1.04163 1.32496 1.32496 1.04163 1.66663 1.04163C2.00829 1.04163 2.29163 1.32496 2.29163 1.66663V15.8333C2.29163 16.8666 3.13329 17.7083 4.16663 17.7083H18.3333C18.675 17.7083 18.9583 17.9916 18.9583 18.3333C18.9583 18.675 18.675 18.9583 18.3333 18.9583Z" fill="#E6E6E6"/>
<path d="M6.62501 18.9584H3.95834C3.61667 18.9584 3.33334 18.675 3.33334 18.3334V8.75004C3.33334 7.31671 3.23161 6.45837 5.29167 6.45837C7.25001 6.45837 7.25001 7.31671 7.25001 8.75004V18.3334C7.25001 18.675 6.96667 18.9584 6.62501 18.9584ZM4.58334 18.3334H6.00001V8.75004C6.00001 7.70837 6.00001 7.70837 5.29167 7.70837C4.50477 7.70837 4.58334 7.70837 4.58334 8.75004V18.3334Z" fill="#E6E6E6"/>
<path d="M16.625 18.9584H13.9584C13.6167 18.9584 13.3334 18.675 13.3334 18.3334V14.375C13.3334 12.9417 13.3334 12.0834 15.2917 12.0834C17.25 12.0834 17.25 12.9417 17.25 14.375V18.3334C17.25 18.675 16.9667 18.9584 16.625 18.9584ZM14.5834 18.3334H16V14.375C16 13.3334 16 13.3334 15.2917 13.3334C14.5834 13.3334 14.5834 13.3334 14.5834 14.375V18.3334Z" fill="#E6E6E6"/>
<path d="M11.625 18.9583H8.95837C8.61671 18.9583 8.33337 18.675 8.33337 18.3333L8.33337 3.95829C8.33337 2.52496 8.33337 1.66663 10.2917 1.66663C12.25 1.66663 12.25 2.52496 12.25 3.95829V18.3333C12.25 18.675 11.9667 18.9583 11.625 18.9583ZM9.58337 18.3333H11V3.95829C11 2.91663 11 2.91663 10.2917 2.91663C9.58337 2.91663 9.58337 2.91663 9.58337 3.95829V18.3333Z" fill="#E6E6E6"/>
</svg>
