<svg width="102" height="16" viewBox="0 0 102 16" fill="none" xmlns="http://www.w3.org/2000/svg">
<path d="M6.4197 15.1998C5.52019 15.1998 4.67835 15.0474 3.89419 14.7459C3.10892 14.4375 2.42569 13.9917 1.84339 13.4109C1.27329 12.8417 0.822982 12.1398 0.493568 11.3041C0.165262 10.4626 0 9.54076 0 8.53512C0 7.52948 0.164153 6.61346 0.493568 5.76611C0.827419 4.91294 1.29437 4.175 1.89441 3.55113C2.48226 2.94006 3.18878 2.4675 4.01398 2.13462C4.83807 1.79591 5.72095 1.62598 6.66039 1.62598C7.3414 1.62598 7.96141 1.71444 8.52042 1.88903C9.07942 2.05896 9.55192 2.25218 9.93901 2.46983L10.4747 1.9705H11.2267L11.3044 6.67398H10.5435C10.1109 5.24001 9.59185 4.18664 8.98626 3.51505C8.38066 2.84346 7.64309 2.50708 6.7713 2.50708C5.68656 2.50708 4.86247 3.0099 4.29681 4.01438C3.73115 5.01304 3.44943 6.41675 3.44943 8.22668C3.44943 9.24978 3.54481 10.1239 3.73448 10.8502C3.93079 11.5707 4.18368 12.1515 4.49535 12.5938C4.8292 13.0547 5.22516 13.3922 5.68102 13.6099C6.13687 13.8217 6.64042 13.9277 7.19499 13.9277C8.00245 13.9277 8.72006 13.6984 9.34894 13.2386C9.98337 12.7788 10.5601 12.0816 11.0792 11.1505L11.8234 11.6231C11.575 12.1561 11.2933 12.6334 10.9761 13.057C10.6588 13.4749 10.2917 13.8345 9.87689 14.1372C9.42104 14.47 8.91638 14.7308 8.36403 14.9182C7.815 15.1056 7.16727 15.1998 6.41749 15.1998" fill="#1D4481"/>
<path d="M23.0802 14.8549H17.8728V14.1914C17.987 14.1798 18.1234 14.1646 18.2787 14.146C18.434 14.1274 18.5505 14.0983 18.6248 14.0552C18.7468 13.9889 18.83 13.8923 18.8754 13.7642C18.9265 13.6374 18.9531 13.45 18.9531 13.2009V8.95252C18.9531 8.32982 18.8411 7.86308 18.6159 7.55463C18.3963 7.24619 18.0824 7.09138 17.6731 7.09138C17.4424 7.09138 17.2261 7.12747 17.0243 7.2008C16.828 7.27296 16.635 7.38004 16.4442 7.51855C16.2767 7.6396 16.1414 7.76414 16.0372 7.89101C15.9384 8.01788 15.8553 8.12962 15.7865 8.22623V13.1008C15.7865 13.3254 15.8131 13.5035 15.8641 13.6362C15.9163 13.7631 16.0139 13.869 16.158 13.954C16.2446 14.0087 16.3577 14.0564 16.4952 14.0995C16.6394 14.1425 16.7769 14.1716 16.91 14.1903V14.8537H11.6505V14.1903C11.8013 14.1786 11.9444 14.1635 12.0831 14.1449C12.2273 14.1262 12.3537 14.0971 12.4635 14.0541C12.6476 13.9819 12.7718 13.8783 12.8351 13.7456C12.9038 13.6071 12.9393 13.4244 12.9393 13.2009V3.08045C12.9393 2.88724 12.8961 2.68122 12.8096 2.4624C12.723 2.24474 12.601 2.08179 12.4458 1.97238C12.3304 1.89323 12.1629 1.83387 11.9433 1.79081C11.7248 1.74308 11.5285 1.71166 11.3555 1.70002V1.03657L15.6545 0.800293L15.7843 0.945785V7.19148H15.8187C16.0372 6.98547 16.2335 6.80156 16.4076 6.63745C16.5862 6.46868 16.8025 6.29874 17.0564 6.12881C17.2694 5.98332 17.5467 5.85994 17.8872 5.75635C18.2332 5.65392 18.6059 5.60271 19.003 5.60154C19.9369 5.60154 20.6379 5.88322 21.1048 6.4454C21.5773 7.00875 21.8136 7.75018 21.8147 8.66969V13.1183C21.8147 13.3417 21.8468 13.521 21.91 13.6537C21.9733 13.7875 22.0919 13.8923 22.265 13.9714C22.3692 14.0203 22.4846 14.0622 22.611 14.0983C22.7386 14.1344 22.8939 14.1646 23.0791 14.1891V14.8525L23.0802 14.8549Z" fill="#1D4481"/>
<path d="M29.4526 13.2123C29.5802 12.8736 29.6722 12.4616 29.7299 11.9785C29.7931 11.4943 29.8253 10.9321 29.8253 10.2897C29.8253 9.86598 29.7965 9.38178 29.7388 8.83706C29.6811 8.29233 29.5946 7.86284 29.4793 7.54858C29.3406 7.1668 29.1476 6.86767 28.8992 6.65001C28.6574 6.43236 28.3479 6.32295 27.973 6.32295C27.5638 6.32295 27.2355 6.44051 26.987 6.67678C26.7441 6.91306 26.5567 7.21802 26.4247 7.5928C26.3038 7.93733 26.2195 8.34355 26.1729 8.81029C26.1274 9.27004 26.1041 9.75191 26.1041 10.2536C26.1041 10.9135 26.1241 11.4606 26.1651 11.8971C26.2062 12.3265 26.3038 12.7595 26.4591 13.1948C26.5911 13.5696 26.7818 13.8676 27.0303 14.0841C27.2776 14.3018 27.5926 14.4112 27.973 14.4112C28.3191 14.4112 28.6163 14.3111 28.8637 14.112C29.111 13.906 29.3084 13.6069 29.4515 13.2135M31.6665 6.92238C32.0924 7.34023 32.4185 7.83956 32.6436 8.42037C32.8688 9.00117 32.9808 9.63086 32.9808 10.3083C32.9808 10.9857 32.8688 11.6154 32.6436 12.2148C32.424 12.8073 32.1013 13.3171 31.6742 13.7396C31.2184 14.1935 30.6738 14.5415 30.0394 14.7836C29.4105 15.0257 28.6895 15.1468 27.8765 15.1468C27.1734 15.1468 26.5245 15.0409 25.93 14.829C25.3422 14.6172 24.8198 14.2994 24.3639 13.8757C23.9258 13.4707 23.5797 12.9714 23.3257 12.3778C23.0718 11.7783 22.9453 11.1102 22.9453 10.3711C22.9453 9.63203 23.0551 9.00117 23.2747 8.43783C23.4999 7.86982 23.8337 7.36467 24.2774 6.92238C24.7044 6.4987 25.229 6.17164 25.8524 5.94234C26.4813 5.70606 27.1822 5.5885 27.9542 5.5885C28.7262 5.5885 29.4704 5.70722 30.0826 5.94234C30.6993 6.1728 31.2273 6.4987 31.6654 6.92238H31.6665Z" fill="#1D4481"/>
<path d="M38.3267 14.8552H32.903V14.1917C33.0527 14.1801 33.1958 14.1649 33.3344 14.1463C33.4786 14.1277 33.6062 14.0986 33.7149 14.0555C33.899 13.9834 34.0232 13.8798 34.0875 13.7471C34.1563 13.6086 34.1907 13.4258 34.1907 13.2024V3.14477C34.1907 2.91547 34.1441 2.70247 34.052 2.50926C33.9655 2.30906 33.8479 2.15775 33.6971 2.05532C33.5818 1.97734 33.4054 1.90052 33.1692 1.82835C32.9385 1.75619 32.7333 1.71312 32.5547 1.70148V1.03804L36.9058 0.801758L37.0356 0.94725V13.0848C37.0356 13.3094 37.0733 13.4899 37.1476 13.6295C37.2231 13.768 37.344 13.8775 37.5114 13.9566C37.6268 14.0113 37.7477 14.059 37.8752 14.1021C38.0017 14.1452 38.1514 14.1743 38.3244 14.1929V14.8563L38.3267 14.8552Z" fill="#1D4481"/>
<path d="M43.6972 9.93423C43.3745 10.0495 43.0539 10.1822 42.7378 10.3335C42.4195 10.479 42.1611 10.6326 41.9592 10.7967C41.7451 10.9666 41.5788 11.1843 41.4579 11.4497C41.337 11.7104 41.276 12.0188 41.276 12.3762C41.276 12.8487 41.3769 13.1898 41.5788 13.4016C41.7862 13.6134 42.0402 13.7194 42.3396 13.7194C42.6569 13.7194 42.9164 13.6519 43.1183 13.5192C43.3257 13.3807 43.5076 13.2107 43.6628 13.0105L43.6972 9.93307V9.93423ZM47.9974 14.6633C47.7434 14.7786 47.4439 14.8833 47.0979 14.9811C46.7518 15.0777 46.3847 15.1266 45.9987 15.1266C45.29 15.1266 44.7675 15.0172 44.4326 14.7995C44.0976 14.576 43.8703 14.2583 43.7494 13.8462H43.6972C43.5009 14.0523 43.3112 14.2268 43.126 14.3723C42.9474 14.5178 42.7534 14.6424 42.5459 14.7448C42.2742 14.8775 42.0124 14.9741 41.7596 15.0346C41.5111 15.101 41.1628 15.1336 40.7125 15.1347C40.0437 15.1347 39.4725 14.9287 38.9989 14.5178C38.5253 14.1 38.2891 13.5494 38.2891 12.865C38.2891 12.4716 38.3412 12.1387 38.4443 11.8664C38.5486 11.5882 38.695 11.3438 38.8858 11.1308C39.0588 10.9376 39.2573 10.7769 39.4825 10.6501C39.7132 10.5232 39.9639 10.4045 40.2356 10.2962C40.7547 10.096 41.378 9.89117 42.1045 9.67933C42.831 9.46168 43.3623 9.26846 43.6961 9.09853V8.22674C43.6961 8.07542 43.6839 7.87639 43.6617 7.62847C43.6384 7.38055 43.5896 7.17104 43.5142 7.00111C43.4333 6.80789 43.3057 6.64378 43.1338 6.51109C42.9608 6.3784 42.7334 6.31206 42.4506 6.31089C42.1966 6.31089 41.9836 6.35047 41.8106 6.42845C41.6431 6.50061 41.5078 6.57627 41.4046 6.65542C41.4213 6.77647 41.4712 6.96153 41.551 7.20945C41.632 7.45737 41.6719 7.69714 41.6719 7.92644C41.6719 8.03003 41.6464 8.16039 41.5943 8.31752C41.5422 8.46884 41.4667 8.58988 41.3691 8.68067C41.236 8.80172 41.0863 8.896 40.9188 8.96234C40.7569 9.02869 40.5062 9.06244 40.1668 9.06244C39.6821 9.06244 39.3161 8.94139 39.0688 8.6993C38.8192 8.45138 38.6961 8.13013 38.6961 7.73672C38.6961 7.39801 38.8226 7.09539 39.0766 6.82884C39.3361 6.55648 39.65 6.33301 40.0193 6.15725C40.3831 5.97568 40.8002 5.83717 41.2738 5.7394C41.7463 5.63697 42.1855 5.58576 42.5892 5.58459C43.1482 5.58459 43.6617 5.62068 44.1287 5.694C44.5956 5.76151 45.0171 5.90351 45.392 6.12117C45.7491 6.33301 46.032 6.64145 46.2394 7.04767C46.4523 7.4469 46.5588 7.97067 46.5599 8.61782C46.5599 9.30222 46.5455 10.1123 46.5167 11.0505C46.4934 11.9886 46.4823 12.6055 46.4823 12.9023C46.4823 13.1746 46.52 13.39 46.5943 13.5471C46.6753 13.7054 46.7962 13.8218 46.9581 13.9009C47.0557 13.9487 47.2088 13.9801 47.4162 13.9906C47.6291 13.9975 47.8221 13.9999 47.9963 13.9999V14.6622L47.9974 14.6633Z" fill="#1D4481"/>
<path d="M69.1251 4.89536C68.7018 3.92792 68.119 3.07211 67.3911 2.35309C66.6632 1.63408 65.8012 1.05843 64.8284 0.640371C63.8512 0.220124 62.7898 0.0078125 61.673 0.0078125C60.5562 0.0078125 59.5147 0.220124 58.5386 0.640371C57.5647 1.05843 56.7027 1.63408 55.9759 2.35309C55.248 3.07211 54.6652 3.92792 54.242 4.89536C53.8176 5.86718 53.6016 6.91233 53.6016 8.00125C53.6016 9.09017 53.8165 10.1528 54.242 11.1181C54.6652 12.08 55.248 12.9315 55.9759 13.6494C56.7027 14.3673 57.5647 14.9441 58.5386 15.3621C59.5158 15.7824 60.5706 15.9947 61.673 15.9947C61.878 15.9947 62.0807 15.987 62.2812 15.9728C62.104 15.7769 61.9212 15.5854 61.7494 15.384C60.5263 13.9471 59.2898 12.5211 57.9924 11.1476C57.917 11.0677 57.8783 10.9791 57.8794 10.8696C57.8816 10.5512 57.8794 10.2338 57.8805 9.91534C57.8827 9.6888 57.9868 9.59249 58.2184 9.58921C58.6837 9.58264 59.1502 9.5903 59.6144 9.56294C60.1784 9.52902 60.7179 9.3955 61.1788 9.04967C61.468 8.83298 61.6652 8.55282 61.7594 8.1862H61.6109C60.493 8.1862 59.3762 8.1862 58.2583 8.1862C58.2084 8.1862 58.1575 8.18729 58.1076 8.18182C57.9879 8.16759 57.8915 8.08223 57.8893 7.96513C57.8827 7.65104 57.8827 7.33695 57.8893 7.02286C57.8927 6.90248 57.9857 6.82149 58.1065 6.80617C58.1597 6.7996 58.2151 6.79851 58.2694 6.79851C59.3407 6.79851 60.411 6.79851 61.4824 6.79851H61.6198C61.6276 6.78975 61.6353 6.7799 61.6431 6.77115C61.56 6.66499 61.4846 6.55118 61.3916 6.45487C61.1146 6.17252 60.76 6.02259 60.3767 5.95911C60.031 5.9022 59.6776 5.87703 59.3263 5.86171C58.9618 5.84529 58.5973 5.85843 58.2317 5.85843C57.9835 5.85843 57.8805 5.75555 57.8794 5.50932C57.8794 5.18757 57.8783 4.86582 57.8794 4.54407C57.8805 4.29236 57.9691 4.20809 58.2239 4.20809C60.5251 4.20809 62.8264 4.20809 65.1276 4.20809C65.3758 4.20809 65.471 4.30111 65.4721 4.54735C65.4733 4.76951 65.4721 4.99167 65.4721 5.21383C65.4721 5.5126 65.3868 5.59796 65.0888 5.59796C64.5182 5.59796 63.9476 5.59796 63.377 5.59796H63.2352C63.3094 5.71616 63.387 5.80918 63.4324 5.91643C63.541 6.16814 63.6418 6.42423 63.7316 6.6836C63.7626 6.77115 63.7958 6.8018 63.89 6.8007C64.301 6.79523 64.7121 6.79742 65.1242 6.79851C65.4023 6.79851 65.4832 6.8795 65.4843 7.15528C65.4843 7.39277 65.4865 7.63025 65.4843 7.86773C65.4821 8.09865 65.3913 8.1862 65.1575 8.1862C64.7387 8.1862 64.3188 8.18839 63.9 8.1851C63.8213 8.1851 63.7881 8.20043 63.7703 8.28579C63.5255 9.5323 62.7588 10.3411 61.5766 10.7766C61.1955 10.9167 60.7899 10.9911 60.3955 11.0951C60.411 11.1126 60.4421 11.1498 60.4753 11.1859C61.7816 12.5824 63.0047 14.0499 64.2268 15.5186C64.2434 15.5383 64.2567 15.558 64.2689 15.5766C64.4584 15.5121 64.6445 15.4409 64.8273 15.3621C65.8001 14.9441 66.6621 14.3673 67.39 13.6494C68.1168 12.9315 68.7007 12.0789 69.124 11.1181C69.5494 10.1528 69.7643 9.10439 69.7643 8.00125C69.7643 6.8981 69.5494 5.86718 69.124 4.89536H69.1251Z" fill="#ED1C24"/>
<path d="M96.9708 10.9926C96.1277 11.9425 94.8945 12.5466 93.5173 12.5466C91.595 12.5466 89.9464 11.3756 89.2584 9.71873H97.7763V9.72202H101.409C101.63 8.73378 101.672 7.67989 101.472 6.58878C100.824 3.0342 97.7863 0.309159 94.14 0.0388442C89.1985 -0.328871 85.0936 3.72147 85.4559 8.60027C85.7439 12.4689 88.8806 15.6153 92.7927 15.9535C96.4844 16.273 99.713 14.1215 101 10.9926H96.9708ZM93.5173 3.45334C95.4396 3.45334 97.0883 4.62434 97.7763 6.28125H89.2584C89.9464 4.62434 91.595 3.45334 93.5173 3.45334Z" fill="#ED1C24"/>
<path d="M83.8423 16H80.0852V6.15267C80.0852 4.80657 78.9773 3.71218 77.6145 3.71218C76.2517 3.71218 75.1438 4.80766 75.1438 6.15267V15.9825H71.3867V6.15267C71.3867 2.76005 74.181 0 77.6145 0C81.048 0 83.8423 2.76005 83.8423 6.15267V16Z" fill="#ED1C24"/>
</svg>
