<svg width="280" height="46" viewBox="0 0 280 46" fill="none" xmlns="http://www.w3.org/2000/svg">
<path d="M18.457 43C15.8708 43 13.4505 42.5871 11.196 41.7706C8.9383 40.9353 6.97398 39.7279 5.29984 38.155C3.66078 36.6135 2.36612 34.7127 1.41903 32.4493C0.475137 30.1702 0 27.6736 0 24.9501C0 22.2265 0.471948 19.7456 1.41903 17.4508C2.37887 15.1402 3.72137 13.1416 5.44653 11.452C7.13661 9.79705 9.1679 8.51723 11.5404 7.61568C13.9097 6.69836 16.448 6.23813 19.149 6.23813C21.1069 6.23813 22.8895 6.4777 24.4966 6.95054C26.1038 7.41078 27.4622 7.93405 28.5751 8.52353L30.1154 7.17121H32.2774L32.5006 19.9096H30.3131C29.0694 16.026 27.577 13.1731 25.8359 11.3543C24.0948 9.53541 21.9743 8.6244 19.4678 8.6244C16.3492 8.6244 13.9799 9.98619 12.3535 12.7066C10.7272 15.4113 9.91728 19.2129 9.91728 24.1147C9.91728 26.8856 10.1915 29.2529 10.7368 31.2199C11.3012 33.1712 12.0283 34.7442 12.9243 35.9421C13.8842 37.1904 15.0226 38.1045 16.3332 38.694C17.6438 39.2677 19.0916 39.5546 20.686 39.5546C23.0074 39.5546 25.0706 38.9336 26.8787 37.6884C28.7027 36.4433 30.3609 34.5551 31.8533 32.0332L33.993 33.3131C33.2787 34.7568 32.4687 36.0492 31.5567 37.1967C30.6447 38.3283 29.5892 39.3024 28.3966 40.122C27.086 41.0235 25.635 41.7296 24.047 42.2372C22.4685 42.7447 20.6062 43 18.4506 43" fill="white"/>
<path d="M66.366 42.0638H51.3945V40.267C51.7229 40.2354 52.1151 40.1945 52.5616 40.144C53.008 40.0936 53.3428 40.0148 53.5565 39.8982C53.9073 39.7185 54.1464 39.4568 54.2772 39.1101C54.4238 38.7665 54.5004 38.259 54.5004 37.5844V26.0786C54.5004 24.3921 54.1783 23.128 53.531 22.2927C52.8996 21.4573 51.9971 21.0381 50.8205 21.0381C50.1572 21.0381 49.5354 21.1358 48.955 21.3344C48.3906 21.5298 47.8357 21.8198 47.2872 22.195C46.8057 22.5228 46.4167 22.8601 46.1169 23.2037C45.8331 23.5473 45.594 23.8499 45.3963 24.1115V37.3133C45.3963 37.9217 45.4728 38.404 45.6195 38.7633C45.7693 39.1069 46.05 39.3938 46.4645 39.6239C46.7132 39.7721 47.0385 39.9013 47.4339 40.0179C47.8485 40.1346 48.2439 40.2134 48.6265 40.2638V42.0606H33.5051V40.2638C33.9388 40.2323 34.3501 40.1913 34.7487 40.1409C35.1633 40.0904 35.5268 40.0116 35.8425 39.895C36.3719 39.6996 36.729 39.419 36.9108 39.0596C37.1085 38.6845 37.2105 38.1896 37.2105 37.5844V10.1753C37.2105 9.65204 37.0862 9.09408 36.8374 8.50145C36.5887 7.91198 36.2379 7.47066 35.7915 7.17434C35.4598 6.95999 34.9783 6.79922 34.3469 6.68259C33.7187 6.55335 33.1543 6.46824 32.6569 6.43671V4.63991L45.0168 4L45.3899 4.39403V21.3092H45.4887C46.1169 20.7512 46.6814 20.2532 47.182 19.8087C47.6954 19.3516 48.3172 18.8914 49.0475 18.4311C49.6597 18.0371 50.4569 17.703 51.4359 17.4224C52.4308 17.145 53.5023 17.0063 54.6439 17.0032C57.3289 17.0032 59.3442 17.766 60.6867 19.2886C62.0452 20.8143 62.7244 22.8223 62.7276 25.3126V37.3606C62.7276 37.9658 62.82 38.4513 63.0018 38.8106C63.1836 39.1731 63.5248 39.4568 64.0222 39.6712C64.322 39.8036 64.6536 39.9171 65.0172 40.0148C65.3839 40.1125 65.8303 40.1945 66.3628 40.2607V42.0575L66.366 42.0638Z" fill="white"/>
<path d="M84.6795 37.6128C85.0462 36.6954 85.3109 35.5795 85.4767 34.2713C85.6584 32.96 85.7509 31.4374 85.7509 29.6974C85.7509 28.55 85.668 27.2386 85.5022 25.7633C85.3364 24.2881 85.0876 23.1249 84.756 22.2738C84.3574 21.2398 83.8025 20.4297 83.0882 19.8402C82.3931 19.2507 81.5034 18.9544 80.4256 18.9544C79.2489 18.9544 78.305 19.2728 77.5907 19.9127C76.8923 20.5526 76.3534 21.3785 75.974 22.3936C75.6264 23.3266 75.384 24.4268 75.2501 25.6908C75.1193 26.936 75.0524 28.241 75.0524 29.5997C75.0524 31.387 75.1098 32.8686 75.2278 34.0507C75.3458 35.2139 75.6264 36.3865 76.0728 37.5655C76.4523 38.5805 77.0008 39.3875 77.7151 39.9738C78.4262 40.5633 79.3318 40.8596 80.4256 40.8596C81.4205 40.8596 82.2751 40.5885 82.9862 40.0495C83.6973 39.4915 84.2649 38.6814 84.6763 37.6159M91.0444 20.5778C92.2689 21.7095 93.2064 23.0618 93.8538 24.6348C94.5011 26.2078 94.8232 27.9132 94.8232 29.7478C94.8232 31.5825 94.5011 33.2878 93.8538 34.9113C93.2224 36.5158 92.2944 37.8965 91.0667 39.0407C89.7561 40.2701 88.1904 41.2127 86.3664 41.8683C84.5583 42.524 82.4856 42.8519 80.1481 42.8519C78.1264 42.8519 76.261 42.565 74.5517 41.9913C72.8617 41.4176 71.3597 40.557 70.0491 39.4096C68.7895 38.3126 67.7946 36.9602 67.0643 35.3526C66.3341 33.7292 65.9706 31.9197 65.9706 29.918C65.9706 27.9164 66.2863 26.2078 66.9177 24.6821C67.565 23.1438 68.5248 21.7757 69.8004 20.5778C71.0281 19.4304 72.5364 18.5446 74.3285 17.9236C76.1366 17.2837 78.1519 16.9653 80.3714 16.9653C82.5908 16.9653 84.7305 17.2869 86.4907 17.9236C88.2637 18.5478 89.7816 19.4304 91.0412 20.5778H91.0444Z" fill="white"/>
<path d="M110.184 42.0638H94.5904V40.267C95.0209 40.2355 95.4323 40.1945 95.8309 40.1441C96.2454 40.0936 96.6121 40.0148 96.9246 39.8982C97.454 39.7028 97.8111 39.4222 97.9961 39.0628C98.1938 38.6877 98.2926 38.1928 98.2926 37.5876V10.3487C98.2926 9.72774 98.1587 9.15087 97.894 8.6276C97.6453 8.0854 97.3073 7.67561 96.8736 7.39821C96.542 7.187 96.035 6.97896 95.3557 6.78351C94.6925 6.58807 94.1025 6.47144 93.5891 6.43991V4.64312L106.099 4.0032L106.472 4.39724V37.2692C106.472 37.8776 106.58 38.3662 106.794 38.7445C107.011 39.1196 107.358 39.4159 107.84 39.6303C108.172 39.7784 108.519 39.9077 108.886 40.0243C109.249 40.1409 109.68 40.2197 110.177 40.2702V42.067L110.184 42.0638Z" fill="white"/>
<path d="M125.637 28.7391C124.709 29.0512 123.787 29.4105 122.879 29.8203C121.963 30.2144 121.22 30.6305 120.64 31.075C120.025 31.5352 119.546 32.1247 119.199 32.8434C118.851 33.5495 118.676 34.3848 118.676 35.3526C118.676 36.6324 118.966 37.556 119.546 38.1297C120.143 38.7035 120.873 38.9903 121.734 38.9903C122.646 38.9903 123.392 38.8075 123.972 38.4481C124.569 38.073 125.092 37.6128 125.538 37.0706L125.637 28.736V28.7391ZM138 41.5468C137.27 41.8589 136.409 42.1426 135.414 42.4074C134.419 42.669 133.363 42.8014 132.254 42.8014C130.216 42.8014 128.714 42.5051 127.751 41.9156C126.788 41.3104 126.134 40.4498 125.787 39.3339H125.637C125.072 39.8919 124.527 40.3647 123.995 40.7588C123.481 41.1528 122.923 41.4901 122.327 41.7675C121.546 42.1268 120.793 42.3885 120.066 42.5524C119.352 42.7321 118.35 42.8203 117.056 42.8235C115.133 42.8235 113.491 42.2655 112.129 41.1528C110.767 40.0211 110.088 38.5301 110.088 36.6765C110.088 35.6111 110.238 34.7095 110.535 33.9719C110.834 33.2185 111.255 32.5565 111.804 31.9797C112.301 31.4564 112.872 31.0214 113.519 30.6778C114.183 30.3342 114.903 30.0126 115.685 29.7195C117.177 29.1773 118.969 28.6225 121.058 28.0488C123.146 27.4593 124.674 26.936 125.634 26.4758V24.1147C125.634 23.7049 125.599 23.1659 125.535 22.4944C125.468 21.823 125.328 21.2556 125.111 20.7954C124.878 20.2721 124.511 19.8276 124.017 19.4683C123.52 19.1089 122.866 18.9292 122.053 18.9261C121.322 18.9261 120.71 19.0332 120.213 19.2444C119.731 19.4399 119.342 19.6448 119.046 19.8591C119.093 20.187 119.237 20.6882 119.466 21.3596C119.699 22.0311 119.814 22.6804 119.814 23.3014C119.814 23.582 119.741 23.935 119.591 24.3606C119.441 24.7704 119.224 25.0982 118.944 25.3441C118.561 25.6719 118.13 25.9273 117.649 26.107C117.183 26.2866 116.463 26.3781 115.487 26.3781C114.093 26.3781 113.041 26.0502 112.33 25.3945C111.612 24.7231 111.258 23.8531 111.258 22.7876C111.258 21.8703 111.622 21.0507 112.352 20.3288C113.098 19.5912 114.001 18.986 115.063 18.51C116.109 18.0182 117.308 17.6431 118.669 17.3783C120.028 17.1009 121.291 16.9622 122.451 16.959C124.058 16.959 125.535 17.0568 126.877 17.2554C128.22 17.4382 129.432 17.8228 130.509 18.4122C131.536 18.986 132.349 19.8213 132.946 20.9215C133.558 22.0027 133.864 23.4212 133.867 25.1739C133.867 27.0274 133.826 29.2214 133.743 31.7621C133.676 34.3029 133.644 35.9736 133.644 36.7774C133.644 37.5151 133.752 38.0982 133.966 38.5238C134.199 38.9525 134.546 39.2677 135.012 39.4821C135.293 39.6113 135.733 39.6964 136.329 39.7248C136.941 39.7437 137.496 39.75 137.997 39.75V41.5437L138 41.5468Z" fill="white"/>
<path d="M186.627 14.0737C185.411 11.2923 183.735 8.83188 181.643 6.76471C179.55 4.69754 177.072 3.04255 174.275 1.84064C171.466 0.63243 168.415 0.0220337 165.204 0.0220337C161.993 0.0220337 158.999 0.63243 156.193 1.84064C153.393 3.04255 150.915 4.69754 148.826 6.76471C146.733 8.83188 145.058 11.2923 143.841 14.0737C142.621 16.8677 142 19.8725 142 23.0032C142 26.1338 142.618 29.1889 143.841 31.964C145.058 34.7297 146.733 37.1776 148.826 39.2416C150.915 41.3056 153.393 42.9637 156.193 44.1657C159.002 45.3739 162.035 45.9843 165.204 45.9843C165.793 45.9843 166.376 45.9622 166.953 45.9213C166.443 45.3581 165.917 44.8075 165.424 44.2286C161.907 40.0974 158.353 35.9977 154.623 32.049C154.406 31.8193 154.295 31.5644 154.298 31.2498C154.304 30.3342 154.298 29.4218 154.301 28.5062C154.307 27.8549 154.607 27.578 155.273 27.5685C156.61 27.5497 157.951 27.5717 159.286 27.493C160.907 27.3955 162.458 27.0116 163.783 26.0174C164.615 25.3944 165.182 24.5889 165.452 23.5349H165.026C161.812 23.5349 158.601 23.5349 155.387 23.5349C155.244 23.5349 155.097 23.538 154.954 23.5223C154.61 23.4814 154.333 23.236 154.327 22.8993C154.307 21.9963 154.307 21.0933 154.327 20.1903C154.336 19.8442 154.604 19.6114 154.951 19.5673C155.104 19.5484 155.263 19.5453 155.419 19.5453C158.499 19.5453 161.576 19.5453 164.656 19.5453H165.051C165.073 19.5201 165.096 19.4918 165.118 19.4666C164.879 19.1614 164.662 18.8342 164.395 18.5573C163.599 17.7456 162.579 17.3145 161.477 17.132C160.484 16.9684 159.467 16.896 158.458 16.852C157.41 16.8048 156.362 16.8425 155.311 16.8425C154.597 16.8425 154.301 16.5468 154.298 15.8389C154.298 14.9138 154.295 13.9888 154.298 13.0638C154.301 12.3401 154.556 12.0978 155.289 12.0978C161.904 12.0978 168.52 12.0978 175.135 12.0978C175.849 12.0978 176.123 12.3653 176.126 13.0732C176.129 13.7119 176.126 14.3506 176.126 14.9893C176.126 15.8483 175.881 16.0937 175.024 16.0937C173.383 16.0937 171.743 16.0937 170.103 16.0937H169.695C169.908 16.4335 170.131 16.701 170.262 17.0093C170.574 17.733 170.864 18.4692 171.122 19.2149C171.211 19.4666 171.307 19.5547 171.577 19.5516C172.759 19.5359 173.941 19.5421 175.126 19.5453C175.925 19.5453 176.158 19.7781 176.161 20.571C176.161 21.2538 176.167 21.9365 176.161 22.6193C176.155 23.2832 175.893 23.5349 175.221 23.5349C174.017 23.5349 172.81 23.5412 171.606 23.5317C171.38 23.5317 171.284 23.5758 171.233 23.8212C170.53 27.4049 168.325 29.7301 164.927 30.9824C163.831 31.3851 162.665 31.599 161.531 31.898C161.576 31.9483 161.665 32.0553 161.761 32.1591C165.516 36.1739 169.033 40.3932 172.546 44.6156C172.594 44.6722 172.632 44.7289 172.667 44.7824C173.211 44.5967 173.747 44.3922 174.272 44.1657C177.069 42.9637 179.547 41.3056 181.639 39.2416C183.729 37.1776 185.407 34.7265 186.624 31.964C187.847 29.1889 188.465 26.1747 188.465 23.0032C188.465 19.8316 187.847 16.8677 186.624 14.0737H186.627Z" fill="white"/>
<path d="M266.69 31.6053C264.266 34.3364 260.721 36.0732 256.762 36.0732C251.235 36.0732 246.496 32.7066 244.518 27.9429H269.005V27.9524H279.449C280.083 25.1112 280.204 22.0813 279.631 18.9443C277.768 8.7249 269.034 0.890419 258.552 0.113264C244.346 -0.943918 232.545 10.7008 233.586 24.7274C234.414 35.8498 243.432 44.8956 254.678 45.8678C265.291 46.7866 274.573 40.6008 278.274 31.6053H266.69ZM256.762 9.92995C262.288 9.92995 267.027 13.2966 269.005 18.0602H244.518C246.496 13.2966 251.235 9.92995 256.762 9.92995Z" fill="white"/>
<path d="M228.939 46H218.138V17.6889C218.138 13.8189 214.953 10.6725 211.035 10.6725C207.118 10.6725 203.932 13.822 203.932 17.6889V45.9497H193.131V17.6889C193.131 7.93516 201.164 0 211.035 0C220.906 0 228.939 7.93516 228.939 17.6889V46Z" fill="white"/>
</svg>
