<svg width="41" height="40" viewBox="0 0 41 40" fill="none" xmlns="http://www.w3.org/2000/svg">
<path d="M15.6409 21.3768C13.8393 20.6403 12.5585 19.6457 12.8447 17.1264C13.2341 13.7392 18.559 9.8594 20.262 7.93593C21.4677 6.58011 21.7445 3.25391 21.7445 3.25391C21.7445 3.25391 23.5273 6.95073 21.4537 10.033C20.6186 11.2762 16.3493 15.4234 15.4673 17.999C15.1295 18.9842 14.9559 20.2602 15.6362 21.3768" fill="white"/>
<path d="M12.6056 18.1886C10.8181 17.4239 9.38721 16.1807 9.72031 13.6614C10.166 10.2789 15.5566 6.4929 17.2971 4.60227C18.5263 3.26522 18.8547 0 18.8547 0C18.8547 0 20.5718 3.72498 18.4465 6.7697C17.588 7.99884 13.2483 12.071 12.3241 14.6278C11.9722 15.6083 11.7424 16.875 12.6056 18.1839" fill="white"/>
<path d="M24.3633 18.6191C26.1648 19.3557 27.4456 20.3503 27.1594 22.8696C26.77 26.2567 21.4451 30.1365 19.7421 32.06C18.5364 33.4158 18.2596 36.742 18.2596 36.742C18.2596 36.742 16.4768 33.0452 18.5505 29.963C19.3856 28.7197 23.6548 24.5725 24.5369 21.997C24.8746 21.0118 25.0482 19.7357 24.368 18.6191" fill="white"/>
<path d="M27.3965 21.8105C29.184 22.5752 30.6149 23.8185 30.2818 26.3378C29.8361 29.7203 24.4455 33.5062 22.705 35.3969C21.4758 36.7339 21.1474 39.9991 21.1474 39.9991C21.1474 39.9991 19.4303 36.2741 21.5556 33.2294C22.4141 32.0003 26.7538 27.9281 27.678 25.3713C28.0299 24.3908 28.2597 23.1194 27.3965 21.8152" fill="white"/>
<path d="M21.3812 24.3631C20.6446 26.1646 19.65 27.4453 17.1307 27.1592C13.7434 26.7745 9.86348 21.4497 7.93995 19.7421C6.5841 18.5364 3.25781 18.2596 3.25781 18.2596C3.25781 18.2596 6.95473 16.4768 10.0371 18.5504C11.2803 19.3855 15.4276 23.6547 18.0033 24.5367C18.9885 24.8745 20.2646 25.048 21.3812 24.3678" fill="white"/>
<path d="M18.189 27.3944C17.4243 29.1818 16.1811 30.6127 13.6617 30.2796C10.2791 29.8339 6.49307 24.4435 4.60239 22.703C3.2653 21.4738 0 21.1454 0 21.1454C0 21.1454 3.72976 19.4284 6.76987 21.5536C7.99905 22.4121 12.0713 26.7517 14.6329 27.6759C15.6087 28.0277 16.8801 28.2576 18.189 27.3944Z" fill="white"/>
<path d="M18.6172 15.6369C19.3538 13.8354 20.3484 12.5546 22.8677 12.8408C26.255 13.2302 30.1349 18.5549 32.0584 20.2579C33.4143 21.4636 36.7405 21.7404 36.7405 21.7404C36.7405 21.7404 33.0436 23.5231 29.9613 21.4495C28.718 20.6145 24.5707 16.3453 21.9951 15.4633C21.0099 15.1255 19.7338 14.9519 18.6172 15.6322" fill="white"/>
<path d="M21.8125 12.6055C22.5772 10.8181 23.8205 9.38722 26.3398 9.7203C29.7224 10.166 33.5085 15.5564 35.3992 17.2969C36.7362 18.5261 40.0015 18.8545 40.0015 18.8545C40.0015 18.8545 36.2765 20.5715 33.2317 18.4463C32.0025 17.5878 27.9302 13.2482 25.3687 12.324C24.3881 11.9675 23.1214 11.7376 21.8125 12.6055Z" fill="white"/>
</svg>
