<svg width="34" height="34" viewBox="0 0 34 34" fill="none" xmlns="http://www.w3.org/2000/svg">
<rect width="34" height="34" rx="3" fill="#F6F8F9"/>
<path d="M19 27.75H15C9.57 27.75 7.25 25.43 7.25 20V14C7.25 8.57 9.57 6.25 15 6.25H19C24.43 6.25 26.75 8.57 26.75 14V20C26.75 25.43 24.43 27.75 19 27.75ZM15 7.75C10.39 7.75 8.75 9.39 8.75 14V20C8.75 24.61 10.39 26.25 15 26.25H19C23.61 26.25 25.25 24.61 25.25 20V14C25.25 9.39 23.61 7.75 19 7.75H15Z" fill="#001A72"/>
<rect x="12" y="11" width="5" height="4" rx="2" fill="#99D1FF"/>
<path d="M20 15.8301H14C12.76 15.8301 11.75 14.8201 11.75 13.5801V12.5801C11.75 11.3401 12.76 10.3301 14 10.3301H20C21.24 10.3301 22.25 11.3401 22.25 12.5801V13.5801C22.25 14.8201 21.24 15.8301 20 15.8301ZM14 11.8301C13.59 11.8301 13.25 12.1701 13.25 12.5801V13.5801C13.25 13.9901 13.59 14.3301 14 14.3301H20C20.41 14.3301 20.75 13.9901 20.75 13.5801V12.5801C20.75 12.1701 20.41 11.8301 20 11.8301H14Z" fill="#001A72"/>
<path d="M14 18.5V22.5" stroke="#001A72" stroke-width="1.2" stroke-linecap="round"/>
<path d="M12 20.5H16" stroke="#001A72" stroke-width="1.2" stroke-linecap="round"/>
<path d="M18.5 20.5H22" stroke="#001A72" stroke-width="1.2" stroke-linecap="round"/>
</svg>
