<svg width="24" height="24" viewBox="0 0 24 24" fill="none" xmlns="http://www.w3.org/2000/svg">
<path d="M14 22.75H10C4.57 22.75 2.25 20.43 2.25 15V9C2.25 3.57 4.57 1.25 10 1.25H14C19.43 1.25 21.75 3.57 21.75 9V15C21.75 20.43 19.43 22.75 14 22.75ZM10 2.75C5.39 2.75 3.75 4.39 3.75 9V15C3.75 19.61 5.39 21.25 10 21.25H14C18.61 21.25 20.25 19.61 20.25 15V9C20.25 4.39 18.61 2.75 14 2.75H10Z" fill="#001A72"/>
<rect x="7" y="6" width="5" height="4" rx="2" fill="#99D1FF"/>
<path d="M15 10.83H9C7.76 10.83 6.75 9.82002 6.75 8.58002V7.58002C6.75 6.34002 7.76 5.33002 9 5.33002H15C16.24 5.33002 17.25 6.34002 17.25 7.58002V8.58002C17.25 9.82002 16.24 10.83 15 10.83ZM9 6.83002C8.59 6.83002 8.25 7.17002 8.25 7.58002V8.58002C8.25 8.99002 8.59 9.33002 9 9.33002H15C15.41 9.33002 15.75 8.99002 15.75 8.58002V7.58002C15.75 7.17002 15.41 6.83002 15 6.83002H9Z" fill="#001A72"/>
<path d="M9 13.5V17.5" stroke="#001A72" stroke-width="1.2" stroke-linecap="round"/>
<path d="M7 15.5H11" stroke="#001A72" stroke-width="1.2" stroke-linecap="round"/>
<path d="M13.5 15.5H17" stroke="#001A72" stroke-width="1.2" stroke-linecap="round"/>
</svg>
