<svg width="16" height="16" viewBox="0 0 16 16" fill="none" xmlns="http://www.w3.org/2000/svg">
<path d="M5.33334 15.1667C2.85334 15.1667 0.833344 13.1467 0.833344 10.6667C0.833344 8.64003 2.19334 6.85336 4.14668 6.3267C4.39334 6.26003 4.64668 6.3867 4.74001 6.6267C5.14668 7.6467 6.01334 8.4267 7.07334 8.71336C7.66001 8.87336 8.34001 8.87336 8.91334 8.71336C9.16001 8.6467 9.42001 8.77336 9.51334 9.01336C9.72001 9.54003 9.82668 10.1 9.82668 10.6734C9.82668 11.9534 9.28001 13.1734 8.32668 14.02C7.51334 14.7534 6.44668 15.1667 5.33334 15.1667ZM4.01334 7.42003C2.71334 7.95336 1.83334 9.23336 1.83334 10.6667C1.83334 12.5934 3.40668 14.1667 5.33334 14.1667C6.20001 14.1667 7.02668 13.8467 7.66668 13.2667C8.41334 12.6067 8.83334 11.66 8.83334 10.6667C8.83334 10.36 8.79334 10.0667 8.72001 9.78003C8.09334 9.88003 7.41334 9.8467 6.81334 9.68003C5.60668 9.3467 4.59334 8.52003 4.01334 7.42003Z" fill="#383637"/>
<path d="M8 9.83331C7.58667 9.83331 7.18667 9.77998 6.81333 9.67331C5.46 9.29998 4.33333 8.29998 3.81333 6.98665C3.60667 6.46665 3.5 5.90665 3.5 5.33331C3.5 2.85331 5.52 0.833313 8 0.833313C10.48 0.833313 12.5 2.85331 12.5 5.33331C12.5 5.90665 12.3933 6.46665 12.1867 6.99331C11.6667 8.29998 10.5467 9.30665 9.18667 9.67998C8.81333 9.77998 8.41333 9.83331 8 9.83331ZM8 1.83331C6.07333 1.83331 4.5 3.40665 4.5 5.33331C4.5 5.77998 4.58 6.21331 4.74667 6.61998C5.15333 7.63998 6.02 8.41998 7.08 8.70665C7.66667 8.86665 8.34667 8.86665 8.92 8.70665C9.98 8.41998 10.8533 7.63331 11.2533 6.61998C11.4133 6.21331 11.5 5.77998 11.5 5.33331C11.5 3.40665 9.92667 1.83331 8 1.83331Z" fill="#383637"/>
<path d="M10.6667 15.1667C9.55333 15.1667 8.48667 14.7534 7.66667 14.0134C7.56 13.92 7.5 13.78 7.5 13.64C7.5 13.5 7.56 13.36 7.66667 13.2667C8.40667 12.6134 8.83333 11.6667 8.83333 10.6667C8.83333 10.22 8.75333 9.78669 8.58667 9.38002C8.53333 9.24669 8.54 9.10003 8.60667 8.97336C8.67333 8.84669 8.78667 8.75336 8.92 8.71336C9.98 8.42669 10.8467 7.64669 11.2533 6.62669C11.3467 6.38669 11.6067 6.26669 11.8467 6.32669C13.8 6.86002 15.16 8.64002 15.16 10.6667C15.1667 13.1467 13.1467 15.1667 10.6667 15.1667ZM8.74667 13.5934C9.31333 13.9667 9.97333 14.1667 10.6667 14.1667C12.5933 14.1667 14.1667 12.5934 14.1667 10.6667C14.1667 9.23336 13.2867 7.95336 11.9867 7.42002C11.4933 8.36002 10.6667 9.10669 9.68 9.50669C9.78 9.88003 9.83333 10.2734 9.83333 10.6667C9.83333 11.7467 9.44667 12.7867 8.74667 13.5934Z" fill="#383637"/>
</svg>
