<svg width="20" height="20" viewBox="0 0 20 20" fill="none" xmlns="http://www.w3.org/2000/svg">
<path d="M10 2.5L10 15" stroke="#E6E6E6" stroke-width="1.4" stroke-linecap="round"/>
<path d="M7.70829 16.6667C7.70829 15.4 8.73329 14.375 9.99996 14.375C11.2666 14.375 12.2916 15.4 12.2916 16.6667C12.2916 17.9333 11.2666 18.9583 9.99996 18.9583C8.73329 18.9583 7.70829 17.9333 7.70829 16.6667ZM11.0416 16.6667C11.0416 16.0917 10.575 15.625 9.99996 15.625C9.42496 15.625 8.95829 16.0917 8.95829 16.6667C8.95829 17.2417 9.42496 17.7083 9.99996 17.7083C10.575 17.7083 11.0416 17.2417 11.0416 16.6667Z" fill="#E6E6E6"/>
<path d="M14.375 16.6667C14.375 15.4 15.4 14.375 16.6667 14.375C17.9334 14.375 18.9584 15.4 18.9584 16.6667C18.9584 17.9333 17.9334 18.9583 16.6667 18.9583C15.4 18.9583 14.375 17.9333 14.375 16.6667ZM17.7084 16.6667C17.7084 16.0917 17.2417 15.625 16.6667 15.625C16.0917 15.625 15.625 16.0917 15.625 16.6667C15.625 17.2417 16.0917 17.7083 16.6667 17.7083C17.2417 17.7083 17.7084 17.2417 17.7084 16.6667Z" fill="#E6E6E6"/>
<path d="M1.04167 16.6667C1.04167 15.4 2.06667 14.375 3.33333 14.375C4.6 14.375 5.625 15.4 5.625 16.6667C5.625 17.9333 4.6 18.9583 3.33333 18.9583C2.06667 18.9583 1.04167 17.9333 1.04167 16.6667ZM4.375 16.6667C4.375 16.0917 3.90833 15.625 3.33333 15.625C2.75833 15.625 2.29167 16.0917 2.29167 16.6667C2.29167 17.2417 2.75833 17.7083 3.33333 17.7083C3.90833 17.7083 4.375 17.2417 4.375 16.6667Z" fill="#E6E6E6"/>
<path d="M2.70829 15V11.6666C2.70829 9.64996 3.81663 8.54163 5.83329 8.54163L14.1666 8.54163C16.1833 8.54163 17.2916 9.64996 17.2916 11.6666V15C17.2916 15.3416 17.0083 15.625 16.6666 15.625C16.325 15.625 16.0416 15.3416 16.0416 15V11.6666C16.0416 10.35 15.4833 9.79163 14.1666 9.79163L5.83329 9.79163C4.51663 9.79163 3.95829 10.35 3.95829 11.6666V15C3.95829 15.3416 3.67496 15.625 3.33329 15.625C2.99163 15.625 2.70829 15.3416 2.70829 15Z" fill="#E6E6E6"/>
<path d="M10 2.5L7 5" stroke="#E6E6E6" stroke-width="1.4" stroke-linecap="round"/>
<path d="M10 2.5L13 5" stroke="#E6E6E6" stroke-width="1.4" stroke-linecap="round"/>
</svg>
