<svg width="20" height="20" viewBox="0 0 20 20" fill="none" xmlns="http://www.w3.org/2000/svg">
<path d="M18.3334 5.20837H13.3334C12.9917 5.20837 12.7084 4.92504 12.7084 4.58337C12.7084 4.24171 12.9917 3.95837 13.3334 3.95837H18.3334C18.675 3.95837 18.9584 4.24171 18.9584 4.58337C18.9584 4.92504 18.675 5.20837 18.3334 5.20837Z" fill="#E6E6E6"/>
<path d="M4.99996 5.20837H1.66663C1.32496 5.20837 1.04163 4.92504 1.04163 4.58337C1.04163 4.24171 1.32496 3.95837 1.66663 3.95837H4.99996C5.34163 3.95837 5.62496 4.24171 5.62496 4.58337C5.62496 4.92504 5.34163 5.20837 4.99996 5.20837Z" fill="#E6E6E6"/>
<path d="M8.33333 8.33329C6.49804 8.33329 5 6.83525 5 4.99996C5 3.16467 6.49804 1.66663 8.33333 1.66663C10.1686 1.66663 11.6667 3.16467 11.6667 4.99996C11.6667 6.83525 10.1686 8.33329 8.33333 8.33329ZM8.33333 2.8431C7.14118 2.8431 6.17647 3.8078 6.17647 4.99996C6.17647 6.19212 7.14118 7.15682 8.33333 7.15682C9.52549 7.15682 10.4902 6.19212 10.4902 4.99996C10.4902 3.8078 9.52549 2.8431 8.33333 2.8431Z" fill="#E6E6E6"/>
<path d="M18.3333 15.4166H15C14.6583 15.4166 14.375 15.1333 14.375 14.7916C14.375 14.45 14.6583 14.1666 15 14.1666H18.3333C18.675 14.1666 18.9583 14.45 18.9583 14.7916C18.9583 15.1333 18.675 15.4166 18.3333 15.4166Z" fill="#E6E6E6"/>
<path d="M6.66663 15.4166H1.66663C1.32496 15.4166 1.04163 15.1333 1.04163 14.7916C1.04163 14.45 1.32496 14.1666 1.66663 14.1666H6.66663C7.00829 14.1666 7.29163 14.45 7.29163 14.7916C7.29163 15.1333 7.00829 15.4166 6.66663 15.4166Z" fill="#E6E6E6"/>
<path d="M11.6667 18.3333C9.83141 18.3333 8.33337 16.8353 8.33337 15C8.33337 13.1647 9.83141 11.6666 11.6667 11.6666C13.502 11.6666 15 13.1647 15 15C15 16.8353 13.502 18.3333 11.6667 18.3333ZM11.6667 12.8431C10.4746 12.8431 9.50984 13.8078 9.50984 15C9.50984 16.1921 10.4746 17.1568 11.6667 17.1568C12.8589 17.1568 13.8236 16.1921 13.8236 15C13.8236 13.8078 12.8589 12.8431 11.6667 12.8431Z" fill="#E6E6E6"/>
<path d="M8.33329 6.66671C7.41208 6.66671 6.66663 5.92125 6.66663 5.00004C6.66663 4.07883 7.41208 3.33337 8.33329 3.33337C9.2545 3.33337 9.99996 4.07883 9.99996 5.00004C9.99996 5.92125 9.2545 6.66671 8.33329 6.66671ZM8.33329 4.24246C7.91511 4.24246 7.57572 4.58186 7.57572 5.00004C7.57572 5.41822 7.91511 5.75762 8.33329 5.75762C8.75147 5.75762 9.09087 5.41822 9.09087 5.00004C9.09087 4.58186 8.75147 4.24246 8.33329 4.24246Z" fill="#E6E6E6"/>
<path d="M11.6667 16.6667C10.7455 16.6667 10 15.9213 10 15C10 14.0788 10.7455 13.3334 11.6667 13.3334C12.5879 13.3334 13.3333 14.0788 13.3333 15C13.3333 15.9213 12.5879 16.6667 11.6667 16.6667ZM11.6667 14.2425C11.2485 14.2425 10.9091 14.5819 10.9091 15C10.9091 15.4182 11.2485 15.7576 11.6667 15.7576C12.0848 15.7576 12.4242 15.4182 12.4242 15C12.4242 14.5819 12.0848 14.2425 11.6667 14.2425Z" fill="#E6E6E6"/>
</svg>
