<svg width="30" height="30" viewBox="0 0 30 30" fill="none" xmlns="http://www.w3.org/2000/svg">
<path d="M20.25 9.64706V20.2353C20.25 21.2099 19.4665 22 18.5 22H11.5C10.5335 22 9.75 21.2099 9.75 20.2353V9.64706M8 9.64706H22M17.625 9.64706V8.76471C17.625 7.79009 16.8415 7 15.875 7H14.125C13.1585 7 12.375 7.79009 12.375 8.76471V9.64706" stroke="#1E1E1E" stroke-width="1.5" stroke-linecap="round" stroke-linejoin="round"/>
<path d="M13.4128 15.888C13.4128 15.472 13.5028 15.102 13.6828 14.778C13.8628 14.45 14.1128 14.196 14.4328 14.016C14.7568 13.832 15.1228 13.74 15.5308 13.74C16.0308 13.74 16.4588 13.872 16.8148 14.136C17.1708 14.4 17.4088 14.76 17.5288 15.216H16.4008C16.3168 15.04 16.1968 14.906 16.0408 14.814C15.8888 14.722 15.7148 14.676 15.5188 14.676C15.2028 14.676 14.9468 14.786 14.7508 15.006C14.5548 15.226 14.4568 15.52 14.4568 15.888C14.4568 16.256 14.5548 16.55 14.7508 16.77C14.9468 16.99 15.2028 17.1 15.5188 17.1C15.7148 17.1 15.8888 17.054 16.0408 16.962C16.1968 16.87 16.3168 16.736 16.4008 16.56H17.5288C17.4088 17.016 17.1708 17.376 16.8148 17.64C16.4588 17.9 16.0308 18.03 15.5308 18.03C15.1228 18.03 14.7568 17.94 14.4328 17.76C14.1128 17.576 13.8628 17.322 13.6828 16.998C13.5028 16.674 13.4128 16.304 13.4128 15.888Z" fill="#4671F3"/>
</svg>
