<svg width="24" height="24" viewBox="0 0 24 24" fill="none" xmlns="http://www.w3.org/2000/svg">
<path d="M15.1111 20L14.0046 15.0009L19 16C19 16 17.0295 16.6234 16.2222 17.5C15.4767 18.3096 15.1111 20 15.1111 20Z" fill="#99D1FF"/>
<path d="M10.75 22.5H8.30814C3.88837 22.5 2 20.18 2 14.75V8.75C2 3.32 3.88837 1 8.30814 1H13.1919C17.6116 1 19.5 3.32 19.5 8.75V11.75C19.5 12.16 19.2233 12.5 18.8895 12.5C18.5558 12.5 18.2791 12.16 18.2791 11.75V8.75C18.2791 4.14 16.9442 2.5 13.1919 2.5H8.30814C4.55581 2.5 3.22093 4.14 3.22093 8.75V14.75C3.22093 19.36 4.55581 21 8.30814 21H10.75C11.0837 21 11.3605 21.34 11.3605 21.75C11.3605 22.16 11.0837 22.5 10.75 22.5Z" fill="#001A72"/>
<path d="M12.4545 5H9.54545C9.24727 5 9 4.77333 9 4.5C9 4.22667 9.24727 4 9.54545 4H12.4545C12.7527 4 13 4.22667 13 4.5C13 4.77333 12.7527 5 12.4545 5Z" fill="#001A72"/>
<path d="M16.5306 23.0186C16.522 23.0186 16.522 23.0186 16.5135 23.0186C15.6479 23.01 14.928 22.4787 14.6709 21.6474L13.0855 16.5482C12.8712 15.8454 13.0512 15.0913 13.574 14.5856C14.0882 14.08 14.8338 13.8915 15.5194 14.1057L20.6271 15.6912C21.4498 15.9483 21.9897 16.6682 21.9983 17.5337C22.0069 18.3907 21.4841 19.1192 20.6614 19.3934L19.2645 19.8648C19.0674 19.9333 18.9131 20.079 18.8531 20.2762L18.3732 21.6816C18.1075 22.4958 17.3876 23.0186 16.5306 23.0186ZM14.9366 15.3055C14.7052 15.3055 14.5509 15.4341 14.4824 15.4941C14.3024 15.674 14.2424 15.9226 14.3195 16.1711L15.905 21.2703C16.0421 21.7074 16.4021 21.7245 16.5392 21.733C16.6592 21.733 17.0277 21.6988 17.1648 21.2788L17.6447 19.8734C17.8333 19.2992 18.296 18.845 18.8702 18.6479L20.2672 18.1765C20.6957 18.0394 20.7214 17.6623 20.7214 17.5509C20.7214 17.4395 20.6871 17.0624 20.2586 16.9253L15.1508 15.3398C15.0651 15.3141 14.9966 15.3055 14.9366 15.3055Z" fill="#001A72"/>
<path d="M10.7498 14.7865C11 12.9999 12 11.9999 13.7866 11.8238M7.75 14.7495C7.79089 11.4361 10.5101 8.78312 13.8236 8.82401" stroke="#001A72" stroke-linecap="round" stroke-linejoin="round"/>
</svg>
