<svg width="24" height="24" viewBox="0 0 24 24" fill="none" xmlns="http://www.w3.org/2000/svg">
<path d="M6.4375 19C6.13 19 5.875 18.7411 5.875 18.4289V17.4543C5.875 17.2868 5.74002 17.1421 5.56752 17.1421H1.5625C1.255 17.1421 1 16.8832 1 16.5711C1 16.2589 1.255 16 1.5625 16H5.56752C6.35502 16 7 16.6548 7 17.4543V18.4289C7 18.7411 6.745 19 6.4375 19Z" fill="#4671F3"/>
<path d="M2.44934 18C2.30938 18 2.16944 17.9467 2.05894 17.8324L1.16022 16.9029C0.946594 16.6819 0.946594 16.3162 1.16022 16.0952L2.05894 15.1657C2.27257 14.9448 2.62616 14.9448 2.83978 15.1657C3.05341 15.3867 3.05341 15.7524 2.83978 15.9733L2.3315 16.4991L2.83978 17.0248C3.05341 17.2457 3.05341 17.6114 2.83978 17.8324C2.72928 17.9467 2.5893 18 2.44934 18Z" fill="#4671F3"/>
<path d="M6.4375 21H2.43248C1.64498 21 1 20.3452 1 19.5457V18.5711C1 18.2589 1.255 18 1.5625 18C1.87 18 2.125 18.2589 2.125 18.5711V19.5457C2.125 19.7132 2.25998 19.8579 2.43248 19.8579H6.4375C6.745 19.8579 7 20.1168 7 20.4289C7 20.7411 6.745 21 6.4375 21Z" fill="#4671F3"/>
<path d="M5.55066 22C5.4107 22 5.27072 21.9467 5.16022 21.8324C4.94659 21.6114 4.94659 21.2457 5.16022 21.0247L5.6685 20.4991L5.16022 19.9733C4.94659 19.7524 4.94659 19.3867 5.16022 19.1657C5.37384 18.9448 5.72743 18.9448 5.94106 19.1657L6.83978 20.0952C7.05341 20.3162 7.05341 20.6819 6.83978 20.9028L5.94106 21.8324C5.83793 21.9467 5.69062 22 5.55066 22Z" fill="#4671F3"/>
<path d="M9.33005 22.75H14.72C19.65 22.75 21.76 20.64 21.75 15.7V11.21C21.75 10.8 21.41 10.46 21 10.46C20.59 10.46 20.25 10.8 20.25 11.21V15.7C20.25 19.79 18.8001 21.24 14.7101 21.24H9.32004C9.32004 21.24 8.50751 21.342 8.50018 22C8.49183 22.75 9.33005 22.75 9.33005 22.75Z" fill="#4671F3"/>
<path d="M2.99963 10C2.58963 10 2.24963 10.34 2.24963 10.75L2.29021 13.6862C2.29021 13.6862 2.25008 14.5 3.00012 14.5C3.75017 14.5 3.79021 13.6862 3.79021 13.6862L3.74963 10.75C3.74963 10.34 3.40963 10 2.99963 10Z" fill="#4671F3"/>
<path d="M12.0298 12.75C10.9298 12.75 9.92978 12.32 9.21978 11.53C8.50978 10.74 8.17979 9.70999 8.28979 8.60999L8.95983 1.93005C8.99983 1.55005 9.31983 1.25 9.70983 1.25H14.3798C14.7698 1.25 15.0898 1.54005 15.1298 1.93005L15.7998 8.60999C15.9098 9.70999 15.5798 10.74 14.8698 11.53C14.1298 12.32 13.1298 12.75 12.0298 12.75ZM10.3698 2.75L9.76983 8.76001C9.69983 9.43001 9.89982 10.06 10.3198 10.52C11.1698 11.46 12.8698 11.46 13.7198 10.52C14.1398 10.05 14.3398 9.42001 14.2698 8.76001L13.6698 2.75H10.3698Z" fill="#4671F3"/>
<path d="M18.33 12.75C16.3 12.75 14.49 11.11 14.28 9.08997L13.58 2.07996C13.56 1.86996 13.63 1.66 13.77 1.5C13.91 1.34 14.11 1.25 14.33 1.25H17.38C20.32 1.25 21.69 2.48 22.1 5.5L22.38 8.28003C22.5 9.46003 22.14 10.5801 21.37 11.4301C20.6 12.2801 19.52 12.75 18.33 12.75ZM15.16 2.75L15.78 8.93994C15.91 10.1899 17.08 11.25 18.33 11.25C19.09 11.25 19.77 10.9601 20.26 10.4301C20.74 9.90005 20.96 9.19005 20.89 8.43005L20.61 5.68005C20.3 3.42005 19.57 2.75 17.38 2.75H15.16Z" fill="#4671F3"/>
<path d="M5.66979 12.75C4.47979 12.75 3.39982 12.2801 2.62982 11.4301C1.85982 10.5801 1.49981 9.46003 1.61981 8.28003L1.89984 5.53003C2.31984 2.48003 3.68982 1.25 6.62982 1.25H9.6798C9.8898 1.25 10.0898 1.34 10.2398 1.5C10.3798 1.66 10.4498 1.86996 10.4298 2.07996L9.72979 9.08997C9.50979 11.11 7.68979 12.75 5.66979 12.75ZM6.61981 2.75C4.42981 2.75 3.69982 3.40995 3.37982 5.69995L3.1098 8.42004C3.0298 9.18004 3.2598 9.89004 3.7398 10.42C4.2198 10.95 4.90979 11.24 5.66979 11.24C6.92979 11.24 8.09978 10.1801 8.21978 8.93005L8.83984 2.73999H6.61981V2.75Z" fill="#4671F3"/>
</svg>
