<svg width="30" height="30" viewBox="0 0 30 30" fill="none" xmlns="http://www.w3.org/2000/svg">
<circle cx="15" cy="15" r="15" fill="#4169E1" fill-opacity="0.08"/>
<path d="M22.5 15L19.5 15.5C19 16.83 18.2417 17.7682 19 18C20.8405 18 18.4553 18.4996 22.5 18.5C23 18.5 23.2207 16.83 22.5 15Z" fill="#4671F3"/>
<path d="M16.5 8L19.5 10L18.5 11.5L13.5 11L15.5 9L16.5 8Z" fill="#4671F3"/>
<path d="M18.75 23.0625H15.5625C15.255 23.0625 15 22.8075 15 22.5C15 22.1925 15.255 21.9375 15.5625 21.9375H18.75C20.685 21.9375 21.9375 20.685 21.9375 18.75V15C21.9375 13.2825 20.8725 12 19.2825 11.8125H18.75H11.25C11.04 11.8125 10.965 11.8125 10.83 11.8575C10.7925 11.8725 10.755 11.88 10.7175 11.88C9.06 12.075 8.0625 12.8251 8.0625 14.5876V15.3376C8.0625 15.6451 7.8075 15.9001 7.5 15.9001C7.1925 15.9001 6.9375 15.6451 6.9375 15.3376V14.5876C6.9375 12.2926 8.3475 11.0475 10.53 10.77C10.815 10.6875 11.025 10.6875 11.25 10.6875H19.35C21.6 10.95 23.0625 12.6825 23.0625 15V18.75C23.0625 21.33 21.33 23.0625 18.75 23.0625Z" fill="#1E1E1E"/>
<path d="M12.6165 11.5676C12.3984 11.3571 12.4938 11.2154 12.75 10.9499L15.8749 7.71181C16.1311 7.44629 16.4608 7.14756 16.6788 7.35803C16.8969 7.56849 16.8653 7.9632 16.6091 8.22873L13.4842 11.4668C13.228 11.7324 12.8346 11.778 12.6165 11.5676Z" fill="#1E1E1E"/>
<path d="M10.6499 11.8875C10.4999 11.8875 10.3574 11.8275 10.2524 11.7225C10.1024 11.5725 10.0499 11.3475 10.1174 11.145C10.2374 10.7925 10.4549 10.575 10.7024 10.3275L13.0949 7.85998C14.3324 6.62248 16.4174 6.62247 17.6474 7.85247L18.9974 9.20251C19.4924 9.69751 19.8074 10.38 19.9049 11.1825C19.9274 11.34 19.8749 11.505 19.7699 11.625C19.6649 11.745 19.5074 11.8125 19.3499 11.8125H11.2499C11.0399 11.8125 10.9649 11.8125 10.8299 11.8575C10.7699 11.88 10.7099 11.8875 10.6499 11.8875ZM11.9174 10.6875H18.6374C18.5474 10.4475 18.4049 10.2075 18.2024 9.9975L16.8524 8.64751C16.0499 7.84501 14.6999 7.84501 13.8974 8.64751L11.9174 10.6875Z" fill="#1E1E1E"/>
<path d="M22.5 18.9375H20.25C19.11 18.9375 18.1875 18.015 18.1875 16.875C18.1875 15.735 19.11 14.8125 20.25 14.8125H22.5C22.8075 14.8125 23.0625 15.0675 23.0625 15.375C23.0625 15.6825 22.8075 15.9375 22.5 15.9375H20.25C19.7325 15.9375 19.3125 16.3575 19.3125 16.875C19.3125 17.3925 19.7325 17.8125 20.25 17.8125H22.5C22.8075 17.8125 23.0625 18.0675 23.0625 18.375C23.0625 18.6825 22.8075 18.9375 22.5 18.9375Z" fill="#1E1E1E"/>
<path d="M12.375 20.3681C12.0675 20.3681 11.8125 20.1131 11.8125 19.8056V18.8456C11.8125 18.6806 11.6775 18.5381 11.505 18.5381H7.5C7.1925 18.5381 6.9375 18.2831 6.9375 17.9756C6.9375 17.6681 7.1925 17.4131 7.5 17.4131H11.505C12.2925 17.4131 12.9375 18.0581 12.9375 18.8456V19.8056C12.9375 20.1131 12.6825 20.3681 12.375 20.3681Z" fill="#1E1E1E"/>
<path d="M8.34905 19.3331C8.20655 19.3331 8.06408 19.2806 7.95158 19.1681L7.10246 18.3732C6.88496 18.1557 6.88496 17.7957 7.10246 17.5782L7.905 16.8001C8.1225 16.5826 8.4825 16.5826 8.7 16.8001C8.9175 17.0176 8.9175 17.3776 8.7 17.5951L8.29498 17.9757L8.74658 18.3731C8.96408 18.5906 8.96408 18.9506 8.74658 19.1681C8.63408 19.2806 8.49155 19.3331 8.34905 19.3331Z" fill="#1E1E1E"/>
<path d="M12.375 22.4982H8.36998C7.58248 22.4982 6.9375 21.8532 6.9375 21.0657V20.1057C6.9375 19.7982 7.1925 19.5432 7.5 19.5432C7.8075 19.5432 8.0625 19.7982 8.0625 20.1057V21.0657C8.0625 21.2307 8.19748 21.3732 8.36998 21.3732H12.375C12.6825 21.3732 12.9375 21.6282 12.9375 21.9357C12.9375 22.2432 12.6825 22.4982 12.375 22.4982Z" fill="#1E1E1E"/>
<path d="M11.6068 23.2931C11.4643 23.2931 11.3218 23.2407 11.2093 23.1282C10.9918 22.9107 10.9918 22.5506 11.2093 22.3331L11.5798 21.9356L11.2093 21.538C10.9918 21.3205 10.9918 20.9606 11.2093 20.7431C11.4268 20.5256 11.7868 20.5256 12.0043 20.7431L12.7723 21.5381C12.9898 21.7556 12.9898 22.1156 12.7723 22.3331L12.0043 23.1282C11.8993 23.2407 11.7493 23.2931 11.6068 23.2931Z" fill="#1E1E1E"/>
</svg>
