<svg width="24" height="24" viewBox="0 0 24 24" fill="none" xmlns="http://www.w3.org/2000/svg">
<path d="M12.1675 3.70508C11.6208 3.70508 11.1675 4.00186 11.1675 4.35974V19.0504C11.1675 19.4083 11.6208 19.7051 12.1675 19.7051C12.7141 19.7051 13.1675 19.4083 13.1675 19.0504V4.35974C13.1675 4.00186 12.7141 3.70508 12.1675 3.70508Z" fill="#FCBFCF"/>
<path fill-rule="evenodd" clip-rule="evenodd" d="M14.4511 20.0586L14.4494 20.0602C13.1854 21.3124 11.1401 21.3147 9.88395 20.0586L3.36395 13.5386C2.87868 13.0533 2.87868 12.2567 3.36395 11.7714C3.84921 11.2862 4.64579 11.2862 5.13105 11.7714L11.6511 18.2914C11.9358 18.5762 12.3992 18.5762 12.6839 18.2914L19.2039 11.7714C19.4527 11.5227 19.772 11.405 20.0875 11.405C20.4177 11.405 20.7264 11.5427 20.9587 11.7595L20.965 11.7654L20.9711 11.7714C21.4563 12.2567 21.4563 13.0533 20.9711 13.5386L14.4511 20.0586Z" fill="#DF3564"/>
</svg>
