<svg width="24" height="24" viewBox="0 0 24 24" fill="none" xmlns="http://www.w3.org/2000/svg">
<path d="M12 23C12 23.5523 11.5523 23.5 11 23.5C10.4477 23.5 10 23.5523 10 23C10 22.4477 10.5 22 11 22C11.5523 22 12 22.4477 12 23Z" fill="#99D1FF"/>
<path d="M4.99151 8.91559L6.5684 9.15552C6.5684 9.15552 4.22025 11.0399 3.90257 12.8578C3.62037 14.4727 4.77254 16.9954 4.77254 16.9954L3.57767 16.7109L2.61844 15.1272L2.04124 13.4989L2.56132 11.3187L2.89455 10.8559L3.89423 9.46752L4.99151 8.91559Z" fill="#99D1FF"/>
<circle cx="4" cy="21" r="1" fill="#99D1FF"/>
<circle cx="18" cy="21" r="1" fill="#99D1FF"/>
<path d="M4.892 22.784C3.84583 22.784 3 21.9382 3 20.892C3 19.8459 3.84583 19 4.892 19C5.93817 19 6.78401 19.8459 6.78401 20.892C6.78401 21.9382 5.93817 22.784 4.892 22.784ZM4.892 20.1129C4.46166 20.1129 4.11295 20.4617 4.11295 20.892C4.11295 21.3224 4.46166 21.6711 4.892 21.6711C5.32234 21.6711 5.67106 21.3224 5.67106 20.892C5.67106 20.4617 5.32234 20.1129 4.892 20.1129Z" fill="#001A72"/>
<path d="M17.108 22.784C18.1542 22.784 19 21.9382 19 20.892C19 19.8459 18.1542 19 17.108 19C16.0618 19 15.216 19.8459 15.216 20.892C15.216 21.9382 16.0618 22.784 17.108 22.784ZM17.108 20.1129C17.5383 20.1129 17.8871 20.4617 17.8871 20.892C17.8871 21.3224 17.5383 21.6711 17.108 21.6711C16.6777 21.6711 16.3289 21.3224 16.3289 20.892C16.3289 20.4617 16.6777 20.1129 17.108 20.1129Z" fill="#001A72"/>
<path d="M10.8922 23.784C11.9383 23.784 12.7842 22.9382 12.7842 21.892C12.7842 20.8459 11.9383 20 10.8922 20C9.846 20 9.00017 20.8459 9.00017 21.892C9.00017 22.9382 9.846 23.784 10.8922 23.784ZM10.8922 21.1129C11.3225 21.1129 11.6712 21.4617 11.6712 21.892C11.6712 22.3224 11.3225 22.6711 10.8922 22.6711C10.4618 22.6711 10.1131 22.3224 10.1131 21.892C10.1131 21.4617 10.4618 21.1129 10.8922 21.1129Z" fill="#001A72"/>
<path d="M8 14V21H6.5" stroke="#001A72" stroke-width="1.2" stroke-linecap="round" stroke-linejoin="round"/>
<path d="M14 14V21H15.5" stroke="#001A72" stroke-width="1.2" stroke-linecap="round" stroke-linejoin="round"/>
<path d="M11 14V20.5" stroke="#001A72" stroke-width="1.2" stroke-linecap="round" stroke-linejoin="round"/>
<path d="M16.6502 17.7498C16.6402 17.7498 16.6202 17.7498 16.6102 17.7498C16.2002 17.7498 15.8602 17.4098 15.8702 16.9898C15.8702 16.5798 16.2102 16.2498 16.6202 16.2498C16.6302 16.2498 16.6502 16.2498 16.6602 16.2498C17.8002 16.2498 18.8902 15.8298 19.7302 15.0498C21.2802 13.6898 21.3902 11.7498 20.9702 10.3798C20.5502 9.00977 19.3902 7.45977 17.3602 7.19977C17.0302 7.15977 16.7702 6.90977 16.7102 6.57977C16.3102 4.18977 15.0202 2.53977 13.0802 1.93977C11.0602 1.31977 8.73022 1.92977 7.27022 3.45977C5.85022 4.94977 5.52022 7.01977 6.34022 9.30977C6.48022 9.69977 6.28021 10.1298 5.89021 10.2698C5.50021 10.4098 5.07021 10.2098 4.93021 9.81977C3.92021 7.00977 4.38022 4.31977 6.19021 2.42977C8.04022 0.499771 10.9802 -0.270229 13.5302 0.519771C15.8602 1.23977 17.5102 3.15977 18.1002 5.81977C20.1402 6.27977 21.7702 7.81977 22.4202 9.94977C23.1302 12.2698 22.4802 14.6498 20.7502 16.1698C19.6102 17.1898 18.1602 17.7498 16.6502 17.7498Z" fill="#001A72"/>
<path d="M5.57008 17.75C5.55008 17.75 5.53008 17.75 5.52008 17.75C2.64008 17.55 1.33008 15.29 1.33008 13.28C1.33008 11.27 2.64008 9.01999 5.52008 8.80999C6.26008 8.79999 6.99008 8.96999 7.63008 9.28999C8.00008 9.47999 8.14008 9.92999 7.96008 10.3C7.77008 10.67 7.32008 10.81 6.95008 10.63C6.53008 10.41 6.05008 10.32 5.59008 10.31C3.70008 10.45 2.84008 11.9 2.84008 13.28C2.84008 14.66 3.70008 16.11 5.64008 16.25C6.05008 16.28 6.36008 16.64 6.33008 17.05C6.29008 17.45 5.96008 17.75 5.57008 17.75Z" fill="#001A72"/>
<path d="M15.8201 7.63973C15.5501 7.63973 15.2801 7.48973 15.1501 7.21973C14.9601 6.84973 15.1101 6.39973 15.4901 6.20973C16.1001 5.89973 16.7901 5.72973 17.4701 5.71973C17.8501 5.73973 18.2301 6.03973 18.2301 6.45973C18.2401 6.86973 17.9101 7.21973 17.4901 7.21973C17.0301 7.22973 16.5701 7.33973 16.1501 7.54973C16.0501 7.61973 15.9301 7.63973 15.8201 7.63973Z" fill="#001A72"/>
</svg>
