<svg width="34" height="34" viewBox="0 0 34 34" fill="none" xmlns="http://www.w3.org/2000/svg">
<rect width="34" height="34" rx="3" fill="#F6F8F9"/>
<path d="M17 28C17 28.5523 16.5523 28.5 16 28.5C15.4477 28.5 15 28.5523 15 28C15 27.4477 15.5 27 16 27C16.5523 27 17 27.4477 17 28Z" fill="#99D1FF"/>
<path d="M9.99144 13.9156L11.5683 14.1555C11.5683 14.1555 9.22018 16.0399 8.90249 17.8578C8.62029 19.4727 9.77246 21.9954 9.77246 21.9954L8.57759 21.7109L7.61837 20.1272L7.04117 18.4989L7.56124 16.3187L7.89447 15.8559L8.89416 14.4675L9.99144 13.9156Z" fill="#99D1FF"/>
<circle cx="9" cy="26" r="1" fill="#99D1FF"/>
<circle cx="23" cy="26" r="1" fill="#99D1FF"/>
<path d="M9.892 27.784C8.84583 27.784 8 26.9382 8 25.892C8 24.8459 8.84583 24 9.892 24C10.9382 24 11.784 24.8459 11.784 25.892C11.784 26.9382 10.9382 27.784 9.892 27.784ZM9.892 25.1129C9.46166 25.1129 9.11295 25.4617 9.11295 25.892C9.11295 26.3224 9.46166 26.6711 9.892 26.6711C10.3223 26.6711 10.6711 26.3224 10.6711 25.892C10.6711 25.4617 10.3223 25.1129 9.892 25.1129Z" fill="#001A72"/>
<path d="M22.108 27.784C23.1542 27.784 24 26.9382 24 25.892C24 24.8459 23.1542 24 22.108 24C21.0618 24 20.216 24.8459 20.216 25.892C20.216 26.9382 21.0618 27.784 22.108 27.784ZM22.108 25.1129C22.5383 25.1129 22.8871 25.4617 22.8871 25.892C22.8871 26.3224 22.5383 26.6711 22.108 26.6711C21.6777 26.6711 21.3289 26.3224 21.3289 25.892C21.3289 25.4617 21.6777 25.1129 22.108 25.1129Z" fill="#001A72"/>
<path d="M15.8922 28.784C16.9383 28.784 17.7842 27.9382 17.7842 26.892C17.7842 25.8459 16.9383 25 15.8922 25C14.846 25 14.0002 25.8459 14.0002 26.892C14.0002 27.9382 14.846 28.784 15.8922 28.784ZM15.8922 26.1129C16.3225 26.1129 16.6712 26.4617 16.6712 26.892C16.6712 27.3224 16.3225 27.6711 15.8922 27.6711C15.4618 27.6711 15.1131 27.3224 15.1131 26.892C15.1131 26.4617 15.4618 26.1129 15.8922 26.1129Z" fill="#001A72"/>
<path d="M13 19V26H11.5" stroke="#001A72" stroke-width="1.2" stroke-linecap="round" stroke-linejoin="round"/>
<path d="M19 19V26H20.5" stroke="#001A72" stroke-width="1.2" stroke-linecap="round" stroke-linejoin="round"/>
<path d="M16 19V25.5" stroke="#001A72" stroke-width="1.2" stroke-linecap="round" stroke-linejoin="round"/>
<path d="M21.6502 22.75C21.6402 22.75 21.6202 22.75 21.6102 22.75C21.2002 22.75 20.8602 22.41 20.8702 21.99C20.8702 21.58 21.2102 21.25 21.6202 21.25C21.6302 21.25 21.6502 21.25 21.6602 21.25C22.8002 21.25 23.8902 20.83 24.7302 20.05C26.2802 18.69 26.3902 16.75 25.9702 15.38C25.5502 14.01 24.3902 12.46 22.3602 12.2C22.0302 12.16 21.7702 11.91 21.7102 11.58C21.3102 9.19001 20.0202 7.54001 18.0802 6.94001C16.0602 6.32001 13.7302 6.93001 12.2702 8.46001C10.8502 9.95002 10.5202 12.02 11.3402 14.31C11.4802 14.7 11.2802 15.13 10.8902 15.27C10.5002 15.41 10.0702 15.21 9.93021 14.82C8.92021 12.01 9.38022 9.32001 11.1902 7.43001C13.0402 5.50001 15.9802 4.73001 18.5302 5.52001C20.8602 6.24001 22.5102 8.16001 23.1002 10.82C25.1402 11.28 26.7702 12.82 27.4202 14.95C28.1302 17.27 27.4802 19.65 25.7502 21.17C24.6102 22.19 23.1602 22.75 21.6502 22.75Z" fill="#001A72"/>
<path d="M10.5701 22.75C10.5501 22.75 10.5301 22.75 10.5201 22.75C7.64008 22.55 6.33008 20.29 6.33008 18.28C6.33008 16.27 7.64008 14.02 10.5201 13.81C11.2601 13.8 11.9901 13.97 12.6301 14.29C13.0001 14.48 13.1401 14.93 12.9601 15.3C12.7701 15.67 12.3201 15.81 11.9501 15.63C11.5301 15.41 11.0501 15.32 10.5901 15.31C8.70008 15.45 7.84008 16.9 7.84008 18.28C7.84008 19.66 8.70008 21.11 10.6401 21.25C11.0501 21.28 11.3601 21.64 11.3301 22.05C11.2901 22.45 10.9601 22.75 10.5701 22.75Z" fill="#001A72"/>
<path d="M20.8201 12.64C20.5501 12.64 20.2801 12.49 20.1501 12.22C19.9601 11.85 20.1101 11.4 20.4901 11.21C21.1001 10.9 21.7901 10.73 22.4701 10.72C22.8501 10.74 23.2301 11.04 23.2301 11.46C23.2401 11.87 22.9101 12.22 22.4901 12.22C22.0301 12.23 21.5701 12.34 21.1501 12.55C21.0501 12.62 20.9301 12.64 20.8201 12.64Z" fill="#001A72"/>
</svg>
