<svg width="20" height="20" viewBox="0 0 20 20" fill="none" xmlns="http://www.w3.org/2000/svg">
<path d="M13.175 16.8167C12.9583 16.8167 12.7333 16.8084 12.4917 16.7834C12.0583 16.7501 11.5667 16.6667 11.0583 16.5417L9.65833 16.2084C5.81667 15.3001 4.55833 13.2667 5.45833 9.43339L6.275 5.94172C6.45833 5.15005 6.675 4.50839 6.94167 3.97505C8.375 1.01672 11.1167 1.28339 13.0667 1.74172L14.4583 2.06672C16.4083 2.52505 17.6417 3.25005 18.3333 4.35839C19.0167 5.46672 19.125 6.89172 18.6667 8.84172L17.85 12.3251C17.1333 15.3751 15.6417 16.8167 13.175 16.8167ZM10.9333 2.70839C9.54167 2.70839 8.65833 3.28339 8.06667 4.51672C7.85 4.96672 7.65833 5.52505 7.49167 6.22505L6.675 9.71672C5.93333 12.8667 6.79167 14.2417 9.94167 14.9917L11.3417 15.3251C11.7917 15.4334 12.2167 15.5001 12.6 15.5334C14.8583 15.7584 15.9917 14.7667 16.625 12.0417L17.4417 8.55839C17.8167 6.95005 17.7667 5.82505 17.2667 5.01672C16.7667 4.20839 15.7833 3.65839 14.1667 3.28339L12.775 2.95839C12.0833 2.79172 11.4667 2.70839 10.9333 2.70839Z" fill="#E6E6E6"/>
<path d="M11.875 11.25C10.3834 11.25 9.16669 10.0334 9.16669 8.54171C9.16669 7.05004 10.3834 5.83337 11.875 5.83337C13.3667 5.83337 14.5834 7.05004 14.5834 8.54171C14.5834 10.0334 13.375 11.25 11.875 11.25ZM11.875 7.08337C11.075 7.08337 10.4167 7.74171 10.4167 8.54171C10.4167 9.34171 11.075 10 11.875 10C12.675 10 13.3334 9.34171 13.3334 8.54171C13.3334 7.74171 12.6834 7.08337 11.875 7.08337Z" fill="#E6E6E6"/>
<path d="M14.9243 12.6271C14.7033 12.8067 14.3712 12.7724 14.1916 12.5514L13.7521 11.8945C13.5725 11.6735 13.6069 11.3414 13.8278 11.1618C14.0488 10.9822 14.3809 11.0165 14.5605 11.2375L15 11.8944C15.1796 12.1154 15.1453 12.4475 14.9243 12.6271Z" fill="#E6E6E6"/>
<path d="M3.99998 7.5L3.91414 7.53535C2.40426 8.15716 1.66899 9.87236 2.25974 11.3947L4.06639 16.0502C4.70649 17.6997 6.6277 18.4398 8.20899 17.6461L8.49998 17.5" stroke="#E6E6E6" stroke-width="1.4" stroke-linecap="round"/>
</svg>
