<svg width="20" height="20" viewBox="0 0 20 20" fill="none" xmlns="http://www.w3.org/2000/svg">
<path d="M14.1667 18.125H5.83333C2.15833 18.125 1.04167 17.0083 1.04167 13.3333V6.66667C1.04167 2.99167 2.15833 1.875 5.83333 1.875H12.2198C12.3684 1.875 11.4708 6.2943 12.2198 6.87979C14.7198 8.96312 17.9167 6.29921 17.9167 7.13254V13.7671C18 17 17.5 18.125 14.1667 18.125ZM5.83333 3.125C2.85 3.125 2.29167 3.69167 2.29167 6.66667V13.3333C2.29167 16.3083 2.85 16.875 5.83333 16.875H14.1667C16.4623 16.875 16.6667 16.6667 16.6667 13.7671V7.38722C14.7917 8.35043 13.0379 8.00876 12.5 7.5C11.9831 7.01109 10.8333 4.58333 12.0833 3.125H5.83333Z" fill="#E6E6E6"/>
<path d="M7.08333 10.0334C5.90833 10.0334 4.95 9.07506 4.95 7.90006C4.95 6.72506 5.90833 5.76672 7.08333 5.76672C8.25833 5.76672 9.21666 6.72506 9.21666 7.90006C9.21666 9.07506 8.25833 10.0334 7.08333 10.0334ZM7.08333 7.01672C6.6 7.01672 6.2 7.41672 6.2 7.90006C6.2 8.38339 6.6 8.78339 7.08333 8.78339C7.56666 8.78339 7.96666 8.38339 7.96666 7.90006C7.96666 7.41672 7.56666 7.01672 7.08333 7.01672Z" fill="#E6E6E6"/>
<path d="M10 14.2333C9.68333 14.2333 9.40833 13.9917 9.375 13.6667C9.28333 12.7667 8.55833 12.0417 7.65 11.9583C7.26667 11.925 6.88333 11.925 6.5 11.9583C5.59166 12.0417 4.86666 12.7583 4.775 13.6667C4.74166 14.0083 4.43333 14.2667 4.09166 14.225C3.75 14.1917 3.5 13.8833 3.53333 13.5417C3.68333 12.0417 4.875 10.85 6.38333 10.7167C6.84166 10.675 7.30833 10.675 7.76666 10.7167C9.26666 10.8583 10.4667 12.05 10.6167 13.5417C10.65 13.8833 10.4 14.1917 10.0583 14.225C10.0417 14.2333 10.0167 14.2333 10 14.2333Z" fill="#E6E6E6"/>
<path d="M14.7917 8.75004C13.4083 8.75004 12.1083 8.01671 11.4083 6.82504C11.0333 6.22504 10.8333 5.51671 10.8333 4.79171C10.8333 3.57504 11.375 2.45002 12.3167 1.70002C13.0167 1.14169 13.9 0.833374 14.7917 0.833374C16.975 0.833374 18.75 2.60837 18.75 4.79171C18.75 5.51671 18.55 6.22505 18.175 6.83338C17.9667 7.18338 17.7 7.50005 17.3833 7.76671C16.6917 8.40005 15.7667 8.75004 14.7917 8.75004ZM14.7917 2.08337C14.175 2.08337 13.5917 2.29168 13.1 2.68335C12.4583 3.19168 12.0833 3.96671 12.0833 4.79171C12.0833 5.28337 12.2167 5.76669 12.475 6.18336C12.9583 7.00003 13.85 7.50004 14.7917 7.50004C15.45 7.50004 16.0833 7.25838 16.5667 6.82504C16.7833 6.64171 16.9667 6.42503 17.1 6.1917C17.3667 5.7667 17.5 5.28337 17.5 4.79171C17.5 3.30004 16.2833 2.08337 14.7917 2.08337Z" fill="#E6E6E6"/>
<path d="M14.3166 6.24175C14.1582 6.24175 13.9999 6.18344 13.8749 6.05844L13.0499 5.23345C12.8082 4.99179 12.8082 4.59174 13.0499 4.35007C13.2916 4.1084 13.6916 4.1084 13.9332 4.35007L14.3332 4.75011L15.6666 3.51674C15.9166 3.2834 16.3166 3.3001 16.5499 3.5501C16.7832 3.8001 16.7666 4.2001 16.5166 4.43343L14.7416 6.07508C14.6166 6.18341 14.4666 6.24175 14.3166 6.24175Z" fill="#E6E6E6"/>
</svg>
