<svg width="16" height="16" viewBox="0 0 16 16" fill="none" xmlns="http://www.w3.org/2000/svg">
<path d="M7.29333 15.1C6.97333 15.1 6.66 15.02 6.36666 14.86C5.78 14.5334 5.42666 13.94 5.42666 13.2734V9.74002C5.42666 9.40669 5.20666 8.90669 5 8.65336L2.50666 6.01336C2.08666 5.59336 1.76666 4.87336 1.76666 4.33336V2.80002C1.76666 1.73336 2.57333 0.900024 3.6 0.900024H12.4C13.4133 0.900024 14.2333 1.72002 14.2333 2.73336V4.20002C14.2333 4.90002 13.8133 5.69336 13.42 6.08669L10.5333 8.64002C10.2533 8.87336 10.0333 9.38669 10.0333 9.80002V12.6667C10.0333 13.26 9.66 13.9467 9.19333 14.2267L8.27333 14.82C7.97333 15.0067 7.63333 15.1 7.29333 15.1ZM3.6 1.90002C3.13333 1.90002 2.76666 2.29336 2.76666 2.80002V4.33336C2.76666 4.58002 2.96666 5.06002 3.22 5.31336L5.76 7.98669C6.1 8.40669 6.43333 9.10669 6.43333 9.73336V13.2667C6.43333 13.7 6.73333 13.9134 6.86 13.98C7.14 14.1334 7.48 14.1334 7.74 13.9734L8.66666 13.38C8.85333 13.2667 9.04 12.9067 9.04 12.6667V9.80002C9.04 9.08669 9.38666 8.30002 9.88666 7.88002L12.74 5.35336C12.9667 5.12669 13.24 4.58669 13.24 4.19336V2.73336C13.24 2.27336 12.8667 1.90002 12.4067 1.90002H3.6Z" fill="#383637"/>
<path d="M4.00001 7.16664C3.90668 7.16664 3.82001 7.13997 3.73334 7.09331C3.50001 6.94664 3.42668 6.63331 3.57334 6.39997L6.86001 1.13331C7.00668 0.899972 7.31334 0.826639 7.54668 0.973306C7.78001 1.11997 7.85334 1.42664 7.70668 1.65997L4.42001 6.92664C4.32668 7.07997 4.16668 7.16664 4.00001 7.16664Z" fill="#383637"/>
</svg>
