<svg width="20" height="20" viewBox="0 0 20 20" fill="none" xmlns="http://www.w3.org/2000/svg">
<path d="M16.6667 4.79163H11.6667C11.325 4.79163 11.0417 4.50829 11.0417 4.16663C11.0417 3.82496 11.325 3.54163 11.6667 3.54163H16.6667C17.0084 3.54163 17.2917 3.82496 17.2917 4.16663C17.2917 4.50829 17.0084 4.79163 16.6667 4.79163Z" fill="white" fill-opacity="0.7"/>
<path d="M14.1667 7.29163H11.6667C11.325 7.29163 11.0417 7.00829 11.0417 6.66663C11.0417 6.32496 11.325 6.04163 11.6667 6.04163H14.1667C14.5084 6.04163 14.7917 6.32496 14.7917 6.66663C14.7917 7.00829 14.5084 7.29163 14.1667 7.29163Z" fill="white" fill-opacity="0.7"/>
<path d="M9.58335 18.125C4.87502 18.125 1.04169 14.2916 1.04169 9.58329C1.04169 4.87496 4.87502 1.04163 9.58335 1.04163C9.92502 1.04163 10.2084 1.32496 10.2084 1.66663C10.2084 2.00829 9.92502 2.29163 9.58335 2.29163C5.55835 2.29163 2.29169 5.56663 2.29169 9.58329C2.29169 13.6 5.55835 16.875 9.58335 16.875C13.6084 16.875 16.875 13.6 16.875 9.58329C16.875 9.24163 17.1584 8.95829 17.5 8.95829C17.8417 8.95829 18.125 9.24163 18.125 9.58329C18.125 14.2916 14.2917 18.125 9.58335 18.125Z" fill="white" fill-opacity="0.7"/>
<path d="M18.3333 18.9583C18.175 18.9583 18.0167 18.9 17.8917 18.775L16.225 17.1083C15.9833 16.8666 15.9833 16.4666 16.225 16.225C16.4667 15.9833 16.8667 15.9833 17.1083 16.225L18.775 17.8916C19.0167 18.1333 19.0167 18.5333 18.775 18.775C18.65 18.9 18.4917 18.9583 18.3333 18.9583Z" fill="white" fill-opacity="0.7"/>
</svg>
