<svg width="20" height="21" viewBox="0 0 20 21" fill="none" xmlns="http://www.w3.org/2000/svg">
<path d="M8.33329 18.9583H7.49996C2.97496 18.9583 1.04163 17.025 1.04163 12.5V7.49996C1.04163 2.97496 2.97496 1.04163 7.49996 1.04163H12.5C17.025 1.04163 18.9583 2.97496 18.9583 7.49996V9.16663C18.9583 9.50829 18.675 9.79163 18.3333 9.79163C17.9916 9.79163 17.7083 9.50829 17.7083 9.16663V7.49996C17.7083 3.65829 16.3416 2.29163 12.5 2.29163H7.49996C3.65829 2.29163 2.29163 3.65829 2.29163 7.49996V12.5C2.29163 16.3416 3.65829 17.7083 7.49996 17.7083H8.33329C8.67496 17.7083 8.95829 17.9916 8.95829 18.3333C8.95829 18.675 8.67496 18.9583 8.33329 18.9583Z" fill="#E6E6E6"/>
<path d="M18.3336 7.70837H1.69189C1.35023 7.70837 1.06689 7.42504 1.06689 7.08337C1.06689 6.74171 1.35023 6.45837 1.69189 6.45837H18.3336C18.6752 6.45837 18.9586 6.74171 18.9586 7.08337C18.9586 7.42504 18.6752 7.70837 18.3336 7.70837Z" fill="#E6E6E6"/>
<path d="M10.0002 13.5416H1.69189C1.35023 13.5416 1.06689 13.2583 1.06689 12.9166C1.06689 12.575 1.35023 12.2916 1.69189 12.2916H10.0002C10.3419 12.2916 10.6252 12.575 10.6252 12.9166C10.6252 13.2583 10.3419 13.5416 10.0002 13.5416Z" fill="#E6E6E6"/>
<path d="M7.09143 18.95C6.74976 18.95 6.46643 18.6667 6.46643 18.325V1.68335C6.46643 1.34168 6.74976 1.05835 7.09143 1.05835C7.4331 1.05835 7.71643 1.34168 7.71643 1.68335V18.325C7.71643 18.6667 7.44143 18.95 7.09143 18.95Z" fill="#E6E6E6"/>
<path d="M12.9248 10.6167C12.5831 10.6167 12.2998 10.3333 12.2998 9.99166V1.68335C12.2998 1.34168 12.5831 1.05835 12.9248 1.05835C13.2665 1.05835 13.5498 1.34168 13.5498 1.68335V9.99166C13.5498 10.3333 13.2748 10.6167 12.9248 10.6167Z" fill="#E6E6E6"/>
<path d="M14.8607 20.1851C14.6589 20.1851 14.457 20.1346 14.2719 20.0281C13.8962 19.815 13.6719 19.4336 13.6719 19.0074L13.5 16.854C13.5 16.7082 13.4047 16.4615 13.2869 16.3213L11.7545 14.7566C11.4909 14.4987 11.394 14.0164 11.394 13.6743V12.8051C11.394 12.1265 12.1826 11.3254 12.8443 11.3254H17.8354C18.4859 11.3254 19.2342 12.1545 19.2342 12.8051V13.635C19.2342 14.0724 18.8994 14.5772 18.6527 14.8239L17 16.3213C16.871 16.4278 16.7645 16.6858 16.7645 16.8765L16.5599 18.6597C16.5599 19.0467 16.3244 19.4785 16.016 19.6635L15.5 20C15.2981 20.1234 15.0795 20.1851 14.8607 20.1851ZM12.8443 12.5135C12.6537 12.5135 12.5079 12.6761 12.5079 12.8892V13.7585C12.5079 13.8538 12.6032 14.0949 12.7266 14.2183L14.1734 15.738C14.3865 16.0016 14.594 16.4334 14.594 16.8204V18.8224C14.594 18.9906 14.7006 19.0747 14.7679 19.1084C14.8576 19.1589 15.0034 19.1869 15.1267 19.1084L15.6483 18.7719C15.7156 18.7327 15.7941 18.5756 15.7941 18.4803V16.854C15.7941 16.411 16.0128 15.9231 16.3212 15.6595L17.9363 14.2295C18.0372 14.1286 18.1718 13.8538 18.1718 13.6743V12.8444C18.1718 12.6593 18.0204 12.5079 17.8354 12.5079H12.8443V12.5135Z" fill="#E6E6E6"/>
</svg>
