<svg width="20" height="20" viewBox="0 0 20 20" fill="none" xmlns="http://www.w3.org/2000/svg">
<path d="M9.58333 15.8333C5.67886 15.8333 2.5 12.6544 2.5 8.74996C2.5 4.84549 5.67886 1.66663 9.58333 1.66663C13.4878 1.66663 16.6667 4.84549 16.6667 8.74996C16.6667 12.6544 13.4878 15.8333 9.58333 15.8333ZM9.58333 2.70321C6.24553 2.70321 3.53659 5.41906 3.53659 8.74996C3.53659 12.0809 6.24553 14.7967 9.58333 14.7967C12.9211 14.7967 15.6301 12.0809 15.6301 8.74996C15.6301 5.41906 12.9211 2.70321 9.58333 2.70321Z" fill="#E6E6E6"/>
<path d="M18.3333 17.9166C18.175 17.9166 18.0167 17.8583 17.8917 17.7333L15.1812 15.2312C14.9396 14.9895 14.9396 14.5895 15.1812 14.3479C15.4229 14.1062 15.8229 14.1062 16.0646 14.3479L18.775 16.85C19.0167 17.0916 19.0167 17.4916 18.775 17.7333C18.65 17.8583 18.4917 17.9166 18.3333 17.9166Z" fill="#E6E6E6"/>
<path d="M9.79166 9.625C9.45 9.625 9.16666 9.34167 9.16666 9V5.625C9.16666 5.28333 9.45 5 9.79166 5C10.1333 5 10.4167 5.28333 10.4167 5.625V9C10.4167 9.34167 10.1333 9.625 9.79166 9.625Z" fill="#E6E6E6"/>
<circle cx="9.79166" cy="11.4584" r="0.625" fill="#E6E6E6"/>
<path d="M5.83332 17.2916C5.83332 16.95 6.11666 16.6666 6.45832 16.6666H12.5C12.8417 16.6666 13.125 16.95 13.125 17.2916C13.125 17.6333 12.8417 17.9166 12.5 17.9166H6.45832C6.11666 17.9166 5.83332 17.6333 5.83332 17.2916Z" fill="#E6E6E6"/>
</svg>
