<svg width="20" height="20" viewBox="0 0 20 20" fill="none" xmlns="http://www.w3.org/2000/svg">
<path d="M10 18.4C9.75002 18.4 9.50002 18.3417 9.29169 18.225C7.73335 17.375 4.99169 16.475 3.27502 16.25L3.03335 16.2167C1.94169 16.0834 1.04169 15.0584 1.04169 13.95V3.88338C1.04169 3.22505 1.30002 2.62505 1.77502 2.19171C2.25002 1.75838 2.86669 1.55005 3.51669 1.60838C5.35002 1.75005 8.11669 2.66671 9.68335 3.65005L9.88335 3.76671C9.94169 3.80005 10.0667 3.80005 10.1167 3.77505L10.25 3.69171C11.8167 2.70838 14.5834 1.77505 16.425 1.61671C16.4417 1.61671 16.5084 1.61671 16.525 1.61671C17.1334 1.55838 17.7584 1.77505 18.225 2.20838C18.7 2.64171 18.9584 3.24171 18.9584 3.90005V13.9584C18.9584 15.075 18.0584 16.0917 16.9584 16.225L16.6834 16.2584C14.9667 16.4834 12.2167 17.3917 10.6917 18.2334C10.4917 18.35 10.25 18.4 10 18.4ZM3.31669 2.85005C3.05002 2.85005 2.80835 2.94171 2.61669 3.11671C2.40835 3.30838 2.29169 3.58338 2.29169 3.88338V13.95C2.29169 14.4417 2.71669 14.9167 3.19169 14.9834L3.44169 15.0167C5.31669 15.2667 8.19169 16.2084 9.85835 17.1167C9.93335 17.15 10.0417 17.1584 10.0834 17.1417C11.75 16.2167 14.6417 15.2667 16.525 15.0167L16.8084 14.9834C17.2834 14.925 17.7084 14.4417 17.7084 13.95V3.89171C17.7084 3.58338 17.5917 3.31671 17.3834 3.11671C17.1667 2.92505 16.8917 2.83338 16.5834 2.85005C16.5667 2.85005 16.5 2.85005 16.4834 2.85005C14.8917 2.99171 12.325 3.85005 10.925 4.72505L10.7917 4.81671C10.3334 5.10005 9.68335 5.10005 9.24169 4.82505L9.04169 4.70838C7.61669 3.83338 5.05002 2.98338 3.41669 2.85005C3.38335 2.85005 3.35002 2.85005 3.31669 2.85005Z" fill="#E6E6E6"/>
<path d="M17.9583 6.20838H16.2917C15.025 6.20838 14 5.18338 14 3.91672V2.74775C14 2.40608 14.2833 2.12275 14.625 2.12275C14.9667 2.12275 15.25 2.40608 15.25 2.74775V3.91672C15.25 4.49172 15.7167 4.95838 16.2917 4.95838H17.9583C18.3 4.95838 18.5833 5.24172 18.5833 5.58338C18.5833 5.92505 18.3 6.20838 17.9583 6.20838Z" fill="#E6E6E6"/>
<path d="M10 17.7C9.65833 17.7 9.375 17.4166 9.375 17.075V4.57495C9.375 4.23328 9.65833 3.94995 10 3.94995C10.3417 3.94995 10.625 4.23328 10.625 4.57495V17.075C10.625 17.425 10.3417 17.7 10 17.7Z" fill="#E6E6E6"/>
<path d="M4.57225 11C4.46352 11 4.35479 10.9618 4.26896 10.88L3.12446 9.78856C2.95851 9.63031 2.95851 9.36834 3.12446 9.21009L4.26896 8.11869C4.43491 7.96044 4.70958 7.96044 4.87554 8.11869C5.04149 8.27694 5.04149 8.53891 4.87554 8.69716L4.03433 9.49933L4.87554 10.3015C5.04149 10.4597 5.04149 10.7217 4.87554 10.88C4.7897 10.9618 4.68097 11 4.57225 11Z" fill="#E6E6E6"/>
<path d="M6.42775 11C6.53648 11 6.64521 10.9618 6.73104 10.88L7.87554 9.78856C8.04149 9.63031 8.04149 9.36834 7.87554 9.21009L6.73104 8.11869C6.56509 7.96044 6.29042 7.96044 6.12446 8.11869C5.95851 8.27694 5.95851 8.53891 6.12446 8.69716L6.96567 9.49933L6.12446 10.3015C5.95851 10.4597 5.95851 10.7217 6.12446 10.88C6.2103 10.9618 6.31903 11 6.42775 11Z" fill="#E6E6E6"/>
</svg>
