<svg width="916" height="682" viewBox="0 0 916 682" fill="none" xmlns="http://www.w3.org/2000/svg">
<path d="M915.004 599.145H0V599.602H915.004V599.145Z" fill="#EBEBEB"/>
<path d="M823.321 628.59H762.711V629.047H823.321V628.59Z" fill="#EBEBEB"/>
<path d="M606.135 633.566H590.232V634.024H606.135V633.566Z" fill="#EBEBEB"/>
<path d="M760.881 611.607H725.763V612.065H760.881V611.607Z" fill="#EBEBEB"/>
<path d="M175.04 614.682H96.0022V615.139H175.04V614.682Z" fill="#EBEBEB"/>
<path d="M202.93 614.682H191.346V615.139H202.93V614.682Z" fill="#EBEBEB"/>
<path d="M412.026 622.404H240.591V622.862H412.026V622.404Z" fill="#EBEBEB"/>
<path d="M433.712 517.526H80.3556C77.5874 517.521 74.9343 516.418 72.9786 514.459C71.023 512.5 69.9246 509.845 69.9246 507.077V10.3578C69.9487 7.60556 71.0577 4.97392 73.0108 3.03455C74.9638 1.09518 77.6032 0.00471481 80.3556 0H433.712C436.483 0 439.141 1.10091 441.101 3.06054C443.06 5.02018 444.161 7.67801 444.161 10.4493V507.077C444.161 509.848 443.06 512.506 441.101 514.466C439.141 516.425 436.483 517.526 433.712 517.526ZM80.3556 0.366003C77.7088 0.370851 75.172 1.4257 73.3021 3.299C71.4323 5.17231 70.3821 7.71101 70.3821 10.3578V507.077C70.3821 509.724 71.4323 512.263 73.3021 514.136C75.172 516.009 77.7088 517.064 80.3556 517.069H433.712C436.36 517.064 438.899 516.01 440.772 514.137C442.645 512.264 443.699 509.726 443.704 507.077V10.3578C443.699 7.70933 442.645 5.17067 440.772 3.29789C438.899 1.4251 436.36 0.370841 433.712 0.366003H80.3556Z" fill="#EBEBEB"/>
<path d="M829.561 517.526H476.186C473.417 517.521 470.762 516.419 468.803 514.46C466.844 512.502 465.742 509.847 465.737 507.077V10.3578C465.766 7.60389 466.879 4.97227 468.835 3.03341C470.791 1.09454 473.432 0.00466339 476.186 0H829.561C832.31 0.00952427 834.945 1.10212 836.894 3.04098C838.843 4.97983 839.95 7.60872 839.974 10.3578V507.077C839.974 509.842 838.878 512.494 836.926 514.453C834.974 516.411 832.326 517.517 829.561 517.526ZM476.186 0.366003C473.538 0.370841 470.999 1.4251 469.126 3.29789C467.254 5.17067 466.199 7.70933 466.195 10.3578V507.077C466.199 509.726 467.254 512.264 469.126 514.137C470.999 516.01 473.538 517.064 476.186 517.069H829.561C832.21 517.064 834.748 516.01 836.621 514.137C838.494 512.264 839.548 509.726 839.553 507.077V10.3578C839.548 7.70933 838.494 5.17067 836.621 3.29789C834.748 1.4251 832.21 0.370841 829.561 0.366003H476.186Z" fill="#EBEBEB"/>
<path d="M416.016 189.991V231.661L437.464 233.674C440.339 247.376 445.772 260.414 453.476 272.104L439.696 288.757L469.141 318.22L485.794 304.422C497.48 312.134 510.519 317.567 524.224 320.434L526.237 341.882H567.907L569.938 320.434C583.639 317.554 596.675 312.122 608.368 304.422L625.003 318.22L654.466 288.757L640.686 272.104C648.392 260.416 653.819 247.377 656.68 233.674L678.146 231.661V189.991L656.68 187.96C653.821 174.256 648.394 161.216 640.686 149.53L654.466 132.877L625.003 103.414L608.478 117.12C596.789 109.417 583.75 103.991 570.048 101.126L568.016 79.6602H526.292L524.279 101.126C510.575 103.988 497.536 109.414 485.849 117.12L469.196 103.34L439.751 132.804L453.531 149.438C445.831 161.131 440.399 174.168 437.518 187.869L416.016 189.991ZM547.173 154.416C558.328 154.416 569.232 157.724 578.507 163.921C587.782 170.119 595.011 178.927 599.28 189.233C603.549 199.539 604.666 210.879 602.49 221.82C600.313 232.761 594.942 242.81 587.054 250.698C579.166 258.586 569.117 263.958 558.176 266.134C547.235 268.31 535.895 267.193 525.589 262.924C515.283 258.656 506.474 251.427 500.277 242.151C494.08 232.876 490.772 221.972 490.772 210.817C490.772 195.858 496.714 181.513 507.291 170.935C517.868 160.358 532.214 154.416 547.173 154.416Z" fill="#E0E0E0"/>
<path d="M345.615 376.432L357.584 386.332L378.812 365.159L368.856 353.191C374.389 344.777 378.288 335.396 380.349 325.539L395.757 324.094V294.173L380.349 292.709C378.291 282.857 374.392 273.481 368.856 265.076L378.757 253.108L357.584 231.934L345.615 241.835C337.205 236.295 327.823 232.396 317.964 230.342L316.518 214.934H286.579L285.133 230.342C275.277 232.403 265.896 236.302 257.482 241.835L245.514 231.934L224.359 253.108L234.259 265.076C228.716 273.477 224.816 282.854 222.767 292.709L207.34 294.173V324.112L222.767 325.558C224.816 335.409 228.709 344.785 234.241 353.191L224.341 365.141L245.495 386.314L257.464 376.414C265.875 381.975 275.264 385.894 285.133 387.961L286.579 403.388H316.591L318.037 387.961C327.876 385.895 337.234 381.983 345.615 376.432ZM261.032 309.142C261.029 301.124 263.403 293.284 267.856 286.616C272.309 279.947 278.639 274.749 286.047 271.678C293.454 268.608 301.606 267.804 309.47 269.367C317.335 270.931 324.559 274.792 330.229 280.462C335.899 286.132 339.76 293.356 341.324 301.221C342.887 309.085 342.083 317.237 339.013 324.645C335.942 332.052 330.744 338.382 324.075 342.835C317.407 347.288 309.567 349.662 301.549 349.659C290.805 349.654 280.502 345.384 272.905 337.786C265.307 330.189 261.037 319.887 261.032 309.142Z" fill="#E0E0E0"/>
<path d="M478.675 579.215C490.414 576.751 501.587 572.108 511.615 565.527L525.853 577.312L551.052 552.113L539.267 537.876C545.856 527.854 550.494 516.678 552.937 504.935L571.237 503.197V467.585L552.937 465.846C550.494 454.104 545.856 442.928 539.267 432.906L551.052 418.669L525.835 393.451L511.597 405.237C501.569 398.655 490.396 394.012 478.657 391.548L476.918 373.248H441.306L439.476 391.548C427.735 394.006 416.561 398.649 406.536 405.237L392.409 393.451L367.209 418.651L378.995 432.888C372.4 442.909 367.756 454.085 365.306 465.828L347.006 467.567V503.252L365.306 504.99C367.756 516.734 372.4 527.91 378.995 537.931L367.209 552.168L392.409 577.367L406.646 565.582C416.671 572.169 427.845 576.813 439.586 579.27L441.416 597.57H477.046L478.675 579.215ZM410.965 485.391C410.965 475.846 413.796 466.515 419.099 458.579C424.402 450.642 431.94 444.457 440.759 440.805C449.578 437.153 459.282 436.199 468.643 438.062C478.005 439.926 486.604 444.524 493.352 451.274C500.1 458.025 504.695 466.625 506.555 475.988C508.414 485.35 507.456 495.053 503.801 503.871C500.146 512.688 493.957 520.224 486.019 525.524C478.081 530.825 468.749 533.652 459.204 533.648C452.86 533.66 446.576 532.421 440.711 530.001C434.847 527.581 429.517 524.028 425.028 519.545C420.539 515.063 416.978 509.739 414.549 503.878C412.12 498.017 410.871 491.735 410.873 485.391H410.965Z" fill="#E0E0E0"/>
<path d="M734.84 285.901H774.203C775.058 285.893 775.895 285.663 776.634 285.235C777.373 284.806 777.989 284.193 778.42 283.456C778.851 282.718 779.084 281.881 779.096 281.027C779.107 280.173 778.897 279.33 778.486 278.581L758.795 244.488C758.364 243.735 757.742 243.109 756.992 242.674C756.241 242.239 755.389 242.01 754.522 242.01C753.654 242.01 752.802 242.239 752.052 242.674C751.301 243.109 750.679 243.735 750.249 244.488L730.576 278.581C730.165 279.329 729.955 280.17 729.966 281.023C729.976 281.875 730.208 282.711 730.637 283.448C731.066 284.185 731.679 284.798 732.415 285.228C733.152 285.658 733.987 285.89 734.84 285.901ZM757.166 253.693L756.306 270.676H752.646L751.749 253.693H757.166ZM751.676 276.513C751.673 276.14 751.746 275.769 751.891 275.424C752.035 275.08 752.249 274.768 752.517 274.508C752.786 274.248 753.104 274.045 753.454 273.911C753.803 273.778 754.176 273.717 754.549 273.732C754.926 273.715 755.302 273.774 755.656 273.905C756.009 274.037 756.332 274.239 756.606 274.499C756.879 274.759 757.097 275.071 757.247 275.417C757.397 275.763 757.475 276.136 757.477 276.513C757.48 276.894 757.405 277.272 757.258 277.624C757.111 277.975 756.894 278.293 756.62 278.558C756.346 278.823 756.022 279.03 755.666 279.166C755.31 279.302 754.93 279.365 754.549 279.35C754.168 279.367 753.787 279.307 753.43 279.172C753.073 279.036 752.747 278.83 752.473 278.564C752.198 278.298 751.981 277.979 751.835 277.627C751.688 277.274 751.616 276.895 751.621 276.513H751.676Z" fill="#F0F0F0"/>
<path d="M159.211 132.182H198.556C199.41 132.173 200.248 131.944 200.987 131.515C201.726 131.086 202.341 130.473 202.773 129.736C203.204 128.998 203.437 128.162 203.448 127.307C203.46 126.453 203.25 125.611 202.838 124.862L183.001 90.6772C182.568 89.9246 181.944 89.2994 181.192 88.8647C180.44 88.43 179.587 88.2012 178.719 88.2012C177.85 88.2012 176.997 88.43 176.245 88.8647C175.494 89.2994 174.87 89.9246 174.436 90.6772L154.837 124.77C154.399 125.528 154.171 126.389 154.175 127.265C154.179 128.14 154.415 128.999 154.86 129.753C155.305 130.507 155.943 131.129 156.707 131.556C157.471 131.983 158.335 132.199 159.211 132.182ZM181.537 99.9919L180.658 116.956H176.998L176.083 99.9919H181.537ZM176.047 122.812C176.042 122.438 176.112 122.067 176.255 121.722C176.397 121.376 176.608 121.063 176.875 120.801C177.142 120.539 177.459 120.335 177.807 120.199C178.156 120.063 178.528 120 178.902 120.012C179.29 119.981 179.68 120.03 180.048 120.157C180.416 120.284 180.753 120.486 181.039 120.75C181.326 121.014 181.554 121.334 181.71 121.691C181.866 122.047 181.947 122.432 181.947 122.821C181.947 123.21 181.866 123.595 181.71 123.952C181.554 124.309 181.326 124.629 181.039 124.893C180.753 125.157 180.416 125.358 180.048 125.485C179.68 125.612 179.29 125.662 178.902 125.63C178.515 125.661 178.127 125.611 177.761 125.482C177.395 125.354 177.06 125.151 176.778 124.885C176.495 124.62 176.271 124.298 176.12 123.941C175.969 123.584 175.894 123.2 175.9 122.812H176.047Z" fill="#F0F0F0"/>
<path d="M264.711 551.547H304.056C304.924 551.548 305.776 551.32 306.528 550.886C307.279 550.453 307.903 549.829 308.337 549.078C308.771 548.327 309 547.474 309 546.607C309 545.739 308.772 544.887 308.338 544.135L288.666 510.042C288.232 509.29 287.608 508.665 286.857 508.23C286.105 507.795 285.252 507.566 284.383 507.566C283.515 507.566 282.662 507.795 281.91 508.23C281.158 508.665 280.534 509.29 280.101 510.042L260.429 544.135C259.995 544.887 259.766 545.739 259.767 546.607C259.767 547.474 259.995 548.327 260.429 549.078C260.863 549.829 261.488 550.453 262.239 550.886C262.991 551.32 263.843 551.548 264.711 551.547ZM287.037 519.339L286.158 536.321H282.498L281.583 519.339H287.037ZM281.547 542.159C281.544 541.785 281.617 541.415 281.762 541.07C281.906 540.725 282.119 540.413 282.388 540.153C282.657 539.893 282.975 539.69 283.324 539.557C283.674 539.424 284.046 539.363 284.42 539.377C284.798 539.36 285.175 539.419 285.529 539.551C285.884 539.682 286.208 539.884 286.483 540.143C286.758 540.403 286.978 540.715 287.129 541.062C287.281 541.408 287.362 541.781 287.366 542.159C287.367 542.541 287.29 542.919 287.14 543.27C286.991 543.622 286.772 543.94 286.497 544.205C286.222 544.469 285.896 544.676 285.539 544.812C285.182 544.948 284.802 545.01 284.42 544.996C284.037 545.016 283.654 544.957 283.295 544.823C282.936 544.689 282.608 544.482 282.331 544.217C282.055 543.951 281.836 543.631 281.689 543.277C281.541 542.923 281.468 542.542 281.474 542.159H281.547Z" fill="#F0F0F0"/>
<path d="M633.183 502.227H672.546C673.412 502.224 674.262 501.994 675.011 501.559C675.76 501.124 676.382 500.5 676.814 499.75C677.246 498.999 677.473 498.148 677.472 497.282C677.471 496.416 677.243 495.565 676.81 494.815L657.156 460.722C656.723 459.97 656.099 459.344 655.347 458.91C654.595 458.475 653.742 458.246 652.874 458.246C652.005 458.246 651.152 458.475 650.4 458.91C649.649 459.344 649.025 459.97 648.591 460.722L628.919 494.815C628.486 495.565 628.258 496.416 628.257 497.282C628.256 498.148 628.483 498.999 628.915 499.75C629.347 500.5 629.969 501.124 630.718 501.559C631.467 501.994 632.317 502.224 633.183 502.227ZM655.509 470.019L654.63 487.001H650.97L650.055 470.019H655.509ZM650.019 492.839C650.014 492.466 650.084 492.096 650.227 491.751C650.369 491.406 650.581 491.094 650.848 490.834C651.115 490.574 651.432 490.37 651.781 490.237C652.129 490.103 652.501 490.042 652.874 490.057C653.251 490.04 653.629 490.099 653.983 490.231C654.337 490.362 654.662 490.564 654.937 490.823C655.212 491.083 655.431 491.395 655.583 491.741C655.735 492.087 655.815 492.461 655.82 492.839C655.82 493.221 655.743 493.599 655.594 493.95C655.445 494.302 655.226 494.619 654.951 494.884C654.676 495.149 654.35 495.356 653.993 495.492C653.636 495.628 653.255 495.69 652.874 495.675C652.495 495.69 652.116 495.628 651.762 495.491C651.408 495.355 651.086 495.147 650.815 494.881C650.544 494.616 650.331 494.298 650.188 493.946C650.044 493.595 649.974 493.218 649.982 492.839H650.019Z" fill="#F0F0F0"/>
<path d="M661.493 70.9853H683.289C683.768 70.9838 684.238 70.8568 684.653 70.617C685.068 70.3771 685.413 70.0328 685.654 69.6182C685.895 69.2036 686.022 68.7333 686.025 68.254C686.027 67.7746 685.904 67.3031 685.668 66.8861L674.688 48.0187C674.449 47.6002 674.105 47.2523 673.688 47.0102C673.272 46.7681 672.799 46.6406 672.318 46.6406C671.836 46.6406 671.363 46.7681 670.947 47.0102C670.531 47.2523 670.186 47.6002 669.948 48.0187L659.059 66.8861C658.814 67.3062 658.686 67.7842 658.688 68.2705C658.69 68.7568 658.822 69.2337 659.07 69.6518C659.318 70.07 659.674 70.4141 660.1 70.6486C660.526 70.8831 661.007 70.9993 661.493 70.9853ZM673.864 53.1611L673.443 62.5673H671.448L670.936 53.1611H673.864ZM670.79 65.8796C670.787 65.6715 670.827 65.465 670.906 65.2727C670.986 65.0804 671.104 64.9062 671.252 64.7608C671.401 64.6153 671.578 64.5017 671.772 64.4266C671.966 64.3515 672.174 64.3167 672.382 64.3241C672.794 64.3241 673.19 64.488 673.482 64.7797C673.773 65.0714 673.937 65.4671 673.937 65.8796C673.937 66.2922 673.773 66.6878 673.482 66.9795C673.19 67.2712 672.794 67.4351 672.382 67.4351C672.174 67.4426 671.966 67.4077 671.772 67.3326C671.578 67.2576 671.401 67.1439 671.252 66.9984C671.104 66.853 670.986 66.6788 670.906 66.4865C670.827 66.2942 670.787 66.0877 670.79 65.8796Z" fill="#F0F0F0"/>
<path d="M117.926 359.597H139.721C140.203 359.601 140.677 359.478 141.095 359.239C141.513 359.001 141.861 358.656 142.102 358.239C142.344 357.823 142.471 357.35 142.471 356.869C142.47 356.387 142.342 355.914 142.1 355.498L131.12 336.631C130.884 336.212 130.542 335.863 130.127 335.621C129.712 335.378 129.24 335.25 128.759 335.25C128.279 335.25 127.807 335.378 127.392 335.621C126.977 335.863 126.634 336.212 126.399 336.631L115.419 355.498C115.17 355.924 115.041 356.409 115.046 356.902C115.05 357.395 115.189 357.877 115.446 358.298C115.703 358.718 116.07 359.061 116.506 359.29C116.943 359.519 117.433 359.625 117.926 359.597ZM130.297 341.773L129.821 351.179H127.826L127.332 341.773H130.297ZM127.222 354.418C127.219 354.21 127.259 354.004 127.339 353.812C127.418 353.619 127.536 353.445 127.685 353.3C127.834 353.154 128.011 353.041 128.205 352.965C128.399 352.89 128.606 352.856 128.814 352.863C129.227 352.863 129.622 353.027 129.914 353.319C130.206 353.61 130.37 354.006 130.37 354.418C130.37 354.831 130.206 355.227 129.914 355.518C129.622 355.81 129.227 355.974 128.814 355.974C128.606 355.981 128.399 355.947 128.205 355.872C128.011 355.796 127.834 355.683 127.685 355.537C127.536 355.392 127.418 355.218 127.339 355.025C127.259 354.833 127.219 354.627 127.222 354.418Z" fill="#F0F0F0"/>
<path d="M535.241 220.133H557.036C557.517 220.13 557.988 220.001 558.403 219.759C558.818 219.517 559.162 219.17 559.401 218.753C559.64 218.336 559.766 217.864 559.765 217.383C559.764 216.903 559.637 216.431 559.397 216.015L548.509 197.148C548.27 196.729 547.926 196.381 547.509 196.139C547.093 195.897 546.62 195.77 546.139 195.77C545.657 195.77 545.184 195.897 544.768 196.139C544.352 196.381 544.007 196.729 543.769 197.148L532.789 216.015C532.544 216.438 532.417 216.918 532.42 217.407C532.424 217.895 532.557 218.374 532.807 218.793C533.057 219.213 533.414 219.558 533.842 219.794C534.27 220.029 534.753 220.146 535.241 220.133ZM547.594 202.29L547.118 211.696H545.123L544.629 202.29H547.594ZM544.537 214.935C544.535 214.729 544.574 214.524 544.652 214.333C544.731 214.142 544.847 213.968 544.994 213.823C545.141 213.678 545.315 213.564 545.507 213.488C545.699 213.412 545.905 213.375 546.111 213.38C546.423 213.38 546.728 213.473 546.987 213.646C547.247 213.82 547.448 214.067 547.567 214.356C547.685 214.644 547.716 214.962 547.653 215.267C547.591 215.573 547.439 215.854 547.217 216.073C546.995 216.292 546.713 216.441 546.407 216.499C546.1 216.558 545.783 216.524 545.496 216.402C545.209 216.28 544.964 216.076 544.794 215.815C544.623 215.553 544.534 215.247 544.537 214.935Z" fill="#F0F0F0"/>
<path d="M356.943 60.9941H300.323V98.4178H356.943V60.9941Z" fill="#E0E0E0"/>
<path d="M357.053 60.9941H300.323V67.143H357.053V60.9941Z" fill="#F0F0F0"/>
<path d="M233.216 199.764H176.596V237.187H233.216V199.764Z" fill="#E0E0E0"/>
<path d="M233.326 199.764H176.596V205.913H233.326V199.764Z" fill="#F0F0F0"/>
<path d="M225.384 466.141H168.763V503.564H225.384V466.141Z" fill="#E0E0E0"/>
<path d="M225.494 466.141H168.763V472.289H225.494V466.141Z" fill="#F0F0F0"/>
<path d="M661.328 369.699H604.708V407.123H661.328V369.699Z" fill="#E0E0E0"/>
<path d="M661.438 369.699H604.708V375.848H661.438V369.699Z" fill="#F0F0F0"/>
<path d="M785.421 418.248H728.801V455.672H785.421V418.248Z" fill="#E0E0E0"/>
<path d="M785.531 418.248H728.801V424.397H785.531V418.248Z" fill="#F0F0F0"/>
<path d="M764.596 138.641H707.975V176.064H764.596V138.641Z" fill="#E0E0E0"/>
<path d="M764.705 138.641H707.975V144.789H764.705V138.641Z" fill="#F0F0F0"/>
<path d="M457.502 681.789C653.464 681.789 812.323 672.514 812.323 661.073C812.323 649.632 653.464 640.357 457.502 640.357C261.54 640.357 102.682 649.632 102.682 661.073C102.682 672.514 261.54 681.789 457.502 681.789Z" fill="#F5F5F5"/>
<path d="M390.67 117.889H338.112C333.817 117.889 329.698 119.595 326.66 122.633C323.623 125.67 321.917 129.789 321.917 134.085V179.835C321.917 181.961 322.336 184.066 323.15 186.03C323.964 187.994 325.157 189.778 326.661 191.28C328.166 192.783 329.951 193.974 331.916 194.786C333.881 195.598 335.986 196.014 338.112 196.012H347.958L344.298 210.469L358.938 196.012H390.78C392.904 196.012 395.008 195.594 396.971 194.781C398.933 193.968 400.717 192.776 402.219 191.274C403.721 189.772 404.913 187.988 405.726 186.025C406.539 184.063 406.957 181.959 406.957 179.835V134.085C406.957 131.95 406.535 129.836 405.716 127.866C404.896 125.895 403.695 124.105 402.181 122.6C400.668 121.095 398.872 119.904 396.896 119.095C394.921 118.287 392.805 117.877 390.67 117.889Z" fill="#FF6E59"/>
<path opacity="0.7" d="M390.67 117.889H338.112C333.817 117.889 329.698 119.595 326.66 122.633C323.623 125.67 321.917 129.789 321.917 134.085V179.835C321.917 181.961 322.336 184.066 323.15 186.03C323.964 187.994 325.157 189.778 326.661 191.28C328.166 192.783 329.951 193.974 331.916 194.786C333.881 195.598 335.986 196.014 338.112 196.012H347.958L344.298 210.469L358.938 196.012H390.78C392.904 196.012 395.008 195.594 396.971 194.781C398.933 193.968 400.717 192.776 402.219 191.274C403.721 189.772 404.913 187.988 405.726 186.025C406.539 184.063 406.957 181.959 406.957 179.835V134.085C406.957 131.95 406.535 129.836 405.716 127.866C404.896 125.895 403.695 124.105 402.181 122.6C400.668 121.095 398.872 119.904 396.896 119.095C394.921 118.287 392.805 117.877 390.67 117.889Z" fill="white"/>
<path d="M364.391 184.446C359.035 184.446 353.798 182.857 349.344 179.881C344.89 176.905 341.419 172.675 339.369 167.726C337.319 162.777 336.783 157.331 337.828 152.078C338.873 146.824 341.452 141.998 345.24 138.21C349.028 134.422 353.854 131.843 359.107 130.798C364.361 129.753 369.807 130.289 374.756 132.339C379.705 134.389 383.935 137.86 386.911 142.314C389.887 146.768 391.475 152.005 391.475 157.361C391.466 164.542 388.609 171.425 383.532 176.502C378.455 181.579 371.571 184.436 364.391 184.446ZM364.391 133.937C359.758 133.937 355.23 135.311 351.378 137.885C347.525 140.459 344.523 144.117 342.75 148.397C340.977 152.678 340.513 157.387 341.417 161.931C342.321 166.475 344.552 170.649 347.828 173.925C351.104 177.201 355.278 179.432 359.821 180.335C364.365 181.239 369.075 180.775 373.355 179.003C377.635 177.23 381.294 174.227 383.868 170.375C386.442 166.523 387.815 161.994 387.815 157.361C387.811 151.151 385.341 145.195 380.949 140.803C376.557 136.412 370.602 133.942 364.391 133.937Z" fill="#FF6E59"/>
<path d="M360.237 167.83C359.986 167.83 359.738 167.777 359.508 167.676C359.278 167.576 359.072 167.429 358.901 167.245L350.922 158.607C350.758 158.43 350.63 158.222 350.546 157.995C350.463 157.768 350.425 157.527 350.435 157.285C350.445 157.043 350.503 156.806 350.606 156.587C350.708 156.368 350.853 156.171 351.032 156.008C351.389 155.682 351.861 155.51 352.345 155.531C352.829 155.551 353.284 155.762 353.612 156.118L360.255 163.329L375.152 147.499C375.495 147.158 375.958 146.967 376.442 146.967C376.925 146.967 377.389 147.158 377.732 147.499C377.903 147.669 378.04 147.871 378.133 148.094C378.225 148.317 378.273 148.557 378.273 148.798C378.273 149.04 378.225 149.279 378.133 149.502C378.04 149.725 377.903 149.927 377.732 150.098L361.463 167.336C361.13 167.648 360.693 167.824 360.237 167.83Z" fill="#FF6E59"/>
<path d="M298.84 651.996L311.577 651.776L314.743 622.35L302.006 622.569L298.84 651.996Z" fill="#E4897B"/>
<path opacity="0.2" d="M314.743 622.367L313.114 637.52L300.377 637.739L302.006 622.569L314.743 622.367Z" fill="black"/>
<path d="M328.706 516.154C328.706 556.415 317.378 633.074 317.378 633.074L296.077 636.386C296.077 636.386 294.009 564.906 293.204 525.341C293.076 519.522 276.844 491.376 260.117 463.889C251.498 449.725 242.751 435.707 235.98 425.002C228.751 413.546 223.81 405.86 223.81 405.86L274.373 386.938C274.373 386.938 328.67 477.395 328.706 516.154Z" fill="#FF6E59"/>
<path d="M320.361 634.317L294.705 635.946L294.265 627.693L322.429 625.479L320.361 634.317Z" fill="#263238"/>
<path d="M312.199 650.001C312.196 649.937 312.212 649.874 312.244 649.818C312.277 649.763 312.325 649.719 312.382 649.69C312.968 649.416 318.183 646.982 319.702 647.86C319.846 647.943 319.965 648.063 320.045 648.208C320.126 648.354 320.165 648.518 320.16 648.684C320.18 648.957 320.134 649.231 320.026 649.483C319.918 649.734 319.75 649.956 319.538 650.129C318.092 651.301 314.469 650.697 312.437 650.221C312.38 650.212 312.328 650.186 312.285 650.147C312.243 650.108 312.213 650.057 312.199 650.001ZM313.462 649.855C316.244 650.422 318.348 650.367 319.153 649.69C319.297 649.58 319.41 649.435 319.481 649.268C319.551 649.101 319.577 648.918 319.556 648.739C319.561 648.676 319.548 648.614 319.519 648.559C319.49 648.504 319.445 648.458 319.391 648.427H319.281C318.421 648.007 315.512 648.976 313.462 649.855Z" fill="#FF6E59"/>
<path d="M312.309 650.202C312.269 650.169 312.239 650.127 312.219 650.079C312.2 650.031 312.193 649.979 312.199 649.928C312.405 648.136 313.166 646.453 314.377 645.115C314.613 644.924 314.886 644.783 315.179 644.702C315.472 644.62 315.778 644.599 316.079 644.639C316.902 644.767 317.122 645.188 317.159 645.518C317.342 646.963 314.176 649.599 312.62 650.239C312.586 650.257 312.549 650.266 312.51 650.266C312.472 650.266 312.435 650.257 312.401 650.239L312.309 650.202ZM315.969 645.243C315.749 645.213 315.525 645.229 315.311 645.288C315.097 645.348 314.897 645.451 314.725 645.591C313.731 646.651 313.092 647.994 312.895 649.434C314.487 648.555 316.555 646.469 316.555 645.591C316.536 645.526 316.501 645.466 316.453 645.418C316.405 645.37 316.345 645.335 316.28 645.316C316.186 645.279 316.088 645.254 315.987 645.243H315.969Z" fill="#FF6E59"/>
<path d="M311.211 648.445L297.303 648.006C297.052 648.001 296.807 648.078 296.605 648.227C296.403 648.376 296.256 648.588 296.187 648.83L293.204 660.011C293.128 660.281 293.116 660.565 293.167 660.841C293.218 661.117 293.333 661.377 293.501 661.601C293.669 661.826 293.886 662.009 294.136 662.136C294.386 662.263 294.662 662.331 294.943 662.335C299.975 662.335 307.222 662.335 313.535 662.555C320.855 662.793 325.595 662.445 334.233 662.738C339.448 662.902 341.132 657.687 338.954 657.138C329.09 654.649 322.631 655.107 314.231 649.543C313.347 648.902 312.301 648.522 311.211 648.445Z" fill="#263238"/>
<path opacity="0.2" d="M260.117 463.889C251.498 449.725 242.751 435.707 235.979 425.002C238.678 421.564 241.809 418.489 245.294 415.852C245.294 415.852 260.062 441.545 260.117 463.889Z" fill="black"/>
<path d="M155.185 650.459L167.482 653.79L178.719 626.413L166.421 623.082L155.185 650.459Z" fill="#E4897B"/>
<path opacity="0.2" d="M178.7 626.431L172.918 640.54L160.62 637.191L166.403 623.082L178.7 626.431Z" fill="black"/>
<path d="M275.654 376.012L274.629 393.708L243.959 418.175C243.959 418.175 241.854 500.525 233.125 518.569C224.396 536.613 182.415 631.115 182.415 631.115L159.467 624.033C159.467 624.033 195.939 512.951 199.617 506.381C203.296 499.812 183.971 404.029 209.847 358.736L275.654 376.012Z" fill="#FF6E59"/>
<path d="M313.48 297.047C314.78 305.3 315.859 313.517 316.811 321.807C317.763 330.097 318.641 338.387 319.153 346.86L319.483 352.35C319.634 353.698 319.96 355.02 320.453 356.284C321.68 359.313 323.406 362.115 325.558 364.574C327.964 367.396 330.616 369.999 333.482 372.352C334.965 373.56 336.484 374.804 338.057 376.012C339.631 377.22 341.315 378.299 342.761 379.287L339.101 388.053C336.923 387.407 334.785 386.637 332.695 385.747C330.664 384.869 328.615 383.917 326.638 382.893C322.54 380.738 318.697 378.129 315.182 375.115C311.304 371.847 308.065 367.888 305.63 363.44C304.288 360.978 303.297 358.342 302.683 355.607C302.5 354.93 302.409 354.198 302.281 353.484L302.025 351.654L301.604 348.671L297.944 324.296C296.718 316.134 295.565 307.935 294.54 299.755L313.48 297.047Z" fill="#DC897C"/>
<path d="M286.854 274.501C279.735 284.383 291.96 322.081 291.96 322.081L320.252 315.255C319.29 304.253 317.142 293.387 313.847 282.846C308.576 267.638 294.631 263.631 286.854 274.501Z" fill="#FF6E59"/>
<path opacity="0.7" d="M286.854 274.501C279.735 284.383 291.96 322.081 291.96 322.081L320.252 315.255C319.29 304.253 317.142 293.387 313.847 282.846C308.576 267.638 294.631 263.631 286.854 274.501Z" fill="white"/>
<path opacity="0.2" d="M296.461 294.632C301.366 299.317 304.202 311.395 302.409 319.539L291.959 322.083C289.111 312.972 286.945 303.662 285.481 294.23C288.135 292.034 290.825 289.307 296.461 294.632Z" fill="black"/>
<path d="M234.973 251.26C233.995 265.422 231.958 279.492 228.879 293.35C226.775 303.031 224.359 312.126 221.98 320.324C216.49 339.521 211 353.759 209.847 358.754L275.727 375.975C308.265 310.662 303.818 269.834 303.818 269.834C299.086 267.18 294.197 264.815 289.178 262.752C288.117 262.313 287.019 261.91 285.902 261.508C276.725 258.527 267.382 256.083 257.921 254.188C256.091 253.803 254.261 253.474 252.431 253.163C243.281 251.717 234.973 251.26 234.973 251.26Z" fill="#FF6E59"/>
<path opacity="0.7" d="M234.973 251.26C233.995 265.422 231.958 279.492 228.879 293.35C226.775 303.031 224.359 312.126 221.98 320.324C216.49 339.521 211 353.759 209.847 358.754L275.727 375.975C308.265 310.662 303.818 269.834 303.818 269.834C299.086 267.18 294.197 264.815 289.178 262.752C288.117 262.313 287.019 261.91 285.902 261.508C276.725 258.527 267.382 256.083 257.921 254.188C256.091 253.803 254.261 253.474 252.431 253.163C243.281 251.717 234.973 251.26 234.973 251.26Z" fill="white"/>
<path d="M281.437 265.863C278.051 259.824 281.803 254.627 286.323 250.29L279.278 228.184C275.874 237.004 268.297 252.358 259.513 254.188C260.427 258.448 262.305 262.442 265.003 265.863H281.437Z" fill="#E4897B"/>
<path opacity="0.2" d="M282.151 237.205L286.323 250.271C285.053 251.461 283.89 252.759 282.846 254.151C279.772 251.589 277.448 245.001 279.296 241.341C279.981 239.796 280.949 238.393 282.151 237.205Z" fill="black"/>
<path d="M324.827 229.281C324.479 230.965 309.491 227.451 307.167 224.121C304.843 220.79 312.419 219.07 317.141 221.522C320.322 223.411 322.968 226.082 324.827 229.281Z" fill="#FF6E59"/>
<path opacity="0.3" d="M324.827 229.281C324.479 230.965 309.491 227.451 307.167 224.121C304.843 220.79 312.419 219.07 317.141 221.522C320.322 223.411 322.968 226.082 324.827 229.281Z" fill="black"/>
<path d="M317.836 220.792C317.836 225.916 313.865 235.212 308.375 229.942C302.885 224.671 317.927 211.989 317.836 220.792Z" fill="#263238"/>
<path d="M309.674 242.421C308.775 243.961 307.765 245.435 306.655 246.831C299.115 256.329 284.036 255.853 278.418 245.184C278.027 244.472 277.691 243.732 277.411 242.97C274.355 234.497 277.667 227.872 282.279 216.16C283.327 213.418 285.055 210.986 287.299 209.094C289.544 207.201 292.232 205.909 295.112 205.339C297.992 204.768 300.97 204.938 303.766 205.832C306.563 206.726 309.087 208.315 311.101 210.451C318.934 218.686 315.402 232.813 309.674 242.421Z" fill="#E4897B"/>
<path d="M290.788 195.811C288.182 196.622 285.805 198.039 283.852 199.946C277.045 206.205 272.086 215.575 280.705 225.036C286.945 222.693 290.02 214.056 290.788 211.585V195.811Z" fill="#263238"/>
<path d="M273.44 223.591C273.243 225.143 273.357 226.719 273.775 228.227C274.193 229.735 274.906 231.145 275.874 232.375C278.491 235.65 282.279 233.912 283.615 230.179C284.841 226.811 284.951 221.029 281.327 219.199C280.531 218.807 279.651 218.614 278.764 218.637C277.877 218.659 277.008 218.896 276.233 219.328C275.458 219.76 274.798 220.373 274.312 221.116C273.826 221.858 273.526 222.707 273.44 223.591Z" fill="#E4897B"/>
<path d="M298.182 227.25C297.742 228.165 297.889 229.08 298.511 229.428C299.133 229.775 299.957 229.171 300.341 228.238C300.725 227.305 300.634 226.408 300.012 226.06C299.389 225.713 298.621 226.317 298.182 227.25Z" fill="#263238"/>
<path d="M308.741 232.046C308.301 232.961 308.448 233.876 309.052 234.224C309.656 234.571 310.516 233.967 310.882 233.052C311.248 232.137 311.156 231.222 310.552 230.856C309.948 230.49 309.161 231.113 308.741 232.046Z" fill="#263238"/>
<path d="M305.172 230.984C305.037 234.252 305.357 237.522 306.124 240.702C305.282 240.834 304.422 240.788 303.6 240.567C302.777 240.347 302.01 239.956 301.347 239.421L305.172 230.984Z" fill="#DE5753"/>
<path d="M294.631 240.702C295.009 240.938 295.4 241.152 295.803 241.343C295.876 241.37 295.957 241.371 296.031 241.344C296.105 241.317 296.167 241.265 296.205 241.196C296.223 241.16 296.234 241.121 296.237 241.081C296.239 241.041 296.233 241.001 296.219 240.963C296.206 240.925 296.184 240.891 296.157 240.862C296.129 240.832 296.096 240.809 296.059 240.794C294.887 240.297 293.851 239.529 293.036 238.552C292.222 237.574 291.652 236.417 291.374 235.175C291.35 235.107 291.303 235.05 291.241 235.013C291.179 234.976 291.106 234.961 291.034 234.972C290.963 234.983 290.897 235.018 290.849 235.072C290.801 235.126 290.773 235.195 290.77 235.267C291.006 236.39 291.47 237.452 292.134 238.387C292.799 239.322 293.649 240.11 294.631 240.702Z" fill="#263238"/>
<path d="M296.461 222.383C296.556 222.438 296.663 222.467 296.772 222.467C296.882 222.467 296.989 222.438 297.084 222.383C297.741 222.006 298.477 221.788 299.233 221.747C299.989 221.706 300.745 221.842 301.439 222.146C301.509 222.184 301.585 222.209 301.664 222.218C301.744 222.227 301.824 222.22 301.9 222.198C301.977 222.176 302.048 222.139 302.11 222.089C302.173 222.039 302.224 221.978 302.262 221.908C302.301 221.839 302.325 221.764 302.334 221.686C302.343 221.609 302.336 221.53 302.314 221.455C302.291 221.38 302.254 221.31 302.205 221.249C302.155 221.189 302.094 221.139 302.025 221.102C301.157 220.702 300.208 220.514 299.253 220.552C298.299 220.59 297.367 220.854 296.535 221.322C296.464 221.357 296.401 221.406 296.349 221.465C296.298 221.525 296.259 221.595 296.235 221.67C296.211 221.745 296.202 221.824 296.21 221.903C296.217 221.982 296.241 222.058 296.278 222.127C296.318 222.226 296.381 222.314 296.461 222.383Z" fill="#263238"/>
<path d="M314.963 230.582C315.062 230.657 315.187 230.69 315.31 230.673C315.389 230.673 315.467 230.658 315.539 230.627C315.611 230.597 315.676 230.552 315.731 230.496C315.786 230.439 315.828 230.372 315.857 230.299C315.885 230.226 315.898 230.148 315.896 230.07C315.897 229.117 315.67 228.178 315.234 227.331C314.798 226.484 314.165 225.754 313.389 225.202C313.249 225.124 313.085 225.101 312.929 225.139C312.773 225.176 312.637 225.27 312.547 225.403C312.466 225.539 312.441 225.702 312.479 225.856C312.517 226.01 312.613 226.143 312.748 226.227C313.359 226.666 313.854 227.247 314.192 227.919C314.53 228.591 314.7 229.336 314.688 230.088C314.685 230.187 314.709 230.286 314.757 230.373C314.805 230.46 314.876 230.532 314.963 230.582Z" fill="#263238"/>
<path d="M317.36 224.121C308.942 217.588 298.2 214.624 289.8 213.269C285.284 212.507 280.71 212.133 276.13 212.153C276.496 207.432 282.535 196.635 286.323 195.848C292.687 195.092 299.129 195.308 305.428 196.488C309.857 198.135 318.659 204.522 319.318 207.212C320.691 212.83 317.36 224.121 317.36 224.121Z" fill="#FF6E59"/>
<path d="M289.782 213.252C289.782 213.252 300.945 210.763 310.717 214.551C320.489 218.339 324.826 229.191 324.826 229.191C324.826 229.191 323.966 226.94 315.896 224.03C306.947 220.901 299.371 220.846 289.782 213.252Z" fill="#FF6E59"/>
<path opacity="0.1" d="M305.428 196.488C305.428 196.488 295.455 200.789 294.759 201.484C294.064 202.18 289.8 213.269 289.8 213.269C285.284 212.507 280.71 212.133 276.13 212.153C276.496 207.432 282.535 196.635 286.323 195.848C292.687 195.092 299.129 195.308 305.428 196.488Z" fill="black"/>
<path opacity="0.1" d="M289.782 213.252C289.782 213.252 300.945 210.763 310.717 214.551C320.489 218.339 324.826 229.191 324.826 229.191C324.826 229.191 323.966 226.94 315.896 224.03C306.947 220.901 299.371 220.846 289.782 213.252Z" fill="black"/>
<path opacity="0.3" d="M309.674 242.422C308.774 243.963 307.765 245.436 306.654 246.832C299.115 256.33 284.035 255.854 278.417 245.185C278.076 237.187 280.155 229.272 284.383 222.475L286.323 220.389C286.323 220.389 283.907 229.703 284.621 231.533C285.335 233.363 290.514 231.021 292.911 232.54C294.492 233.699 295.66 235.334 296.242 237.206L294.759 238.14C294.759 238.14 291.85 233.492 290.788 233.363C289.727 233.235 284.658 237.865 285.115 239.457C285.573 241.049 284.804 241.855 286.323 242.568C287.842 243.282 291.538 240.848 291.538 240.848L293.552 242.678C293.552 242.678 290.331 246.119 290.825 246.814C291.674 247.446 292.66 247.868 293.703 248.046C294.746 248.224 295.817 248.153 296.827 247.839C299.133 246.905 299.042 241.873 299.481 241.361C299.92 240.848 295.931 239.11 295.931 239.11L297.157 237.28C297.157 237.28 302.189 240.482 302.372 241.434C302.555 242.385 301.567 245.277 302.372 245.277C304.978 244.842 307.464 243.87 309.674 242.422Z" fill="black"/>
<path d="M314.121 212.61L313.846 211.531L314.633 210.762L316.463 211.238C316.381 210.873 316.201 210.538 315.944 210.267C315.686 209.996 315.36 209.801 314.999 209.701C314.657 209.604 314.295 209.6 313.951 209.69C313.606 209.78 313.292 209.961 313.041 210.213C312.965 210.158 312.878 210.121 312.785 210.103L307.954 208.731H307.698C307.602 208.378 307.414 208.058 307.152 207.803C306.891 207.547 306.567 207.366 306.212 207.279C305.857 207.191 305.486 207.2 305.136 207.304C304.786 207.408 304.47 207.604 304.221 207.871L306.051 208.365L306.325 209.426L305.538 210.195L303.708 209.719C303.792 210.083 303.973 210.417 304.23 210.688C304.488 210.958 304.813 211.154 305.172 211.256C305.513 211.352 305.874 211.356 306.217 211.27C306.561 211.183 306.875 211.008 307.13 210.762H307.387L312.218 212.135C312.302 212.152 312.39 212.152 312.474 212.135C312.57 212.487 312.758 212.808 313.019 213.063C313.28 213.318 313.605 213.499 313.96 213.587C314.314 213.674 314.686 213.666 315.036 213.562C315.386 213.458 315.702 213.262 315.951 212.995L314.121 212.61Z" fill="white"/>
<path d="M340.491 378.152L352.826 382.087L342.998 392.554C342.998 392.554 332.201 388.382 334.58 382.91L340.491 378.152Z" fill="#E4897B"/>
<path d="M359.066 395.703L355.369 402.383L342.999 392.556L352.826 382.088L359.066 395.703Z" fill="#E4897B"/>
<path d="M234.241 277.613C228.586 284.091 222.822 290.789 217.35 297.45C214.569 300.762 211.86 304.148 209.39 307.478C206.985 310.588 204.796 313.86 202.838 317.269C202.509 317.861 202.216 318.472 201.96 319.099C201.96 319.282 201.832 319.428 201.85 319.264C201.868 319.099 201.85 319.264 201.85 319.099V318.275C201.761 317.407 201.525 316.559 201.155 315.768C200.979 315.416 200.784 315.074 200.569 314.744C200.349 314.432 200.075 314.121 199.928 313.938C199.782 313.755 199.526 313.554 199.325 313.371L198.849 313.005C198.623 312.85 198.384 312.715 198.135 312.602L197.732 312.419H197.531C197.385 312.419 197.531 312.419 197.806 312.529C198.539 312.703 199.286 312.814 200.038 312.859C201.868 313.005 203.9 313.042 205.967 313.005C208.035 312.968 210.176 313.005 212.336 312.84C220.937 312.438 229.794 311.779 238.597 311.248L240.427 320.6C231.781 323.502 222.953 325.831 214.001 327.572C209.284 328.539 204.5 329.151 199.691 329.402C198.219 329.455 196.746 329.412 195.28 329.274C194.271 329.167 193.272 328.971 192.297 328.688C191.961 328.601 191.631 328.491 191.309 328.359C190.943 328.212 190.614 328.103 190.138 327.865C189.638 327.621 189.16 327.333 188.71 327.005C188.433 326.824 188.17 326.622 187.924 326.401C187.594 326.126 187.301 325.833 187.009 325.541C186.681 325.186 186.381 324.807 186.112 324.406C185.806 323.975 185.542 323.515 185.325 323.034C184.828 321.993 184.524 320.871 184.428 319.721C184.41 319.441 184.41 319.16 184.428 318.879V318.056C184.407 317.727 184.407 317.397 184.428 317.068C184.541 316.021 184.743 314.987 185.032 313.975C185.468 312.476 186.006 311.008 186.643 309.583C188.76 305.111 191.252 300.826 194.091 296.773C196.726 292.802 199.471 289.142 202.253 285.482C207.889 278.162 213.672 271.409 219.912 264.656L234.241 277.613Z" fill="#DC897C"/>
<path d="M231.093 251.406C219.052 253.236 200.166 284.346 200.166 284.346L226.299 301.328C233.001 292.943 238.925 283.963 243.995 274.501C251.882 259.348 245.66 249.1 231.093 251.406Z" fill="#FF6E59"/>
<path opacity="0.7" d="M231.093 251.406C219.052 253.236 200.166 284.346 200.166 284.346L226.299 301.328C233.001 292.943 238.925 283.963 243.995 274.501C251.882 259.348 245.66 249.1 231.093 251.406Z" fill="white"/>
<path d="M257.775 254.243L264.217 249.559L276.221 265.626L280.851 257.592L285.756 261.563C287.041 263.789 287.717 266.314 287.717 268.883C287.717 271.453 287.041 273.978 285.756 276.204L276.13 268.316L265.772 274.959C265.772 274.959 254.755 262.131 257.775 254.243Z" fill="#FF6E59"/>
<path d="M243.208 230.435C246.847 235.058 249.192 240.564 250.003 246.39C250.814 252.216 250.063 258.153 247.826 263.594C245.588 269.034 241.946 273.782 237.27 277.352C232.595 280.922 227.055 283.186 221.218 283.911C215.38 284.637 209.455 283.798 204.048 281.481C198.641 279.164 193.947 275.452 190.446 270.724C186.945 265.997 184.764 260.424 184.124 254.577C183.485 248.729 184.411 242.816 186.807 237.444L204.943 260.502L222.621 257.959L229.263 241.379L211.128 218.321C217.072 217.221 223.203 217.768 228.858 219.904C234.513 222.039 239.475 225.681 243.208 230.435Z" fill="#FF6E59"/>
<path d="M371.492 500.764C367.861 496.143 365.523 490.641 364.716 484.82C363.91 478.998 364.664 473.068 366.901 467.634C369.139 462.2 372.779 457.457 377.451 453.892C382.122 450.327 387.657 448.066 393.489 447.341C399.321 446.616 405.24 447.454 410.642 449.767C416.044 452.081 420.735 455.788 424.235 460.509C427.734 465.23 429.917 470.796 430.559 476.637C431.202 482.479 430.282 488.386 427.893 493.755L409.757 470.697L392.079 473.241L385.436 489.839L403.572 512.879C397.628 513.979 391.497 513.431 385.842 511.296C380.187 509.16 375.225 505.518 371.492 500.764Z" fill="#FF6E59"/>
<g opacity="0.2">
<path d="M243.208 230.435C246.847 235.058 249.192 240.564 250.003 246.39C250.814 252.216 250.063 258.153 247.826 263.594C245.588 269.034 241.946 273.782 237.27 277.352C232.595 280.922 227.055 283.186 221.218 283.911C215.38 284.637 209.455 283.798 204.048 281.481C198.641 279.164 193.947 275.452 190.446 270.724C186.945 265.997 184.764 260.424 184.124 254.577C183.485 248.729 184.411 242.816 186.807 237.444L204.943 260.502L222.621 257.959L229.263 241.379L211.128 218.321C217.072 217.221 223.203 217.768 228.858 219.904C234.513 222.039 239.475 225.681 243.208 230.435Z" fill="white"/>
<path d="M371.492 500.764C367.861 496.143 365.523 490.641 364.716 484.82C363.91 478.998 364.664 473.068 366.901 467.634C369.139 462.2 372.779 457.457 377.451 453.892C382.122 450.327 387.657 448.066 393.489 447.341C399.321 446.616 405.24 447.454 410.642 449.767C416.044 452.081 420.735 455.788 424.235 460.509C427.734 465.23 429.917 470.796 430.559 476.637C431.202 482.479 430.282 488.386 427.893 493.755L409.757 470.697L392.079 473.241L385.436 489.839L403.572 512.879C397.628 513.979 391.497 513.431 385.842 511.296C380.187 509.16 375.225 505.518 371.492 500.764Z" fill="white"/>
</g>
<path d="M388.127 468.354C386.318 469.776 384.248 470.828 382.033 471.449C379.818 472.07 377.503 472.25 375.219 471.976C372.935 471.702 370.727 470.981 368.722 469.854C366.716 468.727 364.952 467.217 363.531 465.408L223.554 287.458C222.131 285.651 221.078 283.581 220.455 281.367C219.832 279.153 219.652 276.838 219.924 274.554C220.195 272.27 220.915 270.062 222.04 268.056C223.165 266.05 224.675 264.285 226.482 262.862C228.289 261.44 230.359 260.387 232.573 259.764C234.787 259.141 237.102 258.96 239.386 259.232C241.67 259.504 243.878 260.223 245.884 261.348C247.89 262.474 249.655 263.983 251.077 265.791L391.073 443.759C392.495 445.567 393.546 447.638 394.168 449.853C394.789 452.067 394.968 454.383 394.695 456.667C394.421 458.951 393.7 461.158 392.573 463.164C391.446 465.169 389.935 466.933 388.127 468.354Z" fill="#FF6E59"/>
<path opacity="0.2" d="M388.127 468.354C386.318 469.776 384.248 470.828 382.033 471.449C379.818 472.07 377.503 472.25 375.219 471.976C372.935 471.702 370.727 470.981 368.722 469.854C366.716 468.727 364.952 467.217 363.531 465.408L223.554 287.458C222.131 285.651 221.078 283.581 220.455 281.367C219.832 279.153 219.652 276.838 219.924 274.554C220.195 272.27 220.915 270.062 222.04 268.056C223.165 266.05 224.675 264.285 226.482 262.862C228.289 261.44 230.359 260.387 232.573 259.764C234.787 259.141 237.102 258.96 239.386 259.232C241.67 259.504 243.878 260.223 245.884 261.348C247.89 262.474 249.655 263.983 251.077 265.791L391.073 443.759C392.495 445.567 393.546 447.638 394.168 449.853C394.789 452.067 394.968 454.383 394.695 456.667C394.421 458.951 393.7 461.158 392.573 463.164C391.446 465.169 389.935 466.933 388.127 468.354Z" fill="white"/>
<path opacity="0.2" d="M379.928 457.923C379.001 458.654 377.938 459.196 376.802 459.516C375.665 459.837 374.476 459.93 373.303 459.79C372.131 459.651 370.997 459.282 369.967 458.704C368.937 458.126 368.031 457.351 367.301 456.422L233.18 285.921C231.706 284.043 231.037 281.658 231.318 279.288C231.6 276.918 232.808 274.756 234.68 273.275C236.562 271.809 238.947 271.145 241.316 271.43C243.685 271.714 245.845 272.924 247.326 274.794L381.447 445.296C382.917 447.173 383.583 449.556 383.298 451.924C383.014 454.291 381.802 456.448 379.928 457.923Z" fill="black"/>
<path d="M235.723 313.498L245.313 304.879L250.052 320.489C250.052 320.489 240.28 325.979 236.803 321.074L235.723 313.498Z" fill="#E4897B"/>
<path d="M255.835 304.148L259.166 317.215L250.052 320.49L245.294 304.88L255.835 304.148Z" fill="#E4897B"/>
<path d="M180.549 637.667L156.319 629.084L159.156 621.307L185.929 630.347L180.549 637.667Z" fill="#263238"/>
<path d="M169.367 650.001C169.364 649.937 169.38 649.874 169.412 649.818C169.445 649.763 169.493 649.719 169.55 649.69C170.136 649.416 175.351 646.982 176.87 647.86C177.014 647.943 177.133 648.063 177.213 648.208C177.294 648.354 177.333 648.518 177.328 648.684C177.348 648.957 177.302 649.231 177.194 649.483C177.086 649.734 176.918 649.956 176.706 650.129C175.26 651.301 171.637 650.697 169.605 650.221C169.548 650.212 169.495 650.186 169.453 650.147C169.411 650.108 169.381 650.057 169.367 650.001ZM170.63 649.855C173.412 650.422 175.516 650.367 176.321 649.69C176.465 649.58 176.578 649.435 176.649 649.268C176.719 649.101 176.745 648.918 176.724 648.739C176.729 648.676 176.716 648.614 176.687 648.559C176.657 648.504 176.613 648.458 176.559 648.427H176.449C175.498 648.007 172.68 648.976 170.63 649.855Z" fill="#FF6E59"/>
<path d="M169.495 650.202C169.454 650.17 169.42 650.129 169.398 650.081C169.376 650.033 169.365 649.981 169.367 649.928C169.573 648.136 170.334 646.453 171.545 645.115C171.781 644.924 172.054 644.783 172.347 644.702C172.639 644.62 172.946 644.599 173.247 644.639C174.07 644.767 174.29 645.188 174.327 645.518C174.51 646.963 171.344 649.599 169.788 650.239C169.754 650.257 169.717 650.266 169.678 650.266C169.64 650.266 169.602 650.257 169.569 650.239L169.495 650.202ZM173.155 645.243C172.935 645.213 172.711 645.229 172.497 645.288C172.283 645.348 172.084 645.451 171.911 645.591C170.917 646.651 170.278 647.994 170.081 649.434C171.673 648.555 173.741 646.469 173.741 645.591C173.722 645.526 173.687 645.466 173.639 645.418C173.591 645.37 173.532 645.335 173.466 645.316C173.367 645.277 173.262 645.252 173.155 645.243Z" fill="#FF6E59"/>
<path d="M168.361 648.445L154.453 648.006C154.202 648.001 153.956 648.078 153.754 648.227C153.552 648.376 153.405 648.588 153.336 648.83L150.353 660.011C150.275 660.289 150.264 660.581 150.32 660.864C150.377 661.146 150.499 661.412 150.677 661.638C150.856 661.865 151.085 662.046 151.347 662.167C151.609 662.288 151.895 662.346 152.183 662.335C157.216 662.335 164.463 662.335 170.776 662.555C178.096 662.793 182.836 662.445 191.474 662.738C196.689 662.902 198.373 657.687 196.195 657.138C186.331 654.649 179.872 655.107 171.472 649.543C170.562 648.886 169.482 648.505 168.361 648.445Z" fill="#263238"/>
<path d="M207.651 359.688L225.677 364.555L224.066 371.162L204.961 366.568L207.651 359.688Z" fill="#263238"/>
<path d="M227.726 365.086L270.274 376.56L269.286 382.087L225.896 371.619L227.726 365.086Z" fill="#263238"/>
<path d="M276.258 378.172L275.654 383.607L270.713 382.436L271.829 376.982L276.258 378.172Z" fill="#263238"/>
<path d="M245.111 370.211L243.977 375.554C243.927 375.775 243.967 376.007 244.087 376.198C244.206 376.39 244.397 376.527 244.617 376.579L254.646 378.94C254.758 378.964 254.875 378.966 254.989 378.945C255.102 378.924 255.211 378.881 255.308 378.818C255.404 378.755 255.488 378.673 255.553 378.578C255.619 378.483 255.665 378.376 255.689 378.263L256.732 373.23C256.777 373.015 256.737 372.79 256.621 372.603C256.506 372.416 256.322 372.28 256.11 372.224L246.191 369.552C246.077 369.522 245.958 369.516 245.841 369.533C245.724 369.55 245.612 369.591 245.511 369.652C245.41 369.714 245.323 369.795 245.254 369.891C245.186 369.987 245.137 370.096 245.111 370.211Z" fill="white"/>
<path d="M293.899 303.488L293.625 302.427L294.412 301.64L296.242 302.134C296.161 301.778 295.987 301.449 295.739 301.182C295.49 300.914 295.174 300.718 294.825 300.612C294.475 300.506 294.104 300.494 293.748 300.578C293.393 300.663 293.066 300.839 292.801 301.091L292.563 300.981L287.732 299.609H287.476C287.378 299.266 287.194 298.955 286.94 298.705C286.687 298.455 286.374 298.275 286.03 298.181C285.671 298.083 285.291 298.086 284.932 298.189C284.574 298.292 284.251 298.492 283.999 298.767L285.737 299.243L286.03 300.304L285.243 301.091L283.413 300.597C283.485 300.956 283.654 301.29 283.9 301.562C284.146 301.834 284.462 302.034 284.813 302.141C285.164 302.248 285.537 302.258 285.893 302.169C286.249 302.081 286.575 301.898 286.835 301.64C286.911 301.684 286.991 301.721 287.073 301.75L291.923 303.122H292.179C292.275 303.475 292.463 303.795 292.724 304.05C292.986 304.306 293.31 304.487 293.665 304.574C294.019 304.662 294.391 304.653 294.741 304.549C295.091 304.445 295.407 304.249 295.656 303.982L293.899 303.488Z" fill="#FF6E59"/>
<path d="M493.571 655.985V661.475C493.571 661.805 493.703 662.122 493.936 662.355C494.169 662.588 494.486 662.72 494.816 662.72H650.641C651.969 662.717 653.277 662.389 654.449 661.764C655.621 661.139 656.623 660.236 657.365 659.135C658.107 658.033 658.568 656.766 658.707 655.445C658.846 654.124 658.659 652.789 658.162 651.557L608.752 529.275L528.964 529.824L531.691 545.691L549.295 648.391C549.419 649.168 549.373 649.963 549.163 650.721C548.952 651.48 548.581 652.184 548.074 652.786C547.567 653.388 546.936 653.875 546.225 654.212C545.514 654.549 544.739 654.729 543.952 654.741H494.816C494.652 654.738 494.489 654.769 494.337 654.83C494.185 654.892 494.046 654.984 493.93 655.1C493.814 655.216 493.723 655.354 493.661 655.506C493.599 655.658 493.569 655.821 493.571 655.985Z" fill="#FF6E59"/>
<path opacity="0.6" d="M493.571 655.985V661.475C493.571 661.805 493.703 662.122 493.936 662.355C494.169 662.588 494.486 662.72 494.816 662.72H650.641C651.969 662.717 653.277 662.389 654.449 661.764C655.621 661.139 656.623 660.236 657.365 659.135C658.107 658.033 658.568 656.766 658.707 655.445C658.846 654.124 658.659 652.789 658.162 651.557L627.565 575.758L608.789 529.275L529 529.824L531.727 545.691L539.377 590.343L549.332 648.391C549.455 649.168 549.41 649.963 549.199 650.721C548.988 651.48 548.617 652.184 548.11 652.786C547.603 653.388 546.973 653.875 546.262 654.212C545.551 654.549 544.775 654.729 543.988 654.741H494.816C494.652 654.738 494.489 654.769 494.337 654.83C494.185 654.892 494.046 654.984 493.93 655.1C493.814 655.216 493.723 655.354 493.661 655.506C493.599 655.658 493.569 655.821 493.571 655.985Z" fill="white"/>
<path opacity="0.2" d="M543.988 654.759H645.352C645.93 654.737 646.493 654.578 646.998 654.297C647.502 654.015 647.933 653.617 648.254 653.137C648.575 652.657 648.778 652.108 648.846 651.534C648.915 650.96 648.846 650.379 648.646 649.836L605.348 545.709H531.727L549.332 648.409C549.455 649.186 549.41 649.981 549.199 650.74C548.988 651.498 548.617 652.202 548.11 652.805C547.603 653.407 546.973 653.893 546.262 654.23C545.551 654.568 544.775 654.748 543.988 654.759Z" fill="black"/>
<path opacity="0.1" d="M529 529.844L531.727 545.71L539.377 590.362L627.565 575.777L608.789 529.295L529 529.844Z" fill="black"/>
<path d="M373.852 301.951H743.258C744.499 301.951 745.729 302.196 746.876 302.672C748.022 303.147 749.064 303.845 749.941 304.723C750.818 305.602 751.514 306.645 751.987 307.793C752.461 308.941 752.703 310.171 752.701 311.412V561.41C752.701 563.916 751.706 566.32 749.936 568.093C748.166 569.867 745.764 570.866 743.258 570.871H373.852C371.343 570.871 368.937 569.874 367.162 568.1C365.388 566.325 364.391 563.919 364.391 561.41V311.339C364.406 308.841 365.409 306.451 367.183 304.691C368.956 302.931 371.354 301.946 373.852 301.951Z" fill="#FF6E59"/>
<path opacity="0.7" d="M373.852 301.951H743.258C744.499 301.951 745.729 302.196 746.876 302.672C748.022 303.147 749.064 303.845 749.941 304.723C750.818 305.602 751.514 306.645 751.987 307.793C752.461 308.941 752.703 310.171 752.701 311.412V561.41C752.701 563.916 751.706 566.32 749.936 568.093C748.166 569.867 745.764 570.866 743.258 570.871H373.852C371.343 570.871 368.937 569.874 367.162 568.1C365.388 566.325 364.391 563.919 364.391 561.41V311.339C364.406 308.841 365.409 306.451 367.183 304.691C368.956 302.931 371.354 301.946 373.852 301.951Z" fill="white"/>
<path opacity="0.2" d="M735.425 570.853H743.258C745.762 570.853 748.164 569.859 749.935 568.088C751.706 566.317 752.701 563.915 752.701 561.411V311.34C752.703 310.098 752.461 308.869 751.987 307.721C751.514 306.573 750.818 305.53 749.941 304.651C749.064 303.772 748.022 303.075 746.876 302.599C745.729 302.124 744.499 301.879 743.258 301.879H735.425C736.667 301.879 737.896 302.124 739.043 302.599C740.19 303.075 741.232 303.772 742.109 304.651C742.986 305.53 743.681 306.573 744.155 307.721C744.628 308.869 744.871 310.098 744.868 311.34V561.411C744.868 563.915 743.873 566.317 742.102 568.088C740.332 569.859 737.93 570.853 735.425 570.853Z" fill="black"/>
<path d="M736.34 311.139H372.901V552.279H736.34V311.139Z" fill="#263238"/>
<path d="M736.34 311.139H372.901V329.64H736.34V311.139Z" fill="#FF6E59"/>
<path opacity="0.2" d="M727.849 321.057C727.849 321.951 727.584 322.825 727.088 323.568C726.591 324.312 725.885 324.891 725.059 325.233C724.233 325.575 723.324 325.665 722.447 325.49C721.571 325.316 720.765 324.886 720.133 324.253C719.501 323.621 719.07 322.816 718.896 321.939C718.722 321.062 718.811 320.153 719.153 319.327C719.495 318.501 720.075 317.796 720.818 317.299C721.561 316.802 722.435 316.537 723.329 316.537C724.527 316.542 725.673 317.02 726.52 317.866C727.367 318.713 727.845 319.86 727.849 321.057Z" fill="black"/>
<path opacity="0.2" d="M712.916 321.057C712.927 321.953 712.671 322.833 712.181 323.583C711.691 324.334 710.989 324.921 710.164 325.272C709.339 325.623 708.429 325.72 707.549 325.552C706.668 325.384 705.858 324.957 705.22 324.328C704.582 323.698 704.146 322.892 703.967 322.014C703.789 321.136 703.875 320.224 704.215 319.395C704.556 318.566 705.135 317.857 705.879 317.358C706.624 316.858 707.5 316.592 708.396 316.592C709.586 316.592 710.727 317.06 711.573 317.896C712.419 318.732 712.902 319.868 712.916 321.057Z" fill="black"/>
<path opacity="0.2" d="M698.002 321.058C698.013 321.958 697.754 322.841 697.26 323.593C696.766 324.346 696.058 324.933 695.228 325.281C694.398 325.629 693.483 325.721 692.6 325.545C691.717 325.369 690.907 324.934 690.273 324.295C689.639 323.656 689.21 322.842 689.042 321.958C688.873 321.073 688.973 320.159 689.327 319.332C689.682 318.504 690.275 317.801 691.032 317.313C691.788 316.826 692.673 316.575 693.573 316.593C694.745 316.621 695.861 317.102 696.686 317.934C697.512 318.766 697.983 319.886 698.002 321.058Z" fill="black"/>
<path opacity="0.4" d="M736.34 329.732H372.901V392.337H736.34V329.732Z" fill="white"/>
<path d="M381.227 332.514L372.901 347.428V332.514H381.227Z" fill="#263238"/>
<path d="M426.117 332.514L394.22 389.756H372.901V382.747L400.9 332.514H426.117Z" fill="#263238"/>
<path d="M438.982 389.993H413.765L445.808 332.494H471.007L438.982 389.993Z" fill="#263238"/>
<path d="M483.872 389.993H458.655L490.698 332.494H515.916L483.872 389.993Z" fill="#263238"/>
<path d="M528.762 389.993H503.545L535.588 332.494H560.806L528.762 389.993Z" fill="#263238"/>
<path d="M573.653 389.993H548.453L580.479 332.494H605.696L573.653 389.993Z" fill="#263238"/>
<path d="M618.561 389.573H593.343L625.387 332.074H650.586L618.561 389.573Z" fill="#263238"/>
<path d="M663.451 389.573H638.233L670.277 332.074H695.494L663.451 389.573Z" fill="#263238"/>
<path d="M736.34 332.312V339.34L708.341 389.573H683.124L715.039 332.312H736.34Z" fill="#263238"/>
<path d="M736.34 375.08V389.757H728.16L736.34 375.08Z" fill="#263238"/>
<path opacity="0.4" d="M736.34 489.436H372.901V552.04H736.34V489.436Z" fill="white"/>
<path d="M381.227 492.73L372.901 507.517V492.73H381.227Z" fill="#263238"/>
<path d="M426.117 492.73L394.22 549.497H372.901V542.543L400.9 492.73H426.117Z" fill="#263238"/>
<path d="M438.982 549.735H413.765L445.808 492.73H471.007L438.982 549.735Z" fill="#263238"/>
<path d="M483.872 549.735H458.655L490.698 492.73H515.916L483.872 549.735Z" fill="#263238"/>
<path d="M528.762 549.735H503.545L535.588 492.73H560.806L528.762 549.735Z" fill="#263238"/>
<path d="M573.653 549.735H548.453L580.479 492.73H605.696L573.653 549.735Z" fill="#263238"/>
<path d="M618.561 549.313H593.343L625.387 492.309H650.586L618.561 549.313Z" fill="#263238"/>
<path d="M663.451 549.313H638.233L670.277 492.309H695.494L663.451 549.313Z" fill="#263238"/>
<path d="M736.34 492.529V499.483L708.341 549.296H683.124L715.039 492.529H736.34Z" fill="#263238"/>
<path d="M736.34 534.93V549.497H728.16L736.34 534.93Z" fill="#263238"/>
<path opacity="0.4" d="M669.069 460.669H708.433C709.3 460.669 710.153 460.441 710.904 460.008C711.656 459.574 712.28 458.951 712.714 458.2C713.148 457.448 713.377 456.596 713.377 455.728C713.377 454.861 713.149 454.008 712.715 453.257L693.024 419.164C692.593 418.411 691.971 417.785 691.221 417.35C690.471 416.915 689.618 416.686 688.751 416.686C687.883 416.686 687.031 416.915 686.281 417.35C685.531 417.785 684.909 418.411 684.478 419.164L664.787 453.257C664.353 454.008 664.125 454.861 664.125 455.728C664.125 456.596 664.354 457.448 664.788 458.2C665.222 458.951 665.846 459.574 666.598 460.008C667.349 460.441 668.202 460.669 669.069 460.669ZM691.395 428.461L690.535 445.443H686.875L685.978 428.461H691.395ZM685.905 451.281C685.9 450.908 685.971 450.538 686.113 450.193C686.256 449.848 686.467 449.536 686.734 449.276C687.002 449.016 687.319 448.812 687.667 448.679C688.016 448.545 688.387 448.484 688.76 448.499C689.141 448.474 689.524 448.527 689.884 448.656C690.243 448.784 690.573 448.985 690.853 449.245C691.132 449.506 691.355 449.821 691.508 450.171C691.661 450.521 691.741 450.899 691.743 451.281C691.743 451.663 691.666 452.041 691.517 452.392C691.368 452.744 691.149 453.061 690.874 453.326C690.599 453.591 690.273 453.798 689.916 453.934C689.559 454.07 689.178 454.132 688.797 454.117C688.413 454.14 688.029 454.083 687.668 453.95C687.308 453.817 686.979 453.611 686.702 453.344C686.425 453.078 686.207 452.757 686.06 452.402C685.914 452.047 685.842 451.665 685.85 451.281H685.905Z" fill="white"/>
<path opacity="0.4" d="M400.772 460.669H440.135C441.001 460.666 441.851 460.436 442.6 460.001C443.349 459.566 443.971 458.942 444.403 458.192C444.835 457.441 445.062 456.59 445.061 455.724C445.06 454.858 444.832 454.007 444.399 453.257L424.726 419.164C424.296 418.411 423.674 417.785 422.923 417.35C422.173 416.915 421.321 416.686 420.453 416.686C419.586 416.686 418.734 416.915 417.983 417.35C417.233 417.785 416.611 418.411 416.18 419.164L396.489 453.257C396.056 454.008 395.827 454.861 395.827 455.728C395.828 456.596 396.056 457.448 396.49 458.2C396.924 458.951 397.548 459.574 398.3 460.008C399.052 460.441 399.904 460.669 400.772 460.669ZM423.098 428.461L422.219 445.443H418.559L417.663 428.461H423.098ZM417.608 451.281C417.602 450.908 417.673 450.538 417.816 450.193C417.958 449.848 418.17 449.536 418.437 449.276C418.704 449.016 419.021 448.812 419.37 448.679C419.718 448.545 420.09 448.484 420.462 448.499C420.841 448.479 421.219 448.536 421.575 448.667C421.93 448.798 422.256 448.999 422.531 449.259C422.806 449.519 423.026 449.833 423.177 450.18C423.328 450.527 423.407 450.902 423.409 451.281C423.409 451.663 423.332 452.041 423.183 452.392C423.034 452.744 422.815 453.061 422.54 453.326C422.264 453.591 421.939 453.798 421.582 453.934C421.225 454.07 420.844 454.132 420.462 454.117C420.086 454.127 419.712 454.061 419.363 453.922C419.013 453.783 418.695 453.575 418.428 453.31C418.161 453.045 417.951 452.728 417.81 452.379C417.669 452.031 417.6 451.657 417.608 451.281Z" fill="white"/>
<path opacity="0.1" d="M410.782 311.102C461.034 361.445 590.123 473.478 736.34 465.207V311.102H410.782Z" fill="white"/>
<path opacity="0.1" d="M372.901 403.664V552.297H591.715C583.315 522.267 566.552 481.165 534.015 451.793C475.473 398.942 407.543 399.089 372.901 403.664Z" fill="white"/>
<path d="M684.423 651.484L690.938 654.339C689.586 655.655 687.886 656.558 686.039 656.944C684.192 657.329 682.273 657.181 680.507 656.516C678.484 655.603 676.862 653.986 675.943 651.966C675.024 649.946 674.871 647.661 675.511 645.536C675.912 644.045 676.739 642.703 677.89 641.675L660.176 596.419C653.807 596.675 651.117 590.709 651.263 586.61L657.742 589.483C658.108 589.678 658.51 589.794 658.923 589.826C659.336 589.857 659.751 589.803 660.142 589.666C660.533 589.529 660.891 589.313 661.195 589.031C661.498 588.749 661.74 588.407 661.905 588.027C662.069 587.646 662.154 587.236 662.152 586.822C662.15 586.408 662.063 585.998 661.896 585.619C661.728 585.24 661.484 584.9 661.178 584.62C660.873 584.341 660.513 584.127 660.121 583.993L653.606 581.138C654.957 579.82 656.656 578.915 658.504 578.53C660.352 578.144 662.271 578.293 664.037 578.961C666.072 579.845 667.721 581.431 668.685 583.429C669.649 585.428 669.863 587.706 669.289 589.849C668.987 591.289 668.245 592.6 667.166 593.601L684.881 638.875C689.84 639.149 693.683 644.676 693.537 648.775L686.93 645.994C686.187 645.673 685.348 645.659 684.594 645.954C683.84 646.248 683.233 646.828 682.904 647.568C682.6 648.29 682.588 649.102 682.871 649.833C683.155 650.564 683.711 651.156 684.423 651.484Z" fill="#FF6E59"/>
<path opacity="0.2" d="M684.423 651.484L690.938 654.339C689.586 655.655 687.886 656.558 686.039 656.944C684.192 657.329 682.273 657.181 680.507 656.516C678.484 655.603 676.862 653.986 675.943 651.966C675.024 649.946 674.871 647.661 675.511 645.536C675.912 644.045 676.739 642.703 677.89 641.675L660.176 596.419C653.807 596.675 651.117 590.709 651.263 586.61L657.742 589.483C658.108 589.678 658.51 589.794 658.923 589.826C659.336 589.857 659.751 589.803 660.142 589.666C660.533 589.529 660.891 589.313 661.195 589.031C661.498 588.749 661.74 588.407 661.905 588.027C662.069 587.646 662.154 587.236 662.152 586.822C662.15 586.408 662.063 585.998 661.896 585.619C661.728 585.24 661.484 584.9 661.178 584.62C660.873 584.341 660.513 584.127 660.121 583.993L653.606 581.138C654.957 579.82 656.656 578.915 658.504 578.53C660.352 578.144 662.271 578.293 664.037 578.961C666.072 579.845 667.721 581.431 668.685 583.429C669.649 585.428 669.863 587.706 669.289 589.849C668.987 591.289 668.245 592.6 667.166 593.601L684.881 638.875C689.84 639.149 693.683 644.676 693.537 648.775L686.93 645.994C686.187 645.673 685.348 645.659 684.594 645.954C683.84 646.248 683.233 646.828 682.904 647.568C682.6 648.29 682.588 649.102 682.871 649.833C683.155 650.564 683.711 651.156 684.423 651.484Z" fill="white"/>
<path d="M633.897 611.479L626.998 613.2C627.26 611.33 628.053 609.574 629.282 608.141C630.511 606.707 632.125 605.656 633.933 605.111C636.095 604.598 638.37 604.888 640.333 605.929C642.296 606.969 643.814 608.688 644.602 610.766C645.194 612.195 645.353 613.767 645.06 615.286L686.711 640.339C691.597 636.239 697.361 639.332 699.759 642.663L692.878 644.346C692.491 644.438 692.126 644.607 691.805 644.841C691.484 645.076 691.214 645.373 691.009 645.714C690.804 646.055 690.67 646.433 690.614 646.827C690.558 647.221 690.581 647.622 690.682 648.006C690.88 648.779 691.377 649.442 692.063 649.85C692.748 650.258 693.568 650.378 694.342 650.184L701.259 648.464C700.997 650.334 700.204 652.09 698.975 653.523C697.746 654.957 696.132 656.008 694.324 656.553C692.162 657.091 689.878 656.833 687.892 655.825C685.905 654.816 684.349 653.126 683.508 651.062C682.878 649.736 682.661 648.25 682.886 646.799L641.253 621.727C637.136 624.546 630.731 622.514 628.352 619.165L635.306 617.335C636.079 617.132 636.743 616.637 637.159 615.955C637.575 615.273 637.711 614.456 637.538 613.675C637.344 612.903 636.852 612.239 636.17 611.828C635.488 611.416 634.671 611.291 633.897 611.479Z" fill="#FF6E59"/>
<path opacity="0.2" d="M633.897 611.479L626.998 613.2C627.26 611.33 628.053 609.574 629.282 608.141C630.511 606.707 632.125 605.656 633.933 605.111C636.095 604.598 638.37 604.888 640.333 605.929C642.296 606.969 643.814 608.688 644.602 610.766C645.194 612.195 645.353 613.767 645.06 615.286L686.711 640.339C691.597 636.239 697.361 639.332 699.759 642.663L692.878 644.346C692.491 644.438 692.126 644.607 691.805 644.841C691.484 645.076 691.214 645.373 691.009 645.714C690.804 646.055 690.67 646.433 690.614 646.827C690.558 647.221 690.581 647.622 690.682 648.006C690.88 648.779 691.377 649.442 692.063 649.85C692.748 650.258 693.568 650.378 694.342 650.184L701.259 648.464C700.997 650.334 700.204 652.09 698.975 653.523C697.746 654.957 696.132 656.008 694.324 656.553C692.162 657.091 689.878 656.833 687.892 655.825C685.905 654.816 684.349 653.126 683.508 651.062C682.878 649.736 682.661 648.25 682.886 646.799L641.253 621.727C637.136 624.546 630.731 622.514 628.352 619.165L635.306 617.335C636.079 617.132 636.743 616.637 637.159 615.955C637.575 615.273 637.711 614.456 637.538 613.675C637.344 612.903 636.852 612.239 636.17 611.828C635.488 611.416 634.671 611.291 633.897 611.479Z" fill="white"/>
<path d="M773.892 590.654L774.002 590.361H709.641L694.543 630.237H758.63L758.593 630.347H763.882L777.461 594.79L773.892 590.654Z" fill="#263238"/>
<path opacity="0.2" d="M773.892 590.654L774.002 590.361H709.641L694.543 630.237H758.63L758.593 630.347H763.882L777.461 594.79L773.892 590.654Z" fill="white"/>
<path opacity="0.4" d="M774.002 590.361L758.904 630.237H694.543L709.641 590.361H774.002Z" fill="black"/>
<path d="M662.28 618.27L677.177 637.411L682.52 636.606L666.8 618.27H662.28Z" fill="#263238"/>
<path opacity="0.1" d="M662.28 618.27L677.177 637.411L682.52 636.606L666.8 618.27H662.28Z" fill="white"/>
<path d="M666.8 600.17L681.697 619.312L687.04 618.507L671.32 600.17H666.8Z" fill="#263238"/>
<path opacity="0.1" d="M666.8 600.17L681.697 619.312L687.04 618.507L671.32 600.17H666.8Z" fill="white"/>
<path d="M647.603 662.738H758.904V630.237H647.603V662.738Z" fill="#263238"/>
<path opacity="0.2" d="M647.603 662.738H758.904V630.237H647.603V662.738Z" fill="white"/>
<path d="M659.681 620.301H761.924V615.158H659.681V620.301Z" fill="#263238"/>
<path opacity="0.2" d="M659.681 620.301H761.924V615.158H659.681V620.301Z" fill="white"/>
<path opacity="0.2" d="M722.671 620.301H761.924V615.158H722.671V620.301Z" fill="black"/>
<path d="M665.721 605.186H767.963V600.043H665.721V605.186Z" fill="#263238"/>
<path opacity="0.2" d="M665.721 605.186H767.963V600.043H665.721V605.186Z" fill="white"/>
<path opacity="0.2" d="M728.709 605.186H767.963V600.043H728.709V605.186Z" fill="black"/>
<path opacity="0.2" d="M715.131 662.738H758.905V630.237H715.131V662.738Z" fill="black"/>
<path d="M450.6 432.96V441.36C450.6 442.2 450.807 442.847 451.22 443.3C451.633 443.753 452.24 443.98 453.04 443.98C453.84 443.98 454.453 443.753 454.88 443.3C455.307 442.847 455.52 442.2 455.52 441.36V432.96H458.94V441.34C458.94 442.593 458.673 443.653 458.14 444.52C457.607 445.387 456.887 446.04 455.98 446.48C455.087 446.92 454.087 447.14 452.98 447.14C451.873 447.14 450.88 446.927 450 446.5C449.133 446.06 448.447 445.407 447.94 444.54C447.433 443.66 447.18 442.593 447.18 441.34V432.96H450.6ZM473.902 447H470.482L464.762 438.34V447H461.342V432.96H464.762L470.482 441.66V432.96H473.902V447ZM481.641 432.96C483.121 432.96 484.414 433.253 485.521 433.84C486.627 434.427 487.481 435.253 488.081 436.32C488.694 437.373 489.001 438.593 489.001 439.98C489.001 441.353 488.694 442.573 488.081 443.64C487.481 444.707 486.621 445.533 485.501 446.12C484.394 446.707 483.107 447 481.641 447H476.381V432.96H481.641ZM481.421 444.04C482.714 444.04 483.721 443.687 484.441 442.98C485.161 442.273 485.521 441.273 485.521 439.98C485.521 438.687 485.161 437.68 484.441 436.96C483.721 436.24 482.714 435.88 481.421 435.88H479.801V444.04H481.421ZM494.332 435.7V438.54H498.912V441.18H494.332V444.26H499.512V447H490.912V432.96H499.512V435.7H494.332ZM508.892 447L505.972 441.7H505.152V447H501.732V432.96H507.472C508.579 432.96 509.519 433.153 510.292 433.54C511.079 433.927 511.666 434.46 512.052 435.14C512.439 435.807 512.632 436.553 512.632 437.38C512.632 438.313 512.366 439.147 511.832 439.88C511.312 440.613 510.539 441.133 509.512 441.44L512.752 447H508.892ZM505.152 439.28H507.272C507.899 439.28 508.366 439.127 508.672 438.82C508.992 438.513 509.152 438.08 509.152 437.52C509.152 436.987 508.992 436.567 508.672 436.26C508.366 435.953 507.899 435.8 507.272 435.8H505.152V439.28ZM534.917 432.96V447H531.497V438.58L528.357 447H525.597L522.437 438.56V447H519.017V432.96H523.057L526.997 442.68L530.897 432.96H534.917ZM546.117 444.52H540.877L540.037 447H536.457L541.537 432.96H545.497L550.577 447H546.957L546.117 444.52ZM545.237 441.88L543.497 436.74L541.777 441.88H545.237ZM555.543 432.96V447H552.123V432.96H555.543ZM570.581 447H567.161L561.441 438.34V447H558.021V432.96H561.441L567.161 441.66V432.96H570.581V447ZM583.16 432.96V435.7H579.44V447H576.02V435.7H572.3V432.96H583.16ZM588.297 435.7V438.54H592.877V441.18H588.297V444.26H593.477V447H584.877V432.96H593.477V435.7H588.297ZM608.257 447H604.837L599.117 438.34V447H595.697V432.96H599.117L604.837 441.66V432.96H608.257V447ZM619.476 444.52H614.236L613.396 447H609.816L614.896 432.96H618.856L623.936 447H620.316L619.476 444.52ZM618.596 441.88L616.856 436.74L615.136 441.88H618.596ZM638.042 447H634.622L628.902 438.34V447H625.482V432.96H628.902L634.622 441.66V432.96H638.042V447ZM639.941 439.96C639.941 438.573 640.241 437.34 640.841 436.26C641.441 435.167 642.275 434.32 643.341 433.72C644.421 433.107 645.641 432.8 647.001 432.8C648.668 432.8 650.095 433.24 651.281 434.12C652.468 435 653.261 436.2 653.661 437.72H649.901C649.621 437.133 649.221 436.687 648.701 436.38C648.195 436.073 647.615 435.92 646.961 435.92C645.908 435.92 645.055 436.287 644.401 437.02C643.748 437.753 643.421 438.733 643.421 439.96C643.421 441.187 643.748 442.167 644.401 442.9C645.055 443.633 645.908 444 646.961 444C647.615 444 648.195 443.847 648.701 443.54C649.221 443.233 649.621 442.787 649.901 442.2H653.661C653.261 443.72 652.468 444.92 651.281 445.8C650.095 446.667 648.668 447.1 647.001 447.1C645.641 447.1 644.421 446.8 643.341 446.2C642.275 445.587 641.441 444.74 640.841 443.66C640.241 442.58 639.941 441.347 639.941 439.96ZM659.176 435.7V438.54H663.756V441.18H659.176V444.26H664.356V447H655.756V432.96H664.356V435.7H659.176Z" fill="white"/>
</svg>
