<svg width="20" height="20" viewBox="0 0 20 20" fill="none" xmlns="http://www.w3.org/2000/svg">
<path d="M18.3333 18.9583H4.16666C2.44166 18.9583 1.04166 17.5583 1.04166 15.8333V1.66663C1.04166 1.32496 1.32499 1.04163 1.66666 1.04163C2.00832 1.04163 2.29166 1.32496 2.29166 1.66663V15.8333C2.29166 16.8666 3.13332 17.7083 4.16666 17.7083H18.3333C18.675 17.7083 18.9583 17.9916 18.9583 18.3333C18.9583 18.675 18.675 18.9583 18.3333 18.9583Z" fill="#E6E6E6"/>
<path d="M5.41251 7.5C4.72314 7.5 4.16666 6.94167 4.16666 6.25C4.16666 5.55833 4.72314 5 5.41251 5H5.4208C6.11017 5 6.66666 5.55833 6.66666 6.25C6.66666 6.94167 6.10189 7.5 5.41251 7.5Z" fill="#E6E6E6"/>
<path d="M12.9125 16.6666C12.2231 16.6666 11.6667 16.1083 11.6667 15.4166C11.6667 14.725 12.2231 14.1666 12.9125 14.1666H12.9208C13.6102 14.1666 14.1667 14.725 14.1667 15.4166C14.1667 16.1083 13.6019 16.6666 12.9125 16.6666Z" fill="#E6E6E6"/>
<path d="M8.33057 11.6667C7.87099 11.6667 7.5 11.2944 7.5 10.8333C7.5 10.3722 7.87099 10 8.33057 10H8.3361C8.79568 10 9.16667 10.3722 9.16667 10.8333C9.16667 11.2944 8.79015 11.6667 8.33057 11.6667Z" fill="#E6E6E6"/>
<path d="M15.8306 7.50004C15.371 7.50004 15 7.12782 15 6.66671C15 6.2056 15.371 5.83337 15.8306 5.83337H15.8361C16.2957 5.83337 16.6667 6.2056 16.6667 6.66671C16.6667 7.12782 16.2902 7.50004 15.8306 7.50004Z" fill="#E6E6E6"/>
<path d="M5.4139 15.8333C5.18764 15.8333 5 15.6444 5 15.4167C5 15.1889 5.18212 15 5.4139 15H5.41943C5.6457 15 5.83333 15.1889 5.83333 15.4167C5.83333 15.6444 5.64569 15.8333 5.4139 15.8333Z" fill="#E6E6E6"/>
<path d="M12.9139 9.99996C12.6876 9.99996 12.5 9.81107 12.5 9.58329C12.5 9.35551 12.6821 9.16663 12.9139 9.16663H12.9194C13.1457 9.16663 13.3333 9.35551 13.3333 9.58329C13.3333 9.81107 13.1457 9.99996 12.9139 9.99996Z" fill="#E6E6E6"/>
<path d="M7.9139 4.16671C7.68764 4.16671 7.5 3.97782 7.5 3.75004C7.5 3.52226 7.68212 3.33337 7.9139 3.33337H7.91943C8.1457 3.33337 8.33333 3.52226 8.33333 3.75004C8.33333 3.97782 8.14569 4.16671 7.9139 4.16671Z" fill="#E6E6E6"/>
</svg>
