<svg width="34" height="34" viewBox="0 0 34 34" fill="none" xmlns="http://www.w3.org/2000/svg">
<rect width="34" height="34" rx="3" fill="#F6F8F9"/>
<path d="M13.8217 20.0361C13.917 18.4142 15.3976 17.2329 17.0002 17.5C18.847 17.2361 20.4993 18.6692 20.4992 20.5347L20.4989 25.5114H13.4998L13.8217 20.0361Z" fill="#99D1FF"/>
<path d="M9 15L17 8L25 15L25 25H20V21C20 20.2044 19.6839 19.4413 19.1213 18.8787C18.5587 18.3161 17.7957 18 17 18C16.2044 18 15.4413 18.3161 14.8787 18.8787C14.3161 19.4413 14 20.2043 14 21V25H9L9 15Z" stroke="#001A72" stroke-width="1.5" stroke-linecap="round" stroke-linejoin="round"/>
</svg>
