<svg width="20" height="20" viewBox="0 0 20 20" fill="none" xmlns="http://www.w3.org/2000/svg">
<path fill-rule="evenodd" clip-rule="evenodd" d="M1.17141 11.5252C1.10222 11.123 1.0599 10.7117 1.04639 10.2932L2.32052 10.6699C2.35469 11.0648 2.41875 11.4512 2.51043 11.8269L1.17141 11.5252ZM1.55255 12.9852C1.70078 13.4037 1.87928 13.8081 2.08539 14.1955L3.53947 14.2004C3.31059 13.8496 3.1095 13.4791 2.93932 13.0921L1.55255 12.9852ZM3.88601 16.5433C3.53824 16.2182 3.21634 15.8657 2.92377 15.4893L4.40197 15.2936C4.71007 15.6192 5.0462 15.9181 5.40644 16.1863L3.88601 16.5433ZM5.17351 17.5451C6.56713 18.4394 8.22381 18.9583 10 18.9583C14.9417 18.9583 18.9583 14.9416 18.9583 9.99996C18.9583 5.05829 14.9417 1.04163 10 1.04163C8.53226 1.04163 7.14612 1.39596 5.92259 2.02363L6.23546 3.27512C7.34945 2.64898 8.63382 2.29163 10 2.29163C14.25 2.29163 17.7083 5.74996 17.7083 9.99996C17.7083 14.25 14.25 17.7083 10 17.7083C8.80559 17.7083 7.67371 17.4351 6.66355 16.948L6.70498 17.0079L5.17351 17.5451ZM2.50461 8.19702C2.40735 8.60126 2.34205 9.0178 2.31152 9.4438L1.11781 8.82864C1.17771 8.37142 1.27219 7.92498 1.39853 7.49201L2.50461 8.19702ZM1.94265 6.08451L2.88684 7.03008C3.08609 6.55471 3.33165 6.10337 3.61787 5.68175L2.8076 4.66335C2.47739 5.10734 2.18727 5.58286 1.94265 6.08451ZM5.28595 3.90519C4.95784 4.15956 4.65074 4.43979 4.36772 4.7428L3.78687 3.55069C4.07872 3.26944 4.38956 3.00777 4.71726 2.76781L5.28595 3.90519Z" fill="#E6E6E6"/>
<path d="M13.0917 13.275C12.9833 13.275 12.875 13.25 12.775 13.1833L10.1917 11.6416C9.55 11.2583 9.075 10.4166 9.075 9.67497V6.2583C9.075 5.91663 9.35833 5.6333 9.7 5.6333C10.0417 5.6333 10.325 5.91663 10.325 6.2583V9.67497C10.325 9.97497 10.575 10.4166 10.8333 10.5666L13.4167 12.1083C13.7167 12.2833 13.8083 12.6666 13.6333 12.9666C13.5083 13.1666 13.3 13.275 13.0917 13.275Z" fill="#E6E6E6"/>
</svg>
