<svg width="24" height="24" viewBox="0 0 24 24" fill="none" xmlns="http://www.w3.org/2000/svg">
<path d="M19.4596 22.75C19.0896 22.75 18.7263 22.5481 18.5281 22.1861L18.4819 22.1095C18.4092 21.9772 18.3498 21.9424 18.3365 21.9354C18.3299 21.9354 18.2639 21.9772 18.1912 22.1095L18.1516 22.1791C17.8477 22.7291 17.1805 22.9101 16.6718 22.5899L16.0773 22.2278C15.8064 22.0677 15.6148 21.8031 15.5355 21.4829C15.4563 21.1695 15.4959 20.8354 15.6479 20.5569C15.7205 20.4246 15.7205 20.348 15.7139 20.3341C15.7073 20.3271 15.6479 20.2923 15.5025 20.2923C14.8617 20.2923 14.3398 19.7423 14.3398 19.0739V18.4264C14.3398 17.751 14.8617 17.208 15.4959 17.208C15.6412 17.208 15.7007 17.1662 15.7139 17.1592C15.7139 17.1523 15.7139 17.0757 15.6412 16.9434C15.4893 16.6579 15.4431 16.3307 15.5289 16.0174C15.6082 15.7041 15.7998 15.4395 16.0706 15.2724L16.6718 14.9034C17.1739 14.5901 17.8411 14.7711 18.1384 15.3142L18.178 15.3908C18.2507 15.5231 18.3101 15.5579 18.3233 15.5649C18.3299 15.5649 18.396 15.5231 18.4687 15.3908L18.5083 15.3212C18.8188 14.7711 19.4794 14.5901 19.9881 14.9104L20.6024 15.2655C20.8733 15.4256 21.0649 15.6902 21.1441 16.0104C21.2234 16.3238 21.1838 16.6579 21.0318 16.9364C20.9592 17.0687 20.9592 17.1453 20.9658 17.1592C20.9724 17.1662 21.0318 17.201 21.1772 17.201C21.818 17.201 22.3398 17.751 22.3398 18.4194V19.0669C22.3398 19.7423 21.818 20.2853 21.1838 20.2853C21.0384 20.2853 20.979 20.3271 20.9658 20.3341C20.9658 20.341 20.9658 20.4176 21.0384 20.5499C21.1904 20.8354 21.2366 21.1626 21.1507 21.4759C21.0715 21.7892 20.8799 22.0538 20.609 22.2209L20.0079 22.5899C19.8295 22.6943 19.6446 22.75 19.4596 22.75ZM18.3431 20.8911C18.7395 20.8911 19.1028 21.1417 19.3473 21.5873L19.3869 21.6639C19.4067 21.6987 19.4596 21.7196 19.4992 21.6917L20.107 21.3227C20.1598 21.2949 20.1796 21.2392 20.1863 21.2113C20.1929 21.1835 20.1995 21.1347 20.173 21.079C19.9286 20.6404 19.9088 20.1809 20.107 19.8189C20.3052 19.4568 20.6949 19.2479 21.1772 19.2479C21.2697 19.2479 21.3489 19.1644 21.3489 19.0739V18.4264C21.3489 18.3289 21.2697 18.2523 21.1838 18.2523C20.7015 18.2523 20.3052 18.0435 20.1136 17.6814C19.9154 17.3194 19.9418 16.8599 20.1796 16.4212C20.2127 16.3655 20.2061 16.3098 20.1929 16.2889C20.1863 16.2611 20.1664 16.2124 20.1136 16.1775L19.5124 15.8085C19.4662 15.7807 19.4133 15.8016 19.3869 15.8434L19.3539 15.906C19.1095 16.3516 18.7461 16.6022 18.3498 16.6022C17.9534 16.6022 17.5901 16.3516 17.3456 15.906L17.306 15.8364C17.2862 15.7946 17.2267 15.7807 17.1937 15.8016L16.5859 16.1706C16.5331 16.1984 16.5133 16.2541 16.5066 16.282C16.5 16.3098 16.4934 16.3586 16.5199 16.4143C16.7643 16.8529 16.7841 17.3124 16.5859 17.6744C16.3877 18.0365 15.998 18.2454 15.5157 18.2454C15.4232 18.2454 15.344 18.3289 15.344 18.4194V19.0669C15.344 19.1644 15.4232 19.241 15.5091 19.241C15.9914 19.241 16.3877 19.4498 16.5793 19.8119C16.7775 20.1739 16.7511 20.6334 16.5133 21.0721C16.4868 21.1278 16.4934 21.1765 16.5 21.2044C16.5066 21.2322 16.5265 21.2809 16.5793 21.3158L17.1805 21.6848C17.2267 21.7126 17.2796 21.6917 17.306 21.6499L17.339 21.5803C17.5768 21.1417 17.9468 20.8911 18.3431 20.8911Z" fill="#001A72"/>
<circle cx="10.5" cy="7.5" r="3.5" fill="#99D1FF"/>
<circle cx="18.3398" cy="18.75" r="0.75" stroke="#001A72" stroke-width="0.5"/>
<path d="M11.3398 12.5C8.16984 12.5 5.58984 9.92 5.58984 6.75C5.58984 3.58 8.16984 1 11.3398 1C14.5098 1 17.0898 3.58 17.0898 6.75C17.0898 9.92 14.5098 12.5 11.3398 12.5ZM11.3398 2.5C8.99984 2.5 7.08984 4.41 7.08984 6.75C7.08984 9.09 8.99984 11 11.3398 11C13.6798 11 15.5898 9.09 15.5898 6.75C15.5898 4.41 13.6798 2.5 11.3398 2.5Z" fill="#001A72"/>
<path d="M2.75 22.5C2.34 22.5 2 22.16 2 21.75C2 17.48 6.19003 14 11.34 14C12.43 14 13.51 14.16 14.52 14.46C14.92 14.58 15.14 15 15.02 15.39C14.9 15.79 14.48 16.01 14.09 15.89C13.21 15.63 12.29 15.49 11.34 15.49C7.02003 15.49 3.5 18.29 3.5 21.74C3.5 22.16 3.16 22.5 2.75 22.5Z" fill="#001A72"/>
</svg>
