<svg width="34" height="34" viewBox="0 0 34 34" fill="none" xmlns="http://www.w3.org/2000/svg">
<rect width="34" height="34" rx="3" fill="#F6F8F9"/>
<path d="M24.4596 27.75C24.0896 27.75 23.7263 27.5481 23.5281 27.1861L23.4819 27.1095C23.4092 26.9772 23.3498 26.9424 23.3365 26.9354C23.3299 26.9354 23.2639 26.9772 23.1912 27.1095L23.1516 27.1791C22.8477 27.7291 22.1805 27.9101 21.6718 27.5899L21.0773 27.2278C20.8064 27.0677 20.6148 26.8031 20.5355 26.4829C20.4563 26.1695 20.4959 25.8354 20.6479 25.5569C20.7205 25.4246 20.7205 25.348 20.7139 25.3341C20.7073 25.3271 20.6479 25.2923 20.5025 25.2923C19.8617 25.2923 19.3398 24.7423 19.3398 24.0739V23.4264C19.3398 22.751 19.8617 22.208 20.4959 22.208C20.6412 22.208 20.7007 22.1662 20.7139 22.1592C20.7139 22.1523 20.7139 22.0757 20.6412 21.9434C20.4893 21.6579 20.4431 21.3307 20.5289 21.0174C20.6082 20.7041 20.7998 20.4395 21.0706 20.2724L21.6718 19.9034C22.1739 19.5901 22.8411 19.7711 23.1384 20.3142L23.178 20.3908C23.2507 20.5231 23.3101 20.5579 23.3233 20.5649C23.3299 20.5649 23.396 20.5231 23.4687 20.3908L23.5083 20.3212C23.8188 19.7711 24.4794 19.5901 24.9881 19.9104L25.6024 20.2655C25.8733 20.4256 26.0649 20.6902 26.1441 21.0104C26.2234 21.3238 26.1838 21.6579 26.0318 21.9364C25.9592 22.0687 25.9592 22.1453 25.9658 22.1592C25.9724 22.1662 26.0318 22.201 26.1772 22.201C26.818 22.201 27.3398 22.751 27.3398 23.4194V24.0669C27.3398 24.7423 26.818 25.2853 26.1838 25.2853C26.0384 25.2853 25.979 25.3271 25.9658 25.3341C25.9658 25.341 25.9658 25.4176 26.0384 25.5499C26.1904 25.8354 26.2366 26.1626 26.1507 26.4759C26.0715 26.7892 25.8799 27.0538 25.609 27.2209L25.0079 27.5899C24.8295 27.6943 24.6446 27.75 24.4596 27.75ZM23.3431 25.8911C23.7395 25.8911 24.1028 26.1417 24.3473 26.5873L24.3869 26.6639C24.4067 26.6987 24.4596 26.7196 24.4992 26.6917L25.107 26.3227C25.1598 26.2949 25.1796 26.2392 25.1863 26.2113C25.1929 26.1835 25.1995 26.1347 25.173 26.079C24.9286 25.6404 24.9088 25.1809 25.107 24.8189C25.3052 24.4568 25.6949 24.2479 26.1772 24.2479C26.2697 24.2479 26.3489 24.1644 26.3489 24.0739V23.4264C26.3489 23.3289 26.2697 23.2523 26.1838 23.2523C25.7015 23.2523 25.3052 23.0435 25.1136 22.6814C24.9154 22.3194 24.9418 21.8599 25.1796 21.4212C25.2127 21.3655 25.2061 21.3098 25.1929 21.2889C25.1863 21.2611 25.1664 21.2124 25.1136 21.1775L24.5124 20.8085C24.4662 20.7807 24.4133 20.8016 24.3869 20.8434L24.3539 20.906C24.1095 21.3516 23.7461 21.6022 23.3498 21.6022C22.9534 21.6022 22.5901 21.3516 22.3456 20.906L22.306 20.8364C22.2862 20.7946 22.2267 20.7807 22.1937 20.8016L21.5859 21.1706C21.5331 21.1984 21.5133 21.2541 21.5066 21.282C21.5 21.3098 21.4934 21.3586 21.5199 21.4143C21.7643 21.8529 21.7841 22.3124 21.5859 22.6744C21.3877 23.0365 20.998 23.2454 20.5157 23.2454C20.4232 23.2454 20.344 23.3289 20.344 23.4194V24.0669C20.344 24.1644 20.4232 24.241 20.5091 24.241C20.9914 24.241 21.3877 24.4498 21.5793 24.8119C21.7775 25.1739 21.7511 25.6334 21.5133 26.0721C21.4868 26.1278 21.4934 26.1765 21.5 26.2044C21.5066 26.2322 21.5265 26.2809 21.5793 26.3158L22.1805 26.6848C22.2267 26.7126 22.2796 26.6917 22.306 26.6499L22.339 26.5803C22.5768 26.1417 22.9468 25.8911 23.3431 25.8911Z" fill="#001A72"/>
<circle cx="15.5" cy="12.5" r="3.5" fill="#99D1FF"/>
<circle cx="23.3398" cy="23.75" r="0.75" stroke="#001A72" stroke-width="0.5"/>
<path d="M16.3398 17.5C13.1698 17.5 10.5898 14.92 10.5898 11.75C10.5898 8.58 13.1698 6 16.3398 6C19.5098 6 22.0898 8.58 22.0898 11.75C22.0898 14.92 19.5098 17.5 16.3398 17.5ZM16.3398 7.5C13.9998 7.5 12.0898 9.41 12.0898 11.75C12.0898 14.09 13.9998 16 16.3398 16C18.6798 16 20.5898 14.09 20.5898 11.75C20.5898 9.41 18.6798 7.5 16.3398 7.5Z" fill="#001A72"/>
<path d="M7.75 27.5C7.34 27.5 7 27.16 7 26.75C7 22.48 11.19 19 16.34 19C17.43 19 18.51 19.16 19.52 19.46C19.92 19.58 20.14 20 20.02 20.39C19.9 20.79 19.48 21.01 19.09 20.89C18.21 20.63 17.29 20.49 16.34 20.49C12.02 20.49 8.5 23.29 8.5 26.74C8.5 27.16 8.16 27.5 7.75 27.5Z" fill="#001A72"/>
</svg>
