<svg width="188" height="126" viewBox="0 0 188 126" fill="none" xmlns="http://www.w3.org/2000/svg">
<g clip-path="url(#clip0_1838_9221)">
<path d="M162.156 59.9317C154.928 53.6794 146.214 15.9756 116.364 35.6131C100.942 45.7592 74.9369 26.9028 53.4124 33.4157C33.645 39.3968 31.7394 59.1033 33.6523 65.5241C37.5159 78.4953 25.4925 80.4253 14.3391 85.9983C-3.15644 94.7401 9.80939 125.788 26.3374 125.935C42.8654 126.082 142.867 125.935 142.867 125.935C142.867 125.935 166.906 125.378 176.891 111.94C187.636 97.479 180.825 76.0799 162.156 59.9317Z" fill="#EBF2F9"/>
<path d="M61.823 123.061C61.823 123.061 62.0463 126.702 62.7445 126.755C62.8376 126.762 66.2837 126.762 66.2837 126.762L70.6828 126.736C70.6828 126.736 70.6536 125.666 69.3684 125.44C68.0825 125.214 65.9302 124.301 65.1508 122.585C64.331 120.78 61.823 123.061 61.823 123.061Z" fill="#163560"/>
<path d="M60.2373 80.5699C60.2373 80.5699 62.1537 81.0669 63.3718 80.6966C64.5899 80.3262 66.6869 80.9347 67.0246 81.3831C67.3623 81.8316 67.2384 82.01 66.6357 82.1645C66.0329 82.319 63.898 83.2382 62.4953 82.7061C61.0926 82.1741 59.2622 82.1549 59.2622 82.1549L60.2366 80.5699H60.2373Z" fill="#E49963"/>
<path d="M43.6734 63.7626C43.6734 63.7626 45.8264 79.2112 49.3916 80.5947C51.151 81.2772 58.9252 82.8248 61.2242 82.9801C61.2242 82.9801 61.7875 82.5189 61.6502 80.6408C61.6502 80.6408 53.5052 77.6222 52.3478 75.9806C50.6255 73.537 53.4168 65.9991 51.2559 63.7037C49.095 61.409 45.4556 60.423 43.6726 63.7626H43.6734Z" fill="#4A75CB"/>
<path d="M43.9486 123.285V119.917H38.6958C38.5538 119.917 38.4378 119.8 38.4378 119.656V119.116C38.4378 118.973 38.5538 118.856 38.6958 118.856H43.9486V99.6832C43.9486 99.1455 44.3849 98.7051 44.9174 98.7051H45.9565C46.489 98.7051 46.9253 99.1455 46.9253 99.6832V118.856H52.1781C52.3201 118.856 52.436 118.973 52.436 119.116V119.656C52.436 119.8 52.3201 119.917 52.1781 119.917H46.9253V123.285C50.7256 123.575 53.7701 124.956 54.6246 126.741H36.2485C37.103 124.956 40.1475 123.575 43.9478 123.285H43.9486Z" fill="#A6C7F9"/>
<path d="M44.3993 96.3084C45.0273 97.3837 45.7539 98.392 46.5026 99.3462C48.8165 102.296 51.3356 104.727 51.7743 107.025C51.8619 107.483 51.9999 107.977 52.1814 108.496C52.3644 109.023 52.5908 109.576 52.8528 110.149C53.835 112.303 55.3032 114.715 56.7691 116.909C59.3039 120.7 61.6865 123.863 61.6865 123.863L66.0573 123.676C65.8821 123.233 63.9761 117.998 61.4262 111.601C60.3903 109.004 59.2897 106.241 58.227 103.577C58.0858 103.221 57.9438 102.867 57.8042 102.516C57.4791 101.701 57.1596 100.899 56.848 100.117C54.4535 94.1102 52.5467 89.3265 52.5467 89.3265C52.5467 89.3265 42.9768 85.6667 41.9827 88.0378C41.163 89.9932 41.8305 91.9087 44.4008 96.3084H44.3993Z" fill="#E58638"/>
<path d="M51.7017 112.659C51.7017 112.659 48.6619 114.632 48.9569 115.272C48.9964 115.357 50.676 118.395 50.676 118.395L52.8433 122.26C52.8433 122.26 53.7545 121.713 53.3237 120.469C52.8922 119.225 52.6326 116.883 53.7363 115.36C54.8977 113.758 51.7025 112.659 51.7025 112.659H51.7017Z" fill="#163560"/>
<path d="M55.8152 87.5886C55.8152 87.5886 67.8276 95.1424 69.1688 100.219C70.51 105.296 53.1896 116.126 53.1896 116.126C53.1896 116.126 51.2898 114.433 50.9545 113.192C50.9545 113.192 58.7839 103.723 60.4817 101.6C61.5247 100.296 45.0603 97.0874 43.0485 93.9285C41.0367 90.7697 41.757 88.1118 41.757 88.1118L55.8152 87.5878V87.5886Z" fill="#EE9849"/>
<path d="M33.1441 97.2889H57.7291C58.2222 97.2889 58.623 97.6935 58.623 98.1913V103.155C58.623 103.653 58.2222 104.057 57.7291 104.057H33.1441C32.651 104.057 32.2502 103.653 32.2502 103.155V98.1913C32.2502 97.6935 32.651 97.2889 33.1441 97.2889Z" fill="#1C468A"/>
<path d="M50.2601 61.1144C51.4403 61.8519 52.0904 62.7886 52.0904 62.7886C49.2124 63.5405 44.4417 60.8476 44.4417 60.8476C44.4417 60.8476 46.2941 59.5907 46.9805 56.8301C47.0152 56.6907 47.0467 56.5482 47.0751 56.4016C47.1651 55.9365 47.2211 55.4331 47.2306 54.8899L48.5528 56.0854L50.7508 58.0734C50.7508 58.0734 50.7011 58.8986 50.4258 60.3171C50.3776 60.5648 50.3232 60.8308 50.2601 61.1136V61.1144Z" fill="#E49963"/>
<path d="M41.4082 74.8202C41.82 80.417 41.1273 88.9266 41.5944 90.4009C41.9983 91.6729 46.7477 90.9202 48.5828 90.4949C49.2621 90.338 50.085 90.1134 50.9346 89.8482C53.3054 89.1074 55.8884 88.0489 56.1653 87.2636C56.1764 87.2325 56.1851 87.2023 56.1906 87.1736C56.2158 87.0597 56.2103 86.953 56.1858 86.8446C56.0935 86.444 55.7377 86.0107 55.6959 85.0199C55.6494 83.9128 55.6565 82.6097 55.6147 81.2079C55.6123 81.0502 55.6107 80.8782 55.5933 80.7205V80.6631C55.5918 80.6329 55.591 80.6034 55.5902 80.5731C55.5507 79.0097 55.4695 77.3665 55.3756 75.7361C55.3156 74.7126 55.247 73.6987 55.1673 72.727C54.9606 70.2197 54.6821 67.9903 54.3129 66.5806C53.7101 64.2827 52.3816 62.7838 51.1721 61.6854L50.2972 60.928C49.3213 61.143 48.167 61.0004 47.1233 60.501C45.9935 59.9594 45.603 59.5715 45.4065 59.7173C42.7975 61.7499 40.9206 67.9776 41.4074 74.8202H41.4082Z" fill="#739AF0"/>
<path d="M50.9212 89.8602C53.292 89.1194 55.875 88.0609 56.1519 87.2756C56.1629 87.2445 56.1716 87.2142 56.1771 87.1856C56.1756 87.0757 56.174 86.9657 56.1724 86.8566C56.0801 86.456 55.7243 86.0227 55.6825 85.0319C55.6359 83.9248 55.643 82.6217 55.6012 81.2199C55.5989 81.0622 55.5973 80.8902 55.5799 80.7325V80.6751C55.5783 80.6449 55.5776 80.6154 55.5768 80.5851L46.6223 76.4849C46.6223 76.4849 46.1063 83.7711 50.9204 89.861L50.9212 89.8602Z" fill="#4A75CB"/>
<path d="M50.751 58.0741C50.751 58.0741 50.7013 58.8993 50.426 60.3178C48.2793 59.6177 47.3057 57.66 46.9807 56.83C46.8884 56.5959 46.8481 56.4501 46.8481 56.4501C46.8481 56.4501 46.9318 56.4318 47.0754 56.4015C47.3767 56.337 47.9456 56.2152 48.553 56.0853L50.751 58.0733V58.0741Z" fill="#D68D5D"/>
<path d="M51.6195 58.0519C51.6195 58.0519 46.9032 58.5887 46.6176 55.6186C46.332 52.6485 45.5305 50.7179 48.5292 50.2487C51.528 49.7804 52.2231 50.8565 52.5576 51.8242C52.8921 52.7919 52.8392 57.8352 51.6195 58.0511V58.0519Z" fill="#E49963"/>
<path d="M46.6381 55.8241C46.6381 55.8241 46.9371 51.8815 51.2297 51.4729C54.1701 51.1934 52.5307 48.6383 52.2175 48.2305C52.2175 48.2305 49.965 48.5419 47.6558 48.9274C42.8093 49.7358 46.1623 55.2092 46.6381 55.8233V55.8241Z" fill="#2B478B"/>
<path d="M69.4643 84.4419L69.877 84.5773L73.3891 73.6648L72.9764 73.5294L69.4643 84.4419Z" fill="#4A75CB"/>
<path d="M57.9491 84.3234L69.8728 84.5797L69.888 83.8599L57.9643 83.6035L57.9491 84.3234Z" fill="#4A75CB"/>
<path d="M59.2512 82.9451C59.2512 82.9451 61.102 83.6523 62.3533 83.4198C63.6045 83.1872 65.6219 84.0251 65.909 84.5086C66.1954 84.992 66.0534 85.1553 65.4372 85.2421C64.8211 85.3289 62.5994 86.0052 61.263 85.3202C59.9265 84.6352 58.1104 84.4122 58.1104 84.4122L59.252 82.9451H59.2512Z" fill="#E49963"/>
<path d="M44.6233 64.3958C44.6233 64.3958 45.0761 79.9893 48.4686 81.7614C50.1419 82.636 57.7 85.039 59.969 85.4499C59.969 85.4499 60.5796 85.0541 60.6483 83.172C60.6483 83.172 52.8827 79.2653 51.9115 77.5043C50.467 74.8838 54.0646 67.702 52.1671 65.1811C50.2697 62.6595 46.7605 61.2744 44.6241 64.3958H44.6233Z" fill="#739AF0"/>
<path d="M149.384 100.64L87.8486 100.64C83.5567 100.64 80.0727 97.1229 80.0727 92.79L80.0727 7.85018C80.0727 3.51733 83.5567 6.10352e-05 87.8486 6.10352e-05L149.384 6.10352e-05C153.675 6.10352e-05 157.159 3.51733 157.159 7.85018V92.79C157.159 97.1221 153.675 100.64 149.384 100.64Z" fill="#D2E4FF"/>
<path d="M87.6465 90.4531L149.71 90.4531V10.5478L87.6465 10.5478V90.4531Z" fill="#F3F9FF"/>
<path d="M140.91 86.9453C139.101 86.9453 137.635 85.4654 137.635 83.6391V37.9323C137.635 36.1068 139.101 34.6261 140.91 34.6261C142.718 34.6261 144.185 36.106 144.185 37.9323V83.6391C144.185 85.4646 142.719 86.9453 140.91 86.9453Z" fill="#EE9849"/>
<path d="M130.18 86.9454C128.372 86.9454 126.905 85.4655 126.905 83.6392V23.3488C126.905 21.5233 128.371 20.0426 130.18 20.0426C131.988 20.0426 133.455 21.5225 133.455 23.3488V83.6392C133.455 85.4647 131.989 86.9454 130.18 86.9454Z" fill="#EE9849"/>
<path d="M118.473 86.9453C116.665 86.9453 115.198 85.4654 115.198 83.6391V50.5844C115.198 48.7589 116.664 47.2782 118.473 47.2782C120.281 47.2782 121.748 48.7581 121.748 50.5844V83.6391C121.748 85.4647 120.282 86.9453 118.473 86.9453Z" fill="#EE9849"/>
<path d="M107.081 86.9453C105.272 86.9453 103.806 85.4655 103.806 83.6391V32.2813C103.806 30.4558 105.272 28.9751 107.081 28.9751C108.889 28.9751 110.355 30.455 110.355 32.2813V83.6399C110.355 85.4655 108.89 86.9461 107.081 86.9461V86.9453Z" fill="#EE9849"/>
<path d="M98.904 58.3485V83.6392C98.904 85.4647 97.4382 86.9454 95.6291 86.9454C93.8209 86.9454 92.3542 85.4655 92.3542 83.6392V58.3485C92.3542 56.523 93.8201 55.0424 95.6291 55.0424C97.4374 55.0424 98.904 56.5222 98.904 58.3485Z" fill="#EE9849"/>
<path d="M104.117 24.8804H109.663C109.978 24.8804 110.236 25.1408 110.236 25.4594C110.236 25.778 109.978 26.0385 109.663 26.0385H104.117C103.801 26.0385 103.543 25.778 103.543 25.4594C103.543 25.1408 103.801 24.8804 104.117 24.8804Z" fill="#A6C7F9"/>
<path d="M108.4 26.9888H109.663C109.978 26.9888 110.236 27.2492 110.236 27.5678C110.236 27.8864 109.978 28.1469 109.663 28.1469H108.4C108.084 28.1469 107.826 27.8864 107.826 27.5678C107.826 27.2492 108.084 26.9888 108.4 26.9888Z" fill="#A6C7F9"/>
<path d="M126.972 15.9901H132.518C132.833 15.9901 133.091 16.2506 133.091 16.5692C133.091 16.8877 132.833 17.1482 132.518 17.1482H126.972C126.656 17.1482 126.398 16.8877 126.398 16.5692C126.398 16.2506 126.656 15.9901 126.972 15.9901Z" fill="#A6C7F9"/>
<path d="M131.255 18.0984H132.518C132.833 18.0984 133.091 18.3588 133.091 18.6774C133.091 18.996 132.833 19.2565 132.518 19.2565H131.255C130.939 19.2565 130.681 18.996 130.681 18.6774C130.681 18.3588 130.939 18.0984 131.255 18.0984Z" fill="#A6C7F9"/>
<path d="M138.064 30.5641H143.61C143.926 30.5641 144.184 30.8245 144.184 31.1431C144.184 31.4617 143.926 31.7222 143.61 31.7222H138.064C137.748 31.7222 137.49 31.4617 137.49 31.1431C137.49 30.8245 137.748 30.5641 138.064 30.5641Z" fill="#A6C7F9"/>
<path d="M142.347 32.6716H143.61C143.926 32.6716 144.184 32.9321 144.184 33.2507C144.184 33.5693 143.926 33.8297 143.61 33.8297H142.347C142.032 33.8297 141.774 33.5693 141.774 33.2507C141.774 32.9321 142.032 32.6716 142.347 32.6716Z" fill="#A6C7F9"/>
<path d="M115.7 43.2218H121.246C121.562 43.2218 121.82 43.4823 121.82 43.8008C121.82 44.1194 121.562 44.3799 121.246 44.3799H115.7C115.384 44.3799 115.126 44.1194 115.126 43.8008C115.126 43.4823 115.384 43.2218 115.7 43.2218Z" fill="#A6C7F9"/>
<path d="M119.983 45.3301H121.246C121.562 45.3301 121.82 45.5905 121.82 45.9091C121.82 46.2277 121.562 46.4882 121.246 46.4882H119.983C119.667 46.4882 119.409 46.2277 119.409 45.9091C119.409 45.5905 119.667 45.3301 119.983 45.3301Z" fill="#A6C7F9"/>
<path d="M92.856 50.9619H98.4023C98.7179 50.9619 98.9759 51.2224 98.9759 51.541C98.9759 51.8595 98.7179 52.12 98.4023 52.12H92.856C92.5405 52.12 92.2825 51.8595 92.2825 51.541C92.2825 51.2224 92.5405 50.9619 92.856 50.9619Z" fill="#A6C7F9"/>
<path d="M97.1392 53.0703H98.4023C98.7179 53.0703 98.9759 53.3308 98.9759 53.6494C98.9759 53.9679 98.7179 54.2284 98.4023 54.2284H97.1392C96.8237 54.2284 96.5657 53.9679 96.5657 53.6494C96.5657 53.3308 96.8237 53.0703 97.1392 53.0703Z" fill="#A6C7F9"/>
<path d="M95.6294 49.3141C94.5059 49.3141 93.5916 48.391 93.5916 47.2568C93.5916 46.1226 94.5059 45.1995 95.6294 45.1995C96.7528 45.1995 97.6672 46.1226 97.6672 47.2568C97.6672 48.391 96.7528 49.3141 95.6294 49.3141ZM95.6294 45.9951C94.9406 45.9951 94.3805 46.5606 94.3805 47.256C94.3805 47.9513 94.9406 48.5168 95.6294 48.5168C96.3181 48.5168 96.8783 47.9513 96.8783 47.256C96.8783 46.5606 96.3181 45.9951 95.6294 45.9951Z" fill="#2B478B"/>
<path d="M94.7614 45.996C94.6604 45.996 94.5595 45.957 94.4821 45.8797L88.3576 39.6966H38.5991C38.3813 39.6966 38.2046 39.5182 38.2046 39.2984C38.2046 39.0786 38.3813 38.9001 38.5991 38.9001H88.6842L95.0399 45.3166C95.1938 45.4719 95.1938 45.7244 95.0399 45.8797C94.9626 45.9578 94.8616 45.996 94.7614 45.996Z" fill="#2B478B"/>
<path d="M129.894 14.3971C128.77 14.3971 127.856 13.474 127.856 12.3398C127.856 11.2056 128.771 10.2825 129.894 10.2825C131.018 10.2825 131.932 11.2056 131.932 12.3398C131.932 13.474 131.018 14.3971 129.894 14.3971ZM129.894 11.0782C129.206 11.0782 128.645 11.6437 128.645 12.339C128.645 13.0343 129.206 13.5998 129.894 13.5998C130.583 13.5998 131.143 13.0343 131.143 12.339C131.143 11.6437 130.583 11.0782 129.894 11.0782Z" fill="#2B478B"/>
<path d="M129.027 11.079C128.926 11.079 128.825 11.04 128.747 10.9627L122.623 4.77963H72.8642C72.6464 4.77963 72.4697 4.60122 72.4697 4.38139C72.4697 4.16157 72.6464 3.98315 72.8642 3.98315H122.949L129.305 10.3996C129.459 10.5549 129.459 10.8074 129.305 10.9627C129.228 11.0408 129.127 11.079 129.026 11.079H129.027Z" fill="#2B478B"/>
<path d="M71.8536 37.9778H39.1646C38.6124 37.9778 38.165 37.5261 38.165 36.9686C38.165 36.4111 38.6124 35.9595 39.1646 35.9595H71.8536C72.4059 35.9595 72.8532 36.4111 72.8532 36.9686C72.8532 37.5261 72.4059 37.9778 71.8536 37.9778Z" fill="#739AF0"/>
<path d="M72.2508 35H47.7492C47.3353 35 47 34.5525 47 34C47 33.4475 47.3353 33 47.7492 33H72.2508C72.6647 33 73 33.4475 73 34C73 34.5525 72.6647 35 72.2508 35Z" fill="#739AF0"/>
<path d="M106.395 3H86.6051C86.2708 3 86 2.55249 86 2C86 1.44751 86.2708 1 86.6051 1H106.395C106.729 1 107 1.44751 107 2C107 2.55249 106.729 3 106.395 3Z" fill="#739AF0"/>
<path d="M180.153 126H15.689C15.5596 126 15.4531 125.892 15.4531 125.762C15.4531 125.631 15.5596 125.524 15.689 125.524H180.153C180.283 125.524 180.389 125.631 180.389 125.762C180.389 125.892 180.283 126 180.153 126Z" fill="#E9E9E9"/>
</g>
<defs>
<clipPath id="clip0_1838_9221">
<rect width="188" height="126" fill="white"/>
</clipPath>
</defs>
</svg>
