<svg width="16" height="16" viewBox="0 0 16 16" fill="none" xmlns="http://www.w3.org/2000/svg">
<path d="M7.86 7.92002C7.5 7.92002 7.13333 7.85335 6.84666 7.72669L2.91333 5.98002C1.91333 5.53335 1.76666 4.93335 1.76666 4.60669C1.76666 4.28002 1.91333 3.68002 2.91333 3.23335L6.84666 1.48669C7.42666 1.22669 8.3 1.22669 8.88 1.48669L12.82 3.23335C13.8133 3.67335 13.9667 4.28002 13.9667 4.60669C13.9667 4.93335 13.82 5.53335 12.82 5.98002L8.88 7.72669C8.58666 7.86002 8.22666 7.92002 7.86 7.92002ZM7.86 2.29335C7.63333 2.29335 7.41333 2.32669 7.25333 2.40002L3.32 4.14669C2.91333 4.33335 2.76666 4.52002 2.76666 4.60669C2.76666 4.69335 2.91333 4.88669 3.31333 5.06669L7.24666 6.81335C7.56666 6.95335 8.14666 6.95335 8.46666 6.81335L12.4067 5.06669C12.8133 4.88669 12.96 4.69335 12.96 4.60669C12.96 4.52002 12.8133 4.32669 12.4067 4.14669L8.47333 2.40002C8.31333 2.33335 8.08666 2.29335 7.86 2.29335Z" fill="#383637"/>
<path d="M8 11.3933C7.74667 11.3933 7.49333 11.34 7.25333 11.2333L2.72667 9.21998C2.04 8.91998 1.5 8.08665 1.5 7.33331C1.5 7.05998 1.72667 6.83331 2 6.83331C2.27333 6.83331 2.5 7.05998 2.5 7.33331C2.5 7.69998 2.8 8.15998 3.13333 8.31331L7.66 10.3266C7.87333 10.42 8.12 10.42 8.34 10.3266L12.8667 8.31331C13.2 8.16665 13.5 7.69998 13.5 7.33331C13.5 7.05998 13.7267 6.83331 14 6.83331C14.2733 6.83331 14.5 7.05998 14.5 7.33331C14.5 8.08665 13.96 8.91998 13.2733 9.22665L8.74667 11.24C8.50667 11.34 8.25333 11.3933 8 11.3933Z" fill="#383637"/>
<path d="M8 14.7266C7.74667 14.7266 7.49333 14.6733 7.25333 14.5666L2.72667 12.5533C1.98 12.22 1.5 11.48 1.5 10.66C1.5 10.3866 1.72667 10.16 2 10.16C2.27333 10.16 2.5 10.3933 2.5 10.6666C2.5 11.0866 2.74667 11.4733 3.13333 11.6466L7.66 13.66C7.87333 13.7533 8.12 13.7533 8.34 13.66L12.8667 11.6466C13.2533 11.4733 13.5 11.0933 13.5 10.6666C13.5 10.3933 13.7267 10.1666 14 10.1666C14.2733 10.1666 14.5 10.3933 14.5 10.6666C14.5 11.4866 14.02 12.2266 13.2733 12.56L8.74667 14.5733C8.50667 14.6733 8.25333 14.7266 8 14.7266Z" fill="#383637"/>
</svg>
