<svg width="20" height="20" viewBox="0 0 20 20" fill="none" xmlns="http://www.w3.org/2000/svg">
<path d="M9.99998 10.625C7.35831 10.625 5.20831 8.47496 5.20831 5.83329C5.20831 3.19163 7.35831 1.04163 9.99998 1.04163C12.6416 1.04163 14.7916 3.19163 14.7916 5.83329C14.7916 8.47496 12.6416 10.625 9.99998 10.625ZM9.99998 2.29163C8.04998 2.29163 6.45831 3.88329 6.45831 5.83329C6.45831 7.78329 8.04998 9.37496 9.99998 9.37496C11.95 9.37496 13.5416 7.78329 13.5416 5.83329C13.5416 3.88329 11.95 2.29163 9.99998 2.29163Z" fill="#E6E6E6"/>
<path d="M2.8418 18.9583C2.50013 18.9583 2.2168 18.675 2.2168 18.3333C2.2168 14.775 5.70849 11.875 10.0002 11.875C10.9085 11.875 11.8085 12.0084 12.6501 12.2584C12.9835 12.3584 13.1668 12.7083 13.0668 13.0333C12.9668 13.3667 12.6168 13.55 12.2918 13.45C11.5585 13.2333 10.7918 13.1167 10.0002 13.1167C6.40015 13.1167 3.4668 15.45 3.4668 18.325C3.4668 18.675 3.18346 18.9583 2.8418 18.9583Z" fill="#E6E6E6"/>
<path d="M10.6229 18.7499C10.4646 18.7499 10.3063 18.6916 10.1812 18.5666C9.93958 18.3249 9.93958 17.9249 10.1812 17.6832L12.8479 15.0166C12.9813 14.8832 13.1563 14.8166 13.3479 14.8332C13.5313 14.8499 13.6979 14.9499 13.8063 15.1082L14.7146 16.4749L17.6729 13.5166C17.9146 13.2749 18.3146 13.2749 18.5563 13.5166C18.7979 13.7582 18.7979 14.1582 18.5563 14.3999L15.0563 17.8999C14.9229 18.0332 14.7479 18.0999 14.5563 18.0832C14.3729 18.0666 14.2063 17.9666 14.0979 17.8082L13.1896 16.4416L11.0646 18.5666C10.9396 18.6916 10.7813 18.7499 10.6229 18.7499Z" fill="#E6E6E6"/>
<path d="M18.1229 16.25C17.7812 16.25 17.4979 15.9667 17.4979 15.625V14.5834H16.4562C16.1146 14.5834 15.8312 14.3 15.8312 13.9584C15.8312 13.6167 16.1146 13.3334 16.4562 13.3334H18.1229C18.4646 13.3334 18.7479 13.6167 18.7479 13.9584V15.625C18.7479 15.9667 18.4646 16.25 18.1229 16.25Z" fill="#E6E6E6"/>
</svg>
