<svg width="20" height="20" viewBox="0 0 20 20" fill="none" xmlns="http://www.w3.org/2000/svg">
<path d="M14.1667 17.7083H5.83335C5.49169 17.7083 5.20835 17.425 5.20835 17.0833C5.20835 16.7416 5.49169 16.4583 5.83335 16.4583H14.1667C16.55 16.4583 17.7084 15.3 17.7084 12.9166V7.08329C17.7084 4.69996 16.55 3.54163 14.1667 3.54163H5.83335C3.45002 3.54163 2.29169 4.69996 2.29169 7.08329C2.29169 7.42496 2.00835 7.70829 1.66669 7.70829C1.32502 7.70829 1.04169 7.42496 1.04169 7.08329C1.04169 4.04163 2.79169 2.29163 5.83335 2.29163H14.1667C17.2084 2.29163 18.9584 4.04163 18.9584 7.08329V12.9166C18.9584 15.9583 17.2084 17.7083 14.1667 17.7083Z" fill="#E6E6E6"/>
<path d="M9.99979 10.725C9.29979 10.725 8.59146 10.5083 8.0498 10.0666L5.44146 7.98331C5.17479 7.76664 5.1248 7.37497 5.34146 7.10831C5.55813 6.84164 5.94979 6.79164 6.21645 7.00831L8.82479 9.09164C9.45812 9.59998 10.5331 9.59998 11.1665 9.09164L13.7748 7.00831C14.0415 6.79164 14.4414 6.83331 14.6498 7.10831C14.8664 7.37497 14.8248 7.77498 14.5498 7.98331L11.9414 10.0666C11.4081 10.5083 10.6998 10.725 9.99979 10.725Z" fill="#E6E6E6"/>
<path d="M6.66669 14.375H1.66669C1.32502 14.375 1.04169 14.0917 1.04169 13.75C1.04169 13.4083 1.32502 13.125 1.66669 13.125H6.66669C7.00835 13.125 7.29169 13.4083 7.29169 13.75C7.29169 14.0917 7.00835 14.375 6.66669 14.375Z" fill="#E6E6E6"/>
<path d="M4.16669 11.0416H1.66669C1.32502 11.0416 1.04169 10.7583 1.04169 10.4166C1.04169 10.075 1.32502 9.79163 1.66669 9.79163H4.16669C4.50835 9.79163 4.79169 10.075 4.79169 10.4166C4.79169 10.7583 4.50835 11.0416 4.16669 11.0416Z" fill="#E6E6E6"/>
</svg>
