<svg width="20" height="20" viewBox="0 0 20 20" fill="none" xmlns="http://www.w3.org/2000/svg">
<path d="M13.3113 20C12.9057 20 12.5 19.9044 12.1698 19.7238L7.21697 16.9298C6.93395 16.7705 6.37735 16.7811 6.10376 16.9617L3.87735 18.3959C2.91509 19.012 1.92452 19.097 1.17924 18.5977C0.424528 18.109 0 17.1104 0 15.8568V5.53077C0 4.56403 0.566037 3.46981 1.31132 2.99176L5.39622 0.357131C6.08489 -0.0890552 7.13206 -0.120926 7.83961 0.282767L12.7925 3.07674C13.0755 3.2361 13.6227 3.21485 13.9057 3.04487L16.1227 1.62133C17.0849 1.00516 18.0755 0.920176 18.8208 1.41948C19.5755 1.90816 20 2.90677 20 4.16034V14.497C20 15.4638 19.434 16.558 18.6887 17.036L14.6038 19.6707C14.2453 19.8831 13.7736 20 13.3113 20ZM6.6981 15.2301C7.10376 15.2301 7.50942 15.3257 7.83961 15.5063L12.7925 18.3002C13.0755 18.4596 13.6227 18.4383 13.9057 18.2684L17.9906 15.6337C18.2925 15.4425 18.5849 14.8689 18.5849 14.4864V4.14972C18.5849 3.48044 18.4151 2.98113 18.1038 2.78991C17.8019 2.59869 17.3302 2.67305 16.8208 3.00238L14.6038 4.42593C13.9151 4.87211 12.8679 4.90398 12.1604 4.50029L7.20753 1.70631C6.92452 1.54696 6.37735 1.56821 6.09433 1.73818L2.00943 4.37281C1.70754 4.56403 1.41509 5.1377 1.41509 5.53077V15.8675C1.41509 16.5367 1.5849 17.036 1.88679 17.2273C2.18868 17.4291 2.66037 17.3441 3.17924 17.0148L5.39622 15.5913C5.76414 15.3469 6.23584 15.2301 6.6981 15.2301Z" fill="white" fill-opacity="0.7"/>
<path d="M6.62405 16.1116C6.23726 16.1116 5.9165 15.7504 5.9165 15.3148V1.50428C5.9165 1.06872 6.23726 0.70752 6.62405 0.70752C7.01084 0.70752 7.3316 1.06872 7.3316 1.50428V15.3148C7.3316 15.7504 7.01084 16.1116 6.62405 16.1116Z" fill="white" fill-opacity="0.7"/>
<path d="M13.3882 19.2987C13.0014 19.2987 12.6807 18.9375 12.6807 18.5019V4.28773C12.6807 3.85217 13.0014 3.49097 13.3882 3.49097C13.775 3.49097 14.0958 3.85217 14.0958 4.28773V18.5019C14.0958 18.9375 13.775 19.2987 13.3882 19.2987Z" fill="white" fill-opacity="0.7"/>
</svg>
