<svg width="16" height="16" viewBox="0 0 16 16" fill="none" xmlns="http://www.w3.org/2000/svg">
<path d="M13.3466 7.33335H10.6533C9.31329 7.33335 8.66663 6.74002 8.66663 5.51335V2.48669C8.66663 1.26002 9.31996 0.666687 10.6533 0.666687H13.3466C14.6866 0.666687 15.3333 1.26002 15.3333 2.48669V5.50669C15.3333 6.74002 14.68 7.33335 13.3466 7.33335ZM10.6533 1.66669C9.75996 1.66669 9.66663 1.92002 9.66663 2.48669V5.50669C9.66663 6.08002 9.75996 6.32669 10.6533 6.32669H13.3466C14.24 6.32669 14.3333 6.07335 14.3333 5.50669V2.48669C14.3333 1.91335 14.24 1.66669 13.3466 1.66669H10.6533Z" fill="#333333"/>
<path d="M5.51337 7.33335H2.82004C1.48004 7.33335 0.833374 6.74002 0.833374 5.51335V2.48669C0.833374 1.26002 1.48671 0.666687 2.82004 0.666687H5.51337C6.85337 0.666687 7.50004 1.26002 7.50004 2.48669V5.50669C7.50004 6.74002 6.84671 7.33335 5.51337 7.33335ZM2.82004 1.66669C1.92671 1.66669 1.83337 1.92002 1.83337 2.48669V5.50669C1.83337 6.08002 1.92671 6.32669 2.82004 6.32669H5.51337C6.40671 6.32669 6.50004 6.07335 6.50004 5.50669V2.48669C6.50004 1.91335 6.40671 1.66669 5.51337 1.66669H2.82004Z" fill="#333333"/>
<path d="M5.51337 15.3334H2.82004C1.48004 15.3334 0.833374 14.68 0.833374 13.3467V10.6534C0.833374 9.31335 1.48671 8.66669 2.82004 8.66669H5.51337C6.85337 8.66669 7.50004 9.32002 7.50004 10.6534V13.3467C7.50004 14.68 6.84671 15.3334 5.51337 15.3334ZM2.82004 9.66669C2.03337 9.66669 1.83337 9.86669 1.83337 10.6534V13.3467C1.83337 14.1334 2.03337 14.3334 2.82004 14.3334H5.51337C6.30004 14.3334 6.50004 14.1334 6.50004 13.3467V10.6534C6.50004 9.86669 6.30004 9.66669 5.51337 9.66669H2.82004Z" fill="#333333"/>
<circle cx="12" cy="12" r="2.83333" stroke="#333333"/>
</svg>
