<svg width="24" height="24" viewBox="0 0 24 24" fill="none" xmlns="http://www.w3.org/2000/svg">
<rect x="0.35" y="0.35" width="23.3" height="23.3" rx="3.65" stroke="#DDDDDD" stroke-width="0.7"/>
<path d="M17.3467 11.3334H14.6533C13.3133 11.3334 12.6667 10.7401 12.6667 9.51341V6.48675C12.6667 5.26008 13.32 4.66675 14.6533 4.66675H17.3467C18.6867 4.66675 19.3333 5.26008 19.3333 6.48675V9.50675C19.3333 10.7401 18.68 11.3334 17.3467 11.3334ZM14.6533 5.66675C13.76 5.66675 13.6667 5.92008 13.6667 6.48675V9.50675C13.6667 10.0801 13.76 10.3267 14.6533 10.3267H17.3467C18.24 10.3267 18.3333 10.0734 18.3333 9.50675V6.48675C18.3333 5.91341 18.24 5.66675 17.3467 5.66675H14.6533Z" fill="#333333"/>
<path d="M9.51334 11.3334H6.82001C5.48001 11.3334 4.83334 10.7401 4.83334 9.51341V6.48675C4.83334 5.26008 5.48668 4.66675 6.82001 4.66675H9.51334C10.8533 4.66675 11.5 5.26008 11.5 6.48675V9.50675C11.5 10.7401 10.8467 11.3334 9.51334 11.3334ZM6.82001 5.66675C5.92668 5.66675 5.83334 5.92008 5.83334 6.48675V9.50675C5.83334 10.0801 5.92668 10.3267 6.82001 10.3267H9.51334C10.4067 10.3267 10.5 10.0734 10.5 9.50675V6.48675C10.5 5.91341 10.4067 5.66675 9.51334 5.66675H6.82001Z" fill="#333333"/>
<path d="M9.51334 19.3334H6.82001C5.48001 19.3334 4.83334 18.6801 4.83334 17.3467V14.6534C4.83334 13.3134 5.48668 12.6667 6.82001 12.6667H9.51334C10.8533 12.6667 11.5 13.3201 11.5 14.6534V17.3467C11.5 18.6801 10.8467 19.3334 9.51334 19.3334ZM6.82001 13.6667C6.03334 13.6667 5.83334 13.8667 5.83334 14.6534V17.3467C5.83334 18.1334 6.03334 18.3334 6.82001 18.3334H9.51334C10.3 18.3334 10.5 18.1334 10.5 17.3467V14.6534C10.5 13.8667 10.3 13.6667 9.51334 13.6667H6.82001Z" fill="#333333"/>
<circle cx="16" cy="16.0001" r="2.83333" stroke="#333333"/>
</svg>
