<svg width="20" height="20" viewBox="0 0 20 20" fill="none" xmlns="http://www.w3.org/2000/svg">
<path d="M16.6833 9.16658H13.3167C11.6417 9.16658 10.8333 8.42492 10.8333 6.89159V3.10825C10.8333 1.57492 11.65 0.833252 13.3167 0.833252H16.6833C18.3583 0.833252 19.1667 1.57492 19.1667 3.10825V6.88325C19.1667 8.42492 18.35 9.16658 16.6833 9.16658ZM13.3167 2.08325C12.2 2.08325 12.0833 2.39992 12.0833 3.10825V6.88325C12.0833 7.59992 12.2 7.90825 13.3167 7.90825H16.6833C17.8 7.90825 17.9167 7.59159 17.9167 6.88325V3.10825C17.9167 2.39159 17.8 2.08325 16.6833 2.08325H13.3167Z" fill="#333333"/>
<path d="M6.89167 9.16658H3.52501C1.85001 9.16658 1.04167 8.42492 1.04167 6.89159V3.10825C1.04167 1.57492 1.85834 0.833252 3.52501 0.833252H6.89167C8.56667 0.833252 9.375 1.57492 9.375 3.10825V6.88325C9.375 8.42492 8.55834 9.16658 6.89167 9.16658ZM3.52501 2.08325C2.40834 2.08325 2.29167 2.39992 2.29167 3.10825V6.88325C2.29167 7.59992 2.40834 7.90825 3.52501 7.90825H6.89167C8.00834 7.90825 8.125 7.59159 8.125 6.88325V3.10825C8.125 2.39159 8.00834 2.08325 6.89167 2.08325H3.52501Z" fill="#333333"/>
<path d="M6.89167 19.1666H3.52501C1.85001 19.1666 1.04167 18.3499 1.04167 16.6833V13.3166C1.04167 11.6416 1.85834 10.8333 3.52501 10.8333H6.89167C8.56667 10.8333 9.375 11.6499 9.375 13.3166V16.6833C9.375 18.3499 8.55834 19.1666 6.89167 19.1666ZM3.52501 12.0833C2.54167 12.0833 2.29167 12.3333 2.29167 13.3166V16.6833C2.29167 17.6666 2.54167 17.9166 3.52501 17.9166H6.89167C7.87501 17.9166 8.125 17.6666 8.125 16.6833V13.3166C8.125 12.3333 7.87501 12.0833 6.89167 12.0833H3.52501Z" fill="#333333"/>
<circle cx="15" cy="14.9999" r="3.56667" stroke="#333333" stroke-width="1.2"/>
</svg>
