<svg width="24" height="24" viewBox="0 0 24 24" fill="none" xmlns="http://www.w3.org/2000/svg">
<circle cx="19" cy="4" r="1" fill="#99D1FF"/>
<circle cx="19" cy="12" r="1" fill="#99D1FF"/>
<circle cx="19" cy="20" r="1" fill="#99D1FF"/>
<circle cx="4" cy="12" r="1" fill="#99D1FF"/>
<path d="M20 14.75C18.48 14.75 17.25 13.52 17.25 12C17.25 10.48 18.48 9.25 20 9.25C21.52 9.25 22.75 10.48 22.75 12C22.75 13.52 21.52 14.75 20 14.75ZM20 10.75C19.31 10.75 18.75 11.31 18.75 12C18.75 12.69 19.31 13.25 20 13.25C20.69 13.25 21.25 12.69 21.25 12C21.25 11.31 20.69 10.75 20 10.75Z" fill="#001A72"/>
<path d="M20 6.75C18.48 6.75 17.25 5.52 17.25 4C17.25 2.48 18.48 1.25 20 1.25C21.52 1.25 22.75 2.48 22.75 4C22.75 5.52 21.52 6.75 20 6.75ZM20 2.75C19.31 2.75 18.75 3.31 18.75 4C18.75 4.69 19.31 5.25 20 5.25C20.69 5.25 21.25 4.69 21.25 4C21.25 3.31 20.69 2.75 20 2.75Z" fill="#001A72"/>
<path d="M20 22.75C18.48 22.75 17.25 21.52 17.25 20C17.25 18.48 18.48 17.25 20 17.25C21.52 17.25 22.75 18.48 22.75 20C22.75 21.52 21.52 22.75 20 22.75ZM20 18.75C19.31 18.75 18.75 19.31 18.75 20C18.75 20.69 19.31 21.25 20 21.25C20.69 21.25 21.25 20.69 21.25 20C21.25 19.31 20.69 18.75 20 18.75Z" fill="#001A72"/>
<path d="M4 13C3.44727 13 3 12.5527 3 12C3 11.4473 3.44727 11 4 11C4.55273 11 5 11.4473 5 12C5 12.5527 4.55273 13 4 13ZM4 11.5455C3.74909 11.5455 3.54545 11.7491 3.54545 12C3.54545 12.2509 3.74909 12.4545 4 12.4545C4.25091 12.4545 4.45455 12.2509 4.45455 12C4.45455 11.7491 4.25091 11.5455 4 11.5455Z" fill="#001A72"/>
<path d="M17.9214 12.75L6.67579 12.7751C6.26579 12.7751 7.50007 12.41 7.50007 12C7.50007 11.59 6.2658 11.25 6.6758 11.25H17.9214C18.3314 11.25 18.6714 11.59 18.6714 12C18.6714 12.41 18.3314 12.75 17.9214 12.75Z" fill="#001A72"/>
<path d="M18 20.75H14C11.58 20.75 10.25 19.42 10.25 17V7C10.25 4.58 11.58 3.25 14 3.25H18C18.41 3.25 18.75 3.59 18.75 4C18.75 4.41 18.41 4.75 18 4.75H14C12.42 4.75 11.75 5.42 11.75 7V17C11.75 18.58 12.42 19.25 14 19.25H18C18.41 19.25 18.75 19.59 18.75 20C18.75 20.41 18.41 20.75 18 20.75Z" fill="#001A72"/>
<path d="M5.11974 16C4.74979 16 4.38646 15.7981 4.18827 15.436L4.14203 15.3595C4.06936 15.2272 4.00991 15.1924 3.9967 15.1854C3.99009 15.1854 3.92403 15.2272 3.85136 15.3595L3.81173 15.4291C3.50784 15.9791 2.84063 16.1601 2.33196 15.8399L1.73741 15.4778C1.46656 15.3177 1.27498 15.0531 1.19571 14.7329C1.11643 14.4195 1.15607 14.0854 1.30801 13.8069C1.38068 13.6746 1.38068 13.598 1.37407 13.5841C1.36746 13.5771 1.30801 13.5423 1.16268 13.5423C0.521883 13.5423 0 12.9923 0 12.3239V11.6764C0 11.001 0.521883 10.458 1.15607 10.458C1.3014 10.458 1.36086 10.4162 1.37407 10.4092C1.37407 10.4023 1.37407 10.3257 1.3014 10.1934C1.14946 9.90795 1.10322 9.58071 1.1891 9.26741C1.26837 8.9541 1.45995 8.68953 1.7308 8.52244L2.33196 8.15343C2.83402 7.84013 3.50124 8.02115 3.79851 8.56421L3.83815 8.6408C3.91082 8.77308 3.97027 8.80789 3.98348 8.81486C3.99009 8.81486 4.05615 8.77308 4.12882 8.6408L4.16846 8.57117C4.47894 8.02115 5.13955 7.84013 5.64823 8.1604L6.26259 8.51548C6.53344 8.67561 6.72502 8.94018 6.80429 9.26045C6.88357 9.57375 6.84393 9.90795 6.69199 10.1864C6.61932 10.3187 6.61932 10.3953 6.62593 10.4092C6.63253 10.4162 6.69199 10.451 6.83732 10.451C7.47812 10.451 8 11.001 8 11.6694V12.3169C8 12.9923 7.47812 13.5353 6.84393 13.5353C6.6986 13.5353 6.63914 13.5771 6.62593 13.5841C6.62593 13.591 6.62593 13.6676 6.6986 13.7999C6.85054 14.0854 6.89678 14.4126 6.8109 14.7259C6.73163 15.0392 6.54005 15.3038 6.2692 15.4709L5.66804 15.8399C5.48968 15.9443 5.30471 16 5.11974 16ZM4.0033 14.1411C4.39967 14.1411 4.76301 14.3917 5.00743 14.8373L5.04707 14.9139C5.06689 14.9487 5.11974 14.9696 5.15937 14.9417L5.76713 14.5727C5.81998 14.5449 5.8398 14.4892 5.84641 14.4613C5.85301 14.4335 5.85962 14.3847 5.8332 14.329C5.58877 13.8904 5.56895 13.4309 5.76713 13.0689C5.96532 12.7068 6.35508 12.4979 6.83732 12.4979C6.92981 12.4979 7.00908 12.4144 7.00908 12.3239V11.6764C7.00908 11.5789 6.92981 11.5023 6.84393 11.5023C6.36168 11.5023 5.96532 11.2935 5.77374 10.9314C5.57556 10.5694 5.60198 10.1099 5.8398 9.67123C5.87283 9.61553 5.86623 9.55983 5.85301 9.53894C5.84641 9.51109 5.82659 9.46236 5.77374 9.42754L5.17258 9.05854C5.12634 9.03069 5.07349 9.05158 5.04707 9.09335L5.01404 9.15601C4.76961 9.6016 4.40628 9.85225 4.00991 9.85225C3.61354 9.85225 3.25021 9.6016 3.00578 9.15601L2.96614 9.08639C2.94633 9.04461 2.88687 9.03069 2.85384 9.05158L2.24608 9.42058C2.19323 9.44843 2.17341 9.50413 2.1668 9.53198C2.1602 9.55983 2.15359 9.60856 2.18002 9.66426C2.42444 10.1029 2.44426 10.5624 2.24608 10.9244C2.04789 11.2865 1.65813 11.4954 1.17589 11.4954C1.0834 11.4954 1.00413 11.5789 1.00413 11.6694V12.3169C1.00413 12.4144 1.0834 12.491 1.16928 12.491C1.65153 12.491 2.04789 12.6998 2.23947 13.0619C2.43765 13.4239 2.41123 13.8834 2.17341 14.3221C2.14699 14.3778 2.15359 14.4265 2.1602 14.4544C2.1668 14.4822 2.18662 14.5309 2.23947 14.5658L2.84063 14.9348C2.88687 14.9626 2.93972 14.9417 2.96614 14.8999L2.99917 14.8303C3.23699 14.3917 3.60694 14.1411 4.0033 14.1411Z" fill="#001A72"/>
</svg>
