<svg width="34" height="34" viewBox="0 0 34 34" fill="none" xmlns="http://www.w3.org/2000/svg">
<rect width="34" height="34" rx="3" fill="#F6F8F9"/>
<circle cx="24" cy="9" r="1" fill="#99D1FF"/>
<circle cx="24" cy="17" r="1" fill="#99D1FF"/>
<circle cx="24" cy="25" r="1" fill="#99D1FF"/>
<circle cx="9" cy="17" r="1" fill="#99D1FF"/>
<path d="M25 19.75C23.48 19.75 22.25 18.52 22.25 17C22.25 15.48 23.48 14.25 25 14.25C26.52 14.25 27.75 15.48 27.75 17C27.75 18.52 26.52 19.75 25 19.75ZM25 15.75C24.31 15.75 23.75 16.31 23.75 17C23.75 17.69 24.31 18.25 25 18.25C25.69 18.25 26.25 17.69 26.25 17C26.25 16.31 25.69 15.75 25 15.75Z" fill="#001A72"/>
<path d="M25 11.75C23.48 11.75 22.25 10.52 22.25 9C22.25 7.48 23.48 6.25 25 6.25C26.52 6.25 27.75 7.48 27.75 9C27.75 10.52 26.52 11.75 25 11.75ZM25 7.75C24.31 7.75 23.75 8.31 23.75 9C23.75 9.69 24.31 10.25 25 10.25C25.69 10.25 26.25 9.69 26.25 9C26.25 8.31 25.69 7.75 25 7.75Z" fill="#001A72"/>
<path d="M25 27.75C23.48 27.75 22.25 26.52 22.25 25C22.25 23.48 23.48 22.25 25 22.25C26.52 22.25 27.75 23.48 27.75 25C27.75 26.52 26.52 27.75 25 27.75ZM25 23.75C24.31 23.75 23.75 24.31 23.75 25C23.75 25.69 24.31 26.25 25 26.25C25.69 26.25 26.25 25.69 26.25 25C26.25 24.31 25.69 23.75 25 23.75Z" fill="#001A72"/>
<path d="M9 18C8.44727 18 8 17.5527 8 17C8 16.4473 8.44727 16 9 16C9.55273 16 10 16.4473 10 17C10 17.5527 9.55273 18 9 18ZM9 16.5455C8.74909 16.5455 8.54545 16.7491 8.54545 17C8.54545 17.2509 8.74909 17.4545 9 17.4545C9.25091 17.4545 9.45455 17.2509 9.45455 17C9.45455 16.7491 9.25091 16.5455 9 16.5455Z" fill="#001A72"/>
<path d="M22.9213 17.75L11.6757 17.7751C11.2657 17.7751 12.5 17.41 12.5 17C12.5 16.59 11.2657 16.25 11.6757 16.25H22.9213C23.3313 16.25 23.6713 16.59 23.6713 17C23.6713 17.41 23.3313 17.75 22.9213 17.75Z" fill="#001A72"/>
<path d="M23 25.75H19C16.58 25.75 15.25 24.42 15.25 22V12C15.25 9.58 16.58 8.25 19 8.25H23C23.41 8.25 23.75 8.59 23.75 9C23.75 9.41 23.41 9.75 23 9.75H19C17.42 9.75 16.75 10.42 16.75 12V22C16.75 23.58 17.42 24.25 19 24.25H23C23.41 24.25 23.75 24.59 23.75 25C23.75 25.41 23.41 25.75 23 25.75Z" fill="#001A72"/>
<path d="M10.1197 21C9.74979 21 9.38646 20.7981 9.18827 20.436L9.14203 20.3595C9.06936 20.2272 9.00991 20.1924 8.9967 20.1854C8.99009 20.1854 8.92403 20.2272 8.85136 20.3595L8.81173 20.4291C8.50784 20.9791 7.84063 21.1601 7.33196 20.8399L6.73741 20.4778C6.46656 20.3177 6.27498 20.0531 6.19571 19.7329C6.11643 19.4195 6.15607 19.0854 6.30801 18.8069C6.38068 18.6746 6.38068 18.598 6.37407 18.5841C6.36746 18.5771 6.30801 18.5423 6.16268 18.5423C5.52188 18.5423 5 17.9923 5 17.3239V16.6764C5 16.001 5.52188 15.458 6.15607 15.458C6.3014 15.458 6.36086 15.4162 6.37407 15.4092C6.37407 15.4023 6.37407 15.3257 6.3014 15.1934C6.14946 14.9079 6.10322 14.5807 6.1891 14.2674C6.26837 13.9541 6.45995 13.6895 6.7308 13.5224L7.33196 13.1534C7.83402 12.8401 8.50124 13.0211 8.79851 13.5642L8.83815 13.6408C8.91082 13.7731 8.97027 13.8079 8.98348 13.8149C8.99009 13.8149 9.05615 13.7731 9.12882 13.6408L9.16846 13.5712C9.47894 13.0211 10.1396 12.8401 10.6482 13.1604L11.2626 13.5155C11.5334 13.6756 11.725 13.9402 11.8043 14.2604C11.8836 14.5738 11.8439 14.9079 11.692 15.1864C11.6193 15.3187 11.6193 15.3953 11.6259 15.4092C11.6325 15.4162 11.692 15.451 11.8373 15.451C12.4781 15.451 13 16.001 13 16.6694V17.3169C13 17.9923 12.4781 18.5353 11.8439 18.5353C11.6986 18.5353 11.6391 18.5771 11.6259 18.5841C11.6259 18.591 11.6259 18.6676 11.6986 18.7999C11.8505 19.0854 11.8968 19.4126 11.8109 19.7259C11.7316 20.0392 11.54 20.3038 11.2692 20.4709L10.668 20.8399C10.4897 20.9443 10.3047 21 10.1197 21ZM9.0033 19.1411C9.39967 19.1411 9.76301 19.3917 10.0074 19.8373L10.0471 19.9139C10.0669 19.9487 10.1197 19.9696 10.1594 19.9417L10.7671 19.5727C10.82 19.5449 10.8398 19.4892 10.8464 19.4613C10.853 19.4335 10.8596 19.3847 10.8332 19.329C10.5888 18.8904 10.569 18.4309 10.7671 18.0689C10.9653 17.7068 11.3551 17.4979 11.8373 17.4979C11.9298 17.4979 12.0091 17.4144 12.0091 17.3239V16.6764C12.0091 16.5789 11.9298 16.5023 11.8439 16.5023C11.3617 16.5023 10.9653 16.2935 10.7737 15.9314C10.5756 15.5694 10.602 15.1099 10.8398 14.6712C10.8728 14.6155 10.8662 14.5598 10.853 14.5389C10.8464 14.5111 10.8266 14.4624 10.7737 14.4275L10.1726 14.0585C10.1263 14.0307 10.0735 14.0516 10.0471 14.0934L10.014 14.156C9.76961 14.6016 9.40628 14.8522 9.00991 14.8522C8.61354 14.8522 8.25021 14.6016 8.00578 14.156L7.96614 14.0864C7.94633 14.0446 7.88687 14.0307 7.85384 14.0516L7.24608 14.4206C7.19323 14.4484 7.17341 14.5041 7.1668 14.532C7.1602 14.5598 7.15359 14.6086 7.18002 14.6643C7.42444 15.1029 7.44426 15.5624 7.24608 15.9244C7.04789 16.2865 6.65813 16.4954 6.17589 16.4954C6.0834 16.4954 6.00413 16.5789 6.00413 16.6694V17.3169C6.00413 17.4144 6.0834 17.491 6.16928 17.491C6.65153 17.491 7.04789 17.6998 7.23947 18.0619C7.43765 18.4239 7.41123 18.8834 7.17341 19.3221C7.14699 19.3778 7.15359 19.4265 7.1602 19.4544C7.1668 19.4822 7.18662 19.5309 7.23947 19.5658L7.84063 19.9348C7.88687 19.9626 7.93972 19.9417 7.96614 19.8999L7.99917 19.8303C8.23699 19.3917 8.60694 19.1411 9.0033 19.1411Z" fill="#001A72"/>
</svg>
