<svg width="20" height="20" viewBox="0 0 20 20" fill="none" xmlns="http://www.w3.org/2000/svg">
<path d="M15.1721 15.5535H4.82791C1.12558 15.5535 0 14.4279 0 10.7256V4.82791C0 1.12558 1.12558 0 4.82791 0H15.1628C18.8651 0 19.9907 1.12558 19.9907 4.82791V10.7163C20 14.4279 18.8744 15.5535 15.1721 15.5535ZM4.82791 1.39535C1.90698 1.39535 1.39535 1.90698 1.39535 4.82791V10.7163C1.39535 13.6372 1.90698 14.1488 4.82791 14.1488H15.1628C18.0837 14.1488 18.5953 13.6372 18.5953 10.7163V4.82791C18.5953 1.90698 18.0837 1.39535 15.1628 1.39535H4.82791Z" fill="white" fill-opacity="0.7"/>
<path d="M9.99992 20.0001C9.61853 20.0001 9.30225 19.6838 9.30225 19.3024V14.8559C9.30225 14.4745 9.61853 14.1582 9.99992 14.1582C10.3813 14.1582 10.6976 14.4745 10.6976 14.8559V19.3024C10.6976 19.6838 10.3813 20.0001 9.99992 20.0001Z" fill="white" fill-opacity="0.7"/>
<path d="M19.3023 11.6278H0.697674C0.316279 11.6278 0 11.3115 0 10.9301C0 10.5487 0.316279 10.2324 0.697674 10.2324H19.3023C19.6837 10.2324 20 10.5487 20 10.9301C20 11.3115 19.6837 11.6278 19.3023 11.6278Z" fill="white" fill-opacity="0.7"/>
<path d="M14.186 19.9998H5.81389C5.43249 19.9998 5.11621 19.6836 5.11621 19.3022C5.11621 18.9208 5.43249 18.6045 5.81389 18.6045H14.186C14.5674 18.6045 14.8837 18.9208 14.8837 19.3022C14.8837 19.6836 14.5674 19.9998 14.186 19.9998Z" fill="white" fill-opacity="0.7"/>
</svg>
