<svg width="20" height="20" viewBox="0 0 20 20" fill="none" xmlns="http://www.w3.org/2000/svg">
<path d="M4.29166 18.9583C3.94999 18.9583 3.66666 18.675 3.66666 18.3333V1.66663C3.66666 1.32496 3.94999 1.04163 4.29166 1.04163C4.63332 1.04163 4.91666 1.32496 4.91666 1.66663V18.3333C4.91666 18.675 4.63332 18.9583 4.29166 18.9583Z" fill="#E6E6E6"/>
<path d="M14.125 13.75H4.79166C4.44999 13.75 4.16666 13.4667 4.16666 13.125C4.16666 12.7833 4.44999 12.5 4.79166 12.5H14.125C15.0333 12.5 15.4583 12.2583 15.5417 12.05C15.625 11.8417 15.5 11.375 14.85 10.7333L13.85 9.73333C13.4417 9.375 13.1917 8.83333 13.1667 8.23333C13.1417 7.6 13.3917 6.975 13.85 6.51667L14.85 5.51667C15.4667 4.9 15.6583 4.4 15.5667 4.18333C15.475 3.96667 15 3.75 14.125 3.75H4.79166C4.44166 3.75 4.16666 3.46667 4.16666 3.125C4.16666 2.78333 4.44999 2.5 4.79166 2.5H14.125C15.95 2.5 16.5333 3.25833 16.725 3.70833C16.9083 4.15833 17.0333 5.10833 15.7333 6.40833L14.7333 7.40833C14.525 7.61667 14.4083 7.90833 14.4167 8.2C14.425 8.45 14.525 8.675 14.7 8.83333L15.7333 9.85833C17.0083 11.1333 16.8833 12.0833 16.7 12.5417C16.5083 12.9833 15.9167 13.75 14.125 13.75Z" fill="#E6E6E6"/>
<path d="M9.68749 8.85417C9.40277 8.85417 9.16666 8.61806 9.16666 8.33333V5.52083C9.16666 5.23611 9.40277 5 9.68749 5C9.97221 5 10.2083 5.23611 10.2083 5.52083V8.33333C10.2083 8.61806 9.97221 8.85417 9.68749 8.85417Z" fill="#E6E6E6"/>
<circle cx="9.68749" cy="10.3819" r="0.520833" fill="#E6E6E6"/>
</svg>
