<svg width="246" height="167" viewBox="0 0 246 167" fill="none" xmlns="http://www.w3.org/2000/svg">
<path d="M134.146 59.6411H74.1578C73.2514 59.6411 72.5166 60.3756 72.5166 61.2815V96.2008C72.5166 97.1068 73.2514 97.8412 74.1578 97.8412H134.146C135.052 97.8412 135.787 97.1068 135.787 96.2008V61.2815C135.787 60.3756 135.052 59.6411 134.146 59.6411Z" stroke="#C0CCD8" stroke-miterlimit="10"/>
<path d="M72.5166 66.5605H135.787" stroke="#C0CCD8" stroke-miterlimit="10"/>
<path d="M76.6017 64.1485C77.1608 64.1485 77.614 63.6954 77.614 63.1366C77.614 62.5778 77.1608 62.1248 76.6017 62.1248C76.0426 62.1248 75.5894 62.5778 75.5894 63.1366C75.5894 63.6954 76.0426 64.1485 76.6017 64.1485Z" stroke="#C0CCD8" stroke-miterlimit="10"/>
<path d="M81.7707 63.1366C81.7707 63.6936 81.3156 64.1485 80.7584 64.1485C80.2011 64.1485 79.746 63.6936 79.746 63.1366C79.746 62.5796 80.2011 62.1248 80.7584 62.1248C81.3156 62.1248 81.7707 62.5796 81.7707 63.1366Z" stroke="#C0CCD8" stroke-miterlimit="10"/>
<path d="M85.9324 63.1366C85.9324 63.6936 85.4774 64.1485 84.9201 64.1485C84.3628 64.1485 83.9078 63.6936 83.9078 63.1366C83.9078 62.5796 84.3628 62.1248 84.9201 62.1248C85.4774 62.1248 85.9324 62.5796 85.9324 63.1366Z" stroke="#C0CCD8" stroke-miterlimit="10"/>
<path d="M49.9292 70H31.2638C29.46 70 27.9977 71.4616 27.9977 73.2646V91.9214C27.9977 93.7244 29.46 95.186 31.2638 95.186H49.9292C51.733 95.186 53.1953 93.7244 53.1953 91.9214V73.2646C53.1953 71.4616 51.733 70 49.9292 70Z" stroke="#C0CCD8" stroke-linejoin="round"/>
<path d="M40.5965 89.8046C44.5811 89.8046 47.8113 86.5759 47.8113 82.5931C47.8113 78.6103 44.5811 75.3816 40.5965 75.3816C36.6119 75.3816 33.3817 78.6103 33.3817 82.5931C33.3817 86.5759 36.6119 89.8046 40.5965 89.8046Z" stroke="#C0CCD8" stroke-width="3" stroke-miterlimit="10"/>
<path d="M45.4702 77.4983L35.2763 87.6811" stroke="#C0CCD8" stroke-width="3" stroke-miterlimit="10"/>
<path d="M227.824 97.4804L220.546 89.4291H108.491C103.248 89.4291 99 84.8961 99 79.3009V17.1282C99 11.533 103.248 7 108.491 7H221.044C226.287 7 230.535 11.533 230.535 17.1282V96.314C230.535 97.8313 228.802 98.571 227.815 97.4804H227.824Z" fill="white" stroke="#C0CCD8" stroke-linejoin="round"/>
<path d="M28.6421 124.982C28.6421 125.611 28.1308 126.122 27.5019 126.122C26.8731 126.122 26.3618 125.611 26.3618 124.982C26.3618 124.354 26.8731 123.843 27.5019 123.843C28.1308 123.843 28.6421 124.354 28.6421 124.982Z" stroke="#C0CCD8" stroke-linecap="round" stroke-linejoin="round"/>
<path d="M176.95 97.55V101.076" stroke="#C0CCD8" stroke-linecap="round" stroke-linejoin="round"/>
<path d="M178.713 99.3132H175.186" stroke="#C0CCD8" stroke-linecap="round" stroke-linejoin="round"/>
<path d="M73.0537 41V44.5262" stroke="#C0CCD8" stroke-linecap="round" stroke-linejoin="round"/>
<path d="M74.8176 42.7632H71.2898" stroke="#C0CCD8" stroke-linecap="round" stroke-linejoin="round"/>
<path d="M18.8333 89V92.5262" stroke="#C0CCD8" stroke-linecap="round" stroke-linejoin="round"/>
<path d="M20.5972 90.7632H17.0694" stroke="#C0CCD8" stroke-linecap="round" stroke-linejoin="round"/>
<path d="M45.3935 151.551V155.077" stroke="#C0CCD8" stroke-linecap="round" stroke-linejoin="round"/>
<path d="M47.1574 153.314H43.6296" stroke="#C0CCD8" stroke-linecap="round" stroke-linejoin="round"/>
<path d="M39.919 14V17.5262" stroke="#C0CCD8" stroke-linecap="round" stroke-linejoin="round"/>
<path d="M41.6829 15.7632H38.1551" stroke="#C0CCD8" stroke-linecap="round" stroke-linejoin="round"/>
<path d="M49.545 145.761H14.2415C13.6229 145.761 13.127 145.261 13.127 144.647C13.127 144.029 13.628 143.533 14.2415 143.533H49.545C50.1637 143.533 50.6596 144.034 50.6596 144.647C50.6596 145.266 50.1586 145.761 49.545 145.761Z" stroke="#C0CCD8" stroke-miterlimit="10"/>
<path d="M209.227 97H189.394C189.046 97 188.767 96.5505 188.767 96C188.767 95.445 189.049 95 189.394 95H209.227C209.574 95 209.853 95.4495 209.853 96C209.853 96.555 209.572 97 209.227 97Z" stroke="#C0CCD8" stroke-miterlimit="10"/>
<path d="M91.9285 39.1141H78.8757C78.5689 39.1141 78.3184 38.8637 78.3184 38.557C78.3184 38.2504 78.5689 38 78.8757 38H91.9285C92.2353 38 92.4858 38.2504 92.4858 38.557C92.4858 38.8637 92.2353 39.1141 91.9285 39.1141Z" fill="#C0CCD8"/>
<path d="M36.4206 135.893H26.4354C26.1287 135.893 25.8781 135.643 25.8781 135.336C25.8781 135.029 26.1287 134.779 26.4354 134.779H36.4206C36.7274 134.779 36.9779 135.029 36.9779 135.336C36.9779 135.643 36.7274 135.893 36.4206 135.893Z" fill="#C0CCD8"/>
<path d="M174.31 20.981H155.322C153.488 20.981 152 22.3749 152 24.0943V41.8866C152 43.6061 153.488 45 155.322 45H174.31C176.145 45 177.632 43.6061 177.632 41.8866V24.0943C177.632 22.3749 176.145 20.981 174.31 20.981Z" stroke="#EC4000" stroke-linejoin="round"/>
<path d="M173.077 39.7339C172.979 39.7643 172.876 39.7825 172.772 39.7825H156.86C156.529 39.7825 156.218 39.6184 156.049 39.3508C155.881 39.0833 155.881 38.7488 156.049 38.4752L163.998 25.5596C164.161 25.2921 164.472 25.1218 164.803 25.1218C165.134 25.1218 165.445 25.286 165.614 25.5596L173.576 38.4691C173.745 38.7367 173.745 39.0711 173.576 39.3447C173.466 39.5272 173.284 39.667 173.077 39.7339ZM157.295 38.6758H172.33L164.81 26.4718L157.295 38.6758Z" fill="#EC4000"/>
<path d="M164.816 36.1094C164.518 36.1094 164.264 35.8905 164.251 35.6047L163.927 30.5212C163.908 30.0469 164.303 29.6577 164.81 29.6577C165.316 29.6577 165.718 30.053 165.692 30.5212L165.374 35.6047C165.361 35.8844 165.115 36.1094 164.81 36.1094H164.816Z" fill="#EC4000"/>
<path d="M165.387 37.3381C165.387 37.636 165.128 37.8732 164.816 37.8732C164.498 37.8732 164.245 37.63 164.245 37.3381C164.245 37.0401 164.505 36.803 164.816 36.803C165.134 36.803 165.387 37.0462 165.387 37.3381Z" fill="#EC4000"/>
<path d="M137.205 127.148L148.908 109.676L152.533 110.432C149.762 119.759 147.932 123.448 147.932 123.448" fill="#FFCBBB"/>
<path d="M150.667 113.324L152.533 110.432C152.533 110.432 156.005 109.635 157.268 108.991C158.531 108.347 159.369 107.207 159.722 106.241C159.993 105.5 159.875 103.334 159.558 103.298C158.812 103.216 157.324 105.996 156.624 106.16C155.928 106.323 153.668 106.155 152.421 106.318C150.33 106.594 149.445 108.551 149.445 108.551L147.533 112.021" fill="#FFCBBB"/>
<path d="M144.854 114.791L146.909 111.817L152.222 114.198L150.534 118.721" fill="#E6E8EF"/>
<path d="M102.163 108.561C102.163 108.561 110.829 104.575 118.457 111.362C126.09 118.149 131.254 124.45 134.056 126.494L145.554 113.273L151.976 116.288C150.284 125.86 145.529 141.13 133.903 142.704C121.32 144.406 102.868 128.901 102.868 128.901" fill="#B9B5B2"/>
<path d="M130.324 130.889L134.056 126.494" stroke="#846A6A" stroke-miterlimit="10"/>
<path d="M76.8238 120.735C76.8238 120.735 74.2368 166.677 78.1532 166.677C82.0695 166.677 125.615 166.544 128.166 166.544C130.717 166.544 124.746 127.255 116.146 118.956C116.146 118.956 103.39 105.122 97.7708 106.446C92.1519 107.77 76.829 120.735 76.829 120.735H76.8238Z" fill="#B9B5B2"/>
<path d="M125.405 141.631L119.996 119.478" stroke="#846A6A" stroke-miterlimit="10"/>
<path d="M54.7981 129.054L43.0951 111.582L39.4701 112.338C42.2412 121.665 44.0716 125.355 44.0716 125.355" fill="#FFCBBB"/>
<path d="M41.3363 115.231L39.4701 112.338C39.4701 112.338 35.9986 111.541 34.7357 110.897C33.4729 110.253 32.6344 109.114 32.2816 108.148C32.0106 107.407 32.1282 105.24 32.4452 105.204C33.1917 105.122 34.6795 107.902 35.3799 108.066C36.0753 108.23 38.3351 108.061 39.5826 108.224C41.6737 108.5 42.5582 110.458 42.5582 110.458L44.4704 113.928" fill="#FFCBBB"/>
<path d="M47.1495 116.697L45.0942 113.723L39.782 116.105L41.4692 120.627" fill="#E6E8EF"/>
<path d="M92.9137 108.827C92.9137 108.827 84.3498 102.741 75.5099 110.217C67.2681 117.183 61.777 131.242 59.9365 131.242C58.6583 131.242 50.7284 121.133 45.994 114.95L40.3649 117.96C43.9131 128.789 51.6487 147.211 63.224 147.211C72.3042 147.211 90.9555 125.947 90.9555 125.947" fill="#B9B5B2"/>
<path d="M76.0774 140.405L89.8818 128.901" stroke="#846A6A" stroke-miterlimit="10"/>
<path d="M93.7419 109.911L101.968 118.721L103.047 108.536" fill="#E6E8EF"/>
<path d="M93.7419 109.911L101.968 118.721L103.047 108.536" stroke="#846A6A" stroke-linejoin="round"/>
<path d="M100.348 101.014L102.664 106.083C102.664 106.083 103.594 108.986 99.7392 110.304C95.5109 111.745 92.9188 108.822 92.9188 108.822L92.3104 100.865" fill="#FFCBBB"/>
<path d="M92.6938 105.93C92.6938 105.93 95.741 109.742 99.7392 110.309L96.8351 114.617C94.4833 113.294 91.6048 108.153 91.6048 108.153L92.6938 105.935V105.93Z" fill="white"/>
<path d="M102.418 105.388C102.418 105.388 101.933 108.112 99.7341 110.304L103.042 112.803C103.804 110.933 103.717 108.02 103.717 108.02L102.418 105.388Z" fill="white"/>
<path d="M103.778 92.8268C103.778 92.8268 105.961 101.187 102.684 103.303C99.4017 105.419 93.6959 102.199 93.3687 101.152C93.0415 100.104 91.5486 91.1762 93.6908 90.5067C97.4947 89.316 102.664 89.2649 103.783 92.8319L103.778 92.8268Z" fill="#FFCBBB"/>
<path d="M103.707 95.5405C103.763 95.7705 103.62 96.0004 103.39 96.0515C103.16 96.1078 102.93 95.9647 102.878 95.7347C102.822 95.5047 102.965 95.2748 103.195 95.2237C103.425 95.1674 103.656 95.3105 103.707 95.5405Z" fill="#173789"/>
<path d="M102.976 93.0465C103.119 93.067 103.763 93.1334 103.625 93.4503C103.564 93.5934 103.339 93.5883 103.216 93.578C103.083 93.5729 102.95 93.5525 102.827 93.5934C102.863 93.6291 102.889 93.6751 102.909 93.7211C102.95 93.8182 102.633 93.8284 102.597 93.8284C102.28 93.8284 101.902 93.7722 101.518 94.0277C101.764 93.1232 102.74 93.0108 102.976 93.0414V93.0465Z" fill="#173789"/>
<path d="M98.4508 96.7004C98.4661 96.9355 98.6655 97.1143 98.9007 97.1041C99.1359 97.0888 99.3148 96.8895 99.3046 96.6544C99.2893 96.4193 99.0899 96.2404 98.8547 96.2507C98.6195 96.266 98.4405 96.4653 98.4508 96.7004Z" fill="#173789"/>
<path d="M97.1879 95.0089C96.8812 95.1725 96.6204 95.3973 96.692 95.6528C96.7482 95.8573 96.9476 95.8062 97.0754 95.7039C97.2851 95.5404 97.5203 95.4127 97.7759 95.3309C97.6634 95.4229 97.5969 95.5711 97.6072 95.7142C98.4048 95.6375 99.1001 94.9476 99.187 94.1504C99.1819 94.2066 98.6655 94.5235 98.5888 94.5592C98.1389 94.7687 97.643 94.7636 97.193 95.0038L97.1879 95.0089Z" fill="#173789"/>
<path d="M101.58 96.0413C101.58 96.0413 102.745 98.9746 102.331 99.2301C101.917 99.4857 100.455 99.4499 100.455 99.4499" stroke="#EF977F" stroke-miterlimit="10"/>
<path d="M101.626 103.789C101.626 103.789 98.3025 105.071 95.3831 102.741" stroke="#EF977F" stroke-miterlimit="10"/>
<path d="M99.7392 101.826C99.7392 101.826 100.036 100.533 102.163 100.533" stroke="#EF977F" stroke-miterlimit="10"/>
<path d="M105.629 88.3399C105.593 87.9413 105.532 87.5171 105.256 87.2309C104.944 86.8987 104.438 86.8323 103.983 86.8272C102.377 86.817 100.777 87.328 99.4733 88.2632C99.8312 87.9515 100.184 87.6449 100.542 87.3331C100.823 87.0878 101.457 86.6994 101.15 86.2395C100.884 85.8358 100.123 86.0657 99.7341 86.0606C97.9037 86.0402 96.1398 86.6892 94.4526 87.3382C93.6192 87.6551 92.7858 87.9821 92.0343 88.4574C91.2827 88.9327 90.6129 89.5817 90.2499 90.3942C89.9329 91.1046 89.8716 91.9069 89.8767 92.6837C89.8869 94.0839 90.1068 95.474 90.3266 96.8589C90.5669 98.3664 90.9299 101.341 92.9546 101.525C93.3482 101.56 93.7777 101.586 94.0998 101.351C94.4168 101.121 94.5242 100.707 94.5753 100.319C94.652 99.69 94.606 99.0461 94.4577 98.4329C94.8361 98.6373 95.1991 98.9848 95.6234 98.9184C95.7666 98.8979 95.9097 98.8213 95.9558 98.6884C95.9864 98.6015 95.9762 98.5095 95.966 98.4175C95.8075 96.9713 95.7206 95.5353 95.6285 94.0839C97.7043 93.6444 99.7903 93.2663 101.892 92.9494C102.822 92.8115 103.809 92.6581 104.53 92.0551C105.563 91.1915 105.742 89.6737 105.624 88.3348L105.629 88.3399Z" fill="#173789"/>
<path d="M94.9025 98.9951C94.56 98.1467 93.9567 97.1196 93.0108 97.697C92.6785 97.9014 92.4893 98.3358 92.3615 98.76C91.9269 100.165 92.9392 102.332 94.3146 102.128C94.9843 102.031 95.3576 101.233 95.6336 100.574" fill="#FFCBBB"/>
<path d="M229.534 162.288H33.399V166.995H229.534V162.288Z" fill="#E7EAF2"/>
<path d="M220.086 153.314H150.772C149.535 153.314 148.599 152.195 148.814 150.979L156.78 106.207C157.03 104.786 158.268 103.754 159.709 103.754H229.023C230.26 103.754 231.196 104.873 230.981 106.089L223.015 150.861C222.765 152.282 221.528 153.314 220.086 153.314Z" fill="#475577"/>
<path d="M221.696 153.314H152.383C151.146 153.314 150.21 152.195 150.425 150.979L158.39 106.207C158.641 104.786 159.878 103.754 161.32 103.754H230.633C231.871 103.754 232.806 104.873 232.592 106.089L224.626 150.861C224.375 152.282 223.138 153.314 221.696 153.314Z" fill="#C0CCD8"/>
<path opacity="0.45" d="M208.945 153.314H168.912C168.197 153.314 167.66 152.671 167.782 151.965L172.384 126.107C172.527 125.289 173.243 124.691 174.076 124.691H214.109C214.825 124.691 215.362 125.335 215.239 126.04L210.637 151.899C210.494 152.717 209.779 153.314 208.945 153.314Z" fill="#8E9DB2"/>
<path d="M209.901 153.314H169.868C169.153 153.314 168.616 152.671 168.738 151.965L173.34 126.107C173.483 125.289 174.199 124.691 175.032 124.691H215.065C215.781 124.691 216.318 125.335 216.195 126.04L211.594 151.899C211.45 152.717 210.735 153.314 209.901 153.314Z" fill="#C6D2E0"/>
<path d="M201.031 138.106H184.782V153.314H201.031V138.106Z" fill="#8E9DB2"/>
<path d="M200.1 138.106H184.782V142.475L188.965 159.82H205.223L200.1 138.106ZM196.168 155.19C194.348 155.19 192.421 153.069 191.869 150.448C191.316 147.826 192.344 145.705 194.164 145.705C195.984 145.705 197.912 147.826 198.464 150.448C199.016 153.069 197.989 155.19 196.168 155.19Z" fill="#475577"/>
<path d="M175.82 159.82H212.212V162.288H173.345C173.345 160.924 174.449 159.82 175.815 159.82H175.82Z" fill="#475577"/>
<path d="M212.217 159.82H183.121V162.288H212.217V159.82Z" fill="#C0CCD8"/>
<path d="M201.036 138.106H184.777L189.9 159.82H206.159L201.036 138.106ZM197.048 155.19C195.228 155.19 193.3 153.069 192.748 150.448C192.196 147.831 193.223 145.705 195.044 145.705C196.864 145.705 198.791 147.826 199.343 150.448C199.896 153.069 198.868 155.19 197.048 155.19Z" fill="#C0CCD8"/>
<g opacity="0.65">
<path d="M163.079 108.164L162.112 113.576H163.079L164.04 108.164H163.079Z" fill="#8E9DB2"/>
<path d="M165.86 108.164L164.899 113.576H165.86L166.826 108.164H165.86Z" fill="#8E9DB2"/>
<path d="M168.646 108.164L167.685 113.576H168.646L169.613 108.164H168.646Z" fill="#8E9DB2"/>
<path d="M171.433 108.164L170.472 113.576H171.433L172.399 108.164H171.433Z" fill="#8E9DB2"/>
<path d="M174.219 108.164L173.258 113.576H174.219L175.186 108.164H174.219Z" fill="#8E9DB2"/>
</g>
<g opacity="0.65">
<path d="M199.645 108.164L198.684 113.576H199.645L200.611 108.164H199.645Z" fill="#8E9DB2"/>
<path d="M202.575 108.164L201.613 113.576H202.575L203.536 108.164H202.575Z" fill="#8E9DB2"/>
<path d="M205.504 108.164L204.543 113.576H205.504L206.465 108.164H205.504Z" fill="#8E9DB2"/>
<path d="M208.434 108.164L207.468 113.576H208.434L209.395 108.164H208.434Z" fill="#8E9DB2"/>
<path d="M211.358 108.164L210.397 113.576H211.358L212.325 108.164H211.358Z" fill="#8E9DB2"/>
<path d="M214.288 108.164L213.327 113.576H214.288L215.249 108.164H214.288Z" fill="#8E9DB2"/>
<path d="M217.218 108.164L216.251 113.576H217.218L218.179 108.164H217.218Z" fill="#8E9DB2"/>
<path d="M220.142 108.164L219.181 113.576H220.142L221.108 108.164H220.142Z" fill="#8E9DB2"/>
<path d="M223.072 108.164L222.11 113.576H223.072L224.033 108.164H223.072Z" fill="#8E9DB2"/>
<path d="M226.001 108.164L225.04 113.576H226.001L226.962 108.164H226.001Z" fill="#8E9DB2"/>
</g>
<path d="M169.725 161.281H112.831V162.293H169.725V161.281Z" fill="#475577"/>
<path d="M118.853 160.464H114.779V161.276H118.853V160.464Z" fill="#475577"/>
<path d="M125.025 160.464H120.95V161.276H125.025V160.464Z" fill="#475577"/>
<path d="M131.196 160.464H127.121V161.276H131.196V160.464Z" fill="#475577"/>
<path d="M137.367 160.464H133.292V161.276H137.367V160.464Z" fill="#475577"/>
<path d="M143.538 160.464H139.463V161.276H143.538V160.464Z" fill="#475577"/>
<path d="M149.714 160.464H145.639V161.276H149.714V160.464Z" fill="#475577"/>
<path d="M155.885 160.464H151.81V161.276H155.885V160.464Z" fill="#475577"/>
<path d="M162.056 160.464H157.981V161.276H162.056V160.464Z" fill="#475577"/>
<path d="M168.227 160.464H164.152V161.276H168.227V160.464Z" fill="#475577"/>
<path d="M170.472 161.281H113.577V162.293H170.472V161.281Z" fill="#C0CCD8"/>
<path d="M119.6 160.464H115.525V161.276H119.6V160.464Z" fill="#C0CCD8"/>
<path d="M125.771 160.464H121.696V161.276H125.771V160.464Z" fill="#C0CCD8"/>
<path d="M131.942 160.464H127.867V161.276H131.942V160.464Z" fill="#C0CCD8"/>
<path d="M138.113 160.464H134.038V161.276H138.113V160.464Z" fill="#C0CCD8"/>
<path d="M144.284 160.464H140.209V161.276H144.284V160.464Z" fill="#C0CCD8"/>
<path d="M150.455 160.464H146.38V161.276H150.455V160.464Z" fill="#C0CCD8"/>
<path d="M156.626 160.464H152.552V161.276H156.626V160.464Z" fill="#C0CCD8"/>
<path d="M162.797 160.464H158.723V161.276H162.797V160.464Z" fill="#C0CCD8"/>
<path d="M168.974 160.464H164.899V161.276H168.974V160.464Z" fill="#C0CCD8"/>
<path d="M53.7217 123.466C54.3353 121.038 54.0643 118.396 52.965 116.147C51.8709 113.894 49.9639 112.049 47.6734 111.027C46.7428 110.613 45.7407 110.322 44.8971 109.749C44.7335 110.955 44.6568 112.177 44.6722 113.393C44.6875 114.599 44.7949 115.82 45.209 116.95C46.2878 119.873 49.2276 121.667 52.1214 122.827" fill="#8EBCA2"/>
<path d="M54.0796 131.305C54.1563 129.097 54.1154 126.859 53.9467 124.656C53.8751 123.675 53.7729 122.679 53.5223 121.723C53.2207 120.558 52.7861 119.418 52.2442 118.345C51.6306 117.124 50.8382 115.866 49.79 114.967C49.7031 114.895 49.6009 115.003 49.6673 115.09C50.4496 116.056 51.196 117.011 51.7891 118.115C52.3822 119.219 52.8219 120.369 53.1644 121.554C53.7422 123.547 53.7473 125.704 53.8138 127.769C53.8496 128.944 53.8393 130.13 53.962 131.3C53.9672 131.371 54.0745 131.376 54.0796 131.3V131.305Z" fill="#597F6E"/>
<path d="M46.84 138.72C46.4156 135.363 44.5495 132.215 41.8142 130.222C40.4644 129.24 38.9101 128.551 37.2843 128.177C36.3691 127.968 32.1306 128.188 32.1306 128.188C32.1306 128.188 33.0305 131.325 34.0683 132.833C36.4969 136.344 40.7558 139.011 46.8349 138.725" fill="#8EBCA2"/>
<path d="M43.1384 127.912C43.0259 125.878 42.6526 123.864 42.0289 121.933C41.7784 121.156 41.4818 120.389 41.0524 119.705C39.6566 117.487 37.0388 116.449 34.5183 115.989C34.4876 118.131 34.733 120.384 35.9089 122.142C36.4304 122.919 37.1104 123.568 37.8006 124.191C39.1657 125.428 41.671 126.798 43.1384 127.907" fill="#A2CCB6"/>
<path d="M57.4336 120.512C57.0399 117.808 56.6769 114.901 57.904 112.458C58.3437 111.584 58.9725 110.812 59.6576 110.112C61.3142 108.41 63.4769 107.005 65.8492 107C66.2735 109.535 65.7623 112.218 64.4278 114.41C63.0934 116.608 59.8826 119.72 57.4336 120.512Z" fill="#A2CCB6"/>
<path d="M53.0826 136.231C55.5981 136.753 58.3232 136.191 60.4297 134.714C62.5361 133.237 63.9881 130.871 64.3562 128.326C64.3716 128.213 64.3818 128.085 64.3051 127.999C64.2335 127.917 64.1108 127.912 64.0035 127.912C59.6525 127.891 54.2483 132.041 53.0878 136.231" fill="#A2CCB6"/>
<path d="M44.1302 126.45C47.7143 124.432 50.0201 120.394 50.0866 116.005C47.4995 115.862 45.5516 117.451 44.4216 118.826C42.852 120.737 42.7191 124.094 44.1302 126.455" fill="#A2CCB6"/>
<path d="M46.7377 133.533C45.7817 131.152 46.0833 128.3 47.5149 126.169C48.9464 124.038 51.4773 122.684 54.0439 122.674C54.1512 122.674 54.2739 122.684 54.3353 122.771C54.3711 122.822 54.3762 122.888 54.3813 122.955C54.4784 125.157 53.5121 127.298 52.1215 129.01C50.7308 130.722 48.9464 132.056 47.1519 133.339" fill="#A2CCB6"/>
<path d="M61.3551 114.211C57.5819 117.711 55.9407 122.96 54.6574 127.789C53.2002 133.262 52.4026 138.889 51.8198 144.515C51.4875 147.725 51.1756 150.954 51.0733 154.179C51.0733 154.322 51.2778 154.317 51.2932 154.179C51.646 151.374 51.83 148.542 52.101 145.727C52.372 142.911 52.689 140.1 53.1133 137.3C53.9262 131.934 55.0562 126.501 57.045 121.437C58.0676 118.825 59.4531 116.311 61.4573 114.323C61.5238 114.257 61.4215 114.155 61.3551 114.221V114.211Z" fill="#597F6E"/>
<path d="M46.748 137.325C46.7633 136.829 46.7122 136.334 46.7224 135.838C46.7377 135.271 46.7889 134.698 46.8707 134.136C46.9474 133.605 47.0445 133.083 47.1672 132.562C47.2746 132.097 47.474 131.617 47.52 131.136C47.5302 131.034 47.3922 131.024 47.3462 131.09C47.065 131.474 46.9525 132.02 46.8451 132.47C46.7071 133.022 46.615 133.579 46.5383 134.141C46.4617 134.703 46.4156 135.271 46.4054 135.838C46.3952 136.334 46.3747 136.875 46.5026 137.361C46.5383 137.499 46.748 137.468 46.748 137.325Z" fill="#597F6E"/>
<path d="M47.0292 119.035C45.9606 119.96 45.3113 121.309 44.8716 122.628C44.3245 124.263 44.0689 126.016 44.1302 127.743C44.166 128.699 44.2683 129.7 44.6006 130.6C44.6364 130.697 44.7796 130.661 44.7591 130.554C44.575 129.731 44.4114 128.913 44.3552 128.07C44.299 127.227 44.3245 126.384 44.4166 125.546C44.5904 123.936 45.0147 122.316 45.7612 120.875C46.1038 120.21 46.5281 119.582 47.0701 119.066C47.0956 119.04 47.0598 119.009 47.0343 119.03L47.0292 119.035Z" fill="#597F6E"/>
<path d="M48.0875 149.789C48.1642 147.904 47.9955 145.992 47.8063 144.117C47.6069 142.139 47.3104 140.166 46.9013 138.219C46.0782 134.274 44.7949 130.385 42.8316 126.854C42.2948 125.883 41.7017 124.943 41.0575 124.038C40.4133 123.134 39.7231 122.214 38.9101 121.468C38.7925 121.355 38.6392 121.519 38.7363 121.641C39.3549 122.423 40.0145 123.164 40.6076 123.972C41.2006 124.779 41.7221 125.587 42.2181 126.43C43.2253 128.157 44.0689 129.976 44.7693 131.847C46.16 135.577 47.0036 139.507 47.4586 143.458C47.6989 145.563 47.7552 147.674 47.8932 149.789C47.9034 149.912 48.0824 149.912 48.0875 149.789Z" fill="#597F6E"/>
<path d="M62.715 141.096V144.633C62.715 158.651 58.0676 162.637 58.0676 162.637H43.6701C43.6701 162.637 39.0226 158.651 39.0226 144.633V141.096H62.715Z" fill="#F2F5F9"/>
<rect x="117" y="59" width="95.3878" height="4" rx="2" fill="#FFCFBD"/>
<rect x="140.571" y="66" width="48.1959" height="4" rx="2" fill="#FFCFBD"/>
</svg>
