<svg width="379" height="199" viewBox="0 0 379 199" fill="none" xmlns="http://www.w3.org/2000/svg">
<g opacity="0.4">
<path d="M359.401 112.789C351.905 142.174 337.196 171.658 311.059 187.038C307.416 189.184 303.627 191.005 299.738 192.566H32.9827C20.6655 175.918 13.4522 155.55 12.5327 134.866C11.8314 119.054 15.1086 102.37 25.3563 90.3066C39.1818 74.041 62.5372 69.5203 83.8711 70.2161C105.21 70.9119 126.462 75.7496 147.731 73.8639C173.32 71.5885 196.94 59.7914 219.936 48.3402C242.932 36.8889 266.758 25.3676 292.394 23.7235C318.03 22.0849 346.188 32.7292 357.704 55.6893C366.432 73.0858 364.21 93.9311 359.401 112.789Z" fill="#B8EDEC" fill-opacity="0.71"/>
</g>
<g opacity="0.4">
<path d="M194.313 30.3932C189.415 44.9338 180.654 52.4106 169.069 53.842C157.504 55.2706 145.961 52.6713 134.386 53.1421C126.374 53.4673 118.024 52.6466 112.764 45.5212C107.204 37.9895 101.952 25.0368 107.236 15.8966C112.387 6.98431 124.04 4.61555 132.27 9.48756C135.328 11.2977 138.921 14.2621 142.608 14.0576C148.53 13.7296 154.22 10.2534 159.76 6.88001C165.299 3.50803 171.03 0.125078 176.948 0.00430711C192.123 -0.307226 199.048 16.3413 194.315 30.3932H194.313Z" fill="#BAF1F3" fill-opacity="0.9"/>
</g>
<path d="M158.742 135.848C157.565 135.848 156.605 134.866 156.605 133.657C156.605 132.447 157.563 131.465 158.742 131.465C159.921 131.465 160.879 132.447 160.879 133.657C160.879 134.866 159.921 135.848 158.742 135.848ZM158.742 132.055C157.889 132.055 157.196 132.774 157.196 133.657C157.196 134.539 157.89 135.258 158.742 135.258C159.595 135.258 160.289 134.539 160.289 133.657C160.289 132.774 159.595 132.055 158.742 132.055Z" fill="#CDE4F1"/>
<path d="M5.46759 101.678C3.99775 101.678 2.80103 100.414 2.80103 98.8607C2.80103 97.3072 3.99775 96.0432 5.46759 96.0432C6.93742 96.0432 8.13415 97.3072 8.13415 98.8607C8.13415 100.414 6.93742 101.678 5.46759 101.678ZM5.46759 96.632C4.32301 96.632 3.39116 97.6324 3.39116 98.8607C3.39116 100.089 4.32301 101.09 5.46759 101.09C6.61216 101.09 7.54402 100.089 7.54402 98.8607C7.54402 97.6324 6.61216 96.632 5.46759 96.632Z" fill="#CDE4F1"/>
<path d="M115.473 166.175C116.613 166.175 117.536 165.257 117.536 164.125C117.536 162.993 116.613 162.075 115.473 162.075C114.334 162.075 113.411 162.993 113.411 164.125C113.411 165.257 114.334 166.175 115.473 166.175Z" fill="#CDE4F1"/>
<path d="M375.854 94.0669C377.318 94.0669 378.505 92.8871 378.505 91.4319C378.505 89.9766 377.318 88.7969 375.854 88.7969C374.389 88.7969 373.202 89.9766 373.202 91.4319C373.202 92.8871 374.389 94.0669 375.854 94.0669Z" fill="#CDE4F1"/>
<path d="M203.606 76.4331C202.191 76.4331 201.041 75.2254 201.041 73.7418C201.041 72.2583 202.192 71.0505 203.606 71.0505C205.019 71.0505 206.171 72.2583 206.171 73.7418C206.171 75.2254 205.019 76.4331 203.606 76.4331ZM203.606 71.6393C202.516 71.6393 201.629 72.5821 201.629 73.7418C201.629 74.9015 202.516 75.8443 203.606 75.8443C204.695 75.8443 205.582 74.9015 205.582 73.7418C205.582 72.5821 204.695 71.6393 203.606 71.6393Z" fill="#CDE4F1"/>
<path d="M276.767 94.8822L273.854 91.9013L276.826 88.8601L279.738 91.841L276.767 94.8822ZM274.678 91.9013L276.767 94.0381L278.915 91.8396L276.826 89.7028L274.678 91.9013Z" fill="#CDE4F1"/>
<path d="M25.1907 62.2911L22.5696 59.6699L19.8863 62.3532L22.5075 64.9743L25.1907 62.2911Z" fill="#CDE4F1"/>
<path d="M92.0421 138.176L89.1299 135.195L92.1011 132.154L95.0133 135.134L92.0421 138.176ZM89.9533 135.195L92.0421 137.332L94.1899 135.133L92.1011 132.996L89.9533 135.195Z" fill="#CDE4F1"/>
<path d="M366.653 45.4773L364.048 42.8725L366.705 40.2156L369.31 42.8204L366.653 45.4773ZM364.881 42.8725L366.653 44.6429L368.476 42.8204L366.705 41.05L364.881 42.8725Z" fill="#CDE4F1"/>
<path d="M179.328 141.336H151.353C151.186 141.336 151.05 141.2 151.05 141.033C151.05 140.866 151.186 140.73 151.353 140.73H179.328C179.495 140.73 179.631 140.866 179.631 141.033C179.631 141.2 179.495 141.336 179.328 141.336Z" fill="#CDE4F1"/>
<path d="M156.645 147.371H151.353C151.186 147.371 151.05 147.235 151.05 147.067C151.05 146.9 151.186 146.764 151.353 146.764H156.645C156.812 146.764 156.948 146.9 156.948 147.067C156.948 147.235 156.812 147.371 156.645 147.371Z" fill="#CDE4F1"/>
<path d="M171.875 147.371H160.93C160.762 147.371 160.626 147.235 160.626 147.067C160.626 146.9 160.762 146.764 160.93 146.764H171.875C172.042 146.764 172.178 146.9 172.178 147.067C172.178 147.235 172.042 147.371 171.875 147.371Z" fill="#CDE4F1"/>
<path d="M179.328 153.405H151.353C151.186 153.405 151.05 153.269 151.05 153.102C151.05 152.934 151.186 152.799 151.353 152.799H179.328C179.495 152.799 179.631 152.934 179.631 153.102C179.631 153.269 179.495 153.405 179.328 153.405Z" fill="#CDE4F1"/>
<path d="M246.879 193.077C246.715 193.077 246.583 192.945 246.583 192.782V145.893C246.583 145.729 246.715 145.598 246.879 145.598C247.042 145.598 247.174 145.729 247.174 145.893V192.782C247.174 192.945 247.042 193.077 246.879 193.077Z" fill="#1B1B43"/>
<path d="M241.21 188.597H252.545C254.801 188.597 256.633 190.43 256.633 192.686V192.782H237.122V192.686C237.122 190.43 238.954 188.597 241.21 188.597Z" fill="white"/>
<path d="M256.855 193.003H236.901V192.686C236.901 190.31 238.835 188.376 241.211 188.376H252.545C254.921 188.376 256.855 190.31 256.855 192.686V193.003ZM237.346 192.561H256.411C256.345 190.486 254.637 188.818 252.545 188.818H241.211C239.121 188.818 237.412 190.486 237.345 192.561H237.346Z" fill="#1B1B43"/>
<path d="M233.742 143.031H255.276C257.891 143.031 260.013 145.153 260.013 147.767V147.879H233.742V143.031Z" fill="#CDE4F1"/>
<path d="M208.749 181.554L209.775 192.782H194.397L201.258 186.045L201.179 181.643L208.749 181.554Z" fill="#CDE4F1"/>
<path d="M202.279 188.538C202.236 188.538 202.192 188.529 202.151 188.509L199.868 187.405C199.721 187.333 199.66 187.158 199.73 187.011C199.802 186.864 199.977 186.804 200.124 186.874L202.408 187.978C202.555 188.05 202.615 188.225 202.545 188.372C202.494 188.478 202.389 188.538 202.28 188.538H202.279Z" fill="#1B1B43"/>
<path d="M200.806 190.159C200.764 190.159 200.72 190.15 200.679 190.13L198.395 189.026C198.248 188.954 198.188 188.779 198.258 188.632C198.329 188.485 198.505 188.424 198.651 188.494L200.935 189.599C201.082 189.671 201.142 189.846 201.072 189.993C201.022 190.099 200.916 190.159 200.808 190.159H200.806Z" fill="#1B1B43"/>
<path d="M205.078 192.885C204.929 192.885 204.8 192.771 204.786 192.618C204.65 191.23 205.15 190.018 206.193 189.205C207.175 188.441 208.507 188.168 209.504 188.527C209.658 188.582 209.736 188.751 209.681 188.905C209.626 189.057 209.458 189.138 209.304 189.082C208.501 188.792 207.37 189.035 206.554 189.67C205.675 190.354 205.255 191.38 205.371 192.561C205.387 192.723 205.268 192.867 205.106 192.883C205.096 192.883 205.087 192.885 205.077 192.885H205.078Z" fill="#1B1B43"/>
<path d="M229.831 131.102L210.981 135.574C204.398 137.403 199.754 143.44 199.553 150.498L199.125 183.778L210.955 183.941L216.947 149.442L229.832 131.104L229.831 131.102Z" fill="#2EBB99"/>
<path d="M235.757 179.109L244.262 189.403L231.866 198.838L233.628 189.23L229.705 183.826L235.757 179.109Z" fill="#CDE4F1"/>
<path d="M233.524 190.461C233.387 190.461 233.263 190.365 233.236 190.225C233.203 190.066 233.307 189.911 233.466 189.878L235.953 189.374C236.112 189.341 236.267 189.446 236.3 189.605C236.333 189.764 236.229 189.919 236.07 189.952L233.583 190.456C233.564 190.46 233.543 190.461 233.524 190.461Z" fill="#1B1B43"/>
<path d="M233.333 192.642C233.196 192.642 233.073 192.546 233.045 192.406C233.012 192.247 233.117 192.09 233.276 192.059L235.762 191.555C235.922 191.522 236.077 191.626 236.11 191.785C236.143 191.945 236.038 192.1 235.879 192.133L233.392 192.636C233.373 192.64 233.353 192.642 233.333 192.642Z" fill="#1B1B43"/>
<path d="M241.54 191.637C241.484 191.637 241.426 191.621 241.377 191.588C240.306 190.872 239.948 189.31 240.069 188.161C240.183 187.07 240.682 186.27 241.44 185.967C241.591 185.906 241.762 185.98 241.823 186.131C241.883 186.282 241.81 186.454 241.658 186.514C241.119 186.73 240.744 187.368 240.655 188.223C240.549 189.232 240.876 190.544 241.705 191.098C241.841 191.189 241.876 191.371 241.786 191.507C241.729 191.592 241.636 191.637 241.54 191.637Z" fill="#1B1B43"/>
<path d="M252.659 134.198L251.176 140.249C251.078 140.699 250.894 141.207 250.635 141.738C249.315 144.446 246.823 146.197 244.074 146.562L224.723 151.927L241.076 180.804L230.763 187.876L211.56 160.618C207.195 154.358 208.56 145.278 214.52 140.941C216.56 139.457 218.134 138.387 218.363 138.438L231.892 131.005L252.658 134.198H252.659Z" fill="#57EBC7"/>
<path d="M216.177 122.503L215.767 134.52C227.324 132.539 240.393 131.633 252.639 134.197C255.097 128.832 254.277 124.486 252.127 119.497L216.177 122.501V122.503Z" fill="#4582E0"/>
<path d="M213.336 126.788C213.336 126.788 203.282 127.666 201.639 120.532C200.418 115.233 204.938 106.929 208.97 100.864C212.176 96.0418 216.53 92.3624 221.496 90.194L227.162 87.7209L235.246 90.6359L248.14 98.475L251.379 126.239C251.379 126.239 213.144 126.788 213.337 126.788H213.336Z" fill="#4582E0"/>
<path d="M241.937 116.762L240.071 117.06C238.429 117.322 235.855 117.859 234.178 118.353C230.531 119.427 228.984 123.73 228.984 123.73L232.336 123.933L238.155 121.428L242.807 121.644L241.937 116.762Z" fill="#FFBC96"/>
<path d="M231.636 123.675C231.588 123.675 231.541 123.652 231.514 123.609C231.469 123.542 231.486 123.45 231.554 123.405L234.463 121.453C234.53 121.408 234.622 121.426 234.668 121.493C234.713 121.56 234.695 121.652 234.628 121.697L231.718 123.649C231.694 123.665 231.665 123.674 231.636 123.674V123.675Z" fill="#D28572"/>
<path d="M230.383 123.601C230.346 123.601 230.307 123.587 230.279 123.558C230.221 123.501 230.221 123.407 230.279 123.35L232.525 121.103C232.583 121.045 232.676 121.045 232.734 121.103C232.791 121.161 232.791 121.254 232.734 121.312L230.487 123.558C230.458 123.587 230.421 123.601 230.383 123.601Z" fill="#D28572"/>
<path d="M231.438 87.4163L240.512 89.7521C242.943 90.4149 246.048 92.0495 247.609 93.5824C251.815 97.7133 259.494 108.513 259.985 115.585C260.242 119.278 257.854 122.308 253.245 122.974L243.114 124.435L240.042 117.031L249.361 114.671L240.861 101.044L231.438 87.4176V87.4163Z" fill="#4582E0"/>
<path d="M243.022 124.596L239.869 116.958L249.13 114.576L240.166 100.289C240.123 100.221 240.144 100.13 240.213 100.086C240.282 100.042 240.372 100.064 240.416 100.133L249.593 114.761L240.269 117.159L243.206 124.271L253.223 122.825C253.304 122.813 253.378 122.869 253.391 122.95C253.402 123.031 253.347 123.105 253.266 123.118L243.021 124.596H243.022Z" fill="#1B1B43"/>
<path d="M228.792 96.2955C226.88 96.2955 224.964 95.5092 223.444 94.0819C223.385 94.0256 223.382 93.9323 223.437 93.8733C223.493 93.8143 223.585 93.8115 223.645 93.8664C225.287 95.4076 227.404 96.1734 229.455 95.9662C231.582 95.7521 233.47 94.5581 234.916 92.5132C234.962 92.4473 235.054 92.4309 235.121 92.4775C235.187 92.5242 235.204 92.6161 235.157 92.6834C233.661 94.7996 231.7 96.0362 229.485 96.2599C229.254 96.2832 229.022 96.2942 228.792 96.2942V96.2955Z" fill="#1B1B43"/>
<path d="M214.999 109.151C214.979 109.151 214.957 109.147 214.936 109.137C214.862 109.103 214.831 109.015 214.865 108.941L218.598 100.985C218.632 100.911 218.72 100.879 218.794 100.914C218.868 100.948 218.9 101.036 218.865 101.11L215.133 109.066C215.108 109.119 215.054 109.151 214.999 109.151Z" fill="#1B1B43"/>
<path d="M218.716 71.6062C218.162 70.7416 217.993 69.6396 218.265 68.6487C218.536 67.6579 219.243 66.796 220.161 66.3349C220.894 65.9671 221.906 65.9094 222.427 66.5421C223.643 65.3399 225.739 65.1683 227.134 66.1565C227.561 66.4556 228.71 65.7996 229.144 65.694C229.988 65.4895 230.836 65.5952 231.511 66.2155C232.079 66.737 232.333 67.629 231.983 68.3166C232.389 67.522 235.282 68.5678 235.728 68.9163C237.974 70.6716 237.847 74.5102 235.97 76.4906C235.601 76.879 235.035 77.1535 234.89 77.6695C234.707 78.3159 234.569 78.0085 234.792 78.6411C235.542 80.7505 233.81 83.0204 231.577 82.8544L218.716 71.6049V71.6062Z" fill="#1B1B43"/>
<path d="M229.773 93.8994C227.321 94.4319 224.945 92.7836 224.47 90.2255L224.323 89.4295L223.335 84.1238L223.258 83.708L232.153 81.7866L233.365 88.2986C233.839 90.8623 232.231 93.3683 229.772 93.8994H229.773Z" fill="#FFBC96"/>
<path d="M230.609 84.2185C229.346 86.686 227.313 88.4756 224.322 89.4295L223.334 84.1238L230.609 84.2185Z" fill="#D28572"/>
<path d="M228.681 85.6732C224.992 87.3475 221.573 86.5982 220.636 81.5368C220.459 80.5885 220.371 79.4864 220.382 78.2184C220.387 77.8643 220.4 77.4937 220.418 77.1108C220.6 73.6579 219.622 72.1345 220.547 70.9666C222.185 68.8916 224.742 69.7671 226.93 69.7671C230.424 69.7671 232.758 71.5293 232.982 76.1611C233.164 79.8803 232.522 83.9344 228.679 85.6732H228.681Z" fill="#FFBC96"/>
<path d="M219.272 69.5668C216.593 70.2338 217.671 74.373 220.106 74.5761C221.183 74.6666 223.249 73.5358 223.272 72.1936C223.253 73.3011 224.057 74.362 225.082 74.5816C226.108 74.8011 227.237 74.1561 227.628 73.1282C227.797 73.717 228.249 74.2055 228.8 74.399C229.352 74.5925 229.989 74.4841 230.457 74.1191C230.123 75.2033 230.7 76.4165 231.555 77.1095C232.41 77.8026 233.488 78.0921 234.535 78.357L233.072 70.2736C233.072 70.2736 225.338 68.167 225.117 68.167C224.896 68.167 219.276 69.5655 219.273 69.5668H219.272Z" fill="#1B1B43"/>
<path d="M233.207 80.8562C234.378 80.8562 235.328 79.8614 235.328 78.6343C235.328 77.4071 234.378 76.4124 233.207 76.4124C232.035 76.4124 231.085 77.4071 231.085 78.6343C231.085 79.8614 232.035 80.8562 233.207 80.8562Z" fill="#FFBC96"/>
<path d="M225.818 77.3154C225.818 77.7381 226.064 78.0812 226.365 78.0812C226.667 78.0812 226.913 77.7381 226.913 77.3154C226.913 76.8927 226.667 76.5496 226.365 76.5496C226.064 76.5496 225.818 76.8927 225.818 77.3154Z" fill="#1B1B43"/>
<path d="M222.534 77.1699C222.534 77.5925 222.779 77.9356 223.081 77.9356C223.383 77.9356 223.629 77.5925 223.629 77.1699C223.629 76.7472 223.383 76.4041 223.081 76.4041C222.779 76.4041 222.534 76.7472 222.534 77.1699Z" fill="#1B1B43"/>
<path d="M224.303 81.0223C224.286 81.0223 224.271 81.0195 224.255 81.014L224.222 81.003C223.901 80.8933 223.459 80.7409 223.261 80.4033C223.017 79.9861 223.403 79.5414 223.547 79.374C223.882 78.987 224.27 78.4614 224.292 77.8273C224.295 77.7463 224.367 77.6832 224.444 77.6846C224.525 77.6873 224.59 77.756 224.587 77.8369C224.562 78.5629 224.137 79.1421 223.77 79.5661C223.503 79.8749 223.422 80.0931 223.517 80.2537C223.659 80.498 224.026 80.6229 224.318 80.7244L224.352 80.7354C224.429 80.7615 224.47 80.8452 224.444 80.9221C224.424 80.9825 224.366 81.0209 224.304 81.0209L224.303 81.0223Z" fill="#D28572"/>
<path d="M226.07 81.3914L223.101 82.1571C223.101 82.1571 224.795 84.5218 226.07 81.3914Z" fill="white"/>
<path d="M227.882 76.4905C227.732 76.2737 227.571 76.0994 227.378 75.9731C227.19 75.8441 226.979 75.7604 226.761 75.7234C226.543 75.6863 226.322 75.6946 226.113 75.7549C225.904 75.8153 225.712 75.9334 225.535 76.1241L225.333 76.0267C225.391 75.7234 225.618 75.442 225.911 75.2911C226.204 75.136 226.547 75.0989 226.862 75.1593C227.179 75.2183 227.477 75.3734 227.7 75.5999C227.922 75.8263 228.067 76.1214 228.095 76.4205L227.882 76.4919V76.4905Z" fill="#1B1B43"/>
<path d="M221.867 76.0377C221.883 75.7769 222.041 75.5367 222.244 75.3707C222.45 75.2046 222.711 75.1058 222.98 75.0921C223.249 75.0756 223.524 75.1511 223.741 75.3007C223.96 75.4475 224.117 75.6561 224.198 75.8839L224.019 76.0184C223.832 75.9032 223.669 75.8071 223.503 75.7467C223.336 75.6863 223.173 75.6589 223.006 75.6644C222.84 75.6698 222.671 75.7097 222.513 75.7838C222.354 75.8551 222.208 75.9594 222.078 76.1104L221.865 76.0377H221.867Z" fill="#1B1B43"/>
<path opacity="0.5" d="M228.743 81.4562C229.653 81.3091 230.271 80.4523 230.124 79.5425C229.977 78.6326 229.12 78.0142 228.21 78.1613C227.301 78.3083 226.682 79.1651 226.829 80.075C226.976 80.9848 227.833 81.6032 228.743 81.4562Z" fill="#FF9289"/>
<path opacity="0.5" d="M222.299 79.8269C222.322 80.6572 221.721 81.3942 220.879 81.5177C220.796 81.53 220.714 81.5355 220.637 81.5355C220.46 80.5872 220.372 79.4852 220.383 78.2171C221.285 78.0812 222.122 78.6947 222.274 79.584L222.28 79.6197C222.292 79.691 222.292 79.7555 222.298 79.8255L222.299 79.8269Z" fill="#FF9289"/>
<path d="M232.557 79.6595C232.481 79.6595 232.417 79.6005 232.41 79.5236C232.323 78.4367 232.71 77.6819 233.561 77.2797C233.635 77.2454 233.723 77.277 233.757 77.3497C233.792 77.4238 233.76 77.5117 233.688 77.546C232.948 77.8959 232.627 78.5341 232.703 79.5003C232.71 79.5812 232.65 79.6526 232.568 79.6595C232.564 79.6595 232.559 79.6595 232.555 79.6595H232.557Z" fill="#D28572"/>
<path d="M240.45 123.615H226.214V126.941H240.45V123.615Z" fill="#1B1B43"/>
<path d="M230.838 126.941H207.306L198.933 104.409H222.465L230.838 126.941Z" fill="#CDE4F1"/>
<path d="M133.825 181.042C133.662 181.042 133.53 180.91 133.53 180.747L133.541 103.601C133.541 103.437 133.673 103.306 133.836 103.306C133.999 103.306 134.131 103.437 134.131 103.601L134.12 180.747C134.12 180.91 133.988 181.042 133.825 181.042Z" fill="#1B1B43"/>
<path d="M155.473 193.004C155.425 193.004 155.376 192.992 155.33 192.967L133.835 181.073L112.339 192.967C112.196 193.045 112.018 192.995 111.938 192.852C111.86 192.709 111.911 192.531 112.053 192.451L133.835 180.399L155.616 192.451C155.759 192.529 155.809 192.709 155.731 192.852C155.678 192.949 155.577 193.004 155.473 193.004Z" fill="#1B1B43"/>
<path d="M176.807 24.8638H90.8633V111.065H176.807V24.8638Z" fill="white"/>
<path d="M177.028 111.286H90.6426V24.6428H177.028V111.286ZM91.0845 110.844H176.586V25.0847H91.0845V110.844Z" fill="#1B1B43"/>
<path d="M107.5 88.6555H100.912V91.6556H107.5V88.6555Z" fill="#CDE4F1"/>
<path d="M138.476 89.9331H109.635V90.375H138.476V89.9331Z" fill="#1B1B43"/>
<path d="M107.5 94.4963H100.912V97.4964H107.5V94.4963Z" fill="#4582E0"/>
<path d="M138.476 95.7754H109.635V96.2173H138.476V95.7754Z" fill="#1B1B43"/>
<path d="M106.944 60.9949H103.976V70.9132H106.944V60.9949Z" fill="#CDE4F1"/>
<path d="M113.08 57.9922H110.111V70.9133H113.08V57.9922Z" fill="#CDE4F1"/>
<path d="M119.216 52.696H116.248V70.9132H119.216V52.696Z" fill="#CDE4F1"/>
<path d="M125.352 47.8652H122.383V70.9132H125.352V47.8652Z" fill="#CDE4F1"/>
<path d="M131.488 42.915H128.52V70.9133H131.488V42.915Z" fill="#CDE4F1"/>
<path d="M137.623 40.7439H134.654V70.9132H137.623V40.7439Z" fill="#CDE4F1"/>
<path d="M143.759 43.0864H140.79V70.9131H143.759V43.0864Z" fill="#CDE4F1"/>
<path d="M149.895 45.7998H146.926V70.9133H149.895V45.7998Z" fill="#CDE4F1"/>
<path d="M156.031 40.7439H153.062V70.9132H156.031V40.7439Z" fill="#CDE4F1"/>
<path d="M162.166 37.8933H159.198V70.9118H162.166V37.8933Z" fill="#CDE4F1"/>
<path d="M168.302 34.1069H165.334V70.9132H168.302V34.1069Z" fill="#CDE4F1"/>
<path d="M170.224 71.145H99.7432V32.4888H100.332V70.5563H170.224V71.145Z" fill="#1B1B43"/>
<path d="M105.513 65.6814L105.408 65.1009L111.467 64.0112L117.238 59.2298L117.263 59.2161L123.555 55.748L129.748 50.7319L136.271 49.2936L141.889 53.8953L147.959 57.4635L154.489 48.8956L160.717 46.9002L167.331 43.7766L167.582 44.3091L160.915 47.456L154.846 49.4007L148.112 58.2362L141.534 54.3646L136.118 49.9304L130.01 51.2768L123.886 56.2393L123.863 56.2517L117.572 59.7197L111.724 64.5643L105.513 65.6814Z" fill="#4582E0"/>
<path d="M155.247 74.9204H112.422V77.0819H155.247V74.9204Z" fill="#CDE4F1"/>
<path d="M158.16 93.1268L163.786 84.3023C162.159 83.2634 160.232 82.6541 158.16 82.6541C152.376 82.6541 147.686 87.3435 147.686 93.1282C147.686 98.9128 152.376 103.602 158.16 103.602C163.945 103.602 168.634 98.9128 168.634 93.1282C168.634 92.936 168.616 92.748 168.605 92.5586L158.16 93.1282V93.1268Z" fill="#CDE4F1"/>
<path d="M168.605 92.5572C168.419 89.085 166.547 86.0658 163.786 84.3022L158.16 93.1267L168.605 92.5572Z" fill="#4582E0"/>
<path d="M62.4799 180.966L61.334 192.815H78.5246L70.8557 185.706L70.9435 181.06L62.4799 180.966Z" fill="#CDE4F1"/>
<path d="M69.1266 187.876C69.0127 187.876 68.9043 187.808 68.8563 187.697C68.7918 187.547 68.8604 187.375 69.01 187.31L71.4803 186.244C71.6299 186.179 71.8028 186.248 71.8673 186.397C71.9318 186.547 71.8632 186.72 71.7136 186.784L69.2433 187.851C69.2049 187.867 69.1651 187.876 69.1266 187.876Z" fill="#1B1B43"/>
<path d="M70.5993 189.544C70.4854 189.544 70.377 189.477 70.3289 189.366C70.2644 189.216 70.333 189.044 70.4826 188.979L72.9529 187.913C73.1025 187.848 73.2755 187.917 73.34 188.066C73.4045 188.216 73.3358 188.389 73.1863 188.453L70.7159 189.52C70.6775 189.536 70.6377 189.544 70.5993 189.544Z" fill="#1B1B43"/>
<path d="M61.7788 187.815C63.0263 188.005 64.2656 188.426 65.122 189.396C65.918 190.298 66.2295 191.519 66.3503 192.689C66.3887 193.062 66.9788 193.066 66.939 192.689C66.8032 191.375 66.4601 190.059 65.5859 189.035C64.6677 187.959 63.2981 187.454 61.9339 187.249C61.5634 187.192 61.4028 187.76 61.7775 187.817L61.7788 187.815Z" fill="#1B1B43"/>
<path d="M42.3125 181.084L40.9854 192.815H24.9626L31.31 186.417L33.9697 181.06L42.3125 181.084Z" fill="#CDE4F1"/>
<path d="M33.7803 187.777C33.7419 187.777 33.7021 187.769 33.6636 187.752L31.1933 186.686C31.0437 186.621 30.9751 186.448 31.0396 186.299C31.1041 186.149 31.277 186.081 31.4266 186.145L33.8969 187.211C34.0465 187.276 34.1152 187.449 34.0507 187.598C34.0026 187.71 33.8942 187.777 33.7803 187.777Z" fill="#1B1B43"/>
<path d="M32.3064 189.447C32.268 189.447 32.2282 189.439 32.1898 189.422L29.7195 188.356C29.5699 188.291 29.5012 188.119 29.5657 187.969C29.6302 187.819 29.8032 187.751 29.9528 187.815L32.4231 188.882C32.5727 188.946 32.6413 189.119 32.5768 189.269C32.5287 189.38 32.4203 189.447 32.3064 189.447Z" fill="#1B1B43"/>
<path d="M41.3147 187.297C39.9505 187.504 38.5809 188.009 37.6627 189.083C36.7885 190.107 36.4454 191.423 36.3095 192.737C36.2697 193.114 36.8599 193.111 36.8983 192.737C37.0191 191.567 37.3306 190.346 38.1266 189.444C38.983 188.474 40.2236 188.053 41.4697 187.863C41.843 187.807 41.6852 187.239 41.3133 187.295L41.3147 187.297Z" fill="#1B1B43"/>
<path d="M45.7475 101.239L29.438 183.809H44.7772L63.8192 95.0769L45.7475 101.239Z" fill="#4582E0"/>
<path d="M57.8481 100.101L60.4928 183.336H73.9806L73.4509 95.8345L57.8481 100.101Z" fill="#4582E0"/>
<path d="M71.3206 99.0583L47.9995 102.091L48.5691 61.7072L67.5287 61.1377L71.3206 99.0583Z" fill="white"/>
<path d="M60.4463 49.759V60.1659C60.4463 63.0534 60.1293 65.2191 57.1827 65.3673C55.2875 65.462 52.6621 64.3092 51.8839 62.7062C51.512 61.9514 51.3062 61.0854 51.3062 60.1659V49.759H60.4463Z" fill="#D28572"/>
<path d="M60.4434 53.9834V58.8746C57.8729 58.2323 54.7315 56.2245 53.1807 53.9834H60.4434Z" fill="#925D4F"/>
<path d="M60.446 56.2191C60.2635 56.2781 60.0631 56.3193 59.8504 56.3481C58.3064 56.5773 56.2081 56.3303 54.2867 55.2927C53.2203 54.7204 52.2007 53.9025 51.369 52.7881C51.3457 52.7648 51.3278 52.7346 51.3045 52.7058C51.0863 52.4107 50.8804 52.0923 50.691 51.7506L50.3136 50.4125L49.7482 48.4266L48.1919 42.9343L55.8293 39.1685C55.8293 39.1685 61.64 40.3762 62.2178 40.7536C62.1176 41.8021 62.1052 42.852 62.1464 43.8826C62.1999 45.3566 62.3646 46.7825 62.5115 48.1206C62.6473 49.2871 62.7708 50.3837 62.812 51.3677C62.9177 53.8435 62.5169 55.6468 60.4433 56.2177L60.446 56.2191Z" fill="#D28572"/>
<path d="M49.5109 50.7226C49.5109 50.7226 51.6463 50.013 51.365 49.5725C50.9409 48.9082 49.6783 46.9183 51.0082 44.6428C51.273 44.1886 52.6907 43.8222 53.1683 43.6479C53.7667 43.4283 54.3829 43.2526 55.0101 43.1552C55.9227 43.0124 56.8422 43.0481 57.737 43.2855C58.9749 43.6149 60.1799 44.4658 61.4933 44.1323C62.4402 43.8922 63.5176 43.1346 63.7742 42.082C63.9197 41.485 63.7879 40.8427 63.5272 40.291C61.9173 36.8792 58.0129 36.661 54.8728 36.9602C52.3106 37.2045 50.2698 38.2379 48.8906 40.6423C48.8384 40.7343 48.5777 41.3642 48.5077 41.3724C45.1577 41.7992 46.9994 49.3351 49.5123 50.7226H49.5109Z" fill="#1B1B43"/>
<path d="M50.3411 53.0529C51.5675 53.0529 52.5617 51.9979 52.5617 50.6965C52.5617 49.3951 51.5675 48.3401 50.3411 48.3401C49.1148 48.3401 48.1206 49.3951 48.1206 50.6965C48.1206 51.9979 49.1148 53.0529 50.3411 53.0529Z" fill="#D28572"/>
<path d="M51.0714 43.9087C51.151 45.8849 51.2827 47.9723 51.1798 49.95C51.1482 50.5538 50.9602 50.4893 50.731 50.2327C50.4524 49.9198 50.2548 49.3804 50.1958 48.7629L49.8911 45.6091L51.0714 43.9087Z" fill="#1B1B43"/>
<path d="M56.8944 47.8296C56.8944 48.2633 56.6433 48.616 56.3317 48.616C56.0202 48.616 55.769 48.2646 55.769 47.8296C55.769 47.3946 56.0202 47.0432 56.3317 47.0432C56.6433 47.0432 56.8944 47.3946 56.8944 47.8296Z" fill="#1B1B43"/>
<path d="M60.2635 47.6799C60.2635 48.1136 60.0124 48.4663 59.7009 48.4663C59.3893 48.4663 59.1382 48.115 59.1382 47.6799C59.1382 47.2449 59.3893 46.8936 59.7009 46.8936C60.0124 46.8936 60.2635 47.2449 60.2635 47.6799Z" fill="#1B1B43"/>
<path d="M58.4481 51.627C58.3863 51.627 58.33 51.5886 58.3081 51.5282C58.282 51.4513 58.3218 51.3676 58.4 51.3415L58.4343 51.3292C58.7363 51.2263 59.1109 51.0973 59.2591 50.8447C59.3566 50.6787 59.2729 50.4536 58.9984 50.1352C58.6223 49.7015 58.1873 49.1087 58.1612 48.3648C58.1585 48.2839 58.2216 48.2152 58.304 48.2125C58.3836 48.2097 58.4535 48.2729 58.4563 48.3552C58.4782 49.0071 58.8762 49.5465 59.2207 49.9431C59.3689 50.1146 59.7628 50.5675 59.513 50.9943C59.3099 51.3402 58.8598 51.4953 58.5304 51.6078L58.4961 51.6201C58.4796 51.6256 58.4645 51.6284 58.4481 51.6284V51.627Z" fill="#925D4F"/>
<path d="M56.6348 52.0098L59.6801 52.7948C59.6801 52.7948 57.1 54.8493 56.6348 52.0098Z" fill="white"/>
<path d="M54.5049 46.7715C54.6339 46.5697 54.8178 46.4078 55.0264 46.2788C55.2364 46.1525 55.4752 46.0688 55.7236 46.0345C56.219 45.9645 56.7474 46.1127 57.0877 46.4558L56.9834 46.6603C56.7625 46.6356 56.5635 46.6082 56.3686 46.5999C56.1751 46.5903 55.9871 46.5944 55.8004 46.6164C55.6138 46.6384 55.4271 46.6795 55.2391 46.7372C55.0497 46.7921 54.8617 46.8689 54.6545 46.9472L54.5076 46.7701L54.5049 46.7715Z" fill="#1B1B43"/>
<path d="M60.6151 46.5162C60.4161 46.4778 60.2377 46.4201 60.0661 46.3817C59.8959 46.3392 59.7367 46.309 59.5844 46.3007C59.4321 46.2925 59.2852 46.3035 59.1274 46.3337C58.9696 46.3639 58.8049 46.4174 58.6128 46.4709L58.4673 46.2925C58.5771 46.1059 58.7431 45.9521 58.9476 45.8465C59.1507 45.7408 59.395 45.6941 59.627 45.7147C59.8603 45.7326 60.0771 45.8094 60.2624 45.9151C60.4476 46.0249 60.6082 46.1566 60.7372 46.3199L60.6165 46.5162H60.6151Z" fill="#1B1B43"/>
<path opacity="0.2" d="M55.4722 51.9163C56.1689 51.2764 56.2148 50.1929 55.5749 49.4963C54.935 48.7997 53.8515 48.7537 53.1549 49.3936C52.4583 50.0335 52.4123 51.117 53.0522 51.8136C53.6921 52.5102 54.7756 52.5562 55.4722 51.9163Z" fill="#BE443D"/>
<path opacity="0.2" d="M62.8147 51.369C62.6088 51.4568 62.3851 51.5048 62.1491 51.5048C61.2708 51.5048 60.5516 50.8502 60.4459 50.0076C60.4405 49.9362 60.4336 49.8662 60.4336 49.7948V49.7592C60.4514 48.8287 61.2117 48.0793 62.1491 48.0793C62.2726 48.0793 62.3961 48.0917 62.5141 48.1205C62.65 49.2871 62.7735 50.3836 62.8147 51.3676V51.369Z" fill="#BE443D"/>
<path d="M51.3071 60.166C61.1294 73.3671 55.869 106.358 53.5936 112.472L38.9474 111.334L43.4982 87.161L36.1038 78.9129L51.3085 60.166H51.3071Z" fill="#7FDFC8"/>
<path d="M54.505 86.8056C55.3078 84.334 53.5251 81.5 50.4646 78.4875L48.5625 82.5828L54.505 86.8056Z" fill="#1B1B43"/>
<path d="M50.4782 108.665C50.4645 108.665 50.4494 108.664 50.4356 108.658C50.3574 108.635 50.3135 108.552 50.3368 108.474C53.0926 99.2709 53.5729 86.4843 53.6951 77.6667C53.6951 77.5857 53.7623 77.5212 53.8419 77.5212C53.8419 77.5212 53.8433 77.5212 53.8447 77.5212C53.9256 77.5212 53.9915 77.5899 53.9901 77.6708C53.7362 96.1186 51.9453 104.133 50.6195 108.558C50.6003 108.622 50.5413 108.664 50.4782 108.664V108.665Z" fill="#1B1B43"/>
<path d="M59.27 78.3968C59.2782 77.3071 59.1451 76.1831 58.4507 75.3748C58.0609 74.9219 56.6542 75.3775 55.8829 75.7426C55.8459 75.7604 56.8162 71.3194 56.4099 70.9955C55.909 70.5948 55.393 70.8624 55.1624 71.3221C54.774 72.0975 54.5133 73.0033 54.2114 73.8171C53.7598 75.0372 53.2054 76.0885 52.2063 76.9503C51.4144 77.6338 50.5073 78.0496 50.1161 79.0954C49.8252 79.8735 49.9213 80.6777 50.0118 81.4861C50.1106 82.3768 50.2904 83.2647 50.6431 84.0923C50.8092 84.4806 51.0466 84.9006 51.4542 85.0721C51.9414 85.2766 52.5329 84.998 52.9982 84.8182C54.0453 84.412 55.1062 84.0401 56.178 83.7025C57.0577 83.4253 57.9484 82.9806 58.555 82.2642C59.1822 81.5231 59.1602 80.6956 59.2096 79.7788C59.233 79.3451 59.2645 78.8744 59.2686 78.3982L59.27 78.3968ZM51.247 82.444C51.247 82.444 51.2552 82.4454 51.2593 82.4468C51.2003 82.5167 51.1935 82.5181 51.247 82.444Z" fill="#D28572"/>
<path d="M56.7145 77.6956C56.6157 77.6956 56.5251 77.6284 56.5004 77.5268C56.4716 77.4088 56.5444 77.288 56.6624 77.2592L58.8719 76.7185C58.99 76.6896 59.1094 76.7624 59.1396 76.8804C59.1684 76.9984 59.0956 77.1192 58.9776 77.148L56.7681 77.6887C56.7502 77.6929 56.7324 77.6956 56.7159 77.6956H56.7145Z" fill="#925D4F"/>
<path d="M56.863 79.4632C56.7642 79.4632 56.6736 79.3959 56.6489 79.2944C56.6201 79.1764 56.6928 79.0556 56.8108 79.0268L59.0204 78.486C59.1384 78.4572 59.2578 78.53 59.288 78.648C59.3168 78.766 59.2441 78.8868 59.1261 78.9156L56.9165 79.4563C56.8987 79.4604 56.8808 79.4632 56.8644 79.4632H56.863Z" fill="#925D4F"/>
<path d="M56.8132 81.3296C56.7144 81.3296 56.6238 81.2624 56.5991 81.1608C56.5703 81.0428 56.643 80.922 56.761 80.8932L58.9706 80.3525C59.0886 80.3237 59.208 80.3964 59.2382 80.5144C59.267 80.6325 59.1943 80.7532 59.0763 80.7821L56.8667 81.3228C56.8489 81.3269 56.831 81.3296 56.8145 81.3296H56.8132Z" fill="#925D4F"/>
<path d="M54.4582 86.7341C51.9536 89.1798 49.1484 91.3838 46.1895 93.2516C43.3487 95.0495 40.0659 96.894 36.6253 97.0642C31.31 97.329 29.0291 91.6899 29.2405 87.1747C29.4765 82.0419 32.187 77.3387 34.6381 72.9594C37.0892 68.5746 40.5792 64.6441 45.2522 62.5937C45.2879 62.5814 45.3235 62.5649 45.3579 62.5526L51.3044 59.9766V60.1646C51.3044 61.0841 51.5103 61.9501 51.8822 62.7049L42.5005 82.5593L50.4618 78.4874C51.1809 81.3516 52.5835 84.0854 54.4568 86.7328L54.4582 86.7341Z" fill="#7FDFC8"/>
<path d="M37.1934 85.1106C37.1398 85.1106 37.0877 85.0818 37.0616 85.031C37.0245 84.9582 37.0534 84.8704 37.1247 84.832L50.2736 78.0853C50.3464 78.0482 50.4342 78.0771 50.4726 78.1484C50.5097 78.2212 50.4809 78.309 50.4095 78.3474L37.2606 85.0941C37.2386 85.1051 37.2167 85.1106 37.1934 85.1106Z" fill="#1B1B43"/>
<path d="M41.8348 95.792C41.7881 95.792 41.7428 95.77 41.714 95.7302C41.6673 95.6644 41.6824 95.5724 41.7497 95.5244L54.373 86.6134C54.4388 86.5667 54.5308 86.5818 54.5788 86.6491C54.6255 86.715 54.6104 86.8069 54.5431 86.855L41.9199 95.7659C41.8938 95.7838 41.865 95.7934 41.8348 95.7934V95.792Z" fill="#1B1B43"/>
<path d="M40.8028 83.1219C40.7836 83.1219 40.7644 83.1178 40.7452 83.111C40.6697 83.0794 40.6354 82.9929 40.667 82.9175L44.4246 74.0038C44.4562 73.9283 44.5426 73.894 44.6181 73.9255C44.6936 73.9571 44.7279 74.0436 44.6963 74.119L40.9387 83.0327C40.9154 83.089 40.8605 83.1233 40.8028 83.1233V83.1219Z" fill="#1B1B43"/>
<path d="M52.541 76.6389C52.4944 76.6389 52.4477 76.6156 52.4189 76.5744L47.4673 69.2472L49.7482 62.1066C49.7729 62.0298 49.8566 61.9872 49.9335 62.0105C50.0117 62.0352 50.0543 62.1176 50.0295 62.1958L47.7925 69.1991L52.6632 76.4083C52.7085 76.4756 52.6906 76.5675 52.6234 76.6128C52.5987 76.6293 52.5698 76.6375 52.541 76.6375V76.6389Z" fill="#1B1B43"/>
<path d="M114.338 62.5086C114.179 64.0841 112.726 63.7959 112.036 65.0764C111.2 66.6258 108.924 68.2644 107.122 67.1514C106.163 66.5586 105.456 65.5938 105.093 64.526C104.568 62.9862 106.067 60.8206 106.871 59.6582C107.651 58.5314 109.56 58.1842 110.855 58.1705C111.708 58.1622 112.692 58.858 113.197 59.676C113.721 60.5255 114.44 61.526 114.34 62.5086H114.338Z" fill="#D28572"/>
<path d="M114.956 62.3355C115.214 62.9449 114.52 63.4609 113.564 63.863C112.609 64.2665 111.756 64.4051 111.499 63.7958C111.222 63.1384 111.935 62.6704 112.89 62.2683C113.846 61.8648 114.618 61.5368 114.956 62.3355Z" fill="#D28572"/>
<path d="M114.913 60.8946C115.166 61.4916 114.293 62.0776 113.12 62.573C111.946 63.0685 110.918 63.2867 110.666 62.6883C110.394 62.0446 111.286 61.5053 112.46 61.0099C113.633 60.5144 114.583 60.1109 114.913 60.8946Z" fill="#D28572"/>
<path d="M121.977 43.1375L120.973 42.5203L109.99 60.3927L110.995 61.0099L121.977 43.1375Z" fill="#1B1B43"/>
<path d="M106.915 60.0095C107.646 60.144 108.355 59.3055 109.082 59.4578C110.148 59.6801 110.88 59.5868 112.038 59.1435C112.664 58.9047 113.549 58.2432 113.57 57.4925C113.575 57.2716 113.516 57.0191 113.321 56.9134C113.051 56.7652 112.737 56.9834 112.481 57.1563C110.832 58.2721 108.582 57.2304 106.826 59.9752L106.915 60.0109V60.0095Z" fill="#D28572"/>
<path d="M113.903 59.5196C114.277 60.0493 113.752 60.6738 112.63 61.4739C111.507 62.274 110.869 62.4853 110.679 61.865C110.559 61.4711 110.53 60.8892 111.653 60.0891C112.775 59.289 113.413 58.8265 113.903 59.5209V59.5196Z" fill="#D28572"/>
<path d="M108.558 63.2689C108.514 63.2689 108.471 63.2497 108.443 63.2126C108.392 63.1495 108.403 63.0562 108.466 63.0054C109.337 62.3137 109.645 61.4642 109.409 60.4088C109.391 60.3292 109.44 60.251 109.52 60.2331C109.6 60.2153 109.678 60.2647 109.696 60.3443C109.959 61.5204 109.617 62.466 108.649 63.2359C108.621 63.2579 108.59 63.2675 108.557 63.2675L108.558 63.2689Z" fill="#925D4F"/>
<path d="M111.22 61.7895C110.994 61.7895 110.788 61.6948 110.667 61.5301C110.585 61.4176 110.549 61.2652 110.574 61.1211C110.596 60.9908 110.663 60.8823 110.765 60.8123C110.832 60.7671 110.924 60.7835 110.969 60.8508C111.016 60.918 110.998 61.01 110.931 61.0553C110.884 61.0868 110.869 61.1403 110.865 61.1705C110.854 61.235 110.869 61.3064 110.906 61.3544C110.979 61.4546 111.126 61.5081 111.28 61.4903C111.473 61.4684 112.177 61.2543 112.298 61.1705C112.365 61.1239 112.457 61.1403 112.502 61.2076C112.549 61.2748 112.533 61.3668 112.465 61.4121C112.283 61.5397 111.516 61.7607 111.311 61.784C111.281 61.7867 111.249 61.7895 111.219 61.7895H111.22Z" fill="#925D4F"/>
<path d="M111.915 62.8324C111.782 62.8324 111.604 62.8036 111.483 62.6663C111.381 62.551 111.347 62.3795 111.392 62.2189C111.424 62.1105 111.774 61.4257 111.894 61.3255C111.958 61.2733 112.05 61.2816 112.102 61.3447C112.152 61.4065 112.146 61.497 112.085 61.5492C112.014 61.6247 111.705 62.2011 111.675 62.2985C111.657 62.3617 111.668 62.4316 111.704 62.4714C111.754 62.5291 111.864 62.5497 112.03 62.5291C112.443 62.4797 112.848 62.3315 113.239 62.1901C113.316 62.1627 113.4 62.2011 113.429 62.2779C113.456 62.3548 113.418 62.4385 113.341 62.4673C112.933 62.6155 112.513 62.7679 112.066 62.8228C112.033 62.8269 111.98 62.8338 111.915 62.8338V62.8324Z" fill="#925D4F"/>
<path d="M112.623 64.0978C112.494 64.0978 112.362 64.0855 112.23 64.0594C112.06 64.0265 111.933 63.9331 111.883 63.8014C111.713 63.3595 112.331 62.6802 112.594 62.4963C112.661 62.4496 112.753 62.4661 112.799 62.5333C112.845 62.6006 112.829 62.6925 112.762 62.7378C112.516 62.9093 112.071 63.472 112.158 63.6944C112.17 63.7259 112.222 63.7561 112.287 63.7685C112.585 63.8261 112.878 63.8083 113.138 63.7149C113.214 63.6875 113.298 63.7273 113.326 63.8041C113.353 63.881 113.313 63.9647 113.236 63.9922C113.044 64.0608 112.837 64.0951 112.624 64.0951L112.623 64.0978Z" fill="#925D4F"/>
<path d="M73.0749 75.6423L80.1372 79.813C87.0047 83.8286 93.7884 83.3208 100.045 77.4429L109.762 68.2478L103.789 61.8484C99.5676 65.8695 91.4183 73.8403 84.5989 69.1934L77.1084 63.7079C74.1646 61.7303 70.8489 60.3744 67.3644 59.7239L60.4393 58.5752C59.6117 69.4185 63.3501 94.7405 67.8131 109.343L80.4694 104.508C78.478 97.967 75.0182 83.5569 73.0749 75.6409V75.6423Z" fill="#7FDFC8"/>
<path d="M74.837 83.5639C74.7683 83.5639 74.7079 83.5172 74.6929 83.4472L71.7463 69.7453C71.7299 69.6657 71.7793 69.5874 71.8589 69.571C71.9385 69.5531 72.0167 69.6039 72.0332 69.6835L74.9797 83.3855C74.9962 83.4651 74.9467 83.5433 74.8671 83.5598C74.8562 83.5625 74.8466 83.5625 74.8356 83.5625L74.837 83.5639Z" fill="#1B1B43"/>
<path d="M69.8907 105.351C69.8207 105.351 69.7589 105.301 69.7466 105.23L64.0772 74.5156L66.2291 68.5484L61.5465 59.9627C61.5081 59.8914 61.5342 59.8021 61.6055 59.7623C61.6769 59.7239 61.7661 59.75 61.8059 59.8214L66.553 68.5223L64.3833 74.5389L70.0375 105.175C70.0526 105.254 69.9991 105.331 69.9195 105.346C69.9099 105.348 69.9017 105.349 69.8921 105.349L69.8907 105.351Z" fill="#1B1B43"/>
<path d="M106.955 68.7817C106.917 68.7817 106.877 68.7666 106.848 68.7364L102.625 64.3159C102.569 64.2569 102.572 64.1636 102.629 64.1073C102.688 64.0511 102.782 64.0538 102.838 64.1115L107.061 68.5319C107.117 68.591 107.114 68.6843 107.057 68.7406C107.028 68.768 106.991 68.7817 106.955 68.7817Z" fill="#1B1B43"/>
<path d="M51.5581 86.3637C51.5266 86.3637 51.4936 86.3527 51.4675 86.3321C49.9716 85.156 48.9904 83.2964 48.4675 80.6463C48.4524 80.5667 48.5032 80.4885 48.5841 80.4734C48.6637 80.4583 48.742 80.509 48.7571 80.59C49.2649 83.1674 50.2118 84.9707 51.6501 86.1015C51.7146 86.1523 51.7256 86.2443 51.6748 86.3088C51.646 86.3458 51.602 86.365 51.5595 86.365L51.5581 86.3637Z" fill="#1B1B43"/>
<path d="M58.1882 121.282C58.1786 121.282 58.1704 121.282 58.1608 121.279C58.0812 121.264 58.029 121.187 58.0441 121.107L59.6649 112.561C59.68 112.482 59.7555 112.43 59.8365 112.445C59.9161 112.46 59.9682 112.537 59.9531 112.616L58.3323 121.162C58.3186 121.232 58.2568 121.282 58.1882 121.282Z" fill="#1B1B43"/>
<path d="M219.557 126.755H217.553V192.76H219.557V126.755Z" fill="#1B1B43"/>
<path d="M299.705 126.755H297.701V192.76H299.705V126.755Z" fill="#1B1B43"/>
<path d="M334.218 126.534H189.145V130.221H334.218V126.534Z" fill="white"/>
<path d="M334.439 130.441H188.924V126.311H334.439V130.441ZM189.366 129.999H333.997V126.753H189.366V129.999Z" fill="#1B1B43"/>
<path d="M347.389 173.232L356.898 183.62L347.213 193.047L347.578 183.486L341.928 178.711L347.389 173.232Z" fill="#CDE4F1"/>
<path d="M347.412 183.846C347.286 183.846 347.169 183.765 347.131 183.639C347.083 183.484 347.171 183.319 347.326 183.271L350.068 182.425C350.223 182.377 350.389 182.465 350.436 182.62C350.484 182.775 350.396 182.94 350.241 182.988L347.499 183.834C347.47 183.843 347.441 183.847 347.412 183.847V183.846Z" fill="#1B1B43"/>
<path d="M347.46 186.19C347.334 186.19 347.217 186.109 347.179 185.983C347.131 185.828 347.218 185.662 347.374 185.615L350.116 184.769C350.271 184.721 350.435 184.809 350.483 184.964C350.531 185.119 350.444 185.284 350.289 185.332L347.546 186.178C347.518 186.187 347.489 186.191 347.46 186.191V186.19Z" fill="#1B1B43"/>
<path d="M354.184 185.869C354.155 185.869 354.126 185.865 354.097 185.855C353.044 185.531 352.273 184.461 352.222 183.253C352.174 182.107 352.773 181.171 353.824 180.747C353.975 180.687 354.147 180.759 354.207 180.91C354.267 181.061 354.195 181.233 354.044 181.293C352.877 181.763 352.793 182.802 352.811 183.227C352.852 184.19 353.452 185.039 354.27 185.291C354.425 185.339 354.513 185.504 354.465 185.659C354.426 185.785 354.31 185.867 354.184 185.867V185.869Z" fill="#1B1B43"/>
<path d="M318.82 102.717L311.743 130.818C309.96 137.894 311.733 145.393 316.492 150.924L342.237 180.831L351.058 173.173L328.526 143.063L332.054 97.926L318.821 102.717H318.82Z" fill="#4582E0"/>
<path d="M318.525 111.115C318.466 111.115 318.411 111.079 318.388 111.021C318.358 110.946 318.395 110.861 318.47 110.829C321.05 109.797 322.176 107.17 321.816 103.023C321.809 102.942 321.87 102.871 321.951 102.864C322.03 102.857 322.103 102.917 322.11 102.998C322.482 107.291 321.295 110.018 318.58 111.104C318.562 111.111 318.543 111.115 318.525 111.115Z" fill="#1B1B43"/>
<path d="M341.902 177.513C341.857 177.513 341.813 177.492 341.784 177.454C341.735 177.389 341.748 177.296 341.813 177.248L347.3 173.115C347.364 173.066 347.458 173.08 347.506 173.144C347.555 173.209 347.541 173.302 347.477 173.35L341.99 177.482C341.964 177.503 341.932 177.513 341.902 177.513Z" fill="#1B1B43"/>
<path d="M336.795 180.384L337.395 193.081H321.618L328.657 186.539L329.029 180.472L336.795 180.384Z" fill="#CDE4F1"/>
<path d="M331.195 188.169C331.148 188.169 331.102 188.158 331.058 188.135L328.519 186.798C328.375 186.723 328.32 186.544 328.395 186.4C328.471 186.256 328.649 186.201 328.793 186.277L331.332 187.613C331.476 187.689 331.531 187.867 331.456 188.011C331.403 188.112 331.301 188.169 331.195 188.169Z" fill="#1B1B43"/>
<path d="M329.575 189.864C329.529 189.864 329.482 189.853 329.438 189.83L326.899 188.493C326.755 188.418 326.7 188.239 326.776 188.095C326.851 187.951 327.029 187.896 327.174 187.972L329.712 189.308C329.857 189.384 329.911 189.562 329.836 189.706C329.784 189.806 329.681 189.864 329.575 189.864Z" fill="#1B1B43"/>
<path d="M333.517 192.995C333.411 192.995 333.31 192.938 333.256 192.838C332.685 191.766 332.917 190.329 333.819 189.345C334.674 188.413 335.869 188.147 337.019 188.636C337.169 188.699 337.239 188.872 337.176 189.023C337.113 189.172 336.94 189.242 336.789 189.179C335.879 188.794 334.93 189.005 334.252 189.745C333.517 190.548 333.321 191.707 333.775 192.564C333.852 192.708 333.797 192.886 333.653 192.962C333.609 192.985 333.561 192.996 333.514 192.996L333.517 192.995Z" fill="#1B1B43"/>
<path d="M329.043 100.262L325.049 143.088L326.94 183.168L338.528 182.54L343.424 116.272C345.192 110.526 345.634 106.107 344.909 100.888L329.043 100.262Z" fill="#4582E0"/>
<path d="M341.51 110.894C341.5 110.894 341.491 110.894 341.481 110.891C337.819 110.184 335.651 106.74 335.96 102.117C335.965 102.037 336.033 101.973 336.116 101.98C336.197 101.986 336.259 102.056 336.253 102.137C336.116 104.19 336.502 106.128 337.34 107.595C338.263 109.21 339.713 110.249 341.537 110.602C341.617 110.617 341.669 110.694 341.654 110.775C341.64 110.845 341.578 110.894 341.51 110.894Z" fill="#1B1B43"/>
<path d="M326.776 183.209C326.697 183.209 326.631 183.148 326.629 183.069L324.713 141.767C324.713 141.76 324.713 141.752 324.713 141.745L328.101 108.448C328.11 108.367 328.181 108.307 328.263 108.316C328.344 108.325 328.403 108.397 328.395 108.478L325.008 141.764L326.916 182.909L338.39 182.398L341.165 143.96C341.171 143.879 341.239 143.818 341.323 143.824C341.404 143.83 341.466 143.901 341.459 143.982L338.674 182.551C338.669 182.625 338.608 182.684 338.534 182.688L326.782 183.211C326.782 183.211 326.778 183.211 326.776 183.211V183.209Z" fill="#1B1B43"/>
<path d="M328.838 180.951C328.76 180.951 328.696 180.89 328.692 180.811C328.687 180.73 328.749 180.66 328.832 180.656L336.789 180.236C336.871 180.231 336.94 180.293 336.944 180.376C336.948 180.457 336.886 180.526 336.804 180.531L328.847 180.951C328.847 180.951 328.841 180.951 328.838 180.951Z" fill="#1B1B43"/>
<path d="M344.713 71.1135C353.34 61.9144 336.646 61.6111 337.309 52.9911C338.009 43.8921 331.489 44.3724 331.489 44.3724C331.489 44.3724 325.674 39.2205 320.88 44.0774C315.01 50.0253 319.598 53.3644 315.06 58.3681C308.299 65.8243 316.234 74.1328 316.234 74.1328L344.71 71.1122L344.713 71.1135Z" fill="#1B1B43"/>
<path d="M364.209 65.4853C364.415 65.3247 368.659 60.8054 368.659 60.8054C368.659 60.8054 370.348 54.1123 370.979 54.8808C371.611 55.6493 370.658 59.8379 370.658 59.8379C370.658 59.8379 373.631 59.7802 373.894 60.5035C374.158 61.2268 374.033 65.3686 368.353 69.7878L364.209 65.4853Z" fill="#FFBC96"/>
<path d="M368.914 61.1635C368.747 59.9394 368.103 57.738 367.698 57.6996C367.293 57.6612 367.185 59.3547 367.153 60.6434C367.102 62.7349 366.162 64.4147 366.547 64.5465C367.411 64.8429 369.043 62.1064 368.913 61.1635H368.914Z" fill="#FFBC96"/>
<path d="M370.818 62.6608C370.753 62.6608 370.692 62.6471 370.635 62.621C370.46 62.5346 370.368 62.3438 370.364 62.0515C370.357 61.567 370.451 61.0743 370.637 60.6269C370.67 60.5473 370.763 60.5089 370.841 60.5418C370.921 60.5748 370.959 60.6667 370.926 60.7463C370.758 61.1539 370.671 61.6041 370.678 62.046C370.681 62.2052 370.714 62.3095 370.773 62.3383C370.81 62.3561 370.869 62.3479 370.921 62.3163C371.188 62.153 371.442 61.6768 371.599 61.0441C371.619 60.9604 371.704 60.9096 371.788 60.9302C371.872 60.9508 371.924 61.0359 371.902 61.1196C371.796 61.5437 371.551 62.2985 371.083 62.584C370.999 62.6347 370.906 62.6608 370.817 62.6608H370.818Z" fill="#D28572"/>
<path d="M371.616 63.0685C371.522 63.0685 371.431 63.0383 371.362 62.9793C371.221 62.8585 371.211 62.6691 371.217 62.5388C371.231 62.1819 371.309 61.8361 371.448 61.5067C371.482 61.4271 371.574 61.3901 371.653 61.423C371.733 61.4573 371.77 61.5493 371.737 61.6289C371.614 61.9226 371.544 62.2327 371.531 62.5511C371.527 62.654 371.539 62.7172 371.567 62.7419C371.59 62.7611 371.641 62.7611 371.684 62.7419C371.748 62.7117 371.807 62.6458 371.857 62.5882C372.231 62.1435 372.482 61.6055 372.585 61.0332C372.6 60.9482 372.681 60.8919 372.768 60.907C372.853 60.9221 372.909 61.0031 372.894 61.0895C372.782 61.7153 372.506 62.3041 372.097 62.7913C372.02 62.8819 371.933 62.9738 371.815 63.0287C371.751 63.0589 371.682 63.074 371.616 63.074V63.0685Z" fill="#D28572"/>
<path d="M372.74 63.0683C372.646 63.0683 372.555 63.0381 372.486 62.9791C372.345 62.8583 372.335 62.669 372.341 62.5372C372.349 62.3314 372.382 62.1543 372.422 61.9484C372.449 61.8016 372.478 61.6493 372.503 61.464C372.514 61.3775 372.593 61.3172 372.679 61.3281C372.765 61.3391 372.825 61.4173 372.814 61.5038C372.79 61.6987 372.758 61.862 372.731 62.0061C372.694 62.1996 372.662 62.3657 372.655 62.5482C372.651 62.6511 372.663 62.7142 372.691 62.739C372.714 62.7582 372.765 62.7582 372.808 62.739C372.872 62.7088 372.931 62.6443 372.98 62.5852C373.354 62.1406 373.606 61.6026 373.709 61.0303C373.724 60.9452 373.807 60.889 373.892 60.9041C373.977 60.9192 374.034 61.0015 374.018 61.0866C373.905 61.7124 373.63 62.3012 373.221 62.7884C373.144 62.8789 373.057 62.9709 372.939 63.0258C372.875 63.056 372.806 63.0697 372.74 63.0697V63.0683Z" fill="#D28572"/>
<path d="M369.373 63.955C369.357 63.955 369.344 63.9537 369.329 63.9495C369.245 63.9262 369.197 63.8384 369.222 63.756C369.515 62.7377 369.379 61.9458 368.795 61.2665C368.739 61.2006 368.745 61.1018 368.811 61.0456C368.877 60.9893 368.976 60.9961 369.032 61.062C369.684 61.8182 369.843 62.7281 369.522 63.8425C369.503 63.9111 369.44 63.9564 369.371 63.9564L369.373 63.955Z" fill="#D28572"/>
<path d="M337.029 74.8382L348.803 82.5827C351.722 84.7524 355.689 84.6481 358.242 82.1408C358.943 81.4518 370.189 69.6163 370.189 69.6163L366.033 63.5709L354.349 74.6941L343.481 66.1633C342.611 65.5197 341.611 65.1011 340.567 64.946L327.152 62.9451C327.152 62.9451 336.689 74.5857 337.028 74.8369L337.029 74.8382Z" fill="#CDE4F1"/>
<path d="M295.05 105.762L292.447 109.299C288.763 109.642 286.258 110.969 284.122 113.203L297.848 113.179L300.745 105.469L295.049 105.764L295.05 105.762Z" fill="#FFBC96"/>
<path d="M326.807 63.0932C323.164 64.9843 319.793 66.2675 316.315 68.344C315.198 69.0109 314.056 70.0183 312.932 71.3385C311.622 72.877 310.579 74.613 309.746 76.4383L304.579 87.8841L292.989 108.609L301.141 108.805L311.847 91.2231L326.809 63.0918L326.807 63.0932Z" fill="#CDE4F1"/>
<path d="M319.565 71.2768C311.593 76.5138 318.436 87.928 316.944 102.746C316.763 104.548 318.379 106.023 320.144 105.618C327.063 104.032 335.829 103.429 342.841 103.953C344.474 104.076 345.818 102.688 345.66 101.058C343.391 92.5228 342.368 83.0066 342.871 72.2841L331.204 62.9216L322.906 65.2918L319.564 71.2768H319.565Z" fill="#CDE4F1"/>
<path d="M324.713 53.3574V64.8471C324.713 67.4656 327.137 68.1765 328.901 68.086C330.403 68.0091 332.695 67.1555 332.669 64.8471V53.3574H324.713Z" fill="#FFBC96"/>
<path d="M324.713 58.7263V64.1157C326.868 63.6258 329.685 61.7195 330.643 59.0777L324.713 58.7263Z" fill="#D28572"/>
<path d="M335.032 47.8047L332.89 54.76C332.485 56.7184 332.265 58.0839 330.683 59.3081C328.305 61.1485 325.464 61.6137 324.465 60.9481C322.867 59.8804 322.261 59.0542 322.055 57.6777C321.919 56.8021 321.942 55.6973 321.973 54.1671C322.008 52.3226 322.055 49.8482 321.831 46.3925C321.802 45.9177 327.955 43.5173 327.955 43.5173L335.032 47.8061V47.8047Z" fill="#FFBC96"/>
<path d="M333.222 53.5084C332.743 51.7408 331.479 51.6173 330.643 48.4251C326.297 50.8556 323.866 46.3624 320.128 52.9924L320.294 47.5412L322.652 44.2997L327.329 43.2319L335.027 46.2896L336.28 49.899L333.222 53.5084Z" fill="#1B1B43"/>
<path d="M334.78 54.6002C335.155 53.4191 334.513 52.1612 333.346 51.7907C332.18 51.4202 330.93 52.0773 330.555 53.2584C330.18 54.4395 330.821 55.6974 331.988 56.0679C333.155 56.4384 334.404 55.7813 334.78 54.6002Z" fill="#FFBC96"/>
<path d="M316.388 88.3523C316.316 88.3523 316.253 88.2988 316.243 88.2261L314.769 77.9125C314.758 77.8316 314.813 77.7575 314.894 77.7465C314.975 77.7355 315.049 77.7918 315.06 77.8714L316.534 88.1849C316.545 88.2659 316.49 88.34 316.409 88.351C316.402 88.351 316.395 88.3523 316.388 88.3523Z" fill="#1B1B43"/>
<path d="M346.076 80.9852C346.046 80.9852 346.016 80.9756 345.989 80.9578L339.359 76.1695C339.294 76.1215 339.278 76.0295 339.326 75.9637C339.375 75.8978 339.466 75.8827 339.532 75.9307L346.162 80.719C346.228 80.767 346.243 80.859 346.195 80.9249C346.166 80.9647 346.121 80.9866 346.076 80.9866V80.9852Z" fill="#1B1B43"/>
<path d="M328.238 69.7385C326.709 69.7385 325.287 69.1443 324.182 68.3099C324.118 68.2605 324.104 68.1685 324.153 68.104C324.203 68.0395 324.295 68.0258 324.359 68.0752C326.433 69.6411 329.677 70.3232 332.566 67.5468C332.625 67.4905 332.718 67.4919 332.775 67.5509C332.831 67.6099 332.83 67.7033 332.771 67.7595C331.286 69.1855 329.712 69.7399 328.236 69.7399L328.238 69.7385Z" fill="#1B1B43"/>
<path d="M332.964 99.8434C332.902 99.8434 332.846 99.8049 332.824 99.7432C332.798 99.6663 332.839 99.5826 332.916 99.5565C336.097 98.4669 338.282 95.3927 339.598 90.157C339.618 90.0774 339.699 90.0308 339.777 90.05C339.856 90.0692 339.903 90.1502 339.884 90.2284C338.542 95.567 336.294 98.7098 333.011 99.8351C332.994 99.8406 332.979 99.8434 332.963 99.8434H332.964Z" fill="#1B1B43"/>
<path d="M307.328 89.6038C307.31 89.6038 307.292 89.6011 307.274 89.5942L304.72 88.6116C304.645 88.5828 304.606 88.4977 304.635 88.4208C304.664 88.3454 304.749 88.3069 304.826 88.3358L307.38 89.3184C307.455 89.3472 307.494 89.4323 307.465 89.5092C307.443 89.5682 307.387 89.6038 307.328 89.6038Z" fill="#1B1B43"/>
<path d="M352.51 76.5415C352.47 76.5415 352.43 76.525 352.402 76.4935C352.347 76.4331 352.349 76.3411 352.41 76.2849L354.249 74.5858C354.309 74.5309 354.402 74.5337 354.457 74.5941C354.512 74.6545 354.509 74.7464 354.449 74.8027L352.61 76.5017C352.581 76.5278 352.546 76.5415 352.51 76.5415Z" fill="#1B1B43"/>
<path d="M323.199 52.9842C323.225 53.3245 323.456 53.5826 323.714 53.5633C323.972 53.5428 324.16 53.2518 324.134 52.9115C324.108 52.5711 323.877 52.3131 323.619 52.3323C323.361 52.3529 323.173 52.6438 323.199 52.9842Z" fill="#1B1B43"/>
<path d="M325.295 56.0844C325.282 56.0844 325.27 56.083 325.258 56.0803L325.229 56.072C324.944 55.9979 324.554 55.8977 324.357 55.615C324.113 55.2623 324.418 54.8492 324.533 54.6941C324.791 54.3456 325.085 53.8748 325.062 53.3396C325.057 53.2586 325.121 53.19 325.203 53.1859C325.285 53.1831 325.352 53.2449 325.357 53.3272C325.384 53.9544 325.057 54.4814 324.771 54.8698C324.569 55.1415 324.515 55.3254 324.599 55.4476C324.732 55.6397 325.048 55.7207 325.302 55.7866L325.332 55.7948C325.41 55.8154 325.458 55.895 325.438 55.9746C325.421 56.0405 325.361 56.0844 325.295 56.0844Z" fill="#D28572"/>
<path d="M326.883 56.3589L324.345 57.0204C324.345 57.0204 325.801 59.0378 326.883 56.3589Z" fill="white"/>
<path d="M328.121 51.4128C327.923 51.3195 327.734 51.2399 327.54 51.1836C327.347 51.1274 327.153 51.0931 326.963 51.0876C326.772 51.0835 326.584 51.104 326.405 51.1617C326.226 51.2193 326.057 51.314 325.888 51.4458L325.748 51.3442C325.839 51.1205 326.021 50.9256 326.246 50.8076C326.47 50.6868 326.728 50.6347 326.976 50.647C327.225 50.658 327.466 50.7239 327.682 50.8337C327.896 50.9421 328.088 51.0931 328.231 51.2797L328.12 51.4128H328.121Z" fill="#1B1B43"/>
<path d="M322.676 51.889C322.797 51.502 323.172 51.1905 323.597 51.115C323.808 51.0738 324.029 51.0931 324.23 51.1617C324.429 51.2303 324.609 51.3497 324.732 51.5116L324.631 51.6516C324.456 51.5981 324.296 51.5583 324.138 51.5391C323.98 51.5199 323.825 51.5254 323.675 51.5501C323.524 51.5761 323.379 51.6242 323.238 51.6969C323.096 51.7696 322.963 51.8671 322.823 51.9837L322.678 51.8904L322.676 51.889Z" fill="#1B1B43"/>
<path opacity="0.5" d="M323.488 55.6302C323.552 56.5196 322.922 57.3046 322.056 57.4336C321.92 56.5964 321.944 55.5424 321.974 54.0808C322.77 54.1632 323.423 54.8054 323.489 55.6302H323.488Z" fill="#FF9289"/>
<path opacity="0.5" d="M327.314 54.8631C327.386 55.7923 328.197 56.4867 329.127 56.4153C330.056 56.3426 330.75 55.5315 330.679 54.6024C330.606 53.6733 329.795 52.9788 328.866 53.0502C327.937 53.1229 327.242 53.934 327.314 54.8631Z" fill="#FF9289"/>
<path d="M326.576 52.5794C326.602 52.9198 326.832 53.1778 327.09 53.1586C327.348 53.138 327.536 52.847 327.51 52.5067C327.484 52.1663 327.254 51.9083 326.996 51.9275C326.738 51.9481 326.55 52.2391 326.576 52.5794Z" fill="#1B1B43"/>
<path d="M332.472 54.7355C332.395 54.7355 332.331 54.6751 332.325 54.5982C332.251 53.466 332.721 52.7853 333.72 52.5781C333.801 52.5616 333.878 52.6124 333.894 52.692C333.911 52.7716 333.86 52.8498 333.78 52.8663C332.924 53.0447 332.556 53.5881 332.621 54.579C332.626 54.66 332.564 54.73 332.483 54.7355C332.481 54.7355 332.476 54.7355 332.474 54.7355H332.472Z" fill="#D28572"/>
<path d="M302.874 113.219H277.778V126.516H302.874V113.219Z" fill="white"/>
<path d="M303.092 126.735H277.559V113H303.092V126.735ZM277.996 126.297H302.654V113.437H277.996V126.297Z" fill="#1B1B43"/>
<path opacity="0.6" d="M302.871 117.45L277.972 121.244V115.572L302.871 117.45Z" fill="#CDE4F1"/>
<path d="M304.973 113.219H275.68V117.491H304.973V113.219Z" fill="white"/>
<path d="M305.193 117.712H275.458V112.998H305.193V117.712ZM275.899 117.27H304.751V113.439H275.899V117.27Z" fill="#1B1B43"/>
<path d="M263.496 59.8009C263.496 54.1233 258.893 49.5203 253.215 49.5203C247.538 49.5203 242.935 54.1233 242.935 59.8009C242.935 64.5864 246.208 68.5952 250.634 69.7425L249.533 73.6717L253.219 70.0815C258.896 70.0787 263.496 65.4771 263.496 59.8009Z" fill="#CDE4F1"/>
<path d="M249.237 60.653C249.826 60.653 250.304 60.175 250.304 59.5853C250.304 58.9956 249.826 58.5176 249.237 58.5176C248.647 58.5176 248.169 58.9956 248.169 59.5853C248.169 60.175 248.647 60.653 249.237 60.653Z" fill="white"/>
<path d="M253.214 60.653C253.803 60.653 254.281 60.175 254.281 59.5853C254.281 58.9956 253.803 58.5176 253.214 58.5176C252.624 58.5176 252.146 58.9956 252.146 59.5853C252.146 60.175 252.624 60.653 253.214 60.653Z" fill="white"/>
<path d="M257.192 60.653C257.782 60.653 258.26 60.175 258.26 59.5853C258.26 58.9956 257.782 58.5176 257.192 58.5176C256.603 58.5176 256.125 58.9956 256.125 59.5853C256.125 60.175 256.603 60.653 257.192 60.653Z" fill="white"/>
<path d="M304.289 65.112L301.16 63.2716C301.581 62.149 301.822 60.9372 301.822 59.6664C301.822 53.9888 297.219 49.3857 291.542 49.3857C285.864 49.3857 281.261 53.9888 281.261 59.6664C281.261 65.344 285.864 69.947 291.542 69.947C295.074 69.947 298.188 68.1642 300.04 65.451L304.29 65.1106L304.289 65.112Z" fill="#CDE4F1"/>
<path d="M287.658 60.4321C288.248 60.4321 288.726 59.954 288.726 59.3644C288.726 58.7747 288.248 58.2966 287.658 58.2966C287.068 58.2966 286.59 58.7747 286.59 59.3644C286.59 59.954 287.068 60.4321 287.658 60.4321Z" fill="white"/>
<path d="M291.637 60.4321C292.226 60.4321 292.704 59.954 292.704 59.3644C292.704 58.7747 292.226 58.2966 291.637 58.2966C291.047 58.2966 290.569 58.7747 290.569 59.3644C290.569 59.954 291.047 60.4321 291.637 60.4321Z" fill="white"/>
<path d="M295.615 60.4321C296.205 60.4321 296.683 59.954 296.683 59.3644C296.683 58.7747 296.205 58.2966 295.615 58.2966C295.025 58.2966 294.547 58.7747 294.547 59.3644C294.547 59.954 295.025 60.4321 295.615 60.4321Z" fill="white"/>
<path d="M232.924 193.007H0.220956C0.0988125 193.007 0 192.908 0 192.786C0 192.664 0.0988125 192.565 0.220956 192.565H232.924C233.046 192.565 233.145 192.664 233.145 192.786C233.145 192.908 233.046 193.007 232.924 193.007Z" fill="#1B1B43"/>
<path d="M376.739 193.081H242.796C242.633 193.081 242.501 192.949 242.501 192.786C242.501 192.623 242.633 192.491 242.796 192.491H376.739C376.902 192.491 377.034 192.623 377.034 192.786C377.034 192.949 376.902 193.081 376.739 193.081Z" fill="#1B1B43"/>
</svg>
