<svg width="30" height="30" viewBox="0 0 30 30" fill="none" xmlns="http://www.w3.org/2000/svg">
<circle cx="15" cy="15" r="15" fill="#4169E1" fill-opacity="0.08"/>
<path d="M22 19H8C7.63191 21.9091 9.61966 22.5454 11 23C12.8405 23 15.429 23.3928 19 22.5C21 21.9999 22.1534 20.6666 22 19Z" fill="#4671F3"/>
<path d="M13.5 10.5H16.5C18 10.5 18 9.75 18 9C18 7.5 17.25 7.5 16.5 7.5H13.5C12.75 7.5 12 7.5 12 9C12 10.5 12.75 10.5 13.5 10.5Z" stroke="#1E1E1E" stroke-width="1.5" stroke-miterlimit="10" stroke-linecap="round" stroke-linejoin="round"/>
<path d="M15 17.5C14.6925 17.5 14.4375 17.245 14.4375 16.9375C14.4375 16.2175 13.845 15.625 13.125 15.625C12.8175 15.625 12.5625 15.37 12.5625 15.0625C12.5625 14.755 12.8175 14.5 13.125 14.5C13.845 14.5 14.4375 13.9075 14.4375 13.1875C14.4375 12.88 14.6925 12.625 15 12.625C15.3075 12.625 15.625 12.88 15.625 13.1875C15.625 13.9075 16.2175 14.5 16.9375 14.5C17.245 14.5 17.5 14.755 17.5 15.0625C17.5 15.37 17.245 15.625 16.9375 15.625C16.2175 15.625 15.625 16.2175 15.625 16.9375C15.625 17.245 15.3075 17.5 15 17.5ZM14.6775 15.0625C14.79 15.16 14.9025 15.265 15 15.385C15.0975 15.2725 15.265 15.16 15.385 15.0625C15.2725 14.965 15.0975 14.86 15 14.74C14.9025 14.86 14.7975 14.965 14.6775 15.0625Z" fill="#1E1E1E"/>
<path d="M18 9.01501C20.4975 9.15001 21.75 10.0725 21.75 13.5V18C21.75 21 21 22.5 17.25 22.5H12.75C9 22.5 8.25 21 8.25 18V13.5C8.25 10.08 9.5025 9.15001 12 9.01501" stroke="#1E1E1E" stroke-width="1.5" stroke-miterlimit="10" stroke-linecap="round" stroke-linejoin="round"/>
</svg>
