<svg width="368" height="224" viewBox="0 0 368 224" fill="none" xmlns="http://www.w3.org/2000/svg">
<path d="M179.942 67.1139C179.506 67.1147 179.073 67.0416 178.662 66.8979L172.056 64.6077C171.406 64.3806 170.828 63.9873 170.377 63.467C169.927 62.9467 169.621 62.3176 169.49 61.6422L168.167 54.7661C168.037 54.09 168.087 53.3916 168.313 52.7412C168.538 52.0907 168.931 51.5111 169.452 51.0607L174.74 46.4803C175.262 46.0298 175.892 45.7239 176.569 45.5931C177.246 45.4623 177.945 45.5112 178.597 45.7349L185.208 48.0305C185.859 48.2558 186.44 48.6484 186.891 49.1689C187.342 49.6894 187.649 50.3195 187.779 50.9959L189.097 57.8666C189.226 58.543 189.176 59.2414 188.951 59.8924C188.727 60.5433 188.336 61.1242 187.817 61.5774L182.524 66.1579C181.806 66.7773 180.89 67.1168 179.942 67.1139ZM173.676 60.5997L179.855 62.7603L184.803 58.4824L183.566 52.06L177.387 49.8994L172.445 54.1828L173.676 60.5997Z" fill="#F5F5F5"/>
<path d="M257.097 47.1567C256.661 47.1574 256.228 47.0844 255.816 46.9407L252.468 45.7793C251.818 45.5532 251.238 45.1603 250.788 44.6398C250.338 44.1193 250.032 43.4897 249.902 42.8139L249.232 39.3354C249.103 38.6597 249.153 37.9619 249.377 37.3117C249.602 36.6615 249.993 36.0816 250.512 35.6299L253.213 33.3073C253.734 32.8572 254.364 32.552 255.04 32.4221C255.716 32.2922 256.414 32.3423 257.064 32.5673L260.408 33.7286C261.059 33.9539 261.639 34.3466 262.09 34.8671C262.542 35.3876 262.848 36.0176 262.979 36.694L263.649 40.1726C263.778 40.8487 263.728 41.5471 263.502 42.1976C263.277 42.848 262.884 43.4276 262.363 43.878L259.662 46.2006C258.948 46.8143 258.038 47.1533 257.097 47.1567ZM254.099 41.7552L257.016 42.7653L259.344 40.7451L258.76 37.7203L255.849 36.7102L253.515 38.7628L254.099 41.7552Z" fill="#F5F5F5"/>
<path d="M349.592 98.0537C349.164 98.0507 348.743 97.9521 348.359 97.7652C347.975 97.5783 347.638 97.3077 347.372 96.9734L345.487 94.6184C345.175 94.2288 344.972 93.7645 344.896 93.2716C344.82 92.7788 344.875 92.2747 345.054 91.8096L346.135 89.0008C346.316 88.5364 346.615 88.1277 347.004 87.8158C347.393 87.5039 347.857 87.2997 348.349 87.2237L351.331 86.7646C351.825 86.6899 352.329 86.7458 352.795 86.9268C353.26 87.1078 353.67 87.4076 353.983 87.7963L355.868 90.1514C356.179 90.5409 356.383 91.0052 356.459 91.4981C356.535 91.9909 356.48 92.495 356.3 92.9601L355.22 95.7689C355.039 96.2343 354.739 96.6438 354.349 96.9558C353.959 97.2679 353.494 97.4715 353 97.546L350.018 98.0051C349.878 98.0323 349.735 98.0485 349.592 98.0537ZM351.779 88.909H351.677L348.695 89.3681C348.576 89.3859 348.463 89.4346 348.368 89.5095C348.273 89.5844 348.2 89.6827 348.155 89.7949L347.075 92.6036C347.031 92.7152 347.017 92.8365 347.035 92.955C347.053 93.0736 347.102 93.1853 347.177 93.2788L349.062 95.6339C349.139 95.7262 349.237 95.7975 349.349 95.841C349.46 95.8845 349.581 95.8987 349.7 95.8823L352.681 95.4232C352.801 95.4065 352.914 95.3582 353.009 95.2832C353.104 95.2082 353.177 95.1092 353.221 94.9965L354.302 92.1877C354.345 92.0759 354.358 91.9549 354.34 91.8366C354.322 91.7182 354.273 91.6066 354.199 91.5125L352.314 89.1575C352.248 89.0795 352.167 89.0168 352.074 88.9739C351.982 88.931 351.881 88.9088 351.779 88.909Z" fill="#E0E0E0"/>
<path d="M13.0898 121.529C12.5419 121.528 12.0011 121.405 11.5068 121.169C11.0124 120.933 10.5771 120.589 10.2324 120.163L5.80321 114.632C5.40568 114.13 5.14661 113.533 5.05183 112.9C4.95706 112.267 5.02989 111.62 5.26306 111.024L7.85038 104.418C8.08362 103.821 8.46923 103.296 8.96872 102.895C9.46821 102.494 10.0641 102.231 10.697 102.133L17.7189 101.052C18.3528 100.957 19.0005 101.03 19.5976 101.263C20.1946 101.496 20.7202 101.882 21.1218 102.381L25.5132 107.901C25.9112 108.404 26.1706 109.002 26.2653 109.636C26.3601 110.27 26.287 110.918 26.0534 111.515L23.5147 118.126C23.2818 118.725 22.8957 119.251 22.3951 119.653C21.8945 120.055 21.2971 120.318 20.6627 120.417L13.6408 121.497C13.4584 121.524 13.2741 121.535 13.0898 121.529ZM8.80104 112.347L13.1222 117.748L19.9821 116.7L22.4992 110.219L18.178 104.817L11.3181 105.871L8.80104 112.347Z" fill="#E0E0E0"/>
<path d="M31.012 73.1156H26.8366C26.3391 73.1171 25.8499 72.9883 25.4178 72.7418C24.9856 72.4954 24.6256 72.1401 24.3735 71.7112L22.2832 68.0976C22.0365 67.6638 21.9067 67.1733 21.9067 66.6743C21.9067 66.1752 22.0365 65.6848 22.2832 65.251L24.3735 61.6374C24.6231 61.2051 24.9822 60.8462 25.4146 60.5968C25.847 60.3474 26.3375 60.2164 26.8366 60.2168H31.012C31.5111 60.2164 32.0016 60.3474 32.434 60.5968C32.8664 60.8462 33.2255 61.2051 33.475 61.6374L35.5654 65.2294C35.8121 65.6632 35.9419 66.1536 35.9419 66.6527C35.9419 67.1517 35.8121 67.6422 35.5654 68.076L33.475 71.7112C33.2226 72.1397 32.8625 72.4948 32.4304 72.7411C31.9983 72.9875 31.5093 73.1166 31.012 73.1156ZM26.8366 62.3558C26.7166 62.356 26.5986 62.3876 26.4945 62.4472C26.3903 62.5069 26.3034 62.5927 26.2425 62.6961L24.1575 66.3097C24.0967 66.4138 24.0647 66.5321 24.0647 66.6527C24.0647 66.7732 24.0967 66.8916 24.1575 66.9957L26.2425 70.6309C26.3032 70.7349 26.3898 70.8215 26.4939 70.8821C26.5981 70.9427 26.7161 70.9752 26.8366 70.9766H31.012C31.1343 70.9771 31.2546 70.9454 31.3608 70.8848C31.467 70.8241 31.5553 70.7365 31.6169 70.6309L33.7019 67.0173C33.7627 66.9132 33.7947 66.7948 33.7947 66.6743C33.7947 66.5538 33.7627 66.4354 33.7019 66.3313L31.6169 62.6961C31.556 62.5927 31.4691 62.5069 31.3649 62.4472C31.2608 62.3876 31.1428 62.356 31.0228 62.3558H26.8366Z" fill="#EBEBEB"/>
<path d="M102.258 32.2532L94.1121 27.1272L84.1139 10.253L70.2051 1.74023L67.5151 4.65164L68.9249 6.55296L73.3163 12.4406L90.7469 35.8398L97.8553 39.7505L102.258 32.2532Z" fill="#EBEBEB"/>
<path d="M92.0217 44.3842L89.6882 36.6168L64.0744 7.35156L60.6606 9.37172L66.0675 24.7606L80.9378 39.3662L84.2705 48.4839L92.0217 44.3842Z" fill="#EBEBEB"/>
<path d="M105.898 33.7012C105.898 33.7012 134.823 49.5761 140.651 54.9344C146.48 60.2927 160.097 82.6062 158.714 85.4582C157.331 88.3102 156.272 88.6991 153.134 85.9336C149.996 83.168 139.852 67.8818 137.13 65.4079C134.407 62.934 100.518 43.0836 100.518 43.0836L105.898 33.7012Z" fill="#E0E0E0"/>
<path d="M86.2854 40.5015C91.3449 40.5015 95.4464 36.4001 95.4464 31.3406C95.4464 26.2812 91.3449 22.1797 86.2854 22.1797C81.226 22.1797 77.1245 26.2812 77.1245 31.3406C77.1245 36.4001 81.226 40.5015 86.2854 40.5015Z" fill="#EBEBEB"/>
<path d="M84.0114 40.2047C84.7492 40.3436 85.4971 40.4212 86.2476 40.437C87.1262 40.44 88.0003 40.3107 88.8404 40.0535C90.8625 39.4617 92.6155 38.1843 93.7983 36.4406C94.9811 34.697 95.5199 32.5959 95.3221 30.4982C95.2303 29.6227 95.0044 28.7664 94.6524 27.9595C94.4854 27.5453 94.2905 27.1428 94.069 26.755C93.8321 26.3633 93.5667 25.9896 93.275 25.6369C92.0696 24.1418 90.4165 23.0727 88.5586 22.5866C86.7007 22.1005 84.7359 22.223 82.9527 22.9361C82.5302 23.1061 82.1188 23.3028 81.7212 23.5249C81.3444 23.7583 80.9836 24.0163 80.6409 24.2973C79.9572 24.8358 79.3613 25.4772 78.8746 26.1986C77.9564 27.5291 77.4101 29.0805 77.292 30.6927C77.2044 31.9734 77.3876 33.2582 77.8297 34.4635C78.2717 35.6687 78.9627 36.7672 79.8577 37.6876C80.4656 38.3291 81.1667 38.8753 81.9373 39.3081C82.602 39.6582 83.2939 39.9544 84.006 40.1939C83.9576 40.2001 83.9086 40.2001 83.8602 40.1939L83.4389 40.0751C83.2094 40.0168 82.9853 39.9391 82.7691 39.8428C82.4658 39.728 82.1715 39.5908 81.8886 39.4323C81.0906 39.0202 80.3616 38.4863 79.7281 37.8496C78.7979 36.9219 78.076 35.8067 77.6103 34.5783C77.1446 33.3498 76.9459 32.0363 77.0273 30.7251C77.1445 29.0667 77.7041 27.4701 78.6478 26.1014C79.1489 25.3573 79.7609 24.6942 80.4626 24.1353C81.1818 23.5376 81.9937 23.0614 82.8663 22.7255C84.7019 21.9893 86.7251 21.8606 88.6391 22.3583C90.5532 22.8561 92.2574 23.954 93.5018 25.491C93.7979 25.8575 94.0686 26.2437 94.3121 26.647C94.5412 27.0482 94.7415 27.4651 94.9116 27.8947C95.255 28.7208 95.4664 29.5957 95.5382 30.4874C95.6867 32.0326 95.441 33.5902 94.8242 35.0146C94.2074 36.4391 93.2395 37.684 92.011 38.6329C91.0768 39.3622 90.0088 39.9017 88.8674 40.2209C88.0119 40.4713 87.1225 40.5861 86.2314 40.5612C85.906 40.5625 85.581 40.539 85.2592 40.491C85.0208 40.4743 84.7841 40.4382 84.5516 40.3829L84.1249 40.2803C84.0837 40.2605 84.0455 40.2351 84.0114 40.2047Z" fill="#E0E0E0"/>
<path d="M84.989 36.3484C83.9978 36.092 83.105 35.5473 82.4235 34.7833C81.7419 34.0193 81.3024 33.0703 81.1604 32.0564C81.0184 31.0425 81.1803 30.0092 81.6258 29.0874C82.0712 28.1655 82.7801 27.3965 83.6627 26.8777C84.5453 26.3589 85.562 26.1135 86.5841 26.1727C87.6062 26.2319 88.5877 26.5929 89.4046 27.2102C90.2214 27.8274 90.8368 28.673 91.1729 29.6401C91.509 30.6072 91.5506 31.6522 91.2925 32.643C90.947 33.9696 90.0891 35.1049 88.9073 35.7997C87.7254 36.4944 86.3162 36.6917 84.989 36.3484Z" fill="#E0E0E0"/>
<path d="M84.989 36.3474C84.989 36.3096 85.4373 36.4554 86.2475 36.4554C87.2172 36.4466 88.1646 36.164 88.9807 35.6404C89.7968 35.1167 90.4484 34.3732 90.8604 33.4954C91.2381 32.6751 91.391 31.7691 91.3033 30.8703C91.205 29.8795 90.816 28.9399 90.1852 28.1695C89.5115 27.3373 88.5888 26.7429 87.5525 26.4736C86.5162 26.2043 85.4208 26.2743 84.4272 26.6733C83.9555 26.849 83.5158 27.1008 83.1255 27.4187C82.7415 27.7249 82.4079 28.0894 82.137 28.499C81.6239 29.2411 81.3164 30.1058 81.2458 31.0053C81.1863 31.7905 81.3122 32.5787 81.613 33.3063C82.0487 34.3741 82.8305 35.2644 83.8331 35.8342C84.2075 36.0366 84.5935 36.217 84.989 36.3744C84.5649 36.2999 84.156 36.1557 83.7791 35.9477C82.7255 35.3964 81.8953 34.4975 81.4294 33.4036C81.103 32.6483 80.9605 31.8264 81.0135 31.0053C81.0748 30.0597 81.3882 29.1477 81.9209 28.364C82.1975 27.9332 82.5381 27.547 82.931 27.2189C83.3423 26.8789 83.8055 26.6072 84.303 26.414C85.351 25.9898 86.5077 25.9142 87.602 26.1982C88.6964 26.4823 89.6703 27.1109 90.3797 27.9913C91.0517 28.8025 91.4672 29.7952 91.5734 30.8433C91.6578 31.7872 91.4881 32.7364 91.0819 33.5926C90.7278 34.334 90.2041 34.9817 89.5532 35.4831C88.6121 36.2119 87.4483 36.5934 86.2583 36.5634C85.8261 36.5631 85.397 36.49 84.989 36.3474Z" fill="#E0E0E0"/>
<path d="M100.257 31.9469L96.5135 38.4616C95.4167 40.3705 96.0751 42.8071 97.984 43.9039L98.3353 44.1057C100.244 45.2025 102.681 44.5441 103.778 42.6352L107.521 36.1205C108.617 34.2116 107.959 31.775 106.05 30.6782L105.699 30.4764C103.79 29.3796 101.353 30.0379 100.257 31.9469Z" fill="#EBEBEB"/>
<path d="M96.5104 38.4642C96.2867 38.9452 96.1356 39.4567 96.0621 39.9821C96.0063 40.5994 96.0894 41.2213 96.3052 41.8024C96.4393 42.16 96.621 42.4979 96.8453 42.807C97.1091 43.1463 97.4265 43.44 97.7852 43.6767C98.1786 43.9419 98.6031 44.1578 99.0491 44.3195C99.8287 44.5835 100.672 44.5912 101.457 44.3415C102.241 44.0917 102.925 43.5975 103.408 42.9313C104.65 40.8625 105.963 38.4913 107.378 36.0552C107.702 35.4776 107.872 34.8267 107.872 34.1647C107.872 33.5026 107.702 32.8517 107.378 32.2741C107.092 31.7195 106.672 31.2444 106.157 30.8914C105.658 30.5404 105.095 30.2908 104.499 30.1568C103.948 30.0448 103.378 30.0544 102.83 30.185C102.283 30.3156 101.77 30.5641 101.329 30.913C100.481 31.5557 100.108 32.5334 99.6109 33.322L97.3855 37.1031L96.7697 38.124C96.7043 38.2468 96.6264 38.3626 96.5374 38.4697C96.5911 38.3401 96.6524 38.2138 96.7211 38.0915C96.8669 37.8323 97.056 37.4812 97.2936 37.0491C97.8338 36.12 98.5414 34.8236 99.4542 33.2302L100.167 31.9663C100.43 31.4942 100.78 31.0763 101.199 30.7347C101.662 30.3625 102.2 30.0954 102.777 29.9517C103.353 29.8081 103.954 29.7914 104.537 29.9029C105.161 30.0391 105.751 30.296 106.276 30.6591C106.851 31.0189 107.325 31.5189 107.654 32.1121C108.007 32.7326 108.193 33.4344 108.193 34.1485C108.193 34.8625 108.007 35.5643 107.654 36.1848C106.233 38.6317 104.953 40.9651 103.651 43.0771C103.293 43.5567 102.835 43.9532 102.309 44.2394C101.784 44.5257 101.202 44.6948 100.605 44.7354C100.065 44.7665 99.5236 44.6931 99.0113 44.5193C98.5509 44.3426 98.1138 44.1104 97.7096 43.8279C97.3351 43.5759 97.0048 43.2638 96.7319 42.9043C96.5038 42.5703 96.3221 42.2069 96.1917 41.824C96.0108 41.3343 95.93 40.8134 95.9541 40.2919C95.9782 39.7705 96.1068 39.2592 96.3322 38.7883C96.3824 38.6755 96.442 38.5671 96.5104 38.4642Z" fill="#E0E0E0"/>
<path d="M85.3455 53.0973C85.3455 53.0973 96.3051 84.2207 100.648 90.8429C104.991 97.4652 124.787 114.523 127.823 113.626C130.858 112.73 131.393 111.741 129.2 108.225C127.007 104.709 113.536 92.1879 111.548 89.0928C109.56 85.9978 95.4462 49.3379 95.4462 49.3379L85.3455 53.0973Z" fill="#E0E0E0"/>
<path d="M91.5706 44.6174L84.5339 47.2511C82.472 48.0228 81.4261 50.3199 82.1979 52.3818L82.3399 52.7612C83.1116 54.8231 85.4087 55.869 87.4706 55.0972L94.5073 52.4635C96.5692 51.6918 97.6151 49.3947 96.8434 47.3328L96.7013 46.9534C95.9296 44.8915 93.6325 43.8456 91.5706 44.6174Z" fill="#EBEBEB"/>
<path d="M91.5734 44.6124C91.6971 44.5479 91.8275 44.4971 91.9623 44.4612C92.3502 44.3505 92.7527 44.2995 93.156 44.3099C93.7956 44.3312 94.4212 44.5033 94.9817 44.8122C95.3296 45.012 95.6493 45.2572 95.9324 45.5414C96.241 45.8706 96.4961 46.246 96.6886 46.6542C96.902 47.099 97.058 47.569 97.1531 48.0531C97.2479 48.5907 97.2332 49.1418 97.1099 49.6736C96.9702 50.2589 96.7045 50.8066 96.3313 51.2787C95.9581 51.7507 95.4865 52.1357 94.9493 52.4067C92.6591 53.3304 90.1474 54.2324 87.5006 55.2371C86.8307 55.484 86.1085 55.5541 85.4036 55.4406C84.6987 55.327 84.035 55.0337 83.4765 54.5889C82.9444 54.1581 82.5285 53.6011 82.2666 52.9685C81.9901 52.3861 81.8322 51.7544 81.8021 51.1104C81.7821 50.512 81.8937 49.9165 82.1289 49.3658C82.3641 48.8152 82.7171 48.3229 83.1632 47.9235C83.5684 47.5666 84.0377 47.2898 84.546 47.1079L85.9072 46.6055L90.0231 45.1147L91.1467 44.7204C91.276 44.6686 91.4098 44.6288 91.5464 44.6016C91.4274 44.6736 91.3005 44.7316 91.1683 44.7744L90.088 45.2174L86.0044 46.7946C85.1564 47.1565 84.1193 47.3672 83.3469 48.0964C82.9311 48.4766 82.6028 48.9425 82.3846 49.4619C82.1664 49.9813 82.0635 50.5419 82.0829 51.105C82.122 51.7142 82.2779 52.3102 82.5421 52.8605C82.7891 53.4447 83.1792 53.9574 83.6764 54.3513C84.1975 54.766 84.817 55.0391 85.4747 55.1442C86.1323 55.2492 86.806 55.1826 87.4304 54.9508C90.061 53.9516 92.6159 53.0387 94.8629 52.1529C95.5958 51.7813 96.192 51.1869 96.5656 50.455C96.9393 49.7232 97.0712 48.8917 96.9424 48.0801C96.8531 47.6119 96.7062 47.1565 96.5049 46.7244C96.3302 46.329 96.0932 45.9642 95.8027 45.6441C95.5382 45.3662 95.2364 45.1262 94.9061 44.9311C94.3704 44.6181 93.7696 44.4332 93.1506 44.3909C92.6166 44.3839 92.0847 44.4585 91.5734 44.6124Z" fill="#E0E0E0"/>
<path d="M368 223.748C368 223.823 285.66 223.888 184.112 223.888C82.5638 223.888 0.207275 223.823 0.207275 223.748C0.207275 223.672 82.5314 223.607 184.112 223.607C285.692 223.607 368 223.672 368 223.748Z" fill="#263238"/>
<path d="M28.9163 161.953C29.0621 161.5 45.8931 106.48 45.8931 106.48L45.4718 99.6472L49.874 92.3984L55.3403 94.2079L54.5949 102.31L50.7059 108.219L33.7776 163.536L28.9163 161.953Z" fill="#E0E0E0"/>
<path d="M28.9163 161.954L29.2403 162.046L30.1748 162.338L33.7776 163.466L33.7182 163.499C36.4567 154.527 42.7873 133.764 50.587 108.198L54.4707 102.295V102.354C54.7084 99.7667 54.9622 97.0173 55.2161 94.2518L55.3133 94.3976L54.8596 94.2518L49.847 92.5935L50.0091 92.5341L45.6069 99.7829V99.7019C45.7473 102.032 45.8859 104.309 46.0228 106.535V106.583C41.102 122.566 36.8402 136.41 33.81 146.263C32.2868 151.194 31.0661 155.121 30.2288 157.827C29.8129 159.178 29.4834 160.22 29.262 160.933L29.0081 161.738L28.9163 162.013C28.9346 161.924 28.958 161.836 28.9865 161.749C29.0405 161.56 29.1161 161.295 29.2187 160.955C29.4348 160.242 29.7589 159.205 30.1478 157.865C30.9634 155.164 32.1518 151.232 33.6426 146.306C36.6566 136.421 40.8806 122.539 45.7635 106.502V106.551C45.6231 104.326 45.4808 102.048 45.3368 99.7181V99.6748V99.637L49.739 92.3882L49.793 92.291L49.901 92.3288L54.919 93.9817L55.3673 94.1329L55.4754 94.1653V94.2788C55.2215 97.0605 54.9676 99.8099 54.7246 102.381V102.419V102.446L50.8409 108.355V108.317C42.9601 133.828 36.5756 154.565 33.81 163.537V163.585H33.7614L30.1532 162.392L29.2403 162.084L28.9163 161.954Z" fill="#263238"/>
<path d="M24.8597 164.617L17.2976 174.837L6.72692 213.188C6.72692 213.188 5.20911 221.009 13.8461 223.229C23.5688 225.724 25.7834 218.292 25.7834 218.292L36.0462 180.843L35.9382 167.858L38.4715 165.001C38.586 164.868 38.6664 164.709 38.7055 164.537C38.7447 164.366 38.7416 164.188 38.6964 164.018C38.6511 163.848 38.5652 163.692 38.446 163.563C38.3268 163.434 38.178 163.336 38.0123 163.278L25.8698 159.27C25.701 159.217 25.5219 159.207 25.3481 159.239C25.1744 159.272 25.0113 159.347 24.8731 159.457C24.735 159.568 24.6261 159.71 24.556 159.872C24.4858 160.035 24.4566 160.212 24.4708 160.388L24.8597 164.617Z" fill="#FF725E"/>
<path d="M36.0029 168.305C35.9759 168.381 33.4318 167.641 30.3205 166.652C27.2093 165.664 24.6976 164.8 24.7246 164.724C24.7516 164.648 27.2903 165.394 30.4069 166.382C33.5236 167.371 36.0245 168.23 36.0029 168.305Z" fill="#263238"/>
<path d="M36.0677 180.849C35.8117 180.833 35.5582 180.789 35.3115 180.719C34.8254 180.617 34.134 180.449 33.2751 180.233C31.5575 179.806 29.2024 179.153 26.6367 178.332C24.071 177.511 21.7754 176.679 20.1171 176.036C19.2961 175.712 18.6317 175.442 18.178 175.247C17.9371 175.161 17.7055 175.05 17.4866 174.918C17.7383 174.969 17.9843 175.045 18.2212 175.145L20.1873 175.847C21.851 176.441 24.152 177.246 26.7177 178.062C29.2834 178.877 31.6277 179.563 33.3237 180.044L35.3385 180.611C35.5883 180.668 35.8324 180.747 36.0677 180.849Z" fill="#263238"/>
<g opacity="0.3">
<path d="M21.8514 178.902L21.5869 178.825C20.6419 178.55 19.6523 179.092 19.3766 180.037L10.0163 212.13C9.74064 213.075 10.2833 214.065 11.2284 214.34L11.4928 214.417C12.4379 214.693 13.4275 214.15 13.7031 213.205L23.0635 181.113C23.3391 180.168 22.7964 179.178 21.8514 178.902Z" fill="black"/>
</g>
<g opacity="0.3">
<path d="M27.2703 180.66L27.0059 180.583C26.0608 180.307 25.0712 180.85 24.7956 181.795L15.4352 213.888C15.1596 214.833 15.7023 215.822 16.6473 216.098L16.9118 216.175C17.8569 216.451 18.8464 215.908 19.1221 214.963L28.4824 182.87C28.7581 181.925 28.2154 180.936 27.2703 180.66Z" fill="black"/>
</g>
<g opacity="0.3">
<path d="M32.1586 182.276L31.8945 182.197C30.9505 181.918 29.9588 182.457 29.6793 183.401L20.1904 215.455C19.9109 216.399 20.4496 217.391 21.3936 217.671L21.6577 217.749C22.6017 218.028 23.5934 217.489 23.8729 216.546L33.3618 184.491C33.6413 183.547 33.1026 182.555 32.1586 182.276Z" fill="black"/>
</g>
<path d="M50.6679 108.225C49.8419 108.086 49.0339 107.856 48.2589 107.539C47.4541 107.312 46.6783 106.993 45.947 106.588C46.7705 106.73 47.5763 106.96 48.3507 107.274C49.1569 107.501 49.9344 107.82 50.6679 108.225Z" fill="#263238"/>
<path d="M55.351 94.2084C55.3106 94.4656 55.2473 94.7186 55.162 94.9646C55.0053 95.5048 54.8001 96.1853 54.5462 97.028L52.3856 104.05L52.3424 104.185L52.2073 104.142L49.7173 103.272L47.1569 102.375L47.0327 102.332L47.0705 102.208C47.8483 99.4316 48.5343 96.9956 49.0421 95.1861C49.2905 94.3488 49.4904 93.6574 49.647 93.1389C49.7105 92.8879 49.7936 92.6423 49.8955 92.4043C49.8659 92.6623 49.8135 92.9172 49.7389 93.1659L49.1987 95.2347C48.718 97.0334 48.0698 99.4748 47.3244 102.257L47.238 102.089L49.8037 102.986L52.2884 103.855L52.1101 103.947L54.3787 96.974C54.6596 96.1367 54.9189 95.4561 55.0701 94.9376C55.143 94.687 55.237 94.4431 55.351 94.2084Z" fill="#263238"/>
<path d="M214.673 39.2586C214.237 39.2594 213.805 39.1863 213.393 39.0426L206.776 36.7523C206.127 36.5253 205.548 36.132 205.098 35.6117C204.648 35.0914 204.342 34.4623 204.211 33.7869L202.887 26.9108C202.757 26.2347 202.808 25.5363 203.034 24.8858C203.259 24.2354 203.652 23.6558 204.173 23.2054L209.466 18.6249C209.987 18.1754 210.617 17.8704 211.293 17.7406C211.969 17.6107 212.667 17.6605 213.318 17.8849L219.929 20.1752C220.579 20.4014 221.159 20.7944 221.61 21.3147C222.061 21.835 222.368 22.4646 222.5 23.1406L223.823 30.0167C223.951 30.6928 223.899 31.3904 223.673 32.0403C223.448 32.6902 223.056 33.27 222.538 33.7221L217.244 38.3026C216.53 38.9195 215.617 39.2589 214.673 39.2586ZM208.408 32.7444L214.592 34.905L219.535 30.627L218.298 24.1777L212.118 22.0171L207.165 26.3383L208.408 32.7444Z" fill="#E0E0E0"/>
<path d="M208.408 32.7447C208.363 32.605 208.327 32.4624 208.3 32.318L208.03 31.0487C207.797 29.909 207.489 28.3047 207.074 26.344C207.07 26.3255 207.07 26.3063 207.076 26.2883C207.082 26.2703 207.092 26.2541 207.106 26.2413L212.032 21.9202C212.052 21.9097 212.074 21.9043 212.097 21.9043C212.12 21.9043 212.142 21.9097 212.162 21.9202L218.341 24.0807L218.438 24.1888V24.2806V24.3886L218.481 24.5993L218.563 25.0206C218.617 25.2961 218.665 25.5608 218.719 25.8524C218.827 26.3926 218.93 26.9327 219.032 27.4729C219.238 28.5532 219.438 29.5903 219.627 30.5895C219.631 30.6122 219.63 30.6357 219.622 30.6575C219.614 30.6794 219.601 30.6988 219.583 30.7138L214.657 34.9809C214.642 34.99 214.624 34.9947 214.606 34.9947C214.588 34.9947 214.57 34.99 214.555 34.9809L210.034 33.3605L208.818 32.9068C208.678 32.861 208.54 32.805 208.408 32.7393C208.562 32.7716 208.714 32.8149 208.861 32.869L210.109 33.2687L214.625 34.7811H214.522L219.448 30.4599L219.405 30.5895C219.211 29.5849 219.005 28.5478 218.8 27.4729C218.698 26.9327 218.59 26.3926 218.481 25.8524C218.427 25.577 218.379 25.3123 218.325 25.0206L218.244 24.5993L218.201 24.3886V24.2806V24.2266V24.1888C218.201 24.1888 218.373 24.3886 218.287 24.2914L212.113 22.1308H212.243L207.279 26.3926L207.317 26.29C207.668 28.2453 207.959 29.8387 208.165 30.9784C208.256 31.5186 208.332 31.9453 208.386 32.2694C208.408 32.4268 208.415 32.586 208.408 32.7447Z" fill="#263238"/>
<path d="M214.673 39.2594C214.673 39.2594 214.906 39.2594 215.343 39.1729C215.974 39.0529 216.565 38.7803 217.066 38.3789L222.441 33.6742C223.029 33.1665 223.449 32.4922 223.645 31.7405C223.751 31.3445 223.795 30.9345 223.775 30.5252C223.727 30.0983 223.655 29.6745 223.559 29.2558C223.218 27.5111 222.857 25.653 222.478 23.6977C222.412 23.2086 222.279 22.7307 222.084 22.2771C221.874 21.8194 221.575 21.4084 221.204 21.0679C220.833 20.7275 220.398 20.4647 219.924 20.2947L218.4 19.7546L215.273 18.6743L213.652 18.1341C213.139 17.9181 212.589 17.8026 212.032 17.7938C211.472 17.7932 210.919 17.9149 210.412 18.1503C209.918 18.3979 209.466 18.7204 209.072 19.1064L206.571 21.267L204.157 23.3574C203.422 24.0309 202.979 24.9654 202.925 25.9609C202.917 26.443 202.972 26.9241 203.087 27.3923C203.179 27.873 203.265 28.343 203.357 28.8075C203.53 29.7365 203.703 30.6332 203.865 31.5082C204.027 32.3833 204.184 33.2259 204.351 34.0145C204.552 34.7623 204.974 35.4323 205.561 35.9374C205.834 36.1704 206.137 36.3648 206.463 36.5154C206.782 36.6558 207.122 36.7585 207.435 36.8773L209.245 37.5147L212.14 38.541C212.739 38.7827 213.352 38.9865 213.977 39.1513C214.409 39.2324 214.646 39.227 214.646 39.2378C214.42 39.2652 214.192 39.2652 213.966 39.2378C213.334 39.0923 212.713 38.9028 212.108 38.6706L209.223 37.6821L207.408 37.0664C207.084 36.9529 206.755 36.8557 206.414 36.7099C206.07 36.5544 205.748 36.3527 205.458 36.1103C204.835 35.5838 204.385 34.8817 204.167 34.0955C203.984 33.2745 203.838 32.4427 203.665 31.573C203.492 30.7034 203.319 29.8014 203.125 28.8723C203.031 28.415 202.939 27.945 202.849 27.4625C202.728 26.9751 202.67 26.474 202.677 25.9717C202.733 24.9051 203.204 23.9028 203.989 23.1791L206.398 21.0834L208.899 18.9228C209.115 18.7391 209.315 18.5555 209.547 18.3826C209.784 18.2067 210.037 18.0547 210.303 17.9289C210.842 17.6791 211.428 17.55 212.021 17.5508C212.609 17.56 213.19 17.681 213.733 17.9073L215.354 18.4474L218.481 19.5277L220.005 20.0679C220.519 20.2514 220.991 20.5361 221.393 20.9051C221.787 21.267 222.105 21.7041 222.327 22.1907C222.531 22.6647 222.669 23.1645 222.738 23.6761C223.098 25.6386 223.449 27.4931 223.791 29.2396C223.888 29.6687 223.959 30.1035 224.002 30.5414C224.033 31.1632 223.92 31.7838 223.673 32.3552C223.426 32.9265 223.05 33.4333 222.576 33.8363L217.142 38.4762C216.618 38.8758 216.004 39.1393 215.354 39.2432C215.129 39.2765 214.9 39.2819 214.673 39.2594Z" fill="#263238"/>
<path d="M168.637 28.0127C168.208 28.0117 167.786 27.914 167.4 27.7269C167.015 27.5399 166.677 27.2683 166.411 26.9324L164.526 24.5828C164.215 24.1921 164.011 23.7269 163.935 23.2332C163.859 22.7395 163.914 22.2346 164.094 21.7686L165.174 18.9598C165.356 18.495 165.657 18.0861 166.046 17.7742C166.436 17.4623 166.901 17.2583 167.394 17.1827L170.37 16.7236C170.864 16.6489 171.369 16.7048 171.834 16.8858C172.299 17.0668 172.709 17.3666 173.023 17.7553L174.908 20.1103C175.219 20.4999 175.423 20.9642 175.498 21.4571C175.574 21.9499 175.52 22.454 175.34 22.9191L174.259 25.7333C174.08 26.1984 173.783 26.6087 173.396 26.9233C173.01 27.2378 172.547 27.4458 172.056 27.5266L169.074 27.9803C168.929 28.0022 168.783 28.013 168.637 28.0127ZM170.797 18.868H170.694L167.734 19.3163C167.615 19.3341 167.502 19.3828 167.407 19.4577C167.313 19.5325 167.239 19.6309 167.194 19.743L166.114 22.5572C166.071 22.669 166.058 22.79 166.076 22.9084C166.094 23.0267 166.143 23.1384 166.217 23.2324L168.102 25.582C168.177 25.6752 168.276 25.7471 168.388 25.7906C168.499 25.8342 168.62 25.8479 168.739 25.8305L171.721 25.3714C171.84 25.3542 171.953 25.3056 172.048 25.2307C172.143 25.1557 172.216 25.0571 172.261 24.9447L173.341 22.1359C173.385 22.0243 173.399 21.9031 173.381 21.7845C173.363 21.6659 173.314 21.5542 173.239 21.4607L171.353 19.1111C171.288 19.0338 171.206 18.9719 171.113 18.9299C171.021 18.8879 170.92 18.8668 170.819 18.868H170.797Z" fill="#E0E0E0"/>
<path d="M170.819 18.8674C170.894 18.8437 170.975 18.8437 171.051 18.8674C171.145 18.8928 171.231 18.9389 171.305 19.0024C171.396 19.093 171.483 19.1886 171.564 19.2887L173.098 21.1306L173.347 21.4385C173.44 21.5656 173.493 21.7182 173.498 21.876C173.494 22.0315 173.458 22.1844 173.39 22.3243C173.341 22.4593 173.287 22.5944 173.238 22.7348C173.022 23.275 172.796 23.8853 172.558 24.5119C172.498 24.6686 172.439 24.8252 172.374 24.9872C172.303 25.1824 172.16 25.3429 171.975 25.4356C171.801 25.5003 171.619 25.5421 171.434 25.5598L170.894 25.6462C170.165 25.7543 169.452 25.8785 168.642 25.9811C168.526 25.9814 168.41 25.957 168.304 25.9095C168.198 25.862 168.103 25.7925 168.026 25.7056L167.67 25.2573L166.973 24.3931L166.308 23.5504L166.141 23.3452C166.077 23.2695 166.026 23.1837 165.99 23.0913C165.917 22.9 165.917 22.6885 165.99 22.4972L166.692 20.7309L167.011 19.9314C167.057 19.7953 167.119 19.6649 167.194 19.5425C167.281 19.4208 167.401 19.3269 167.54 19.2725C168.577 19.0834 169.366 19.0078 169.933 18.9322C170.223 18.8754 170.518 18.85 170.813 18.8566C170.742 18.8831 170.667 18.9012 170.592 18.9106L169.954 19.0402C169.414 19.1482 168.561 19.2671 167.616 19.4561C167.514 19.5007 167.426 19.5715 167.362 19.6614C167.301 19.7738 167.251 19.8913 167.21 20.0125L166.908 20.8173L166.227 22.5944C166.178 22.725 166.178 22.8689 166.227 22.9995C166.302 23.1386 166.395 23.2675 166.503 23.383L167.194 24.231L167.891 25.0953L168.242 25.5328C168.293 25.5894 168.356 25.6346 168.426 25.6653C168.495 25.696 168.571 25.7116 168.647 25.711L170.856 25.3816L171.397 25.3005C171.561 25.2903 171.722 25.2576 171.877 25.2033C172.005 25.1425 172.104 25.0339 172.153 24.9008C172.212 24.7388 172.277 24.5821 172.336 24.4255C172.585 23.8097 172.817 23.2156 173.039 22.6592C173.1 22.526 173.154 22.3909 173.201 22.2541C173.259 22.1418 173.294 22.0186 173.303 21.8922C173.298 21.777 173.263 21.6653 173.201 21.5681L172.963 21.2656L171.499 19.3697C171.435 19.2373 171.339 19.1224 171.221 19.0349C171.102 18.9475 170.964 18.89 170.819 18.8674Z" fill="#263238"/>
<path d="M168.636 28.0127C168.754 27.9861 168.873 27.968 168.993 27.9587L170.025 27.7805L171.645 27.505C171.982 27.4683 172.312 27.3884 172.628 27.2673C172.974 27.1244 173.287 26.911 173.546 26.6408C173.844 26.3449 174.073 25.9871 174.216 25.5929C174.373 25.1824 174.54 24.7502 174.708 24.3019C175.005 23.3999 175.61 22.4762 175.388 21.4445C175.293 20.9214 175.053 20.4351 174.697 20.0401L173.617 18.7006L173.076 18.0092C172.904 17.7768 172.701 17.5696 172.472 17.3934C172.004 17.0428 171.435 16.8533 170.851 16.8533C170.55 16.8643 170.25 16.8986 169.954 16.9559L169.052 17.0909L167.297 17.3664C166.758 17.4833 166.268 17.7623 165.892 18.1658C165.711 18.3594 165.559 18.5776 165.439 18.814C165.325 19.0463 165.234 19.3163 165.136 19.5594L164.558 21.0232C164.357 21.4645 164.198 21.9239 164.083 22.3952C164.019 22.8207 164.053 23.2551 164.181 23.6658C164.309 24.0765 164.528 24.4528 164.823 24.7664L166.179 26.4949C166.384 26.7434 166.551 26.9919 166.746 27.1809C166.922 27.3539 167.12 27.5028 167.335 27.6238C167.748 27.8431 168.202 27.9755 168.669 28.0127C168.669 28.0127 168.636 28.0127 168.572 28.0127C168.507 28.0127 168.42 28.0127 168.302 28.0127C167.947 27.9807 167.602 27.8798 167.286 27.7157C167.058 27.5945 166.846 27.4458 166.654 27.2727C166.442 27.0548 166.242 26.8258 166.055 26.5867L164.666 24.8853C164.349 24.5528 164.111 24.1525 163.97 23.7146C163.83 23.2767 163.791 22.8126 163.856 22.3574C163.965 21.8657 164.122 21.3862 164.326 20.926L164.893 19.4622C164.996 19.2083 165.077 18.9598 165.201 18.6952C165.33 18.4337 165.496 18.1918 165.693 17.9768C166.096 17.5425 166.618 17.2363 167.194 17.0963C167.788 16.9937 168.366 16.9127 168.966 16.8155L169.868 16.6804C170.178 16.6183 170.492 16.5822 170.808 16.5724C171.452 16.5665 172.079 16.7714 172.596 17.1557C172.844 17.3452 173.064 17.5689 173.249 17.8201L173.789 18.5115C174.157 18.9652 174.513 19.419 174.87 19.8565C175.255 20.2864 175.512 20.8162 175.61 21.3851C175.705 21.9308 175.646 22.4924 175.437 23.0056C175.253 23.4755 175.07 23.9346 174.897 24.3829C174.724 24.8313 174.551 25.2526 174.389 25.6685C174.238 26.0747 174 26.4433 173.692 26.7488C173.144 27.2756 172.426 27.588 171.667 27.6292L170.046 27.8561C169.598 27.9155 169.247 27.9641 169.009 27.9803C168.887 28.0059 168.762 28.0168 168.636 28.0127Z" fill="#263238"/>
<path d="M221.258 20.9629C220.877 21.6167 220.408 22.2148 219.864 22.74C219.386 23.3313 218.81 23.8372 218.163 24.2362C218.618 23.639 219.118 23.0774 219.659 22.5563C220.13 21.9665 220.666 21.4319 221.258 20.9629Z" fill="#263238"/>
<path d="M211.13 17.8574C211.483 18.4926 211.726 19.183 211.848 19.8992C212.067 20.5976 212.164 21.3285 212.135 22.0598C211.893 21.3823 211.712 20.6846 211.594 19.9748C211.375 19.2848 211.219 18.576 211.13 17.8574Z" fill="#263238"/>
<path d="M207.1 26.2142C206.393 26.0751 205.7 25.8763 205.026 25.62C204.325 25.448 203.639 25.2204 202.974 24.9395C204.426 25.0567 205.835 25.4919 207.1 26.2142Z" fill="#263238"/>
<path d="M205.95 35.5857C206.233 35.0209 206.597 34.5004 207.03 34.0409C207.402 33.5263 207.846 33.0679 208.348 32.6797C208.069 33.2467 207.705 33.7676 207.268 34.2245C206.896 34.7391 206.452 35.1975 205.95 35.5857Z" fill="#263238"/>
<path d="M215.046 38.5393C214.828 37.9834 214.701 37.3962 214.668 36.8001C214.538 36.2153 214.503 35.6134 214.565 35.0176C214.781 35.5761 214.908 36.1647 214.943 36.7623C215.07 37.3456 215.105 37.9453 215.046 38.5393Z" fill="#263238"/>
<path d="M222.732 31.62C222.179 31.5553 221.64 31.3983 221.139 31.1554C220.602 31.0019 220.096 30.757 219.643 30.4316C220.732 30.6526 221.776 31.0543 222.732 31.62Z" fill="#263238"/>
<path d="M329.963 73.0392C333.619 68.6316 337.276 64.1808 340.128 59.2114C342.98 54.242 344.99 48.6893 345.135 42.9637C345.135 42.0941 344.784 36.0714 343.947 35.8283C343.353 35.6555 342.942 40.976 342.456 41.3595C337.789 45.0109 334.759 50.4286 333.014 56.0893C331.372 61.6087 330.349 67.2936 329.963 73.0392Z" fill="#263238"/>
<path d="M282.327 106.539C283.785 102.758 290.969 83.8527 290.931 83.8527C290.894 83.8527 278.557 77.4141 282.829 64.2993C284.882 57.9633 290.17 45.2644 295.085 33.8241C297.637 27.8968 302.326 23.1472 308.22 20.5199C314.114 17.8927 320.781 17.5804 326.895 19.6452L328.153 20.0719C341.473 25.4734 344.358 39.7711 338.594 52.9346L312.127 114.241L288.933 107.074L282.327 106.539Z" fill="#FFBF9D"/>
<path d="M290.937 83.8633C290.937 83.8633 299.001 87.1042 309.632 84.5763C309.632 84.5763 302.275 92.8892 289.646 87.3148L290.937 83.8633Z" fill="#FF9A6C"/>
<path d="M295.064 46.4486C294.895 46.9332 294.922 47.4644 295.139 47.9293C295.356 48.3942 295.745 48.7563 296.225 48.9387C296.456 49.0373 296.704 49.0889 296.955 49.0902C297.206 49.0916 297.455 49.0428 297.687 48.9467C297.919 48.8506 298.129 48.7091 298.306 48.5306C298.482 48.3521 298.622 48.1401 298.715 47.907C298.885 47.4225 298.859 46.8908 298.642 46.4255C298.425 45.9602 298.034 45.5982 297.554 45.417C297.323 45.3176 297.075 45.2655 296.823 45.2637C296.572 45.262 296.323 45.3106 296.091 45.4068C295.859 45.503 295.648 45.6448 295.472 45.8237C295.295 46.0026 295.157 46.2151 295.064 46.4486Z" fill="#263238"/>
<path d="M296.025 40.1992C296.176 40.5233 297.943 39.9507 299.947 40.6367C301.951 41.3227 303.085 42.7973 303.382 42.646C303.528 42.5758 303.441 42.0573 302.955 41.3713C302.292 40.4766 301.367 39.8103 300.309 39.4646C299.261 39.1027 298.125 39.0876 297.068 39.4214C296.29 39.686 295.95 40.0533 296.025 40.1992Z" fill="#263238"/>
<path d="M312.667 53.5296C312.497 54.0134 312.524 54.5444 312.741 55.0088C312.958 55.4732 313.348 55.8342 313.828 56.0143C314.059 56.1137 314.308 56.1658 314.559 56.1676C314.81 56.1693 315.059 56.1206 315.291 56.0244C315.524 55.9283 315.734 55.7865 315.911 55.6076C316.087 55.4286 316.226 55.2161 316.319 54.9826C316.487 54.4981 316.46 53.9669 316.243 53.502C316.026 53.037 315.637 52.6749 315.157 52.4925C314.926 52.3941 314.677 52.3428 314.426 52.3418C314.175 52.3408 313.926 52.3901 313.694 52.4867C313.462 52.5833 313.251 52.7254 313.075 52.9045C312.899 53.0836 312.76 53.2961 312.667 53.5296Z" fill="#263238"/>
<path d="M315.411 47.6473C315.557 47.9714 317.329 47.4042 319.333 48.0848C321.336 48.7654 322.465 50.2454 322.768 50.0996C322.908 50.024 322.827 49.5054 322.341 48.8248C321.676 47.9288 320.749 47.2608 319.689 46.9127C318.642 46.5497 317.505 46.5345 316.448 46.8695C315.692 47.1342 315.335 47.5015 315.411 47.6473Z" fill="#263238"/>
<path d="M303.004 60.6374C303.052 60.5293 301.875 59.892 299.941 58.9521C299.45 58.7252 298.996 58.4606 299.028 58.0771C299.061 57.6936 299.433 57.1858 299.882 56.6781L302.718 53.2859C306.698 48.4246 309.767 44.3897 309.567 44.2276C309.367 44.0656 305.985 47.8683 302.005 52.7134C301.038 53.9125 300.109 55.0522 299.228 56.1487C298.839 56.6889 298.283 57.229 298.283 58.0717C298.297 58.2768 298.357 58.4762 298.459 58.6548C298.561 58.8335 298.702 58.9868 298.872 59.1033C299.131 59.2752 299.41 59.4148 299.704 59.5193C301.691 60.3133 302.955 60.7508 303.004 60.6374Z" fill="#263238"/>
<path d="M308.443 64.0188C308.119 63.8945 307.363 66.0713 304.997 66.9842C302.631 67.897 300.368 66.8816 300.249 67.1786C300.173 67.3029 300.627 67.7728 301.594 68.1347C302.865 68.5809 304.253 68.5675 305.516 68.0969C306.725 67.6401 307.711 66.732 308.265 65.5636C308.654 64.6886 308.594 64.0566 308.443 64.0188Z" fill="#263238"/>
<path d="M318.269 39.5443C318.269 40.1546 320.375 40.5759 322.633 41.6508C324.891 42.7257 326.581 44.0167 327.057 43.6332C327.273 43.4441 327.116 42.8176 326.517 42.0127C325.712 41.0178 324.691 40.2198 323.531 39.6797C322.371 39.1396 321.103 38.8715 319.824 38.8961C318.852 38.9717 318.274 39.258 318.269 39.5443Z" fill="#263238"/>
<path d="M299.109 33.8087C299.309 34.3867 300.849 34.3489 302.518 34.889C304.187 35.4292 305.488 36.234 305.969 35.8667C306.191 35.683 306.126 35.1537 305.656 34.5109C305.004 33.7152 304.13 33.1309 303.145 32.8319C302.161 32.5329 301.11 32.5326 300.125 32.831C299.379 33.1281 299.028 33.5332 299.109 33.8087Z" fill="#263238"/>
<path d="M334.241 62.2578C334.5 62.2578 344.109 62.6305 340.814 71.4403C337.519 80.2502 329.325 75.1404 329.406 74.8811C329.487 74.6218 334.241 62.2578 334.241 62.2578Z" fill="#FFBF9D"/>
<path d="M333.355 72.5639C333.403 72.5639 333.468 72.7313 333.684 72.9474C333.99 73.2421 334.399 73.4051 334.824 73.4011C335.904 73.4011 337.222 72.2182 337.86 70.6409C338.167 69.8918 338.301 69.0833 338.254 68.2751C338.277 67.9667 338.223 67.6575 338.098 67.3749C337.972 67.0922 337.779 66.8448 337.536 66.6546C337.375 66.5369 337.179 66.4803 336.98 66.4952C336.782 66.51 336.596 66.5953 336.455 66.7357C336.245 66.9409 336.234 67.1354 336.185 67.1354C336.137 67.1354 336.05 66.9139 336.255 66.5952C336.384 66.3979 336.574 66.248 336.796 66.1685C337.107 66.0763 337.442 66.1092 337.73 66.2603C338.063 66.4703 338.336 66.7614 338.525 67.1063C338.714 67.4512 338.812 67.8386 338.81 68.2319C338.898 69.1379 338.764 70.0516 338.421 70.8948C337.698 72.6503 336.169 73.9791 334.754 73.871C334.491 73.85 334.235 73.7708 334.006 73.6391C333.778 73.5074 333.581 73.3265 333.43 73.1094C333.29 72.7907 333.317 72.5693 333.355 72.5639Z" fill="#FF9A6C"/>
<path d="M306.358 21.4391C305.235 20.1103 311.279 17.1179 315.39 16.891C321.601 16.5237 330.249 18.1442 334.592 21.4013C339.831 25.3173 343.585 30.1139 344.482 36.5903C345.379 43.0666 344.098 49.7213 341.587 55.7601C340.82 57.602 339.88 59.4656 338.281 60.6593C336.309 62.1339 333.479 62.4526 332.55 65.1803C332.396 65.6785 332.145 66.1413 331.812 66.5418C331.478 66.9423 331.068 67.2727 330.606 67.5138C328.337 68.5941 326.987 66.2444 326.7 64.2729C326.09 60.0813 327.451 55.8844 328.796 51.8495C329.752 48.9975 330.741 46.0861 332.577 43.6932C333.571 42.3915 334.792 41.2733 335.715 39.9122C336.639 38.551 337.239 36.8495 336.796 35.2777C336.683 34.9311 336.536 34.5964 336.358 34.2784C335.542 32.7371 334.33 31.4406 332.847 30.5218C331.365 29.603 329.665 29.095 327.921 29.0498C322.287 28.9039 312.797 28.272 311.257 25.7441C309.005 22.1035 308.848 20.2345 308.848 20.2345L306.358 21.4391Z" fill="#263238"/>
<path d="M335.721 16.0106C336.288 16.2969 349.559 24.4964 349.473 36.4553C349.386 48.4142 347.199 51.3418 347.199 51.3418C347.644 51.89 348.008 52.4994 348.279 53.1513C348.636 54.0587 346.599 57.1376 344.855 56.1113C332.939 45.0544 316.518 38.7023 297.786 32.8849L283.656 27.8237C279.518 26.9216 278.486 25.3822 280.507 24.9663C282.057 24.6422 294.891 23.994 294.891 23.994L297.662 23.1406L306.304 17.0315C306.304 17.0315 305.969 15.6487 307.725 15.2004C309.48 14.7521 324.561 10.3391 335.721 16.0106Z" fill="#FF725E"/>
<path d="M297.651 23.1621C297.651 23.1621 297.84 23.2377 298.191 23.3566L299.811 23.8643C301.205 24.2802 303.187 24.9824 305.629 25.8791C311.946 28.3103 318.039 31.2888 323.837 34.7807C329.633 38.2872 335.223 42.1213 340.582 46.2643C342.656 47.8361 344.304 49.1433 345.443 50.0453L346.767 51.077C347.069 51.3093 347.237 51.4227 347.237 51.4227C347.237 51.4227 347.091 51.2823 346.794 51.0338L345.503 49.9535C344.374 49.0352 342.737 47.7065 340.679 46.1184C335.339 41.9266 329.747 38.0663 323.935 34.5592C318.118 31.0544 311.992 28.091 305.634 25.7062C303.017 24.7251 300.353 23.876 297.651 23.1621Z" fill="#263238"/>
<g opacity="0.3">
<path d="M346.707 26.8784C346.707 26.8784 332.058 19.0354 323.967 19.9861L324.918 19.8564L317.356 20.483C316.075 20.591 314.612 20.6288 313.737 19.6944C313.737 19.6944 318.322 17.7498 325.566 17.7877C332.809 17.8255 343.439 20.3966 346.707 26.8784Z" fill="black"/>
</g>
<path d="M346.902 27.0072C346.577 26.5183 346.215 26.0542 345.821 25.619C344.766 24.4142 343.573 23.3374 342.267 22.4106C340.333 21.0253 338.206 19.9332 335.953 19.1697C333.207 18.1585 330.276 17.7514 327.359 17.9759C325.861 18.1268 324.375 18.3722 322.908 18.7105C321.493 19.0292 320.116 19.2507 318.814 19.6288C317.62 20.0247 316.395 20.3175 315.152 20.5038C314.064 20.6114 312.965 20.4653 311.943 20.0771C308.113 18.8186 306.045 17.2251 306.304 17.0469C306.318 17.2021 306.389 17.3465 306.504 17.452C306.815 17.756 307.163 18.0192 307.541 18.2352C308.916 19.0581 310.375 19.73 311.895 20.2392C312.939 20.6431 314.063 20.802 315.179 20.7037C316.436 20.528 317.676 20.2442 318.884 19.8556C320.159 19.5046 321.552 19.2669 322.968 18.9482C324.425 18.6237 325.9 18.3856 327.386 18.2352C330.268 18.0183 333.164 18.4141 335.883 19.3965C338.118 20.1446 340.236 21.2086 342.17 22.5564C343.475 23.4645 344.676 24.5133 345.751 25.6839C346.135 26.0998 346.421 26.4347 346.605 26.6669C346.788 26.8992 346.902 27.0072 346.902 27.0072Z" fill="#263238"/>
<g opacity="0.3">
<path d="M349.3 41.3979C346.524 40.4202 344.665 38.978 342.111 37.4224C339.41 35.7695 336.65 34.2571 334.008 32.4746C332.004 31.1242 329.579 29.6983 328.688 27.6133C328.392 28.1191 328.232 28.6928 328.224 29.2786C328.215 29.8645 328.358 30.4426 328.639 30.9568C329.206 32.0371 331.61 33.9654 332.636 34.6622C338.475 38.6323 342.532 41.3439 349.057 44.104C349.196 43.21 349.275 42.3078 349.295 41.4033" fill="black"/>
</g>
<path d="M349.44 35.1321C350.942 36.4987 351.844 37.3845 351.379 38.9131C350.996 40.1771 350.218 41.6139 348.911 41.414C348.524 41.3242 348.158 41.163 347.831 40.9387L329.941 30.4652C329.293 30.1815 328.769 29.6758 328.461 29.0392C328.104 28.0237 329.001 26.911 330.033 26.6301C331.064 26.3493 332.166 26.6301 333.193 26.9866C339.015 28.8718 344.325 31.767 349.44 35.1267" fill="#FF725E"/>
<path d="M328.655 29.4274C328.491 29.1152 328.412 28.7646 328.429 28.4119C328.469 27.936 328.642 27.481 328.928 27.0989C329.215 26.7168 329.603 26.4231 330.049 26.2513C331.194 25.8624 332.712 26.1217 334.203 26.7267C335.694 27.3316 337.373 28.0176 339.064 28.8008C342.001 30.1033 344.815 31.6651 347.474 33.4677C348.49 34.1645 349.273 34.7803 349.818 35.207L350.434 35.7094C350.504 35.7713 350.58 35.8256 350.661 35.8714C350.661 35.8714 350.602 35.7958 350.467 35.6715L349.878 35.1314C349.338 34.6831 348.587 34.0511 347.577 33.3219C344.935 31.4684 342.118 29.8782 339.167 28.574C337.449 27.7854 335.791 27.1048 334.268 26.5052C332.744 25.9057 331.183 25.6464 329.946 26.0839C329.478 26.2709 329.073 26.5888 328.78 26.9997C328.486 27.4105 328.318 27.897 328.294 28.4011C328.286 28.6718 328.344 28.9403 328.461 29.1844C328.511 29.2761 328.577 29.3584 328.655 29.4274Z" fill="#263238"/>
<path d="M303.593 18.9707L315.751 22.8652L313.564 25.917L300.53 21.1313L303.593 18.9707Z" fill="white"/>
<path d="M318.177 35.9588C318.204 35.894 313.088 33.2581 306.742 30.1144C300.395 26.9707 295.209 24.4266 295.209 24.4914C295.209 24.5563 300.298 27.1922 306.644 30.3359C312.991 33.4795 318.144 36.0182 318.177 35.9588Z" fill="#263238"/>
<path d="M321.239 101.489L321.401 93.5056L294.081 103.655C294.081 103.655 289.03 87.2507 289.03 86.4783L282.975 90.2593L272.912 85.9381L262.849 80.9688L242.496 116.619L221.144 179.568L271.443 213.122L308.746 173.151L331.432 138.581L343.899 116.694L321.239 101.489Z" fill="#FF725E"/>
<path d="M291.65 103.536C291.618 103.271 291.605 103.004 291.612 102.736C291.612 102.196 291.612 101.429 291.58 100.5L291.704 100.576C288.702 102.042 285.93 103.94 283.477 106.21L283.261 106.415V106.118C283.261 105.761 283.218 105.383 283.197 105C282.975 101.084 282.791 97.5402 282.656 94.9691C282.602 93.716 282.559 92.6897 282.527 91.9281C282.527 91.5968 282.527 91.3213 282.527 91.1017C282.491 91.0949 282.459 91.0751 282.437 91.0461C282.415 91.0171 282.405 90.9809 282.409 90.9448C282.412 90.9086 282.429 90.875 282.456 90.8505C282.482 90.8261 282.517 90.8125 282.554 90.8125C282.59 90.8125 282.625 90.8261 282.652 90.8505C282.679 90.875 282.696 90.9086 282.699 90.9448C282.702 90.9809 282.692 91.0171 282.67 91.0461C282.648 91.0751 282.617 91.0949 282.581 91.1017C282.581 91.3177 282.624 91.5932 282.656 91.9227C282.71 92.6843 282.781 93.7106 282.867 94.9583C283.04 97.524 283.251 101.067 283.472 104.983C283.472 105.367 283.515 105.745 283.531 106.102L283.299 106.004C285.771 103.719 288.585 101.835 291.639 100.419L291.769 100.365V100.5C291.769 101.429 291.731 102.18 291.72 102.736C291.716 103.004 291.693 103.272 291.65 103.536Z" fill="#263238"/>
<path d="M318.722 101.873C318.625 101.941 318.519 101.997 318.409 102.04L317.496 102.478L314.115 104.028L302.901 109.041L297.575 111.396L297.348 111.493L297.392 111.25C297.831 108.718 298.037 106.15 298.007 103.58L298.132 103.656L295.609 104.882L294.934 105.195C294.783 105.265 294.702 105.298 294.696 105.287C294.762 105.233 294.835 105.188 294.912 105.152L295.566 104.795L298.056 103.499L298.175 103.434V103.58C298.251 106.172 298.07 108.764 297.635 111.32L297.451 111.174L302.772 108.809L314.017 103.866L317.442 102.397L318.376 102.013C318.485 101.953 318.602 101.906 318.722 101.873Z" fill="#263238"/>
<path d="M270.957 61.9238H65.2142C60.8677 61.9238 57.3442 65.4473 57.3442 69.7938V212.253C57.3442 216.599 60.8677 220.123 65.2142 220.123H270.957C275.303 220.123 278.827 216.599 278.827 212.253V69.7938C278.827 65.4473 275.303 61.9238 270.957 61.9238Z" fill="#455A64"/>
<path d="M48.6855 209.902H288.647V214.132C288.647 216.682 287.634 219.127 285.831 220.93C284.027 222.733 281.582 223.746 279.032 223.746H58.3002C55.7502 223.746 53.3047 222.733 51.5016 220.93C49.6985 219.127 48.6855 216.682 48.6855 214.132V209.902Z" fill="#455A64"/>
<path d="M272.264 68.2109H63.2913V201.806H272.264V68.2109Z" fill="#263238"/>
<path d="M146.253 208.422L149.229 213.537H191.128L193.894 208.422H146.253Z" fill="#263238"/>
<path d="M266.619 72.7324H69.3571C68.3816 72.7324 67.5908 73.5232 67.5908 74.4987V199.608C67.5908 200.583 68.3816 201.374 69.3571 201.374H266.619C267.595 201.374 268.386 200.583 268.386 199.608V74.4987C268.386 73.5232 267.595 72.7324 266.619 72.7324Z" fill="#EBEBEB"/>
<path d="M268.175 201.562H67.3801L67.5908 82.3457H268.175V201.562Z" fill="#FAFAFA"/>
<path d="M84.4651 77.7007C84.4492 78.0236 84.339 78.3349 84.148 78.5958C83.957 78.8568 83.6937 79.056 83.3906 79.1687C83.0876 79.2815 82.7581 79.3029 82.443 79.2303C82.1279 79.1576 81.841 78.9942 81.6179 78.7601C81.3947 78.526 81.2452 78.2317 81.1877 77.9135C81.1302 77.5952 81.1673 77.2672 81.2945 76.9698C81.4216 76.6725 81.6332 76.419 81.9029 76.2407C82.1727 76.0624 82.4889 75.9672 82.8122 75.9668C83.2612 75.9781 83.6873 76.167 83.9971 76.492C84.307 76.8171 84.4753 77.2517 84.4651 77.7007Z" fill="#263238"/>
<path d="M74.44 77.7007C74.4241 78.0236 74.3139 78.3349 74.1229 78.5958C73.9319 78.8568 73.6686 79.056 73.3655 79.1687C73.0624 79.2815 72.7329 79.3029 72.4178 79.2303C72.1027 79.1576 71.8158 78.9942 71.5927 78.7601C71.3696 78.526 71.22 78.2317 71.1626 77.9135C71.1051 77.5952 71.1422 77.2672 71.2693 76.9698C71.3965 76.6725 71.608 76.419 71.8778 76.2407C72.1476 76.0624 72.4637 75.9672 72.7871 75.9668C73.236 75.9781 73.6621 76.167 73.972 76.492C74.2818 76.8171 74.4501 77.2517 74.44 77.7007Z" fill="#263238"/>
<path d="M79.5928 77.7007C79.5769 78.0236 79.4667 78.3349 79.2757 78.5958C79.0847 78.8568 78.8214 79.056 78.5183 79.1687C78.2153 79.2815 77.8858 79.3029 77.5707 79.2303C77.2556 79.1576 76.9687 78.9942 76.7456 78.7601C76.5224 78.526 76.3729 78.2317 76.3154 77.9135C76.2579 77.5952 76.295 77.2672 76.4222 76.9698C76.5493 76.6725 76.7608 76.419 77.0306 76.2407C77.3004 76.0624 77.6166 75.9672 77.9399 75.9668C78.3888 75.9781 78.8149 76.167 79.1248 76.492C79.4346 76.8171 79.6029 77.2517 79.5928 77.7007Z" fill="#263238"/>
<path d="M276.926 208.422C276.926 208.509 227.772 208.574 167.14 208.574C106.509 208.574 57.3442 208.509 57.3442 208.422C57.3442 208.336 106.498 208.266 167.14 208.266C227.783 208.266 276.926 208.336 276.926 208.422Z" fill="#263238"/>
<path d="M146.42 105.201C149.685 103.23 153.198 101.704 156.867 100.663L159.027 90.3196L176.496 90.0117L179.013 100.275C182.714 101.189 186.278 102.591 189.61 104.444L198.442 98.6595L211.011 110.797L205.545 119.833C207.516 123.099 209.042 126.615 210.082 130.285L220.42 132.446L220.728 149.914L210.466 152.431C209.549 156.123 208.145 159.676 206.29 162.997L212.081 171.828L199.943 184.397L190.918 178.926C187.651 180.897 184.136 182.423 180.466 183.463L178.305 193.807L160.831 194.109L158.32 183.846C154.627 182.942 151.072 181.549 147.749 179.703L138.917 185.494L126.348 173.357L131.82 164.331C129.847 161.065 128.319 157.55 127.277 153.879L116.939 151.718L116.631 134.25L126.894 131.733C127.807 128.031 129.209 124.467 131.064 121.135L125.279 112.304L137.416 99.7344L146.42 105.201ZM155.732 128.476C153.158 131.143 151.432 134.513 150.773 138.161C150.113 141.809 150.551 145.57 152.029 148.969C153.508 152.369 155.961 155.253 159.079 157.258C162.197 159.263 165.839 160.299 169.545 160.234C173.252 160.169 176.856 159.006 179.901 156.893C182.947 154.78 185.298 151.812 186.656 148.363C188.015 144.914 188.32 141.139 187.533 137.517C186.747 133.894 184.904 130.586 182.237 128.011C180.466 126.302 178.374 124.959 176.083 124.058C173.792 123.157 171.346 122.717 168.885 122.761C166.424 122.806 163.996 123.335 161.739 124.318C159.482 125.302 157.441 126.72 155.732 128.492V128.476Z" fill="#E0E0E0"/>
<path d="M216.213 111.881C216.452 110.589 216.861 109.334 217.428 108.149L215.267 105.232L219.178 100.652L222.419 102.348C223.5 101.603 224.675 101.005 225.914 100.571L226.454 96.968L232.455 96.498L233.535 99.9712C234.828 100.21 236.084 100.621 237.268 101.192L240.184 99.0313L244.765 102.947L243.069 106.188C243.817 107.27 244.416 108.447 244.851 109.688L248.449 110.229L248.919 116.235L245.446 117.315C245.208 118.609 244.798 119.864 244.225 121.048L246.385 123.97L242.475 128.545L239.234 126.849C238.152 127.597 236.975 128.196 235.734 128.632L235.194 132.234L229.192 132.704L228.112 129.226C226.819 128.989 225.564 128.58 224.38 128.01L221.458 130.171L216.888 126.212L218.584 122.971C217.837 121.888 217.238 120.711 216.801 119.471L213.204 118.93L212.734 112.924L216.207 111.844L216.213 111.881ZM224.353 113.702C224.225 115.053 224.524 116.41 225.207 117.581C225.891 118.753 226.926 119.681 228.165 120.234C229.404 120.787 230.786 120.936 232.115 120.662C233.444 120.388 234.653 119.704 235.572 118.706C236.492 117.708 237.075 116.447 237.239 115.1C237.404 113.753 237.142 112.389 236.49 111.199C235.837 110.009 234.828 109.054 233.604 108.468C232.38 107.882 231.004 107.695 229.668 107.933C228.273 108.182 226.998 108.88 226.039 109.922C225.079 110.964 224.487 112.292 224.353 113.702Z" fill="#E0E0E0"/>
<path d="M84.6703 172.179C84.714 170.627 84.9665 169.088 85.4211 167.604L82.3585 164.617L86.1071 158.578L90.169 159.983C91.3035 158.918 92.5751 158.01 93.95 157.282L93.9176 152.988L100.842 151.367L102.717 155.229C104.269 155.272 105.807 155.525 107.292 155.98L110.311 152.917L116.35 156.666L114.946 160.728C116.01 161.862 116.919 163.134 117.646 164.509L121.941 164.477L123.561 171.396L119.694 173.259C119.645 174.811 119.391 176.35 118.937 177.834L122 180.849L118.251 186.893L114.189 185.488C113.056 186.554 111.784 187.463 110.408 188.189L110.441 192.483L103.521 194.104L101.642 190.242C100.094 190.188 98.5608 189.926 97.0829 189.464L94.0689 192.527L88.0246 188.778L89.429 184.716C88.3644 183.582 87.4561 182.31 86.7283 180.935L82.4071 180.967L80.7866 174.048L84.6487 172.168L84.6703 172.179ZM94.6793 174.124C95.0262 175.591 95.8002 176.922 96.9034 177.949C98.0066 178.977 99.3895 179.654 100.878 179.896C102.366 180.138 103.892 179.934 105.264 179.309C106.636 178.684 107.791 177.666 108.585 176.384C109.379 175.103 109.775 173.615 109.724 172.108C109.672 170.601 109.176 169.144 108.296 167.919C107.417 166.695 106.194 165.758 104.783 165.228C103.372 164.698 101.835 164.598 100.367 164.941C99.3882 165.169 98.4641 165.588 97.6478 166.175C96.8316 166.761 96.1393 167.503 95.6107 168.358C95.0822 169.213 94.7278 170.164 94.5679 171.156C94.4081 172.148 94.4459 173.162 94.6793 174.14V174.124Z" fill="#E0E0E0"/>
<path d="M97.0991 114.48C97.2755 113.505 97.5845 112.558 98.0174 111.666L96.3969 109.462L99.3461 106.011L101.777 107.291C102.592 106.728 103.479 106.276 104.413 105.946L104.812 103.245L109.339 102.889L110.149 105.508C111.123 105.69 112.07 105.999 112.963 106.427L115.167 104.806L118.613 107.755L117.338 110.186C117.902 111 118.352 111.887 118.678 112.822L121.379 113.216L121.735 117.743L119.121 118.531C118.942 119.506 118.635 120.452 118.208 121.346L119.829 123.544L116.879 126.996L114.449 125.715C113.635 126.28 112.748 126.733 111.813 127.06L111.418 129.761L106.892 130.112L106.076 127.492C105.101 127.315 104.154 127.006 103.262 126.574L101.064 128.195L97.6123 125.245L98.887 122.815C98.324 122 97.8734 121.114 97.5474 120.179L94.8467 119.779L94.4956 115.253L97.1153 114.442L97.0991 114.48ZM103.23 116.679C103.306 117.636 103.665 118.55 104.26 119.304C104.855 120.058 105.66 120.619 106.574 120.916C107.488 121.212 108.469 121.232 109.394 120.971C110.318 120.711 111.145 120.182 111.77 119.452C112.394 118.722 112.788 117.824 112.903 116.87C113.017 115.916 112.846 114.95 112.411 114.093C111.977 113.236 111.298 112.527 110.461 112.056C109.624 111.585 108.666 111.372 107.708 111.445C107.07 111.493 106.447 111.667 105.877 111.957C105.306 112.246 104.798 112.645 104.382 113.132C103.966 113.618 103.65 114.182 103.452 114.79C103.254 115.399 103.179 116.041 103.23 116.679Z" fill="#EBEBEB"/>
<path d="M216.439 163.228C216.596 162.39 216.861 161.577 217.228 160.808L215.818 158.917L218.352 155.952L220.442 157.032C221.141 156.547 221.903 156.159 222.705 155.876L223.046 153.543L226.935 153.24L227.631 155.493C228.47 155.646 229.283 155.912 230.051 156.281L231.942 154.871L234.907 157.405L233.827 159.49C234.312 160.191 234.7 160.954 234.983 161.758L237.316 162.099L237.619 165.988L235.366 166.685C235.213 167.523 234.947 168.337 234.578 169.104L235.987 170.995L233.454 173.955L231.369 172.875C230.667 173.357 229.904 173.746 229.101 174.031L228.76 176.359L224.871 176.661L224.174 174.414C223.337 174.258 222.523 173.993 221.755 173.625L219.864 175.035L216.888 172.502L217.968 170.417C217.483 169.718 217.095 168.956 216.812 168.154L214.484 167.813L214.176 163.924L216.429 163.228H216.439ZM221.706 165.113C221.77 165.939 222.078 166.728 222.591 167.38C223.103 168.031 223.798 168.516 224.587 168.772C225.375 169.028 226.222 169.044 227.02 168.818C227.818 168.592 228.53 168.135 229.068 167.503C229.605 166.872 229.943 166.095 230.038 165.271C230.133 164.448 229.982 163.614 229.603 162.877C229.224 162.14 228.635 161.531 227.91 161.129C227.185 160.727 226.356 160.549 225.53 160.619C224.428 160.71 223.407 161.234 222.69 162.076C221.973 162.918 221.619 164.01 221.706 165.113Z" fill="#EBEBEB"/>
<path d="M168.669 169.088H141.807C140.228 169.084 138.678 168.666 137.312 167.875C135.945 167.084 134.81 165.949 134.02 164.582C133.23 163.215 132.812 161.664 132.809 160.085C132.806 158.507 133.217 156.954 134.002 155.584L147.441 132.309L160.874 109.034C161.667 107.665 162.805 106.528 164.176 105.738C165.546 104.947 167.1 104.531 168.682 104.531C170.264 104.531 171.819 104.947 173.189 105.738C174.559 106.528 175.698 107.665 176.49 109.034L189.929 132.309L203.368 155.584C204.153 156.955 204.564 158.507 204.561 160.087C204.558 161.666 204.14 163.217 203.349 164.584C202.558 165.951 201.422 167.087 200.055 167.877C198.688 168.668 197.137 169.085 195.557 169.088H168.669Z" fill="#FF725E"/>
<path d="M197.599 158.253C197.599 158.253 197.669 158.388 197.804 158.669C198.035 159.232 198.123 159.843 198.061 160.447C197.999 161.052 197.788 161.633 197.448 162.137C197.18 162.535 196.837 162.876 196.438 163.141C195.973 163.437 195.442 163.612 194.893 163.649C190.312 163.698 183.701 163.687 175.523 163.708L146.798 163.741H142.693C141.961 163.733 141.249 163.498 140.656 163.068C140.063 162.639 139.618 162.036 139.382 161.343C139.131 160.65 139.085 159.9 139.247 159.182C139.29 159.004 139.349 158.826 139.409 158.642C139.468 158.458 139.565 158.302 139.647 158.14L140.187 157.194C140.878 155.925 141.58 154.65 142.282 153.359L150.99 137.376L159.751 121.404C161.159 118.822 162.545 116.289 163.91 113.804C164.256 113.188 164.574 112.567 164.942 111.957C165.307 111.333 165.828 110.816 166.454 110.455C167.068 110.104 167.756 109.904 168.463 109.872C169.169 109.84 169.873 109.977 170.516 110.272C171.154 110.56 171.71 111.002 172.136 111.557C172.505 112.117 172.839 112.7 173.136 113.302C173.768 114.458 174.394 115.597 175.005 116.721C176.236 118.968 177.426 121.148 178.575 123.262C180.881 127.481 183.026 131.413 184.981 135C188.892 142.178 192.052 147.99 194.239 152.014L196.746 156.643C197.027 157.183 197.243 157.572 197.388 157.853C197.534 158.134 197.604 158.269 197.604 158.269C197.604 158.269 197.518 158.134 197.367 157.864L196.697 156.67L194.142 152.063C191.938 148.05 188.741 142.259 184.808 135.097L178.375 123.37L174.789 116.84C174.173 115.716 173.552 114.577 172.914 113.421C172.617 112.837 172.287 112.271 171.926 111.725C171.527 111.206 171.008 110.792 170.413 110.52C169.808 110.242 169.145 110.113 168.48 110.143C167.815 110.173 167.167 110.362 166.589 110.693C166.004 111.035 165.516 111.523 165.174 112.108C164.817 112.697 164.493 113.329 164.153 113.945L159.994 121.544C157.174 126.708 154.247 132.05 151.254 137.527L142.509 153.5C141.802 154.791 141.105 156.071 140.408 157.335C140.028 157.93 139.729 158.573 139.517 159.247C139.363 159.92 139.406 160.623 139.641 161.272C139.855 161.916 140.264 162.476 140.813 162.874C141.361 163.272 142.021 163.488 142.698 163.492H146.803L175.529 163.519L194.893 163.546C195.424 163.515 195.938 163.352 196.389 163.071C196.783 162.816 197.122 162.485 197.388 162.099C197.804 161.487 198.026 160.764 198.026 160.025C198.019 159.409 197.873 158.804 197.599 158.253Z" fill="#263238"/>
<path d="M164.315 153.274C164.315 150.891 166.217 149.114 168.923 149.114C171.629 149.114 173.487 150.891 173.487 153.274C173.487 155.656 171.629 157.514 168.923 157.514C166.217 157.514 164.315 155.623 164.315 153.274ZM164.358 128.875H173.487L171.953 146.851H165.855L164.358 128.875Z" fill="white"/>
<path d="M169.954 106.345C169.402 106.158 168.829 106.039 168.247 105.989C166.835 105.958 165.456 106.42 164.348 107.296C163.265 108.198 162.393 109.326 161.793 110.601C161.301 111.574 161.069 112.222 161.026 112.195C161.04 112.035 161.079 111.879 161.139 111.73C161.274 111.316 161.433 110.911 161.614 110.515C162.185 109.177 163.069 107.995 164.191 107.069C165.347 106.152 166.802 105.697 168.274 105.794C168.716 105.827 169.148 105.933 169.555 106.107C169.819 106.232 169.965 106.329 169.954 106.345Z" fill="white"/>
<path d="M158.719 116.22C158.83 115.754 159.03 115.314 159.308 114.923C159.702 114.259 160.075 113.751 160.145 113.789C160.031 114.248 159.829 114.681 159.551 115.064C159.351 115.499 159.068 115.892 158.719 116.22Z" fill="white"/>
<g opacity="0.3">
<path d="M182.151 118.844L140.295 144.63L134.861 154.051L185.105 123.959L182.151 118.844Z" fill="white"/>
</g>
<g opacity="0.3">
<path d="M188.741 130.273L133.262 162.996C133.484 163.854 133.896 164.651 134.467 165.329L189.718 131.969L188.741 130.273Z" fill="white"/>
</g>
<path d="M325.847 191.299C323.738 188.975 321.004 187.307 317.972 186.494C314.941 185.682 311.74 185.76 308.751 186.718L303.582 181.047L302.863 180.242L261.958 135.361C263.108 132.697 263.527 129.775 263.174 126.895C262.82 124.015 261.706 121.282 259.946 118.975C258.186 116.668 255.844 114.872 253.159 113.77C250.475 112.669 247.546 112.302 244.673 112.707L242.675 113.501L249.626 118.163L249.254 125.752L243.631 130.856L236.042 130.483L231.083 125.017L229.036 125.822C228.447 130.397 231.515 136.166 234.859 139.866C236.964 142.187 239.693 143.854 242.719 144.667C245.746 145.48 248.942 145.405 251.927 144.452L293.519 190.083L294.794 191.504L298.737 195.825C297.503 198.7 297.122 201.869 297.638 204.954C298.154 208.04 299.546 210.912 301.648 213.229C304.975 216.902 309.394 219.354 313.99 219.23L316.043 218.43L311.079 212.959L311.452 205.397L317.075 200.292L324.637 200.66L327.543 206.931L329.595 206.126C330.228 203.536 330.218 200.831 329.564 198.246C328.911 195.662 327.634 193.276 325.847 191.299Z" fill="#E0E0E0"/>
<g opacity="0.3">
<path d="M325.847 191.299C323.738 188.975 321.004 187.307 317.972 186.494C314.941 185.682 311.74 185.76 308.751 186.718L303.582 181.047L302.863 180.242L261.958 135.361C263.108 132.697 263.527 129.775 263.174 126.895C262.82 124.015 261.706 121.282 259.946 118.975C258.186 116.668 255.844 114.872 253.159 113.77C250.475 112.669 247.546 112.302 244.673 112.707L242.675 113.501L249.626 118.163L249.254 125.752L243.631 130.856L236.042 130.483L231.083 125.017L229.036 125.822C228.447 130.397 231.515 136.166 234.859 139.866C236.964 142.187 239.693 143.854 242.719 144.667C245.746 145.48 248.942 145.405 251.927 144.452L293.519 190.083L294.794 191.504L298.737 195.825C297.503 198.7 297.122 201.869 297.638 204.954C298.154 208.04 299.546 210.912 301.648 213.229C304.975 216.902 309.394 219.354 313.99 219.23L316.043 218.43L311.079 212.959L311.452 205.397L317.075 200.292L324.637 200.66L327.543 206.931L329.595 206.126C330.228 203.536 330.218 200.831 329.564 198.246C328.911 195.662 327.634 193.276 325.847 191.299Z" fill="black"/>
</g>
<path d="M323.794 192.099C321.686 189.775 318.953 188.108 315.922 187.296C312.892 186.485 309.691 186.564 306.704 187.524L301.529 181.847L300.811 181.042L259.905 136.161C261.056 133.498 261.476 130.576 261.122 127.696C260.769 124.816 259.655 122.082 257.894 119.776C256.134 117.47 253.791 115.674 251.107 114.573C248.423 113.472 245.493 113.106 242.621 113.513L247.579 118.979L247.212 126.541L241.578 131.667L234.016 131.3L229.058 125.834C228.372 128.652 228.449 131.601 229.282 134.38C230.114 137.158 231.671 139.664 233.793 141.641C235.915 143.618 238.526 144.994 241.356 145.628C244.186 146.261 247.134 146.13 249.896 145.247L291.488 190.878L292.768 192.299L296.711 196.62C295.566 199.283 295.15 202.202 295.506 205.079C295.862 207.955 296.977 210.685 298.737 212.988C300.496 215.291 302.837 217.085 305.518 218.185C308.2 219.285 311.126 219.651 313.996 219.247L309.032 213.77L309.399 206.208L315.028 201.103L322.59 201.476L327.548 206.942C328.185 204.35 328.176 201.641 327.522 199.053C326.867 196.465 325.587 194.077 323.794 192.099Z" fill="#E0E0E0"/>
<path d="M323.794 192.1C323.794 192.1 324.032 192.359 324.48 192.883C325.119 193.681 325.685 194.534 326.171 195.433C328.048 198.962 328.567 203.057 327.629 206.943V207.051L327.554 206.97L322.59 201.51L322.633 201.537L315.071 201.175H315.125L309.507 206.284V206.225C309.399 208.58 309.275 211.146 309.145 213.814V213.744L314.066 219.172L314.196 219.313L314.007 219.34C311.268 219.738 308.473 219.436 305.882 218.462C303.291 217.488 300.989 215.874 299.19 213.771C297.233 211.498 295.943 208.727 295.463 205.766C294.954 202.662 295.34 199.476 296.576 196.583V196.713L249.751 145.35L249.896 145.388C246.937 146.323 243.775 146.413 240.768 145.647C236.578 144.564 232.984 141.875 230.76 138.163C228.537 134.451 227.863 130.013 228.885 125.808L228.949 125.548L229.128 125.743L234.086 131.209L233.989 131.166L241.578 131.533L241.475 131.571L247.136 126.461L247.088 126.558C247.212 123.998 247.336 121.476 247.46 118.969L247.493 119.067L242.534 113.6L242.367 113.411L242.615 113.379C245.602 112.957 248.648 113.363 251.42 114.554C254.192 115.744 256.583 117.674 258.334 120.131C260.008 122.475 261.035 125.219 261.31 128.087C261.565 130.851 261.129 133.636 260.04 136.189V136.06L306.79 187.46H306.725C308.951 186.75 311.302 186.523 313.622 186.796C315.941 187.069 318.176 187.835 320.175 189.043C321.191 189.663 322.14 190.387 323.006 191.203C323.546 191.781 323.837 192.079 323.837 192.079L322.984 191.225C322.11 190.413 321.159 189.689 320.143 189.064C318.148 187.875 315.924 187.125 313.617 186.862C311.31 186.599 308.974 186.831 306.763 187.541H306.725V187.509L259.889 136.195L259.835 136.135L259.868 136.065C260.939 133.541 261.366 130.79 261.11 128.06C260.84 125.236 259.826 122.533 258.171 120.228C256.448 117.811 254.094 115.913 251.366 114.742C248.638 113.572 245.641 113.173 242.702 113.589L242.783 113.368L247.676 118.888L247.714 118.926V118.986C247.595 121.485 247.473 124.005 247.347 126.548V126.607L247.304 126.645L241.681 131.749L241.638 131.787H241.578L234.016 131.414H233.957L233.919 131.371L228.955 125.905L229.198 125.845C228.52 128.638 228.596 131.561 229.42 134.314C230.244 137.067 231.785 139.552 233.885 141.513C235.986 143.475 238.57 144.842 241.373 145.476C244.176 146.109 247.097 145.986 249.837 145.118H249.918L249.983 145.183C266.987 163.861 282.932 181.346 296.776 196.567L296.83 196.627L296.798 196.702C295.582 199.547 295.198 202.679 295.69 205.733C296.164 208.578 297.383 211.246 299.224 213.465C301.065 215.685 303.461 217.376 306.169 218.368C308.667 219.271 311.349 219.549 313.98 219.178L313.915 219.345L308.962 213.879L308.935 213.847V213.771C309.064 211.108 309.189 208.542 309.307 206.209V206.171V206.144L314.941 201.05H314.974L322.536 201.428C324.351 203.438 326.02 205.28 327.483 206.906H327.386C328.331 203.044 327.834 198.97 325.987 195.449C325.508 194.55 324.953 193.694 324.329 192.889C324.016 192.376 323.794 192.1 323.794 192.1Z" fill="#263238"/>
<path d="M258.042 138.782C258.004 138.925 257.944 139.062 257.864 139.187C257.674 139.538 257.463 139.878 257.232 140.202C255.7 142.381 253.541 144.041 251.042 144.961C250.668 145.102 250.285 145.217 249.896 145.307C249.757 145.354 249.611 145.377 249.464 145.377C249.464 145.328 250.053 145.166 250.971 144.778C253.381 143.775 255.485 142.158 257.075 140.089C257.685 139.295 257.999 138.76 258.042 138.782Z" fill="#263238"/>
<path d="M303.722 158.275L288.188 151.037L274.3 149.303L279.399 153.624C279.399 153.624 261.445 159.884 261.132 161.294C260.818 162.704 262.547 166.496 265.712 165.793C265.712 165.793 263.935 167.954 264.675 170.336C265.415 172.718 267.052 173.167 270.076 172.61C270.076 172.61 268.024 175.684 269.634 177.25C271.243 178.816 273.749 178.422 273.749 178.422C273.749 178.422 273.782 182.165 275.759 182.489C277.736 182.814 283.245 182.43 285.303 181.798L295.755 178.557L302.529 177.039L303.722 158.275Z" fill="#FFBF9D"/>
<path d="M275.127 163.028C275.186 163.234 273.117 164.011 270.514 164.773C267.91 165.535 265.739 165.978 265.679 165.772C265.62 165.567 267.689 164.784 270.292 164.028C272.896 163.271 275.067 162.823 275.127 163.028Z" fill="#FF9A6C"/>
<path d="M277.768 170.413C277.827 170.618 276.191 171.293 274.106 171.925C272.021 172.557 270.276 172.892 270.211 172.687C270.147 172.481 271.794 171.806 273.879 171.18C275.964 170.553 277.709 170.213 277.768 170.413Z" fill="#FF9A6C"/>
<path d="M280.139 176.553C280.177 176.785 278.686 177.093 276.936 177.536C275.186 177.979 273.82 178.616 273.695 178.395C273.571 178.174 274.857 177.282 276.72 176.775C278.584 176.267 280.112 176.364 280.139 176.553Z" fill="#FF9A6C"/>
<path d="M282.1 153.003C282.159 153.213 280.123 153.953 277.601 154.823C275.078 155.693 273.02 156.357 272.934 156.157C272.847 155.957 274.803 154.964 277.352 154.088C279.902 153.213 282.046 152.798 282.1 153.003Z" fill="#FF9A6C"/>
<path d="M300.795 156.914L334.44 169.1L332.474 192.191L295.431 177.256L300.795 156.914Z" fill="#FFBF9D"/>
<path d="M343.963 116.506C343.963 116.506 348.349 121.038 350.904 129.189C353.459 137.339 365.488 171.893 365.197 182.885C364.878 194.255 357.224 202.368 340.404 197.874C330.368 195.173 318.409 190.852 318.409 190.852L326.911 162.905L333.56 164.617L322.822 144.459L343.963 116.506Z" fill="#FF725E"/>
<path d="M336.261 129.711C336.326 129.76 331.669 136.387 325.868 144.517C320.067 152.646 315.319 159.214 315.254 159.16C315.19 159.106 319.846 152.484 325.647 144.355C331.448 136.225 336.201 129.668 336.261 129.711Z" fill="#263238"/>
<path d="M349.138 168.397C349.138 168.397 348.846 168.257 348.322 168.014C347.577 167.681 346.805 167.408 346.016 167.198C345.017 166.923 343.807 166.658 342.462 166.372L338.097 165.41C335.002 164.719 332.199 164.076 330.179 163.595L327.786 163.012C327.489 162.955 327.198 162.872 326.916 162.764C327.217 162.788 327.515 162.837 327.807 162.91L330.222 163.401C332.258 163.833 335.083 164.444 338.162 165.135L342.521 166.123C343.861 166.426 345.071 166.707 346.07 167.009C346.864 167.239 347.634 167.543 348.371 167.917C348.57 168.018 348.763 168.132 348.949 168.257C349.018 168.295 349.081 168.343 349.138 168.397Z" fill="#263238"/>
<g opacity="0.3">
<path d="M357.737 169.629C357.63 168.965 357.363 168.338 356.961 167.8C356.558 167.262 356.031 166.829 355.425 166.539C354.209 165.964 352.899 165.612 351.558 165.502C345.514 164.67 339.399 164.422 333.301 164.211L333.841 164.454C341.375 165.847 348.75 167.997 355.852 170.871C356.241 171.086 356.698 171.141 357.127 171.022C357.358 170.88 357.541 170.67 357.65 170.421C357.759 170.172 357.789 169.895 357.737 169.629Z" fill="black"/>
</g>
<g opacity="0.3">
<path d="M219.124 62.4852C213.452 61.5184 206.668 63.1658 200.997 62.199C200.154 62.0585 199.225 61.9235 198.48 62.3556C197.583 62.8687 197.275 64.0139 197.232 65.0563C197.209 66.4867 197.486 67.906 198.044 69.2232C198.602 70.5403 199.429 71.7263 200.473 72.7049C202.596 74.6466 205.249 75.9137 208.094 76.3455C210.357 76.729 212.793 76.6534 214.808 75.5623C218.352 73.6393 220.053 66.3797 219.124 62.4852Z" fill="black"/>
</g>
<path d="M197.113 72.8604C197.113 72.8604 193.672 68.8255 193.175 66.9674C192.846 65.7359 193.008 62.2843 193.175 60.0967C193.213 59.3595 193.466 58.6496 193.903 58.0545C194.34 57.4594 194.941 57.0052 195.633 56.7478C195.836 56.6472 196.062 56.6037 196.287 56.6217C196.513 56.6398 196.729 56.7189 196.913 56.8504C197.38 56.2167 197.905 55.6273 198.48 55.0895C199.83 53.7067 200.473 52.7723 203.444 53.6311C203.444 53.6311 205.631 51.3247 206.89 51.4975C207.734 51.6225 208.57 51.8029 209.391 52.0377C209.391 52.0377 214.182 51.8324 215.165 53.3556C215.723 54.0433 216.476 54.546 217.325 54.7978C218.075 55.0623 218.764 55.4744 219.351 56.0097C219.938 56.5451 220.412 57.1928 220.745 57.9145C221.304 59.2401 221.627 60.6531 221.701 62.0899L216.839 62.2843C216.839 62.2843 217.185 73.4708 215.959 74.3728C214.733 75.2749 214.268 74.9508 214.268 74.9508C214.268 74.9508 213.334 77.5759 209.688 75.6368C209.688 75.6368 206.663 76.5496 205.367 75.3019C204.07 74.0541 199.328 62.0682 199.328 62.0682L199.463 68.0099C199.463 68.0099 201.964 71.8611 200.738 72.7632C199.511 73.6652 197.113 72.8604 197.113 72.8604Z" fill="#FFBF9D"/>
<path d="M203.184 57.6992C203.299 57.9235 203.392 58.1588 203.46 58.4014L204.119 60.346C204.659 61.9664 205.399 64.2782 206.188 66.8007C206.976 69.3232 207.635 71.6621 208.381 73.1961C208.667 73.8141 208.999 74.4099 209.374 74.9786C209.639 75.3837 209.807 75.589 209.79 75.6052C209.774 75.6214 209.731 75.5673 209.645 75.4701C209.518 75.3346 209.399 75.1922 209.288 75.0434C208.873 74.492 208.511 73.9024 208.208 73.2825C207.403 71.7215 206.728 69.4042 205.928 66.8872C205.129 64.3701 204.432 62.069 203.935 60.4054C203.708 59.6114 203.514 58.9524 203.363 58.4338C203.281 58.195 203.221 57.949 203.184 57.6992Z" fill="#FF9A6C"/>
<path d="M209.164 56.3164C209.272 56.5482 209.355 56.7908 209.412 57.0402L209.99 59.0442C210.46 60.7348 211.071 63.0791 211.784 65.6718C212.497 68.2645 213.074 70.6195 213.496 72.3264C213.696 73.1366 213.858 73.8172 213.987 74.3466C214.06 74.5932 214.107 74.8466 214.128 75.1028C214.026 74.8686 213.942 74.6266 213.879 74.379C213.728 73.8388 213.539 73.1799 213.307 72.375C212.831 70.6844 212.194 68.3401 211.513 65.7474C210.833 63.1547 210.223 60.7996 209.796 59.0928C209.601 58.2771 209.434 57.602 209.31 57.0672C209.237 56.8222 209.188 56.5707 209.164 56.3164Z" fill="#FF9A6C"/>
</svg>
