<svg width="24" height="24" viewBox="0 0 24 24" fill="none" xmlns="http://www.w3.org/2000/svg">
<path d="M10.5 16L9 15.5V15L12 13.5L14 14.5L10.5 16Z" fill="#99D1FF"/>
<circle cx="5.5" cy="7.5" r="1.5" fill="#99D1FF"/>
<circle cx="17.5" cy="7.5" r="1.5" fill="#99D1FF"/>
<path d="M17.9998 9.65977C17.9698 9.65977 17.9498 9.65977 17.9198 9.65977H17.8698C15.9798 9.59977 14.5698 8.13977 14.5698 6.33977C14.5698 4.49977 16.0698 3.00977 17.8998 3.00977C19.7298 3.00977 21.2298 4.50977 21.2298 6.33977C21.2198 8.14977 19.8098 9.60977 18.0098 9.66977C18.0098 9.65977 18.0098 9.65977 17.9998 9.65977ZM17.8998 4.49977C16.8898 4.49977 16.0698 5.31977 16.0698 6.32977C16.0698 7.31977 16.8398 8.11977 17.8298 8.15977C17.8398 8.14977 17.9198 8.14977 18.0098 8.15977C18.9798 8.10977 19.7298 7.30977 19.7398 6.32977C19.7398 5.31977 18.9198 4.49977 17.8998 4.49977Z" fill="#001A72"/>
<path d="M18.01 17.0301C17.62 17.0301 17.23 17.0001 16.84 16.9301C16.43 16.8601 16.16 16.4701 16.23 16.0601C16.3 15.6501 16.69 15.3801 17.1 15.4501C18.33 15.6601 19.63 15.4302 20.5 14.8502C20.97 14.5402 21.22 14.1501 21.22 13.7601C21.22 13.3701 20.96 12.9901 20.5 12.6801C19.63 12.1001 18.31 11.8701 17.07 12.0901C16.66 12.1701 16.27 11.8901 16.2 11.4801C16.13 11.0701 16.4 10.6802 16.81 10.6102C18.44 10.3202 20.13 10.6301 21.33 11.4301C22.21 12.0201 22.72 12.8601 22.72 13.7601C22.72 14.6501 22.22 15.5002 21.33 16.1002C20.42 16.7002 19.24 17.0301 18.01 17.0301Z" fill="#001A72"/>
<path d="M5.96998 9.66C5.95998 9.66 5.94998 9.66 5.94998 9.66C4.14998 9.6 2.73998 8.14 2.72998 6.34C2.72998 4.5 4.22998 3 6.05998 3C7.88998 3 9.38998 4.5 9.38998 6.33C9.38998 8.14 7.83998 9.6 6.03998 9.66C6.01998 9.66 5.98998 9.66 5.96998 9.66ZM6.06998 8.16C6.12998 8.16 6.17998 8.16 6.23998 8.17C7.12998 8.13 7.90998 7.33 7.90998 6.34C7.90998 5.33 7.08998 4.50999 6.07998 4.50999C5.06998 4.50999 4.24998 5.33 4.24998 6.34C4.24998 7.32 5.00998 8.11 5.97998 8.17C5.98998 8.16 6.02998 8.16 6.06998 8.16Z" fill="#001A72"/>
<path d="M5.96 17.0301C4.73 17.0301 3.55 16.7002 2.64 16.1002C1.76 15.5102 1.25 14.6601 1.25 13.7601C1.25 12.8701 1.76 12.0201 2.64 11.4301C3.84 10.6301 5.53 10.3202 7.16 10.6102C7.57 10.6802 7.84 11.0701 7.77 11.4801C7.7 11.8901 7.31 12.1701 6.9 12.0901C5.66 11.8701 4.35 12.1001 3.47 12.6801C3 12.9901 2.75 13.3701 2.75 13.7601C2.75 14.1501 3.01 14.5402 3.47 14.8502C4.34 15.4302 5.64 15.6601 6.87 15.4501C7.28 15.3801 7.67 15.6601 7.74 16.0601C7.81 16.4701 7.54 16.8601 7.13 16.9301C6.74 17.0001 6.35 17.0301 5.96 17.0301Z" fill="#001A72"/>
<path d="M12 17.25V19.75" stroke="#001A72" stroke-linecap="round"/>
<path d="M12.0137 17.7502C11.9032 17.7502 11.7927 17.7266 11.6907 17.6714L8.31722 15.8571C8.0113 15.6915 8.1388 15.4298 8.31724 15.1458C8.49569 14.8619 8.65712 14.6661 8.95453 14.8317L12.0137 16.4724L15.0473 14.8396C15.3532 14.674 15.4134 14.7686 15.5833 15.0447C15.7618 15.3287 15.982 15.6994 15.6846 15.865L12.3281 17.6635C12.2346 17.7187 12.1241 17.7502 12.0137 17.7502Z" fill="#001A72"/>
<path d="M12 20.75C11.6371 20.75 11.2663 20.6736 10.9744 20.5133L9.08086 19.4978C8.46548 19.1695 8 18.3983 8 17.7188V15.7793C8 15.0921 8.46548 14.3286 9.08086 14.0003L10.9744 12.9848C11.5582 12.6717 12.4418 12.6717 13.0256 12.9848L14.9191 14.0003C15.5345 14.3286 16 15.0998 16 15.7793V17.7188C16 18.4059 15.5345 19.1695 14.9112 19.5054L13.0178 20.5209C12.7337 20.6737 12.3708 20.75 12 20.75ZM11.5503 13.9697L9.65681 14.9853C9.42012 15.1151 9.18343 15.5044 9.18343 15.764V17.7035C9.18343 17.9707 9.42012 18.3601 9.65681 18.4823L11.5503 19.4978C11.7791 19.6199 12.2209 19.6199 12.4497 19.4978L14.3432 18.4823C14.5799 18.3525 14.8166 17.9631 14.8166 17.7035V15.764C14.8166 15.4968 14.5799 15.1074 14.3432 14.9853L12.4497 13.9621C12.2288 13.8476 11.7791 13.8476 11.5503 13.9697Z" fill="#001A72"/>
</svg>
