<svg width="34" height="34" viewBox="0 0 34 34" fill="none" xmlns="http://www.w3.org/2000/svg">
<rect width="34" height="34" rx="3" fill="#F6F8F9"/>
<path d="M15.5 21L14 20.5V20L17 18.5L19 19.5L15.5 21Z" fill="#99D1FF"/>
<circle cx="10.5" cy="12.5" r="1.5" fill="#99D1FF"/>
<circle cx="22.5" cy="12.5" r="1.5" fill="#99D1FF"/>
<path d="M22.9998 14.6598C22.9698 14.6598 22.9498 14.6598 22.9198 14.6598H22.8698C20.9798 14.5998 19.5698 13.1398 19.5698 11.3398C19.5698 9.49977 21.0698 8.00977 22.8998 8.00977C24.7298 8.00977 26.2298 9.50977 26.2298 11.3398C26.2198 13.1498 24.8098 14.6098 23.0098 14.6698C23.0098 14.6598 23.0098 14.6598 22.9998 14.6598ZM22.8998 9.49977C21.8898 9.49977 21.0698 10.3198 21.0698 11.3298C21.0698 12.3198 21.8398 13.1198 22.8298 13.1598C22.8398 13.1498 22.9198 13.1498 23.0098 13.1598C23.9798 13.1098 24.7298 12.3098 24.7398 11.3298C24.7398 10.3198 23.9198 9.49977 22.8998 9.49977Z" fill="#001A72"/>
<path d="M23.01 22.0301C22.62 22.0301 22.23 22.0001 21.84 21.9301C21.43 21.8601 21.16 21.4701 21.23 21.0601C21.3 20.6501 21.69 20.3801 22.1 20.4501C23.33 20.6601 24.63 20.4302 25.5 19.8502C25.97 19.5402 26.22 19.1501 26.22 18.7601C26.22 18.3701 25.96 17.9901 25.5 17.6801C24.63 17.1001 23.31 16.8701 22.07 17.0901C21.66 17.1701 21.27 16.8901 21.2 16.4801C21.13 16.0701 21.4 15.6802 21.81 15.6102C23.44 15.3202 25.13 15.6301 26.33 16.4301C27.21 17.0201 27.72 17.8601 27.72 18.7601C27.72 19.6501 27.22 20.5002 26.33 21.1002C25.42 21.7002 24.24 22.0301 23.01 22.0301Z" fill="#001A72"/>
<path d="M10.97 14.66C10.96 14.66 10.95 14.66 10.95 14.66C9.14998 14.6 7.73998 13.14 7.72998 11.34C7.72998 9.5 9.22998 8 11.06 8C12.89 8 14.39 9.5 14.39 11.33C14.39 13.14 12.84 14.6 11.04 14.66C11.02 14.66 10.99 14.66 10.97 14.66ZM11.07 13.16C11.13 13.16 11.18 13.16 11.24 13.17C12.13 13.13 12.91 12.33 12.91 11.34C12.91 10.33 12.09 9.50999 11.08 9.50999C10.07 9.50999 9.24998 10.33 9.24998 11.34C9.24998 12.32 10.01 13.11 10.98 13.17C10.99 13.16 11.03 13.16 11.07 13.16Z" fill="#001A72"/>
<path d="M10.96 22.0301C9.73 22.0301 8.55 21.7002 7.64 21.1002C6.76 20.5102 6.25 19.6601 6.25 18.7601C6.25 17.8701 6.76 17.0201 7.64 16.4301C8.84 15.6301 10.53 15.3202 12.16 15.6102C12.57 15.6802 12.84 16.0701 12.77 16.4801C12.7 16.8901 12.31 17.1701 11.9 17.0901C10.66 16.8701 9.35 17.1001 8.47 17.6801C8 17.9901 7.75 18.3701 7.75 18.7601C7.75 19.1501 8.01 19.5402 8.47 19.8502C9.34 20.4302 10.64 20.6601 11.87 20.4501C12.28 20.3801 12.67 20.6601 12.74 21.0601C12.81 21.4701 12.54 21.8601 12.13 21.9301C11.74 22.0001 11.35 22.0301 10.96 22.0301Z" fill="#001A72"/>
<path d="M17 22.25V24.75" stroke="#001A72" stroke-linecap="round"/>
<path d="M17.0137 22.7502C16.9032 22.7502 16.7927 22.7266 16.6907 22.6714L13.3172 20.8571C13.0113 20.6915 13.1388 20.4298 13.3172 20.1458C13.4957 19.8619 13.6571 19.6661 13.9545 19.8317L17.0137 21.4724L20.0473 19.8396C20.3532 19.674 20.4134 19.7686 20.5833 20.0447C20.7618 20.3287 20.982 20.6994 20.6846 20.865L17.3281 22.6635C17.2346 22.7187 17.1241 22.7502 17.0137 22.7502Z" fill="#001A72"/>
<path d="M17 25.75C16.6371 25.75 16.2663 25.6736 15.9744 25.5133L14.0809 24.4978C13.4655 24.1695 13 23.3983 13 22.7188V20.7793C13 20.0921 13.4655 19.3286 14.0809 19.0003L15.9744 17.9848C16.5582 17.6717 17.4418 17.6717 18.0256 17.9848L19.9191 19.0003C20.5345 19.3286 21 20.0998 21 20.7793V22.7188C21 23.4059 20.5345 24.1695 19.9112 24.5054L18.0178 25.5209C17.7337 25.6737 17.3708 25.75 17 25.75ZM16.5503 18.9697L14.6568 19.9853C14.4201 20.1151 14.1834 20.5044 14.1834 20.764V22.7035C14.1834 22.9707 14.4201 23.3601 14.6568 23.4823L16.5503 24.4978C16.7791 24.6199 17.2209 24.6199 17.4497 24.4978L19.3432 23.4823C19.5799 23.3525 19.8166 22.9631 19.8166 22.7035V20.764C19.8166 20.4968 19.5799 20.1074 19.3432 19.9853L17.4497 18.9621C17.2288 18.8476 16.7791 18.8476 16.5503 18.9697Z" fill="#001A72"/>
</svg>
