<svg width="125" height="127" viewBox="0 0 125 127" fill="none" xmlns="http://www.w3.org/2000/svg">
<rect x="1" y="1" width="123" height="125" rx="3" fill="#E6E7E9" stroke="#FCFCFC" stroke-width="2"/>
<path fill-rule="evenodd" clip-rule="evenodd" d="M92 47.5C92 63.7919 78.7919 77 62.5 77C46.2081 77 33 63.7919 33 47.5C33 31.2081 46.2081 18 62.5 18C78.7919 18 92 31.2081 92 47.5Z" fill="#B9BABE"/>
<path d="M45.1767 77.4769C45.7578 77.1791 46.4625 77.1889 47.0414 77.491C60.167 84.34 67.4495 83.2626 79.3277 77.4541C79.9041 77.1722 80.5951 77.1811 81.1617 77.4821C105.203 90.2562 109.948 101.371 108.856 125H16C16.1989 99.7873 22.4533 89.1178 45.1767 77.4769Z" fill="#AEAFB3"/>
</svg>
