<svg width="20" height="20" viewBox="0 0 20 20" fill="none" xmlns="http://www.w3.org/2000/svg">
<path d="M14.8917 18.225C14.6334 18.225 14.3751 18.1584 14.1417 18.0167L10.8001 16.0334C10.4501 16.025 10.1001 16.0001 9.76673 15.9501C9.54173 15.9167 9.35006 15.7667 9.26673 15.55C9.18339 15.3334 9.22506 15.1 9.37506 14.925C9.92506 14.2834 10.2084 13.5167 10.2084 12.7C10.2084 10.6834 8.4334 9.04169 6.25006 9.04169C5.4334 9.04169 4.65006 9.26672 3.99172 9.70005C3.80839 9.81672 3.58339 9.83338 3.38339 9.74171C3.19173 9.65004 3.05007 9.46669 3.02507 9.25002C3.00007 9.01669 2.9834 8.78337 2.9834 8.54171C2.9834 4.40837 6.56673 1.05005 10.9667 1.05005C15.3667 1.05005 18.9501 4.40837 18.9501 8.54171C18.9501 10.8084 17.9001 12.8917 16.0501 14.3167L16.3334 16.5834C16.4001 17.1501 16.1501 17.6834 15.6751 17.9917C15.4417 18.1417 15.1667 18.225 14.8917 18.225ZM10.9584 14.775C11.0751 14.7667 11.1917 14.8001 11.2917 14.8667L14.7834 16.9417C14.8751 17.0001 14.9501 16.9751 15.0001 16.9417C15.0417 16.9167 15.1084 16.8501 15.0917 16.7334L14.7667 14.1C14.7417 13.8667 14.8417 13.6417 15.0251 13.5084C16.7251 12.3167 17.7001 10.5 17.7001 8.52502C17.7001 5.08336 14.6834 2.28337 10.9667 2.28337C7.39173 2.28337 4.45839 4.8834 4.24173 8.15006C4.86673 7.9084 5.54173 7.77505 6.24173 7.77505C9.11673 7.77505 11.4501 9.97502 11.4501 12.6833C11.4584 13.4167 11.2834 14.125 10.9584 14.775Z" fill="#E6E6E6"/>
<path d="M3.81648 18.9584C3.59981 18.9584 3.39147 18.9001 3.19981 18.7751C2.82481 18.5334 2.62481 18.1168 2.67481 17.6751L2.84148 16.3917C1.71648 15.4751 1.0498 14.1167 1.0498 12.6917C1.0498 11.0667 1.89981 9.55009 3.32481 8.64175C4.18315 8.08342 5.1998 7.78345 6.25814 7.78345C9.13314 7.78345 11.4665 9.98341 11.4665 12.6917C11.4665 13.7917 11.0665 14.8751 10.3331 15.7334C9.39147 16.8751 7.98314 17.5417 6.43314 17.5917L4.39981 18.8001C4.21648 18.9084 4.01648 18.9584 3.81648 18.9584ZM6.24981 9.03345C5.43314 9.03345 4.6498 9.25843 3.99147 9.69176C2.9248 10.3751 2.29148 11.4917 2.29148 12.6917C2.29148 13.8501 2.85815 14.9084 3.85815 15.5918C4.04981 15.7251 4.14981 15.9501 4.12481 16.1834L3.94147 17.6084L5.93314 16.4251C6.03314 16.3668 6.14148 16.3334 6.24981 16.3334C7.47481 16.3334 8.63315 15.8084 9.36648 14.9168C9.91648 14.2668 10.2081 13.5001 10.2081 12.6834C10.2081 10.6751 8.43314 9.03345 6.24981 9.03345Z" fill="#E6E6E6"/>
<path d="M6.521 13.9941C6.45101 14.0251 6.37533 14.0405 6.29395 14.0405C6.16048 14.0405 6.05957 14.0218 5.99121 13.9844C5.9847 13.9339 5.98145 13.8688 5.98145 13.7891C5.98145 13.7093 5.99691 13.6271 6.02783 13.5425C6.05876 13.4562 6.09863 13.3846 6.14746 13.3276C6.19792 13.269 6.25326 13.2145 6.31348 13.1641C6.3737 13.1136 6.43392 13.0632 6.49414 13.0127C6.55436 12.9622 6.6097 12.9085 6.66016 12.8516C6.77083 12.723 6.82617 12.5578 6.82617 12.356C6.82617 12.1541 6.77897 11.9979 6.68457 11.8872C6.5918 11.7765 6.46484 11.7212 6.30371 11.7212C6.14421 11.7212 6.01725 11.77 5.92285 11.8677C5.83008 11.9653 5.78369 12.0841 5.78369 12.2241C5.78369 12.3625 5.82438 12.491 5.90576 12.6099C5.87972 12.6896 5.8138 12.7474 5.70801 12.7832C5.66895 12.7979 5.62663 12.8052 5.58105 12.8052C5.28158 12.8019 5.13102 12.6359 5.12939 12.3071C5.12939 12.0549 5.21647 11.853 5.39062 11.7017C5.62663 11.4966 5.93506 11.394 6.31592 11.394C7.17204 11.394 7.6001 11.7147 7.6001 12.356C7.6001 12.6506 7.52848 12.8809 7.38525 13.0469C7.28271 13.1673 7.16471 13.2699 7.03125 13.3545C6.89779 13.4375 6.79932 13.5042 6.73584 13.5547C6.59261 13.6719 6.521 13.8184 6.521 13.9941ZM5.84717 14.7437C5.84717 14.6362 5.8903 14.5402 5.97656 14.4556C6.06445 14.3709 6.1613 14.3286 6.26709 14.3286C6.37288 14.3286 6.45915 14.3604 6.52588 14.4238C6.59424 14.4873 6.62842 14.5752 6.62842 14.6875C6.62842 14.7998 6.57878 14.904 6.47949 15C6.40462 15.0651 6.31592 15.0977 6.21338 15.0977C6.11084 15.0977 6.02376 15.0651 5.95215 15C5.88216 14.9365 5.84717 14.8511 5.84717 14.7437Z" fill="#E6E6E6"/>
</svg>
