<svg width="338" height="252" viewBox="0 0 338 252" fill="none" xmlns="http://www.w3.org/2000/svg">
<path d="M337.656 221.097H0V221.266H337.656V221.097Z" fill="#EBEBEB"/>
<path d="M303.823 231.962H281.456V232.131H303.823V231.962Z" fill="#EBEBEB"/>
<path d="M223.677 233.801H217.808V233.97H223.677V233.801Z" fill="#EBEBEB"/>
<path d="M280.781 225.697H267.822V225.866H280.781V225.697Z" fill="#EBEBEB"/>
<path d="M64.5934 226.83H35.4266V226.999H64.5934V226.83Z" fill="#EBEBEB"/>
<path d="M74.8853 226.83H70.6106V226.999H74.8853V226.83Z" fill="#EBEBEB"/>
<path d="M152.046 229.679H88.7831V229.848H152.046V229.679Z" fill="#EBEBEB"/>
<path d="M160.049 190.978H29.653C28.6315 190.976 27.6524 190.569 26.9307 189.846C26.209 189.123 25.8037 188.144 25.8037 187.122V3.82227C25.8126 2.80661 26.2219 1.83548 26.9426 1.11981C27.6633 0.404146 28.6373 0.00173987 29.653 0H160.049C161.072 0 162.052 0.406259 162.776 1.12941C163.499 1.85255 163.905 2.83335 163.905 3.85603V187.122C163.905 188.145 163.499 189.126 162.776 189.849C162.052 190.572 161.072 190.978 160.049 190.978ZM29.653 0.135063C28.6763 0.136852 27.7401 0.526112 27.0501 1.2174C26.3601 1.90869 25.9725 2.84553 25.9725 3.82227V187.122C25.9725 188.099 26.3601 189.036 27.0501 189.727C27.7401 190.418 28.6763 190.808 29.653 190.809H160.049C161.026 190.808 161.963 190.419 162.654 189.727C163.345 189.036 163.734 188.1 163.736 187.122V3.82227C163.734 2.84491 163.345 1.90809 162.654 1.21699C161.963 0.525893 161.026 0.136848 160.049 0.135063H29.653Z" fill="#EBEBEB"/>
<path d="M306.126 190.978H175.723C174.701 190.976 173.721 190.57 172.998 189.847C172.276 189.124 171.869 188.144 171.867 187.122V3.82227C171.878 2.806 172.288 1.83487 173.01 1.11939C173.732 0.40391 174.707 0.00172089 175.723 0H306.126C307.14 0.00351466 308.112 0.406706 308.832 1.12218C309.551 1.83766 309.959 2.80778 309.968 3.82227V187.122C309.968 188.143 309.564 189.121 308.844 189.844C308.123 190.567 307.146 190.975 306.126 190.978ZM175.723 0.135063C174.746 0.136848 173.809 0.525893 173.118 1.21699C172.427 1.90809 172.038 2.84491 172.036 3.82227V187.122C172.038 188.1 172.427 189.036 173.118 189.727C173.809 190.419 174.746 190.808 175.723 190.809H306.126C307.103 190.808 308.04 190.419 308.731 189.727C309.422 189.036 309.811 188.1 309.813 187.122V3.82227C309.811 2.84491 309.422 1.90809 308.731 1.21699C308.04 0.525893 307.103 0.136848 306.126 0.135063H175.723Z" fill="#EBEBEB"/>
<path d="M194.139 141.256H96.1714V203.574H194.139V141.256Z" fill="#EBEBEB"/>
<path d="M194.139 141.256H96.1714V145.477H194.139V141.256Z" fill="#E0E0E0"/>
<path d="M191.41 144.638C192.112 144.638 192.68 144.069 192.68 143.368C192.68 142.667 192.112 142.099 191.41 142.099C190.709 142.099 190.141 142.667 190.141 143.368C190.141 144.069 190.709 144.638 191.41 144.638Z" fill="#FAFAFA"/>
<path d="M187.183 144.638C187.884 144.638 188.453 144.069 188.453 143.368C188.453 142.667 187.884 142.099 187.183 142.099C186.482 142.099 185.913 142.667 185.913 143.368C185.913 144.069 186.482 144.638 187.183 144.638Z" fill="#FAFAFA"/>
<path d="M182.956 144.638C183.657 144.638 184.225 144.069 184.225 143.368C184.225 142.667 183.657 142.099 182.956 142.099C182.255 142.099 181.686 142.667 181.686 143.368C181.686 144.069 182.255 144.638 182.956 144.638Z" fill="#FAFAFA"/>
<path d="M248.859 158.67H150.891V220.988H248.859V158.67Z" fill="#F5F5F5"/>
<path d="M248.859 158.67H150.891V162.891H248.859V158.67Z" fill="#E0E0E0"/>
<path d="M247.401 160.777C247.401 161.028 247.326 161.274 247.187 161.483C247.047 161.692 246.849 161.854 246.617 161.95C246.385 162.046 246.13 162.072 245.883 162.023C245.637 161.974 245.411 161.853 245.233 161.675C245.056 161.498 244.935 161.271 244.886 161.025C244.837 160.779 244.862 160.524 244.958 160.292C245.054 160.06 245.217 159.861 245.426 159.722C245.634 159.582 245.88 159.508 246.131 159.508C246.468 159.508 246.791 159.642 247.029 159.88C247.267 160.118 247.401 160.441 247.401 160.777Z" fill="#FAFAFA"/>
<path d="M243.173 160.777C243.173 161.028 243.099 161.274 242.959 161.483C242.82 161.692 242.621 161.854 242.389 161.95C242.157 162.046 241.902 162.072 241.656 162.023C241.41 161.974 241.183 161.853 241.006 161.675C240.828 161.498 240.707 161.271 240.658 161.025C240.609 160.779 240.634 160.524 240.731 160.292C240.827 160.06 240.989 159.861 241.198 159.722C241.407 159.582 241.652 159.508 241.903 159.508C242.24 159.508 242.563 159.642 242.801 159.88C243.039 160.118 243.173 160.441 243.173 160.777Z" fill="#FAFAFA"/>
<path d="M238.945 160.778C238.945 161.03 238.87 161.277 238.729 161.487C238.588 161.696 238.388 161.859 238.154 161.954C237.92 162.049 237.663 162.072 237.415 162.02C237.168 161.968 236.942 161.844 236.766 161.663C236.59 161.482 236.472 161.253 236.427 161.004C236.382 160.756 236.412 160.499 236.513 160.268C236.614 160.037 236.782 159.841 236.995 159.706C237.208 159.57 237.457 159.502 237.71 159.508C238.04 159.517 238.355 159.655 238.586 159.892C238.816 160.129 238.946 160.447 238.945 160.778Z" fill="#FAFAFA"/>
<path d="M179.106 21.5369H178.863C178.971 20.9555 179.028 20.3657 179.032 19.7743C179.03 17.1964 178.004 14.7247 176.181 12.9024C174.357 11.0802 171.885 10.0566 169.307 10.0566H169.233C168.566 8.90872 167.604 7.96051 166.446 7.31059C165.289 6.66067 163.978 6.33279 162.651 6.36106C161.324 6.38933 160.029 6.77271 158.9 7.47132C157.771 8.16993 156.85 9.15825 156.233 10.3335C155.557 10.152 154.86 10.0589 154.16 10.0566C152.046 10.0569 150.014 10.8767 148.491 12.3438C146.969 13.8109 146.074 15.8111 145.995 17.924C144.756 18.859 143.841 20.1587 143.379 21.6404C142.916 23.1222 142.93 24.7116 143.417 26.1854C143.904 27.6592 144.841 28.9433 146.096 29.8573C147.35 30.7714 148.86 31.2695 150.412 31.2816C151.011 31.2803 151.607 31.2055 152.188 31.0588H177.647C178.12 31.2055 178.611 31.2806 179.106 31.2816C180.399 31.2816 181.639 30.7679 182.554 29.8536C183.468 28.9392 183.982 27.699 183.982 26.4059C183.982 25.1127 183.468 23.8726 182.554 22.9582C181.639 22.0438 180.399 21.5301 179.106 21.5301V21.5369Z" fill="#EBEBEB"/>
<path d="M257.084 40.7017H256.895C256.98 40.2564 257.023 39.8043 257.024 39.3511C257.024 37.3809 256.241 35.4915 254.848 34.0984C253.455 32.7053 251.565 31.9226 249.595 31.9226H249.541C249.033 31.0412 248.297 30.3126 247.41 29.8129C246.524 29.3132 245.519 29.0609 244.502 29.0823C243.485 29.1037 242.492 29.398 241.627 29.9345C240.763 30.471 240.058 31.2299 239.587 32.132C238.68 31.8868 237.73 31.8501 236.807 32.0247C235.884 32.1993 235.013 32.5807 234.259 33.1402C233.504 33.6996 232.886 34.4227 232.451 35.2551C232.016 36.0875 231.775 37.0076 231.747 37.9464C230.786 38.6554 230.074 39.6497 229.712 40.7874C229.35 41.925 229.357 43.1479 229.732 44.2815C230.106 45.4152 230.829 46.4015 231.797 47.0999C232.765 47.7983 233.929 48.1731 235.123 48.1706C235.653 48.169 236.18 48.094 236.69 47.9478H255.828C256.341 48.1333 256.888 48.2043 257.432 48.1558C257.975 48.1072 258.501 47.9403 258.972 47.6667C259.444 47.3931 259.85 47.0195 260.162 46.5722C260.474 46.1248 260.684 45.6146 260.778 45.0773C260.872 44.5401 260.846 43.9888 260.704 43.4623C260.562 42.9358 260.306 42.4469 259.955 42.0298C259.603 41.6128 259.165 41.2777 258.67 41.0483C258.175 40.8188 257.636 40.7005 257.091 40.7017H257.084Z" fill="#EBEBEB"/>
<path d="M103.113 46.104H102.924C103.009 45.6588 103.052 45.2066 103.052 44.7534C103.052 42.7833 102.27 40.8938 100.877 39.5007C99.4835 38.1076 97.5941 37.325 95.624 37.325H95.5699C95.0615 36.4435 94.3256 35.7149 93.4391 35.2152C92.5527 34.7156 91.5483 34.4633 90.5309 34.4847C89.5136 34.5061 88.5207 34.8004 87.656 35.3369C86.7914 35.8733 86.0868 36.6323 85.6158 37.5343C84.7092 37.2891 83.7588 37.2525 82.8359 37.4271C81.9131 37.6017 81.0417 37.983 80.2873 38.5425C79.5329 39.102 78.915 39.825 78.48 40.6574C78.0449 41.4898 77.8041 42.41 77.7755 43.3488C76.815 44.0578 76.103 45.0521 75.7412 46.1897C75.3793 47.3274 75.386 48.5503 75.7604 49.6839C76.1348 50.8175 76.8577 51.8039 77.8259 52.5023C78.7941 53.2007 79.9582 53.5754 81.152 53.573C81.682 53.5714 82.2093 53.4964 82.7187 53.3501H101.857C102.37 53.5357 102.917 53.6067 103.46 53.5581C104.004 53.5096 104.529 53.3426 105.001 53.069C105.473 52.7954 105.879 52.4219 106.191 51.9745C106.503 51.5272 106.713 51.0169 106.807 50.4797C106.9 49.9424 106.875 49.3911 106.733 48.8647C106.591 48.3382 106.335 47.8492 105.984 47.4321C105.632 47.0151 105.194 46.6801 104.699 46.4506C104.204 46.2212 103.665 46.1029 103.12 46.104H103.113Z" fill="#EBEBEB"/>
<path d="M53.2013 197.042L52.3504 195.84C52.1962 195.627 51.9929 195.454 51.7578 195.337C51.5226 195.219 51.2626 195.16 50.9998 195.164H45.0435C44.7958 195.16 44.5512 195.22 44.3335 195.339C44.1158 195.457 43.9324 195.63 43.8009 195.84L43.1256 197.021C42.9937 197.231 42.8102 197.403 42.5926 197.521C42.375 197.64 42.1307 197.7 41.8831 197.697H38.2769C38.0771 197.695 37.8792 197.735 37.6956 197.814C37.512 197.893 37.3468 198.009 37.2104 198.155C37.0739 198.301 36.9692 198.474 36.9029 198.662C36.8366 198.851 36.81 199.051 36.825 199.25L37.9798 219.232C38.0084 219.649 38.1922 220.039 38.4947 220.327C38.7973 220.614 39.1967 220.778 39.614 220.786H67.9163C68.1161 220.787 68.3141 220.747 68.4976 220.668C68.6812 220.589 68.8464 220.473 68.9829 220.327C69.1193 220.181 69.224 220.009 69.2903 219.82C69.3567 219.632 69.3832 219.432 69.3683 219.232L68.2067 199.29C68.1812 198.874 67.9994 198.483 67.6976 198.195C67.3958 197.907 66.9963 197.743 66.5792 197.737H54.5249C54.2652 197.733 54.01 197.668 53.78 197.547C53.5501 197.427 53.3518 197.253 53.2013 197.042Z" fill="#E0E0E0"/>
<path d="M69.4085 199.642H43.4765C42.9462 199.649 42.4369 199.85 42.0449 200.208C41.6529 200.565 41.4054 201.053 41.3493 201.581L39.7893 218.889C39.7634 219.136 39.7905 219.387 39.8688 219.623C39.947 219.86 40.0747 220.077 40.2434 220.26C40.412 220.443 40.6177 220.589 40.8468 220.687C41.0759 220.784 41.3231 220.832 41.5721 220.827H67.5311C68.0617 220.819 68.5711 220.617 68.9639 220.261C69.3567 219.904 69.606 219.416 69.6651 218.889L71.2251 201.581C71.2526 201.33 71.2255 201.076 71.1457 200.836C71.0659 200.597 70.9352 200.378 70.7626 200.194C70.59 200.009 70.3796 199.865 70.1459 199.77C69.9122 199.675 69.6606 199.631 69.4085 199.642Z" fill="#F0F0F0"/>
<path d="M282.084 197.326L281.24 196.144C281.085 195.932 280.882 195.76 280.647 195.643C280.412 195.525 280.152 195.466 279.89 195.469H273.906C273.658 195.464 273.413 195.523 273.195 195.642C272.978 195.76 272.794 195.933 272.664 196.144L271.948 197.326C271.817 197.536 271.633 197.709 271.415 197.827C271.198 197.945 270.953 198.005 270.705 198.001H267.133C266.933 198 266.735 198.04 266.552 198.119C266.368 198.198 266.203 198.314 266.067 198.46C265.93 198.606 265.825 198.778 265.759 198.967C265.693 199.155 265.666 199.355 265.681 199.555L266.843 219.537C266.868 219.954 267.05 220.345 267.352 220.633C267.654 220.921 268.053 221.084 268.47 221.09H296.8C296.999 221.092 297.197 221.052 297.381 220.973C297.564 220.894 297.73 220.778 297.866 220.632C298.002 220.486 298.107 220.314 298.174 220.125C298.24 219.937 298.266 219.736 298.251 219.537L297.097 199.555C297.068 199.138 296.884 198.748 296.582 198.46C296.279 198.173 295.88 198.009 295.462 198.001H283.408C283.15 198 282.896 197.938 282.666 197.821C282.436 197.704 282.237 197.534 282.084 197.326Z" fill="#E0E0E0"/>
<path d="M298.292 199.925H272.367C271.836 199.932 271.325 200.133 270.932 200.49C270.539 200.847 270.29 201.336 270.233 201.864L268.673 219.172C268.647 219.419 268.674 219.67 268.752 219.906C268.83 220.143 268.958 220.36 269.127 220.543C269.295 220.726 269.501 220.872 269.73 220.97C269.959 221.067 270.206 221.115 270.455 221.11H296.381C296.911 221.102 297.421 220.9 297.813 220.544C298.206 220.187 298.456 219.699 298.515 219.172L300.075 201.864C300.102 201.616 300.075 201.365 299.998 201.128C299.92 200.891 299.792 200.673 299.623 200.49C299.454 200.306 299.248 200.161 299.019 200.064C298.789 199.966 298.541 199.919 298.292 199.925Z" fill="#F0F0F0"/>
<path d="M200.567 181.18L199.716 179.998C199.562 179.785 199.359 179.612 199.124 179.495C198.889 179.377 198.629 179.318 198.366 179.322H192.383C192.135 179.319 191.89 179.379 191.673 179.497C191.455 179.615 191.271 179.788 191.14 179.998L190.438 181.18C190.306 181.389 190.122 181.561 189.905 181.68C189.687 181.798 189.443 181.858 189.195 181.855H185.623C185.423 181.853 185.225 181.893 185.041 181.972C184.858 182.051 184.693 182.167 184.556 182.313C184.42 182.459 184.315 182.632 184.249 182.82C184.182 183.009 184.156 183.209 184.171 183.408L185.326 203.391C185.354 203.807 185.538 204.198 185.841 204.485C186.143 204.773 186.542 204.936 186.96 204.944H215.255C215.455 204.946 215.654 204.907 215.838 204.829C216.022 204.75 216.188 204.634 216.324 204.488C216.461 204.342 216.566 204.169 216.632 203.98C216.698 203.791 216.723 203.59 216.707 203.391L215.553 183.408C215.527 182.992 215.345 182.6 215.043 182.312C214.742 182.024 214.342 181.861 213.925 181.855H201.871C201.616 181.85 201.366 181.787 201.14 181.67C200.914 181.553 200.718 181.385 200.567 181.18Z" fill="#E0E0E0"/>
<path d="M216.775 183.778H190.843C190.314 183.787 189.805 183.988 189.413 184.345C189.022 184.702 188.774 185.19 188.716 185.717L187.156 203.025C187.129 203.273 187.155 203.524 187.233 203.761C187.311 203.998 187.439 204.215 187.608 204.399C187.776 204.582 187.983 204.727 188.212 204.825C188.442 204.922 188.69 204.969 188.939 204.963H214.864C215.395 204.955 215.904 204.753 216.297 204.397C216.69 204.04 216.939 203.552 216.998 203.025L218.531 185.71C218.558 185.465 218.532 185.216 218.456 184.982C218.38 184.747 218.254 184.531 218.088 184.349C217.922 184.166 217.719 184.021 217.493 183.922C217.267 183.824 217.022 183.775 216.775 183.778Z" fill="#F0F0F0"/>
<path d="M168.828 251.597C241.142 251.597 299.764 248.174 299.764 243.952C299.764 239.73 241.142 236.308 168.828 236.308C96.514 236.308 37.8918 239.73 37.8918 243.952C37.8918 248.174 96.514 251.597 168.828 251.597Z" fill="#E2E2E2"/>
<path d="M109.151 48.6289H41.836C40.952 48.6289 40.2355 49.3455 40.2355 50.2294V167.842C40.2355 168.726 40.952 169.442 41.836 169.442H109.151C110.035 169.442 110.752 168.726 110.752 167.842V50.2294C110.752 49.3455 110.035 48.6289 109.151 48.6289Z" fill="#C376FF"/>
<path opacity="0.7" d="M109.151 48.6289H41.836C40.952 48.6289 40.2355 49.3455 40.2355 50.2294V167.842C40.2355 168.726 40.952 169.442 41.836 169.442H109.151C110.035 169.442 110.752 168.726 110.752 167.842V50.2294C110.752 49.3455 110.035 48.6289 109.151 48.6289Z" fill="white"/>
<path d="M58.3067 63.9365H45.0233V65.7396H58.3067V63.9365Z" fill="#C376FF"/>
<path d="M58.3067 67.9902H45.0233V69.7933H58.3067V67.9902Z" fill="#C376FF"/>
<path d="M105.606 63.9365H92.3221V65.7396H105.606V63.9365Z" fill="#C376FF"/>
<path d="M80.8416 55.5967H67.5582V57.3998H80.8416V55.5967Z" fill="#C376FF"/>
<path d="M105.606 52.4512H45.0233V54.2543H105.606V52.4512Z" fill="#C376FF"/>
<path d="M105.599 73.6113H51.7765V75.4144H105.599V73.6113Z" fill="#C376FF"/>
<path d="M105.606 77.209H45.0233V79.0121H105.606V77.209Z" fill="#C376FF"/>
<path d="M105.606 80.8154H45.0233V82.6185H105.606V80.8154Z" fill="#C376FF"/>
<path d="M105.606 84.4131H45.0233V86.2162H105.606V84.4131Z" fill="#C376FF"/>
<path d="M98.8457 88.0127H45.0233V89.8158H98.8457V88.0127Z" fill="#C376FF"/>
<path d="M105.599 94.5566H51.7765V96.3597H105.599V94.5566Z" fill="#C376FF"/>
<path d="M105.606 98.1543H45.0233V99.9574H105.606V98.1543Z" fill="#C376FF"/>
<path d="M105.606 101.764H45.0233V103.567H105.606V101.764Z" fill="#C376FF"/>
<path d="M105.606 105.363H45.0233V107.166H105.606V105.363Z" fill="#C376FF"/>
<path d="M98.8457 108.96H45.0233V110.763H98.8457V108.96Z" fill="#C376FF"/>
<path d="M105.599 115.505H51.7765V117.308H105.599V115.505Z" fill="#C376FF"/>
<path d="M105.606 119.104H45.0233V120.908H105.606V119.104Z" fill="#C376FF"/>
<path d="M105.606 122.709H45.0233V124.512H105.606V122.709Z" fill="#C376FF"/>
<path d="M105.606 126.309H45.0233V128.112H105.606V126.309Z" fill="#C376FF"/>
<path d="M98.8457 129.91H45.0233V131.713H98.8457V129.91Z" fill="#C376FF"/>
<path d="M105.599 137.128H51.7765V138.931H105.599V137.128Z" fill="#C376FF"/>
<path d="M105.606 140.728H45.0233V142.531H105.606V140.728Z" fill="#C376FF"/>
<path d="M105.606 144.332H45.0233V146.135H105.606V144.332Z" fill="#C376FF"/>
<path d="M105.606 147.934H45.0233V149.737H105.606V147.934Z" fill="#C376FF"/>
<path d="M98.8457 151.533H45.0233V153.336H98.8457V151.533Z" fill="#C376FF"/>
<path d="M105.606 161.921H92.3221V163.724H105.606V161.921Z" fill="#C376FF"/>
<g opacity="0.2">
<path d="M58.3068 63.9395H45.0234V65.7425H58.3068V63.9395Z" fill="white"/>
<path d="M58.3068 67.9883H45.0234V69.7914H58.3068V67.9883Z" fill="white"/>
<path d="M105.606 63.9395H92.3223V65.7425H105.606V63.9395Z" fill="white"/>
<path d="M80.8421 55.5977H67.5587V57.4007H80.8421V55.5977Z" fill="white"/>
<path d="M105.606 52.4512H45.0234V54.2543H105.606V52.4512Z" fill="white"/>
<path d="M105.599 73.6074H51.7766V75.4105H105.599V73.6074Z" fill="white"/>
<path d="M105.606 77.207H45.0234V79.0101H105.606V77.207Z" fill="white"/>
<path d="M105.606 80.8135H45.0234V82.6166H105.606V80.8135Z" fill="white"/>
<path d="M105.606 84.416H45.0234V86.2191H105.606V84.416Z" fill="white"/>
<path d="M98.8458 88.0127H45.0234V89.8158H98.8458V88.0127Z" fill="white"/>
<path d="M105.599 94.5576H51.7766V96.3607H105.599V94.5576Z" fill="white"/>
<path d="M105.606 98.1572H45.0234V99.9603H105.606V98.1572Z" fill="white"/>
<path d="M105.606 101.762H45.0234V103.565H105.606V101.762Z" fill="white"/>
<path d="M105.606 105.361H45.0234V107.164H105.606V105.361Z" fill="white"/>
<path d="M98.8458 108.963H45.0234V110.766H98.8458V108.963Z" fill="white"/>
<path d="M105.599 115.503H51.7766V117.306H105.599V115.503Z" fill="white"/>
<path d="M105.606 119.104H45.0234V120.908H105.606V119.104Z" fill="white"/>
<path d="M105.606 122.712H45.0234V124.515H105.606V122.712Z" fill="white"/>
<path d="M105.606 126.309H45.0234V128.112H105.606V126.309Z" fill="white"/>
<path d="M98.8458 129.908H45.0234V131.711H98.8458V129.908Z" fill="white"/>
<path d="M105.599 137.126H51.7766V138.929H105.599V137.126Z" fill="white"/>
<path d="M105.606 140.729H45.0234V142.532H105.606V140.729Z" fill="white"/>
<path d="M105.606 144.335H45.0234V146.138H105.606V144.335Z" fill="white"/>
<path d="M105.606 147.932H45.0234V149.735H105.606V147.932Z" fill="white"/>
<path d="M98.8458 151.532H45.0234V153.335H98.8458V151.532Z" fill="white"/>
<path d="M105.606 161.919H92.3223V163.722H105.606V161.919Z" fill="white"/>
</g>
<path opacity="0.1" d="M112.527 142.019H74.9794C74.0955 142.019 73.3789 142.735 73.3789 143.619V174.271C73.3789 175.155 74.0955 175.872 74.9794 175.872H112.527C113.411 175.872 114.127 175.155 114.127 174.271V143.619C114.127 142.735 113.411 142.019 112.527 142.019Z" fill="black"/>
<path d="M117.551 148.428H80.0041C79.1201 148.428 78.4036 149.144 78.4036 150.028V180.681C78.4036 181.565 79.1201 182.281 80.0041 182.281H117.551C118.435 182.281 119.152 181.565 119.152 180.681V150.028C119.152 149.144 118.435 148.428 117.551 148.428Z" fill="#C376FF"/>
<path opacity="0.3" d="M117.551 148.428H80.0041C79.1201 148.428 78.4036 149.144 78.4036 150.028V180.681C78.4036 181.565 79.1201 182.281 80.0041 182.281H117.551C118.435 182.281 119.152 181.565 119.152 180.681V150.028C119.152 149.144 118.435 148.428 117.551 148.428Z" fill="white"/>
<path d="M90.4913 168.15H82.3876V172.202H90.4913V168.15Z" fill="#C376FF"/>
<path d="M114.127 168.15H91.1667V172.202H114.127V168.15Z" fill="#C376FF"/>
<path d="M90.4913 162.748H82.3876V167.475H90.4913V162.748Z" fill="#C376FF"/>
<path d="M90.4913 158.022H82.3876V162.074H90.4913V158.022Z" fill="#C376FF"/>
<path d="M114.127 162.748H91.1667V167.475H114.127V162.748Z" fill="#C376FF"/>
<path d="M114.127 172.879H91.1667V177.606H114.127V172.879Z" fill="#C376FF"/>
<path d="M114.127 158.022H91.1667V162.074H114.127V158.022Z" fill="#C376FF"/>
<path d="M90.4913 172.879H82.3876V177.606H90.4913V172.879Z" fill="#C376FF"/>
<path d="M90.4913 152.62H82.3876V157.347H90.4913V152.62Z" fill="#C376FF"/>
<path d="M114.127 152.62H91.1667V157.347H114.127V152.62Z" fill="#C376FF"/>
<path opacity="0.1" d="M124.19 83.4824H86.6424C85.7584 83.4824 85.0419 84.199 85.0419 85.0829V115.735C85.0419 116.619 85.7584 117.336 86.6424 117.336H124.19C125.074 117.336 125.79 116.619 125.79 115.735V85.0829C125.79 84.199 125.074 83.4824 124.19 83.4824Z" fill="black"/>
<path d="M131.733 81.8789H94.1852C93.3013 81.8789 92.5847 82.5955 92.5847 83.4794V114.132C92.5847 115.016 93.3013 115.732 94.1852 115.732H131.733C132.616 115.732 133.333 115.016 133.333 114.132V83.4794C133.333 82.5955 132.616 81.8789 131.733 81.8789Z" fill="#C376FF"/>
<path opacity="0.3" d="M131.733 81.8789H94.1852C93.3013 81.8789 92.5847 82.5955 92.5847 83.4794V114.132C92.5847 115.016 93.3013 115.732 94.1852 115.732H131.733C132.616 115.732 133.333 115.016 133.333 114.132V83.4794C133.333 82.5955 132.616 81.8789 131.733 81.8789Z" fill="white"/>
<path d="M128.984 86.4385H118.854V91.1657H128.984V86.4385Z" fill="#C376FF"/>
<path d="M118.179 86.4385H108.049V91.1657H118.179V86.4385Z" fill="#C376FF"/>
<path d="M118.179 91.167H108.049V111.426H118.179V91.167Z" fill="#C376FF"/>
<path d="M128.984 91.167H118.854V111.426H128.984V91.167Z" fill="#C376FF"/>
<path d="M107.374 86.4385H97.2446V91.1657H107.374V86.4385Z" fill="#C376FF"/>
<path d="M107.374 91.167H97.2446V111.426H107.374V91.167Z" fill="#C376FF"/>
<path opacity="0.1" d="M136.953 119.007H99.4055C98.5216 119.007 97.8051 119.723 97.8051 120.607V151.26C97.8051 152.144 98.5216 152.86 99.4055 152.86H136.953C137.837 152.86 138.553 152.144 138.553 151.26V120.607C138.553 119.723 137.837 119.007 136.953 119.007Z" fill="black"/>
<path d="M150.641 116.839H113.094C112.21 116.839 111.494 117.555 111.494 118.439V149.092C111.494 149.976 112.21 150.692 113.094 150.692H150.641C151.525 150.692 152.242 149.976 152.242 149.092V118.439C152.242 117.555 151.525 116.839 150.641 116.839Z" fill="#C376FF"/>
<path opacity="0.3" d="M150.641 116.839H113.094C112.21 116.839 111.494 117.555 111.494 118.439V149.092C111.494 149.976 112.21 150.692 113.094 150.692H150.641C151.525 150.692 152.242 149.976 152.242 149.092V118.439C152.242 117.555 151.525 116.839 150.641 116.839Z" fill="white"/>
<path d="M147.893 121.556H132.361V133.036H147.893V121.556Z" fill="#C376FF"/>
<path d="M131.685 121.556H116.153V133.036H131.685V121.556Z" fill="#C376FF"/>
<path d="M131.685 133.71H116.153V146.541H131.685V133.71Z" fill="#C376FF"/>
<path d="M147.893 133.71H132.361V146.541H147.893V133.71Z" fill="#C376FF"/>
<path opacity="0.2" d="M151.945 118.443V141.14H137.946C137.553 141.153 137.161 141.082 136.797 140.934C136.433 140.785 136.104 140.561 135.832 140.277C135.56 139.993 135.351 139.655 135.219 139.285C135.086 138.915 135.033 138.521 135.062 138.128V116.829H150.642C151.526 116.829 151.945 117.558 151.945 118.443Z" fill="black"/>
<path opacity="0.1" d="M137.804 51.6553H100.256C99.3723 51.6553 98.6558 52.3718 98.6558 53.2558V83.9082C98.6558 84.7921 99.3723 85.5087 100.256 85.5087H137.804C138.688 85.5087 139.404 84.7921 139.404 83.9082V53.2558C139.404 52.3718 138.688 51.6553 137.804 51.6553Z" fill="black"/>
<path d="M144.564 45.5684H107.017C106.133 45.5684 105.416 46.2849 105.416 47.1688V77.8213C105.416 78.7052 106.133 79.4217 107.017 79.4217H144.564C145.448 79.4217 146.164 78.7052 146.164 77.8213V47.1688C146.164 46.2849 145.448 45.5684 144.564 45.5684Z" fill="#C376FF"/>
<path opacity="0.3" d="M144.564 45.5684H107.017C106.133 45.5684 105.416 46.2849 105.416 47.1688V77.8213C105.416 78.7052 106.133 79.4217 107.017 79.4217H144.564C145.448 79.4217 146.164 78.7052 146.164 77.8213V47.1688C146.164 46.2849 145.448 45.5684 144.564 45.5684Z" fill="white"/>
<path d="M134.387 49.9697H121.556V53.3463H134.387V49.9697Z" fill="#C376FF"/>
<path d="M127.634 54.0225H121.556V74.9571H127.634V54.0225Z" fill="#C376FF"/>
<path d="M141.815 49.9697H135.062V53.3463H141.815V49.9697Z" fill="#C376FF"/>
<path d="M141.815 54.0225H135.062V74.9571H141.815V54.0225Z" fill="#C376FF"/>
<path d="M134.387 54.0225H128.309V74.9571H134.387V54.0225Z" fill="#C376FF"/>
<path d="M120.88 54.0225H110.075V74.9571H120.88V54.0225Z" fill="#C376FF"/>
<path d="M120.88 49.9697H110.075V53.3463H120.88V49.9697Z" fill="#C376FF"/>
<path d="M256.679 124.726H210.704C208.948 124.726 207.523 126.15 207.523 127.906V173.882C207.523 175.638 208.948 177.062 210.704 177.062H256.679C258.436 177.062 259.86 175.638 259.86 173.882V127.906C259.86 126.15 258.436 124.726 256.679 124.726Z" fill="#C376FF"/>
<path opacity="0.25" d="M253.242 131.563H214.358V170.225H253.242V131.563Z" fill="white"/>
<path opacity="0.25" d="M214.358 170.18L224.258 162.043L227.492 164.65L237.744 155.992L242.781 160.949L253.242 152.17V170.18H214.358Z" fill="white"/>
<path opacity="0.25" d="M214.358 170.18L222.738 154.459L232.53 155.985L239.851 146.422L247.387 147.78L253.242 141.932V170.18H214.358Z" fill="white"/>
<path opacity="0.25" d="M214.358 170.18L233.692 167.789L239.959 164.656L246.712 165.331L253.242 162.076V170.18H214.358Z" fill="white"/>
<path opacity="0.2" d="M254.592 124.934V130.336C254.556 131.22 254.188 132.058 253.563 132.683C252.937 133.309 252.1 133.676 251.216 133.713H213.398V149.569C213.355 150.421 212.975 151.221 212.342 151.794C211.708 152.366 210.874 152.664 210.022 152.621H207.321V127.905C207.321 126.149 208.941 124.934 210.697 124.934H254.592Z" fill="black"/>
<path d="M192.937 80.2812H146.961C145.205 80.2812 143.781 81.7053 143.781 83.462V129.437C143.781 131.194 145.205 132.618 146.961 132.618H192.937C194.693 132.618 196.117 131.194 196.117 129.437V83.462C196.117 81.7053 194.693 80.2812 192.937 80.2812Z" fill="#C376FF"/>
<path opacity="0.8" d="M176.601 85.7432H163.088C162.763 85.7432 162.5 86.0062 162.5 86.3307V93.955C162.5 94.2794 162.763 94.5425 163.088 94.5425H176.601C176.925 94.5425 177.188 94.2794 177.188 93.955V86.3307C177.188 86.0062 176.925 85.7432 176.601 85.7432Z" fill="white"/>
<path opacity="0.6" d="M166.289 104.676H155.585C155.261 104.676 154.998 104.939 154.998 105.263V110.808C154.998 111.132 155.261 111.395 155.585 111.395H166.289C166.613 111.395 166.876 111.132 166.876 110.808V105.263C166.876 104.939 166.613 104.676 166.289 104.676Z" fill="white"/>
<path opacity="0.6" d="M184.313 104.676H173.609C173.285 104.676 173.022 104.939 173.022 105.263V110.808C173.022 111.132 173.285 111.395 173.609 111.395H184.313C184.637 111.395 184.9 111.132 184.9 110.808V105.263C184.9 104.939 184.637 104.676 184.313 104.676Z" fill="white"/>
<path opacity="0.4" d="M173.231 118.891H168.173C167.848 118.891 167.585 119.154 167.585 119.478V124.043C167.585 124.368 167.848 124.631 168.173 124.631H173.231C173.556 124.631 173.819 124.368 173.819 124.043V119.478C173.819 119.154 173.556 118.891 173.231 118.891Z" fill="white"/>
<path opacity="0.4" d="M181.146 118.891H176.088C175.763 118.891 175.5 119.154 175.5 119.478V124.043C175.5 124.368 175.763 124.631 176.088 124.631H181.146C181.47 124.631 181.733 124.368 181.733 124.043V119.478C181.733 119.154 181.47 118.891 181.146 118.891Z" fill="white"/>
<path opacity="0.4" d="M189.067 118.891H184.009C183.684 118.891 183.421 119.154 183.421 119.478V124.043C183.421 124.368 183.684 124.631 184.009 124.631H189.067C189.391 124.631 189.655 124.368 189.655 124.043V119.478C189.655 119.154 189.391 118.891 189.067 118.891Z" fill="white"/>
<path opacity="0.4" d="M154.91 118.891H149.852C149.527 118.891 149.264 119.154 149.264 119.478V124.043C149.264 124.368 149.527 124.631 149.852 124.631H154.91C155.234 124.631 155.497 124.368 155.497 124.043V119.478C155.497 119.154 155.234 118.891 154.91 118.891Z" fill="white"/>
<path opacity="0.4" d="M163.5 118.891H158.442C158.117 118.891 157.854 119.154 157.854 119.478V124.043C157.854 124.368 158.117 124.631 158.442 124.631H163.5C163.824 124.631 164.087 124.368 164.087 124.043V119.478C164.087 119.154 163.824 118.891 163.5 118.891Z" fill="white"/>
<g opacity="0.3">
<path d="M178.282 104.672H178.958V99.9445H170.178V94.542H169.503V99.9445H160.724V104.672H161.399V100.62H178.282V104.672Z" fill="white"/>
<path d="M160.724 115.475H151.945V118.851H152.621V116.15H160.724V118.851H161.4V111.423H160.724V115.475Z" fill="white"/>
<path d="M178.958 116.15V111.423H178.282V116.15H170.179V118.851H170.854V116.825H178.282V118.851H178.958V116.825H186.386V118.851H187.062V116.15H178.958Z" fill="white"/>
</g>
<path opacity="0.2" d="M195.84 83.464V98.5978H158.746C157.855 98.5682 157.008 98.2044 156.374 97.5787C155.739 96.953 155.364 96.1113 155.322 95.2212V80.3643H192.943C193.342 80.3613 193.737 80.4411 194.103 80.5985C194.47 80.7559 194.799 80.9876 195.072 81.2788C195.344 81.5701 195.553 81.9147 195.685 82.2908C195.817 82.667 195.87 83.0664 195.84 83.464Z" fill="black"/>
<path d="M264.702 57.5293H218.727C216.97 57.5293 215.546 58.9533 215.546 60.71V106.685C215.546 108.442 216.97 109.866 218.727 109.866H264.702C266.459 109.866 267.883 108.442 267.883 106.685V60.71C267.883 58.9533 266.459 57.5293 264.702 57.5293Z" fill="#C376FF"/>
<path opacity="0.25" d="M261.157 64.3643H222.272V103.026H261.157V64.3643Z" fill="white"/>
<path opacity="0.35" d="M230.16 88.127H226.243V98.1688H230.16V88.127Z" fill="white"/>
<path opacity="0.35" d="M230.16 88.127H226.243V103.024H230.16V88.127Z" fill="white"/>
<path opacity="0.35" d="M236.913 81.0918H232.996V95.8744H236.913V81.0918Z" fill="white"/>
<path opacity="0.35" d="M236.913 81.0918H232.996V103.026H236.913V81.0918Z" fill="white"/>
<path opacity="0.35" d="M243.673 85.4219H239.756V97.2871H243.673V85.4219Z" fill="white"/>
<path opacity="0.35" d="M243.673 85.4219H239.756V103.027H243.673V85.4219Z" fill="white"/>
<path opacity="0.35" d="M250.433 79.3428H246.516V95.3071H250.433V79.3428Z" fill="white"/>
<path opacity="0.35" d="M250.433 79.3428H246.516V103.026H250.433V79.3428Z" fill="white"/>
<path opacity="0.35" d="M257.186 70.0566H253.269V92.2744H257.186V70.0566Z" fill="white"/>
<path opacity="0.35" d="M257.186 70.0566H253.269V103.025H257.186V70.0566Z" fill="white"/>
<path opacity="0.2" d="M229.606 57.4033V86.0365C229.585 86.8808 229.229 87.6821 228.618 88.2646C228.006 88.847 227.189 89.1629 226.344 89.143H215.424V60.7056C215.443 59.8369 215.796 59.0088 216.41 58.3938C217.024 57.7787 217.851 57.424 218.72 57.4033H229.606Z" fill="black"/>
<path d="M221.543 21.6377H175.567C173.811 21.6377 172.387 23.0618 172.387 24.8184V70.7937C172.387 72.5503 173.811 73.9744 175.567 73.9744H221.543C223.299 73.9744 224.723 72.5503 224.723 70.7937V24.8184C224.723 23.0618 223.299 21.6377 221.543 21.6377Z" fill="#C376FF"/>
<path opacity="0.25" d="M215.503 50.555C217.022 41.2004 210.669 32.3861 201.315 30.8676C191.96 29.3491 183.146 35.7016 181.627 45.0562C180.109 54.4107 186.461 63.2251 195.816 64.7436C205.17 66.262 213.985 59.9096 215.503 50.555Z" fill="white"/>
<path opacity="0.25" d="M198.542 47.808L215.425 51.009C214.816 54.2071 213.31 57.1661 211.083 59.5406C208.856 61.915 205.999 63.6069 202.847 64.4188C199.694 65.2306 196.376 65.1289 193.279 64.1255C190.182 63.1221 187.434 61.2585 185.356 58.7521C183.279 56.2457 181.957 53.2001 181.545 49.9707C181.134 46.7413 181.649 43.4615 183.032 40.5142C184.414 37.5668 186.607 35.0735 189.353 33.3254C192.099 31.5773 195.286 30.6465 198.542 30.6416V47.808Z" fill="white"/>
<path opacity="0.25" d="M198.542 47.808V64.9677C194.049 64.8726 189.772 63.0194 186.631 59.806C183.489 56.5927 181.732 52.2755 181.739 47.7815C181.745 43.2875 183.513 38.9751 186.664 35.7704C189.814 32.5657 194.096 30.7243 198.589 30.6416L198.542 47.808Z" fill="white"/>
<path opacity="0.25" d="M198.542 47.8079L189.499 33.2212C190.841 32.3853 192.294 31.7419 193.815 31.3101C195.334 30.8699 196.906 30.6427 198.488 30.6348L198.542 47.8079Z" fill="white"/>
<path d="M289.202 81.7119C289.202 81.7119 298.319 97.6898 298.994 101.519C299.669 105.348 291.228 129.828 291.228 129.828C291.228 129.828 293.085 136.27 291.059 137.358C289.033 138.445 285.495 140.633 284.981 138.776C284.468 136.919 284.981 130.794 284.981 130.794L286.508 129.49C286.508 129.49 291.91 103.909 291.91 103.025C291.91 102.14 282.111 87.0536 282.111 87.0536L289.202 81.7119Z" fill="#E4897B"/>
<path d="M255.592 237.733L250.115 238.307L249.838 235.133L249.089 226.496L254.566 225.915L255.396 235.457L255.592 237.733Z" fill="#E4897B"/>
<path d="M282.929 237.033H277.621L277.573 235.831L277.567 235.682L277.297 227.983L277.29 227.828L277.182 224.877H282.496L282.929 237.033Z" fill="#E4897B"/>
<path opacity="0.2" d="M254.566 225.915L255.396 235.457L249.838 235.133L249.089 226.496L254.566 225.915Z" fill="black"/>
<path opacity="0.2" d="M282.895 236.359H282.888L277.573 235.683H277.567L277.29 228.255H277.296L282.618 228.68L282.888 236.122L282.895 236.359Z" fill="black"/>
<path d="M295.3 89.3638L286.163 95.5767L285.988 95.3538L280.444 88.128L277.067 83.6979L282.085 70.0566C287.852 72.2582 295.3 89.3638 295.3 89.3638Z" fill="#263238"/>
<path opacity="0.2" d="M285.988 95.353L280.443 88.1272L284.894 81.2998C284.894 81.2998 287.615 88.3501 285.988 95.353Z" fill="black"/>
<path d="M276.878 236.716H283.327C283.433 236.715 283.536 236.751 283.618 236.818C283.701 236.884 283.758 236.977 283.779 237.081L284.826 241.808C284.848 241.923 284.844 242.041 284.815 242.154C284.786 242.267 284.733 242.372 284.659 242.462C284.585 242.553 284.492 242.625 284.387 242.676C284.281 242.726 284.166 242.752 284.049 242.753C281.963 242.72 280.443 242.591 277.823 242.591C276.209 242.591 271.34 242.76 269.112 242.76C266.883 242.76 266.593 240.559 267.504 240.356C271.597 239.465 274.676 238.229 275.986 237.054C276.229 236.83 276.548 236.709 276.878 236.716Z" fill="#263238"/>
<path d="M249.534 236.549H255.984C256.09 236.548 256.192 236.584 256.275 236.651C256.357 236.717 256.414 236.81 256.436 236.914L257.483 241.641C257.505 241.756 257.501 241.874 257.472 241.987C257.443 242.1 257.39 242.205 257.316 242.295C257.242 242.386 257.149 242.458 257.043 242.509C256.938 242.559 256.823 242.585 256.706 242.586C254.62 242.553 253.1 242.424 250.48 242.424C248.866 242.424 243.997 242.593 241.768 242.593C239.54 242.593 239.249 240.392 240.161 240.189C244.254 239.298 247.333 238.062 248.643 236.887C248.885 236.663 249.205 236.542 249.534 236.549Z" fill="#263238"/>
<path d="M248.589 234.334H256.375C256.375 234.334 255.741 167.309 264.162 144.673C264.756 152.155 265.425 159.914 266.08 166.384C266.485 170.389 266.897 173.812 267.282 176.453C269.733 193.336 275.912 235.009 275.912 235.009H283.631C283.631 235.009 282.713 195.071 281.808 178.486C280.801 160.475 280.369 120.881 280.322 117.505H252.134C249.453 131.686 242.579 188.413 248.589 234.334Z" fill="#C376FF"/>
<path opacity="0.6" d="M248.589 234.334H256.375C256.375 234.334 255.741 167.309 264.162 144.673C264.756 152.155 265.425 159.914 266.08 166.384C266.485 170.389 266.897 173.812 267.282 176.453C269.733 193.336 275.912 235.009 275.912 235.009H283.631C283.631 235.009 282.713 195.071 281.808 178.486C280.801 160.475 280.369 120.881 280.322 117.505H252.134C249.453 131.686 242.579 188.413 248.589 234.334Z" fill="white"/>
<path d="M262.359 57.9885C262.426 58.2452 262.501 58.5018 262.588 58.7381C263.223 60.5104 264.507 61.9755 266.181 62.8373C267.462 63.5216 268.931 63.7679 270.365 63.5387C271.799 63.3094 273.119 62.6172 274.123 61.5677C276.783 58.8665 276.716 55.7803 277.013 50.5331C277.104 49.3074 276.88 48.0787 276.362 46.9641C275.844 45.8495 275.049 44.8861 274.053 44.1657C273.057 43.4454 271.893 42.992 270.673 42.8488C269.452 42.7056 268.215 42.8774 267.079 43.3478C261.926 45.448 261.224 53.2614 262.359 57.9885Z" fill="#E4897B"/>
<path opacity="0.2" d="M265.215 62.2456C265.521 62.468 265.844 62.6667 266.181 62.8399C267.06 63.3062 268.032 63.5705 269.026 63.6137C270.02 63.657 271.011 63.478 271.928 63.0897C271.694 62.4568 271.379 61.8574 270.989 61.3069C269.014 61.0598 267.01 61.3856 265.215 62.2456Z" fill="black"/>
<path d="M275.783 69.051C273.197 71.4011 266.863 70.53 266.863 70.53C266.863 70.53 262.905 69.4495 263.736 68.2137C266.066 67.8287 267.194 66.7415 267.659 65.3503C267.915 64.488 267.995 63.5834 267.896 62.6896C267.857 62.1912 267.792 61.6953 267.7 61.2039L275.527 55.376C274.507 59.232 273.251 66.2755 275.783 69.051Z" fill="#E4897B"/>
<path d="M264.877 46.8605C264.931 47.0091 264.796 47.313 264.695 47.6574C264.507 48.3323 264.411 49.0298 264.411 49.7306C264.433 50.8727 264.683 51.9988 265.147 53.0427C265.611 54.0865 266.279 55.0269 267.113 55.8084C267.698 57.9312 268.49 59.9918 269.476 61.9605C269.561 62.164 269.696 62.3429 269.868 62.4805C270.1 62.6011 270.365 62.6459 270.624 62.6088L275.203 62.4535C275.337 62.4668 275.472 62.4508 275.599 62.4065C275.726 62.3621 275.842 62.2906 275.939 62.1968C276.009 62.0656 276.065 61.9276 276.108 61.7849C276.52 60.7989 278.262 61.2649 278.863 60.3802C279.038 59.9794 279.158 59.557 279.221 59.1242C279.599 58.0302 281.145 57.4629 281.091 56.3014C281.058 55.626 280.416 55.0183 280.632 54.37C280.848 53.7217 281.645 53.5191 281.983 52.9383C282.321 52.3575 281.983 51.5877 281.611 51.0474C281.393 50.7914 281.228 50.4936 281.128 50.1719C281.029 49.8503 280.995 49.5117 281.031 49.1768C281.124 48.9275 281.242 48.6877 281.382 48.461C281.598 48.005 281.67 47.4942 281.589 46.9961C281.508 46.4981 281.278 46.0364 280.929 45.672C280.61 45.4229 280.328 45.1295 280.092 44.8008C279.781 44.2133 280.045 43.4502 279.667 42.8627C279.288 42.2751 278.512 42.2954 277.85 42.3359C277.188 42.3764 276.405 42.3359 276.013 41.8362C275.729 41.4513 275.743 40.9043 275.432 40.5463C274.987 40.0466 274.176 40.1817 273.548 40.4315C272.92 40.6814 272.231 40.9988 271.624 40.7219C271.198 40.5261 270.948 40.0939 270.563 39.8373C270.291 39.6611 269.969 39.576 269.645 39.5942C269.321 39.6124 269.011 39.733 268.76 39.9386C268.423 40.2289 268.22 40.6679 267.835 40.8975C267.247 41.1303 266.593 41.1303 266.005 40.8975C265.713 40.7808 265.394 40.7462 265.083 40.7974C264.773 40.8486 264.482 40.9836 264.242 41.1879C263.675 41.8632 264.29 43.0652 263.709 43.7473C263.378 44.139 262.77 44.193 262.412 44.5577C262.302 44.6898 262.227 44.847 262.193 45.0154C262.158 45.1838 262.166 45.3581 262.216 45.5226C262.265 45.6872 262.355 45.8369 262.476 45.9584C262.598 46.0799 262.748 46.1695 262.912 46.219C263.115 46.2595 263.378 46.273 263.452 46.4621C263.472 46.5464 263.486 46.6322 263.493 46.7187C263.567 46.9821 263.939 46.9956 264.168 46.9078C264.641 46.7254 264.83 46.7389 264.877 46.8605Z" fill="#263238"/>
<path d="M268.2 53.5846C268.101 54.0789 267.892 54.5447 267.59 54.9478C267.287 55.351 266.898 55.6813 266.451 55.9144C265.384 56.3669 264.682 54.8609 264.837 53.2875C264.986 51.8828 265.708 49.9109 266.863 50.1743C268.018 50.4376 268.571 52.1732 268.2 53.5846Z" fill="#E4897B"/>
<path opacity="0.2" d="M264.162 144.64C264.756 152.122 265.425 159.902 266.08 166.371C267.039 157.032 268.214 150.373 268.214 150.373C268.214 150.373 269.314 149.468 272.34 144.64C275.365 139.811 272.34 130.796 272.34 130.796C272.434 139.17 264.162 144.64 264.162 144.64Z" fill="black"/>
<path d="M281.605 123.13L249.413 121.556C250.125 109.831 251.555 98.1597 253.694 86.6089C254.574 81.9689 255.701 77.3792 257.071 72.8596C257.768 70.5667 258.586 68.3125 259.522 66.1064C259.522 66.1064 279.532 67.7542 283.631 70.9079C287.73 74.0616 281.382 106.699 281.605 123.13Z" fill="#263238"/>
<path d="M264.817 66.6401C264.817 66.6401 267.876 64.236 273.596 64.3643C279.316 64.4926 279.896 66.6401 279.896 66.6401C279.896 66.6401 286.197 69.7803 281.247 74.96C276.297 80.1396 266.545 67.0183 266.545 67.0183L264.817 66.6401Z" fill="#263238"/>
<path opacity="0.25" d="M264.817 66.6401C264.817 66.6401 267.876 64.236 273.596 64.3643C279.316 64.4926 279.896 66.6401 279.896 66.6401C279.896 66.6401 286.197 69.7803 281.247 74.96C276.297 80.1396 266.545 67.0183 266.545 67.0183L264.817 66.6401Z" fill="white"/>
<path opacity="0.2" d="M260.029 73.2713C260.029 73.2713 258.644 82.388 253.694 86.6087C254.574 81.9687 255.701 77.379 257.071 72.8594L260.029 73.2713Z" fill="black"/>
<path d="M255.902 66.2229C255.902 66.2229 235.906 62.1373 233.097 61.0636C230.288 59.9898 215.424 45.7812 215.424 45.7812L212.169 48.2394C212.169 48.2394 223.305 62.6911 228.876 66.8577C234.448 71.0244 253.917 77.3183 253.917 77.3183L255.902 66.2229Z" fill="#E4897B"/>
<path d="M260.076 66.2208L242.659 63.04L242.214 75.0741L255.227 80.3618C255.227 80.3618 263.432 72.1297 260.076 66.2208Z" fill="#263238"/>
<path d="M215.424 45.7787C213.824 43.9486 207.996 39.998 207.138 39.6604C206.281 39.3227 205.038 44.4888 205.288 45.1642C205.538 45.8395 208.401 47.2711 209.846 47.44C211.291 47.6088 212.831 49.0877 212.831 49.0877L215.424 45.7787Z" fill="#E4897B"/>
<path d="M241.714 62.6025L243.625 63.0415L242.754 75.2917L240.924 74.6231L241.714 62.6025Z" fill="#263238"/>
<path opacity="0.25" d="M241.714 62.6025L243.625 63.0415L242.754 75.2917L240.924 74.6231L241.714 62.6025Z" fill="white"/>
<path d="M284.982 95.4768L295.3 88.4873L296.01 90.2701L286.177 96.456L284.982 95.4768Z" fill="#263238"/>
<path opacity="0.25" d="M284.982 95.4768L295.3 88.4873L296.01 90.2701L286.177 96.456L284.982 95.4768Z" fill="white"/>
<path d="M247.711 232.141L248.096 234.335H257.294V232.309L247.711 232.141Z" fill="#C376FF"/>
<path d="M275.034 232.981L275.912 235.007H283.631L284.138 232.981H275.034Z" fill="#C376FF"/>
</svg>
