<svg width="20" height="20" viewBox="0 0 20 20" fill="none" xmlns="http://www.w3.org/2000/svg">
<path d="M10 20C9.15676 20 8.33513 19.6279 7.77297 18.9767L6.68108 17.7209C6.45405 17.4605 6.15135 17.3116 5.82703 17.293C5.5027 17.2837 5.17838 17.4047 4.91892 17.6372L4.3027 17.1628L4.8973 17.6372C3.34054 19.0698 2.14054 18.9581 1.56757 18.7628C0.983783 18.5674 0 17.9256 0 15.8605V5.38605C0 1.25581 1.38378 0 5.91351 0H14.0865C18.6162 0 20 1.25581 20 5.38605V15.8605C20 17.9163 19.0162 18.5581 18.4324 18.7628C17.8595 18.9581 16.6703 19.0698 15.1027 17.6372C14.8432 17.3953 14.5297 17.2651 14.1838 17.293C13.8595 17.3116 13.5459 17.4605 13.3189 17.7209L12.227 18.9767C11.6649 19.6279 10.8432 20 10 20ZM5.76216 15.8884H5.9027C6.7027 15.9256 7.45946 16.2884 7.96757 16.8744L9.05946 18.1302C9.58919 18.7349 10.4 18.7349 10.9297 18.1302L12.0216 16.8744C12.5405 16.2884 13.2865 15.9256 14.0973 15.8884C14.8973 15.8512 15.6973 16.1395 16.2811 16.6791C17.1027 17.4326 17.6432 17.5256 17.827 17.4605C18.0865 17.3674 18.3676 16.8279 18.3676 15.8605V5.38605C18.3676 2.02791 17.6865 1.39535 14.0757 1.39535H5.91351C2.3027 1.39535 1.62162 2.02791 1.62162 5.38605V15.8605C1.62162 16.8372 1.9027 17.3767 2.16216 17.4605C2.34595 17.5256 2.88649 17.4326 3.70811 16.6791C4.29189 16.1674 5.01622 15.8884 5.76216 15.8884Z" fill="white" fill-opacity="0.7"/>
<path d="M14.3242 6.04672H5.67556C5.23231 6.04672 4.86475 5.73044 4.86475 5.34904C4.86475 4.96765 5.23231 4.65137 5.67556 4.65137H14.3242C14.7674 4.65137 15.135 4.96765 15.135 5.34904C15.135 5.73044 14.7674 6.04672 14.3242 6.04672Z" fill="white" fill-opacity="0.7"/>
<path d="M13.2431 9.76766H6.75661C6.31337 9.76766 5.9458 9.45138 5.9458 9.06999C5.9458 8.68859 6.31337 8.37231 6.75661 8.37231H13.2431C13.6863 8.37231 14.0539 8.68859 14.0539 9.06999C14.0539 9.45138 13.6863 9.76766 13.2431 9.76766Z" fill="white" fill-opacity="0.7"/>
</svg>
