<svg width="30" height="30" viewBox="0 0 30 30" fill="none" xmlns="http://www.w3.org/2000/svg">
<circle cx="15" cy="15" r="15" fill="#4169E1" fill-opacity="0.09"/>
<path d="M16 19.2576C17.5 19 19.1666 21.5 19.4999 23C19.5 25 14 25.5576 12 24.7576C11.5 24.5576 14.3333 20.9242 16 19.2576Z" fill="#4671F3"/>
<path d="M14.4599 16.73C16.0118 16.73 17.2699 15.4719 17.2699 13.92C17.2699 12.3681 16.0118 11.11 14.4599 11.11C12.908 11.11 11.6499 12.3681 11.6499 13.92C11.6499 15.4719 12.908 16.73 14.4599 16.73Z" stroke="#1E1E1E" stroke-width="1.5" stroke-linecap="round" stroke-linejoin="round"/>
<path d="M19.65 23.2C19.65 20.87 17.33 18.97 14.46 18.97C11.59 18.97 9.27002 20.86 9.27002 23.2" stroke="#1E1E1E" stroke-width="1.5" stroke-linecap="round" stroke-linejoin="round"/>
<path d="M24 15.5C24 20.75 19.75 25 14.5 25C9.25 25 5 20.75 5 15.5C5 10.25 9.25 6 14.5 6C15.81 6 17.06 6.25999 18.2 6.73999C18.07 7.13999 18 7.56 18 8C18 8.75 18.21 9.46 18.58 10.06C18.78 10.4 19.04 10.71 19.34 10.97C20.04 11.61 20.97 12 22 12C22.44 12 22.86 11.93 23.25 11.79C23.73 12.93 24 14.19 24 15.5Z" stroke="#1E1E1E" stroke-width="1.5" stroke-linecap="round" stroke-linejoin="round"/>
<path d="M26 8C26 8.32 25.96 8.62999 25.88 8.92999C25.79 9.32999 25.63 9.72 25.42 10.06C24.94 10.87 24.17 11.5 23.25 11.79C22.86 11.93 22.44 12 22 12C20.97 12 20.04 11.61 19.34 10.97C19.04 10.71 18.78 10.4 18.58 10.06C18.21 9.46 18 8.75 18 8C18 7.56 18.07 7.13999 18.2 6.73999C18.39 6.15999 18.71 5.64002 19.13 5.21002C19.86 4.46002 20.88 4 22 4C23.18 4 24.25 4.51002 24.97 5.33002C25.61 6.04002 26 6.98 26 8Z" stroke="#1E1E1E" stroke-width="1.5" stroke-miterlimit="10" stroke-linecap="round" stroke-linejoin="round"/>
<path d="M23.49 7.97998H20.51" stroke="#1E1E1E" stroke-width="1.5" stroke-miterlimit="10" stroke-linecap="round" stroke-linejoin="round"/>
<path d="M22 6.52002V9.51001" stroke="#1E1E1E" stroke-width="1.5" stroke-miterlimit="10" stroke-linecap="round" stroke-linejoin="round"/>
</svg>
