<svg width="30" height="30" viewBox="0 0 30 30" fill="none" xmlns="http://www.w3.org/2000/svg">
<path d="M13.5 10.5H16.5C18 10.5 18 9.75 18 9C18 7.5 17.25 7.5 16.5 7.5H13.5C12.75 7.5 12 7.5 12 9C12 10.5 12.75 10.5 13.5 10.5Z" stroke="#1E1E1E" stroke-width="1.5" stroke-miterlimit="10" stroke-linecap="round" stroke-linejoin="round"/>
<path d="M18 9.01501C20.4975 9.15001 21.75 10.0725 21.75 13.5V18C21.75 21 21 22.5 17.25 22.5H12.75C9 22.5 8.25 21 8.25 18V13.5C8.25 10.08 9.5025 9.15001 12 9.01501" stroke="#1E1E1E" stroke-width="1.5" stroke-miterlimit="10" stroke-linecap="round" stroke-linejoin="round"/>
<path fill-rule="evenodd" clip-rule="evenodd" d="M17.5202 13.1648C17.7399 13.3844 17.7399 13.7406 17.5202 13.9602L13.2752 18.2052C13.0555 18.4249 12.6994 18.4249 12.4797 18.2052C12.26 17.9856 12.26 17.6294 12.4797 17.4098L16.7247 13.1648C16.9444 12.9451 17.3005 12.9451 17.5202 13.1648Z" fill="#4671F3"/>
<path fill-rule="evenodd" clip-rule="evenodd" d="M12.4797 13.1648C12.6994 12.9451 13.0555 12.9451 13.2752 13.1648L17.5202 17.4098C17.7399 17.6294 17.7399 17.9856 17.5202 18.2052C17.3005 18.4249 16.9444 18.4249 16.7247 18.2052L12.4797 13.9602C12.26 13.7406 12.26 13.3844 12.4797 13.1648Z" fill="#4671F3"/>
</svg>
