<svg width="20" height="20" viewBox="0 0 20 20" fill="none" xmlns="http://www.w3.org/2000/svg">
<path d="M17.5 5.60827C17.4833 5.60827 17.4583 5.60827 17.4333 5.60827C13.025 5.16661 8.62499 4.99994 4.26666 5.44161L2.56666 5.60827C2.21666 5.64161 1.90832 5.39161 1.87499 5.04161C1.84166 4.69161 2.09166 4.39161 2.43332 4.35827L4.13332 4.19161C8.56666 3.74161 13.0583 3.91661 17.5583 4.35827C17.9 4.39161 18.15 4.69994 18.1167 5.04161C18.0917 5.36661 17.8167 5.60827 17.5 5.60827Z" fill="#E6E6E6"/>
<path d="M7.08332 4.76663C7.04999 4.76663 7.01665 4.76663 6.97499 4.75829C6.64165 4.69996 6.40832 4.37496 6.46665 4.04163L6.64999 2.94996C6.78332 2.14996 6.96665 1.04163 8.90832 1.04163H11.0917C13.0417 1.04163 13.225 2.19163 13.35 2.95829L13.5333 4.04163C13.5917 4.38329 13.3583 4.70829 13.025 4.75829C12.6833 4.81663 12.3583 4.58329 12.3083 4.24996L12.125 3.16663C12.0083 2.44163 11.9833 2.29996 11.1 2.29996H8.91665C8.03332 2.29996 8.01665 2.41663 7.89165 3.15829L7.69999 4.24163C7.64999 4.54996 7.38332 4.76663 7.08332 4.76663Z" fill="#E6E6E6"/>
<path d="M12.675 18.9583H7.325C4.41666 18.9583 4.3 17.3499 4.20833 16.0499L3.66666 7.65827C3.64166 7.31661 3.90833 7.01661 4.25 6.99161C4.6 6.97494 4.89166 7.23327 4.91666 7.57494L5.45833 15.9666C5.55 17.2333 5.58333 17.7083 7.325 17.7083H12.675C14.425 17.7083 14.4583 17.2333 14.5417 15.9666L15.0833 7.57494C15.1083 7.23327 15.4083 6.97494 15.75 6.99161C16.0917 7.01661 16.3583 7.30827 16.3333 7.65827L15.7917 16.0499C15.7 17.3499 15.5833 18.9583 12.675 18.9583Z" fill="#E6E6E6"/>
<path d="M8.32906 13.7393C8.08747 13.4977 8.08747 13.097 8.32907 12.8554L11.2753 9.9091C11.5169 9.66751 11.9176 9.66751 12.1592 9.9091C12.4008 10.1507 12.4008 10.5514 12.1592 10.793L9.21295 13.7393C8.97135 13.9809 8.57066 13.9809 8.32906 13.7393Z" fill="#E6E6E6"/>
<path d="M11.2395 13.7037L8.29323 10.7575C8.05163 10.5159 8.05163 10.1152 8.29323 9.87358C8.53482 9.63199 8.93552 9.63199 9.17711 9.87358L12.1234 12.8199C12.365 13.0615 12.365 13.4621 12.1234 13.7037C11.8818 13.9453 11.4811 13.9453 11.2395 13.7037Z" fill="#E6E6E6"/>
</svg>
