<svg width="42" height="42" viewBox="0 0 42 42" fill="none" xmlns="http://www.w3.org/2000/svg">
<rect width="42" height="42" rx="21" fill="#4671F3" fill-opacity="0.1"/>
<path d="M30 19L18 31C22 32 25.5 30 27.5 28.5C30.7 25.7 30.5 21 30 19Z" fill="#4671F3"/>
<path d="M26 12H30V16" stroke="#1E1E1E" stroke-width="1.5" stroke-linecap="round" stroke-linejoin="round"/>
<path d="M24 18L30 12" stroke="#1E1E1E" stroke-width="1.5" stroke-linecap="round" stroke-linejoin="round"/>
<path d="M16 30H12V26" stroke="#1E1E1E" stroke-width="1.5" stroke-linecap="round" stroke-linejoin="round"/>
<path d="M18 24L12 30" stroke="#1E1E1E" stroke-width="1.5" stroke-linecap="round" stroke-linejoin="round"/>
<path d="M23.02 11.2C22.37 11.07 21.69 11 21 11C15.48 11 11 15.48 11 21C11 21.69 11.07 22.36 11.2 23" stroke="#1E1E1E" stroke-width="1.5" stroke-linecap="round" stroke-linejoin="round"/>
<path d="M18.98 30.8C19.63 30.93 20.31 31 21 31C26.52 31 31 26.52 31 21C31 20.32 30.93 19.65 30.8 19" stroke="#1E1E1E" stroke-width="1.5" stroke-linecap="round" stroke-linejoin="round"/>
</svg>
