<svg width="30" height="30" viewBox="0 0 30 30" fill="none" xmlns="http://www.w3.org/2000/svg">
<circle cx="15" cy="15" r="15" fill="#4169E1" fill-opacity="0.09"/>
<path d="M17.3816 19.8401C12.1951 21.4475 8.97428 17.713 7.88544 15.5933C7.5138 17.6096 8.22596 19.731 8.75527 20.5912C12.0348 24.0916 15.8726 21.5489 17.3816 19.8401Z" fill="#4671F3"/>
<path d="M16.0966 7.36117C20.6843 10.2335 19.8511 15.0622 18.9025 17.2462C20.7104 16.2288 21.9027 14.3274 22.2314 13.3753C22.8446 8.65293 18.397 7.39823 16.0966 7.36117Z" fill="#4671F3"/>
<path d="M17.625 17.6226C17.49 17.6226 17.34 17.6152 17.1975 17.6078C16.92 17.5931 16.695 17.3717 16.6725 17.0986C16.5075 15.0398 14.805 13.372 12.72 13.2097C12.4425 13.1875 12.2175 12.9662 12.2025 12.6931C12.195 12.5529 12.1875 12.4127 12.1875 12.2725C12.1875 9.32073 14.625 6.92242 17.625 6.92242C20.625 6.92242 23.0625 9.32073 23.0625 12.2725C23.0625 15.2243 20.625 17.6226 17.625 17.6226ZM13.3125 12.1692C15.5475 12.5529 17.34 14.3166 17.73 16.5157C20.0625 16.4566 21.9375 14.5823 21.9375 12.2725C21.9375 9.93322 20.0025 8.02934 17.625 8.02934C15.285 8.02934 13.3725 9.87418 13.3125 12.1692Z" fill="#1E1E1E"/>
<path d="M12.375 22.7882C9.375 22.7882 6.9375 20.3899 6.9375 17.4381C6.9375 14.4863 9.375 12.088 12.375 12.088C12.51 12.088 12.66 12.0954 12.8025 12.1028C15.45 12.3094 17.595 14.4199 17.7975 17.0101C17.805 17.1577 17.8125 17.2979 17.8125 17.4381C17.8125 20.3899 15.375 22.7882 12.375 22.7882ZM12.375 13.1949C9.9975 13.1949 8.0625 15.0988 8.0625 17.4381C8.0625 19.7774 9.9975 21.6812 12.375 21.6812C14.7525 21.6812 16.6875 19.7774 16.6875 17.4381C16.6875 17.32 16.68 17.2019 16.6725 17.0913C16.5075 15.0472 14.8125 13.372 12.72 13.2097C12.615 13.2023 12.495 13.1949 12.375 13.1949Z" fill="#1E1E1E"/>
<path d="M8.25 11.4165C8.0775 11.4165 7.91249 11.387 7.74749 11.3205C7.25249 11.1213 6.9375 10.649 6.9375 10.1251V8.21382C6.9375 7.5054 7.53 6.92242 8.25 6.92242H10.1925C10.725 6.92242 11.1975 7.23235 11.4075 7.71939C11.61 8.20643 11.4975 8.75989 11.1225 9.12886L9.17999 11.0401C8.92499 11.2836 8.595 11.4165 8.25 11.4165ZM8.25 8.02934C8.145 8.02934 8.0625 8.11051 8.0625 8.21382V10.1251C8.0625 10.2358 8.1375 10.2801 8.175 10.2948C8.22 10.3096 8.30251 10.3317 8.37751 10.2579L10.32 8.34665C10.395 8.27285 10.38 8.19169 10.3575 8.14741C10.335 8.10313 10.29 8.03672 10.185 8.03672H8.25V8.02934Z" fill="#1E1E1E"/>
<path d="M21.7499 22.7882H19.8074C19.2749 22.7882 18.8024 22.4782 18.5924 21.9912C18.3899 21.5041 18.5024 20.9507 18.8774 20.5817L20.8199 18.6704C21.1949 18.3015 21.7574 18.1908 22.2524 18.39C22.7474 18.5893 23.0624 19.0615 23.0624 19.5855V21.4968C23.0624 22.2052 22.4699 22.7882 21.7499 22.7882ZM21.7424 19.401C21.7049 19.401 21.6599 19.4158 21.6149 19.46L19.6724 21.3713C19.5974 21.4451 19.6124 21.5263 19.6349 21.5706C19.6574 21.6148 19.7024 21.6812 19.8074 21.6812H21.7499C21.8549 21.6812 21.9374 21.6001 21.9374 21.4968V19.5855C21.9374 19.4748 21.8624 19.4305 21.8249 19.4158C21.8024 19.4084 21.7724 19.401 21.7424 19.401Z" fill="#1E1E1E"/>
</svg>
