<svg width="20" height="20" viewBox="0 0 20 20" fill="none" xmlns="http://www.w3.org/2000/svg">
<path d="M18.4121 17.7524C18.2544 17.7388 18.1016 17.6671 17.9878 17.5318L14.2326 13.0676C14.0126 12.806 14.047 12.4075 14.3086 12.1875C14.5701 11.9675 14.9686 12.0019 15.1886 12.2634L18.9438 16.7277C19.1638 16.9892 19.1294 17.3878 18.8679 17.6078C18.7326 17.7215 18.5699 17.7661 18.4121 17.7524Z" fill="#E6E6E6"/>
<path d="M10.2521 16.3546C9.64602 16.3023 9.08561 16.0114 8.69943 15.5431L6.99349 13.2297C6.18176 12.2647 6.3071 10.8117 7.27211 10L13.6484 4.63653C14.6134 3.8248 16.0663 3.95014 16.878 4.91514L18.584 7.22856C18.9784 7.69754 19.1698 8.29118 19.1175 8.89726C19.0652 9.50334 18.7743 10.0638 18.3061 10.4499L11.9298 15.8134C11.4594 16.2245 10.8665 16.4076 10.2521 16.3546ZM15.2089 5.35664C14.9432 5.33372 14.6689 5.41042 14.4518 5.6008L8.07554 10.9643C7.63363 11.336 7.57704 11.9919 7.94877 12.4338L9.6547 14.7473C10.0113 15.1712 10.6921 15.2299 11.1242 14.874L17.5005 9.51055C17.7169 9.32848 17.8471 9.08041 17.8707 8.80642C17.8943 8.53244 17.8093 8.25745 17.6265 8.0493L15.9206 5.73588C15.7317 5.50211 15.4746 5.37956 15.2089 5.35664Z" fill="#E6E6E6"/>
<path d="M10.625 18.9584H5.625C5.28333 18.9584 5 18.675 5 18.3334C5 17.9917 5.28333 17.7084 5.625 17.7084H10.625C10.9667 17.7084 11.25 17.9917 11.25 18.3334C11.25 18.675 10.9667 18.9584 10.625 18.9584Z" fill="#E6E6E6"/>
<path d="M13.3673 14.3729C13.2096 14.3593 13.0568 14.2876 12.943 14.1523L9.09079 9.28752C8.87079 9.02598 8.90517 8.62746 9.16671 8.40746C9.42825 8.18746 9.82677 8.22184 10.0468 8.48338L13.899 13.3482C14.119 13.6097 14.0846 14.0082 13.8231 14.2282C13.6961 14.3428 13.525 14.3866 13.3673 14.3729Z" fill="#E6E6E6"/>
<path d="M3.95833 8.75004C2.575 8.75004 1.275 8.01671 0.574999 6.82504C0.199999 6.22504 0 5.51671 0 4.79171C0 2.60837 1.775 0.833374 3.95833 0.833374C6.14167 0.833374 7.91667 2.60837 7.91667 4.79171C7.91667 5.51671 7.71667 6.22505 7.34167 6.83338C6.64167 8.01672 5.34167 8.75004 3.95833 8.75004ZM3.95833 2.08337C2.46667 2.08337 1.25 3.30004 1.25 4.79171C1.25 5.28337 1.38333 5.76669 1.64167 6.18336C2.13333 7.01669 3 7.50004 3.95833 7.50004C4.91667 7.50004 5.78333 7.00837 6.275 6.1917C6.53333 5.7667 6.66667 5.29171 6.66667 4.79171C6.66667 3.30004 5.45 2.08337 3.95833 2.08337Z" fill="#E6E6E6"/>
<path d="M3.4832 6.24175C3.32486 6.24175 3.16653 6.18344 3.04153 6.05844L2.21653 5.23345C1.97486 4.99179 1.97486 4.59174 2.21653 4.35007C2.45819 4.1084 2.8582 4.1084 3.09986 4.35007L3.49986 4.75011L4.83319 3.51674C5.08319 3.2834 5.4832 3.3001 5.71653 3.5501C5.94986 3.8001 5.93319 4.2001 5.68319 4.43343L3.90819 6.07508C3.78319 6.18341 3.6332 6.24175 3.4832 6.24175Z" fill="#E6E6E6"/>
</svg>
