<svg width="42" height="42" viewBox="0 0 42 42" fill="none" xmlns="http://www.w3.org/2000/svg">
<rect width="42" height="42" rx="21" fill="#4169E1" fill-opacity="0.1"/>
<path d="M16.5 30.4999V10.9999C13.3 10.5999 11.5 13.4999 11 14.9999V25.9999C11 29.9999 14.6667 30.6666 16.5 30.4999Z" fill="#4671F3"/>
<path d="M21.37 17.88H26.62" stroke="#1E1E1E" stroke-width="1.5" stroke-linecap="round" stroke-linejoin="round"/>
<path d="M15.38 17.88L16.13 18.63L18.38 16.38" stroke="#1E1E1E" stroke-width="1.5" stroke-linecap="round" stroke-linejoin="round"/>
<path d="M21.37 24.88H26.62" stroke="#1E1E1E" stroke-width="1.5" stroke-linecap="round" stroke-linejoin="round"/>
<path d="M15.38 24.88L16.13 25.63L18.38 23.38" stroke="#1E1E1E" stroke-width="1.5" stroke-linecap="round" stroke-linejoin="round"/>
<path d="M18 31H24C29 31 31 29 31 24V18C31 13 29 11 24 11H18C13 11 11 13 11 18V24C11 29 13 31 18 31Z" stroke="#1E1E1E" stroke-width="1.5" stroke-linecap="round" stroke-linejoin="round"/>
</svg>
