<svg width="20" height="20" viewBox="0 0 20 20" fill="none" xmlns="http://www.w3.org/2000/svg">
<path d="M9.58335 18.125C4.87502 18.125 1.04169 14.2916 1.04169 9.58329C1.04169 4.87496 4.87502 1.04163 9.58335 1.04163C14.2917 1.04163 18.125 4.87496 18.125 9.58329C18.125 14.2916 14.2917 18.125 9.58335 18.125ZM9.58335 2.29163C5.55835 2.29163 2.29169 5.56663 2.29169 9.58329C2.29169 13.6 5.55835 16.875 9.58335 16.875C13.6084 16.875 16.875 13.6 16.875 9.58329C16.875 5.56663 13.6084 2.29163 9.58335 2.29163Z" fill="#E6E6E6"/>
<path d="M18.3333 18.9583C18.175 18.9583 18.0167 18.9 17.8917 18.775L16.225 17.1083C15.9833 16.8666 15.9833 16.4666 16.225 16.225C16.4667 15.9833 16.8667 15.9833 17.1083 16.225L18.775 17.8916C19.0167 18.1333 19.0167 18.5333 18.775 18.775C18.65 18.9 18.4917 18.9583 18.3333 18.9583Z" fill="#E6E6E6"/>
<path d="M5.83331 10.3304H8.33331V13.2471H5.83331V10.3304Z" fill="#E6E6E6"/>
<path d="M10 10.3304H12.5V13.2471H10V10.3304Z" fill="#E6E6E6"/>
<path d="M9.8611 12.0838H8.47221C8.32985 12.0838 8.21179 11.9658 8.21179 11.8234C8.21179 11.681 8.32985 11.563 8.47221 11.563H9.8611C10.0035 11.563 10.1215 11.681 10.1215 11.8234C10.1215 11.9658 10.0035 12.0838 9.8611 12.0838Z" fill="#E6E6E6"/>
<path d="M5.69444 12.0839C5.55208 12.0839 5.43402 11.9658 5.43402 11.8235V8.35126C5.43402 6.82001 5.8993 6.35474 7.43055 6.35474C7.57291 6.35474 7.69097 6.47279 7.69097 6.61515C7.69097 6.75751 7.57291 6.87557 7.43055 6.87557C6.19097 6.87557 5.95485 7.10821 5.95485 8.35126V11.8235C5.95485 11.9658 5.8368 12.0839 5.69444 12.0839Z" fill="#E6E6E6"/>
<path d="M12.6389 12.0839C12.4965 12.0839 12.3784 11.9658 12.3784 11.8235V8.35126C12.3784 7.10821 12.1423 6.87557 10.9028 6.87557C10.7604 6.87557 10.6423 6.75751 10.6423 6.61515C10.6423 6.47279 10.7604 6.35474 10.9028 6.35474C12.434 6.35474 12.8993 6.82001 12.8993 8.35126V11.8235C12.8993 11.9658 12.7812 12.0839 12.6389 12.0839Z" fill="#E6E6E6"/>
<path d="M7.49999 13.6463H6.66666C5.82638 13.6463 5.43402 13.254 5.43402 12.4137V11.2713C5.43402 10.4311 5.82638 10.0387 6.66666 10.0387H7.49999C8.34027 10.0387 8.73263 10.4311 8.73263 11.2713V12.4137C8.73263 13.254 8.34027 13.6463 7.49999 13.6463ZM6.66666 10.5595C6.11458 10.5595 5.95485 10.7193 5.95485 11.2713V12.4137C5.95485 12.9658 6.11458 13.1255 6.66666 13.1255H7.49999C8.05208 13.1255 8.2118 12.9658 8.2118 12.4137V11.2713C8.2118 10.7193 8.05208 10.5595 7.49999 10.5595H6.66666Z" fill="#E6E6E6"/>
<path d="M11.6667 13.6463H10.8333C9.99307 13.6463 9.60071 13.254 9.60071 12.4137V11.2713C9.60071 10.4311 9.99307 10.0387 10.8333 10.0387H11.6667C12.507 10.0387 12.8993 10.4311 12.8993 11.2713V12.4137C12.8993 13.254 12.507 13.6463 11.6667 13.6463ZM10.8333 10.5595C10.2813 10.5595 10.1215 10.7193 10.1215 11.2713V12.4137C10.1215 12.9658 10.2813 13.1255 10.8333 13.1255H11.6667C12.2188 13.1255 12.3785 12.9658 12.3785 12.4137V11.2713C12.3785 10.7193 12.2188 10.5595 11.6667 10.5595H10.8333Z" fill="#E6E6E6"/>
</svg>
