<svg width="20" height="20" viewBox="0 0 20 20" fill="none" xmlns="http://www.w3.org/2000/svg">
<path d="M15.0833 14.7916H4.91666C2.98333 14.7916 1.875 13.6833 1.875 11.75V1.66663C1.875 1.32496 2.15833 1.04163 2.5 1.04163H17.5C17.8417 1.04163 18.125 1.32496 18.125 1.66663V11.75C18.125 13.6833 17.0167 14.7916 15.0833 14.7916ZM3.125 2.29163V11.75C3.125 12.9916 3.67499 13.5416 4.91666 13.5416H15.075C16.3167 13.5416 16.8667 12.9916 16.8667 11.75V2.29163H3.125Z" fill="white" fill-opacity="0.7"/>
<path d="M18.3334 2.29163H1.66669C1.32502 2.29163 1.04169 2.00829 1.04169 1.66663C1.04169 1.32496 1.32502 1.04163 1.66669 1.04163H18.3334C18.675 1.04163 18.9584 1.32496 18.9584 1.66663C18.9584 2.00829 18.675 2.29163 18.3334 2.29163Z" fill="white" fill-opacity="0.7"/>
<path d="M6.66689 18.9583C6.43355 18.9583 6.21688 18.8333 6.10854 18.6166C5.95021 18.3083 6.07523 17.9333 6.3919 17.7749L9.37522 16.2833V14.1666C9.37522 13.825 9.65855 13.5416 10.0002 13.5416C10.3419 13.5416 10.6252 13.825 10.6252 14.1666V16.6666C10.6252 16.9 10.4919 17.1166 10.2752 17.225L6.94188 18.8916C6.85854 18.9333 6.75855 18.9583 6.66689 18.9583Z" fill="white" fill-opacity="0.7"/>
<path d="M13.3333 18.9583C13.2416 18.9583 13.1416 18.9333 13.0583 18.8917L9.72495 17.225C9.41662 17.0667 9.29159 16.6916 9.44159 16.3833C9.59993 16.075 9.97493 15.95 10.2833 16.1L13.6166 17.7667C13.9249 17.925 14.0499 18.3 13.8999 18.6083C13.7833 18.8333 13.5583 18.9583 13.3333 18.9583Z" fill="white" fill-opacity="0.7"/>
<path d="M6.24992 9.79169C6.07492 9.79169 5.8916 9.7167 5.7666 9.5667C5.5416 9.30003 5.58324 8.90837 5.84991 8.68337L8.47493 6.4917C8.7166 6.2917 9.02491 6.20836 9.31658 6.25836C9.61658 6.30836 9.87493 6.49168 10.0333 6.75834L10.9082 8.21668L13.3499 6.18337C13.6166 5.9667 14.0082 6.00001 14.2332 6.26668C14.4582 6.53335 14.4166 6.92501 14.1499 7.15001L11.5249 9.34168C11.2832 9.54168 10.9749 9.62501 10.6833 9.57501C10.3833 9.52501 10.1249 9.3417 9.96658 9.07503L9.09159 7.6167L6.64993 9.65001C6.53326 9.74168 6.39158 9.79169 6.24992 9.79169Z" fill="white" fill-opacity="0.7"/>
</svg>
