<svg width="69" height="66" viewBox="0 0 69 66" fill="none" xmlns="http://www.w3.org/2000/svg">
<path opacity="0.7" d="M8.88177 24.2077C8.88177 24.2077 6.86505 37.8969 14.1436 41.5943C14.1436 41.5943 22.8094 44.5705 23.9583 29.8545C23.9583 29.8545 24.7955 23.9693 22.3266 13.7635C22.3266 13.7635 21.5016 6.06939 28.0712 1.03369C28.0712 1.03369 13.4897 4.40101 8.88788 24.2077H8.88177Z" fill="white"/>
<path opacity="0.6" d="M9.30963 22.5148C9.30963 22.5148 17.3337 7.41995 38.7843 27.2877C38.7843 27.2877 52.1192 35.4768 58.426 24.446C58.426 24.446 65.0812 14.2585 46.3929 3.00761C46.3929 3.00761 21.1655 -11.305 9.31574 22.5148H9.30963Z" fill="white"/>
<path opacity="0.7" d="M36.4495 64.9574C36.4495 64.9574 49.6682 60.7895 49.8332 52.6432C49.8332 52.6432 48.7332 43.5618 34.9645 48.9581C34.9645 48.9581 29.2932 50.7793 21.1652 57.4467C21.1652 57.4467 14.5895 61.5473 7.18262 57.85C7.18262 57.85 16.5818 69.4737 36.4495 64.9574Z" fill="white"/>
<path opacity="0.6" d="M34.7386 65.3121C34.7386 65.3121 17.627 64.701 26.1767 36.7663C26.1767 36.7663 27.7412 21.2192 15.0358 20.3758C15.0358 20.3758 2.94769 18.848 0.961528 40.537C0.961528 40.537 -0.926857 69.4311 34.7386 65.306V65.3121Z" fill="white"/>
<path opacity="0.7" d="M59.1409 19.1781C59.1409 19.1781 49.1612 9.57727 41.9132 13.3235C41.9132 13.3235 34.4391 18.6159 45.7633 28.1189C45.7633 28.1189 50.0718 32.2257 59.8254 36.1675C59.8254 36.1675 66.5722 39.9748 66.8533 48.2372C66.8533 48.2372 72.6041 34.4441 59.1409 19.1781Z" fill="white"/>
<path opacity="0.6" d="M60.2654 20.5103C60.2654 20.5103 65.8389 34.8229 39.2181 41.6431C39.2181 41.6431 24.7833 47.6932 30.1001 59.2313C30.1001 59.2313 34.5247 70.5616 54.5758 61.9508C54.5758 61.9508 80.9215 49.82 60.2715 20.5103H60.2654Z" fill="white"/>
</svg>
