<svg width="258" height="52" viewBox="0 0 258 52" fill="none" xmlns="http://www.w3.org/2000/svg">
<path opacity="0.45" d="M6.25326 19.0711C6.25326 19.0711 4.66448 29.8556 10.3986 32.7684C10.3986 32.7684 17.2255 35.113 18.1307 23.5197C18.1307 23.5197 18.7902 18.8833 16.8452 10.8431C16.8452 10.8431 16.1952 4.78161 21.3708 0.814453C21.3708 0.814453 9.88341 3.46727 6.25808 19.0711H6.25326Z" fill="#C41028"/>
<path opacity="0.38" d="M6.59033 17.7373C6.59033 17.7373 12.9118 5.84553 29.8107 21.4975C29.8107 21.4975 40.316 27.9489 45.2845 19.2587C45.2845 19.2587 50.5275 11.2329 35.8048 2.3694C35.8048 2.3694 15.9305 -8.90616 6.59515 17.7373H6.59033Z" fill="#C41028"/>
<path opacity="0.45" d="M27.9715 51.1786C27.9715 51.1786 38.3853 47.8951 38.5153 41.4774C38.5153 41.4774 37.6487 34.323 26.8016 38.5742C26.8016 38.5742 22.3337 40.0089 15.9304 45.2616C15.9304 45.2616 10.75 48.4921 4.91479 45.5793C4.91479 45.5793 12.3195 54.7365 27.9715 51.1786Z" fill="#2640B2"/>
<path opacity="0.38" d="M26.6234 51.458C26.6234 51.458 13.1428 50.9765 19.8783 28.9694C19.8783 28.9694 21.1108 16.7213 11.1015 16.0569C11.1015 16.0569 1.57836 14.8533 0.0136405 31.94C0.0136405 31.94 -1.47404 54.703 26.6234 51.4532V51.458Z" fill="#2640B2"/>
<path opacity="0.45" d="M45.8478 15.1087C45.8478 15.1087 37.9857 7.54506 32.2757 10.4964C32.2757 10.4964 26.3875 14.6658 35.3088 22.1523C35.3088 22.1523 38.703 25.3876 46.387 28.493C46.387 28.493 51.7022 31.4924 51.9237 38.0017C51.9237 38.0017 56.4541 27.1353 45.8478 15.1087Z" fill="#0CA3B1"/>
<path opacity="0.38" d="M46.7336 16.1582C46.7336 16.1582 51.1245 27.4338 30.1525 32.8068C30.1525 32.8068 18.7806 37.5731 22.9692 46.6629C22.9692 46.6629 26.4549 55.5891 42.2513 48.8054C42.2513 48.8054 63.0067 39.2486 46.7384 16.1582H46.7336Z" fill="#0CA3B1"/>
<path d="M97.3872 43.1716H104.253V8.66602L86.0924 24.5292L67.6432 8.66602V17.7888L74.3642 23.3255L86.0924 32.7138L97.3872 23.3737V43.1716Z" fill="#0F1840"/>
<path d="M67.6432 43.1716H74.3642V30.788L67.6432 26.2142V43.1716Z" fill="#0F1840"/>
<path d="M133.352 36.3247H119.405V29.5844H133.352V22.3626H119.405H111.474V25.9188V43.1716H133.352V36.3247Z" fill="#0F1840"/>
<path d="M133.352 8.66602H111.474V16.1038H119.405H133.352V8.66602Z" fill="#0F1840"/>
<path d="M140.573 16.3493H149.9H154.233H158.113H168.17V8.66602H140.573V16.3493Z" fill="#0F1840"/>
<path d="M149.9 43.1764H158.113V29.7629V22.3674H154.006H149.9V32.7719V43.1764Z" fill="#0F1840"/>
<path d="M204.518 43.1716H204.52V43.1764L204.518 43.1716L195.652 43.1723L188.835 29.5855L182.374 29.5892V43.176L175.392 43.1764V23.3303H183.337H188.392C190.799 23.3303 196.095 24.0525 196.095 19.238C196.095 14.6642 192.243 15.8679 188.392 15.6315H183.337L175.392 15.6271V8.67083L191.223 8.66602C199.802 8.66602 202.595 14.1346 202.595 19.238C202.595 24.3414 199.865 26.7679 196.336 28.3856L204.518 43.1716Z" fill="#0F1840"/>
<path d="M219.084 43.1716H211.742V8.66602H219.084V43.1716Z" fill="#0F1840"/>
<path d="M234.216 43.1716L241.414 31.6842L245.123 26.2191L241.03 20.2009L233.813 8.66602H226.831L237.461 25.7768L226.306 43.1716H234.216Z" fill="#0F1840"/>
<path d="M248.91 43.1716H256.176L253.404 38.9335L248.91 31.6842L245.299 37.2209L248.91 43.1716Z" fill="#C41028"/>
<path d="M256.825 8.66602H249.199L245.059 16.1086L248.91 21.886L256.825 8.66602Z" fill="#C41028"/>
</svg>
