<svg width="241" height="114" viewBox="0 0 241 114" fill="none" xmlns="http://www.w3.org/2000/svg">
<path d="M240.422 81.9604L15.6959 113.544L15.015 108.699C15.7459 108.573 16.5358 108.412 17.3325 108.3C70.7189 100.803 124.11 93.3107 177.496 85.8107C197.419 83.0108 217.347 80.216 237.261 77.3556C239.304 77.0626 240.019 77.3992 240.006 78.7859C239.994 79.7938 240.257 80.7838 240.422 81.9604ZM177.267 88.413C178.119 87.6712 178.676 87.1822 179.237 86.6956C178.723 86.4862 178.069 86.0119 177.715 86.1233C176.912 86.374 176.252 86.9127 175.537 87.333C175.999 87.6231 176.46 87.9131 177.263 88.4165L177.267 88.413Z" fill="#FF4343"/>
<path d="M225.422 4.96044L0.695866 36.5436L0.0149682 31.6988C0.745901 31.5726 1.53576 31.4117 2.3325 31.2997C55.7189 23.8026 109.11 16.3107 162.496 8.81071C182.419 6.01077 202.347 3.21599 222.261 0.355632C224.304 0.0626138 225.019 0.399244 225.006 1.78591C224.994 2.79382 225.257 3.78376 225.422 4.96044ZM162.267 11.413C163.119 10.6712 163.676 10.1822 164.237 9.69557C163.723 9.48621 163.069 9.01185 162.715 9.12327C161.912 9.37398 161.252 9.91271 160.537 10.333C160.999 10.6231 161.46 10.9131 162.263 11.4165L162.267 11.413Z" fill="#FF4343"/>
<path d="M19.4084 65.6872C19.1816 64.7198 18.6781 64.0138 17.8979 63.5693C17.1254 63.1146 16.0933 62.978 14.8015 63.1596C13.9463 63.2798 13.2493 63.4913 12.7104 63.7941C12.1716 64.097 11.7871 64.4644 11.5572 64.8965C11.3259 65.3196 11.2409 65.7813 11.3021 66.2814C11.3419 66.6937 11.4728 67.0432 11.6948 67.33C11.9257 67.6155 12.2317 67.8541 12.613 68.0458C13.0019 68.2274 13.4583 68.3722 13.9822 68.4802C14.5061 68.5883 15.0893 68.6653 15.7317 68.7113L18.1587 68.9153C19.5541 69.019 20.803 69.2432 21.9052 69.5879C23.0164 69.9314 23.9715 70.3922 24.7704 70.9704C25.5783 71.5473 26.2268 72.251 26.716 73.0816C27.2052 73.9123 27.5313 74.8748 27.6942 75.9693C27.9282 77.6989 27.7001 79.2435 27.01 80.6033C26.3199 81.963 25.2105 83.0865 23.6817 83.9736C22.1619 84.8594 20.2617 85.4626 17.9811 85.7831C15.6916 86.1049 13.6478 86.0424 11.8498 85.5955C10.0519 85.1487 8.58246 84.2923 7.44158 83.0264C6.30069 81.7604 5.56664 80.0603 5.23943 77.926L11.5735 77.0358C11.7509 77.9102 12.0903 78.612 12.5916 79.1411C13.0929 79.6703 13.7302 80.0349 14.5032 80.2352C15.2852 80.4342 16.1617 80.4654 17.1328 80.3289C18.0236 80.2037 18.764 79.977 19.3538 79.6489C19.9525 79.3194 20.3911 78.9171 20.6695 78.4419C20.9479 77.9667 21.0528 77.4523 20.9841 76.8988C20.9025 76.3833 20.6802 75.9649 20.3171 75.6434C19.9527 75.3131 19.4265 75.06 18.7386 74.8841C18.0584 74.6981 17.2031 74.5594 16.1728 74.468L13.2192 74.2017C10.7731 73.9914 8.78346 73.3762 7.25016 72.3561C5.71561 71.3272 4.80692 69.7743 4.52411 67.6973C4.27731 66.0059 4.52319 64.4588 5.26174 63.0559C6.00029 61.653 7.13018 60.4812 8.65139 59.5407C10.1726 58.6001 11.9711 57.984 14.0468 57.6922C16.1671 57.3943 18.0574 57.4965 19.7178 57.999C21.3859 58.4913 22.7428 59.3227 23.7885 60.493C24.8342 61.6633 25.4855 63.098 25.7424 64.797L19.4084 65.6872ZM44.861 53.7431L51.4623 52.8154L53.9432 70.4679C54.2299 72.508 53.9942 74.3535 53.236 76.0044C52.4765 77.6465 51.2864 79.0038 49.6657 80.0765C48.0437 81.1402 46.0835 81.8336 43.785 82.1566C41.4599 82.4834 39.3711 82.3591 37.5187 81.7836C35.6651 81.1993 34.1514 80.2219 32.9777 78.8516C31.8027 77.4723 31.0718 75.7626 30.7851 73.7226L28.3042 56.07L34.9189 55.1404L37.3191 72.2183C37.4518 73.1626 37.775 73.9757 38.2887 74.6575C38.8113 75.3381 39.4762 75.8352 40.2834 76.1487C41.0906 76.4622 41.9886 76.5495 42.9775 76.4105C43.9663 76.2716 44.801 75.9408 45.4816 75.4181C46.1711 74.8943 46.6732 74.2332 46.988 73.4349C47.3028 72.6367 47.3938 71.7654 47.2611 70.821L44.861 53.7431ZM71.5541 58.3586C71.3273 57.3912 70.8238 56.6852 70.0437 56.2407C69.2712 55.786 68.239 55.6494 66.9473 55.831C66.0921 55.9512 65.395 56.1627 64.8562 56.4655C64.3173 56.7684 63.9329 57.1358 63.7029 57.5679C63.4717 57.991 63.3866 58.4527 63.4478 58.9528C63.4876 59.3651 63.6185 59.7146 63.8405 60.0014C64.0714 60.2869 64.3775 60.5255 64.7587 60.7172C65.1476 60.8988 65.604 61.0436 66.128 61.1516C66.6519 61.2597 67.235 61.3367 67.8774 61.3827L70.3044 61.5867C71.6999 61.6903 72.9487 61.9146 74.051 62.2593C75.1622 62.6028 76.1172 63.0636 76.9162 63.6418C77.724 64.2186 78.3725 64.9224 78.8617 65.753C79.3509 66.5837 79.677 67.5462 79.8399 68.6407C80.0739 70.3703 79.8458 71.9149 79.1557 73.2747C78.4656 74.6344 77.3562 75.7578 75.8275 76.645C74.3077 77.5308 72.4074 78.134 70.1268 78.4545C67.8373 78.7763 65.7935 78.7138 63.9956 78.2669C62.1976 77.8201 60.7282 76.9637 59.5873 75.6978C58.4464 74.4318 57.7124 72.7317 57.3852 70.5974L63.7192 69.7072C63.8966 70.5816 64.236 71.2834 64.7373 71.8125C65.2387 72.3417 65.8759 72.7063 66.649 72.9066C67.431 73.1055 68.3075 73.1368 69.2785 73.0003C70.1694 72.8751 70.9097 72.6484 71.4995 72.3203C72.0982 71.9908 72.5368 71.5885 72.8152 71.1133C73.0937 70.6381 73.1985 70.1237 73.1298 69.5702C73.0483 69.0547 72.8259 68.6363 72.4628 68.3148C72.0984 67.9845 71.5723 67.7314 70.8844 67.5555C70.2041 67.3695 69.3489 67.2308 68.3185 67.1394L65.365 66.8731C62.9189 66.6628 60.9292 66.0476 59.3959 65.0275C57.8613 63.9986 56.9527 62.4457 56.6698 60.3687C56.423 58.6773 56.6689 57.1302 57.4075 55.7273C58.146 54.3244 59.2759 53.1526 60.7971 52.2121C62.3183 51.2715 64.1168 50.6554 66.1925 50.3636C68.3128 50.0657 70.2031 50.1679 71.8636 50.6704C73.5316 51.1627 74.8885 51.9941 75.9342 53.1644C76.9799 54.3347 77.6312 55.7694 77.8882 57.4684L71.5541 58.3586ZM84.2962 76.1088L80.45 48.7414L91.7551 47.1526C93.8041 46.8646 95.6288 47.017 97.2292 47.6097C98.8373 48.1922 100.147 49.1392 101.158 50.4507C102.168 51.7532 102.805 53.3443 103.069 55.2241C103.334 57.1127 103.152 58.8235 102.523 60.3564C101.901 61.8792 100.883 63.1351 99.4684 64.1243C98.0539 65.1134 96.3 65.7551 94.2064 66.0493L87.2309 67.0297L86.4985 61.8181L92.2446 61.0105C93.2424 60.8703 94.0509 60.5795 94.6702 60.1382C95.2985 59.6956 95.7425 59.1381 96.0023 58.4656C96.2608 57.7843 96.3312 57.0249 96.2135 56.1875C96.0946 55.3412 95.8182 54.6351 95.3844 54.0692C94.9493 53.4944 94.3694 53.0854 93.6448 52.842C92.9202 52.5986 92.0634 52.5464 91.0746 52.6854L87.814 53.1436L90.9109 75.1792L84.2962 76.1088ZM108.844 72.6589L104.998 45.2915L124.08 42.6096L124.835 47.9815L112.367 49.7338L113.156 55.3462L124.648 53.7311L125.405 59.1164L113.913 60.7315L114.704 66.3573L127.171 64.6051L127.926 69.977L108.844 72.6589ZM154.458 48.4515L147.776 49.3905C147.591 48.717 147.321 48.1236 146.968 47.61C146.614 47.0965 146.182 46.6757 145.673 46.3476C145.163 46.0194 144.582 45.7967 143.93 45.6795C143.285 45.5521 142.589 45.5409 141.84 45.6461C140.513 45.8327 139.414 46.3187 138.543 47.1043C137.681 47.8886 137.078 48.9317 136.735 50.2337C136.4 51.5345 136.355 53.0579 136.6 54.804C136.856 56.6214 137.328 58.1085 138.017 59.2652C138.715 60.4119 139.579 61.2306 140.611 61.7215C141.651 62.2022 142.821 62.3512 144.122 62.1684C144.852 62.0657 145.503 61.8789 146.073 61.608C146.653 61.3357 147.145 60.9895 147.549 60.5693C147.961 60.139 148.277 59.6448 148.499 59.0868C148.728 58.5186 148.854 57.8967 148.877 57.2212L155.564 56.3223C155.619 57.5501 155.434 58.7933 155.012 60.0519C154.598 61.3092 153.952 62.4948 153.072 63.6086C152.192 64.7134 151.061 65.6536 149.681 66.4291C148.309 67.2033 146.683 67.7225 144.803 67.9867C142.326 68.3348 140.032 68.1031 137.919 67.2917C135.814 66.4701 134.049 65.0921 132.623 63.1576C131.198 61.223 130.274 58.7547 129.852 55.7524C129.429 52.7413 129.645 50.1082 130.5 47.8532C131.354 45.5981 132.686 43.7895 134.493 42.4272C136.3 41.0648 138.419 40.2128 140.852 39.871C142.509 39.6381 144.073 39.6544 145.546 39.9198C147.018 40.1763 148.35 40.6705 149.543 41.4022C150.734 42.125 151.754 43.0764 152.601 44.2564C153.448 45.4365 154.067 46.8348 154.458 48.4515ZM156.709 43.5019L155.954 38.13L179.086 34.8791L179.841 40.251L171.542 41.4173L174.633 63.4128L168.112 64.3293L165.021 42.3338L156.709 43.5019ZM186.162 61.7925L182.316 34.4251L201.398 31.7432L202.153 37.1152L189.686 38.8674L190.474 44.4798L201.967 42.8647L202.724 48.25L191.231 49.8651L192.022 55.4909L204.49 53.7387L205.245 59.1106L186.162 61.7925ZM219.503 57.1068L209.387 58.5285L205.541 31.161L215.643 29.7412C218.432 29.3494 220.91 29.5598 223.077 30.3726C225.252 31.1753 227.031 32.5241 228.415 34.4191C229.798 36.3052 230.689 38.6691 231.088 41.511C231.489 44.3618 231.285 46.8887 230.477 49.0916C229.678 51.2934 228.345 53.0842 226.476 54.4642C224.607 55.8353 222.282 56.7161 219.503 57.1068ZM215.209 51.9596L218.457 51.5033C219.989 51.2879 221.249 50.8474 222.236 50.1817C223.231 49.5059 223.918 48.5418 224.296 47.2895C224.682 46.027 224.737 44.4113 224.46 42.4425C224.183 40.4737 223.687 38.9446 222.97 37.8552C222.253 36.7569 221.319 36.0251 220.168 35.6599C219.025 35.2845 217.67 35.207 216.102 35.4274L212.948 35.8706L215.209 51.9596Z" fill="#FF4343"/>
</svg>
