<svg width="273" height="163" viewBox="0 0 273 163" fill="none" xmlns="http://www.w3.org/2000/svg">
<path d="M247.335 4.58508L2.64851 88.8372L1.1119 84.3746C1.90398 84.0781 2.75597 83.7344 3.62347 83.4357C61.7526 63.4262 119.888 43.4204 178.016 23.4082C199.708 15.939 221.407 8.47351 243.08 0.948658C245.304 0.177046 246.153 0.32637 246.361 1.65381C246.51 2.61907 246.961 3.50122 247.335 4.58508ZM178.18 25.9485C179.008 25.0349 179.548 24.434 180.094 23.8342C179.488 23.758 178.685 23.4624 178.309 23.6541C177.457 24.0867 176.81 24.7601 176.083 25.3336C176.643 25.4994 177.203 25.6652 178.176 25.9528L178.18 25.9485Z" fill="#FF4343"/>
<path d="M271.382 77.9281L26.6964 162.18L25.1598 157.718C25.9518 157.421 26.8038 157.077 27.6713 156.779C85.8004 136.769 143.936 116.763 202.064 96.7512C223.756 89.282 245.455 81.8165 267.128 74.2917C269.351 73.5201 270.2 73.6694 270.409 74.9968C270.558 75.9621 271.009 76.8442 271.382 77.9281ZM202.228 99.2916C203.056 98.3779 203.596 97.777 204.141 97.1772C203.536 97.1011 202.733 96.8054 202.357 96.9971C201.505 97.4298 200.858 98.1031 200.131 98.6766C200.691 98.8424 201.251 99.0083 202.224 99.2958L202.228 99.2916Z" fill="#FF4343"/>
<path d="M26.3749 161.246L0.313964 85.5599L5.58911 83.7435C5.69931 83.9822 5.84496 84.2322 5.93736 84.5005C12.1221 102.483 18.301 120.468 24.4889 138.449C26.7993 145.159 29.1039 151.873 31.48 158.56C31.7233 159.246 31.3325 159.627 29.8303 160.068C28.7384 160.387 27.6561 160.805 26.3749 161.246ZM21.6771 139.198C22.45 139.285 22.9597 139.34 23.4667 139.398C23.7123 139.135 24.2501 138.733 24.1422 138.633C23.8997 138.407 23.3399 138.328 22.9104 138.19C22.5792 138.459 22.2481 138.729 21.6735 139.197L21.6771 139.198Z" fill="#FF4343"/>
<path d="M267.133 79.367L241.072 3.68059L246.347 1.86421C246.457 2.10284 246.603 2.35284 246.695 2.62118C252.88 20.6033 259.059 38.589 265.247 56.57C267.557 63.2798 269.862 69.9932 272.238 76.6804C272.481 77.3666 272.09 77.7479 270.588 78.1882C269.496 78.5076 268.414 78.9258 267.133 79.367ZM262.435 57.3182C263.208 57.4056 263.718 57.4612 264.225 57.5192C264.47 57.2554 265.008 56.8534 264.9 56.7538C264.658 56.5277 264.098 56.4486 263.668 56.3105C263.337 56.5801 263.006 56.8497 262.431 57.3179L262.435 57.3182Z" fill="#FF4343"/>
<path d="M41.0297 108.223C40.6225 107.317 39.9935 106.72 39.1429 106.433C38.2978 106.134 37.2586 106.197 36.0252 106.621C35.2086 106.902 34.5648 107.243 34.0936 107.643C33.6224 108.043 33.3152 108.477 33.1718 108.945C33.0256 109.405 33.0302 109.874 33.1857 110.353C33.3034 110.751 33.4986 111.069 33.7713 111.308C34.0524 111.544 34.3984 111.72 34.8092 111.835C35.2256 111.939 35.7012 111.994 36.2362 112C36.7711 112.007 37.3582 111.971 37.9976 111.893L40.4189 111.631C41.8085 111.466 43.0772 111.448 44.225 111.576C45.3813 111.701 46.4067 111.971 47.3013 112.386C48.2044 112.799 48.9753 113.366 49.614 114.088C50.2527 114.81 50.7564 115.692 51.1252 116.736C51.6849 118.389 51.7557 119.949 51.3378 121.415C50.9198 122.881 50.0451 124.196 48.7137 125.358C47.3909 126.518 45.6407 127.473 43.4631 128.222C41.277 128.975 39.2589 129.304 37.4087 129.208C35.5585 129.113 33.9527 128.552 32.5912 127.527C31.2297 126.502 30.1848 124.974 29.4563 122.941L35.5042 120.858C35.8452 121.683 36.3122 122.307 36.9053 122.731C37.4984 123.155 38.1935 123.391 38.9906 123.44C39.7961 123.486 40.6625 123.35 41.5897 123.03C42.4403 122.737 43.1238 122.374 43.6401 121.939C44.165 121.501 44.5187 121.023 44.7014 120.503C44.884 119.984 44.8888 119.459 44.7157 118.928C44.5373 118.438 44.2392 118.07 43.8214 117.823C43.4007 117.569 42.8359 117.421 42.1271 117.379C41.4239 117.326 40.5579 117.353 39.529 117.46L36.5789 117.762C34.1376 118.023 32.0671 117.798 30.3673 117.09C28.6647 116.373 27.4764 115.021 26.8024 113.037C26.2374 111.423 26.1836 109.858 26.6409 108.34C27.0982 106.822 27.9837 105.456 29.2975 104.242C30.6113 103.029 32.2592 102.081 34.2411 101.398C36.2656 100.701 38.1407 100.441 39.8665 100.617C41.5979 100.782 43.0884 101.34 44.3382 102.289C45.588 103.238 46.5011 104.522 47.0775 106.141L41.0297 108.223ZM63.7356 91.6422L70.0386 89.4719L75.8422 106.327C76.5129 108.275 76.6337 110.131 76.2044 111.896C75.7722 113.653 74.863 115.213 73.4767 116.575C72.0874 117.929 70.2955 118.983 68.101 119.739C65.8809 120.503 63.8068 120.78 61.8786 120.568C59.9476 120.349 58.2752 119.678 56.8616 118.557C55.445 117.427 54.4014 115.888 53.7306 113.94L47.9271 97.0855L54.2428 94.9108L59.8575 111.217C60.168 112.119 60.6404 112.855 61.2748 113.426C61.9176 113.995 62.6652 114.356 63.5173 114.51C64.3695 114.663 65.2677 114.578 66.2119 114.253C67.156 113.927 67.9123 113.443 68.4806 112.801C69.0575 112.155 69.4243 111.41 69.5809 110.566C69.7376 109.723 69.6608 108.85 69.3503 107.948L63.7356 91.6422ZM90.819 91.0796C90.4118 90.1732 89.7828 89.5763 88.9322 89.2888C88.0871 88.9899 87.0479 89.0527 85.8145 89.4774C84.9979 89.7586 84.3541 90.0992 83.8829 90.4993C83.4117 90.8994 83.1045 91.3335 82.9612 91.8015C82.8149 92.261 82.8195 92.7303 82.975 93.2096C83.0928 93.6067 83.2879 93.9249 83.5606 94.164C83.8417 94.4002 84.1877 94.576 84.5985 94.6915C85.0149 94.7955 85.4905 94.8505 86.0255 94.8566C86.5604 94.8628 87.1475 94.8271 87.7869 94.7497L90.2082 94.4868C91.5978 94.3223 92.8665 94.3041 94.0143 94.4322C95.1706 94.5574 96.196 94.8275 97.0906 95.2425C97.9937 95.6547 98.7646 96.2218 99.4033 96.9438C100.042 97.6658 100.546 98.5485 100.914 99.5918C101.474 101.245 101.545 102.805 101.127 104.271C100.709 105.738 99.8344 107.052 98.503 108.215C97.1802 109.374 95.43 110.329 93.2524 111.079C91.0663 111.831 89.0482 112.16 87.198 112.064C85.3478 111.969 83.742 111.409 82.3805 110.384C81.0191 109.359 79.9741 107.83 79.2456 105.797L85.2935 103.715C85.6345 104.539 86.1015 105.163 86.6946 105.587C87.2877 106.011 87.9828 106.247 88.7799 106.296C89.5854 106.342 90.4518 106.206 91.379 105.887C92.2296 105.594 92.9131 105.23 93.4294 104.795C93.9543 104.358 94.308 103.879 94.4907 103.359C94.6733 102.84 94.6781 102.315 94.505 101.784C94.3266 101.294 94.0285 100.926 93.6107 100.68C93.19 100.425 92.6252 100.277 91.9164 100.235C91.2132 100.183 90.3472 100.21 89.3183 100.316L86.3682 100.619C83.9269 100.879 81.8564 100.655 80.1567 99.9459C78.454 99.2287 77.2657 97.8776 76.5917 95.8928C76.0267 94.2796 75.9729 92.7139 76.4302 91.1959C76.8875 89.6778 77.773 88.3121 79.0868 87.0985C80.4006 85.885 82.0485 84.937 84.0304 84.2546C86.0549 83.5575 87.93 83.2972 89.6558 83.4736C91.3872 83.6386 92.8777 84.1957 94.1275 85.145C95.3773 86.0943 96.2904 87.3784 96.8668 88.9972L90.819 91.0796ZM106.714 106.072L97.7164 79.9417L108.511 76.225C110.467 75.5513 112.287 75.3527 113.971 75.6291C115.661 75.8941 117.127 76.5738 118.37 77.6683C119.61 78.7542 120.539 80.1946 121.157 81.9894C121.777 83.7927 121.925 85.5067 121.6 87.1316C121.28 88.745 120.52 90.1722 119.321 91.413C118.121 92.6539 116.522 93.6185 114.523 94.3068L107.862 96.6001L106.149 91.624L111.635 89.7349C112.588 89.4068 113.326 88.9671 113.85 88.4157C114.382 87.8614 114.712 87.2294 114.838 86.5197C114.962 85.8016 114.886 85.0427 114.611 84.2431C114.333 83.4351 113.927 82.7947 113.393 82.322C112.856 81.8408 112.209 81.5499 111.451 81.4492C110.693 81.3486 109.842 81.4608 108.898 81.7859L105.785 82.8579L113.03 103.898L106.714 106.072ZM130.152 98.0019L121.155 71.8712L139.375 65.5975L141.141 70.7267L129.237 74.8257L131.082 80.1845L142.055 76.4062L143.825 81.5482L132.852 85.3264L134.702 90.698L146.606 86.599L148.372 91.7282L130.152 98.0019ZM170.309 65.5357L163.93 67.7323C163.619 67.1067 163.241 66.5755 162.796 66.1389C162.351 65.7024 161.847 65.3716 161.284 65.1467C160.721 64.9218 160.109 64.8141 159.446 64.8235C158.789 64.8214 158.103 64.9434 157.388 65.1894C156.121 65.6258 155.135 66.3127 154.43 67.2499C153.734 68.1843 153.341 69.3233 153.252 70.667C153.171 72.0078 153.418 73.5118 153.992 75.179C154.589 76.9142 155.337 78.2838 156.234 79.2878C157.137 80.2803 158.142 80.9191 159.249 81.204C160.361 81.4775 161.538 81.4005 162.78 80.9729C163.478 80.7327 164.081 80.4252 164.589 80.0503C165.106 79.6725 165.523 79.2388 165.839 78.7492C166.162 78.2482 166.378 77.7026 166.489 77.1126C166.605 76.5112 166.61 75.8767 166.504 75.2092L172.897 73.0508C173.185 74.2457 173.241 75.5012 173.066 76.8173C172.9 78.1305 172.492 79.4176 171.841 80.6787C171.188 81.9312 170.257 83.0699 169.05 84.0946C167.851 85.1164 166.354 85.9363 164.559 86.5543C162.195 87.3685 159.898 87.5789 157.669 87.1855C155.446 86.7807 153.45 85.7648 151.682 84.1379C149.913 82.5109 148.535 80.2641 147.548 77.3976C146.558 74.5225 146.268 71.8966 146.677 69.5199C147.086 67.1431 148.047 65.1137 149.561 63.4316C151.075 61.7495 152.993 60.5087 155.316 59.7091C156.898 59.1643 158.437 58.8817 159.933 58.8612C161.427 58.8323 162.829 59.0631 164.139 59.5538C165.447 60.0359 166.629 60.7753 167.686 61.772C168.743 62.7687 169.617 64.0233 170.309 65.5357ZM171.575 60.2475L169.809 55.1184L191.895 47.5135L193.661 52.6427L185.737 55.3709L192.969 76.3725L186.742 78.5164L179.511 57.5149L171.575 60.2475ZM203.977 72.5821L194.979 46.4514L213.199 40.1778L214.965 45.3069L203.061 49.4059L204.906 54.7647L215.879 50.9865L217.65 56.1284L206.677 59.9067L208.526 65.2783L220.431 61.1793L222.197 66.3085L203.977 72.5821ZM235.811 61.6208L226.152 64.9465L217.155 38.8158L226.8 35.4945C229.463 34.5778 231.935 34.3115 234.218 34.6959C236.506 35.0688 238.51 36.0533 240.23 37.6494C241.947 39.2371 243.273 41.3876 244.207 44.101C245.144 46.823 245.427 49.3423 245.054 51.6589C244.69 53.9727 243.723 55.9851 242.152 57.6962C240.578 59.3988 238.465 60.707 235.811 61.6208ZM230.614 57.3875L233.714 56.3199C235.177 55.8161 236.33 55.1433 237.172 54.3014C238.02 53.4481 238.51 52.3707 238.643 51.0692C238.781 49.7563 238.526 48.16 237.879 46.2801C237.231 44.4003 236.452 42.994 235.541 42.0613C234.627 41.1201 233.57 40.58 232.371 40.441C231.178 40.2906 229.833 40.4732 228.335 40.9887L225.324 42.0255L230.614 57.3875Z" fill="#FF4343"/>
</svg>
