<svg width="30" height="30" viewBox="0 0 30 30" fill="none" xmlns="http://www.w3.org/2000/svg">
<circle cx="15" cy="15" r="15" fill="#4169E1" fill-opacity="0.08"/>
<path d="M12 10.3125C11.6925 10.3125 11.4375 10.0575 11.4375 9.75V7.5C11.4375 7.1925 11.6925 6.9375 12 6.9375C12.3075 6.9375 12.5625 7.1925 12.5625 7.5V9.75C12.5625 10.0575 12.3075 10.3125 12 10.3125Z" fill="#2A2C33"/>
<path d="M18 10.3125C17.6925 10.3125 17.4375 10.0575 17.4375 9.75V7.5C17.4375 7.1925 17.6925 6.9375 18 6.9375C18.3075 6.9375 18.5625 7.1925 18.5625 7.5V9.75C18.5625 10.0575 18.3075 10.3125 18 10.3125Z" fill="#2A2C33"/>
<path d="M21.5 19H8.02491C7.75907 20.7455 9.68643 21.7273 10.6833 22H17.994C20.6525 22 21.6108 20 21.5 19Z" fill="#4671F3"/>
<path d="M17.25 23.0625H12.75C8.535 23.0625 7.6875 21.075 7.6875 17.865V13.2375C7.6875 9.6825 8.8875 8.235 11.97 8.0625H18C18.0075 8.0625 18.0225 8.0625 18.03 8.0625C21.1125 8.235 22.3125 9.6825 22.3125 13.2375V17.865C22.3125 21.075 21.465 23.0625 17.25 23.0625ZM12 9.1875C9.9 9.3075 8.8125 9.9675 8.8125 13.2375V17.865C8.8125 20.7375 9.36 21.9375 12.75 21.9375H17.25C20.64 21.9375 21.1875 20.7375 21.1875 17.865V13.2375C21.1875 9.975 20.1075 9.3075 17.985 9.1875H12Z" fill="#2A2C33"/>
<path d="M21.5625 19.7625H8.4375C8.13 19.7625 7.875 19.5075 7.875 19.2C7.875 18.8925 8.13 18.6375 8.4375 18.6375H21.5625C21.87 18.6375 22.125 18.8925 22.125 19.2C22.125 19.5075 21.87 19.7625 21.5625 19.7625Z" fill="#2A2C33"/>
</svg>
