<svg width="20" height="20" viewBox="0 0 20 20" fill="none" xmlns="http://www.w3.org/2000/svg">
<path d="M2.08649 6.24096C1.90322 5.90773 2.1443 5.5 2.5246 5.5H14.9933C15.1525 5.5 15.3023 5.57588 15.3965 5.70432L18.3298 9.70432C18.4589 9.88031 18.4589 10.1197 18.3298 10.2957L15.3965 14.2957C15.3023 14.4241 15.1525 14.5 14.9933 14.5H2.52461C2.1443 14.5 1.90322 14.0923 2.0865 13.759L3.75639 10.7229C4.00395 10.2728 4.00395 9.72725 3.75638 9.27712L2.08649 6.24096Z" stroke="#E6E6E6"/>
<path d="M5.83334 5.41663L8.30816 9.47977C8.50276 9.79926 8.50276 10.2007 8.30816 10.5202L5.83334 14.5833" stroke="#E6E6E6"/>
<path d="M10.4167 5.41663L12.8915 9.47977C13.0861 9.79926 13.0861 10.2007 12.8915 10.5202L10.4167 14.5833" stroke="#E6E6E6"/>
</svg>
