<svg width="20" height="20" viewBox="0 0 20 20" fill="none" xmlns="http://www.w3.org/2000/svg">
<path d="M13.3333 18.9583H9.16667C8.825 18.9583 8.54167 18.675 8.54167 18.3333C8.54167 17.9916 8.825 17.7083 9.16667 17.7083H13.3333C15.7167 17.7083 16.875 16.55 16.875 14.1666V5.83329C16.875 3.44996 15.7167 2.29163 13.3333 2.29163H6.66667C4.28333 2.29163 3.125 3.44996 3.125 5.83329V11.6666C3.125 12.0083 2.84167 12.2916 2.5 12.2916C2.15833 12.2916 1.875 12.0083 1.875 11.6666V5.83329C1.875 2.79163 3.625 1.04163 6.66667 1.04163H13.3333C16.375 1.04163 18.125 2.79163 18.125 5.83329V14.1666C18.125 17.2083 16.375 18.9583 13.3333 18.9583Z" fill="#E6E6E6"/>
<path d="M3.33328 18.125C3.17495 18.125 3.01662 18.0667 2.89162 17.9417L1.22495 16.275C0.983285 16.0333 0.983285 15.6333 1.22495 15.3916L2.89162 13.725C3.13328 13.4833 3.53328 13.4833 3.77495 13.725C4.01662 13.9666 4.01662 14.3667 3.77495 14.6083L2.54995 15.8333L3.77495 17.0583C4.01662 17.3 4.01662 17.7 3.77495 17.9417C3.64995 18.0667 3.49162 18.125 3.33328 18.125Z" fill="#E6E6E6"/>
<path d="M5.83324 18.125C5.67491 18.125 5.51658 18.0667 5.39158 17.9417C5.14991 17.7 5.14991 17.3 5.39158 17.0583L6.61658 15.8333L5.39158 14.6083C5.14991 14.3667 5.14991 13.9666 5.39158 13.725C5.63324 13.4833 6.03324 13.4833 6.27491 13.725L7.94158 15.3916C8.18324 15.6333 8.18324 16.0333 7.94158 16.275L6.27491 17.9417C6.14991 18.0667 5.99158 18.125 5.83324 18.125Z" fill="#E6E6E6"/>
<path d="M7.28106 8.49634L10.5551 4.92466C10.8016 4.65574 11.25 4.83014 11.25 5.19495V7.93329C11.25 8.15421 11.429 8.33329 11.65 8.33329H13.2969C13.6387 8.33329 13.823 8.73414 13.6006 8.99361L9.87033 13.3456C9.62865 13.6276 9.16663 13.4567 9.16663 13.0853V9.56663C9.16663 9.34571 8.98754 9.16663 8.76663 9.16663H7.57592C7.22788 9.16663 7.04588 8.7529 7.28106 8.49634Z" stroke="#E6E6E6" stroke-linecap="round"/>
</svg>
