<svg width="24" height="24" viewBox="0 0 24 24" fill="none" xmlns="http://www.w3.org/2000/svg">
<path d="M12.1675 20.2949C11.6208 20.2949 11.1675 19.9981 11.1675 19.6403V4.94959C11.1675 4.5917 11.6208 4.29492 12.1675 4.29492C12.7141 4.29492 13.1675 4.5917 13.1675 4.94959V19.6403C13.1675 19.9981 12.7141 20.2949 12.1675 20.2949Z" fill="#BEECD8"/>
<path fill-rule="evenodd" clip-rule="evenodd" d="M14.4511 3.94144L14.4494 3.93979C13.1854 2.68765 11.1401 2.68527 9.88395 3.94145L3.36395 10.4614C2.87868 10.9467 2.87868 11.7433 3.36395 12.2286C3.84921 12.7138 4.64579 12.7138 5.13105 12.2286L11.6511 5.70855C11.9358 5.42382 12.3992 5.42382 12.6839 5.70855L19.2039 12.2286C19.4527 12.4773 19.772 12.595 20.0875 12.595C20.4177 12.595 20.7264 12.4573 20.9587 12.2405L20.965 12.2346L20.9711 12.2286C21.4563 11.7433 21.4563 10.9467 20.9711 10.4614L14.4511 3.94144Z" fill="#46B076"/>
</svg>
