<svg width="250" height="155" viewBox="0 0 250 155" fill="none" xmlns="http://www.w3.org/2000/svg">
<path d="M224.649 4.74873L2.5489 81.2238L1.01229 76.7611C1.73058 76.4901 2.50249 76.1739 3.28992 75.9028C56.0534 57.7408 108.823 39.5826 161.586 21.418C181.275 14.6382 200.971 7.86238 220.642 1.02699C222.66 0.326113 223.443 0.498101 223.672 1.81847C223.836 2.77853 224.275 3.66487 224.649 4.74873ZM161.808 23.9381C162.542 23.0569 163.02 22.4772 163.503 21.8988C162.946 21.8062 162.201 21.4907 161.861 21.6698C161.092 22.074 160.518 22.7224 159.867 23.2696C160.385 23.4497 160.904 23.6298 161.804 23.9422L161.808 23.9381Z" fill="#129C10"/>
<path d="M248.796 78.0575L26.6969 154.533L25.1602 150.07C25.8785 149.799 26.6504 149.483 27.4379 149.212C80.2014 131.05 132.971 112.891 185.733 94.7267C205.423 87.947 225.119 81.1711 244.79 74.3358C246.808 73.6349 247.591 73.8069 247.82 75.1272C247.984 76.0873 248.423 76.9736 248.796 78.0575ZM185.956 97.2469C186.69 96.3657 187.168 95.786 187.651 95.2076C187.094 95.115 186.349 94.7994 186.009 94.9786C185.24 95.3828 184.665 96.0312 184.015 96.5784C184.533 96.7585 185.052 96.9386 185.952 97.251L185.956 97.2469Z" fill="#129C10"/>
<path d="M26.375 153.599L0.314046 77.9121L5.10226 76.2634C5.21015 76.5029 5.35088 76.7546 5.44327 77.0229C11.6286 95.0048 17.8087 112.99 23.9968 130.971C26.3072 137.681 28.6124 144.394 30.9825 151.083C31.2252 151.77 30.8775 152.136 29.5117 152.529C28.519 152.815 27.5379 153.198 26.375 153.599ZM21.4383 131.632C22.15 131.741 22.6192 131.81 23.086 131.882C23.3038 131.628 23.7858 131.245 23.684 131.143C23.4551 130.912 22.9392 130.818 22.5412 130.669C22.2451 130.927 21.9489 131.184 21.435 131.632L21.4383 131.632Z" fill="#129C10"/>
<path d="M244.938 79.3615L218.877 3.67515L223.665 2.02643C223.773 2.26587 223.914 2.51756 224.006 2.78589C230.192 20.7678 236.372 38.7531 242.56 56.734C244.87 63.4439 247.175 70.157 249.545 76.8463C249.788 77.5328 249.44 77.8992 248.075 78.2925C247.082 78.5777 246.101 78.9611 244.938 79.3615ZM240.001 57.395C240.713 57.5035 241.182 57.573 241.649 57.6448C241.867 57.3907 242.349 57.0079 242.247 56.9062C242.018 56.6754 241.502 56.5812 241.104 56.4322C240.808 56.6898 240.512 56.9473 239.998 57.3946L240.001 57.395Z" fill="#129C10"/>
<path d="M46.3779 89.9856L58.8116 107.112L59.0285 107.037L58.2822 85.8866L65.3508 83.4527L65.5317 112.619L57.1235 115.514L39.3094 92.4195L46.3779 89.9856ZM77.1617 108.615L68.1641 82.484L86.3842 76.2103L88.1503 81.3395L76.246 85.4385L78.0912 90.7973L89.0641 87.019L90.8346 92.161L79.8617 95.9392L81.7113 101.311L93.6156 97.2118L95.3817 102.341L77.1617 108.615ZM99.337 100.979L90.3395 74.8484L101.134 71.1316C103.09 70.458 104.9 70.2296 106.564 70.4465C108.233 70.6519 109.68 71.2764 110.905 72.3198C112.127 73.3547 113.046 74.7653 113.661 76.5516C114.285 78.3633 114.419 80.0391 114.065 81.5789C113.707 83.1102 112.915 84.458 111.689 85.6223C110.46 86.7781 108.851 87.6987 106.86 88.3841L100.034 90.7345L98.3206 85.7584L103.973 83.8122C104.926 83.4842 105.678 83.087 106.231 82.6206C106.79 82.1429 107.147 81.5917 107.303 80.9671C107.456 80.334 107.394 79.6134 107.116 78.8053C106.837 77.9972 106.442 77.3866 105.928 76.9735C105.412 76.5518 104.785 76.3204 104.048 76.2794C103.308 76.2298 102.466 76.3675 101.521 76.6926L98.4082 77.7646L105.653 98.8044L99.337 100.979ZM109.936 83.971L120.555 93.673L113.666 96.0454L103.174 86.2995L109.936 83.971ZM120.445 64.4823L129.442 90.613L123.126 92.7877L114.129 66.657L120.445 64.4823ZM133.407 89.2478L124.41 63.1171L142.247 56.9753L144.013 62.1044L132.491 66.0716L134.337 71.4304L144.723 67.8543L146.493 72.9962L136.107 76.5724L139.723 87.0731L133.407 89.2478ZM151.743 53.7055L160.74 79.8362L154.425 82.0109L145.427 55.8802L151.743 53.7055ZM164.705 78.471L155.708 52.3403L173.928 46.0666L175.694 51.1958L163.79 55.2948L165.635 60.6536L176.608 56.8754L178.378 62.0173L167.405 65.7955L169.255 71.1671L181.159 67.0682L182.925 72.1973L164.705 78.471ZM196.539 67.5097L186.881 70.8354L177.883 44.7047L187.529 41.3834C190.191 40.4666 192.664 40.2004 194.947 40.5847C197.235 40.9576 199.239 41.9421 200.959 43.5383C202.676 45.1259 204.001 47.2765 204.936 49.9899C205.873 52.7119 206.155 55.2312 205.783 57.5478C205.418 59.8615 204.451 61.874 202.88 63.5851C201.307 65.2877 199.193 66.5959 196.539 67.5097ZM191.342 63.2764L194.443 62.2088C195.906 61.705 197.059 61.0322 197.901 60.1903C198.749 59.337 199.239 58.2596 199.371 56.9581C199.509 55.6452 199.254 54.0488 198.607 52.169C197.96 50.2892 197.181 48.8829 196.27 47.9502C195.356 47.009 194.299 46.4689 193.1 46.3299C191.906 46.1795 190.561 46.3621 189.064 46.8776L186.053 47.9144L191.342 63.2764Z" fill="#129C10"/>
</svg>
