<svg width="29" height="20" viewBox="0 0 29 20" fill="none" xmlns="http://www.w3.org/2000/svg">
<path d="M15 7.08329L12.0834 7.91663L13.3334 6.24996L15.4167 5.41663H16.6667L18.3334 6.66663L15 7.08329Z" fill="#99D0FF"/>
<path d="M13.75 12.0833L12.9167 16.2499L12.1391 15.8333L11.6666 13.3333L12.1391 11.0169L12.6287 9.86678L14.4317 8.82295L13.75 12.0833Z" fill="#99D0FF"/>
<path d="M7.0835 8.33333L2.91681 8.33354L3.75011 7.50016L5.30972 6.97971L7.65611 7.26866L8.84114 7.66641L12.0835 8.33333L7.0835 8.33333Z" fill="#99D0FF"/>
<path d="M0.00212629 14.7521C0.0510308 14.5442 0.0951513 14.3353 0.149372 14.1296C0.655427 12.2106 2.29373 10.7988 4.18665 10.6478C6.15719 10.4908 7.94858 11.555 8.77624 13.3744C8.82621 13.4838 8.87299 13.5947 8.92721 13.7192C9.2504 13.677 9.56669 13.6353 9.95314 13.585C9.82184 13.3057 9.70862 13.0686 9.59805 12.8304C9.4726 12.5597 9.35937 12.2831 9.22116 12.02C9.15525 11.8944 9.06276 11.7651 8.949 11.6877C8.10008 11.1079 7.24478 10.5363 6.3847 9.97384C6.26988 9.89859 6.11466 9.85854 5.97699 9.85475C5.4704 9.84067 4.96275 9.84934 4.45563 9.84934C4.3727 9.84934 4.2834 9.8672 4.20792 9.8423C3.37388 9.57272 2.7865 10.0632 2.18901 10.5179C2.06409 10.6126 1.9615 10.7382 1.83977 10.8378C1.52348 11.0965 1.16308 11.2102 0.756957 11.1566C0.200402 11.083 -0.0201997 10.5704 0.312564 10.1027C0.918023 9.25172 1.70794 8.64002 2.67646 8.27626C2.85454 8.20913 2.95181 8.12252 3.00976 7.92277C3.18517 7.32028 3.74067 6.92512 4.36686 6.92187C5.05843 6.91862 5.7516 6.88939 6.44105 6.93161C6.93169 6.96139 7.42977 7.04367 7.89968 7.18712C8.48813 7.3663 9.07233 7.49459 9.68735 7.48647C10.3784 7.47727 11.0694 7.4843 11.6903 7.4843C11.9402 7.07182 12.0991 6.62631 12.4047 6.34915C12.8438 5.95128 13.3658 5.62541 13.8963 5.35962C14.6974 4.9585 15.5687 4.86702 16.4782 4.99477C16.4245 4.84212 16.3575 4.71112 16.3325 4.57254C16.2453 4.08318 16.4734 3.68477 16.9555 3.48123C17.8294 3.11151 18.706 2.74775 19.5804 2.38235C19.2902 1.36738 19.0653 1.15572 18.1484 1.24612C18.1484 1.35872 18.1829 1.49242 18.1393 1.58932C18.0867 1.70624 17.9682 1.79285 17.8778 1.89246C17.7848 1.7961 17.6179 1.70462 17.611 1.60231C17.5812 1.1633 17.5828 0.719416 17.6104 0.279863C17.6168 0.181343 17.7726 0.0931072 17.8597 0C17.9559 0.0936485 18.083 0.171599 18.1377 0.285276C18.1845 0.38109 18.1473 0.519127 18.1473 0.665825C18.328 0.665825 18.4827 0.66366 18.6374 0.665825C19.1642 0.674486 19.5507 0.924035 19.8026 1.38795C19.8914 1.55143 19.9557 1.72844 20.0317 1.89895C20.1524 2.16907 20.264 2.42566 20.5155 2.62703C20.8216 2.87171 20.9062 3.25821 20.7403 3.62252C20.6202 3.88723 20.6962 4.07994 20.8089 4.32137C21.2001 3.9982 21.6238 3.80765 22.1251 3.81902C22.8172 3.83418 23.0484 4.0231 23.1765 4.7057C23.2786 5.24811 23.3758 5.79213 23.4923 6.33183C23.5688 6.6864 23.4737 6.95273 23.1855 7.16438C22.8289 7.42584 22.4355 7.55468 21.9305 7.54114C22.0676 7.82967 22.1973 8.07976 22.3069 8.33797C22.5099 8.81649 22.7209 9.29286 22.89 9.78384C22.9766 10.0366 23.0681 10.1135 23.3482 10.0918C24.6782 9.99062 25.879 10.3652 26.931 11.2081C27.2659 11.4765 27.3068 11.6416 27.2032 12.0617C27.184 12.1391 27.2255 12.2566 27.2786 12.3237C28.0149 13.2526 28.3556 14.3093 28.3322 15.5034C28.2907 17.6249 26.5919 19.6126 24.5278 19.9293C22.0055 20.3158 19.7633 18.7649 19.2365 16.2385C18.9808 15.0108 19.2168 13.8567 19.8632 12.7855C19.9286 12.6777 19.9398 12.5132 19.9244 12.3822C19.885 12.0547 19.9244 11.7602 20.179 11.5345C20.3937 11.3434 20.6117 11.1534 20.845 10.9872C20.9726 10.8962 21.0162 10.8253 20.9513 10.6721C20.8434 10.415 20.7642 10.146 20.6574 9.88831C20.6244 9.80928 20.5234 9.68477 20.4846 9.6956C20.357 9.73133 20.1928 9.79033 20.1354 9.89372C19.9961 10.1444 19.9089 10.4253 19.801 10.6938C19.0871 12.471 18.3738 14.2481 17.6593 16.0247C17.2128 17.135 16.4176 17.6795 15.2455 17.6801C14.4986 17.6801 13.7517 17.6812 13.0049 17.6801C11.854 17.6779 10.969 17.0283 10.6346 15.9002C10.5512 15.6182 10.4342 15.5473 10.169 15.6057C9.92709 15.6593 9.67778 15.6869 9.4306 15.7037C9.24243 15.7167 9.16057 15.7909 9.13133 15.9863C8.83312 17.9648 7.45954 19.4507 5.53153 19.8925C3.01507 20.469 0.431636 18.661 0.0552834 16.0615C0.0462467 15.9987 0.018605 15.9392 0 15.878C0 15.5023 0 15.1267 0 14.751L0.00212629 14.7521ZM14.9887 8.75C15.7069 8.75 16.4684 8.7565 17.1866 8.75C17.8553 8.74405 17.9698 8.44244 18.1377 7.88326C18.403 7.0009 18.0867 6.59861 17.2468 6.25C16.0014 5.73358 15.1413 5.65563 13.9304 6.25C12.9347 6.73881 12.3266 7.09347 12.4047 8.27626C12.4297 8.65735 12.3021 8.74838 12.6853 8.75C13.4035 8.75216 14.2706 8.75 14.9887 8.75ZM7.13528 9.26146C7.97304 9.26146 8.81239 9.28636 9.64908 9.25226C10.1684 9.23115 10.6899 9.1467 11.2002 9.0406C11.2402 9.0406 11.348 8.87694 11.4577 8.75C11.4609 8.52643 11.567 8.27572 11.348 8.2795C10.6389 8.29195 9.92922 8.30386 9.22116 8.27626C8.82142 8.26056 8.3951 8.24161 8.03204 8.09437C6.82378 7.60394 5.56821 7.72357 4.3238 7.73223C3.70452 7.73656 3.41588 8.06568 3.56897 8.63028C3.6705 9.00487 4.04047 9.25821 4.51144 9.26038C5.38641 9.26471 6.26084 9.26146 7.13528 9.26146ZM24.0499 12.9636C24.2864 13.6278 24.5219 14.2643 24.7383 14.9069C24.928 15.4693 24.6521 16.0632 24.1264 16.2672C23.5794 16.4794 22.9846 16.2228 22.7544 15.6664C22.6657 15.452 22.5998 15.2279 22.5195 15.0092C22.3584 14.568 22.1947 14.1279 22.0267 13.6738C21.2692 14.4116 21.1576 15.7037 21.7471 16.6267C22.3765 17.6124 23.6039 17.9968 24.6617 17.5399C25.7227 17.0819 26.308 15.9186 26.0544 14.7743C25.8386 13.8021 24.903 12.9387 24.0488 12.963L24.0499 12.9636ZM6.81687 16.081C6.7685 16.081 6.74192 16.0783 6.71587 16.081C5.9132 16.1839 5.11159 16.2981 4.30732 16.3869C3.88366 16.4334 3.58438 16.1947 3.50731 15.7855C3.46956 15.5835 3.44511 15.3773 3.43661 15.1721C3.418 14.732 3.65615 14.4365 4.08034 14.3704C4.39822 14.3206 4.71876 14.2892 5.0377 14.2459C5.54641 14.1772 6.0546 14.1063 6.57181 14.0348C6.13486 13.1476 4.93245 12.6918 3.90333 13.0025C2.8471 13.3214 2.09917 14.4424 2.22516 15.5197C2.37081 16.7642 3.28777 17.6611 4.48912 17.7331C5.5108 17.7943 6.59042 17.0375 6.81581 16.0805L6.81687 16.081ZM14.0287 13.2889C13.5955 13.2889 13.1622 13.2867 12.729 13.2894C12.3899 13.2916 12.0922 13.4091 11.8753 13.677C11.8126 13.7544 11.7722 13.9006 11.7977 13.9937C11.9301 14.4803 12.081 14.9621 12.2373 15.4417C12.3505 15.7892 12.6057 15.983 12.9629 15.9863C13.765 15.9939 14.5672 15.9944 15.3688 15.9857C15.6904 15.9825 15.9296 15.8212 16.0598 15.5137C16.1475 15.3075 16.2113 15.0882 16.3192 14.8944C16.6892 14.2302 16.1348 13.2781 15.2731 13.2883C14.8585 13.2932 14.4433 13.2889 14.0287 13.2889ZM10.4688 13.4778C10.7074 14.2497 10.9344 15.0005 11.172 15.7476C11.4484 16.618 12.1204 17.1144 13.015 17.1171C13.7523 17.1193 14.4896 17.1177 15.2269 17.1171C16.1752 17.1171 16.787 16.7008 17.1469 15.8055C17.9198 13.8833 18.69 11.9599 19.4608 10.0366C19.4943 9.95327 19.5204 9.86774 19.5443 9.79845C19.3795 9.67936 19.2429 9.58084 19.0978 9.47582C19.0563 9.57326 19.018 9.65825 18.9835 9.74432C18.1936 11.7104 17.4031 13.6754 16.6159 15.6426C16.3681 16.2613 15.9206 16.559 15.2678 16.5558C14.5119 16.552 13.756 16.5558 13.0006 16.5536C12.8911 16.5536 12.7784 16.5476 12.6727 16.5211C12.1533 16.3923 11.8306 16.0545 11.6749 15.537C11.4718 14.8609 11.2603 14.1869 11.0567 13.5265C10.8504 13.5092 10.6782 13.4957 10.4688 13.4778ZM21.0391 9.1126C21.0502 9.15103 21.0741 9.26038 21.1113 9.36431C21.6525 10.8627 22.1958 12.3605 22.739 13.8578C22.9261 14.3742 23.1159 14.8901 23.3009 15.4076C23.3812 15.6317 23.5529 15.7443 23.766 15.7313C23.9946 15.7173 24.1674 15.5716 24.1918 15.3253C24.2035 15.2035 24.1626 15.0698 24.12 14.9507C23.6879 13.7403 23.2509 12.5316 22.8156 11.3223C22.5253 10.5162 22.2388 9.70859 21.9433 8.90419C21.8396 8.62162 21.6493 8.51065 21.383 8.57019C21.1438 8.62378 21.0284 8.78889 21.0391 9.1126ZM10.0882 14.1469C8.10593 14.41 6.16304 14.6671 4.22068 14.9296C4.14572 14.9399 4.01496 15.0033 4.01602 15.0368C4.02612 15.2761 4.03835 15.5229 4.11064 15.7465C4.12871 15.8022 4.37324 15.8109 4.50772 15.7936C5.70376 15.6398 6.89873 15.4758 8.0937 15.3145C8.83897 15.2138 9.58423 15.1131 10.3523 15.0097C10.2614 14.7126 10.178 14.4387 10.0882 14.1469ZM21.9433 4.57254C21.6509 4.5877 21.6227 4.53789 21.383 4.82263C21.3176 4.90058 21.0656 5.03807 21.0965 5.13443C21.2501 5.61296 21.4298 6.08336 21.6015 6.55594C21.753 6.97438 21.8874 7.05287 22.3244 6.93865C22.4902 6.89535 22.6471 6.81144 22.8028 6.73512C22.9325 6.67178 22.9718 6.57759 22.9362 6.41574C22.8198 5.88741 22.7273 5.35421 22.6274 4.82263C22.5583 4.45615 22.3962 4.57687 21.9433 4.57254ZM19.4502 4.51841C19.8956 5.75208 20.3337 6.96463 20.7669 8.16474C21.0162 8.06676 21.2426 7.97799 21.485 7.88326C21.046 6.66962 20.6069 5.45489 20.1614 4.22284C19.9142 4.3257 19.6958 4.4161 19.4502 4.51841ZM13.621 12.7302C13.621 12.1072 13.5965 11.5263 13.6348 10.9498C13.6476 10.7582 13.7767 10.5087 13.9304 10.4069C14.2854 10.1714 14.1377 9.86936 14.1611 9.56731C13.9846 9.56731 13.8453 9.55486 13.7092 9.57272C13.6422 9.58138 13.5482 9.63064 13.5248 9.6864C13.107 10.7025 12.6987 11.7218 12.2921 12.7308L13.621 12.7302ZM17.2468 11.4132C17.2936 10.8335 17.1719 10.697 16.6318 10.6965C16.0152 10.6965 15.398 10.6965 14.7814 10.6965C14.2514 10.6965 14.1122 10.8654 14.2009 11.4132H17.2468ZM17.2505 12.0119H14.1813C14.1451 12.5911 14.2626 12.721 14.8048 12.721C15.4124 12.721 16.02 12.721 16.6275 12.721C17.1692 12.721 17.2878 12.5895 17.2505 12.0119ZM23.244 10.7025C23.3801 11.1978 23.3801 11.1961 23.8606 11.2032C23.9797 11.2048 24.0988 11.2162 24.2173 11.2302C24.7909 11.2974 25.3193 11.4966 25.8205 11.7846C26.1023 11.9464 26.393 11.9973 26.6907 11.7943C26.0853 11.0343 24.1679 10.4285 23.244 10.7025ZM0.715495 10.5152C0.733568 10.5579 0.752173 10.6007 0.770247 10.6435C0.997228 10.5698 1.23537 10.5195 1.44747 10.415C1.59046 10.3441 1.68455 10.1785 1.82116 10.0864C2.26556 9.786 2.71899 9.4991 3.17295 9.20462C3.11288 9.08553 3.03474 8.9318 2.95341 8.77102C2.01891 9.13154 1.26886 9.69506 0.715495 10.5152ZM14.7224 9.58084C14.7224 9.70264 14.7261 9.79574 14.7219 9.88885C14.7144 10.0502 14.7766 10.1319 14.9457 10.1308C15.4969 10.127 16.0487 10.1373 16.5999 10.12C16.6759 10.1178 16.778 9.99928 16.8131 9.91213C16.8503 9.81902 16.8216 9.69885 16.8216 9.58138H14.7235L14.7224 9.58084ZM17.3728 9.66799C17.3728 9.74703 17.3675 9.90563 17.3749 10.0632C17.3792 10.1476 17.3834 10.2456 17.426 10.3127C17.5721 10.5449 17.7348 10.7658 17.8831 10.9802C18.1308 10.3598 18.3961 9.69722 18.6417 9.08174C18.243 9.26579 17.8326 9.45525 17.3728 9.66799ZM19.2455 5.61512C19.1408 5.32606 19.0382 5.0424 18.9282 4.73764C18.4822 4.9244 18.0718 5.096 17.6285 5.28221C17.8347 5.39859 18.0442 5.45435 18.1574 5.59185C18.4811 5.98484 18.8112 5.8847 19.1647 5.67358C19.1801 5.66438 19.194 5.65247 19.2455 5.61512ZM8.7587 10.8692C8.61624 10.5108 8.50567 10.2223 8.38447 9.93757C8.36746 9.89805 8.30314 9.85637 8.26008 9.85529C7.94752 9.84825 7.63443 9.8515 7.32186 9.8515C7.31974 9.86936 7.31761 9.88723 7.31601 9.90455C7.77423 10.2109 8.23191 10.5173 8.7587 10.8692ZM21.2113 11.4008C20.9822 11.5924 20.7828 11.7532 20.5899 11.9221C20.4533 12.0417 20.4161 12.1938 20.5373 12.3394C20.6611 12.4883 20.8068 12.465 20.945 12.3416C21.0954 12.2079 21.2496 12.078 21.4064 11.9421C21.3452 11.7732 21.2868 11.6092 21.2113 11.4008Z" fill="#001A72"/>
</svg>
