<svg width="30" height="30" viewBox="0 0 30 30" fill="none" xmlns="http://www.w3.org/2000/svg">
<rect width="30" height="30" rx="15" fill="#EDF1FE"/>
<path d="M17.2001 21.05C20.2801 18.85 19.2167 12.8 18.3001 10.05L17.7501 8.95H19.4001H21.6001L22.1501 10.05V15.55C22.1501 16.8333 22.3701 19.4 23.2501 19.4C24.1301 19.4 23.9834 20.5 23.8001 21.05H17.2001Z" fill="#4671F3"/>
<path d="M21.4167 19.125H8.58341M21.4167 19.125C21.923 19.125 22.3334 18.7146 22.3334 18.2083V9.95833C22.3334 9.45207 21.923 9.04167 21.4167 9.04167H8.58341C8.07715 9.04167 7.66675 9.45207 7.66675 9.95833V18.2083C7.66675 18.7146 8.07715 19.125 8.58341 19.125M21.4167 19.125H22.5626C23.1954 19.125 23.7084 19.638 23.7084 20.2708C23.7084 20.9037 23.1954 21.4167 22.5626 21.4167H7.43758C6.80475 21.4167 6.29175 20.9037 6.29175 20.2708C6.29175 19.638 6.80476 19.125 7.43758 19.125H8.58341" stroke="#1E1E1E" stroke-width="1.5" stroke-linecap="round" stroke-linejoin="round"/>
</svg>
