<svg width="12" height="12" viewBox="0 0 12 12" fill="none" xmlns="http://www.w3.org/2000/svg">
<path fill-rule="evenodd" clip-rule="evenodd" d="M2.65527 3.22C2.65527 2.20156 3.47793 1.375 4.50027 1.375C5.51791 1.375 6.34486 2.20169 6.34527 3.21924C6.34072 4.21154 5.56572 5.01549 4.58878 5.05938C4.52967 5.0551 4.46702 5.0553 4.40772 5.05943C3.42981 5.01599 2.65527 4.21151 2.65527 3.22ZM4.50027 0.625C3.06262 0.625 1.90527 1.78844 1.90527 3.22C1.90527 4.62169 3.01007 5.76298 4.40268 5.80979C4.4182 5.81031 4.43375 5.80987 4.44922 5.80846C4.48282 5.80541 4.51885 5.80573 4.54296 5.80814C4.55954 5.8098 4.57622 5.81035 4.59287 5.80979C5.98575 5.76297 7.08944 4.62176 7.09527 3.22156L7.09527 3.22C7.09527 1.78789 5.93238 0.625 4.50027 0.625ZM8.20517 1.625C7.99806 1.625 7.83017 1.79289 7.83017 2C7.83017 2.20711 7.99806 2.375 8.20517 2.375C8.96737 2.375 9.58017 2.99141 9.58017 3.75C9.58017 4.48415 9.00354 5.0845 8.2802 5.12415C8.21933 5.11924 8.15765 5.12075 8.09876 5.12729C7.89292 5.15016 7.74459 5.33557 7.76746 5.54141C7.79033 5.74725 7.97574 5.89558 8.18158 5.87271C8.20088 5.87056 8.21616 5.87117 8.22366 5.8721C8.24373 5.87461 8.26398 5.87549 8.2842 5.87474C9.41963 5.83224 10.3302 4.89773 10.3302 3.75C10.3302 2.57859 9.38297 1.625 8.20517 1.625ZM4.5866 6.21875C5.5507 6.21875 6.53384 6.46071 7.29363 6.96816C7.97657 7.42272 8.36785 8.05991 8.36785 8.74562C8.36785 9.43128 7.97663 10.0696 7.29396 10.5266L7.29389 10.5267C6.53178 11.0366 5.54739 11.28 4.58285 11.28C3.6185 11.28 2.63431 11.0367 1.87226 10.527C1.18921 10.0724 0.797852 9.43515 0.797852 8.74937C0.797852 8.06372 1.18907 7.42537 1.87175 6.96838L1.87312 6.96746L1.87312 6.96746C2.63734 6.46075 3.62238 6.21875 4.5866 6.21875ZM2.28827 7.59208C1.76144 7.945 1.54785 8.37145 1.54785 8.74937C1.54785 9.12722 1.76135 9.55237 2.28807 9.90278L2.28889 9.90333C2.90178 10.3134 3.73239 10.53 4.58285 10.53C5.43328 10.53 6.26386 10.3134 6.87675 9.90338C7.40407 9.55037 7.61785 9.12372 7.61785 8.74562C7.61785 8.36777 7.40435 7.94263 6.87764 7.59222L6.87708 7.59184C6.26686 7.18429 5.4375 6.96875 4.5866 6.96875C3.73614 6.96875 2.90398 7.18409 2.28827 7.59208ZM9.26744 6.63413C9.0654 6.5886 8.8647 6.71548 8.81917 6.91752C8.77364 7.11956 8.90052 7.32026 9.10256 7.36579C9.41733 7.43672 9.69946 7.55774 9.9224 7.728L9.9224 7.72801L9.925 7.72996C10.2337 7.96145 10.36 8.24344 10.36 8.49746C10.36 8.75148 10.2337 9.03347 9.925 9.26496L9.92498 9.26494L9.92161 9.26753C9.69268 9.44331 9.40666 9.5676 9.09351 9.63284C8.89076 9.67508 8.76064 9.87369 8.80288 10.0764C8.84512 10.2792 9.04373 10.4093 9.24648 10.3671C9.65265 10.2825 10.046 10.1172 10.3767 9.86368C10.847 9.51026 11.11 9.01781 11.11 8.49746C11.11 7.97696 10.8468 7.48438 10.3763 7.13094C10.0495 6.88175 9.66215 6.72308 9.26744 6.63413Z" fill="#333333"/>
</svg>
