<svg width="22" height="22" viewBox="0 0 22 22" fill="none" xmlns="http://www.w3.org/2000/svg">
<path d="M21 9.92076V3.1506C21 1.86512 20.02 0.911721 18.83 1.01884H18.77C16.67 1.21167 13.48 2.35789 11.7 3.55767L11.53 3.67551C11.24 3.86833 10.76 3.86833 10.47 3.67551L10.22 3.51482C8.44 2.32575 5.26 1.19024 3.16 1.00813C1.97 0.901009 1 1.86512 1 3.13989V16.0804C1 17.1087 1.78 18.0729 2.74 18.2014L3.03 18.2442C5.2 18.5549 8.55 19.7333 10.47 20.8581L10.51 20.8795C10.78 21.0402 11.21 21.0402 11.47 20.8795C13.39 19.744 16.75 18.5549 18.93 18.2442L19.26 18.2014C20.22 18.0729 21 17.1087 21 16.0804V14.2378" stroke="white" stroke-opacity="0.7" stroke-width="1.5" stroke-linecap="round" stroke-linejoin="round"/>
<path d="M11 4.02905V20.0976" stroke="white" stroke-opacity="0.7" stroke-width="1.5" stroke-linecap="round" stroke-linejoin="round"/>
<path d="M6.75 7.24268H4.5" stroke="white" stroke-opacity="0.7" stroke-width="1.5" stroke-linecap="round" stroke-linejoin="round"/>
<path d="M7.5 10.4563H4.5" stroke="white" stroke-opacity="0.7" stroke-width="1.5" stroke-linecap="round" stroke-linejoin="round"/>
</svg>
