<svg id="Group_38" data-name="Group 38" xmlns="http://www.w3.org/2000/svg" xmlns:xlink="http://www.w3.org/1999/xlink" width="171.72" height="63.156" viewBox="0 0 171.72 63.156">
  <defs>
    <clipPath id="clip-path">
      <rect id="Rectangle_36" data-name="Rectangle 36" width="171.72" height="63.156" fill="none"/>
    </clipPath>
  </defs>
  <g id="Group_37" data-name="Group 37" clip-path="url(#clip-path)">
    <path id="Path_631" data-name="Path 631" d="M519.543,143.772a16.551,16.551,0,0,1-5.688-.962,13.531,13.531,0,0,1-4.618-2.831,12.8,12.8,0,0,1-3.039-4.467,16.088,16.088,0,0,1,0-11.746,14.026,14.026,0,0,1,3.156-4.7,13.668,13.668,0,0,1,4.773-3,16.387,16.387,0,0,1,5.961-1.079,14.752,14.752,0,0,1,4.189.559,16.6,16.6,0,0,1,3.2,1.233l1.207-1.059h1.7l.175,9.974h-1.714a17.364,17.364,0,0,0-3.507-6.7,6.642,6.642,0,0,0-4.987-2.138,6.117,6.117,0,0,0-5.572,3.2q-1.909,3.177-1.91,8.934a20.994,20.994,0,0,0,.643,5.564,11.438,11.438,0,0,0,1.715,3.7,6.971,6.971,0,0,0,2.669,2.156,8.847,8.847,0,0,0,8.26-.789,13.637,13.637,0,0,0,3.9-4.429l1.675,1a16.881,16.881,0,0,1-1.908,3.042,11.548,11.548,0,0,1-2.474,2.291,12.842,12.842,0,0,1-3.409,1.656,14.365,14.365,0,0,1-4.384.6" transform="translate(-442.074 -100.639)" fill="#fff"/>
    <path id="Path_632" data-name="Path 632" d="M736.539,130.751H724.812v-1.406q.388-.039.915-.1a2.248,2.248,0,0,0,.779-.192,1.134,1.134,0,0,0,.566-.616,3.145,3.145,0,0,0,.175-1.194v-9.01a4.811,4.811,0,0,0-.76-2.966,2.5,2.5,0,0,0-2.124-.982,4.482,4.482,0,0,0-1.46.232,5.489,5.489,0,0,0-1.306.673,4.727,4.727,0,0,0-.915.789q-.333.4-.565.712v10.34a3.042,3.042,0,0,0,.175,1.136,1.444,1.444,0,0,0,.662.674,3.323,3.323,0,0,0,.76.308,6.725,6.725,0,0,0,.935.192v1.406H710.8v-1.406c.338-.026.662-.058.974-.1a3.832,3.832,0,0,0,.858-.192,1.441,1.441,0,0,0,.838-.654,2.485,2.485,0,0,0,.234-1.156V105.777a3.392,3.392,0,0,0-.292-1.309,2.246,2.246,0,0,0-.819-1.039,3.213,3.213,0,0,0-1.131-.386,9.787,9.787,0,0,0-1.324-.193v-1.406l9.682-.5.292.309V114.5h.078q.74-.655,1.325-1.174a10.917,10.917,0,0,1,1.46-1.078,7.1,7.1,0,0,1,1.871-.789,9.321,9.321,0,0,1,2.513-.327,5.974,5.974,0,0,1,4.733,1.791,6.825,6.825,0,0,1,1.6,4.717v9.434a2.539,2.539,0,0,0,.214,1.136,1.5,1.5,0,0,0,.8.674,5.381,5.381,0,0,0,.779.27,7.933,7.933,0,0,0,1.052.192Z" transform="translate(-621.544 -88.35)" fill="#fff"/>
    <path id="Path_633" data-name="Path 633" d="M933.929,198.45a10.793,10.793,0,0,0,.624-2.618,26.4,26.4,0,0,0,.214-3.582,27.906,27.906,0,0,0-.195-3.081,11.266,11.266,0,0,0-.584-2.734,4.518,4.518,0,0,0-1.305-1.906,3.119,3.119,0,0,0-2.085-.693,3.2,3.2,0,0,0-2.221.751,4.926,4.926,0,0,0-1.266,1.944,10.58,10.58,0,0,0-.565,2.581,29.037,29.037,0,0,0-.156,3.062q0,2.1.137,3.485a10.781,10.781,0,0,0,.662,2.753,4.375,4.375,0,0,0,1.286,1.887,3.545,3.545,0,0,0,4.129.058,4.347,4.347,0,0,0,1.325-1.907m4.987-13.342a8.859,8.859,0,0,1,2.2,3.177,10.422,10.422,0,0,1,.759,4.005,10.81,10.81,0,0,1-.759,4.044,8.747,8.747,0,0,1-2.182,3.235,10.487,10.487,0,0,1-3.682,2.214,14.27,14.27,0,0,1-4.871.771,13.716,13.716,0,0,1-4.383-.674,10.317,10.317,0,0,1-3.526-2.022,9.177,9.177,0,0,1-2.338-3.177,10.257,10.257,0,0,1-.857-4.256,10.67,10.67,0,0,1,.74-4.1,9.327,9.327,0,0,1,2.26-3.215,9.844,9.844,0,0,1,3.545-2.08,15.477,15.477,0,0,1,9.526,0,10.291,10.291,0,0,1,3.565,2.08" transform="translate(-804.59 -159.535)" fill="#fff"/>
    <path id="Path_634" data-name="Path 634" d="M1105.649,130.751h-12.214v-1.406c.337-.026.661-.058.973-.1a3.811,3.811,0,0,0,.858-.192,1.44,1.44,0,0,0,.838-.654,2.48,2.48,0,0,0,.233-1.156V105.912a2.94,2.94,0,0,0-.312-1.347,2.2,2.2,0,0,0-.8-.962,4.736,4.736,0,0,0-1.189-.482,6.38,6.38,0,0,0-1.384-.27v-1.406l9.8-.5.293.309V127a2.323,2.323,0,0,0,.252,1.156,1.69,1.69,0,0,0,.819.693,7.73,7.73,0,0,0,.818.308,5.045,5.045,0,0,0,1.013.192Z" transform="translate(-956.334 -88.35)" fill="#fff"/>
    <path id="Path_635" data-name="Path 635" d="M1208.418,191.5q-1.09.367-2.161.848a8.342,8.342,0,0,0-1.754.981,3.711,3.711,0,0,0-1.129,1.386,4.389,4.389,0,0,0-.41,1.964,2.959,2.959,0,0,0,.682,2.176,2.38,2.38,0,0,0,1.714.675,3.28,3.28,0,0,0,1.754-.425,5.12,5.12,0,0,0,1.227-1.078Zm9.683,10.032a15.113,15.113,0,0,1-2.025.673,9.761,9.761,0,0,1-2.476.309,6.943,6.943,0,0,1-3.526-.694,3.564,3.564,0,0,1-1.539-2.021h-.117a12.154,12.154,0,0,1-1.286,1.116,7.061,7.061,0,0,1-1.305.79,8.912,8.912,0,0,1-1.772.615,10.192,10.192,0,0,1-2.357.213,5.887,5.887,0,0,1-3.857-1.31,4.327,4.327,0,0,1-1.6-3.5,5.656,5.656,0,0,1,.35-2.119,4.827,4.827,0,0,1,.993-1.559,5.252,5.252,0,0,1,1.344-1.02,15.706,15.706,0,0,1,1.695-.752q1.754-.634,4.208-1.309a24.35,24.35,0,0,0,3.584-1.232v-1.849c0-.321-.027-.744-.077-1.27a4.089,4.089,0,0,0-.331-1.329,2.442,2.442,0,0,0-2.4-1.463,3.667,3.667,0,0,0-1.442.251,4.563,4.563,0,0,0-.915.481,7.441,7.441,0,0,0,.331,1.175,4.662,4.662,0,0,1,.273,1.521,2.63,2.63,0,0,1-.175.828,1.835,1.835,0,0,1-.507.77,3.335,3.335,0,0,1-1.013.6,5.016,5.016,0,0,1-1.7.212,3.535,3.535,0,0,1-2.473-.77,2.673,2.673,0,0,1-.838-2.042,2.639,2.639,0,0,1,.857-1.925,7.142,7.142,0,0,1,2.124-1.425,11.951,11.951,0,0,1,2.825-.886,14.908,14.908,0,0,1,2.962-.327,24.125,24.125,0,0,1,3.467.231,8.128,8.128,0,0,1,2.844.9,4.837,4.837,0,0,1,1.91,1.964,6.743,6.743,0,0,1,.721,3.332q0,2.176-.1,5.161-.079,2.984-.078,3.927a3.07,3.07,0,0,0,.252,1.368,1.719,1.719,0,0,0,.818.751,2.96,2.96,0,0,0,1.033.192c.48.015.915.02,1.305.02Z" transform="translate(-1046.999 -159.539)" fill="#fff"/>
    <path id="Path_636" data-name="Path 636" d="M148.659,61.6c-2.541-1.025-4.345-2.41-3.938-5.924.546-4.719,8.051-10.125,10.454-12.8,1.7-1.892,2.091-6.522,2.091-6.522s2.51,5.149-.409,9.442c-1.179,1.733-7.194,7.512-8.437,11.1a5.458,5.458,0,0,0,.239,4.707" transform="translate(-126.615 -31.813)" fill="#fff"/>
    <path id="Path_637" data-name="Path 637" d="M113.424,25.339c-2.522-1.068-4.536-2.8-4.068-6.306.629-4.709,8.229-9.985,10.68-12.62,1.732-1.863,2.2-6.414,2.2-6.414s2.418,5.192-.576,9.433c-1.208,1.712-7.324,7.387-8.632,10.951a5.189,5.189,0,0,0,.4,4.955" transform="translate(-95.653 0.001)" fill="#fff"/>
    <path id="Path_638" data-name="Path 638" d="M207.809,207.943c2.54,1.024,4.345,2.41,3.938,5.924-.546,4.72-8.051,10.125-10.454,12.8-1.7,1.892-2.092,6.522-2.092,6.522s-2.51-5.15.41-9.442c1.179-1.733,7.194-7.512,8.437-11.1a5.46,5.46,0,0,0-.239-4.708" transform="translate(-173.47 -182)" fill="#fff"/>
    <path id="Path_639" data-name="Path 639" d="M241.2,243.558c2.521,1.068,4.536,2.8,4.068,6.307-.629,4.709-8.229,9.984-10.68,12.62-1.732,1.863-2.2,6.414-2.2,6.414s-2.419-5.193.575-9.433c1.209-1.712,7.325-7.387,8.632-10.951a5.191,5.191,0,0,0-.4-4.956" transform="translate(-202.593 -213.171)" fill="#fff"/>
    <path id="Path_640" data-name="Path 640" d="M62.324,205.393c-1.036,2.511-2.438,4.295-5.993,3.892-4.775-.539-10.244-7.957-12.953-10.332-1.915-1.679-6.6-2.066-6.6-2.066s5.21-2.481,9.553.4c1.754,1.166,7.6,7.112,11.229,8.34a5.639,5.639,0,0,0,4.762-.237" transform="translate(-32.191 -171.454)" fill="#fff"/>
    <path id="Path_641" data-name="Path 641" d="M25.638,238.4c-1.08,2.493-2.832,4.484-6.379,4.021-4.765-.623-10.1-8.133-12.769-10.556C4.6,230.149,0,229.687,0,229.687s5.254-2.391,9.545.57c1.732,1.2,7.474,7.239,11.08,8.531a5.355,5.355,0,0,0,5.013-.393" transform="translate(0 -200.233)" fill="#fff"/>
    <path id="Path_642" data-name="Path 642" d="M210.394,146.928c1.036-2.511,2.438-4.3,5.993-3.892,4.775.539,10.243,7.958,12.953,10.333,1.914,1.679,6.6,2.067,6.6,2.067s-5.21,2.481-9.553-.4c-1.753-1.165-7.6-7.11-11.229-8.339a5.641,5.641,0,0,0-4.762.236" transform="translate(-184.145 -125.141)" fill="#fff"/>
    <path id="Path_643" data-name="Path 643" d="M246.426,112.1c1.08-2.492,2.832-4.483,6.379-4.021,4.765.623,10.1,8.134,12.769,10.556,1.885,1.711,6.489,2.172,6.489,2.172s-5.254,2.391-9.544-.57c-1.732-1.194-7.474-7.239-11.08-8.531a5.355,5.355,0,0,0-5.013.393" transform="translate(-215.682 -94.539)" fill="#fff"/>
    <path id="Path_644" data-name="Path 644" d="M611.2,401.368q-.691,0-1.555,1.084a6.647,6.647,0,0,0-1.135,2.132l.126-.023a4.718,4.718,0,0,0,2.221-.97,2.093,2.093,0,0,0,.893-1.587.707.707,0,0,0-.139-.475.523.523,0,0,0-.412-.161m-2.18,6.563a2.108,2.108,0,0,1-1.537-.562,2.024,2.024,0,0,1-.576-1.511,2.868,2.868,0,0,1,.041-.55c.033-.206.074-.4.123-.585a5.161,5.161,0,0,1,1.779-2.521,4.224,4.224,0,0,1,2.635-1.17,1.479,1.479,0,0,1,.963.27.939.939,0,0,1,.327.773,2.2,2.2,0,0,1-1.184,1.8,7.16,7.16,0,0,1-3.053,1.051l-.134.015a4.286,4.286,0,0,0-.1.456,3.26,3.26,0,0,0-.038.47,1.376,1.376,0,0,0,.37,1.028,1.444,1.444,0,0,0,1.055.366,2.307,2.307,0,0,0,1.055-.272,5.771,5.771,0,0,0,1.2-.88l.208.206a6.479,6.479,0,0,1-1.583,1.224,3.365,3.365,0,0,1-1.554.394m-3.716-6.212h0l-1.181,4.96a8.624,8.624,0,0,1-1.248,3.162,2.253,2.253,0,0,1-1.83,1.081,1.291,1.291,0,0,1-.828-.267.842.842,0,0,1-.345-.657.655.655,0,0,1,.162-.45.513.513,0,0,1,.4-.184.587.587,0,0,1,.533.267.525.525,0,0,1,0,.575.264.264,0,0,0-.029.282.312.312,0,0,0,.279.112.978.978,0,0,0,.836-.557,6.7,6.7,0,0,0,.633-1.869l1.379-6.456h-1.364l.106-.488h1.379a8.824,8.824,0,0,1,1.207-2.691,2.406,2.406,0,0,1,1.953-1.124,1.61,1.61,0,0,1,.952.272.812.812,0,0,1,.384.682.637.637,0,0,1-.188.463.626.626,0,0,1-.458.186.525.525,0,0,1-.507-.318.624.624,0,0,1,.049-.641c.064-.1.07-.178.016-.236a.438.438,0,0,0-.317-.087c-.422,0-.8.312-1.122.935a8.693,8.693,0,0,0-.746,2.559h1.667l-.106.488Zm-4.136-3.938a.714.714,0,0,1,.537.234.865.865,0,0,1,0,1.15.735.735,0,0,1-1.076,0,.865.865,0,0,1,0-1.15.715.715,0,0,1,.538-.234m-2.453,8.613,1.032-3.744c.116-.417.116-.682,0-.794a1.593,1.593,0,0,0-.97-.137l.077-.275,1.212-.2,1.207-.208.074.074-1.508,5.443a.981.981,0,0,0-.044.486.214.214,0,0,0,.234.155.814.814,0,0,0,.489-.283,7.908,7.908,0,0,0,.77-.934l.211.186a6.623,6.623,0,0,1-1.146,1.339,1.49,1.49,0,0,1-.957.4.709.709,0,0,1-.71-.387,1.062,1.062,0,0,1-.082-.427,2.986,2.986,0,0,1,.113-.692m-4.524,0,1.992-7.672c.079-.313.057-.506-.065-.585a2.748,2.748,0,0,0-1.06-.114l.074-.275c.473-.046.883-.094,1.23-.15s.772-.147,1.259-.261l.067.074-2.373,9.147a.979.979,0,0,0-.036.514.247.247,0,0,0,.263.163.882.882,0,0,0,.541-.323,8.96,8.96,0,0,0,.854-1.063l.216.185a7.23,7.23,0,0,1-1.186,1.432,1.579,1.579,0,0,1-1.014.432.783.783,0,0,1-.762-.387,1.662,1.662,0,0,1,0-1.117m-9.808,1.366,1.408-5.113c.136-.491.146-.794.028-.906s-.46-.119-1.022-.025l.075-.275,1.161-.2,1.158-.208.077.074-.777,2.946c-.005.033,0,.051.015.048s.031-.023.051-.056c.191-.377.386-.735.587-1.071q1.193-1.943,2.131-1.941a.754.754,0,0,1,.664.3.865.865,0,0,1,.08.753.647.647,0,0,1-.242.369.763.763,0,0,1-.45.122.608.608,0,0,1-.317-.074.677.677,0,0,1-.219-.259.569.569,0,0,0-.123-.166.239.239,0,0,0-.146-.051q-.491,0-1.4,1.709a19.55,19.55,0,0,0-.947,2.076c-.088.213-.178.471-.275.771s-.186.588-.26.859l-.088.323h-1.169Zm-2.776-6.4q-.691,0-1.555,1.084a6.643,6.643,0,0,0-1.135,2.132l.126-.023a4.72,4.72,0,0,0,2.221-.97,2.094,2.094,0,0,0,.893-1.587.7.7,0,0,0-.139-.475.522.522,0,0,0-.412-.161m-2.18,6.563a2.107,2.107,0,0,1-1.537-.562,2.022,2.022,0,0,1-.576-1.511,2.888,2.888,0,0,1,.041-.55c.033-.206.074-.4.123-.585a5.162,5.162,0,0,1,1.779-2.521,4.225,4.225,0,0,1,2.635-1.17,1.479,1.479,0,0,1,.963.27.939.939,0,0,1,.327.773,2.2,2.2,0,0,1-1.184,1.8,7.16,7.16,0,0,1-3.052,1.051l-.134.015a4.3,4.3,0,0,0-.1.456,3.259,3.259,0,0,0-.038.47,1.375,1.375,0,0,0,.37,1.028,1.444,1.444,0,0,0,1.055.366,2.308,2.308,0,0,0,1.055-.272,5.785,5.785,0,0,0,1.2-.88l.209.206a6.5,6.5,0,0,1-1.583,1.224,3.366,3.366,0,0,1-1.555.394m-6.249-1.328,1.349-4.884h-.945a.33.33,0,0,1-.17-.026c-.021-.018-.028-.058-.018-.124a.207.207,0,0,1,.056-.147.656.656,0,0,1,.206-.1,5.417,5.417,0,0,0,1.246-.682,5.99,5.99,0,0,0,.991-1.02.746.746,0,0,1,.149-.14.248.248,0,0,1,.137-.046.1.1,0,0,1,.09.054.148.148,0,0,1,.007.125l-.445,1.623h1.2l-.085.488h-1.256l-1.392,5.039a.631.631,0,0,0-.02.351.18.18,0,0,0,.193.111c.111,0,.263-.1.461-.3a9.575,9.575,0,0,0,.791-.959l.211.193a7.011,7.011,0,0,1-1.176,1.361,1.6,1.6,0,0,1-1,.409.636.636,0,0,1-.646-.313,1.631,1.631,0,0,1,.059-1.015m-4.29,0,1.348-4.884h-.944a.327.327,0,0,1-.17-.026c-.021-.018-.029-.058-.018-.124a.207.207,0,0,1,.056-.147.654.654,0,0,1,.206-.1,5.407,5.407,0,0,0,1.246-.682,5.969,5.969,0,0,0,.991-1.02.735.735,0,0,1,.149-.14.245.245,0,0,1,.136-.046.1.1,0,0,1,.09.054.148.148,0,0,1,.008.125l-.445,1.623h1.2l-.085.488H571.4l-1.392,5.039a.638.638,0,0,0-.02.351.181.181,0,0,0,.193.111c.111,0,.262-.1.461-.3a9.674,9.674,0,0,0,.79-.959l.211.193a7.041,7.041,0,0,1-1.176,1.361,1.6,1.6,0,0,1-1,.409.636.636,0,0,1-.646-.313,1.631,1.631,0,0,1,.06-1.015m-2.716-5.235q-.691,0-1.554,1.084a6.645,6.645,0,0,0-1.135,2.132l.126-.023a4.721,4.721,0,0,0,2.221-.97,2.094,2.094,0,0,0,.893-1.587.7.7,0,0,0-.139-.475.521.521,0,0,0-.412-.161m-2.18,6.563a2.107,2.107,0,0,1-1.537-.562,2.022,2.022,0,0,1-.576-1.511,2.883,2.883,0,0,1,.041-.55c.033-.206.074-.4.123-.585a5.159,5.159,0,0,1,1.778-2.521,4.224,4.224,0,0,1,2.635-1.17,1.478,1.478,0,0,1,.962.27.938.938,0,0,1,.327.773,2.2,2.2,0,0,1-1.184,1.8,7.159,7.159,0,0,1-3.053,1.051l-.134.015a4.21,4.21,0,0,0-.1.456,3.226,3.226,0,0,0-.039.47,1.376,1.376,0,0,0,.371,1.028,1.443,1.443,0,0,0,1.055.366,2.307,2.307,0,0,0,1.055-.272,5.77,5.77,0,0,0,1.2-.88l.208.206a6.489,6.489,0,0,1-1.582,1.224,3.365,3.365,0,0,1-1.554.394m-7.9-.351a2.984,2.984,0,0,0,2-.989,4.962,4.962,0,0,0,1.387-2.262,6.382,6.382,0,0,0,.144-.669,3.724,3.724,0,0,0,.051-.6,1.452,1.452,0,0,0-.291-.971,1.026,1.026,0,0,0-.828-.344,2.171,2.171,0,0,0-1.681,1.155,10.2,10.2,0,0,0-1.2,2.538l-.172.656a5.474,5.474,0,0,0-.162.748.673.673,0,0,0,.036.382l.047.081a.762.762,0,0,0,.671.27m.286-8.855c.085-.313.066-.506-.057-.585a2.751,2.751,0,0,0-1.06-.114l.077-.275c.476-.046.888-.094,1.235-.15s.772-.147,1.259-.261l.07.074-1.59,5.731.414-.583a3.254,3.254,0,0,1,2.411-1.529,1.821,1.821,0,0,1,1.359.512,1.846,1.846,0,0,1,.5,1.353v.031a3.469,3.469,0,0,1-.046.521,4.96,4.96,0,0,1-.118.575,5.369,5.369,0,0,1-1.889,2.714,4.548,4.548,0,0,1-2.883,1.193,3.352,3.352,0,0,1-1.2-.209,1.909,1.909,0,0,1-.831-.552Zm-9.533,2.658a2.391,2.391,0,0,0-1.706,1.058,6.678,6.678,0,0,0-1.279,2.513,4.864,4.864,0,0,0-.137.6,3.363,3.363,0,0,0-.046.514,1.258,1.258,0,0,0,.247.832.853.853,0,0,0,.695.295,2.272,2.272,0,0,0,1.689-1.073,7.85,7.85,0,0,0,1.3-2.765,2.429,2.429,0,0,0,.064-1.465.8.8,0,0,0-.832-.511m-2.926,6.547a1.448,1.448,0,0,1-1.13-.465,1.822,1.822,0,0,1-.43-1.249,5.047,5.047,0,0,1,.052-.526,5.348,5.348,0,0,1,.121-.578,6.168,6.168,0,0,1,1.737-2.833,3.755,3.755,0,0,1,2.53-1.247,1.221,1.221,0,0,1,1.243.908l.2-.791,1.112-.132-1.531,5.528a1.024,1.024,0,0,0-.046.488.215.215,0,0,0,.234.161.826.826,0,0,0,.5-.257,6.294,6.294,0,0,0,.731-.847l.211.193a6.392,6.392,0,0,1-1.094,1.247,1.473,1.473,0,0,1-.926.372.67.67,0,0,1-.682-.387,1.724,1.724,0,0,1,.033-1.119l.219-.789a7.019,7.019,0,0,1-.762,1.089,3.085,3.085,0,0,1-2.324,1.236m-11-.168,1.408-5.113c.137-.491.147-.794.029-.906s-.461-.119-1.022-.025l.075-.275,1.161-.2,1.158-.208.077.074-.777,2.946c-.005.033,0,.051.015.048s.031-.023.051-.056c.19-.377.386-.735.586-1.071q1.194-1.943,2.131-1.941a.753.753,0,0,1,.664.3.865.865,0,0,1,.08.753.647.647,0,0,1-.242.369.764.764,0,0,1-.45.122.606.606,0,0,1-.317-.074.674.674,0,0,1-.219-.259.589.589,0,0,0-.123-.166.24.24,0,0,0-.147-.051q-.491,0-1.4,1.709a19.381,19.381,0,0,0-.947,2.076c-.087.213-.177.471-.275.771s-.185.588-.26.859l-.087.323h-1.169Zm-2.777-6.4q-.691,0-1.554,1.084a6.662,6.662,0,0,0-1.135,2.132l.126-.023a4.72,4.72,0,0,0,2.221-.97A2.093,2.093,0,0,0,530.7,402a.706.706,0,0,0-.139-.475.523.523,0,0,0-.412-.161m-2.18,6.563a2.106,2.106,0,0,1-1.536-.562,2.022,2.022,0,0,1-.576-1.511,2.884,2.884,0,0,1,.041-.55c.034-.206.075-.4.124-.585A5.16,5.16,0,0,1,527.8,402.2a4.226,4.226,0,0,1,2.635-1.17,1.479,1.479,0,0,1,.963.27.938.938,0,0,1,.327.773,2.2,2.2,0,0,1-1.184,1.8,7.158,7.158,0,0,1-3.052,1.051l-.134.015a4.574,4.574,0,0,0-.1.456,3.225,3.225,0,0,0-.038.47,1.373,1.373,0,0,0,.371,1.028,1.442,1.442,0,0,0,1.055.366,2.3,2.3,0,0,0,1.055-.272,5.782,5.782,0,0,0,1.2-.88l.208.206a6.486,6.486,0,0,1-1.583,1.224,3.364,3.364,0,0,1-1.555.394m-6.248-1.328,1.348-4.884h-.945a.328.328,0,0,1-.17-.026c-.021-.018-.029-.058-.018-.124a.206.206,0,0,1,.057-.147.642.642,0,0,1,.206-.1,5.4,5.4,0,0,0,1.245-.682,5.963,5.963,0,0,0,.991-1.02.727.727,0,0,1,.149-.14.246.246,0,0,1,.136-.046.1.1,0,0,1,.09.054.148.148,0,0,1,.008.125l-.445,1.623h1.2l-.085.488h-1.256l-1.392,5.039a.634.634,0,0,0-.021.351.181.181,0,0,0,.193.111c.111,0,.262-.1.461-.3a9.571,9.571,0,0,0,.79-.959l.211.193a7.028,7.028,0,0,1-1.176,1.361,1.6,1.6,0,0,1-1,.409.635.635,0,0,1-.646-.313,1.629,1.629,0,0,1,.059-1.015m-8.135,1.16,1.411-5.113q.173-.626-.006-.794c-.116-.112-.44-.157-.965-.137l.074-.275,1.225-.2,1.223-.208.08.074-.988,3.2h.059a15.673,15.673,0,0,1,.965-1.43q1.413-1.843,2.463-1.842a.9.9,0,0,1,.95.514,2.755,2.755,0,0,1-.106,1.625l-.926,3.365a.973.973,0,0,0-.051.494.213.213,0,0,0,.232.161.813.813,0,0,0,.491-.283,7.619,7.619,0,0,0,.77-.931l.211.186a6.663,6.663,0,0,1-1.148,1.336,1.489,1.489,0,0,1-.955.4.7.7,0,0,1-.705-.389,1.7,1.7,0,0,1,.026-1.119l.97-3.521a1.491,1.491,0,0,0,.057-.781.343.343,0,0,0-.358-.28q-.838,0-1.977,1.671a12.211,12.211,0,0,0-1.2,2.208,6.151,6.151,0,0,0-.234.608c-.08.236-.152.46-.211.674l-.211.791h-1.168Zm-9.659,0,.07-.244a1.4,1.4,0,0,0,.805-.28,1.96,1.96,0,0,0,.414-.883l1.871-6.764c.18-.641.206-1.055.074-1.241s-.514-.29-1.153-.311l.067-.244h7.654l-.234,1.153-.235,1.152h-.324q.158-1.153-.322-1.478a5.157,5.157,0,0,0-2.355-.323h-.715a.848.848,0,0,0-.51.12.879.879,0,0,0-.252.468l-.932,3.366h.24a6.44,6.44,0,0,0,2.161-.216,2.3,2.3,0,0,0,.878-1.234h.309l-.487,1.773-.5,1.783h-.324c.142-.75.108-1.205-.1-1.363a4.3,4.3,0,0,0-1.938-.239h-.383l-.918,3.317c-.134.484-.139.8-.01.959s.448.232.96.227a8.341,8.341,0,0,0,2.867-.379,4.738,4.738,0,0,0,1.838-1.728l.262.127-.492,1.242-.486,1.241h-7.806Z" transform="translate(-441.053 -347.767)" fill="#fff"/>
  </g>
</svg>
