<svg width="60" height="61" viewBox="0 0 60 61" fill="none" xmlns="http://www.w3.org/2000/svg">
<mask id="mask0_2256_1553" style="mask-type:luminance" maskUnits="userSpaceOnUse" x="0" y="0" width="60" height="61">
<path d="M60 0.119995H0V60.12H60V0.119995Z" fill="white"/>
</mask>
<g mask="url(#mask0_2256_1553)">
<path d="M23.35 22.95L22.7 23.11L18.37 27.26L21.1 31.23L23.68 28.73L25.08 30.01C24.5 27.66 24.05 25.27 23.35 22.95Z" fill="#FDD9CC"/>
<path d="M11 51.92L12.96 54.21L20.44 46.83L17.12 43.5L12.5 48.62L11 51.92Z" fill="#FDD9CC"/>
<path d="M31.08 48.95C31.06 48.88 31.04 48.8 31.01 48.73C30.43 48.96 29.75 48.82 29.25 48.34C28.21 47.33 27.21 46.29 26.21 45.28C27 44.46 27.79 43.65 28.65 42.78C28.91 43.05 29.16 43.32 29.41 43.59C29.33 43.34 29.25 43.08 29.17 42.83C29.14 42.73 29.14 42.64 29.14 42.55C29.03 42.45 28.94 42.34 28.9 42.2C28.85 42.02 28.79 41.85 28.72 41.69C28.6 41.44 28.47 41.19 28.42 40.93C28.42 40.93 28.42 40.93 28.42 40.92C28.3 40.82 28.19 40.69 28.17 40.55C28.17 40.5 28.17 40.44 28.16 40.39C25.6 37.82 23.06 35.29 20.55 32.78L23.66 29.67C23.74 29.75 23.86 29.86 23.97 29.97C24.46 30.46 24.95 30.96 25.44 31.45C25.21 30.62 24.99 29.79 24.8 28.95C24.62 28.77 24.44 28.59 24.25 28.4C23.74 27.88 23.46 27.88 22.94 28.4C22.52 28.83 22.11 29.27 21.71 29.69C20.84 28.82 20.04 28.02 19.23 27.2C20.23 26.2 21.25 25.17 22.28 24.15C22.67 23.77 23.08 23.57 23.5 23.54C23.4 23.18 23.3 22.82 23.19 22.47C23.17 22.39 23.17 22.32 23.17 22.25C22.51 22.36 21.87 22.69 21.28 23.27C20.07 24.48 18.86 25.69 17.65 26.9C17.55 27 17.43 27.1 17.25 27.27C17.25 26.39 17.24 25.61 17.25 24.83C17.25 24.75 17.35 24.64 17.44 24.59C18.57 23.98 18.89 23.3 18.61 22C18.68 21.97 18.76 21.93 18.84 21.91C19.97 21.56 20.88 20.98 21.56 20.2C21.56 20.2 21.55 20.18 21.54 20.17C21.54 20.17 21.55 20.19 21.56 20.19C21.56 20.19 21.56 20.19 21.57 20.19C21.53 20.13 21.48 20.07 21.46 19.99C21.44 19.98 21.42 19.97 21.41 19.96C21.27 19.8 21.14 19.63 21.02 19.45C21 19.42 20.98 19.39 20.95 19.36C20.9 19.3 20.86 19.25 20.81 19.19C20.58 18.91 20.35 18.62 20.15 18.32C19.97 18.05 19.82 17.75 19.64 17.47C19.6 17.4 19.56 17.34 19.52 17.27C19.52 17.25 19.49 17.23 19.48 17.21C19.36 17.07 19.24 16.94 19.15 16.78C19.15 16.77 19.15 16.76 19.14 16.75C19.12 16.73 19.09 16.71 19.08 16.68C18.94 16.5 18.83 16.3 18.73 16.1C18.71 16.07 18.68 16.05 18.67 16.02C18.67 16.01 18.66 16 18.65 15.99H11.89C9.07004 15.99 6.89004 17.77 6.35004 20.54C6.30004 20.77 6.21004 20.87 6.00004 20.95C5.21004 21.27 4.78004 21.89 4.77004 22.73C4.76004 23.55 5.16004 24.19 5.92004 24.52C6.20004 24.65 6.25004 24.81 6.25004 25.08C6.25004 26.24 6.24004 27.4 6.25004 28.56C6.28004 31.34 8.08004 33.51 10.79 34.03C11.32 34.14 11.88 34.11 12.46 34.14C12.41 34.4 12.45 34.73 12.3 34.89C11.6 35.64 10.85 36.34 10.03 37.16C9.93004 37 9.86004 36.85 9.75004 36.74C8.54004 35.53 7.35004 34.29 6.11004 33.12C4.90004 31.98 3.04004 32.06 1.88004 33.24C0.720036 34.42 0.680036 36.29 1.85004 37.48C3.89004 39.56 5.95004 41.62 8.03004 43.66C8.72004 44.34 9.58004 44.59 10.55 44.46C11.29 44.36 11.89 44.01 12.4 43.49C13.26 42.61 14.13 41.75 14.98 40.9C15.6 41.51 16.18 42.09 16.77 42.68C16.76 42.68 16.75 42.73 16.72 42.76C15.16 44.32 13.61 45.88 12.04 47.43C11.95 47.52 11.76 47.56 11.62 47.56C10.96 47.52 10.43 47.76 9.99004 48.23C9.64004 48.6 9.29004 48.97 8.96004 49.32C8.12004 48.8 7.29004 48.57 6.37004 48.67C5.24004 48.79 4.43004 49.42 3.68004 50.2C2.77004 51.15 2.75004 52.13 3.68004 53.06C5.10004 54.49 6.52004 55.92 7.96004 57.33C8.39004 57.74 8.90004 58.07 9.37004 58.44H9.36004L10.32 58.45C10.96 58.19 11.38 57.7 11.75 57.13C12.75 55.61 13.83 54.14 15.22 52.92C15.27 52.87 15.32 52.82 15.36 52.76C15.58 52.46 15.55 52.16 15.29 51.9C15.02 51.64 14.71 51.65 14.42 51.87C14.3 51.96 14.19 52.09 14.08 52.2C13.72 52.57 13.37 52.94 13.02 53.3C12.53 52.83 12.11 52.42 11.6 51.92C11.9 51.65 12.2 51.41 12.48 51.14C13.47 50.16 13.57 49.61 13.05 48.41C14.38 47.08 15.7 45.76 16.98 44.48C17.77 45.26 18.58 46.06 19.42 46.88C18.9 47.39 18.37 47.91 17.85 48.43C17.34 48.93 16.84 49.44 16.34 49.94C15.97 50.31 15.93 50.72 16.22 51C16.52 51.28 16.91 51.23 17.29 50.86C17.37 50.78 17.44 50.71 17.51 50.64C19.41 48.74 21.3 46.85 23.2 44.95C23.32 44.84 23.44 44.72 23.58 44.59C25.14 46.15 26.66 47.69 28.19 49.21C29.15 50.16 30.35 50.41 31.44 50C31.26 49.69 31.17 49.28 31.08 48.97V48.95ZM12.07 54.35C11.5 55.15 10.89 56.03 10.26 56.89C10.03 57.21 9.71004 57.18 9.43004 56.92C9.15004 56.67 8.89004 56.4 8.62004 56.13C7.29004 54.79 5.96004 53.46 4.63004 52.13C4.19004 51.7 4.20004 51.54 4.63004 51.09C5.18004 50.5 5.76004 49.96 6.64004 49.95C6.89004 49.95 7.15004 49.98 7.49004 50C7.36004 50.46 7.26004 50.83 7.16004 51.2C7.05004 51.62 7.21004 51.97 7.57004 52.07C7.95004 52.18 8.26004 51.99 8.40004 51.58C8.44004 51.46 8.47004 51.33 8.51004 51.21C8.54004 51.1 8.58004 50.99 8.63004 50.86C8.96004 51.01 9.10004 51.2 8.96004 51.57C8.81004 51.94 8.72004 52.34 8.62004 52.73C8.53004 53.09 8.71004 53.44 9.03004 53.54C9.38004 53.65 9.73004 53.49 9.87004 53.12C9.92004 52.98 9.95004 52.84 9.99004 52.7C10.03 52.58 10.08 52.47 10.11 52.38C10.75 53.02 11.39 53.67 12.07 54.35ZM11.86 49.83C11.49 50.23 11.11 50.6 10.72 51C10.45 50.7 10.2 50.42 9.93004 50.11C10.27 49.78 10.65 49.38 11.05 49.01C11.31 48.76 11.61 48.76 11.86 49.02C12.11 49.27 12.1 49.57 11.86 49.83ZM11.8 32.75C9.56004 32.77 7.70004 31.07 7.62004 28.9C7.58004 27.52 7.62004 26.13 7.62004 24.7H15.85C15.87 24.8 15.89 24.88 15.89 24.96C15.89 26.25 15.91 27.54 15.88 28.83C15.83 30.98 13.99 32.73 11.8 32.75ZM13.85 40.12L11.42 42.55C10.63 43.33 9.63004 43.37 8.84004 42.59C6.84004 40.61 4.86004 38.63 2.88004 36.63C2.13004 35.87 2.14004 34.81 2.85004 34.11C3.56004 33.43 4.62004 33.46 5.37004 34.21C6.74004 35.56 8.10004 36.93 9.46004 38.29C9.98004 38.81 10.25 38.81 10.77 38.29L12.5 36.56C12.79 37.82 13.28 38.9 14.08 39.86C14 39.95 13.94 40.04 13.86 40.12H13.85ZM17.63 41.58C16.68 40.56 15.63 39.58 14.76 38.45C13.78 37.18 13.54 35.66 13.83 34.08C13.87 33.88 14.06 33.64 14.24 33.54C15.88 32.63 16.88 31.27 17.21 29.43C17.23 29.31 17.28 29.18 17.36 29.09C17.62 28.79 17.89 28.51 18.13 28.26C18.95 29.09 19.72 29.88 20.54 30.7C20.2 31.04 19.79 31.44 19.38 31.85C18.62 32.61 17.87 33.37 17.11 34.13C16.85 34.4 16.76 34.7 16.95 35.04C17.1 35.32 17.37 35.45 17.68 35.37C17.86 35.32 18.04 35.19 18.18 35.05C18.61 34.62 19.01 34.17 19.39 33.77C20.47 34.84 21.46 35.84 22.46 36.84C20.91 38.38 19.32 39.94 17.65 41.59H17.63V41.58ZM23.27 42.88C22.37 43.9 21.32 44.78 20.36 45.71C19.61 44.96 18.82 44.15 18.05 43.37C19.82 41.59 21.64 39.76 23.47 37.92C24.55 39.33 24.53 41.44 23.27 42.88ZM24.48 43.55C25.27 42.45 25.64 41.22 25.55 39.9C26.21 40.57 26.88 41.23 27.55 41.91C26.8 42.63 25.99 43.42 25.16 44.23C24.94 44.01 24.72 43.79 24.48 43.55Z" fill="black"/>
<path d="M7.62001 24.69H15.86C15.86 24.79 15.9 24.87 15.9 24.95C15.9 26.24 15.92 27.53 15.89 28.82C15.84 30.97 14 32.72 11.81 32.74C9.58001 32.76 7.71001 31.06 7.63001 28.89C7.58001 27.5 7.63001 26.11 7.63001 24.69H7.62001Z" fill="#FDD9CC"/>
<path d="M17.66 41.58C16.71 40.56 15.66 39.58 14.79 38.45C13.81 37.18 13.57 35.66 13.86 34.08C13.9 33.88 14.08 33.64 14.27 33.54C15.91 32.63 16.9 31.28 17.24 29.43C17.26 29.31 17.31 29.18 17.39 29.09C17.65 28.8 17.92 28.52 18.16 28.26C18.98 29.09 19.76 29.87 20.57 30.7C20.23 31.04 19.82 31.44 19.41 31.85C18.65 32.61 17.89 33.37 17.14 34.13C16.88 34.39 16.79 34.7 16.98 35.04C17.14 35.32 17.41 35.45 17.71 35.37C17.89 35.32 18.07 35.19 18.21 35.05C18.64 34.62 19.04 34.17 19.42 33.77L22.49 36.84C20.93 38.37 19.35 39.94 17.68 41.59H17.66V41.58Z" fill="#F1A353"/>
<path d="M12.5 36.56C12.79 37.81 13.28 38.89 14.08 39.85C14 39.94 13.94 40.03 13.86 40.11C13.05 40.92 12.25 41.73 11.43 42.54C10.64 43.33 9.63004 43.36 8.85004 42.58C6.85004 40.61 4.86004 38.62 2.89004 36.62C2.14004 35.86 2.14004 34.8 2.86004 34.1C3.57004 33.41 4.63004 33.45 5.38004 34.2C6.74004 35.56 8.10004 36.92 9.47004 38.28C9.99004 38.8 10.26 38.8 10.78 38.28C11.34 37.72 11.9 37.16 12.51 36.55H12.5V36.56Z" fill="#FDD9CC"/>
<path d="M30.6101 47.36C30.2001 46.1 29.8101 44.83 29.4201 43.57C29.1701 43.3 28.9201 43.03 28.6601 42.76C27.8001 43.65 27.0201 44.45 26.2201 45.27C27.2201 46.28 28.2201 47.32 29.2601 48.32C29.7501 48.8 30.4301 48.94 31.0101 48.71C30.8801 48.26 30.7501 47.8 30.6001 47.35L30.6101 47.36Z" fill="#FDD9CC"/>
<path d="M35.13 42.72C34.6 42.18 34.18 41.75 33.74 41.3C32.88 42.17 32 43.06 31.11 43.95C31.39 44.87 31.68 45.78 31.97 46.7C32.07 47.02 32.17 47.35 32.27 47.67C32.76 47.17 33.24 46.66 33.73 46.15C33.22 44.94 33.33 44.37 34.32 43.4C34.59 43.13 34.91 42.9 35.13 42.72Z" fill="#FDD9CC"/>
<path d="M23.4901 37.92C24.5701 39.34 24.5501 41.45 23.2901 42.88C22.4001 43.9 21.3501 44.78 20.3801 45.71C19.6401 44.95 18.8401 44.15 18.0701 43.37C19.8401 41.59 21.6501 39.77 23.4901 37.92Z" fill="#9AC3E8"/>
<path d="M25.17 44.24C24.96 44.02 24.74 43.8 24.49 43.55C25.28 42.45 25.65 41.22 25.56 39.9C26.23 40.57 26.89 41.24 27.56 41.91C26.81 42.64 26.01 43.42 25.16 44.24H25.17Z" fill="#81B0DE"/>
<path d="M17.02 22H6.50005C6.11005 22 5.80005 22.31 5.80005 22.7V22.83C5.80005 23.22 6.11005 23.53 6.50005 23.53H17.02C17.41 23.53 17.72 23.22 17.72 22.83V22.7C17.72 22.31 17.41 22 17.02 22Z" fill="#ED5A6B"/>
<path d="M20.15 18.31C19.97 18.04 19.82 17.74 19.64 17.46C19.6 17.4 19.56 17.33 19.53 17.27H10.75C7.57004 17.97 7.17004 20.85 7.17004 20.85H17.63C19.25 20.41 20.09 19.56 20.52 18.8C20.39 18.64 20.26 18.48 20.15 18.31Z" fill="#1E4581"/>
<path d="M30.18 40.12C30.11 40.08 30.06 40.06 30 40.06L30.43 40.26C30.34 40.21 30.26 40.17 30.18 40.12Z" fill="#F47A28"/>
<path d="M54.51 47.15C53.19 46.45 51.88 45.74 50.56 45.04C49.59 44.53 48.61 44.04 47.64 43.53C47.07 43.23 46.52 42.93 45.97 42.62L45.54 42.42L44.69 42.03C44 42.99 41.85 44.58 41.59 44.77C41.57 44.78 41.56 44.79 41.56 44.79C40.11 45.63 38.56 46.15 36.89 46.29C36.47 46.33 36.05 46.35 35.61 46.37C35.61 46.47 35.63 46.56 35.65 46.65C35.85 47.97 36.06 49.3 36.27 50.63C36.56 52.55 36.85 54.47 37.15 56.39C37.15 56.51 37.18 56.61 37.34 56.61C37.93 56.61 38.52 56.59 39.11 56.59C39.3 56.59 39.36 56.5 39.34 56.31C39.22 55.14 39.12 53.96 39.02 52.79C38.99 52.52 38.91 52.29 38.74 52.07C38.29 51.49 37.85 50.89 37.41 50.3C37.25 50.07 37.27 49.84 37.45 49.69C37.66 49.51 37.93 49.55 38.12 49.8C38.47 50.24 38.81 50.69 39.14 51.14C39.24 51.28 39.34 51.33 39.52 51.3C39.79 51.25 40.06 51.22 40.33 51.22C40.55 51.22 40.69 51.14 40.77 50.93C40.88 50.69 41.01 50.47 41.16 50.18C41.33 50.39 41.46 50.56 41.6 50.72C41.73 50.87 41.76 51.02 41.65 51.2C41.51 51.42 41.39 51.65 41.3 51.88C41.23 52.08 41.16 52.3 41.18 52.51C41.26 53.68 41.38 54.86 41.48 56.03C41.49 56.09 41.51 56.16 41.54 56.26C42.17 56.09 42.78 55.92 43.38 55.73C43.43 55.73 43.48 55.59 43.48 55.51C43.41 54.57 43.33 53.64 43.24 52.7C43.2 52.35 43.22 52 42.95 51.69C42.48 51.12 42.06 50.51 41.62 49.92C41.49 49.75 41.46 49.58 41.59 49.39C41.77 49.13 42.11 49.12 42.33 49.39C42.66 49.81 42.98 50.24 43.29 50.68C43.42 50.86 43.57 50.93 43.78 50.9C44.07 50.86 44.36 50.85 44.64 50.79C44.75 50.77 44.88 50.68 44.93 50.58C45.19 50.11 45.42 49.63 45.67 49.15C45.83 48.83 46.09 48.73 46.35 48.86C46.61 48.98 46.69 49.22 46.53 49.55C46.28 50.06 46 50.55 45.76 51.05C45.59 51.4 45.34 51.72 45.39 52.15C45.47 52.92 45.52 53.69 45.59 54.46C45.6 54.58 45.63 54.7 45.65 54.89C46.27 54.56 46.85 54.27 47.41 53.95C47.47 53.92 47.51 53.79 47.5 53.71C47.48 53.34 47.44 52.97 47.41 52.6C47.36 52.04 47.32 51.49 46.9 51.02C46.4 50.46 46.45 50.63 46.8 49.93C46.82 49.9 46.84 49.87 46.85 49.84C46.93 49.69 47.03 49.67 47.14 49.8C47.25 49.93 47.36 50.06 47.45 50.2C47.6 50.44 47.81 50.53 48.1 50.49C48.33 50.45 48.57 50.46 48.81 50.42C48.91 50.4 49.04 50.32 49.09 50.23C49.32 49.82 49.53 49.39 49.74 48.97C49.82 48.83 49.88 48.68 49.98 48.56C50.2 48.31 50.47 48.33 50.68 48.58C50.83 48.76 50.82 48.95 50.72 49.15C50.51 49.56 50.3 49.97 50.1 50.4C49.93 50.78 49.76 51.17 49.64 51.56C49.59 51.73 49.67 51.94 49.69 52.13C49.69 52.21 49.73 52.29 49.75 52.36C49.83 52.34 49.92 52.34 49.98 52.29C50.41 51.96 50.84 51.64 51.24 51.28C51.8 50.77 52.31 50.2 52.88 49.69C53.56 49.07 54.07 48.31 54.61 47.57C54.75 47.39 54.75 47.27 54.51 47.15ZM39.86 50.98C39.4 50.99 38.99 50.58 38.98 50.11C38.98 49.65 39.38 49.23 39.85 49.22C40.32 49.22 40.74 49.63 40.74 50.11C40.74 50.59 40.33 50.98 39.86 50.98ZM44.06 50.61C43.57 50.61 43.19 50.21 43.19 49.72C43.19 49.23 43.58 48.84 44.05 48.84C44.55 48.84 44.97 49.25 44.97 49.74C44.96 50.2 44.53 50.62 44.06 50.61ZM48.28 50.25C47.78 50.26 47.32 49.84 47.32 49.36C47.32 48.88 47.79 48.42 48.32 48.4C48.7 48.4 49.17 48.9 49.18 49.33C49.18 49.82 48.77 50.24 48.28 50.25Z" fill="#F47A28"/>
<path d="M57.92 27.57C57.79 27.61 57.68 27.66 57.57 27.69C54.47 28.71 51.39 29.72 48.3 30.74L46.51 31.38C46.41 30.87 45.81 29.79 45.81 29.79L46.23 28.48L46.55 28.06L46.67 27.9C46.75 27.86 46.86 27.87 46.95 27.88C47.53 27.96 48.11 27.93 48.66 27.72C49.97 27.22 50.72 26.25 50.94 24.89C51.1 23.88 50.89 22.91 50.46 21.99C50.43 21.94 50.4 21.89 50.33 21.79C49.51 22.53 48.42 22.63 47.51 23.12C46.58 23.61 45.84 24.29 45.58 25.36C45.4 26.05 45.5 26.74 45.78 27.39C45.79 27.42 45.81 27.46 45.83 27.49C45.83 27.51 45.87 27.52 45.88 27.54C45.91 27.53 45.93 27.54 45.94 27.53C46.4 27.14 46.86 26.75 47.33 26.37C48.03 25.82 48.64 25.17 49.17 24.44C49.17 24.47 49.15 24.51 49.14 24.54C48.66 25.39 48.06 26.15 47.25 26.71C46.74 27.08 46.23 27.44 46.01 28.13L45.52 29.28C45.52 29.28 43.56 26 41.52 25.23L43.21 22.25C44.36 20.01 45.52 17.77 46.68 15.54C46.7 15.48 46.74 15.43 46.79 15.36C48.97 16.38 50.89 17.75 52.59 19.43C54.94 21.75 56.71 24.46 57.92 27.57Z" fill="url(#paint0_linear_2256_1553)"/>
<path d="M46 15.31C45.07 17.3 44.16 19.25 43.23 21.23C43.03 21.07 42.84 20.92 42.67 20.77C42.22 20.37 41.7801 19.95 41.3101 19.56C41.1701 19.44 40.9501 19.35 40.7701 19.33C40.1301 19.29 39.49 19.29 38.85 19.28C38.51 19.28 38.2601 19.52 38.2401 19.85C38.2301 20.17 38.44 20.4 38.8 20.42C39.15 20.44 39.5 20.44 39.85 20.45C39.93 20.45 40.01 20.5 40.1 20.53C40.1 20.56 40.1001 20.59 40.0801 20.63C39.8301 20.63 39.58 20.6 39.3401 20.63C38.6901 20.71 38.2401 20.43 37.8601 19.94C37.5201 19.51 37.1201 19.12 36.7401 18.72C36.5301 18.51 36.28 18.49 36.07 18.63C35.83 18.78 35.73 19.02 35.82 19.26C35.85 19.35 35.9101 19.43 35.9701 19.5C36.6601 20.23 37.35 20.98 38.07 21.69C38.24 21.85 38.5101 21.98 38.7401 21.99C39.5001 22.04 40.27 22.05 41.03 22.04C41.31 22.04 41.52 22.12 41.69 22.34C41.93 22.65 42.1901 22.95 42.43 23.27C42.46 23.31 42.4701 23.4 42.4501 23.45C42.1701 23.98 41.88 24.5 41.6 25.03C41.51 25.21 41.4 25.11 41.3 25.05C40.18 24.46 39.0001 24.01 37.7501 23.77C36.12 23.45 34.5101 23.54 32.9001 23.94C32.8401 23.95 32.7801 23.96 32.7001 23.98C32.6401 23.42 32.58 22.89 32.53 22.35C32.45 21.61 32.3601 20.87 32.2901 20.12C32.2701 19.95 32.29 19.75 32.37 19.59C32.95 18.16 33.55 16.73 34.14 15.3C34.41 14.64 34.39 14.34 34.03 13.69C36.07 13.55 38.0901 13.58 40.1101 13.86C42.1201 14.13 44.08 14.56 46.0201 15.3H46V15.31ZM39.1501 15.72C39.1101 15.66 39.0801 15.62 39.0401 15.58C38.4601 14.99 37.6 15.13 37.28 15.9C37.06 16.43 37.17 16.93 37.55 17.32C38.02 17.8 38.5501 18.23 39.0601 18.67C39.1001 18.71 39.25 18.69 39.3 18.65C39.74 18.28 40.2 17.91 40.6 17.5C40.82 17.28 41 16.98 41.1 16.68C41.27 16.17 41.01 15.6 40.55 15.35C40.09 15.1 39.6401 15.19 39.2401 15.64C39.2201 15.66 39.2 15.67 39.14 15.72H39.1501Z" fill="#CF323F"/>
<path d="M33.66 14.3L32.85 13.14C32.85 13.14 32.83 12.83 32.21 12.77C31.59 12.71 25.33 13.36 21.65 14.55L21.21 16.18C21.21 16.18 27.1 14.36 30.58 14.66C30.58 14.66 24.4 15.47 21.11 16.98C21.13 17.02 21.16 17.06 21.18 17.1L22.23 18.57C22.23 18.57 22.25 18.6 22.26 18.61C22.28 18.64 22.31 18.68 22.34 18.73L22.37 18.77C22.37 18.77 22.37 18.77 22.4 18.8C22.42 18.83 22.45 18.86 22.47 18.89C22.52 18.94 22.54 19 22.58 19.06L22.7 19.23L22.72 19.25C22.76 19.3 22.81 19.36 22.85 19.42C22.85 19.42 22.85 19.43 22.86 19.44V19.46L23.46 20.29C23.46 20.29 23.57 20.57 24.11 20.52C24.11 20.52 27.42 19.43 30.41 19.66C30.41 19.66 25.77 20.12 24.6 21.41C24.6 21.41 24.52 21.51 24.65 21.53C24.78 21.55 31.59 19.87 31.59 19.87C31.59 19.87 31.9 19.64 31.93 19.53C31.96 19.42 33.82 14.91 33.82 14.91C33.82 14.91 33.84 14.78 33.65 14.3H33.66Z" fill="#1C3F6C"/>
<path d="M33.22 31.03L31.76 20.17L24.62 21.73L31.5 45.2C31.66 45.7 31.81 46.2 31.97 46.7C32.15 47.25 32.33 47.79 32.48 48.35C32.54 48.57 32.6 48.79 32.67 49C32.67 49.02 32.71 49.14 32.72 49.19C32.72 49.19 32.72 49.19 32.72 49.16C32.73 49.19 32.75 49.22 32.77 49.25C32.82 49.59 32.8 49.55 32.9 49.96L33.45 51.82L35.99 51.5L33.23 31.03H33.22Z" fill="#1C3F6C"/>
<path d="M23.8 13.38C23.8 13.38 24.1501 6.64002 35.18 8.17002C35.18 8.17002 31.14 8.87002 30.91 12.31C30.91 12.31 24.92 13.05 23.8 13.38Z" fill="url(#paint1_linear_2256_1553)" stroke="url(#paint2_linear_2256_1553)" stroke-width="0.25" stroke-miterlimit="10"/>
<path d="M22.98 13.64C22.98 13.64 23.23 9.60003 27.47 8.13003C27.47 8.13003 29.69 7.32003 32.58 7.31003C35.47 7.31003 37.82 8.11003 40.9 6.73003C43.98 5.35003 43.47 2.42003 43.36 2.03003C43.36 2.03003 42.86 4.84003 37.8 5.33003C32.74 5.82003 34.29 5.24003 30.16 6.08003C26.03 6.92003 22.61 9.33003 22.97 13.63H22.98V13.64Z" fill="url(#paint3_linear_2256_1553)" stroke="url(#paint4_linear_2256_1553)" stroke-width="0.25" stroke-miterlimit="10"/>
<path d="M35.61 4.86C35.61 4.86 37.03 4.42 38.11 3.20001C39.19 1.98001 39.49 1.39 40.68 0.970005C41.87 0.550005 43.09 0.130005 44.38 0.130005C44.38 0.130005 43.31 0.460005 42.18 2.11C42.18 2.11 41.33 3.9 38.94 4.41L35.61 4.86Z" fill="url(#paint5_linear_2256_1553)" stroke="url(#paint6_linear_2256_1553)" stroke-width="0.25" stroke-miterlimit="10"/>
<path d="M58.4701 32.79C58.3501 31.4 58.1001 30.03 57.6001 28.71C57.5301 28.53 57.4601 28.49 57.2701 28.54C54.6701 29.3 52.0601 30.05 49.4501 30.81V30.77L46.5701 31.61C46.5701 31.61 48.6501 37.27 44.8101 42L47.3601 43.11C48.5301 43.62 49.6901 44.15 50.8601 44.66C52.2501 45.28 53.6501 45.89 55.0501 46.52C55.2101 46.59 55.3001 46.57 55.4001 46.42C55.5101 46.24 55.6501 46.06 55.7701 45.88C57.0001 43.98 57.7601 41.9 58.2101 39.69C58.5201 38.2 58.6401 36.69 58.6101 34.91C58.5801 34.37 58.5401 33.58 58.4701 32.79ZM55.5801 38.55C54.8601 39.31 54.0701 40.01 53.3101 40.74C53.1701 40.87 53.0101 40.88 52.8601 40.74C52.1401 40.08 51.4001 39.43 50.6901 38.75C50.2901 38.35 50.0101 37.86 49.9101 37.28C49.7801 36.48 50.0001 35.8 50.6701 35.34C51.3501 34.86 52.1001 34.84 52.8201 35.28C53.0301 35.42 53.1701 35.4 53.3801 35.28C54.0201 34.9 54.6901 34.88 55.3501 35.25C55.9801 35.61 56.2601 36.18 56.2801 36.82C56.2801 37.54 56.0101 38.11 55.5801 38.56V38.55Z" fill="#1376A3"/>
</g>
<defs>
<linearGradient id="paint0_linear_2256_1553" x1="43.22" y1="21.22" x2="56.78" y2="29.44" gradientUnits="userSpaceOnUse">
<stop stop-color="#309D48"/>
<stop offset="0.46" stop-color="#2D8F43"/>
<stop offset="0.88" stop-color="#2C8942"/>
</linearGradient>
<linearGradient id="paint1_linear_2256_1553" x1="24.13" y1="11.87" x2="35.11" y2="8.88002" gradientUnits="userSpaceOnUse">
<stop stop-color="#C62127"/>
<stop offset="0.1" stop-color="#CB2127"/>
<stop offset="0.28" stop-color="#CF2228"/>
<stop offset="0.49" stop-color="#F68920"/>
<stop offset="0.89" stop-color="#F89E1E"/>
<stop offset="1" stop-color="#FFC515"/>
</linearGradient>
<linearGradient id="paint2_linear_2256_1553" x1="23.67" y1="10.68" x2="35.9901" y2="10.68" gradientUnits="userSpaceOnUse">
<stop stop-color="#F26524"/>
<stop offset="0.04" stop-color="#EC652F"/>
<stop offset="0.11" stop-color="#E36741"/>
<stop offset="0.19" stop-color="#DD684D"/>
<stop offset="0.28" stop-color="#DC6951"/>
<stop offset="0.67" stop-color="#F5BF18"/>
<stop offset="0.89" stop-color="#F5C222"/>
<stop offset="1" stop-color="#F9D54C"/>
</linearGradient>
<linearGradient id="paint3_linear_2256_1553" x1="23.48" y1="10.47" x2="43.68" y2="4.97003" gradientUnits="userSpaceOnUse">
<stop stop-color="#C62127"/>
<stop offset="0.1" stop-color="#CB2127"/>
<stop offset="0.28" stop-color="#CF2228"/>
<stop offset="0.49" stop-color="#F68920"/>
<stop offset="0.89" stop-color="#F89E1E"/>
<stop offset="1" stop-color="#FFC515"/>
</linearGradient>
<linearGradient id="paint4_linear_2256_1553" x1="22.82" y1="7.69003" x2="43.58" y2="7.69003" gradientUnits="userSpaceOnUse">
<stop stop-color="#F26524"/>
<stop offset="0.04" stop-color="#EC652F"/>
<stop offset="0.11" stop-color="#E36741"/>
<stop offset="0.19" stop-color="#DD684D"/>
<stop offset="0.28" stop-color="#DC6951"/>
<stop offset="0.67" stop-color="#F5BF18"/>
<stop offset="0.89" stop-color="#F5C222"/>
<stop offset="1" stop-color="#F9D54C"/>
</linearGradient>
<linearGradient id="paint5_linear_2256_1553" x1="35.88" y1="3.72" x2="44.51" y2="1.37" gradientUnits="userSpaceOnUse">
<stop stop-color="#C62127"/>
<stop offset="0.1" stop-color="#CB2127"/>
<stop offset="0.28" stop-color="#CF2228"/>
<stop offset="0.49" stop-color="#F68920"/>
<stop offset="0.89" stop-color="#F89E1E"/>
<stop offset="1" stop-color="#FFC515"/>
</linearGradient>
<linearGradient id="paint6_linear_2256_1553" x1="35.57" y1="2.49" x2="45.21" y2="2.49" gradientUnits="userSpaceOnUse">
<stop stop-color="#F26524"/>
<stop offset="0.04" stop-color="#EC652F"/>
<stop offset="0.11" stop-color="#E36741"/>
<stop offset="0.19" stop-color="#DD684D"/>
<stop offset="0.28" stop-color="#DC6951"/>
<stop offset="0.67" stop-color="#F5BF18"/>
<stop offset="0.89" stop-color="#F5C222"/>
<stop offset="1" stop-color="#F9D54C"/>
</linearGradient>
</defs>
</svg>
