<svg width="160" height="150" viewBox="0 0 160 150" fill="none" xmlns="http://www.w3.org/2000/svg">
<g clip-path="url(#clip0_46_260)">
<path d="M159.009 0H0.0390015V150H159.009V0Z" fill="#E6ECFF"/>
<path d="M99.138 82.2449C95.814 95.2859 133.815 107.073 159.009 113.382V149.997H0.0390015V90.1049C40.236 48.8759 120.576 38.3429 159.009 35.6489V51.9599C131.235 56.1359 103.047 66.9149 99.138 82.2449Z" fill="#D4DEFF"/>
<path d="M159.009 42.1711C155.058 42.5131 151.122 43.0081 147.198 43.5781C143.274 44.1511 139.365 44.8141 135.474 45.5701C127.692 47.0821 119.982 48.9601 112.431 51.3421C108.66 52.5361 104.925 53.8501 101.262 55.3411C97.599 56.8171 94.011 58.4851 90.534 60.3451C87.075 62.2261 83.715 64.3051 80.604 66.6991C80.214 66.9931 79.821 67.2931 79.449 67.6081L78.315 68.5381C77.58 69.1861 76.836 69.8221 76.14 70.5091C75.417 71.1691 74.757 71.8891 74.079 72.5911L73.11 73.6861L72.867 73.9591L72.636 74.2441L72.18 74.8111C69.735 77.8381 67.794 81.2521 66.546 84.9031C65.943 86.7361 65.484 88.6111 65.235 90.5281C65.199 90.7681 65.154 91.0051 65.127 91.2451L65.07 91.9651L64.95 93.4081C64.926 93.8881 64.935 94.3711 64.926 94.8541L64.917 95.5771C64.917 95.6971 64.911 95.8201 64.917 95.9371L64.941 96.2971C65.01 97.2571 65.028 98.2261 65.187 99.1801C65.256 99.6571 65.307 100.137 65.385 100.611L65.67 102.03L65.811 102.738C65.865 102.972 65.934 103.206 65.994 103.44L66.369 104.838C66.498 105.303 66.669 105.756 66.819 106.215L67.05 106.905L67.167 107.247L67.302 107.583C68.682 111.201 70.548 114.633 72.72 117.864C74.919 121.08 77.412 124.101 80.088 126.951C82.767 129.801 85.638 132.483 88.635 135.012C91.632 137.544 94.749 139.944 97.95 142.224C101.154 144.501 104.448 146.658 107.799 148.719L109.089 149.511L108.78 150.003H104.208C101.52 148.248 98.877 146.427 96.285 144.525C93.066 142.152 89.925 139.656 86.907 137.022C83.886 134.388 80.991 131.598 78.285 128.625C75.576 125.649 73.056 122.496 70.83 119.121C68.631 115.737 66.738 112.125 65.349 108.303L65.214 107.946L65.097 107.583L64.866 106.857C64.716 106.374 64.545 105.894 64.416 105.402L64.044 103.92C63.984 103.674 63.915 103.428 63.861 103.179L63.723 102.426L63.444 100.926C63.372 100.422 63.324 99.9151 63.261 99.4081C63.111 98.4001 63.105 97.3771 63.051 96.3601L63.033 95.9791C63.033 95.8501 63.039 95.7241 63.039 95.5951L63.06 94.8301C63.078 94.3201 63.075 93.8101 63.111 93.3031L63.261 91.7821L63.336 91.0231C63.366 90.7711 63.42 90.5221 63.459 90.2701C63.756 88.2601 64.272 86.2741 64.944 84.3511C66.324 80.5141 68.424 76.9651 71.01 73.8631L71.493 73.2811L71.736 72.9901L71.991 72.7111L73.014 71.5921C73.725 70.8811 74.421 70.1491 75.171 69.4801C75.9 68.7871 76.674 68.1451 77.439 67.4911L78.618 66.5551C79.008 66.2401 79.41 65.9431 79.815 65.6461C83.031 63.2491 86.478 61.1971 90.012 59.3461C93.561 57.5221 97.206 55.8961 100.92 54.4651C104.631 53.0221 108.408 51.7591 112.215 50.6221C119.835 48.3541 127.596 46.5961 135.408 45.2011C139.317 44.5081 143.241 43.9051 147.177 43.3951C151.11 42.8911 155.058 42.4531 159.015 42.1771L159.009 42.1711Z" fill="white"/>
<path d="M159.009 37.821C154.737 38.121 150.474 38.544 146.217 39.021C141.963 39.501 137.715 40.044 133.479 40.662C125.007 41.889 116.574 43.386 108.213 45.195C99.855 47.019 91.566 49.17 83.442 51.807C75.324 54.447 67.353 57.591 59.847 61.593C56.091 63.585 52.485 65.841 49.107 68.385L48.474 68.862L47.859 69.36L46.629 70.353L45.444 71.397L44.85 71.919L44.28 72.468L43.146 73.563L42.069 74.712C41.889 74.904 41.703 75.087 41.535 75.288L41.028 75.8881C40.695 76.293 40.338 76.677 40.023 77.094C38.727 78.735 37.59 80.487 36.585 82.305C35.625 84.147 34.845 86.07 34.251 88.047C33.702 90.018 33.402 92.136 33.021 94.206C32.886 95.253 32.772 96.303 32.646 97.35L32.553 98.136L32.508 98.529L32.484 98.925L32.388 100.506C32.208 102.609 32.241 104.724 32.22 106.83L32.355 109.995L32.388 110.784L32.46 111.57L32.607 113.148L32.751 114.726L32.967 116.292L33.183 117.861L33.291 118.644L33.435 119.424L34.011 122.538L34.713 125.628C36.726 133.836 39.771 141.786 43.596 149.331L43.938 150.006H40.563C36.912 142.422 34.026 134.454 32.139 126.234L31.464 123.048L30.915 119.838L30.78 119.037L30.678 118.227L30.48 116.61L30.282 114.996L30.156 113.37L30.033 111.744L29.973 110.931L29.949 110.115L29.859 106.857C29.913 104.685 29.913 102.513 30.126 100.347L30.249 98.721L30.282 98.316L30.336 97.911L30.441 97.104C30.588 96.03 30.72 94.9501 30.879 93.876C31.299 91.74 31.629 89.613 32.259 87.462C32.925 85.344 33.795 83.304 34.845 81.36C35.937 79.443 37.167 77.61 38.553 75.912C38.892 75.477 39.267 75.081 39.621 74.664L40.161 74.046C40.344 73.842 40.539 73.653 40.725 73.452L41.865 72.276L43.059 71.157L43.656 70.599L44.277 70.068L45.519 69.009L46.8 68.004L47.442 67.503L48.099 67.023C51.6 64.464 55.314 62.22 59.154 60.255C66.831 56.307 74.907 53.262 83.112 50.727C91.32 48.195 99.669 46.161 108.069 44.46C116.478 42.765 124.944 41.391 133.44 40.29C137.688 39.738 141.945 39.252 146.211 38.838C150.474 38.427 154.743 38.067 159.018 37.83L159.009 37.821Z" fill="white"/>
<path d="M159.009 134.499L158.619 134.391C151.644 132.459 144.741 130.278 137.937 127.794C131.139 125.307 124.437 122.517 117.966 119.226C114.735 117.57 111.558 115.797 108.492 113.826C105.432 111.852 102.474 109.695 99.744 107.244C97.026 104.79 94.521 102.036 92.592 98.8531C91.629 97.2661 90.84 95.5591 90.276 93.7771C89.712 91.9921 89.376 90.1261 89.349 88.2511C89.349 87.7831 89.337 87.3151 89.373 86.8471L89.415 86.1451L89.499 85.4551L89.583 84.7651C89.61 84.5341 89.664 84.3091 89.703 84.0811C89.793 83.6251 89.859 83.1661 89.985 82.7191C90.411 80.9131 91.056 79.1611 91.878 77.5081C93.534 74.1931 95.895 71.3071 98.565 68.8201C101.235 66.3241 104.235 64.2331 107.355 62.3941C108.918 61.4701 110.523 60.6271 112.143 59.8291C113.772 59.0341 115.419 58.2871 117.087 57.5971C123.765 54.8221 130.704 52.7671 137.718 51.1171C141.228 50.2981 144.762 49.5871 148.311 48.9781C151.86 48.3721 155.424 47.8471 159.006 47.4871C155.43 47.9101 151.878 48.4951 148.341 49.1641C144.807 49.8361 141.291 50.6071 137.805 51.4861C130.839 53.2561 123.96 55.4251 117.384 58.2931C115.74 59.0041 114.12 59.7751 112.527 60.5881C110.931 61.4041 109.362 62.2651 107.841 63.2011C104.799 65.0671 101.895 67.1731 99.342 69.6421C96.792 72.0991 94.578 74.9191 93.066 78.0841C92.313 79.6651 91.74 81.3271 91.365 83.0311C91.254 83.4511 91.2 83.8861 91.122 84.3151C91.089 84.5311 91.041 84.7441 91.02 84.9601L90.954 85.6111L90.885 86.2591L90.858 86.9071C90.831 87.3391 90.849 87.7711 90.858 88.2001C90.912 89.9251 91.248 91.6351 91.8 93.2731C92.352 94.9111 93.108 96.4831 94.041 97.9561C95.901 100.908 98.331 103.503 100.992 105.819C103.662 108.135 106.575 110.184 109.596 112.056C112.62 113.928 115.767 115.614 118.974 117.183C125.394 120.309 132.057 122.949 138.819 125.289C145.461 127.584 152.202 129.588 159.003 131.355V134.49L159.009 134.499Z" fill="white"/>
<path d="M159.039 13.0289H148.245V20.7539H145.23V9.44092H129.879V20.7539H126.975V14.7629H116.652V20.7539H112.074V11.1629H102.804V20.7539H99.651V11.1629H89.325V20.7539H83.367V15.2519H64.935V20.7539H61.551V12.2279H52.479V20.7539H50.103V14.0999H43.335V20.7539H38.871V17.4119H25.983V20.7539H22.743V13.4549H15.831V20.7539H12.447V18.8189H0.039V20.7539H0V33.2159H159.009V26.9849H159.039V13.0289Z" fill="#D4DEFF"/>
<path d="M145.26 95.5171C143.778 95.5171 142.575 96.7201 142.575 98.2021H147.945C147.945 96.7201 146.742 95.5171 145.26 95.5171Z" fill="#D4DEFF"/>
<path d="M148.515 94.9441C146.715 94.9441 145.257 96.4021 145.257 98.2021H151.77C151.77 96.4021 150.312 94.9441 148.512 94.9441H148.515Z" fill="#D4DEFF"/>
<path d="M90.423 36.363C89.775 36.363 89.253 36.888 89.253 37.533H91.596C91.596 36.885 91.071 36.363 90.426 36.363H90.423Z" fill="#D4DEFF"/>
<path d="M91.845 36.114C91.059 36.114 90.423 36.75 90.423 37.536H93.264C93.264 36.75 92.628 36.114 91.842 36.114H91.845Z" fill="#D4DEFF"/>
<path d="M139.05 85.0742C137.898 85.0742 136.965 86.0072 136.965 87.1592H141.132C141.132 86.0072 140.199 85.0742 139.047 85.0742H139.05Z" fill="#D4DEFF"/>
<path d="M141.576 84.6301C140.181 84.6301 139.05 85.7611 139.05 87.1561H144.105C144.105 85.7611 142.974 84.6301 141.579 84.6301H141.576Z" fill="#D4DEFF"/>
<path d="M146.457 70.4492C145.305 70.4492 144.372 71.3822 144.372 72.5342H148.539C148.539 71.3822 147.606 70.4492 146.454 70.4492H146.457Z" fill="#D4DEFF"/>
<path d="M148.986 70.0051C147.591 70.0051 146.46 71.1361 146.46 72.5311H151.515C151.515 71.1361 150.384 70.0051 148.989 70.0051H148.986Z" fill="#D4DEFF"/>
<path d="M9.714 66.6721C8.562 66.6721 7.629 67.6051 7.629 68.7571H11.796C11.796 67.6051 10.863 66.6721 9.711 66.6721H9.714Z" fill="#D4DEFF"/>
<path d="M12.24 66.228C10.845 66.228 9.714 67.359 9.714 68.754H14.769C14.769 67.359 13.638 66.228 12.243 66.228H12.24Z" fill="#D4DEFF"/>
<path d="M71.178 43.4431C70.026 43.4431 69.09 44.3791 69.09 45.5311H73.266C73.266 44.3791 72.33 43.4431 71.178 43.4431Z" fill="#D4DEFF"/>
<path d="M73.713 42.9961C72.315 42.9961 71.181 44.1301 71.181 45.5281H76.245C76.245 44.1301 75.111 42.9961 73.713 42.9961Z" fill="#D4DEFF"/>
</g>
<defs>
<clipPath id="clip0_46_260">
<rect width="159.039" height="150" fill="white"/>
</clipPath>
</defs>
</svg>
