<svg id="Group_250" data-name="Group 250" xmlns="http://www.w3.org/2000/svg" xmlns:xlink="http://www.w3.org/1999/xlink" width="61.18" height="61.199" viewBox="0 0 61.18 61.199">
  <defs>
    <clipPath id="clip-path">
      <rect id="Rectangle_12" data-name="Rectangle 12" width="61.181" height="61.199" fill="none"/>
    </clipPath>
    <clipPath id="clip-path-3">
      <rect id="Rectangle_10" data-name="Rectangle 10" width="55.008" height="55.028" fill="none"/>
    </clipPath>
  </defs>
  <g id="Group_10" data-name="Group 10" transform="translate(0 0)" clip-path="url(#clip-path)">
    <g id="Group_9" data-name="Group 9">
      <g id="Group_8" data-name="Group 8" clip-path="url(#clip-path)">
        <path id="Path_21" data-name="Path 21" d="M28.772,61.2c-.9-.117-1.809-.225-2.711-.352A30.3,30.3,0,0,1,.715,37.113c-2.281-11.389.923-21.185,9.331-29.163A28.768,28.768,0,0,1,27.089.2,30.453,30.453,0,0,1,59.4,20.4a29.291,29.291,0,0,1,1.676,8.344c.018.335.072.669.11,1v1.794c-.034.253-.069.506-.1.76-.209,1.6-.319,3.213-.643,4.786A30.44,30.44,0,0,1,35.069,60.848c-.9.127-1.806.235-2.709.352ZM30.618,3.086A27.514,27.514,0,1,0,58.134,30.607,27.612,27.612,0,0,0,30.618,3.086" transform="translate(0 0)"/>
        <g id="Group_7" data-name="Group 7" transform="translate(3.125 3.085)" opacity="0.47">
          <g id="Group_6" data-name="Group 6">
            <g id="Group_5" data-name="Group 5" clip-path="url(#clip-path-3)">
              <path id="Path_22" data-name="Path 22" d="M43.682,15.984A27.514,27.514,0,1,1,16.19,43.524a27.618,27.618,0,0,1,27.492-27.54M37.488,57.61a14.887,14.887,0,0,0,2.075-.866q8.66-4.95,17.284-9.963a4.8,4.8,0,0,0,.747-.493,3.15,3.15,0,0,0,1.249-3.1,4.25,4.25,0,0,0-2.165-2.942C50.835,36.83,44.966,33.457,39.1,30.074a3.489,3.489,0,0,0-2.288-.515,3.579,3.579,0,0,0-3.161,3.73q-.007,10.165,0,20.331c0,.278.022.557.048.835a3.643,3.643,0,0,0,3.787,3.155" transform="translate(-16.19 -15.984)" fill="#fff"/>
            </g>
          </g>
        </g>
        <path id="Path_23" data-name="Path 23" d="M110.483,114.222a3.643,3.643,0,0,1-3.787-3.155c-.026-.277-.047-.557-.047-.835q0-10.166,0-20.331a3.579,3.579,0,0,1,3.161-3.73,3.49,3.49,0,0,1,2.287.515c5.864,3.383,11.733,6.756,17.577,10.174a4.249,4.249,0,0,1,2.165,2.942,3.151,3.151,0,0,1-1.249,3.1,4.8,4.8,0,0,1-.747.492q-8.637,4.991-17.285,9.963a14.87,14.87,0,0,1-2.075.866m-.7-14.154q0,5.083,0,10.167c0,.783.319.969,1.007.611.106-.055.207-.12.31-.18q8.535-4.931,17.069-9.863a2.14,2.14,0,0,0,.492-.332c.273-.287.329-.594-.052-.851-.165-.111-.339-.209-.511-.308l-17.235-9.93c-.776-.447-1.081-.269-1.082.639q0,5.024,0,10.047" transform="translate(-86.059 -69.51)"/>
      </g>
    </g>
  </g>
</svg>
