<svg id="Group_259" data-name="Group 259" xmlns="http://www.w3.org/2000/svg" xmlns:xlink="http://www.w3.org/1999/xlink" width="38.53" height="53.188" viewBox="0 0 38.53 53.188">
  <defs>
    <clipPath id="clip-path">
      <rect id="Rectangle_87" data-name="Rectangle 87" width="38.53" height="53.188" fill="#fff"/>
    </clipPath>
  </defs>
  <g id="Group_258" data-name="Group 258" clip-path="url(#clip-path)">
    <path id="Path_870" data-name="Path 870" d="M7.348,173.024c0-.8.023-1.529-.013-2.251a1.445,1.445,0,0,0-.286-.66C4.832,166.774,2.6,163.445.4,160.1a2.533,2.533,0,0,1-.367-1.215c-.051-1.029-.021-2.062-.015-3.094,0-.681.347-1.09.9-1.1s.915.4.931,1.07c0,.057,0,.115,0,.172A11.406,11.406,0,0,0,1.939,159a10.745,10.745,0,0,0,1.615,2.548c1.746,2.621,3.506,5.234,5.227,7.872a2.805,2.805,0,0,1,.385,1.268c.061.754.017,1.517.017,2.306H18.3a2.814,2.814,0,0,0,.047-.367c0-2.273.032-4.547-.023-6.819a2.241,2.241,0,0,0-.538-1.383c-1.875-1.959-3.807-3.864-5.728-5.779a.927.927,0,0,0-1.375-.087.952.952,0,0,0,.06,1.381c.089.1.188.19.283.285q1.809,1.8,3.617,3.6A3.065,3.065,0,0,1,15,164.2a.875.875,0,0,1-.06,1.2.85.85,0,0,1-1.235.052c-.443-.391-.853-.821-1.272-1.239Q8.317,160.1,4.2,155.991a1.627,1.627,0,0,1-.527-1.264c.022-2.12.017-4.24.006-6.361a2.656,2.656,0,0,0-1.831-2.628c0,.776,0,1.528,0,2.281,0,.728-.335,1.147-.9,1.156s-.926-.414-.929-1.129c0-1.089-.007-2.178,0-3.266.005-.794.383-1.135,1.188-1.094a4.6,4.6,0,0,1,4.305,4.533c.027,2.005-.006,4.012.022,6.017a1.276,1.276,0,0,0,.322.787c.955,1.01,1.945,1.987,2.821,2.873a9.316,9.316,0,0,1,1.742-1.241,2.624,2.624,0,0,1,2.982.719c1.952,1.938,3.907,3.872,5.893,5.838.086-.079.213-.185.33-.3q2.7-2.693,5.391-5.387c1.555-1.551,3.295-1.414,4.611.358.02.027.063.038.133.078,1.043-1.041,2.1-2.082,3.135-3.148a.923.923,0,0,0,.132-.582c.009-1.967,0-3.935.008-5.9a4.573,4.573,0,0,1,3.962-4.608c1.116-.178,1.536.173,1.536,1.289,0,4.623.011,9.245-.014,13.868a2.359,2.359,0,0,1-.366,1.216q-3.19,4.859-6.446,9.674a2.55,2.55,0,0,0-.517,1.749c.045.471.009.951.009,1.512.323,0,.621-.015.916,0a.912.912,0,1,1,0,1.825c-.152.012-.306,0-.458,0H6.664c-.724-.008-1.143-.343-1.145-.915s.416-.911,1.139-.919c.207,0,.414,0,.69,0m29.346-27.288a2.6,2.6,0,0,0-1.829,2.563c-.013,2.14-.017,4.28,0,6.419a1.625,1.625,0,0,1-.528,1.262q-4.594,4.565-9.165,9.153a2.732,2.732,0,0,1-.47.416.834.834,0,0,1-1.1-.13.849.849,0,0,1-.145-1.1,2.168,2.168,0,0,1,.376-.429q1.942-1.948,3.89-3.891a.953.953,0,0,0,.262-1.233.925.925,0,0,0-1.547-.073c-1.9,1.886-3.807,3.759-5.657,5.69a2.32,2.32,0,0,0-.572,1.425c-.059,2.272-.027,4.546-.024,6.82a2.783,2.783,0,0,0,.047.366h9.122c0-.751.027-1.474-.009-2.193a2.344,2.344,0,0,1,.455-1.49q3.324-4.942,6.605-9.913a1.737,1.737,0,0,0,.272-.892c.022-2.254.012-4.509.012-6.763Z" transform="translate(0 -121.673)" fill="#fff"/>
    <path id="Path_871" data-name="Path 871" d="M73.551,57.68a10.121,10.121,0,0,1,5.774,5.474,9.747,9.747,0,0,1,.831,3.834.928.928,0,0,1-1.039,1.073q-9.026.008-18.053,0c-.742,0-1.075-.357-1.073-1.1a10.131,10.131,0,0,1,6.115-9.077l.514-.218a5.529,5.529,0,0,1-2.027-4.75,5.3,5.3,0,0,1,1.826-3.646,5.514,5.514,0,1,1,7.132,8.407m-11.627,8.5h16.3a8.2,8.2,0,0,0-16.3,0m11.817-12.8a3.667,3.667,0,1,0-3.679,3.672,3.673,3.673,0,0,0,3.679-3.672" transform="translate(-50.804 -40.556)" fill="#fff"/>
    <path id="Path_872" data-name="Path 872" d="M121.628,1.857c0,.306.019.612,0,.916a.911.911,0,0,1-.937.885.9.9,0,0,1-.878-.885c-.026-.629-.026-1.261,0-1.889A.894.894,0,0,1,120.686,0a.907.907,0,0,1,.938.883c.023.323,0,.649,0,.973" transform="translate(-101.444 0)" fill="#fff"/>
    <path id="Path_873" data-name="Path 873" d="M180.26,40.087a2.031,2.031,0,0,1-.444.571,14.987,14.987,0,0,1-1.577.926.9.9,0,0,1-1.277-.356A.886.886,0,0,1,177.345,40c.518-.321,1.043-.636,1.588-.908.642-.32,1.346.127,1.328.994" transform="translate(-149.766 -33.019)" fill="#fff"/>
    <path id="Path_874" data-name="Path 874" d="M43.9,79.577c-.325,0-.651.022-.973-.005a.912.912,0,0,1-.869-.9.9.9,0,0,1,.9-.916c.629-.023,1.261-.025,1.89,0a.881.881,0,0,1,.865.891.921.921,0,0,1-.842.924.836.836,0,0,1-.114.006H43.9v0" transform="translate(-35.619 -65.834)" fill="#fff"/>
    <path id="Path_875" data-name="Path 875" d="M187.523,79.58c-.305,0-.612.02-.916,0a.906.906,0,0,1-.881-.94.885.885,0,0,1,.882-.874c.629-.025,1.26-.024,1.889,0a.9.9,0,0,1,.886.876.92.92,0,0,1-.887.939c-.323.025-.649,0-.973,0" transform="translate(-157.283 -65.836)" fill="#fff"/>
    <path id="Path_876" data-name="Path 876" d="M83.768,13.319a4.531,4.531,0,0,1-.767.825.726.726,0,0,1-1.013-.248A17.317,17.317,0,0,1,80.9,12.016a.716.716,0,0,1,.321-.99c.284-.134.852-.2.98-.04a27.886,27.886,0,0,1,1.565,2.333" transform="translate(-68.441 -9.225)" fill="#fff"/>
    <path id="Path_877" data-name="Path 877" d="M53.3,38.232a1.96,1.96,0,0,1,.374.12c.564.313,1.135.617,1.678.963a.867.867,0,0,1,.32,1.194.884.884,0,0,1-1.221.37c-.573-.3-1.133-.62-1.676-.967a.772.772,0,0,1-.339-1.038,3.5,3.5,0,0,1,.743-.74l.119.1" transform="translate(-44.334 -32.294)" fill="#fff"/>
    <path id="Path_878" data-name="Path 878" d="M154.386,10.45c.783-.008,1.279.613,1.025,1.174a12.741,12.741,0,0,1-1.078,1.883.8.8,0,0,1-1.168.2.82.82,0,0,1-.337-1.142,16.894,16.894,0,0,1,1-1.73,1.625,1.625,0,0,1,.555-.387" transform="translate(-129.329 -8.849)" fill="#fff"/>
    <path id="Path_879" data-name="Path 879" d="M1.039,191.628a.913.913,0,1,1-.031,1.825.913.913,0,0,1,.031-1.825" transform="translate(-0.095 -162.282)" fill="#fff"/>
  </g>
</svg>
