<svg id="Group_231" data-name="Group 231" xmlns="http://www.w3.org/2000/svg" xmlns:xlink="http://www.w3.org/1999/xlink" width="139.122" height="118.542" viewBox="0 0 139.122 118.542">
  <defs>
    <clipPath id="clip-path">
      <rect id="Rectangle_79" data-name="Rectangle 79" width="139.122" height="118.543" fill="none"/>
    </clipPath>
    <clipPath id="clip-path-3">
      <rect id="Rectangle_75" data-name="Rectangle 75" width="2.426" height="4.265" fill="none"/>
    </clipPath>
  </defs>
  <g id="Group_230" data-name="Group 230" clip-path="url(#clip-path)">
    <g id="Group_229" data-name="Group 229">
      <g id="Group_228" data-name="Group 228" clip-path="url(#clip-path)">
        <path id="Path_743" data-name="Path 743" d="M490.817,482.331q-.574.212-1.157.4.583-.191,1.157-.4" transform="translate(-398.205 -392.245)" fill="#fff"/>
        <path id="Path_744" data-name="Path 744" d="M12.9,521.89c-.22.33-1.607,3.1-1.563,3.125a3.961,3.961,0,0,0,.7.11c1.585.154,1.8.221,2.113.506.176.154.264.308.242.352a.937.937,0,0,1-.506.088,21.092,21.092,0,0,0-3.147.242,28.267,28.267,0,0,0-1.123,2.641c-.308.858-.9,2.949-1.166,4.182a5.115,5.115,0,0,1-.4,1.365.594.594,0,0,0-.088.33c-.044.286-.2.374-.352.176-.066-.044-.176-.132-.286-.2-.242-.11-.418-.374-.594-.858a4.892,4.892,0,0,1,0-2.355,21.586,21.586,0,0,1,1.1-4.49l.132-.33-.33.044a12.412,12.412,0,0,0-2.245.572,18.413,18.413,0,0,0-.968,2.641c-.308.9-.374,1.145-.308,1.277s.044.2-.066.308a.291.291,0,0,1-.462-.088.163.163,0,0,0-.132-.11c-.176,0-.506-.374-.748-.836-.2-.418-.22-.462-.2-1.343a5.143,5.143,0,0,0-.044-.924c-.022,0-.4.11-.814.264-.792.264-1.145.286-1.145.066,0-.088-.066-.132-.264-.2-.11-.022-.242-.242-.242-.352,0-.286.924-.836,2.333-1.342.462-.176.572-.242.638-.418a1.279,1.279,0,0,0,.066-.308,2.564,2.564,0,0,0-.88-.286c-.9-.22-1.255-.374-1.321-.617a.364.364,0,0,0-.22-.176A1.25,1.25,0,0,1,0,524.091c0-.506,1.453-1.276,4.094-2.157.836-.286.946-.352,1.1-.572.088-.154.418-.638.726-1.1a12.985,12.985,0,0,1,1.915-2.355c.77-.748,1.321-.88,1.519-.4.044.11.11.22.154.22.022,0,.066.044.066.11s.044.088.11.066c.132-.066.4.2.4.418,0,.176-.176.506-.859,1.607-.242.4-.44.726-.44.748.022,0,.462-.044,1.012-.109l.968-.11.638-1.1a16.613,16.613,0,0,1,2.421-3.433c.638-.638.66-.682.946-.66a.358.358,0,0,1,.374.264c.066.132.154.242.2.242.11,0,.11.044.022.242-.088.154-.088.154.044.022a.234.234,0,0,1,.4.132c0,.066.022.11.066.11.242,0-.066.66-1.21,2.575-.484.792-.858,1.453-.858,1.5a2.4,2.4,0,0,0,.594.044,22.356,22.356,0,0,1,2.4.264c1.145.154,1.321.22,1.607.55a1.263,1.263,0,0,1,.22.33c-.022,0-1.276.044-2.817.066l-2.773.066ZM3.3,525.3l.264-.638a3.53,3.53,0,0,0,.242-.682,10,10,0,0,0-1.717.77,4.529,4.529,0,0,0,.616.308Zm-.132,4.005c-.022-.044-.044-.044-.044.044s0,.132.022.088c.044-.022.044-.066.022-.132m.132-.572c.044-.22.11-.484.132-.616.044-.132.044-.176-.022-.132a3.484,3.484,0,0,0-.22.99c0,.088.044-.022.11-.242m.4-.9a9.292,9.292,0,0,0-.4,1.959l-.044.506.132-.682c.088-.374.2-.9.264-1.188.132-.572.132-.682.044-.595m.462.022c.044-.066.022-.132-.022-.132a5.575,5.575,0,0,0-.418,1.387c-.044.352.022.2.22-.506.088-.352.2-.682.22-.748m-.11-1.937c.022.088.022.066.088-.044.022-.066.286-.66.55-1.277a12.091,12.091,0,0,0,.484-1.144,15.985,15.985,0,0,0-1.123,2.465m.132,3.9c-.022-.044-.044-.044-.044.044s0,.132.044.11a.186.186,0,0,0,0-.154m.55-4.556c.2-.462.484-1.078.638-1.387a1.921,1.921,0,0,0,.22-.572,8.49,8.49,0,0,0-.99,1.915c-.352.814-.352.859-.264.859a4.321,4.321,0,0,0,.4-.815m-.11,3.191c0-.044-.044.022-.088.154a1.184,1.184,0,0,0-.11.352c0,.066.044,0,.11-.132a2.1,2.1,0,0,0,.088-.374m1.211-4.622c.176-.374.33-.682.33-.7,0-.242-.616.88-1.056,1.915s-.418.99-.308.88a3.712,3.712,0,0,0,.4-.77c.176-.352.44-.946.638-1.32m-.9,3.786c0-.022-.044-.022-.088.044a.908.908,0,0,0-.066.176c0,.044.044.022.066-.022a.5.5,0,0,0,.088-.2m.726-3.1a.147.147,0,0,0-.088.11c0,.11.066.088.11-.044.022-.066.022-.088-.022-.066m.132-.286a.121.121,0,0,0-.066.11c0,.088.044.066.11-.044.022-.066,0-.11-.044-.066m.374-.616c.066-.176.132-.308.11-.308a.98.98,0,0,0-.2.308c-.066.154-.11.286-.11.286a1.062,1.062,0,0,0,.2-.286m2.377,1.607a8.432,8.432,0,0,0,.484-1.034c.22-.528.506-1.189.66-1.453.132-.286.242-.529.242-.55s-.066-.022-.132-.022c-.132,0-1.849.4-2.069.462a29.487,29.487,0,0,0-1.563,2.993,13.719,13.719,0,0,0,2.377-.4m-1.695-4.138a.5.5,0,0,0,.2-.176,22.679,22.679,0,0,1,1.343-2,2.245,2.245,0,0,0,.22-.309,10.472,10.472,0,0,0-1.189,1.5c-.572.836-.682,1.035-.572.991m.462-.11c0,.132.176-.088.55-.683.242-.374.7-1.034,1.012-1.474.418-.573.484-.682.22-.4a16.2,16.2,0,0,0-1.783,2.553m1.937,5.656c.022-.066.022-.132-.022-.132a15.81,15.81,0,0,0-1.277,3.565,22.3,22.3,0,0,0-.616,3.588c0,.11.066-.154.132-.616s.22-1.255.33-1.783a25.869,25.869,0,0,1,1.453-4.622m-1.893,5.436c.044-.022.044-.088.022-.132-.022-.066-.044-.044-.044.044,0,.066,0,.11.022.088m.044-.44c0,.11.022.176.044.11a.367.367,0,0,0,0-.22c-.022-.066-.044-.022-.044.11m.066-.374c0,.088.088-.2.176-.617.11-.418.264-1.035.374-1.387.11-.33.352-1.056.55-1.607a6.779,6.779,0,0,0,.33-1.034,22.555,22.555,0,0,0-.925,2.421,22.089,22.089,0,0,0-.506,2.223m.484-10.873c-.088.11-.11.176-.066.154a.534.534,0,0,0,.176-.2c.11-.2.022-.176-.11.044M8.1,530.98c-.022-.066-.044-.044-.044.044,0,.066,0,.11.022.088.044-.022.044-.088.022-.132m.308-1.145c-.022-.066-.044-.066-.066.022-.088.22-.088.33,0,.2a.839.839,0,0,0,.066-.22m-.022,2.311c-.022-.066-.044-.044-.044.044,0,.066,0,.11.044.088a.139.139,0,0,0,0-.132m1.232-5.7c-.044-.044-.132.132-.418.858-.132.33-.286.749-.352.925a10.5,10.5,0,0,0-.44,1.43c0,.044.176-.418.4-.99.2-.572.484-1.3.616-1.629.11-.308.2-.572.2-.594m-1.166,5.393c-.022-.044-.044-.022-.044.044,0,.088.022.132.044.11a.181.181,0,0,0,0-.154m.066-.287c-.022-.044-.022-.044-.044.044,0,.088.022.132.044.11a.188.188,0,0,0,0-.154m.616-2.223a14.235,14.235,0,0,0-.572,2.047c0,.132.044.022.308-.969.132-.484.264-.968.286-1.056.044-.11.044-.11-.022-.022m.572-4.49c.066-.154.374-.837.7-1.563.594-1.254.66-1.453.528-1.3-.088.088-1.453,3.059-1.453,3.147,0,.154.11,0,.22-.286m.066,2.927c0-.044-.022-.022-.066.044a.294.294,0,0,0-.066.176c0,.044.022.022.066-.044a.352.352,0,0,0,.066-.176m.154-2.707a16.689,16.689,0,0,1,.7-1.54c.837-1.8.77-1.651.682-1.651a3.893,3.893,0,0,0-.418.77c-.22.418-.55,1.167-.77,1.629-.286.616-.374.858-.308.858s.11-.044.11-.066m.418,1.32a3.457,3.457,0,0,0-.418.9,1.6,1.6,0,0,0,.22-.418,2.046,2.046,0,0,0,.2-.484m1.145-3.9c.352-.683.4-.947.066-.4-.176.33-1.409,2.927-1.409,3.015,0,.022.044,0,.11-.066a.258.258,0,0,0,.11-.132c0-.088.682-1.563,1.123-2.421m.022,1.365c0-.044-.066.044-.132.176a.957.957,0,0,0-.132.33c0,.044.044-.044.132-.176a1.411,1.411,0,0,0,.132-.33m.374-.749a2.173,2.173,0,0,0-.352.617c0,.022.066-.088.176-.264a2.392,2.392,0,0,0,.176-.352m-.066-2.729c0,.11.11-.044.682-1.035.352-.594.77-1.254.925-1.5.2-.33.22-.375.066-.22-.176.22-1.673,2.663-1.673,2.751m.528,1.783a4.417,4.417,0,0,0-.242.418,1.144,1.144,0,0,0-.176.44,3.513,3.513,0,0,0,.242-.44,1,1,0,0,0,.176-.418m.066-2.355c-.528.946-.2.572.418-.462a28.977,28.977,0,0,1,1.673-2.553c.088-.132.242-.352.308-.462.132-.22.132-.22,0-.066a25,25,0,0,0-2.4,3.544m.044,2.091a.291.291,0,0,0-.066.11c0,.11.044.088.11-.044.022-.066,0-.088-.044-.066m.682-2.378c.264-.44.814-1.32,1.21-1.936a12.651,12.651,0,0,0,.7-1.123,18.746,18.746,0,0,0-1.673,2.443c-.815,1.32-.858,1.43-.792,1.43a3.589,3.589,0,0,0,.55-.815m.968-.418a1.33,1.33,0,0,0-.242.352c-.11.2-.242.418-.308.529l-.088.176L13.6,520a5.953,5.953,0,0,0,.33-.528,1.333,1.333,0,0,0,.176-.374m-.418-1.8c0,.11.066.088.11-.044.022-.066,0-.088-.022-.066a.194.194,0,0,0-.088.11" transform="translate(0 -419.025)" fill="#fff"/>
        <path id="Path_745" data-name="Path 745" d="M106.578,526.62a2.581,2.581,0,0,1-.836-2.817c.616-2.047,3.236-4.666,6.625-6.581a24.414,24.414,0,0,1,7.483-2.685,13.3,13.3,0,0,1,2.289-.242,4.921,4.921,0,0,1,1.871.132,4.422,4.422,0,0,1,.968.4,2.012,2.012,0,0,1,.792,1.035,1.843,1.843,0,0,0,.286.55,2.763,2.763,0,0,1,.484,2.157c-.352,1.739-2.443,4.16-5.591,6.493l-.858.617.66.044c1.122.11,1.717.352,2.025.881a3.4,3.4,0,0,0,.418.616c.792.947.748,1.871-.088,3.1a14.67,14.67,0,0,1-2.333,2.4,21.5,21.5,0,0,1-7.792,3.83,8.74,8.74,0,0,1-3.345.11,3.682,3.682,0,0,1-2.267-1.585c-.638-.814-.925-1.32-.814-1.5s.484-.22.44-.066c-.022.066-.022.11.022.11s.044.044.022.066c-.022.044.022.066.088.022.11-.022.11,0,.088.176-.066.308.11.462.858.7,1.365.462,3.059.264,5.415-.66a24.27,24.27,0,0,0,5.745-3.39c1.232-.969,2.883-2.773,2.707-2.927a6.735,6.735,0,0,0-1.321-.066,8.945,8.945,0,0,0-2.2.2,11.451,11.451,0,0,0-3.411,1.233c-.9.484-1.123.616-1.211.792-.088.242-.506,1.893-.748,3.037-.22,1.035-.374,1.277-.726,1.167-.154-.066-.2-.132-.2-.264,0-.088-.044-.154-.088-.132-.022.044-.066,0-.066-.044,0-.066-.066-.11-.2-.088-.4,0-.594-.726-.594-2.223a13.568,13.568,0,0,1,1.739-6.118,30.948,30.948,0,0,1,1.849-2.729c1.387-1.738,2.443-2.619,3.169-2.619.264,0,.308.022.374.2a1.042,1.042,0,0,0,.33.374c.132.088.22.176.2.22s0,.066.044.066c.154,0,.044.352-.2.682-.748.946-1.255,1.629-1.585,2.135-.418.616-1.167,1.827-1.167,1.893a46.9,46.9,0,0,0,4.732-3.631,32.843,32.843,0,0,0,2.905-2.861A6.917,6.917,0,0,0,124.692,517c0-.088-.11-.154-.4-.264a14.51,14.51,0,0,0-4.028.022,21.39,21.39,0,0,0-11.181,5.414,7.151,7.151,0,0,0-1.65,2.157,2.3,2.3,0,0,0-.33,1.167c-.044.484-.022.572.11.7a6.433,6.433,0,0,0,2.245.7c.528.11,1.079.242,1.211.286l.242.11-.154.11a4.087,4.087,0,0,1-2.575.2,3.375,3.375,0,0,1-1.607-.99m.132-3.433a7.545,7.545,0,0,1,.484-.749l.2-.286-.2.22a5.734,5.734,0,0,0-.748,1.233,2.737,2.737,0,0,0,.264-.418m.088.308c.154-.286.418-.7.572-.924.176-.22.594-.7.924-1.056.352-.352.55-.594.462-.55a11.268,11.268,0,0,0-1.431,1.519,5.247,5.247,0,0,0-.77,1.365c-.044.088.066-.066.242-.352m4.028-3.874a14.351,14.351,0,0,0-3.72,3.676l-.088.22.11-.176c.088-.088.286-.374.462-.616a19.512,19.512,0,0,1,2.531-2.509c.33-.242.66-.506.77-.594l.176-.176Zm.462-.242a.451.451,0,0,0,.11-.11c.088-.132.088-.132-.022-.044-.11.11-.154.154-.088.154m1.254,9.86a7.967,7.967,0,0,0-.4,1.717c-.022.264.022.132.154-.4.088-.44.2-.924.242-1.078.044-.132.044-.242,0-.242m.682-2.509a27.818,27.818,0,0,1,2.509-4.116l.264-.4-.242.286a29.083,29.083,0,0,0-1.937,2.883,12.812,12.812,0,0,0-1.056,2.135c0,.154.176-.154.462-.792M116.592,522c.66-.793.77-.991.33-.529a21.116,21.116,0,0,0-2.509,3.412,19.334,19.334,0,0,0-1.21,2.289c0,.154.176-.11.594-.9a27.393,27.393,0,0,1,2.8-4.27M116,523.385a23.533,23.533,0,0,1,1.717-2.223l.4-.44-.418.4a18.548,18.548,0,0,0-2.663,3.522,15.988,15.988,0,0,0-1.189,2.113c0,.11.088.022.22-.264.33-.616,1.255-2.135,1.937-3.1m-.352,1.761c.22-.33.55-.881.77-1.211a2.332,2.332,0,0,0,.308-.572,22.12,22.12,0,0,0-1.5,2.421,3.624,3.624,0,0,0,.418-.638m2.861.264c-.088.066-.132.11-.132.132,0,.066.066.022.154-.088.088-.132.088-.132-.022-.044m5.656-4.732a8.9,8.9,0,0,0-.836.749,38.338,38.338,0,0,1-3.962,3.345,6.3,6.3,0,0,0-.7.55,10.1,10.1,0,0,0,1.475-1.035,21.931,21.931,0,0,0,4.028-3.61m-2.531,9.882a4.9,4.9,0,0,0,.815-.968c.11-.176.132-.264.066-.176a19.84,19.84,0,0,1-2.421,2.421c-.2.176-.088.11.286-.176a13.564,13.564,0,0,0,1.255-1.1m-1.563-6.691.2-.132.2-.2c0-.088-.044-.066-.22.132Zm2.311,5.04a9.111,9.111,0,0,1-1.365,1.607c-.506.528-.616.66-.352.44.2-.154.616-.55.925-.858a4.911,4.911,0,0,0,1.1-1.5c0-.066-.132.088-.308.308m2.245-9.53a24.294,24.294,0,0,1-2.949,3.037c-1.475,1.32-1.519,1.408-.132.286a18.5,18.5,0,0,0,3.433-3.653c.154-.286.044-.176-.352.33m-2.421,9.354a6.322,6.322,0,0,1-.572.77,1.548,1.548,0,0,0-.264.374,1.566,1.566,0,0,0,.352-.352,4.146,4.146,0,0,0,.748-1.123,1.454,1.454,0,0,0-.264.33m-.242,1.717a1.123,1.123,0,0,0-.22.2c-.088.088-.154.176-.132.176a1.7,1.7,0,0,0,.22-.176c.088-.11.154-.2.132-.2m-.066-8.474a8.738,8.738,0,0,0,.947-.88,11.756,11.756,0,0,0,1.717-2.025,3.649,3.649,0,0,0-.55.616c-.308.374-.924,1.035-1.365,1.475a7.784,7.784,0,0,0-.748.814m.33.858a.448.448,0,0,0-.11.11c0,.066.044.022.154-.088.088-.11.088-.11-.044-.022m.044,8.056a2.258,2.258,0,0,0,.33-.374c.352-.463.594-.859.44-.7a6.85,6.85,0,0,0-.77,1.078m.55-8.562a.234.234,0,0,0-.132.132c0,.044.066,0,.154-.11s.088-.11-.022-.022m1.563-.9c-.352.4-.792.858-.969,1.034-.308.308-.308.308-.044.11a7.066,7.066,0,0,0,.616-.572c.308-.33.858-.991,1.078-1.277.154-.242-.022-.044-.682.7m-1.122-1.783c0,.066.066.022.154-.088.088-.132.088-.132-.022-.044-.066.066-.132.11-.132.132" transform="translate(-85.889 -418.231)" fill="#fff"/>
        <path id="Path_746" data-name="Path 746" d="M217.689,565.482c-1.893,2.949-3.962,5.194-5.5,5.943a3.056,3.056,0,0,1-2.289.264,1.8,1.8,0,0,1-.616-.308,4.971,4.971,0,0,0-.572-.352,4.074,4.074,0,0,1-1.21-1.189c-.946-1.408-.594-3.345,1.012-5.788a8.148,8.148,0,0,1,3.323-2.971,1.944,1.944,0,0,1,2.113.2c.088.088.286.264.44.4a1.392,1.392,0,0,1,.572,1.387,4.848,4.848,0,0,1-.726,2.113,8.485,8.485,0,0,1-2.927,2.663,2.4,2.4,0,0,1-1.5.132c-.132-.044-.176-.022-.264.286a2.555,2.555,0,0,0-.088,2c.154.286.264.33.792.33A4.864,4.864,0,0,0,213,569.443a25.532,25.532,0,0,0,3.83-4.116c.528-.7.947-1.123,1.012-.947,0,.044.066.088.132.088.176,0,.044.484-.286,1.013m-9.486,1.144a4.971,4.971,0,0,0-.418,1.519,5.633,5.633,0,0,0,.242-.683c.242-.858.264-.968.176-.836m.022,1.255c.11-.4.2-.814.242-.924.066-.33-.088-.132-.22.286a3.318,3.318,0,0,0-.154.858l-.044.506Zm.55-.682c0-.066-.022-.066-.066-.022a3.988,3.988,0,0,0-.286,1.122,5.4,5.4,0,0,0,.352-1.1m.506.77-.11.22a2.557,2.557,0,0,0-.132.484l-.044.286.088-.286c.066-.154.11-.374.154-.506Zm.726-.815c0,.11.352.044.748-.154a5.835,5.835,0,0,0,3.015-3.874c.154-.7.132-.792-.176-.638a8.807,8.807,0,0,0-2.465,2.685,15.425,15.425,0,0,0-1.122,1.981m.7-3.279c.242-.308.418-.572.418-.572a6.592,6.592,0,0,0-.924,1.122c0,.088-.022.11.506-.551m2.773,1.233c-.132.176-.154.22-.044.132.066-.066.154-.11.176-.088.044.044.286-.264.484-.66.176-.352.154-.418-.044-.11-.044.11-.088.154-.066.088.11-.418.088-.418-.11-.044a5.64,5.64,0,0,1-.4.682m.11-.022a1.383,1.383,0,0,1,.352-.528c.022.022-.044.154-.132.308-.132.22-.22.308-.22.22m.594-1.188a.848.848,0,0,0,.066-.22c-.022-.066-.044-.066-.066.022-.088.2-.088.33,0,.2m2.927,1.849c-.044.044-.132.066-.132.044-.022-.022-.088.022-.154.088-.088.132-.088.132.022.044.066-.044.132-.066.154-.044s.088-.022.132-.088c.088-.132.088-.132-.022-.044m.308-.617c.088-.11.088-.11-.022-.022-.066.044-.132.11-.132.132,0,.044.066.022.154-.11m.044.11c-.066.066-.11.11-.11.132,0,.066.044.022.154-.088.088-.132.066-.132-.044-.044m.2-.528c-.044.044-.022.044.022.022.044-.044.088-.022.088.022,0,.11.044.088.11-.022.022-.11-.132-.132-.22-.022" transform="translate(-168.321 -456.124)" fill="#fff"/>
        <path id="Path_747" data-name="Path 747" d="M265.51,524.634c0,.022.044.044.132.022q.231-.1.066.264c-.088.154-.088.154.066.022.154-.154.308-.088.55.176.264.33.022,1.012-1.057,2.883-.638,1.1-1.849,3.543-2.4,4.8a35.559,35.559,0,0,0-2.245,6.537,7.467,7.467,0,0,0-.11,2.2,1.638,1.638,0,0,0,.44-.352c.308-.308.858-1.078,3.588-4.93.814-1.122,1.364-1.783,1.563-1.783.066,0,.11.044.088.11,0,.044.044.066.11.066.242-.022.132.242-.594,1.431-.418.638-1.166,1.915-1.673,2.8-.506.9-1.1,1.893-1.32,2.245a7.055,7.055,0,0,1-1.563,1.695,1.473,1.473,0,0,1-.924.044,2.218,2.218,0,0,1-.308-.2,1.4,1.4,0,0,0-.4-.22,2.59,2.59,0,0,1-1.233-1.21c-.506-1.035-.528-1.783-.154-3.544a44,44,0,0,1,4.446-10.653c.374-.726.836-1.519,1.012-1.783.748-1.122,1.585-1.541,1.827-.9a.757.757,0,0,1,.088.286m-3.015,4.776c.748-1.43,1.541-2.927,1.717-3.191.088-.132.132-.242.11-.242a45.507,45.507,0,0,0-2.773,5.128,34.905,34.905,0,0,0-2.8,8.254c-.044.528.066.374.154-.2a36.636,36.636,0,0,1,3.587-9.75m-.286,1.3c.55-1.167,2.091-4.05,2.553-4.8.462-.726.484-.814.242-.528a51.426,51.426,0,0,0-3.588,6.691,47.778,47.778,0,0,0-1.827,4.864,9.631,9.631,0,0,0-.528,3.257c.022.11.066-.066.11-.484a10.487,10.487,0,0,1,.242-1.5,37.809,37.809,0,0,1,2.8-7.505m3.147-5.172a6.657,6.657,0,0,0-.594.924c-2.531,4.292-4.974,10.147-5.216,12.48-.022.33,0,.264.132-.308.11-.418.308-1.122.44-1.585a51.989,51.989,0,0,1,4.93-10.807c.4-.66.418-.7.308-.7m-4.864,12.722a6.771,6.771,0,0,0-.33,1.453c-.11.858-.066.9.066.044.066-.44.176-.946.22-1.144a.812.812,0,0,0,.044-.352m.088-.264c-.022-.044-.044-.044-.044.044-.022.088,0,.132.022.11a.182.182,0,0,0,.022-.154m.308-2.685c0-.044-.044-.022-.088.044a.575.575,0,0,0-.066.176c0,.044.044.022.066-.044a.332.332,0,0,0,.088-.176m-.022,1.673c-.022-.044-.044-.022-.044.044,0,.088,0,.132.022.11.044-.022.044-.088.022-.154m.22-2.245c0-.044-.022-.022-.066.044a.579.579,0,0,0-.066.176c0,.044.044.022.066-.044a.349.349,0,0,0,.066-.176m1.21-1.629a.735.735,0,0,0-.11.264c0,.044.044-.022.11-.11a1.173,1.173,0,0,0,.088-.264c0-.022-.044.022-.088.11m.594-1.255c0-.044-.022-.022-.066.044a.294.294,0,0,0-.066.176c0,.044.022.022.066-.044a.349.349,0,0,0,.066-.176m1.871-3.742c-.154.2-1.651,3.081-1.651,3.169,0,.044.088-.066.154-.22.088-.154.462-.881.858-1.629.726-1.409.792-1.563.638-1.32m.418-1.783c-.022,0-.066.066-.11.154s-.066.154-.044.154.066-.066.11-.154.066-.154.044-.154m-.044,9.75c.066-.044.088-.088.066-.11s-.066,0-.11.088c-.022.088-.022.11.044.022m.462-9.376a1.987,1.987,0,0,0,.242-.418c.22-.44.352-.815.264-.726a9.649,9.649,0,0,0-.506,1.144m.11,8.474c0,.066.066.022.154-.11.088-.11.088-.11-.022-.022-.066.066-.132.11-.132.132m.4-.352a.269.269,0,0,0,.11-.022c0-.066-.132-.088-.176-.044-.022.044.022.066.066.066" transform="translate(-209.715 -426.171)" fill="#fff"/>
        <path id="Path_748" data-name="Path 748" d="M299.674,552.159c-1.849,2.751-4.138,5.348-5.216,5.855a1.309,1.309,0,0,1-1.145.154,1.633,1.633,0,0,1-.462-.286,4.184,4.184,0,0,0-.462-.33,2.914,2.914,0,0,1-1.122-2.223,7.217,7.217,0,0,1,1.034-3.83c1.255-2.531,2.443-3.632,2.84-2.663.066.132.132.2.22.2.066-.022.11.022.088.088-.022.11.022.132.11.088.066-.022.088-.022.066.022-.022.066,0,.066.088.044.11-.022.154,0,.154.088a.1.1,0,0,0,.11.11c.242,0,.066.484-.859,2.377-1.386,2.817-1.849,4.072-1.849,5v.352l.286-.044a4.123,4.123,0,0,0,1.453-.682,23.208,23.208,0,0,0,2.971-3.1c.374-.462.968-1.122,1.3-1.475.572-.617.616-.638.726-.528s.088.154-.33.792m-7.351,1.783c.154-.462.418-1.078.572-1.408a5.268,5.268,0,0,0,.484-1.123c-.022,0-.242.44-.506.969a8.034,8.034,0,0,0-.814,2.245c0,.088.11-.22.264-.682m.066.858c.11-.418.308-.99.418-1.3a28.174,28.174,0,0,1,1.937-3.764l.132-.22-.154.176a19.737,19.737,0,0,0-2.069,3.808,7.7,7.7,0,0,0-.462,1.893c0,.088.11-.176.2-.594m2.751-5.062c.286-.484.088-.264-.286.286a28.944,28.944,0,0,0-1.893,3.786c-.264.726-.4,1.255-.264,1.078a.417.417,0,0,0,.066-.2,27.79,27.79,0,0,1,2.377-4.952m-1.871,5.569a3.492,3.492,0,0,0,.176-.7,7.416,7.416,0,0,0-.4,1.277c.022.066.11-.2.22-.572m.176-3.962a.774.774,0,0,0,.176-.286c.088-.154.132-.286.11-.286,0,0-.088.132-.176.286s-.132.286-.11.286m.176,2.927c0-.044-.022-.022-.066.022a.418.418,0,0,0-.066.2c0,.022.022.022.066-.044a.351.351,0,0,0,.066-.176m.418-1.035a4.3,4.3,0,0,0-.4.9c0,.044.088-.154.22-.4a1.826,1.826,0,0,0,.176-.506m.176-.418a.194.194,0,0,0-.088.11c0,.11.066.088.11-.044.022-.044,0-.088-.022-.066m.418-1.937a.121.121,0,0,0-.066.11c0,.11.044.088.11-.044.022-.066,0-.088-.044-.066m.572-4.512a1.414,1.414,0,0,1,.132-.33,4.63,4.63,0,0,1,2.333-1.276c.286-.044.33-.044.594.2a.742.742,0,0,1,.264.352,1.315,1.315,0,0,1-.4.352,4.6,4.6,0,0,0-1.3,1.21c-.22.352-.462.66-.528.638a.975.975,0,0,1-.176-.044c-.066,0-.154-.11-.2-.2a.436.436,0,0,0-.242-.242,1.117,1.117,0,0,1-.484-.661m.66.22c0,.11.066.088.154-.088.066-.154.066-.154-.044-.066a.4.4,0,0,0-.11.154m.2.22a1.479,1.479,0,0,0,.264-.308c.11-.176.154-.264.088-.2-.176.132-.44.506-.352.506m1.233,7.836q-.132.1-.132.132c0,.066.066.022.154-.088.088-.132.088-.132-.022-.044m.418-.264a1.68,1.68,0,0,0-.154.132c-.066.088-.11.154-.088.154s.088-.066.154-.154c.066-.066.11-.132.088-.132m-.066-.154a1.054,1.054,0,0,0-.132.11c0,.066.066.022.154-.088s.088-.11-.022-.022m.286-.374c-.066.066-.132.11-.132.132,0,.066.066.022.154-.088.088-.132.088-.132-.022-.044m.286-.132c-.066.044-.132.11-.132.132,0,.044.066.022.154-.11.088-.11.088-.11-.022-.022m.4-.462c-.044-.022-.066-.088-.044-.11.11-.176-.066-.044-.264.242-.132.154-.2.264-.132.22.066-.066.132-.088.154-.066s.088-.022.132-.088q.132-.132,0-.066c-.066.044-.088.044-.066-.022a.15.15,0,0,1,.176-.088c.088,0,.088,0,.044-.022m.374-.594a.568.568,0,0,0-.264.2c-.088.088-.11.132-.044.088s.132-.066.154-.044.088-.022.154-.11c.088-.11.11-.132,0-.132m.2-.264a.129.129,0,0,0-.154.066c-.066.066-.066.088.022.088a.521.521,0,0,0,.154-.066.054.054,0,0,0-.022-.088m.11-.264c-.132.132-.132.132,0,.11a.142.142,0,0,0,.132-.132c.022-.154.022-.154-.132.022m.418-.4a.448.448,0,0,0-.2.11c-.066.088-.066.088.022.022a.9.9,0,0,1,.154-.044c.022-.022.066-.044.088-.066.044-.022,0-.044-.066-.022m.088-.264c-.022.044,0,.066.066.066.044,0,.11,0,.11-.022,0-.066-.154-.088-.176-.044" transform="translate(-236.859 -442.999)" fill="#fff"/>
        <path id="Path_749" data-name="Path 749" d="M332.82,565.482c-1.893,2.949-3.962,5.194-5.5,5.943a3.056,3.056,0,0,1-2.289.264,1.8,1.8,0,0,1-.616-.308,4.971,4.971,0,0,0-.572-.352,4.074,4.074,0,0,1-1.21-1.189c-.946-1.408-.594-3.345,1.012-5.788a8.148,8.148,0,0,1,3.323-2.971,1.944,1.944,0,0,1,2.113.2c.088.088.286.264.44.4a1.392,1.392,0,0,1,.572,1.387,4.848,4.848,0,0,1-.726,2.113,8.485,8.485,0,0,1-2.927,2.663,2.4,2.4,0,0,1-1.5.132c-.132-.044-.176-.022-.264.286a2.555,2.555,0,0,0-.088,2c.154.286.264.33.792.33a4.864,4.864,0,0,0,2.751-1.145,25.532,25.532,0,0,0,3.83-4.116c.528-.7.947-1.123,1.013-.947,0,.044.066.088.132.088.176,0,.044.484-.286,1.013m-9.486,1.144a4.972,4.972,0,0,0-.418,1.519,5.633,5.633,0,0,0,.242-.683c.242-.858.264-.968.176-.836m.022,1.255c.11-.4.2-.814.242-.924.066-.33-.088-.132-.22.286a3.318,3.318,0,0,0-.154.858l-.044.506Zm.55-.682c0-.066-.022-.066-.066-.022a3.986,3.986,0,0,0-.286,1.122,5.4,5.4,0,0,0,.352-1.1m.506.77-.11.22a2.558,2.558,0,0,0-.132.484l-.044.286.088-.286c.066-.154.11-.374.154-.506Zm.726-.815c0,.11.352.044.748-.154a5.835,5.835,0,0,0,3.015-3.874c.154-.7.132-.792-.176-.638a8.807,8.807,0,0,0-2.465,2.685,15.425,15.425,0,0,0-1.122,1.981m.7-3.279c.242-.308.418-.572.418-.572a6.592,6.592,0,0,0-.924,1.122c0,.088-.022.11.506-.551m2.773,1.233c-.132.176-.154.22-.044.132.066-.066.154-.11.176-.088.044.044.286-.264.484-.66.176-.352.154-.418-.044-.11-.044.11-.088.154-.066.088.11-.418.088-.418-.11-.044a5.644,5.644,0,0,1-.4.682m.11-.022a1.383,1.383,0,0,1,.352-.528c.022.022-.044.154-.132.308-.132.22-.22.308-.22.22m.594-1.188a.848.848,0,0,0,.066-.22c-.022-.066-.044-.066-.066.022-.088.2-.088.33,0,.2m2.927,1.849c-.044.044-.132.066-.132.044-.022-.022-.088.022-.154.088-.088.132-.088.132.022.044.066-.044.132-.066.154-.044s.088-.022.132-.088c.088-.132.088-.132-.022-.044m.308-.617c.088-.11.088-.11-.022-.022-.066.044-.132.11-.132.132,0,.044.066.022.154-.11m.044.11c-.066.066-.11.11-.11.132,0,.066.044.022.154-.088.088-.132.066-.132-.044-.044m.2-.528c-.044.044-.022.044.022.022.044-.044.088-.022.088.022,0,.11.044.088.11-.022.022-.11-.132-.132-.22-.022" transform="translate(-261.949 -456.124)" fill="#fff"/>
        <path id="Path_750" data-name="Path 750" d="M372.677,574.014c-.484-1.035-.2-2.729.814-4.8.814-1.695,2.2-3.456,2.839-3.654.33-.088.55,0,.616.264.022.11.088.154.154.132s.088.022.11.132c0,.088.022.132.022.088a.2.2,0,0,1,.11-.088c.044,0,.044.022.022.088-.022.044-.022.044.044.022.132-.088.352.2.352.44a14.851,14.851,0,0,1-1.255,2.663,16.906,16.906,0,0,0-1.673,4.864c.022.132.066.11.44-.176a24.421,24.421,0,0,0,3.478-3.72,24.811,24.811,0,0,1,4.49-4.622c.506-.308.506-.308.682-.176.088.088.154.154.176.154a14.432,14.432,0,0,1-1.387,1.717c-.991,1.079-1.827,2.113-3.346,4.028-.7.924-1.607,2.025-1.981,2.465a8.365,8.365,0,0,1-2.047,1.8,1.161,1.161,0,0,1-.858.022,2.4,2.4,0,0,1-.308-.242,2.317,2.317,0,0,0-.462-.264,2.234,2.234,0,0,1-1.035-1.145m.792-1.761c.088-.33.242-.88.374-1.255.264-.7.308-.837.176-.66a9.8,9.8,0,0,0-.7,2.223c-.088.528.022.352.154-.308m1.541-3.39a11.1,11.1,0,0,0-1.475,4.336v.352l.066-.4c.044-.22.176-.748.286-1.189a16.618,16.618,0,0,1,1.783-4.05c.176-.264.33-.528.352-.55.022-.044.022-.066,0-.066a11.289,11.289,0,0,0-1.013,1.562m.616-.33A14.951,14.951,0,0,0,374,572.649c-.022.2.022.088.154-.374.11-.374.374-1.057.55-1.541.2-.484.44-1.034.528-1.233.286-.572,1.1-1.981,1.409-2.443a1.223,1.223,0,0,0,.242-.44,12.392,12.392,0,0,0-1.254,1.915m-1.519,1.629c0,.044.044-.022.088-.11a.735.735,0,0,0,.11-.264c0-.022-.044.022-.11.11a1.192,1.192,0,0,0-.088.264m.858,1.783a11.127,11.127,0,0,0-.506,1.958,4.021,4.021,0,0,0,.242-.792c.132-.506.264-1.012.286-1.122.044-.154.044-.154-.022-.044m-.088-1.167a.5.5,0,0,0,.088-.2c0-.022-.044-.022-.088.044a.911.911,0,0,0-.066.176c0,.044.044.022.066-.022m.44-1.123a.121.121,0,0,0-.066.11c0,.11.044.088.088-.044.022-.066.022-.088-.022-.066m7.792-3.5a.458.458,0,0,0,.176-.154c.066-.066.11-.132.088-.132s-.088.066-.154.132c-.088.088-.132.154-.11.154" transform="translate(-302.885 -459.791)" fill="#fff"/>
        <path id="Path_751" data-name="Path 751" d="M429.684,565.482c-1.893,2.949-3.962,5.194-5.5,5.943a3.056,3.056,0,0,1-2.289.264,1.8,1.8,0,0,1-.616-.308,4.971,4.971,0,0,0-.572-.352,4.074,4.074,0,0,1-1.21-1.189c-.946-1.408-.594-3.345,1.013-5.788a8.148,8.148,0,0,1,3.323-2.971,1.944,1.944,0,0,1,2.113.2c.088.088.286.264.44.4a1.392,1.392,0,0,1,.572,1.387,4.848,4.848,0,0,1-.726,2.113,8.486,8.486,0,0,1-2.927,2.663,2.4,2.4,0,0,1-1.5.132c-.132-.044-.176-.022-.264.286a2.556,2.556,0,0,0-.088,2c.154.286.264.33.792.33A4.864,4.864,0,0,0,425,569.443a25.535,25.535,0,0,0,3.83-4.116c.528-.7.947-1.123,1.012-.947,0,.044.066.088.132.088.176,0,.044.484-.286,1.013m-9.486,1.144a4.972,4.972,0,0,0-.418,1.519,5.633,5.633,0,0,0,.242-.683c.242-.858.264-.968.176-.836m.022,1.255c.11-.4.2-.814.242-.924.066-.33-.088-.132-.22.286a3.316,3.316,0,0,0-.154.858l-.044.506Zm.55-.682c0-.066-.022-.066-.066-.022a3.987,3.987,0,0,0-.286,1.122,5.4,5.4,0,0,0,.352-1.1m.506.77-.11.22a2.56,2.56,0,0,0-.132.484l-.044.286.088-.286c.066-.154.11-.374.154-.506Zm.726-.815c0,.11.352.044.748-.154a5.836,5.836,0,0,0,3.015-3.874c.154-.7.132-.792-.176-.638a8.809,8.809,0,0,0-2.465,2.685A15.429,15.429,0,0,0,422,567.154m.7-3.279c.242-.308.418-.572.418-.572a6.593,6.593,0,0,0-.924,1.122c0,.088-.022.11.506-.551m2.773,1.233c-.132.176-.154.22-.044.132.066-.066.154-.11.176-.088.044.044.286-.264.484-.66.176-.352.154-.418-.044-.11-.044.11-.088.154-.066.088.11-.418.088-.418-.11-.044a5.64,5.64,0,0,1-.4.682m.11-.022a1.383,1.383,0,0,1,.352-.528c.022.022-.044.154-.132.308-.132.22-.22.308-.22.22m.594-1.188a.848.848,0,0,0,.066-.22c-.022-.066-.044-.066-.066.022-.088.2-.088.33,0,.2m2.927,1.849c-.044.044-.132.066-.132.044-.022-.022-.088.022-.154.088-.088.132-.088.132.022.044.066-.044.132-.066.154-.044s.088-.022.132-.088c.088-.132.088-.132-.022-.044m.308-.617c.088-.11.088-.11-.022-.022-.066.044-.132.11-.132.132,0,.044.066.022.154-.11m.044.11c-.066.066-.11.11-.11.132,0,.066.044.022.154-.088.088-.132.066-.132-.044-.044m.2-.528c-.044.044-.022.044.022.022.044-.044.088-.022.088.022,0,.11.044.088.11-.022.022-.11-.132-.132-.22-.022" transform="translate(-340.721 -456.124)" fill="#fff"/>
        <path id="Path_752" data-name="Path 752" d="M468.506,568.574c-.154-1.717,2.135-5.92,3.962-7.263a3.326,3.326,0,0,1,2.2-.726c.264.044.418.132.77.484a2.836,2.836,0,0,0,.616.462c.088.022.154.066.154.11,0,.176.132.044.352-.286.22-.374.44-.484.726-.4.154.044.176.176.066.418-.088.154-.088.154.066.022.132-.132.154-.132.154-.022,0,.066.044.088.11.066a.125.125,0,0,1,.154.088c.022.066.066.088.088.066.044-.022.176.066.33.2a.57.57,0,0,1,.242.572,10.041,10.041,0,0,1-.88,2.927c-.286.748-.638,1.673-.748,2.069a5.347,5.347,0,0,0-.33,1.541,7.21,7.21,0,0,0,1.761-1.475,32.041,32.041,0,0,0,2.8-3.521,3.165,3.165,0,0,1,.484-.594.883.883,0,0,1-.22.418,2.534,2.534,0,0,0-.264.418,1.81,1.81,0,0,0,.308-.374c.506-.7.4-.33-.154.594-2.2,3.61-3.39,5.216-4.248,5.789-.33.22-1.078.11-1.188-.176a.836.836,0,0,0-.352-.264,2.535,2.535,0,0,1-1.122-2.069l-.044-.55-.352.528c-.506.727-1.651,2.179-2.047,2.619-.836.859-1.188.947-1.739.44a1.334,1.334,0,0,0-.506-.33c-.2,0-.7-.528-.924-.99a3.545,3.545,0,0,1-.22-.792m1.166-.924c.132-.44.264-.858.286-.924.022-.088,0-.044-.088.11a6.776,6.776,0,0,0-.484,1.431c-.088.44.022.2.286-.616m1.607-2.949a9.837,9.837,0,0,0-1.629,3.962c0,.22.044.11.2-.506a11.09,11.09,0,0,1,.44-1.365,18.327,18.327,0,0,1,1.233-2.377c.132-.176.2-.33.176-.33a4.011,4.011,0,0,0-.418.617m-.33,1.32a8.712,8.712,0,0,0-.858,2.421c0,.088.11-.176.242-.572s.352-.99.506-1.321a13.277,13.277,0,0,1,1.673-2.861l.308-.418-.286.308a13.446,13.446,0,0,0-1.585,2.443m0,2.223-.11.2a3.388,3.388,0,0,0-.132.55l-.044.33.088-.308c.066-.154.11-.4.154-.528Zm.968-1.387a8.644,8.644,0,0,0-.77,2.069,1.979,1.979,0,0,0,.418-.33,27.484,27.484,0,0,0,3.742-4.974c.374-.748.418-1.034.2-.946a6.1,6.1,0,0,0-.594.374,10.148,10.148,0,0,0-2.993,3.808m1.739.33a.451.451,0,0,0-.11.11c0,.066.044.022.154-.088.088-.11.066-.11-.044-.022m.22-.286a1.022,1.022,0,0,0-.132.11c0,.066.066.022.154-.088s.088-.132-.022-.022m1.871-1.8a3.225,3.225,0,0,0-.44,1.255c-.022.176.066-.022.2-.44a5.4,5.4,0,0,1,.308-.814c.044-.088.044-.088-.066,0m-.308,2.047c-.022.264.022.154.176-.418a17.606,17.606,0,0,1,.616-1.8c.286-.726.352-.946.242-.814a9.259,9.259,0,0,0-1.035,3.037m.55-.682c0,.044.022,0,.352-.858.132-.33.4-.947.572-1.343a7.288,7.288,0,0,0,.55-1.387,20.68,20.68,0,0,0-1.475,3.588m.572.484c-.242.858-.154.7.242-.44.22-.594.572-1.519.792-2.047.352-.858.638-1.717.418-1.276-.2.418-1.32,3.323-1.453,3.763m1.8.947c0,.044.066.022.154-.11.088-.11.088-.11-.022-.022a.235.235,0,0,0-.132.132m.374-.418c.022,0,.088-.066.154-.132.088-.088.132-.154.11-.154a.459.459,0,0,0-.176.154c-.066.066-.11.132-.088.132m.484-.44a.6.6,0,0,1-.088.154c-.066.066-.066.088,0,.044a.406.406,0,0,0,.154-.176c.066-.11.066-.132-.022-.132-.066.022-.132.044-.154.088-.044.022-.022.044.022,0,.044-.022.088-.022.088.022m.308-.33c.154-.132.352-.506.286-.55-.044-.022-.11,0-.176.088s-.066.11,0,.044c.088-.044.11-.022.088.044a.162.162,0,0,1-.132.11.192.192,0,0,0-.132.066c-.022.022-.022.044.044,0s.088-.022.066.044c-.022.044-.066.11-.11.11a.291.291,0,0,0-.176.066c-.11.132.11.088.242-.022m.528-.9a.263.263,0,0,0,.11-.022c0-.066-.154-.088-.176-.044s0,.066.066.066m.11-.154c0,.066.044.022.154-.088.088-.132.088-.132-.022-.044q-.132.1-.132.132m.4-.682c.066.11.2-.022.22-.242.022-.088.022-.132-.022-.11a.741.741,0,0,0-.066.176c0,.066-.044.132-.088.11-.066,0-.066.022-.044.066" transform="translate(-380.996 -455.87)" fill="#fff"/>
        <path id="Path_753" data-name="Path 753" d="M539.654,532.1c-.022.022-.726.066-1.585.132a32.7,32.7,0,0,0-3.984.484c-1.871.308-1.651.176-2.179,1.144-.242.463-.946,1.673-1.541,2.707a52.167,52.167,0,0,0-2.905,5.7c-.154.352-.44,1.21-.66,1.893a6.509,6.509,0,0,0-.44,1.893c-.066.748-.066.748.7.374a5.6,5.6,0,0,0,1.431-1.188,47.662,47.662,0,0,0,4.534-5.524c.7-.924.859-1.122.859-.969,0,.044.044.066.088.044.2-.132-.022.286-.99,1.738a62.308,62.308,0,0,1-4.05,5.525c-1.233,1.387-2.069,1.827-2.729,1.43a2.081,2.081,0,0,0-.506-.22,3.589,3.589,0,0,1-.682-.418c-1.012-.792-1.276-2.333-.77-4.182a39.823,39.823,0,0,1,3.412-7.219c.506-.858.9-1.563.9-1.563a1.751,1.751,0,0,0-.33.088c-.44.132-.638.132-.748,0a.2.2,0,0,1,0-.264c.044-.11.066-.154.044-.132-.088.088-.33-.22-.352-.418-.022-.418.2-.528,1.563-.815,1.144-.242,1.035-.176,1.739-1.167a5.19,5.19,0,0,1,1.607-1.628c.308-.088.462.044.484.374,0,.242,0,.242.132.132.11-.11.11-.11.11.022,0,.066.044.088.088.066.088-.044.286.132.286.286,0,.066.022.11.066.088.132-.088.132.2,0,.617a1.237,1.237,0,0,0-.11.484c.022,0,.748-.022,1.629-.066a22.334,22.334,0,0,1,4.556,0c.2.088.4.462.33.551m-14.791,12.611c-.022-.11-.022-.022-.022.2,0,.242,0,.352.022.242a1.472,1.472,0,0,0,0-.44m.528-1.188c-.022-.176-.2.484-.286.99a2.26,2.26,0,0,0-.022.858c.044.4.044.4.11-.418a6.058,6.058,0,0,1,.132-1.079c.022-.132.066-.308.066-.352m.594-.792a8.34,8.34,0,0,0-.55,2.267l-.044.572.088-.462c.044-.264.154-.858.264-1.342.132-.484.242-.925.264-1.013.044-.11.022-.11-.022-.022m1.761-3.94c-.022-.022-.044.022-.088.088-.022.11-.022.11.044.044.044-.044.066-.11.044-.132m.484-.969a3.513,3.513,0,0,0-.242.44,1,1,0,0,0-.176.418,1.992,1.992,0,0,0,.242-.418,1.145,1.145,0,0,0,.176-.44m.11-.264a.191.191,0,0,0-.066.132c0,.088.044.066.11-.044.022-.066,0-.11-.044-.088m2.509-4.182q-.33.5-1.056,1.717c-.286.484-.682,1.145-.88,1.475-.4.682-.506.9-.462.9.022,0,.264-.418.55-.9s.814-1.365,1.188-1.959c.374-.617.7-1.167.726-1.232.022-.132.022-.132-.066,0m-2.025,2.685a2.78,2.78,0,0,0,.242-.374c.088-.154.11-.22.044-.132-.132.154-.4.616-.286.506m1.035-1.673c.616-.991.616-1.035.528-.925a16.757,16.757,0,0,0-1.056,1.695c-.22.44-.022.132.528-.77m.506,9.376c0,.066.066.022.154-.088s.088-.11-.022-.022a1.034,1.034,0,0,0-.132.11m.308-.33a.26.26,0,0,0,.132-.11c.088-.132.088-.132-.022-.044-.132.11-.154.154-.11.154m.572-.726c.066-.066.066-.066-.022,0-.066.044-.132.066-.154.044s-.066,0-.088.022c-.066.11.154.066.264-.066m.66-11.511a2.931,2.931,0,0,0,.374-.638,2.5,2.5,0,0,0-.418.528c-.484.7-.528.77-.44.749a4.158,4.158,0,0,0,.484-.638m-.33,11.071a.776.776,0,0,0,.154-.2c.044-.088.044-.11-.022-.11s-.088.022-.066.044c.022.044-.022.132-.066.2-.066.088-.066.088,0,.066m1.013-11.731a.07.07,0,0,0-.066.066,3.3,3.3,0,0,1-.308.55,3.445,3.445,0,0,0-.33.55c0,.132.088.022.374-.418.352-.55.44-.748.33-.748m-.462,10.741c.022.044.088.066.11.044.044-.044.066-.088.044-.132-.022-.022-.088-.044-.11-.022-.044.022-.066.088-.044.11m.77-9.9c0-.088-.044-.044-.154.176-.066.176-.066.176.022.044a.629.629,0,0,0,.132-.22m.132-.374c0-.022-.022-.022-.066.044a.353.353,0,0,0-.066.176c0,.044.022.022.066-.022a.417.417,0,0,0,.066-.2" transform="translate(-426.129 -430.619)" fill="#fff"/>
        <path id="Path_754" data-name="Path 754" d="M579.245,538.031a10.08,10.08,0,0,0-.572.99,41.309,41.309,0,0,1-3.962,5.481c-.7.748-1.211.99-1.695.792a.689.689,0,0,1-.242-.176.4.4,0,0,0-.242-.11c-.176,0-.4-.11-.748-.418a1.922,1.922,0,0,1-.616-1.783,9.522,9.522,0,0,1,.682-3.258l.4-1.144-.286.33a38.325,38.325,0,0,0-2.575,3.411c-1.122,1.673-1.519,2.135-1.849,2.135a.742.742,0,0,1-.374-.11.487.487,0,0,0-.352-.066.839.839,0,0,1-.484-.132c-.792-.484-.99-2.025-.484-3.83a34.517,34.517,0,0,1,1.32-3.522,44.665,44.665,0,0,1,3.764-6.8c.924-1.408,1.475-2.047,1.761-2.047.22,0,.352.088.352.22a.228.228,0,0,0,.088.176c.044.022.066.11.044.2-.022.11-.022.11.066.044.066-.044.11-.044.154.022a.49.49,0,0,0,.22.2c.088.044.154.11.154.154a.365.365,0,0,0,.11.2c.308.286-.088,1.188-1.783,4.226a54.214,54.214,0,0,0-3.522,7.615c-.264.749-.33,1.079-.132.7.044-.066.352-.528.682-.99s1.1-1.563,1.739-2.443c1.232-1.761,2.069-2.729,2.421-2.817s.55-.022.7.22c.066.11.132.176.176.154.022-.022.044-.022.044.022s.154.154.33.22a2.949,2.949,0,0,1,.616.4c.55.528.44,1.188-.616,3.874a25.046,25.046,0,0,0-1.167,3.3c-.132.528-.132.594-.044.594A10.1,10.1,0,0,0,575.2,542.5a32.936,32.936,0,0,0,2.135-2.773c.264-.374.616-.858.815-1.079s.528-.616.77-.88a2.24,2.24,0,0,1,.484-.484c.044,0,.044.044.022.066-.022.044,0,.066.066.044.176-.066.132.044-.242.638m-12.854,4.534c0-.11-.022-.022-.022.2s.022.308.022.2a1.2,1.2,0,0,0,0-.4m.286-.594a2.972,2.972,0,0,0-.066,1.276l.044.2.022-.242a6.674,6.674,0,0,0,.044-.77c.022-.308,0-.506-.044-.462m.352-.11a3.584,3.584,0,0,0-.132,1.409,1.878,1.878,0,0,0,.132-.66c.022-.374.044-.77.066-.881.022-.132,0-.066-.066.132m.814-2.465a7.589,7.589,0,0,0-.484,1.32c0,.11.066-.044.286-.638.11-.352.2-.66.2-.682m.154-.352c0-.022-.022-.022-.066.044a.353.353,0,0,0-.066.176c0,.044.022.022.066-.022a.419.419,0,0,0,.066-.2m.154-.352c0-.044-.044-.022-.066.044a.333.333,0,0,0-.088.176c0,.044.044.022.088-.044a.582.582,0,0,0,.066-.176m0-1.188c0,.11.044.088.088-.044.022-.066.022-.088-.022-.066a.121.121,0,0,0-.066.11m.132.837c0-.044-.022-.022-.066.022a.436.436,0,0,0-.066.176c0,.044.022.044.066-.022a.441.441,0,0,0,.066-.176m.2-1.409c.11-.22.484-.99.836-1.695.7-1.408,1.453-2.729,2.421-4.336a19.992,19.992,0,0,0,1.3-2.223c0-.132-.22.22-1.343,2.113a44.864,44.864,0,0,0-3.037,5.635c-.4.881-.484,1.167-.176.506m.88-.858a41.746,41.746,0,0,1,2.333-4.314c.264-.462.484-.836.484-.858a.32.32,0,0,1,.11-.176,12.469,12.469,0,0,0,.88-1.651,3.772,3.772,0,0,0-.352.528c-.154.286-.594,1.013-.968,1.629-.748,1.3-1.431,2.487-1.959,3.478-.374.682-1.607,3.39-1.585,3.5a16.448,16.448,0,0,0,1.057-2.135m3.015-6.757a8.367,8.367,0,0,0,.484-.815,11.945,11.945,0,0,0-.924,1.409c-.33.572-.11.264.44-.594M572.07,542.3a17.1,17.1,0,0,1,1.123-3.456c.528-1.408.682-1.871.55-1.695-.044.044-1.122,2.883-1.3,3.456a12.679,12.679,0,0,0-.572,2.333c-.044.55.022.286.2-.638m.11.946a12.953,12.953,0,0,1,.264-1.342c.11-.418.374-1.254.594-1.849.682-1.695,1.166-2.993,1.166-3.038,0-.022-.044-.022-.088,0-.044,0-.154.22-.242.484s-.374,1.012-.638,1.695a11.773,11.773,0,0,0-1.122,4.094l.022.528Zm1.651-4.16c.308-.815.594-1.585.616-1.739.066-.352,0-.242-.858,2.025a15.438,15.438,0,0,0-1.145,3.72c-.044.484,0,.352.2-.572a24.734,24.734,0,0,1,1.188-3.433m-.66-8.716a4.251,4.251,0,0,0-.286.726s.176-.308.352-.7a2.736,2.736,0,0,0,.308-.7,2.534,2.534,0,0,0-.374.682m-.154,13.228c-.022-.044-.022,0-.022.11,0,.088,0,.132.022.088a.3.3,0,0,0,0-.2m.088-.352c-.022-.044-.044-.044-.044.044s0,.132.022.11c.044-.022.044-.088.022-.154m1.739-4.82a5.577,5.577,0,0,0,.22-.638c.088-.44-.022-.264-.154.242-.22.7-.22.748-.066.4m1.871,2.751a.367.367,0,0,0-.132.11c0,.066.066.022.154-.088s.088-.132-.022-.022m1.5-1.981a.262.262,0,0,0-.2.11c-.088.066-.088.088,0,.022.066-.022.132-.066.154-.066a.17.17,0,0,0,.11-.044c.022-.022,0-.044-.066-.022m.286-.44a.356.356,0,0,0-.2.11c-.088.088-.088.088,0,.044s.088-.022.066.066c-.066.154.066.066.154-.11.066-.088.044-.132-.022-.11m.22-.308c-.044.066-.132.11-.154.088-.044-.044-.044-.022,0,.022.066.132.088.11.176-.066.066-.154.066-.154-.022-.044m.506-.837c-.022-.022-.044.022-.088.088-.022.11-.022.11.044.044.044-.066.066-.11.044-.132" transform="translate(-459.932 -429.201)" fill="#fff"/>
        <path id="Path_755" data-name="Path 755" d="M650.889,562.72c0,.792-1.21,2.949-2.575,4.688-2.267,2.817-4.6,4.4-5.458,3.676a1.062,1.062,0,0,1-.308-.44,1.513,1.513,0,0,0-.264-.419,3.506,3.506,0,0,1-.418-2.685A18.18,18.18,0,0,1,644,563.38c.462-.682.682-1.1.638-1.145a4.375,4.375,0,0,0-1.145.924,30.1,30.1,0,0,0-2.531,3.412c-.33.484-.77,1.1-.947,1.365s-.682.968-1.1,1.585a8.667,8.667,0,0,1-1.035,1.255c-.242.132-.264.154-.44.044a1.286,1.286,0,0,1-.286-.374.649.649,0,0,0-.242-.33,2.3,2.3,0,0,1-.528-1.21c-.154-.968.484-2.531,1.937-4.732a9.961,9.961,0,0,0,1.409-2.707,4.585,4.585,0,0,0-1.981.242l-.99.242.132.176a1.9,1.9,0,0,1,.4,1.387,4.547,4.547,0,0,1-.638,2.223c-.9,1.915-2.839,3.962-4.182,4.424a1.265,1.265,0,0,1-1.5-.506,2.516,2.516,0,0,0-.44-.418,2.022,2.022,0,0,1-.726-.969c-.55-1.078-.286-2.905.66-4.666a6.792,6.792,0,0,1,2.135-2.619c.418-.176.947-.022.858.22-.022.088,0,.132.044.132s.066.044.022.088c-.022.044.022.088.088.11.154.066.132.11-.132.4a12.586,12.586,0,0,0-1.695,2.553c-.242.506-.066.264.33-.44a13.787,13.787,0,0,1,1.519-2.135c.176-.176.176-.176.308-.066.132.132.132.176.066.308-.088.154-.088.176.022.066.11-.088.11-.066.11.11a5.157,5.157,0,0,1-.572,1.232A13.464,13.464,0,0,0,631.7,568c-.044.462-.022.462.132.418a6.62,6.62,0,0,0,2.245-1.827,8.137,8.137,0,0,0,1.8-3.918c.022-.55.022-.594-.132-.683a.763.763,0,0,0-.4-.044c-.33.066-.462,0-.44-.2.022-.132,0-.154-.11-.132-.088.022-.154-.022-.176-.132-.066-.176-.022-.264.33-.462a.679.679,0,0,1,.99.066,1.067,1.067,0,0,0,.418.242,10.358,10.358,0,0,0,1.8-.528c1.188-.44,1.8-.418,2.047.044a3,3,0,0,0,.33.462,1.887,1.887,0,0,1,.308.594,1.51,1.51,0,0,1,.044.9,8.03,8.03,0,0,1-.991,2.553,34.657,34.657,0,0,0-1.607,3.5,22.465,22.465,0,0,0,1.629-2.047c2.795-4.028,4.05-5.635,4.754-5.965a.9.9,0,0,1,1.078.044.833.833,0,0,1,.2.352.908.908,0,0,0,.22.4,2.485,2.485,0,0,1,.462,1.035c.154.638-.55,2.289-1.8,4.248a11.663,11.663,0,0,0-1.365,2.663c-.132.44-.11.462.44.264,1.078-.352,2.751-1.849,4.138-3.7a14.221,14.221,0,0,0,1.959-3.279c.264-.682.374-.836.682-.99.176-.088.2-.088.308.066a.239.239,0,0,1,0,.33,1,1,0,0,0-.11.44m-19.809,1.8c.2-.374.506-.9.682-1.188a7.5,7.5,0,0,1,.66-.969l.352-.484-.33.374a6.515,6.515,0,0,0-.66.836,14.082,14.082,0,0,0-1.012,1.937c-.022.11.11-.11.308-.506m.638-.506a9.876,9.876,0,0,1,1.189-1.76c.22-.286.33-.462.242-.418a10.15,10.15,0,0,0-2.025,3.081c-.33.858-.374,1.145-.022.374.154-.352.44-.924.616-1.277m.33,1.563a3.566,3.566,0,0,0,.418-.726c.242-.44.594-1.078.815-1.453.44-.682.638-1.056.528-.924a20.668,20.668,0,0,0-1.761,3.1m3.83.242c0-.044-.154.154-.374.462-.2.308-.55.77-.748,1.012-.682.859-.594.836.132-.022a9.428,9.428,0,0,0,.99-1.453m.088-.858a9.418,9.418,0,0,1-1.167,1.915c-.176.242-.286.418-.242.374a4.685,4.685,0,0,0,.528-.638,8.166,8.166,0,0,0,1.122-2.091c.022-.088-.088.088-.242.44m-.7,1.012c.022,0,.088-.088.154-.22a.815.815,0,0,0,.088-.2c-.022,0-.088.088-.154.2-.066.132-.11.22-.088.22m.264-.528c0,.022.088-.088.176-.264a1.232,1.232,0,0,0,.176-.4c0-.044-.066.066-.176.242a2.944,2.944,0,0,0-.176.418m.858-1.387c0-.044-.022-.022-.066.044a.291.291,0,0,0-.066.176c0,.044.022.022.066-.044a.293.293,0,0,0,.066-.176m1.563,2.8c.066-.132.11-.242.088-.264,0-.022-.066.088-.132.22-.154.308-.11.33.044.044m.66,2.465c-.132.088-.132.088-.088-.044.044-.066.044-.11,0-.066-.022.044-.176.2-.308.352l-.264.286.264-.22c.154-.132.286-.22.308-.2s.066-.022.132-.088c.088-.132.088-.132-.044-.022m-.352.419c-.066.066-.11.11-.11.132,0,.066.044.022.154-.11.088-.11.088-.11-.044-.022m.484-4.38c.528-.9,1.145-2.069,1.122-2.069-.044,0-1.3,2.179-1.5,2.619-.2.418-.11.286.374-.55m.088,3.654c-.022-.022-.088-.044-.11-.022a.081.081,0,0,0-.044.11c.044.044.088.044.11.022a.08.08,0,0,0,.044-.11m-.088-4.182c.022,0,.088-.066.132-.154.022-.088.044-.154.022-.154s-.066.066-.11.154-.066.154-.044.154m.4,3.588a.1.1,0,0,0-.022.11c.066.088.088.088.088-.044,0-.066-.022-.088-.066-.066m.616-.815c-.154.088-.242.308-.132.308.066,0,.088-.022.066-.066-.022-.022,0-.11.066-.176q.1-.132,0-.066m1.189-1.5-.132.132c0,.066.066.022.154-.088.11-.132.088-.132-.022-.044m.44-.858c-.022.022,0,.066.066.066a.228.228,0,0,0,.088-.022c0-.066-.132-.11-.154-.044m1.607-1.959c-.066.044-.132.066-.154.044s-.088.022-.132.088c-.088.11-.088.11,0,.044a.38.38,0,0,1,.154-.066c.022.022.088,0,.154-.088.088-.11.088-.11-.022-.022m.44-.726c-.132.132-.132.154-.022.066.066-.066.154-.11.176-.088s.044-.022.044-.066c0-.154,0-.154-.2.088m.022,4.006a1.067,1.067,0,0,0,.2-.286c.088-.154.374-.594.616-.99a9.331,9.331,0,0,0,.814-1.409.709.709,0,0,0-.176.22c-.088.132-.352.594-.616,1.012a7.709,7.709,0,0,0-.837,1.453m.859-4.864c-.088,0-.594.55-.55.594.066.066.2,0,.132-.088a1.025,1.025,0,0,1,.22-.286c.154-.11.242-.22.2-.22m.968,8.122a.715.715,0,0,0-.176.132h.044a.264.264,0,0,0,.176-.11c.088-.132.088-.132-.044-.022m.308-.22a1,1,0,0,0-.132.11c0,.066.066.022.154-.088s.088-.132-.022-.022m2.091-2.091c-.044-.066-.308.154-.858.726-.462.462-.946.946-1.1,1.056-.154.132-.264.242-.242.242a1.826,1.826,0,0,0,.352-.264,1.66,1.66,0,0,1,.352-.22c.022.022.088,0,.154-.044q.132-.066,0-.066c-.066,0,.088-.176.308-.418.242-.242.462-.418.506-.4.022.022.022-.022,0-.088-.044-.11-.022-.11.088-.088.066.044.088.022.066-.022-.066-.11.264-.44.352-.374.044.022.044,0,.022-.044m-1.651,1.717c-.022,0-.088.066-.176.154-.066.088-.11.154-.088.154s.088-.066.176-.154c.066-.088.11-.154.088-.154m1.893-2.157a.574.574,0,0,0-.176.132c-.066.088-.11.154-.088.154s.088-.066.154-.154a.311.311,0,0,0,.11-.132m.286-.374a.455.455,0,0,0-.176.154c-.066.066-.11.132-.088.132s.088-.066.154-.132c.088-.088.132-.154.11-.154m.132-.22c-.066.044-.132.11-.132.132,0,.044.066.022.154-.11.088-.11.088-.11-.022-.022m.22-.286c-.066.044-.132.11-.132.132,0,.044.066,0,.154-.11s.088-.11-.022-.022" transform="translate(-511.943 -455.805)" fill="#fff"/>
        <path id="Path_756" data-name="Path 756" d="M454.152,491.748q-.21.021-.421.039.211-.018.421-.039" transform="translate(-368.987 -399.903)" fill="#fff"/>
        <path id="Path_757" data-name="Path 757" d="M457.577,491.361q-.21.026-.421.049.211-.023.421-.049" transform="translate(-371.772 -399.589)" fill="#fff"/>
        <path id="Path_758" data-name="Path 758" d="M468.862,489.7l-.207.04.207-.04" transform="translate(-381.124 -398.236)" fill="#fff"/>
        <path id="Path_759" data-name="Path 759" d="M465.444,490.377l-.142.024.142-.024" transform="translate(-378.397 -398.789)" fill="#fff"/>
        <path id="Path_760" data-name="Path 760" d="M434.957,364.149a18.641,18.641,0,0,1-14.671,7.226c-.082,0-.163,0-.245,0l2.554,16.7a25.267,25.267,0,0,0,3.619-.04c0-.029-.005-.057-.008-.085q-.295-3.294-.593-6.589a.6.6,0,0,0-.111-.291q-1.21-1.617-2.43-3.226a1.773,1.773,0,0,1-.125-.181.67.67,0,0,1,.45-.985.691.691,0,0,1,.724.31c.6.8,1.21,1.6,1.813,2.4a.2.2,0,0,0,.205.1q1.017-.1,2.035-.182a.2.2,0,0,0,.187-.129c.223-.452.453-.9.68-1.351.024-.047.049-.092.081-.152.286.379.558.743.836,1.1a.166.166,0,0,1,.016.208c-.3.588-.6,1.177-.893,1.77a.58.58,0,0,0-.055.292q.284,3.25.578,6.5a31.3,31.3,0,0,0,3.406-.906q-.264-2.952-.532-5.9a.573.573,0,0,0-.107-.277c-.763-1.019-1.532-2.033-2.3-3.05-.12-.159-.224-.329-.336-.493l-.024-.264a1.818,1.818,0,0,1,.157-.341.662.662,0,0,1,1.005-.064,1.7,1.7,0,0,1,.141.169q.89,1.177,1.778,2.357a.213.213,0,0,0,.218.1q1.009-.1,2.02-.181a.213.213,0,0,0,.2-.138q.679-1.352,1.366-2.7a.676.676,0,0,1,.853-.378.666.666,0,0,1,.4.87,1.878,1.878,0,0,1-.086.187q-.911,1.8-1.819,3.606a.575.575,0,0,0-.056.292q.216,2.465.439,4.93c1.133-.5,2.234-1.063,3.293-1.666q-.16-1.784-.321-3.567a.578.578,0,0,0-.106-.278q-.589-.8-1.193-1.583a.166.166,0,0,1-.021-.208c.21-.4.413-.81.627-1.234.042.053.075.093.107.135.3.4.609.8.909,1.209a.2.2,0,0,0,.207.093q1.017-.1,2.035-.182a.2.2,0,0,0,.185-.132c.451-.9.906-1.791,1.357-2.688a.69.69,0,0,1,.657-.434.67.67,0,0,1,.618.89,1.742,1.742,0,0,1-.091.2q-.91,1.8-1.819,3.606a.6.6,0,0,0-.058.306c.052.6.107,1.2.16,1.795a31.041,31.041,0,0,0,8.558-8.762Zm-7.817,14.706a1.381,1.381,0,1,1,1.218-1.516,1.381,1.381,0,0,1-1.218,1.516m6.827-.611a1.381,1.381,0,1,1,1.259-1.5,1.385,1.385,0,0,1-1.259,1.5m6.8-.61a1.381,1.381,0,1,1,1.28-1.477,1.382,1.382,0,0,1-1.28,1.477" transform="translate(-341.589 -296.136)" fill="#fff"/>
        <path id="Path_761" data-name="Path 761" d="M525.137,465.759q.565-.322,1.113-.661-.549.338-1.113.661" transform="translate(-427.056 -378.231)" fill="#fff"/>
        <path id="Path_762" data-name="Path 762" d="M501.936,477.745q-.593.264-1.2.507.6-.242,1.2-.507" transform="translate(-407.214 -388.516)" fill="#fff"/>
        <path id="Path_763" data-name="Path 763" d="M495.379,463.774l-.881.079.3,3.369q.431-.16.858-.33-.139-1.555-.279-3.118" transform="translate(-402.14 -377.154)" fill="#fff"/>
        <path id="Path_764" data-name="Path 764" d="M524.937,468.636l-.046.027h0l.046-.027" transform="translate(-426.856 -381.108)" fill="#fff"/>
        <path id="Path_765" data-name="Path 765" d="M531.151,464.918l-.054.033.054-.032v0" transform="translate(-431.903 -378.085)" fill="#fff"/>
        <path id="Path_766" data-name="Path 766" d="M531.907,460.482l-.881.079.067.75c.283-.175.564-.352.84-.533-.009-.1-.017-.2-.026-.3" transform="translate(-431.845 -374.477)" fill="#fff"/>
        <path id="Path_767" data-name="Path 767" d="M390.043,207.9l.02.143.1-.031Z" transform="translate(-317.194 -169.066)" fill="#fff"/>
        <path id="Path_768" data-name="Path 768" d="M397.425,117.16c-1.283-.036-3.862,0-5.175.106a.044.044,0,0,0-.025.078,2.021,2.021,0,0,1,.488,1.691,2.116,2.116,0,0,1-.149.562l-3.2,7.72.741,6.745a18.442,18.442,0,0,1,5.044-.7,19.773,19.773,0,0,1,9.335,2.56l1.6-3.006c-.281-.316-1.1-1.294-1.221-1.416-.184-.19-.362-.385-.546-.576-.015-.016-.051-.016-.078-.016l-1.4-.025-1.337-.024c-.341-.007-.682-.014-1.023-.024-.216-.007-.432-.016-.648-.029a1.578,1.578,0,0,1-1.11-.632c-.129-.149-.27-.287-.406-.429l-1.084-1.133-1-1.046c-.288-.3-.572-.609-.866-.906a.87.87,0,0,1,.018-1.145.258.258,0,0,0,.024-.027.851.851,0,0,1,1.246-.068c.145.126.274.27.412.4.3.289.579.664.875.953.353.345.672.792,1.023,1.139.134.132.312.3.451.422a.747.747,0,0,0,.515.2c.349,0,.7.015,1.047.023l1.084.024a.3.3,0,0,0,.06,0c.035-.007.07-.018.1-.027-.032-.022-.062-.273-.095-.275-.216-.013-.433-.022-.649-.027-.466-.01-.933-.012-1.4-.028a1.1,1.1,0,0,1-.661-.257.955.955,0,0,1,.06-1.367,1.153,1.153,0,0,1,.521-.234,2.268,2.268,0,0,1,.3.009c.635.009,1.27.015,1.905.025.353.005.706.013,1.059.024a1.327,1.327,0,0,1,1.011.483.508.508,0,0,0,.052.05c.3.265.595.529.891.794q.6.539,1.2,1.081c.191.173.582.477.872.717l4.507-9.637a46.074,46.074,0,0,0-14.376-2.758m6.273,5.39a3.773,3.773,0,0,1-.931,1.175c-.685.608-1.385,1.2-2.079,1.8-.007.006-.019.006-.036.012-.687-.591-1.381-1.178-2.063-1.777a4.182,4.182,0,0,1-.824-.963,2.072,2.072,0,0,1,.057-2.331,1.667,1.667,0,0,1,2.173-.508,2.066,2.066,0,0,1,.674.652l.088-.124a1.655,1.655,0,0,1,2.661-.131,2.033,2.033,0,0,1,.281,2.2" transform="translate(-316.642 -95.267)" fill="#fff"/>
        <path id="Path_769" data-name="Path 769" d="M281.526,233.741c-25.035,10.49-52.207-10.6-49.137-37.445a34.707,34.707,0,0,1,10.689-21.534,37.931,37.931,0,0,0-8.769,21.7,36.35,36.35,0,0,0,18.482,34.1,37.713,37.713,0,0,0,28.735,3.174" transform="translate(-188.792 -142.121)" fill="#fff"/>
        <path id="Path_770" data-name="Path 770" d="M252.561,210.287a28.422,28.422,0,0,1-3.934-3.634,27.868,27.868,0,0,1,2.181-39.409q.238-.213.481-.419l-.28-.28c-.159.126-.317.253-.473.383a29.393,29.393,0,0,0,5.243,48.783,29.289,29.289,0,0,0,5.5,2.169,39.8,39.8,0,0,0,7.266,1.535l-.987-3.044A37.235,37.235,0,0,1,257.1,213.1a28.148,28.148,0,0,1-4.538-2.811" transform="translate(-195.068 -135.438)" fill="#fff"/>
        <path id="Path_771" data-name="Path 771" d="M563.958,147.012a.071.071,0,0,0,0,.143.071.071,0,0,0,0-.143" transform="translate(-458.571 -119.554)" fill="#fff"/>
        <path id="Path_772" data-name="Path 772" d="M478.494,132.436l-8.385,15.95a17.658,17.658,0,0,1,6.663,6.032s.015.094.016.093-.01.365-.019.351c.066-.3.146-.6.174-.691l.035,0a6.649,6.649,0,0,1,.855-1.912,2.694,2.694,0,0,1,.741-.736c.017-.011.032-.024.049-.035.132-.083.256-.173.383-.261a10.64,10.64,0,0,0,2.435-2.359,12.761,12.761,0,0,0,1-1.549c.038-.069.071-.14.106-.209.1-.2.2-.4.3-.6.066-.138.131-.276.2-.413l-.016-.009-.018-.01a.349.349,0,0,0-.031.045,10.424,10.424,0,0,1-.7,1.223,12.375,12.375,0,0,1-1.476,1.813,13.674,13.674,0,0,1-2.131,1.779c-.082.055-.161.114-.245.168a4.743,4.743,0,0,0-.7.547,4.9,4.9,0,0,0-.583.665c-.014.019-.031.038-.056.069l-.009.011c-.055-.107-.109-.2-.15-.292a5.526,5.526,0,0,1-.455-2.421c0-.055,0-.109.007-.164a4.656,4.656,0,0,1,.933-2.5q.117-.157.249-.308a6.9,6.9,0,0,1,2.194-1.65q.178-.088.36-.168a18.178,18.178,0,0,1,1.814-.676c.158-.05.311-.108.462-.17a7.346,7.346,0,0,0,1.684-.98l.145-.114c.04.078.08.153.118.227s.075.147.11.221c.076.164.145.329.211.5s.134.357.191.538q.072.227.132.457c.013.049.025.1.037.146a8.374,8.374,0,0,1,.168.93q.045.367.058.733a7.044,7.044,0,0,1-.206,2.006c-.01.041-.019.082-.03.123a5.677,5.677,0,0,1-.992,1.922,5.852,5.852,0,0,1-.585.662,5.27,5.27,0,0,1-.968.743c-.071.042-.142.084-.215.123-.044.024-.089.044-.134.067a5.39,5.39,0,0,1-2.116.554c-.065,0-.13,0-.2.005-.207.006-.413.005-.618-.007a6.873,6.873,0,0,1-.835-.1.292.292,0,0,0-.034,0,.132.132,0,0,0-.113.041.218.218,0,0,0-.029.033,17.57,17.57,0,0,0-1,2.862c-.008-.014.1.036.1.022,0,0,.169.215.078.14.494.887,1.873,1.155,2.217,2.117l17-5.627a36.879,36.879,0,0,0-18.179-19.944" transform="translate(-382.306 -107.701)" fill="#fff"/>
        <path id="Path_773" data-name="Path 773" d="M390.062,208.039l.1-.031-.123-.113Z" transform="translate(-317.193 -169.067)" fill="#fff"/>
        <path id="Path_774" data-name="Path 774" d="M397.335,197.4a21.375,21.375,0,0,0-4.812.551l.151,1.375a18.441,18.441,0,0,1,5.044-.7,19.658,19.658,0,0,1,9.3,2.579l.589-1.155a22.829,22.829,0,0,0-10.272-2.647" transform="translate(-319.211 -160.531)" fill="#fff"/>
        <path id="Path_775" data-name="Path 775" d="M520.356,245.84l-17.7,5.048a16.4,16.4,0,0,1,.913,5.8,18.4,18.4,0,0,1-3.839,11.275l16.945,7.411c3.789-5.014,5.572-12.035,5.479-18.232-.059-3.954-.452-8.027-1.8-11.3m-2.115,14.453a4.843,4.843,0,0,1-.885,1.781,12.36,12.36,0,0,1-1.587,1.715c-.737.674-1.486,1.337-2.234,2a.829.829,0,0,1-.321.177.457.457,0,0,1-.423-.143c-.664-.584-1.334-1.162-1.994-1.752a14.994,14.994,0,0,1-1.782-1.8,4.551,4.551,0,0,1-.967-1.925c-.04-.2-.061-.4-.09-.6V259.3c.027-.169.041-.342.084-.507a2.948,2.948,0,0,1,2.4-2.3,3.014,3.014,0,0,1,2.088.325c.216.116.416.26.614.386.223-.139.443-.3.682-.418a3.077,3.077,0,0,1,4.415,3.5" transform="translate(-406.398 -199.924)" fill="#fff"/>
        <path id="Path_776" data-name="Path 776" d="M565.238,317.618h-1.252v-1.251H562.73v1.258h-1.251v1.258h1.253v1.249h1.257c0-.418,0-.829,0-1.252h1.248Z" transform="translate(-456.611 -257.279)" fill="#fff"/>
        <path id="Path_777" data-name="Path 777" d="M500.98,288.794a19.614,19.614,0,0,0,4.014-11.917,17.662,17.662,0,0,0-.955-6.149l-1.382.408a16.361,16.361,0,0,1,.917,5.788,18.4,18.4,0,0,1-3.839,11.275Z" transform="translate(-406.399 -220.164)" fill="#fff"/>
        <path id="Path_778" data-name="Path 778" d="M436.161,364.786l-1.2-.637a18.64,18.64,0,0,1-14.671,7.226c-.082,0-.163,0-.245,0l.2,1.377a20.939,20.939,0,0,0,15.92-7.963" transform="translate(-341.589 -296.136)" fill="#fff"/>
        <path id="Path_779" data-name="Path 779" d="M476.951,218.593h0a8.683,8.683,0,0,1,.289-.837,20.413,20.413,0,0,0-6.561-6.1l-.6,1.143a18.731,18.731,0,0,1,6.664,6.461c.078-.252.183-.577.21-.669" transform="translate(-382.28 -172.126)" fill="#fff"/>
        <g id="Group_227" data-name="Group 227" transform="translate(94.975 46.405)" style="mix-blend-mode: overlay;isolation: isolate">
          <g id="Group_226" data-name="Group 226">
            <g id="Group_225" data-name="Group 225" clip-path="url(#clip-path-3)">
              <path id="Path_780" data-name="Path 780" d="M508.51,250.077a19.084,19.084,0,0,1,1.169,2.645l1.257-.373a20.8,20.8,0,0,0-1.929-3.892c-.211.622-.413,1.3-.5,1.62" transform="translate(-508.51 -248.458)" fill="#fff"/>
            </g>
          </g>
        </g>
        <path id="Path_781" data-name="Path 781" d="M327.551,73.663s.306-5.771,7.571-6.9c0,0-17.435-3.4-19.494,8.662Z" transform="translate(-256.677 -53.932)" fill="#fff"/>
        <path id="Path_782" data-name="Path 782" d="M309.8,33.642c1.85-10.681,16.092-9.644,19.624-9.218a19.538,19.538,0,0,0,3.243.123c4-.185,11.367-1.494,10.19-8.729,0,0-.08,5.583-13.53,5.76,0,0-19.972-.141-19.527,12.065" transform="translate(-251.931 -12.864)" fill="#fff"/>
        <path id="Path_783" data-name="Path 783" d="M421.455,7.465s4.615-.267,7.6-1.894a5.676,5.676,0,0,0,2.023-1.905c.711-1.093,2.192-3.114,3.734-3.666,0,0-5.7.287-8.263,3.2a4.7,4.7,0,0,0-.432.592,10.378,10.378,0,0,1-4.659,3.67" transform="translate(-342.739)" fill="#fff"/>
        <path id="Path_784" data-name="Path 784" d="M312.526,110.181l1.519,2.253a.937.937,0,0,1,.089.882l-3.007,7.277a.938.938,0,0,1-.647.554l-11.214,2.7a.079.079,0,0,1-.065-.142c.87-.6,3.679-2.223,9.495-2.843a34.185,34.185,0,0,0-10.255,1.309.935.935,0,0,1-1.036-.348L293.7,116.67a.122.122,0,0,1,.057-.187c1.219-.444,9.56-3.414,15.357-3.715,0,0-5.013-.55-15.271,2.44a.125.125,0,0,1-.155-.156l.605-1.957a.935.935,0,0,1,.62-.619,62.049,62.049,0,0,1,16.852-2.709.935.935,0,0,1,.765.415" transform="translate(-238.822 -89.264)" fill="#fff"/>
        <path id="Path_785" data-name="Path 785" d="M206.424,320.783a.735.735,0,0,0,.08.293.312.312,0,0,0,.318.127l2.478-.21a.311.311,0,0,0,.288-.168.79.79,0,0,0,.033-.313l.13-.011.134,1.581a2.355,2.355,0,0,1-.041.768.731.731,0,0,1-.671.631.615.615,0,0,1-.523-.188,1.119,1.119,0,0,1-.279-.481l-.047,0a1.452,1.452,0,0,1-.143.51.813.813,0,0,1-1.4.136,1.852,1.852,0,0,1-.352-1.022l-.14-1.646Zm.256,1.294a.253.253,0,0,0-.09.25.594.594,0,0,0,.241.491.935.935,0,0,0,.575.1.758.758,0,0,0,.7-.384,1.253,1.253,0,0,0,.05-.621l-1.279.109a.413.413,0,0,0-.194.056m1.837.445a.746.746,0,0,0,.563.116,1.039,1.039,0,0,0,.483-.148.421.421,0,0,0,.165-.425.348.348,0,0,0-.072-.218.248.248,0,0,0-.2-.046l-1.149.1a.951.951,0,0,0,.209.624" transform="translate(-167.764 -260.641)" fill="#fff"/>
        <path id="Path_786" data-name="Path 786" d="M210.6,340.483a1.015,1.015,0,0,1,.443.7.918.918,0,0,1-.056.492.893.893,0,0,1-.31.4,1.414,1.414,0,0,1-.436.2,1.68,1.68,0,0,1-.2.049l-.207-1.295a1.865,1.865,0,0,0-.512.183.544.544,0,0,0-.335.59.585.585,0,0,0,.165.32,1.571,1.571,0,0,0,.264.2l-.053.128a1.373,1.373,0,0,1-.624-.459,1.066,1.066,0,0,1-.17-.446,1.044,1.044,0,0,1,.183-.748,1.223,1.223,0,0,1,.888-.478,1.27,1.27,0,0,1,.957.166m-.468,1.18a2.18,2.18,0,0,0,.615-.17.255.255,0,0,0,.137-.287.275.275,0,0,0-.249-.239,2.048,2.048,0,0,0-.612.013Z" transform="translate(-169.607 -276.735)" fill="#fff"/>
        <path id="Path_787" data-name="Path 787" d="M210.335,350.783a.423.423,0,0,0,.124.17.318.318,0,0,0,.231.009l2.559-.536a.307.307,0,0,0,.2-.1.425.425,0,0,0,.041-.208l.12-.025.2.952-2.972.622a.322.322,0,0,0-.207.1.447.447,0,0,0-.046.209l-.12.025-.251-1.2Z" transform="translate(-170.953 -284.709)" fill="#fff"/>
        <path id="Path_788" data-name="Path 788" d="M212.013,359.3a.379.379,0,0,0,.111.164.318.318,0,0,0,.254.014l1.465-.363a.321.321,0,0,0,.195-.1.381.381,0,0,0,.032-.222l.119-.03.238.956-1.893.47a.314.314,0,0,0-.2.1.393.393,0,0,0-.027.2l-.119.03-.3-1.187Zm3.293-.465a.4.4,0,1,1-.3-.045.383.383,0,0,1,.3.045" transform="translate(-172.318 -291.75)" fill="#fff"/>
        <path id="Path_789" data-name="Path 789" d="M216.843,367.877a1.015,1.015,0,0,1,.532.633.916.916,0,0,1,.01.5.89.89,0,0,1-.254.435,1.406,1.406,0,0,1-.406.253,1.647,1.647,0,0,1-.189.075l-.377-1.256a1.861,1.861,0,0,0-.483.249.544.544,0,0,0-.253.63.584.584,0,0,0,.206.295,1.563,1.563,0,0,0,.289.168l-.036.134a1.372,1.372,0,0,1-.68-.372,1.065,1.065,0,0,1-.228-.419,1.046,1.046,0,0,1,.081-.766,1.224,1.224,0,0,1,.817-.591,1.272,1.272,0,0,1,.971.038m-.307,1.232a2.167,2.167,0,0,0,.587-.25.254.254,0,0,0,.1-.3.276.276,0,0,0-.278-.2,2.052,2.052,0,0,0-.605.094Z" transform="translate(-174.791 -299.075)" fill="#fff"/>
        <path id="Path_790" data-name="Path 790" d="M221.709,379.088l-.115.043a.706.706,0,0,0-.1-.182.1.1,0,0,0-.125-.027.27.27,0,0,0-.063.043l-.064.055-.786.717.006.016.948.03a.941.941,0,0,0,.134-.006.449.449,0,0,0,.1-.021c.067-.025.1-.064.1-.116a.632.632,0,0,0-.044-.208l.115-.043.27.728-.115.043a.272.272,0,0,0-.121-.135.6.6,0,0,0-.243-.046l-2.2-.069-.045-.122,1.214-1.107q.128-.117.239-.224c.073-.071.144-.143.212-.216a.669.669,0,0,0,.122-.163.267.267,0,0,0-.008-.152l.115-.043Z" transform="translate(-178.398 -307.306)" fill="#fff"/>
        <path id="Path_791" data-name="Path 791" d="M226.071,392.764a1.017,1.017,0,0,1,.607.562.919.919,0,0,1,.072.49.893.893,0,0,1-.2.464,1.4,1.4,0,0,1-.371.3,1.727,1.727,0,0,1-.178.1l-.532-1.2a1.87,1.87,0,0,0-.447.309.544.544,0,0,0-.172.656.582.582,0,0,0,.241.267,1.573,1.573,0,0,0,.308.13l-.019.137a1.368,1.368,0,0,1-.721-.284,1.066,1.066,0,0,1-.279-.387,1.047,1.047,0,0,1-.016-.77,1.224,1.224,0,0,1,.737-.689,1.27,1.27,0,0,1,.968-.085m-.15,1.261a2.164,2.164,0,0,0,.551-.322.254.254,0,0,0,.059-.312.275.275,0,0,0-.3-.167,2.05,2.05,0,0,0-.589.169Z" transform="translate(-182.408 -319.357)" fill="#fff"/>
        <path id="Path_792" data-name="Path 792" d="M231.437,408.126a.378.378,0,0,0,.148.13.317.317,0,0,0,.249-.05l1.326-.722a.319.319,0,0,0,.163-.148.378.378,0,0,0-.025-.223l.108-.059.471.865-1.713.933c-.1.054-.154.1-.165.147a.393.393,0,0,0,.024.2l-.108.059-.585-1.074Zm3.069-1.282a.4.4,0,0,1-.227.763.38.38,0,0,1-.236-.19.4.4,0,0,1,.463-.573" transform="translate(-188.123 -330.843)" fill="#fff"/>
        <path id="Path_793" data-name="Path 793" d="M235.384,416a.382.382,0,0,0,.174.136.313.313,0,0,0,.234-.067l1.283-.794a.331.331,0,0,0,.157-.16.354.354,0,0,0-.047-.229l.1-.065.512.827-.313.194a1.058,1.058,0,0,1,.425.1.763.763,0,0,1,.325.293.722.722,0,0,1,.125.526.8.8,0,0,1-.414.47l-1.055.653c-.1.061-.151.117-.159.168a.38.38,0,0,0,.046.2l-.1.065-.634-1.026.1-.065a.394.394,0,0,0,.163.12.314.314,0,0,0,.21-.071l1.057-.654a.758.758,0,0,0,.205-.168.232.232,0,0,0,.009-.285.365.365,0,0,0-.211-.157.841.841,0,0,0-.256-.044l-1.168.723q-.143.088-.157.156a.4.4,0,0,0,.035.2l-.1.065-.65-1.051Z" transform="translate(-191.336 -337.34)" fill="#fff"/>
        <path id="Path_794" data-name="Path 794" d="M248.129,431.848a.792.792,0,0,0,.231.218.314.314,0,0,0,.34-.063l1.981-1.5a.31.31,0,0,0,.153-.3.84.84,0,0,0-.148-.29l.1-.078,1.085,1.43-.1.078a.91.91,0,0,0-.244-.23.31.31,0,0,0-.335.065l-1.981,1.5a.311.311,0,0,0-.157.27.712.712,0,0,0,.16.331l-.1.079-1.085-1.43Z" transform="translate(-201.701 -349.549)" fill="#fff"/>
        <path id="Path_795" data-name="Path 795" d="M255.05,443.424a.38.38,0,0,0,.193.107.311.311,0,0,0,.221-.1l1.143-.985a.333.333,0,0,0,.13-.183.355.355,0,0,0-.082-.219l.093-.08.635.737-.279.24a1.061,1.061,0,0,1,.436.036.763.763,0,0,1,.366.239.72.72,0,0,1,.205.5.8.8,0,0,1-.335.529l-.94.81q-.131.113-.131.19a.379.379,0,0,0,.077.193l-.093.08-.787-.914.093-.08a.4.4,0,0,0,.18.093q.069.007.2-.1l.942-.812a.756.756,0,0,0,.177-.2.233.233,0,0,0-.036-.284.364.364,0,0,0-.233-.122.85.85,0,0,0-.259,0l-1.041.9c-.085.073-.128.133-.131.179a.391.391,0,0,0,.066.191l-.093.08-.807-.936Z" transform="translate(-207.338 -359.415)" fill="#fff"/>
        <path id="Path_796" data-name="Path 796" d="M269.046,454.437a.874.874,0,0,1,.741.244.659.659,0,0,1,.184.327,1.344,1.344,0,0,1,.021.326l.666-.664q.138-.137.118-.224a.732.732,0,0,0-.179-.26l.087-.087.781.783-2.093,2.087a.312.312,0,0,0-.113.2.384.384,0,0,0,.113.221l-.083.083q-.335-.275-.438-.349t-.389-.236l.24-.239a1.359,1.359,0,0,1-.346-.03.777.777,0,0,1-.372-.21.844.844,0,0,1-.237-.688,1.268,1.268,0,0,1,.416-.808,1.47,1.47,0,0,1,.885-.474m-.382,2.033a.437.437,0,0,0,.241-.053l.884-.882a.35.35,0,0,0,.051-.211.389.389,0,0,0-.124-.3q-.194-.194-.531,0a2.392,2.392,0,0,0-.444.368,2.636,2.636,0,0,0-.387.457q-.192.323-.005.51a.392.392,0,0,0,.315.106" transform="translate(-217.735 -369.285)" fill="#fff"/>
        <path id="Path_797" data-name="Path 797" d="M277.066,463.469a.378.378,0,0,0,.183.074.318.318,0,0,0,.218-.13l1.009-1.123a.321.321,0,0,0,.1-.194.382.382,0,0,0-.1-.2l.082-.091.733.658-1.3,1.451c-.075.084-.111.148-.107.194a.4.4,0,0,0,.09.182l-.082.092-.91-.818Zm2.466-2.232a.4.4,0,0,1,.041.795.4.4,0,0,1-.418-.375.4.4,0,0,1,.377-.419" transform="translate(-225.251 -375.091)" fill="#fff"/>
        <path id="Path_798" data-name="Path 798" d="M284.953,472.2a4.527,4.527,0,0,1,1.07.34l.235-.29a.5.5,0,0,0,.137-.323.442.442,0,0,0-.2-.3.453.453,0,0,0-.209-.1.15.15,0,0,0-.151.044.109.109,0,0,0-.024.045.205.205,0,0,0,0,.052v.046a.375.375,0,0,1-.015.109.286.286,0,0,1-.052.1.274.274,0,0,1-.216.114.344.344,0,0,1-.224-.08.378.378,0,0,1-.141-.227.311.311,0,0,1,.078-.261.527.527,0,0,1,.511-.188,1.273,1.273,0,0,1,.64.3,1.45,1.45,0,0,1,.461.59.664.664,0,0,1-.169.67l-.783.966a.155.155,0,0,0-.037.092.079.079,0,0,0,.025.07.122.122,0,0,0,.049.025.343.343,0,0,0,.1,0l-.007.132a.836.836,0,0,1-.414-.019.656.656,0,0,1-.217-.118.4.4,0,0,1-.175-.313.508.508,0,0,1,.072-.229,1.2,1.2,0,0,1-.564-.069,1,1,0,0,1-.284-.159.654.654,0,0,1-.221-.352.483.483,0,0,1,.121-.44.619.619,0,0,1,.605-.217m.279,1.077a1.017,1.017,0,0,0,.2-.019l.473-.584a1.075,1.075,0,0,0-.38-.1.551.551,0,0,0-.5.2.377.377,0,0,0-.1.247.226.226,0,0,0,.079.176.4.4,0,0,0,.229.088" transform="translate(-231.13 -383.246)" fill="#fff"/>
        <rect id="Rectangle_76" data-name="Rectangle 76" width="3.54" height="0.524" transform="translate(56.26 92.105) rotate(-55.574)" fill="#fff"/>
        <path id="Path_799" data-name="Path 799" d="M312.031,487.042a.736.736,0,0,0,.287.1.312.312,0,0,0,.283-.193l1.212-2.172a.31.31,0,0,0,.022-.333.792.792,0,0,0-.24-.2l.064-.114,1.386.774a2.352,2.352,0,0,1,.614.463.732.732,0,0,1,.147.909.615.615,0,0,1-.449.328,1.122,1.122,0,0,1-.555-.038l-.023.041a1.468,1.468,0,0,1,.343.4.812.812,0,0,1-.668,1.233,1.85,1.85,0,0,1-1.044-.28l-1.443-.805Zm1.216.512a.252.252,0,0,0,.157.213.6.6,0,0,0,.542.076.934.934,0,0,0,.4-.421.759.759,0,0,0,.072-.793,1.259,1.259,0,0,0-.486-.389l-.625,1.121a.414.414,0,0,0-.062.193m1.4-1.273a.748.748,0,0,0,.411-.4,1.04,1.04,0,0,0,.148-.484.421.421,0,0,0-.26-.375.351.351,0,0,0-.221-.062.25.25,0,0,0-.15.139l-.562,1.007a.95.95,0,0,0,.634.176" transform="translate(-253.7 -393.705)" fill="#fff"/>
        <path id="Path_800" data-name="Path 800" d="M331.618,499.847a1.017,1.017,0,0,1,.827.024.918.918,0,0,1,.376.322.893.893,0,0,1,.156.479,1.406,1.406,0,0,1-.081.471,1.7,1.7,0,0,1-.07.192l-1.189-.553a1.863,1.863,0,0,0-.134.527.544.544,0,0,0,.3.608.588.588,0,0,0,.357.042,1.55,1.55,0,0,0,.317-.1l.076.115a1.369,1.369,0,0,1-.73.26,1.06,1.06,0,0,1-.465-.108,1.047,1.047,0,0,1-.518-.57,1.224,1.224,0,0,1,.1-1,1.271,1.271,0,0,1,.673-.7m.716,1.048a2.172,2.172,0,0,0,.2-.6.255.255,0,0,0-.161-.274.276.276,0,0,0-.337.072,2.064,2.064,0,0,0-.332.515Z" transform="translate(-268.996 -406.428)" fill="#fff"/>
        <path id="Path_801" data-name="Path 801" d="M340.565,500.8a.419.419,0,0,0,.21-.007q.073-.028.137-.186l.988-2.421a.309.309,0,0,0,.033-.219.427.427,0,0,0-.15-.151l.046-.114.9.368-1.148,2.811a.319.319,0,0,0-.033.228.448.448,0,0,0,.148.155l-.047.114-1.133-.462Z" transform="translate(-276.92 -404.742)" fill="#fff"/>
        <path id="Path_802" data-name="Path 802" d="M348.087,504.143a.384.384,0,0,0,.2,0,.318.318,0,0,0,.154-.2l.518-1.417a.321.321,0,0,0,.024-.219.379.379,0,0,0-.166-.151l.042-.115.925.338-.67,1.832a.315.315,0,0,0-.027.22.4.4,0,0,0,.151.135l-.042.115-1.149-.42Zm1.457-2.99a.4.4,0,1,1-.206.225.383.383,0,0,1,.206-.225" transform="translate(-283.04 -407.521)" fill="#fff"/>
        <path id="Path_803" data-name="Path 803" d="M358.027,510.04a1.016,1.016,0,0,1,.822-.086.92.92,0,0,1,.416.269.893.893,0,0,1,.219.454,1.412,1.412,0,0,1-.018.478,1.692,1.692,0,0,1-.044.2l-1.252-.39a1.864,1.864,0,0,0-.063.54.544.544,0,0,0,.38.562.587.587,0,0,0,.36-.006,1.533,1.533,0,0,0,.3-.145l.091.1a1.37,1.37,0,0,1-.689.355,1.06,1.06,0,0,1-.475-.046,1.046,1.046,0,0,1-.589-.5,1.224,1.224,0,0,1-.033-1.008,1.271,1.271,0,0,1,.574-.783m.849.944a2.181,2.181,0,0,0,.121-.627.254.254,0,0,0-.2-.25.276.276,0,0,0-.325.117,2.056,2.056,0,0,0-.261.554Z" transform="translate(-290.618 -414.669)" fill="#fff"/>
        <path id="Path_804" data-name="Path 804" d="M372.354,512.649l-.029.12a.7.7,0,0,0-.207-.019.1.1,0,0,0-.092.088.282.282,0,0,0,0,.076c0,.038.007.066.009.084l.154,1.053.016,0,.555-.769a1.015,1.015,0,0,0,.07-.115.433.433,0,0,0,.04-.1.129.129,0,0,0-.038-.15.63.63,0,0,0-.2-.08l.029-.12.754.184-.029.119a.275.275,0,0,0-.179.025.6.6,0,0,0-.174.176l-1.286,1.782-.127-.031-.238-1.626q-.025-.172-.052-.323c-.018-.1-.038-.2-.061-.3a.672.672,0,0,0-.067-.192.266.266,0,0,0-.131-.078l.029-.12Z" transform="translate(-301.77 -416.654)" fill="#fff"/>
        <path id="Path_805" data-name="Path 805" d="M383.957,516.382a1.016,1.016,0,0,1,.8-.189.918.918,0,0,1,.446.214.892.892,0,0,1,.274.423,1.412,1.412,0,0,1,.043.476,1.688,1.688,0,0,1-.018.2l-1.291-.23a1.862,1.862,0,0,0,.005.543.544.544,0,0,0,.448.51.585.585,0,0,0,.356-.051,1.548,1.548,0,0,0,.28-.182l.1.092a1.369,1.369,0,0,1-.639.439,1.069,1.069,0,0,1-.477.015,1.049,1.049,0,0,1-.647-.419,1.222,1.222,0,0,1-.159-1,1.27,1.27,0,0,1,.471-.849m.961.829a2.183,2.183,0,0,0,.042-.637.255.255,0,0,0-.226-.224.276.276,0,0,0-.308.157,2.043,2.043,0,0,0-.189.583Z" transform="translate(-311.834 -419.769)" fill="#fff"/>
        <path id="Path_806" data-name="Path 806" d="M402.277,515.845a.379.379,0,0,0,.191-.05.317.317,0,0,0,.1-.235l.143-1.5a.323.323,0,0,0-.032-.218.382.382,0,0,0-.2-.1l.012-.122.981.093-.185,1.942a.313.313,0,0,0,.03.219.4.4,0,0,0,.18.093l-.012.123-1.218-.116Zm.655-3.26a.4.4,0,1,1-.143.27.383.383,0,0,1,.143-.27" transform="translate(-327.133 -416.774)" fill="#fff"/>
        <path id="Path_807" data-name="Path 807" d="M410.56,521.539a.377.377,0,0,0,.21-.068.311.311,0,0,0,.076-.231l.06-1.508a.332.332,0,0,0-.045-.22.353.353,0,0,0-.216-.09l0-.123.972.039-.015.368a1.048,1.048,0,0,1,.324-.294.761.761,0,0,1,.424-.1.72.72,0,0,1,.505.191.8.8,0,0,1,.158.606l-.05,1.241a.3.3,0,0,0,.05.225.379.379,0,0,0,.194.076l-.005.122-1.2-.048.005-.123a.394.394,0,0,0,.191-.068.316.316,0,0,0,.059-.214l.05-1.242a.746.746,0,0,0-.024-.264.232.232,0,0,0-.232-.168.367.367,0,0,0-.248.087.848.848,0,0,0-.179.187l-.055,1.373a.315.315,0,0,0,.041.218.393.393,0,0,0,.185.082l0,.123-1.235-.049Z" transform="translate(-333.875 -422.309)" fill="#fff"/>
        <path id="Path_808" data-name="Path 808" d="M436.333,512.475a2.534,2.534,0,0,0,.374.091.188.188,0,0,0,.151-.087.357.357,0,0,0,.062-.163l.143-.011.091,1.2-.13.01a2.8,2.8,0,0,0-.424-.586,1.063,1.063,0,0,0-.846-.353.752.752,0,0,0-.7.5,2.758,2.758,0,0,0-.125,1.207,2.728,2.728,0,0,0,.2.9.885.885,0,0,0,.932.6,1.334,1.334,0,0,0,.717-.276,2.763,2.763,0,0,0,.428-.442l.162.113a2.912,2.912,0,0,1-.49.525,1.6,1.6,0,0,1-.879.336,1.863,1.863,0,0,1-1.3-.353,1.7,1.7,0,0,1-.67-1.3,1.79,1.79,0,0,1,.439-1.394,1.75,1.75,0,0,1,1.213-.58,1.9,1.9,0,0,1,.656.069" transform="translate(-352.955 -416.621)" fill="#fff"/>
        <path id="Path_809" data-name="Path 809" d="M452.6,514.994a.378.378,0,0,0,.192-.109.311.311,0,0,0,.028-.242l-.419-2.581a.326.326,0,0,0-.089-.2.349.349,0,0,0-.228-.046l-.02-.121.98-.159.231,1.425a1.314,1.314,0,0,1,.281-.344.752.752,0,0,1,.371-.165.707.707,0,0,1,.51.091.754.754,0,0,1,.284.547l.2,1.218a.313.313,0,0,0,.095.214.426.426,0,0,0,.208.051l.02.122-1.19.193-.02-.121a.4.4,0,0,0,.174-.1.317.317,0,0,0,.015-.221l-.2-1.227a.755.755,0,0,0-.077-.255.232.232,0,0,0-.26-.117.425.425,0,0,0-.251.165c-.08.1-.118.159-.113.188l.22,1.356a.315.315,0,0,0,.084.2.4.4,0,0,0,.2.044l.02.122-1.22.2Z" transform="translate(-367.63 -415.992)" fill="#fff"/>
        <path id="Path_810" data-name="Path 810" d="M469.651,514.309a1.079,1.079,0,0,1,.724-.539,1.064,1.064,0,0,1,.9.166,1.29,1.29,0,0,1,.52.789,1.3,1.3,0,0,1-.11.934,1.056,1.056,0,0,1-.73.552,1.075,1.075,0,0,1-.89-.159,1.38,1.38,0,0,1-.409-1.742m.846,1.5q.162.3.416.245a.318.318,0,0,0,.258-.324,3.148,3.148,0,0,0-.115-.828,3.012,3.012,0,0,0-.27-.79.319.319,0,0,0-.37-.177c-.169.04-.257.175-.263.4a3.4,3.4,0,0,0,.117.748,3.476,3.476,0,0,0,.227.722" transform="translate(-381.806 -417.784)" fill="#fff"/>
        <path id="Path_811" data-name="Path 811" d="M480.752,508.809a.425.425,0,0,0,.16-.137.318.318,0,0,0-.009-.231l-.731-2.51a.31.31,0,0,0-.111-.192.426.426,0,0,0-.211-.026l-.034-.118.934-.272.849,2.915a.318.318,0,0,0,.115.2.446.446,0,0,0,.212.03l.035.118-1.175.342Z" transform="translate(-390.2 -410.943)" fill="#fff"/>
        <path id="Path_812" data-name="Path 812" d="M490.937,509.239a4.524,4.524,0,0,1,.852-.731l-.123-.353a.5.5,0,0,0-.2-.287.441.441,0,0,0-.359.01.454.454,0,0,0-.2.123.15.15,0,0,0-.042.151.112.112,0,0,0,.026.044.185.185,0,0,0,.042.03l.04.024a.351.351,0,0,1,.084.07.28.28,0,0,1,.056.1.273.273,0,0,1-.017.244.343.343,0,0,1-.186.149.379.379,0,0,1-.267,0,.311.311,0,0,1-.181-.2.528.528,0,0,1,.109-.533,1.279,1.279,0,0,1,.589-.389,1.452,1.452,0,0,1,.744-.081.665.665,0,0,1,.481.5l.409,1.174a.155.155,0,0,0,.058.079.082.082,0,0,0,.073.016.123.123,0,0,0,.047-.028.332.332,0,0,0,.049-.082l.109.076a.832.832,0,0,1-.234.342.659.659,0,0,1-.215.123.4.4,0,0,1-.359-.016.511.511,0,0,1-.156-.182,1.2,1.2,0,0,1-.355.443.994.994,0,0,1-.285.158.654.654,0,0,1-.416,0,.485.485,0,0,1-.311-.335.619.619,0,0,1,.134-.629m1.063.33a1.006,1.006,0,0,0,.089-.18l-.247-.71a1.07,1.07,0,0,0-.289.269.551.551,0,0,0-.095.528.376.376,0,0,0,.156.216.225.225,0,0,0,.191.025.4.4,0,0,0,.2-.148" transform="translate(-398.834 -412.781)" fill="#fff"/>
        <rect id="Rectangle_77" data-name="Rectangle 77" width="0.524" height="3.54" transform="translate(94.63 92.81) rotate(-23.851)" fill="#fff"/>
        <path id="Path_813" data-name="Path 813" d="M518.7,490.916a.743.743,0,0,0,.234-.194.314.314,0,0,0-.015-.342l-1.212-2.172a.31.31,0,0,0-.271-.194.789.789,0,0,0-.3.1l-.063-.114,1.386-.773a2.364,2.364,0,0,1,.717-.279.732.732,0,0,1,.851.352.614.614,0,0,1,.043.554,1.118,1.118,0,0,1-.323.452l.023.041a1.464,1.464,0,0,1,.524-.079.813.813,0,0,1,.7,1.216,1.845,1.845,0,0,1-.786.741l-1.443.8Zm.724-2.623a.747.747,0,0,0-.126-.561,1.047,1.047,0,0,0-.334-.38.421.421,0,0,0-.456.025.349.349,0,0,0-.168.156.247.247,0,0,0,.04.2l.562,1.007q.416-.232.483-.447m.35,1.857a.251.251,0,0,0,.264-.021.594.594,0,0,0,.349-.421.935.935,0,0,0-.147-.564.758.758,0,0,0-.637-.478,1.255,1.255,0,0,0-.586.209l.625,1.121a.412.412,0,0,0,.131.153" transform="translate(-420.5 -395.983)" fill="#fff"/>
        <path id="Path_814" data-name="Path 814" d="M538.172,485.276a1.017,1.017,0,0,1,.454-.691.92.92,0,0,1,.471-.151.893.893,0,0,1,.49.119,1.41,1.41,0,0,1,.358.316,1.65,1.65,0,0,1,.126.16l-1.1.721a1.859,1.859,0,0,0,.378.391.543.543,0,0,0,.676.062.58.58,0,0,0,.223-.282,1.565,1.565,0,0,0,.078-.324l.138,0a1.371,1.371,0,0,1-.162.758,1.059,1.059,0,0,1-.336.339,1.048,1.048,0,0,1-.757.141,1.223,1.223,0,0,1-.8-.613,1.272,1.272,0,0,1-.242-.941m1.268-.059a2.172,2.172,0,0,0-.408-.491.254.254,0,0,0-.318-.007.277.277,0,0,0-.116.326,2.059,2.059,0,0,0,.263.553Z" transform="translate(-437.643 -393.955)" fill="#fff"/>
        <path id="Path_815" data-name="Path 815" d="M544.561,477.418a.422.422,0,0,0,.1-.183.32.32,0,0,0-.086-.214l-1.54-2.113q-.1-.133-.169-.143a.436.436,0,0,0-.207.048l-.072-.1.786-.573,1.788,2.454q.1.138.176.148a.45.45,0,0,0,.21-.044l.073.1-.989.721Z" transform="translate(-441.25 -385.584)" fill="#fff"/>
        <path id="Path_816" data-name="Path 816" d="M550.121,470.346a.4.4,0,0,1,.79.1.38.38,0,0,1-.148.264.4.4,0,0,1-.642-.361m1.775,2.812a.38.38,0,0,0,.1-.168.318.318,0,0,0-.091-.238l-.933-1.187a.32.32,0,0,0-.174-.135.377.377,0,0,0-.216.062l-.076-.1.775-.609,1.205,1.534q.1.132.173.138a.39.39,0,0,0,.194-.057l.076.1-.962.756Z" transform="translate(-447.371 -382.214)" fill="#fff"/>
        <path id="Path_817" data-name="Path 817" d="M560.571,468.449a1.016,1.016,0,0,1,.36-.744.919.919,0,0,1,.448-.211.892.892,0,0,1,.5.053,1.418,1.418,0,0,1,.4.267,1.719,1.719,0,0,1,.146.142l-.992.858a1.861,1.861,0,0,0,.426.338.544.544,0,0,0,.678-.027.581.581,0,0,0,.184-.309,1.553,1.553,0,0,0,.035-.332l.137-.022a1.372,1.372,0,0,1-.061.772,1.065,1.065,0,0,1-.289.38,1.046,1.046,0,0,1-.732.239,1.224,1.224,0,0,1-.874-.5,1.27,1.27,0,0,1-.363-.9m1.249-.224a2.157,2.157,0,0,0-.468-.433.254.254,0,0,0-.316.035.275.275,0,0,0-.072.338,2.06,2.06,0,0,0,.333.514Z" transform="translate(-455.871 -380.167)" fill="#fff"/>
        <path id="Path_818" data-name="Path 818" d="M568.4,456.643l.086.088a.708.708,0,0,0-.126.165.1.1,0,0,0,.026.125.307.307,0,0,0,.066.04l.076.036.975.425.012-.012-.36-.877a1,1,0,0,0-.06-.12.453.453,0,0,0-.06-.085.13.13,0,0,0-.148-.047.63.63,0,0,0-.172.125l-.086-.088.555-.544.086.088a.272.272,0,0,0-.073.165.6.6,0,0,0,.057.241l.834,2.033-.093.091-1.507-.656q-.159-.069-.3-.126t-.284-.105a.676.676,0,0,0-.2-.045.266.266,0,0,0-.135.07l-.086-.088Z" transform="translate(-461.493 -370.731)" fill="#fff"/>
        <path id="Path_819" data-name="Path 819" d="M579.559,449.973a1.015,1.015,0,0,1,.265-.783.916.916,0,0,1,.418-.265.891.891,0,0,1,.5-.009,1.4,1.4,0,0,1,.427.216,1.684,1.684,0,0,1,.163.123l-.878.974a1.857,1.857,0,0,0,.464.283.544.544,0,0,0,.67-.11.584.584,0,0,0,.145-.329,1.548,1.548,0,0,0-.006-.334l.133-.039a1.369,1.369,0,0,1,.034.774,1.062,1.062,0,0,1-.24.412,1.046,1.046,0,0,1-.7.328,1.224,1.224,0,0,1-.93-.392,1.27,1.27,0,0,1-.471-.849m1.212-.377a2.168,2.168,0,0,0-.518-.372.255.255,0,0,0-.31.073.276.276,0,0,0-.03.344,2.06,2.06,0,0,0,.394.469Z" transform="translate(-471.311 -365.045)" fill="#fff"/>
        <path id="Path_820" data-name="Path 820" d="M586.318,433.794a.4.4,0,1,1,.153.264.385.385,0,0,1-.153-.264m2.419,2.282a.383.383,0,0,0,.059-.188.319.319,0,0,0-.147-.208l-1.2-.917a.323.323,0,0,0-.2-.088.379.379,0,0,0-.194.114l-.1-.074.6-.783,1.549,1.185a.315.315,0,0,0,.2.092.4.4,0,0,0,.174-.1l.1.075-.744.972Z" transform="translate(-476.808 -352.408)" fill="#fff"/>
        <path id="Path_821" data-name="Path 821" d="M596.312,428.182a.377.377,0,0,0,.053-.214q-.011-.088-.156-.187l-1.247-.85a.333.333,0,0,0-.21-.078.356.356,0,0,0-.19.136l-.1-.069.548-.8.3.207a1.049,1.049,0,0,1-.078-.431.761.761,0,0,1,.136-.415.719.719,0,0,1,.43-.328.8.8,0,0,1,.6.187l1.025.7a.3.3,0,0,0,.218.077.382.382,0,0,0,.167-.125l.1.069-.68,1-.1-.069a.4.4,0,0,0,.044-.2c-.008-.046-.058-.1-.15-.163l-1.027-.7a.749.749,0,0,0-.237-.12.232.232,0,0,0-.265.108.366.366,0,0,0-.058.256.856.856,0,0,0,.064.252l1.135.774a.315.315,0,0,0,.206.08.39.39,0,0,0,.168-.113l.1.069-.7,1.021Z" transform="translate(-483.432 -345.735)" fill="#fff"/>
        <path id="Path_822" data-name="Path 822" d="M600.528,395.726l.129.066a1.9,1.9,0,0,0-.134.357.113.113,0,0,0,.066.128.264.264,0,0,0,.083.025q.048.008.18.013l1.563-.042,0-.007-.611-1a2.147,2.147,0,0,0-.144-.212.8.8,0,0,0-.223-.224.2.2,0,0,0-.233.015,1.431,1.431,0,0,0-.21.292l-.129-.066.574-1.114.129.066a1.1,1.1,0,0,0-.048.22.449.449,0,0,0,.065.227l1.078,1.78.933.481a.558.558,0,0,0,.423.094.7.7,0,0,0,.281-.323l.129.066-.905,1.758-.129-.066a.658.658,0,0,0,.1-.425q-.041-.139-.318-.282l-.745-.384-2.16.059a.608.608,0,0,0-.349.105.507.507,0,0,0-.138.158l-.129-.066Z" transform="translate(-487.657 -320.375)" fill="#fff"/>
        <path id="Path_823" data-name="Path 823" d="M615.935,389.995a1.2,1.2,0,0,1-.007-1,1.182,1.182,0,0,1,.737-.693,1.433,1.433,0,0,1,1.048.053,1.449,1.449,0,0,1,.764.712,1.172,1.172,0,0,1,.014,1.017,1.194,1.194,0,0,1-.728.692,1.533,1.533,0,0,1-1.828-.778m1.895.226q.379.055.492-.211a.353.353,0,0,0-.12-.444,3.52,3.52,0,0,0-.817-.441,3.343,3.343,0,0,0-.885-.277.353.353,0,0,0-.4.215q-.113.266.19.5a3.77,3.77,0,0,0,.746.387,3.88,3.88,0,0,0,.8.272" transform="translate(-500.804 -315.715)" fill="#fff"/>
        <path id="Path_824" data-name="Path 824" d="M620.264,373.1l1.835.615a.574.574,0,0,0,.254.041.291.291,0,0,0,.226-.227.481.481,0,0,0,0-.281,1.231,1.231,0,0,0-.09-.23l-1.534-.514a.352.352,0,0,0-.261-.013.435.435,0,0,0-.167.245l-.129-.043.361-1.077,1.948.654a.344.344,0,0,0,.253.014.423.423,0,0,0,.163-.221l.124.041q-.12.518-.142.656a3.932,3.932,0,0,0-.028.456l-.356-.12a2.052,2.052,0,0,1,.128.4,1,1,0,0,1-.033.5.85.85,0,0,1-.33.431.727.727,0,0,1-.667.027L620.456,374a.343.343,0,0,0-.245-.021.49.49,0,0,0-.159.185l-.129-.043Z" transform="translate(-504.138 -302.212)" fill="#fff"/>
        <path id="Path_825" data-name="Path 825" d="M627.626,360.117a.419.419,0,0,0-.019-.241.318.318,0,0,0-.2-.123l-.16-.046-1.5-.383a.365.365,0,0,0-.252,0,.411.411,0,0,0-.144.213l-.132-.033.267-1.047.435.11a2.059,2.059,0,0,1-.275-.441.655.655,0,0,1-.033-.435.494.494,0,0,1,.188-.279.446.446,0,0,1,.6.109.335.335,0,0,1,.041.277.39.39,0,0,1-.242.262q-.2.086-.21.138a.314.314,0,0,0,.079.258.62.62,0,0,0,.362.212l1.046.267q.274.069.362.007a.621.621,0,0,0,.171-.294l.132.033-.375,1.47Z" transform="translate(-508.442 -290.597)" fill="#fff"/>
        <path id="Path_826" data-name="Path 826" d="M630.6,348.232l.03-.156a.911.911,0,0,0,.626-.2.779.779,0,0,0,.253-.428.454.454,0,0,0-.037-.336.345.345,0,0,0-.236-.15.351.351,0,0,0-.278.061.811.811,0,0,0-.16.17l-.281.377a1.314,1.314,0,0,1-.44.4.72.72,0,0,1-.473.061.8.8,0,0,1-.519-.334.854.854,0,0,1-.116-.679,1.365,1.365,0,0,1,.13-.366,1.319,1.319,0,0,0,.106-.238.139.139,0,0,0-.01-.1.233.233,0,0,0-.072-.063l.023-.123.81.154-.027.142a1,1,0,0,0-.506.173.6.6,0,0,0-.252.389.358.358,0,0,0,.051.3.338.338,0,0,0,.207.134.314.314,0,0,0,.212-.045.883.883,0,0,0,.265-.261l.206-.279a1.626,1.626,0,0,1,.344-.365.745.745,0,0,1,.58-.117.906.906,0,0,1,.538.336.848.848,0,0,1,.141.728,1.16,1.16,0,0,1-.066.222,2.385,2.385,0,0,1-.134.265l-.051.089c-.019.032-.031.052-.034.06a.159.159,0,0,0-.008.031.107.107,0,0,0,.021.088.559.559,0,0,0,.11.1l-.025.134Z" transform="translate(-511.474 -281.484)" fill="#fff"/>
        <path id="Path_827" data-name="Path 827" d="M631.36,334.656a1.129,1.129,0,0,1-.254-.883,1.017,1.017,0,0,1,.213-.507.993.993,0,0,1,.454-.328,1.557,1.557,0,0,1,.526-.074,1.747,1.747,0,0,1,.226.009l-.183,1.444a2.073,2.073,0,0,0,.6-.036.6.6,0,0,0,.541-.525.649.649,0,0,0-.077-.392,1.748,1.748,0,0,0-.217-.3l.1-.12a1.522,1.522,0,0,1,.522.685,1.183,1.183,0,0,1,.043.528,1.162,1.162,0,0,1-.428.741,1.358,1.358,0,0,1-1.1.232,1.412,1.412,0,0,1-.968-.475m.866-1.112a2.41,2.41,0,0,0-.709-.011.283.283,0,0,0-.235.263.306.306,0,0,0,.191.333,2.286,2.286,0,0,0,.657.178Z" transform="translate(-513.225 -270.695)" fill="#fff"/>
        <path id="Path_828" data-name="Path 828" d="M629.432,325.977a.471.471,0,0,0-.08-.219.353.353,0,0,0-.244-.081l-2.9-.212a.342.342,0,0,0-.242.041.474.474,0,0,0-.108.21l-.136-.01.079-1.077,3.363.246a.352.352,0,0,0,.252-.043.489.489,0,0,0,.113-.209l.136.01-.1,1.355Z" transform="translate(-508.857 -263.992)" fill="#fff"/>
        <path id="Path_829" data-name="Path 829" d="M629.859,313.273a.449.449,0,0,0-.071-.254.347.347,0,0,0-.265-.084l-1.854-.053-.009.328-.251-.007.01-.328-.211-.006a1.485,1.485,0,0,1-.651-.144.884.884,0,0,1-.453-.887,1.023,1.023,0,0,1,.171-.57.469.469,0,0,1,.414-.224.345.345,0,0,1,.253.106.358.358,0,0,1,.09.266.334.334,0,0,1-.1.231.279.279,0,0,1-.217.091.386.386,0,0,1-.2-.068.436.436,0,0,0-.125-.066.084.084,0,0,0-.09.048.294.294,0,0,0-.023.108.278.278,0,0,0,.075.216.549.549,0,0,0,.346.085l.738.021.014-.5.25.007-.014.5,1.751.05q.295.008.364-.074a.778.778,0,0,0,.1-.375l.136,0L630,313.277Z" transform="translate(-509.165 -252.949)" fill="#fff"/>
        <path id="Path_830" data-name="Path 830" d="M458.575,467.047l-.881.079c.133,1.488.266,2.968.4,4.452q.44-.056.877-.126c-.132-1.47-.263-2.935-.394-4.4" transform="translate(-372.21 -379.816)" fill="#fff"/>
        <path id="Path_831" data-name="Path 831" d="M400.339,302.077l.035.266c.017,0,.034,0,.051,0-.067-.35-.134-.7-.191-1.06q.052.4.1.794" transform="translate(-325.482 -245.012)" fill="#fff"/>
        <path id="Path_832" data-name="Path 832" d="M402.31,316.8l.047.356q0-.2-.007-.407c-.013.018-.027.034-.04.051" transform="translate(-327.17 -257.593)" fill="#fff"/>
        <path id="Path_833" data-name="Path 833" d="M368.56,339.587l.033.112q.2-.075.407-.139l-.037-.125q-.2.068-.4.152" transform="translate(-299.723 -276.038)" fill="#fff"/>
        <path id="Path_834" data-name="Path 834" d="M356.306,295.48c-.1.136-.214.274-.326.413l.206.7c.139-.037.278-.071.418-.1l-.3-1.006" transform="translate(-289.493 -240.293)" fill="#fff"/>
        <path id="Path_835" data-name="Path 835" d="M383.251,368.971l-.721-5.462a.8.8,0,0,1-.1-.325c-.2-1.879-.484-3.755-.775-5.622-.006-.039-.016-.076-.024-.114a1.668,1.668,0,0,1-.266.463q.27,2.041.539,4.083l.764,5.795.55,4.166q.124.942.249,1.884a20.7,20.7,0,0,1-3.118.339l-.336-1.137-1.047-3.543-1.549-5.24L375.563,358l-.025,0h-.008l-.033.008a.748.748,0,0,0-.216.066c-.013.007-.02.012-.03.018.041.114.072.235.1.351.359,1.294.7,2.594,1.042,3.893l.171.578,1.646,5.567,1.179,3.99c.187.633.366,1.27.562,1.9.008.027.016.055.024.082a.218.218,0,0,0,.207.158,21.332,21.332,0,0,0,3.571-.4.183.183,0,0,0,.029-.013.187.187,0,0,0,.049-.021l.007,0a.162.162,0,0,0,.072-.169l-.179-1.354q-.243-1.842-.486-3.685" transform="translate(-305.166 -290.686)" fill="#fff"/>
        <path id="Path_836" data-name="Path 836" d="M323.326,176.168s0,0,0,0l.385,1.3,1.047,3.543,1.549,5.24,1.846,6.244.319-.3.032-.03-1.352-4.574-1.646-5.567-1.18-3.991-.371-1.254c-.055-.185-.1-.383-.163-.567a.2.2,0,0,0,.021-.049l3.526-.741,6.062-1.273,1.155-.243.145,1.1.486,3.685.722,5.473.878,6.656.751,5.7a6.2,6.2,0,0,1,.134-2.242l-.227-1.72-.908-6.884-.764-5.795-.549-4.166-.26-1.972q-.006-.042-.011-.084a.22.22,0,0,0-.272-.207l-3.8.8-6.062,1.273-1.393.292a.218.218,0,0,0-.1.356" transform="translate(-262.892 -141.048)" fill="#fff"/>
        <path id="Path_837" data-name="Path 837" d="M372.758,332.391a4.115,4.115,0,0,1,1.326.692c.7.521,1.441,1.339,2.382,1.325-.066-.119-.132-.237-.2-.357a5.312,5.312,0,0,1-.7-2.322,7.307,7.307,0,0,1,.016-.866,2.2,2.2,0,0,1-.831,1.146c-.994.721-2.2.16-3.3.177a5.4,5.4,0,0,0-1.824.348l.035.12a7.211,7.211,0,0,1,1.433-.336,4.216,4.216,0,0,1,1.659.073" transform="translate(-300.594 -269.067)" fill="#fff"/>
        <path id="Path_838" data-name="Path 838" d="M393.695,318.725c.042-.382.089-.763.116-1.145a7.307,7.307,0,0,0,.009-.826,2.341,2.341,0,0,1-.668.631,2.681,2.681,0,0,1-1.331.372l.782.217a1.918,1.918,0,0,1,.9.366.71.71,0,0,1,.188.385" transform="translate(-318.64 -257.593)" fill="#fff"/>
        <path id="Path_839" data-name="Path 839" d="M381.683,358.869a2.18,2.18,0,0,1-1.574.542,18.649,18.649,0,0,1-2.916-.516,5.165,5.165,0,0,0-.695-.077c-.129,0-.258-.005-.387,0-.044,0-.088,0-.132.009h-.008l-.033.008c-.069.015-.109.025-.144.036l4.834,16.353a19.891,19.891,0,0,0,3.514-.389l-2.16-16.373a1.615,1.615,0,0,1-.3.405" transform="translate(-305.606 -291.513)" fill="#fff"/>
        <path id="Path_840" data-name="Path 840" d="M324.452,177.044l4.8,16.221.144-.134c.309-.287.616-.577.932-.856a1.474,1.474,0,0,1,.905-.45c.823-.035,1.308.8,1.309,1.536a4.314,4.314,0,0,1-.743,2.056,15.043,15.043,0,0,1-1.167,1.743c-.054.07-.111.141-.167.212l.251.849a7.408,7.408,0,0,1,2.344-.25,12.12,12.12,0,0,1,2.89.645c.456.15.908.31,1.364.459a2.51,2.51,0,0,0,1.241.247.706.706,0,0,1,.2-.013,11.072,11.072,0,0,1-.292-3.453l-2.806-21.271L324.4,176.949c.259.134.053.1.053.1" transform="translate(-263.81 -141.977)" fill="#fff"/>
        <path id="Path_841" data-name="Path 841" d="M407.609,284.949c-.272-.737-.581-1.461-.9-2.177a17.869,17.869,0,0,1-.964-2.265,10.77,10.77,0,0,1-.287-2.8q-.032-1.459.061-2.916a.15.15,0,0,0-.137-.165,1.731,1.731,0,0,0-1.865.243,3.193,3.193,0,0,0-1.063,1.478,8.149,8.149,0,0,0,.064,4.409,10.168,10.168,0,0,1,.212,2.675,22.281,22.281,0,0,0-.191,2.59,4.746,4.746,0,0,0,.623,2.106,6.441,6.441,0,0,1,.87,2.023c.3,1.908.59,3.825.791,5.746a.18.18,0,0,0,.223.17,4.032,4.032,0,0,0,2.625-2.326,8.558,8.558,0,0,0,.913-4.194,14.332,14.332,0,0,0-.97-4.6" transform="translate(-327.048 -223.188)" fill="#fff"/>
        <path id="Path_842" data-name="Path 842" d="M332.09,275.471a1.533,1.533,0,0,0,1.368.633c1.281-.057,2.191-1.242,2.905-2.173a14.62,14.62,0,0,0,1.1-1.657,3.923,3.923,0,0,0,.681-1.808c0-.479-.274-1.122-.844-1.087a1.277,1.277,0,0,0-.714.439q-.44.4-.876.807c-1.215,1.13-2.41,2.279-3.638,3.394a.149.149,0,0,0-.051.144,1.247,1.247,0,0,0,.068,1.309" transform="translate(-269.884 -219.065)" fill="#fff"/>
        <path id="Path_843" data-name="Path 843" d="M327.7,307.449c.6-.241,1.182-.52,1.761-.805a17.306,17.306,0,0,1,3.789-1.531,6.12,6.12,0,0,1,2.074-.131c.684.083,1.336.329,2.016.435a2.844,2.844,0,0,0,1.906-.247,1.628,1.628,0,0,0,.834-1.44.179.179,0,0,0-.223-.17,2.728,2.728,0,0,1-1.437-.23c-.461-.15-.918-.311-1.378-.464a11.919,11.919,0,0,0-2.759-.638,7.86,7.86,0,0,0-2.89.4c-.944.28-1.893.544-2.835.827-.534.16-1.064.331-1.587.525a1.431,1.431,0,0,0-.484.231.157.157,0,0,0-.083.073c-.01.019-.019.038-.03.057-.086.126-.147.275-.218.4a.165.165,0,0,0-.017.114,4.422,4.422,0,0,0-.271,1.161,4.181,4.181,0,0,0,.009.866,1.446,1.446,0,0,0,.216.747.589.589,0,0,0,.648.158,7.444,7.444,0,0,0,.959-.34" transform="translate(-264.989 -245.765)" fill="#fff"/>
        <path id="Path_844" data-name="Path 844" d="M336.473,325.107a5.889,5.889,0,0,1,3-.943,9.073,9.073,0,0,1,1.651.159,2.048,2.048,0,0,0,1.425-.2,1.722,1.722,0,0,0,.738-.984c.046-.167.1-.409-.021-.555-.149-.173-.515-.2-.723-.253a17.327,17.327,0,0,0-3.452-.744,10.172,10.172,0,0,0-6.2,1.756,12.754,12.754,0,0,0-1.348,1.03q-.341.3-.661.619c-.162.162-.4.345-.435.586a1.638,1.638,0,0,0,.162.692,4.808,4.808,0,0,0,.247.616,1.3,1.3,0,0,0,.81.749c.006,0,.009.008.016.011.724.316,1.659-.19,2.267-.563.916-.561,1.626-1.391,2.524-1.976" transform="translate(-268.725 -261.508)" fill="#fff"/>
        <path id="Path_845" data-name="Path 845" d="M356.045,343.021c-1.023.023-1.793-.758-2.551-1.335a4.041,4.041,0,0,0-1.217-.679,3.709,3.709,0,0,0-1.547-.085,11.382,11.382,0,0,0-5.381,2.741c-.377.291-.8.594-.836,1.114a1.615,1.615,0,0,0,.25.893.164.164,0,0,0,.015.037c.017.025.035.049.052.074.075.118.156.231.238.336l0,0a27.874,27.874,0,0,0,2.576,2.83,7.511,7.511,0,0,0,1.528,1.265,4.108,4.108,0,0,0,.888.382,4.961,4.961,0,0,1,1.1.39.178.178,0,0,0,.259-.2c-.5-1.9-.991-3.809-1.517-5.705-.058-.209-.2-.471-.081-.68a.76.76,0,0,1,.5-.3,3.646,3.646,0,0,1,1.405.019,23.1,23.1,0,0,0,2.9.524,1.752,1.752,0,0,0,1.281-.4,1.06,1.06,0,0,0,.306-1.1.182.182,0,0,0-.17-.13" transform="translate(-280.167 -277.214)" fill="#fff"/>
        <path id="Path_846" data-name="Path 846" d="M378.06,337.951c-.1-.006-.193-.01-.288-.009q-.187,0-.373.019l.03.113a5.693,5.693,0,0,1,.649-.045Z" transform="translate(-306.912 -274.824)" fill="#fff"/>
        <path id="Path_847" data-name="Path 847" d="M364.936,283.474c.072.005.145.014.216.021l-.894-3.77a7.349,7.349,0,0,1-.583,1.195c-.024.042-.05.082-.074.124l.652,2.422a5.865,5.865,0,0,1,.683.008" transform="translate(-295.691 -227.48)" fill="#fff"/>
        <path id="Path_848" data-name="Path 848" d="M345.1,214.58a1.088,1.088,0,0,1,.471-.134,1.065,1.065,0,0,1,.621.165L343.42,202.94a.7.7,0,1,0-1.364.347Z" transform="translate(-278.15 -164.597)" fill="#fff"/>
        <path id="Path_849" data-name="Path 849" d="M383.529,360.818l4.435,16.474-3.88-16.36c-.185-.041-.369-.08-.554-.114" transform="translate(-311.897 -293.427)" fill="#fff"/>
        <path id="Path_850" data-name="Path 850" d="M387.433,338.729a4.917,4.917,0,0,1-.82-.052l.021.092a3.71,3.71,0,0,1,.884.414Z" transform="translate(-314.405 -275.422)" fill="#fff"/>
        <path id="Path_851" data-name="Path 851" d="M392.058,362.674l3.6,15.872-2.949-15.76c-.218-.028-.436-.067-.652-.111" transform="translate(-318.833 -294.937)" fill="#fff"/>
        <path id="Path_852" data-name="Path 852" d="M360.118,218.19c.387.088.77.194,1.149.312l-3.506-18.737a.7.7,0,0,0-.831-.564l-.365.073a.7.7,0,0,0-.548.842Z" transform="translate(-289.509 -161.985)" fill="#fff"/>
        <path id="Path_853" data-name="Path 853" d="M393.15,321.308l.521.144c.092.025.192.048.292.073l-.073-.494a2.74,2.74,0,0,1-.756.185Z" transform="translate(-319.707 -261.072)" fill="#fff"/>
        <path id="Path_854" data-name="Path 854" d="M396.588,335a2.369,2.369,0,0,1-.405.373,1.887,1.887,0,0,1-.205.129l.281,1.545a4.714,4.714,0,0,0,.7.477Z" transform="translate(-322.02 -272.43)" fill="#fff"/>
        <path id="Path_855" data-name="Path 855" d="M374.641,216.555c.222.076.444.151.667.224.087.029.179.062.273.1l-2.941-19.867a.762.762,0,1,0-1.5.243Z" transform="translate(-301.809 -159.682)" fill="#fff"/>
        <path id="Path_856" data-name="Path 856" d="M400.656,363.023l2.84,15.644-2.331-15.743a2.5,2.5,0,0,1-.509.1" transform="translate(-325.825 -295.14)" fill="#fff"/>
      </g>
    </g>
  </g>
</svg>
