<svg xmlns="http://www.w3.org/2000/svg" xmlns:xlink="http://www.w3.org/1999/xlink" width="47.347" height="47.336" viewBox="0 0 47.347 47.336">
  <defs>
    <clipPath id="clip-path">
      <rect id="Rectangle_86" data-name="Rectangle 86" width="47.347" height="47.336" fill="#fff"/>
    </clipPath>
  </defs>
  <g id="Group_256" data-name="Group 256" clip-path="url(#clip-path)">
    <path id="Path_860" data-name="Path 860" d="M6.658,41.275l-1.6-1.668a3.131,3.131,0,0,0,2.126,5.411q10.364.018,20.728,0c.311,0,.622-.056.933-.073a.8.8,0,0,1,.9.657.759.759,0,0,1-.655.892,4.445,4.445,0,0,1-.929.1c-7.008.008-14.016.033-21.024-.005a4.434,4.434,0,0,1-4.252-2.851,4.569,4.569,0,0,1,.782-5.022c.083-.1.171-.2.255-.3a.106.106,0,0,0,.013-.041c-.579-.78-1.182-1.539-1.726-2.339A11.734,11.734,0,0,1,.088,31.147a8.574,8.574,0,0,1,5.475-9.22,17.938,17.938,0,0,1,2-.51c.124-.031.25-.056.394-.089a12.282,12.282,0,0,1,.611-4.59A11.858,11.858,0,0,1,19.551,8.7c2.961-.033,5.922-.008,8.883-.009h.443a16.252,16.252,0,0,1-.441-2.518A6.242,6.242,0,0,1,34.148.02a6.324,6.324,0,0,1,6.817,5.192,6.29,6.29,0,0,1-1.228,4.694,2.652,2.652,0,0,0-.445,2.5,4.663,4.663,0,0,1-4.586,5.761c-4.869.017-9.739,0-14.608.007a3.9,3.9,0,0,0-.785.051,2.363,2.363,0,0,0,.444,4.68c2.648.015,5.3,0,7.946.009a11.634,11.634,0,0,1,6.377,1.919,3.387,3.387,0,0,1,.363.255.781.781,0,0,1-.883,1.285c-.444-.249-.861-.547-1.314-.777a10.059,10.059,0,0,0-4.607-1.1c-2.583,0-5.166.008-7.748,0a3.8,3.8,0,0,1-3.93-3.064A3.876,3.876,0,0,1,19.789,16.6c1.793-.027,3.586-.006,5.379-.006,3.175,0,6.35.01,9.525,0a3.155,3.155,0,0,0,3.184-3.251c-.007-.243-.062-.485-.107-.827-.17.161-.281.269-.4.374-.679.622-1.347,1.257-2.044,1.858a.776.776,0,0,1-1.224-.019,1.786,1.786,0,0,0-1.461-.509c-.754.043-1.513.016-2.27.008-.557-.006-.883-.3-.891-.773-.008-.5.326-.795.91-.8.44-.006.88,0,1.377,0-.618-.792-1.193-1.538-1.786-2.27a.514.514,0,0,0-.355-.1c-3.438,0-6.878-.066-10.314.019a10.271,10.271,0,0,0-9.8,10.565c.017.411.138.541.556.6A18.216,18.216,0,0,1,12,21.935c-.042-.338-.1-.659-.117-.982a3.307,3.307,0,0,1,.023-.782.76.76,0,0,1,.821-.687.813.813,0,0,1,.728.8c.079.683.141,1.371.271,2.045a2.345,2.345,0,0,0,.8,1.316,8.348,8.348,0,0,1,1.342,1.566,2.459,2.459,0,0,0,1.211,1.026,17.382,17.382,0,0,0,1.784.54c.573.141.9.457.84.91-.064.5-.444.746-1.072.653-.482-.071-.955-.2-1.447-.3l.226,2.541c.734.069,1.5.192,2.263.2,2.171.032,4.343.018,6.514.023.132,0,.264,0,.395.006a.789.789,0,1,1-.037,1.574c-.395.009-.79,0-1.184,0-2.285-.028-4.571-.048-6.857-.093a14.513,14.513,0,0,1-1.453-.174,16.213,16.213,0,0,1-2.687,5.012h.595q5.059,0,10.117,0c.6,0,.925.23.98.679a.774.774,0,0,1-.811.895c-.509.016-1.02,0-1.53,0-3.405,0-6.811,0-10.216-.006a.925.925,0,0,0-.722.31c-.654.648-1.346,1.257-2.082,1.935.262.153.416.189.463.281.134.26.362.583.3.8a.963.963,0,0,1-.662.592c-1.214.061-2.434.058-3.65.018-.7-.023-.909-.713-.484-1.364m2.047-.4c.923-.92,1.824-1.762,2.66-2.664a18.852,18.852,0,0,0,3.877-5.665,6.577,6.577,0,0,0-1.162-7.1A6.775,6.775,0,0,0,7.218,23.07,7.013,7.013,0,0,0,2.3,33.022a26.111,26.111,0,0,0,6.409,7.852M34.733,13.2a16.929,16.929,0,0,0,4.242-5.129,4.094,4.094,0,0,0,.469-2.335A4.743,4.743,0,0,0,32.8,1.977a4.515,4.515,0,0,0-2.054,6.61,17.813,17.813,0,0,0,3.99,4.615" transform="translate(0 0)" fill="#fff"/>
    <path id="Path_861" data-name="Path 861" d="M213.88,224.183a9.993,9.993,0,0,1-10.222-10.331,10.246,10.246,0,0,1,20.491.045,10,10,0,0,1-10.269,10.286m0-18.853a8.546,8.546,0,0,0-8.66,8.78,8.686,8.686,0,0,0,17.371-.1,8.55,8.55,0,0,0-8.711-8.681" transform="translate(-176.804 -176.848)" fill="#fff"/>
    <path id="Path_862" data-name="Path 862" d="M196.394,205.532c-1.142-.052-2.285-.1-3.427-.16a.757.757,0,0,1-.74-.772.729.729,0,0,1,.718-.785c1.131.029,2.261.107,3.39.18a1.313,1.313,0,0,1,.462.159.769.769,0,0,1,.461.933c-.106.438-.454.568-.865.573,0-.043,0-.086,0-.128" transform="translate(-166.881 -176.942)" fill="#fff"/>
    <path id="Path_863" data-name="Path 863" d="M168.831,311.5c.542,0,1.085-.007,1.627,0a.793.793,0,1,1,0,1.574q-1.676.013-3.352,0a.79.79,0,1,1,0-1.573c.575-.011,1.15,0,1.725,0" transform="translate(-144.321 -270.423)" fill="#fff"/>
    <path id="Path_864" data-name="Path 864" d="M34.582,201.436a4.7,4.7,0,1,1,4.732-4.7,4.628,4.628,0,0,1-4.732,4.7m3.154-4.682a3.157,3.157,0,1,0-3.17,3.123,3.176,3.176,0,0,0,3.17-3.123" transform="translate(-25.909 -166.724)" fill="#fff"/>
    <path id="Path_865" data-name="Path 865" d="M245.768,27.31a3.157,3.157,0,1,1-3.171-3.121,3.177,3.177,0,0,1,3.171,3.121m-3.178-1.546a1.561,1.561,0,1,0,1.6,1.55,1.6,1.6,0,0,0-1.6-1.55" transform="translate(-207.881 -20.999)" fill="#fff"/>
    <path id="Path_866" data-name="Path 866" d="M276.936,233.472c.918-.552,1.74-1.059,2.577-1.539.2-.116.5-.253.678-.183a1.239,1.239,0,0,1,.637.59.689.689,0,0,1-.386.864c-.757.461-1.519.915-2.279,1.372-.507.3-1.008.619-1.523.909a.8.8,0,0,1-1.28-.739c-.011-2.022-.007-4.043,0-6.065a.8.8,0,1,1,1.575.009c.006,1.56,0,3.121,0,4.783" transform="translate(-239.047 -197.739)" fill="#fff"/>
    <path id="Path_867" data-name="Path 867" d="M222.346,277.184a.785.785,0,1,1,.772-.791.8.8,0,0,1-.772.791" transform="translate(-192.348 -239.273)" fill="#fff"/>
    <path id="Path_868" data-name="Path 868" d="M330.92,276.38a.778.778,0,1,1-.8-.767.8.8,0,0,1,.8.767" transform="translate(-285.936 -239.271)" fill="#fff"/>
    <path id="Path_869" data-name="Path 869" d="M277.018,330.291a.778.778,0,1,1-.793-.77.8.8,0,0,1,.793.77" transform="translate(-239.141 -286.072)" fill="#fff"/>
  </g>
</svg>
