<svg xmlns="http://www.w3.org/2000/svg" xmlns:xlink="http://www.w3.org/1999/xlink" width="43.453" height="50" viewBox="0 0 43.453 50">
  <defs>
    <clipPath id="clip-path">
      <rect id="Rectangle_105" data-name="Rectangle 105" width="43.453" height="50" fill="#fff"/>
    </clipPath>
  </defs>
  <g id="Group_277" data-name="Group 277" transform="translate(0 0)">
    <g id="Group_276" data-name="Group 276" transform="translate(0 0)" clip-path="url(#clip-path)">
      <path id="Path_882" data-name="Path 882" d="M.026,50C-.257,47.5,1.8,48.248,3.4,47.809c0-2.462,0-4.959,0-7.456,0-3.687,0-3.687,3.716-4.128V25.93l4.1-.308V11.884l8.512-5.467L21.747,0c.757,2.4,1.568,4.974,2.014,6.388l8.342,5.4V25.584l4.105.314V36.213a8.392,8.392,0,0,0,1.723.212c1.677-.194,2.215.552,2.17,2.172-.085,3.019-.025,6.043-.025,9.378h3.377V50Zm13.119-2.122h17.19V16.123H13.145ZM11.259,38.1c0-2.867.075-5.738-.056-8.6-.031-.67-.763-1.308-1.172-1.961-.367.61-1.044,1.216-1.053,1.831q-.123,8.473.006,16.948c.009.575.76,1.138,1.167,1.706.369-.61,1.029-1.207,1.056-1.832.118-2.693.051-5.395.052-8.093m23.335-.374c0-2.7.076-5.4-.051-8.09-.033-.713-.688-1.4-1.057-2.093-.412.652-1.169,1.3-1.18,1.956q-.143,8.343-.006,16.69c.009.617.68,1.224,1.044,1.836.416-.651,1.159-1.286,1.192-1.956.136-2.775.057-5.561.057-8.343m-27.553.843c-1.6-.619-2.374-.231-2.357,1.438q.031,3.159,0,6.319c-.02,1.685.774,2.039,2.358,1.43Zm29.255.022c0,2.7-.062,5.3.052,7.9.023.53.709,1.03,1.089,1.544.451-.543,1.248-1.059,1.291-1.632.158-2.094.038-4.208.074-6.314.028-1.605-.645-2.156-2.505-1.5" transform="translate(0 0)" fill="#fff"/>
      <rect id="Rectangle_100" data-name="Rectangle 100" width="3.967" height="4.057" transform="translate(16.379 33.548)" fill="#fff"/>
      <rect id="Rectangle_101" data-name="Rectangle 101" width="3.975" height="4.093" transform="translate(23.108 33.544)" fill="#fff"/>
      <rect id="Rectangle_102" data-name="Rectangle 102" width="3.946" height="4.054" transform="translate(16.41 40.572)" fill="#fff"/>
      <path id="Path_883" data-name="Path 883" d="M44.9,83.483c0-.918-.013-1.584,0-2.249.013-.5.066-.99.116-1.682h4.05v3.931Z" transform="translate(-21.962 -38.913)" fill="#fff"/>
      <path id="Path_884" data-name="Path 884" d="M35.976,55.87H32.168V52.059c4.091-.919,4.533-.492,3.808,3.811" transform="translate(-15.735 -25.269)" fill="#fff"/>
      <rect id="Rectangle_103" data-name="Rectangle 103" width="4.072" height="3.895" transform="translate(23.103 26.662)" fill="#fff"/>
      <path id="Path_885" data-name="Path 885" d="M36.112,38.714v3.847l-3.977.182v-4.03Z" transform="translate(-15.719 -18.937)" fill="#fff"/>
      <rect id="Rectangle_104" data-name="Rectangle 104" width="3.978" height="3.824" transform="translate(23.078 19.752)" fill="#fff"/>
    </g>
  </g>
</svg>
