<?xml version="1.0" encoding="UTF-8"?>
<svg id="Layer_1" data-name="Layer 1" xmlns="http://www.w3.org/2000/svg" xmlns:xlink="http://www.w3.org/1999/xlink" viewBox="0 0 60 60.12">
  <defs>
    <style>
      .cls-1 {
        clip-path: url(#clippath);
      }

      .cls-2 {
        fill: none;
      }

      .cls-2, .cls-3, .cls-4, .cls-5, .cls-6, .cls-7, .cls-8, .cls-9, .cls-10, .cls-11, .cls-12, .cls-13, .cls-14 {
        stroke-width: 0px;
      }

      .cls-3 {
        fill: url(#linear-gradient);
      }

      .cls-15 {
        fill: url(#linear-gradient-6);
        stroke: url(#linear-gradient-7);
      }

      .cls-15, .cls-16, .cls-17 {
        stroke-miterlimit: 10;
        stroke-width: .25px;
      }

      .cls-16 {
        fill: url(#linear-gradient-2);
        stroke: url(#linear-gradient-3);
      }

      .cls-17 {
        fill: url(#linear-gradient-4);
        stroke: url(#linear-gradient-5);
      }

      .cls-5 {
        fill: #f47a28;
      }

      .cls-6 {
        fill: #9ac3e8;
      }

      .cls-7 {
        fill: #1c3f6c;
      }

      .cls-8 {
        fill: #1e4581;
      }

      .cls-9 {
        fill: #1376a3;
      }

      .cls-10 {
        fill: #cf323f;
      }

      .cls-11 {
        fill: #81b0de;
      }

      .cls-12 {
        fill: #ed5a6b;
      }

      .cls-13 {
        fill: #f1a353;
      }

      .cls-14 {
        fill: #fdd9cc;
      }
    </style>
    <clipPath id="clippath">
      <rect class="cls-2" y=".12" width="60" height="60"/>
    </clipPath>
    <linearGradient id="linear-gradient" x1="43.22" y1="38.92" x2="56.78" y2="30.7" gradientTransform="translate(0 60.14) scale(1 -1)" gradientUnits="userSpaceOnUse">
      <stop offset="0" stop-color="#309d48"/>
      <stop offset=".46" stop-color="#2d8f43"/>
      <stop offset=".88" stop-color="#2c8942"/>
    </linearGradient>
    <linearGradient id="linear-gradient-2" x1="24.13" y1="48.27" x2="35.11" y2="51.26" gradientTransform="translate(0 60.14) scale(1 -1)" gradientUnits="userSpaceOnUse">
      <stop offset="0" stop-color="#c62127"/>
      <stop offset=".1" stop-color="#cb2127"/>
      <stop offset=".28" stop-color="#cf2228"/>
      <stop offset=".49" stop-color="#f68920"/>
      <stop offset=".89" stop-color="#f89e1e"/>
      <stop offset="1" stop-color="#ffc515"/>
    </linearGradient>
    <linearGradient id="linear-gradient-3" x1="23.67" y1="49.46" x2="35.99" y2="49.46" gradientTransform="translate(0 60.14) scale(1 -1)" gradientUnits="userSpaceOnUse">
      <stop offset="0" stop-color="#f26524"/>
      <stop offset=".04" stop-color="#ec652f"/>
      <stop offset=".11" stop-color="#e36741"/>
      <stop offset=".19" stop-color="#dd684d"/>
      <stop offset=".28" stop-color="#dc6951"/>
      <stop offset=".67" stop-color="#f5bf18"/>
      <stop offset=".89" stop-color="#f5c222"/>
      <stop offset="1" stop-color="#f9d54c"/>
    </linearGradient>
    <linearGradient id="linear-gradient-4" x1="23.48" y1="49.67" x2="43.68" y2="55.17" gradientTransform="translate(0 60.14) scale(1 -1)" gradientUnits="userSpaceOnUse">
      <stop offset="0" stop-color="#c62127"/>
      <stop offset=".1" stop-color="#cb2127"/>
      <stop offset=".28" stop-color="#cf2228"/>
      <stop offset=".49" stop-color="#f68920"/>
      <stop offset=".89" stop-color="#f89e1e"/>
      <stop offset="1" stop-color="#ffc515"/>
    </linearGradient>
    <linearGradient id="linear-gradient-5" x1="22.82" y1="52.45" x2="43.58" y2="52.45" gradientTransform="translate(0 60.14) scale(1 -1)" gradientUnits="userSpaceOnUse">
      <stop offset="0" stop-color="#f26524"/>
      <stop offset=".04" stop-color="#ec652f"/>
      <stop offset=".11" stop-color="#e36741"/>
      <stop offset=".19" stop-color="#dd684d"/>
      <stop offset=".28" stop-color="#dc6951"/>
      <stop offset=".67" stop-color="#f5bf18"/>
      <stop offset=".89" stop-color="#f5c222"/>
      <stop offset="1" stop-color="#f9d54c"/>
    </linearGradient>
    <linearGradient id="linear-gradient-6" x1="35.88" y1="56.42" x2="44.51" y2="58.77" gradientTransform="translate(0 60.14) scale(1 -1)" gradientUnits="userSpaceOnUse">
      <stop offset="0" stop-color="#c62127"/>
      <stop offset=".1" stop-color="#cb2127"/>
      <stop offset=".28" stop-color="#cf2228"/>
      <stop offset=".49" stop-color="#f68920"/>
      <stop offset=".89" stop-color="#f89e1e"/>
      <stop offset="1" stop-color="#ffc515"/>
    </linearGradient>
    <linearGradient id="linear-gradient-7" x1="35.57" y1="57.65" x2="45.21" y2="57.65" gradientTransform="translate(0 60.14) scale(1 -1)" gradientUnits="userSpaceOnUse">
      <stop offset="0" stop-color="#f26524"/>
      <stop offset=".04" stop-color="#ec652f"/>
      <stop offset=".11" stop-color="#e36741"/>
      <stop offset=".19" stop-color="#dd684d"/>
      <stop offset=".28" stop-color="#dc6951"/>
      <stop offset=".67" stop-color="#f5bf18"/>
      <stop offset=".89" stop-color="#f5c222"/>
      <stop offset="1" stop-color="#f9d54c"/>
    </linearGradient>
  </defs>
  <g class="cls-1">
    <g>
      <path class="cls-14" d="m23.35,22.95l-.65.16-4.33,4.15,2.73,3.97,2.58-2.5,1.4,1.28c-.58-2.35-1.03-4.74-1.73-7.06Z"/>
      <path class="cls-14" d="m11,51.92l1.96,2.29,7.48-7.38-3.32-3.33-4.62,5.12-1.5,3.3Z"/>
      <path class="cls-4" d="m31.08,48.95c-.02-.07-.04-.15-.07-.22-.58.23-1.26.09-1.76-.39-1.04-1.01-2.04-2.05-3.04-3.06.79-.82,1.58-1.63,2.44-2.5.26.27.51.54.76.81-.08-.25-.16-.51-.24-.76-.03-.1-.03-.19-.03-.28-.11-.1-.2-.21-.24-.35-.05-.18-.11-.35-.18-.51-.12-.25-.25-.5-.3-.76,0,0,0,0,0-.01-.12-.1-.23-.23-.25-.37,0-.05,0-.11-.01-.16-2.56-2.57-5.1-5.1-7.61-7.61l3.11-3.11c.08.08.2.19.31.3.49.49.98.99,1.47,1.48-.23-.83-.45-1.66-.64-2.5-.18-.18-.36-.36-.55-.55-.51-.52-.79-.52-1.31,0-.42.43-.83.87-1.23,1.29-.87-.87-1.67-1.67-2.48-2.49,1-1,2.02-2.03,3.05-3.05.39-.38.8-.58,1.22-.61-.1-.36-.2-.72-.31-1.07-.02-.08-.02-.15-.02-.22-.66.11-1.3.44-1.89,1.02-1.21,1.21-2.42,2.42-3.63,3.63-.1.1-.22.2-.4.37,0-.88-.01-1.66,0-2.44,0-.08.1-.19.19-.24,1.13-.61,1.45-1.29,1.17-2.59.07-.03.15-.07.23-.09,1.13-.35,2.04-.93,2.72-1.71,0,0-.01-.02-.02-.03,0,0,.01.02.02.02,0,0,0,0,.01,0-.04-.06-.09-.12-.11-.2-.02-.01-.04-.02-.05-.03-.14-.16-.27-.33-.39-.51-.02-.03-.04-.06-.07-.09,0,0,0,0,0,0-.05-.06-.09-.11-.14-.17-.23-.28-.46-.57-.66-.87-.18-.27-.33-.57-.51-.85-.04-.07-.08-.13-.12-.2,0-.02-.03-.04-.04-.06,0,0,0,0,0,0-.12-.14-.24-.27-.33-.43,0-.01,0-.02-.01-.03-.02-.02-.05-.04-.06-.07-.14-.18-.25-.38-.35-.58-.02-.03-.05-.05-.06-.08,0-.01-.01-.02-.02-.03h-6.76c-2.82,0-5,1.78-5.54,4.55-.05.23-.14.33-.35.41-.79.32-1.22.94-1.23,1.78-.01.82.39,1.46,1.15,1.79.28.13.33.29.33.56,0,1.16-.01,2.32,0,3.48.03,2.78,1.83,4.95,4.54,5.47.53.11,1.09.08,1.67.11-.05.26-.01.59-.16.75-.7.75-1.45,1.45-2.27,2.27-.1-.16-.17-.31-.28-.42-1.21-1.21-2.4-2.45-3.64-3.62-1.21-1.14-3.07-1.06-4.23.12-1.16,1.18-1.2,3.05-.03,4.24,2.04,2.08,4.1,4.14,6.18,6.18.69.68,1.55.93,2.52.8.74-.1,1.34-.45,1.85-.97.86-.88,1.73-1.74,2.58-2.59.62.61,1.2,1.19,1.79,1.78-.01,0-.02.05-.05.08-1.56,1.56-3.11,3.12-4.68,4.67-.09.09-.28.13-.42.13-.66-.04-1.19.2-1.63.67-.35.37-.7.74-1.03,1.09-.84-.52-1.67-.75-2.59-.65-1.13.12-1.94.75-2.69,1.53-.91.95-.93,1.93,0,2.86,1.42,1.43,2.84,2.86,4.28,4.27.43.41.94.74,1.41,1.11h-.01s.96.01.96.01c.64-.26,1.06-.75,1.43-1.32,1-1.52,2.08-2.99,3.47-4.21.05-.05.1-.1.14-.16.22-.3.19-.6-.07-.86-.27-.26-.58-.25-.87-.03-.12.09-.23.22-.34.33-.36.37-.71.74-1.06,1.1-.49-.47-.91-.88-1.42-1.38.3-.27.6-.51.88-.78.99-.98,1.09-1.53.57-2.73,1.33-1.33,2.65-2.65,3.93-3.93.79.78,1.6,1.58,2.44,2.4-.52.51-1.05,1.03-1.57,1.55-.51.5-1.01,1.01-1.51,1.51-.37.37-.41.78-.12,1.06.3.28.69.23,1.07-.14.08-.08.15-.15.22-.22,1.9-1.9,3.79-3.79,5.69-5.69.12-.11.24-.23.38-.36,1.56,1.56,3.08,3.1,4.61,4.62.96.95,2.16,1.2,3.25.79-.18-.31-.27-.72-.36-1.03Zm-19.01,5.4c-.57.8-1.18,1.68-1.81,2.54-.23.32-.55.29-.83.03-.28-.25-.54-.52-.81-.79-1.33-1.34-2.66-2.67-3.99-4-.44-.43-.43-.59,0-1.04.55-.59,1.13-1.13,2.01-1.14.25,0,.51.03.85.05-.13.46-.23.83-.33,1.2-.11.42.05.77.41.87.38.11.69-.08.83-.49.04-.12.07-.25.11-.37.03-.11.07-.22.12-.35.33.15.47.34.33.71-.15.37-.24.77-.34,1.16-.09.36.09.71.41.81.35.11.7-.05.84-.42.05-.14.08-.28.12-.42.04-.12.09-.23.12-.32.64.64,1.28,1.29,1.96,1.97Zm-.21-4.52c-.37.4-.75.77-1.14,1.17-.27-.3-.52-.58-.79-.89.34-.33.72-.73,1.12-1.1.26-.25.56-.25.81.01.25.25.24.55,0,.81Zm-.06-17.08c-2.24.02-4.1-1.68-4.18-3.85-.04-1.38,0-2.77,0-4.2h8.23c.02.1.04.18.04.26,0,1.29.02,2.58-.01,3.87-.05,2.15-1.89,3.9-4.08,3.92Zm2.05,7.37l-2.43,2.43c-.79.78-1.79.82-2.58.04-2-1.98-3.98-3.96-5.96-5.96-.75-.76-.74-1.82-.03-2.52.71-.68,1.77-.65,2.52.1,1.37,1.35,2.73,2.72,4.09,4.08.52.52.79.52,1.31,0l1.73-1.73h0c.29,1.26.78,2.34,1.58,3.3-.08.09-.14.18-.22.26Zm3.78,1.46c-.95-1.02-2-2-2.87-3.13-.98-1.27-1.22-2.79-.93-4.37.04-.2.23-.44.41-.54,1.64-.91,2.64-2.27,2.97-4.11.02-.12.07-.25.15-.34.26-.3.53-.58.77-.83.82.83,1.59,1.62,2.41,2.44-.34.34-.75.74-1.16,1.15-.76.76-1.51,1.52-2.27,2.28-.26.27-.35.57-.16.91.15.28.42.41.73.33.18-.05.36-.18.5-.32.43-.43.83-.88,1.21-1.28,1.08,1.07,2.07,2.07,3.07,3.07-1.55,1.54-3.14,3.1-4.81,4.75h-.02Zm5.64,1.3c-.9,1.02-1.95,1.9-2.91,2.83-.75-.75-1.54-1.56-2.31-2.34,1.77-1.78,3.59-3.61,5.42-5.45,1.08,1.41,1.06,3.52-.2,4.96Zm1.21.67c.79-1.1,1.16-2.33,1.07-3.65.66.67,1.33,1.33,2,2.01-.75.72-1.56,1.51-2.39,2.32-.22-.22-.44-.44-.68-.68Z"/>
      <path class="cls-14" d="m7.62,24.69h8.24c0,.1.04.18.04.26,0,1.29.02,2.58-.01,3.87-.05,2.15-1.89,3.9-4.08,3.92-2.23.02-4.1-1.68-4.18-3.85-.05-1.39,0-2.78,0-4.2h0Z"/>
      <path class="cls-13" d="m17.66,41.58c-.95-1.02-2-2-2.87-3.13-.98-1.27-1.22-2.79-.93-4.37.04-.2.22-.44.41-.54,1.64-.91,2.63-2.26,2.97-4.11.02-.12.07-.25.15-.34.26-.29.53-.57.77-.83.82.83,1.6,1.61,2.41,2.44-.34.34-.75.74-1.16,1.15-.76.76-1.52,1.52-2.27,2.28-.26.26-.35.57-.16.91.16.28.43.41.73.33.18-.05.36-.18.5-.32.43-.43.83-.88,1.21-1.28l3.07,3.07c-1.56,1.53-3.14,3.1-4.81,4.75h-.02Z"/>
      <path class="cls-14" d="m12.5,36.56c.29,1.25.78,2.33,1.58,3.29-.08.09-.14.18-.22.26-.81.81-1.61,1.62-2.43,2.43-.79.79-1.8.82-2.58.04-2-1.97-3.99-3.96-5.96-5.96-.75-.76-.75-1.82-.03-2.52.71-.69,1.77-.65,2.52.1,1.36,1.36,2.72,2.72,4.09,4.08.52.52.79.52,1.31,0,.56-.56,1.12-1.12,1.73-1.73h-.01Z"/>
      <path class="cls-14" d="m30.61,47.36c-.41-1.26-.8-2.53-1.19-3.79-.25-.27-.5-.54-.76-.81-.86.89-1.64,1.69-2.44,2.51,1,1.01,2,2.05,3.04,3.05.49.48,1.17.62,1.75.39-.13-.45-.26-.91-.41-1.36Z"/>
      <path class="cls-14" d="m35.13,42.72c-.53-.54-.95-.97-1.39-1.42-.86.87-1.74,1.76-2.63,2.65.28.92.57,1.83.86,2.75.1.32.2.65.3.97.49-.5.97-1.01,1.46-1.52-.51-1.21-.4-1.78.59-2.75.27-.27.59-.5.81-.68Z"/>
      <path class="cls-6" d="m23.49,37.92c1.08,1.42,1.06,3.53-.2,4.96-.89,1.02-1.94,1.9-2.91,2.83-.74-.76-1.54-1.56-2.31-2.34,1.77-1.78,3.58-3.6,5.42-5.45Z"/>
      <path class="cls-11" d="m25.17,44.24c-.21-.22-.43-.44-.68-.69.79-1.1,1.16-2.33,1.07-3.65.67.67,1.33,1.34,2,2.01-.75.73-1.55,1.51-2.4,2.33h.01Z"/>
      <path class="cls-12" d="m17.02,22H6.5c-.39,0-.7.31-.7.7v.13c0,.39.31.7.7.7h10.52c.39,0,.7-.31.7-.7v-.13c0-.39-.31-.7-.7-.7Z"/>
      <path class="cls-8" d="m20.15,18.31c-.18-.27-.33-.57-.51-.85-.04-.06-.08-.13-.11-.19h-8.78c-3.18.7-3.58,3.58-3.58,3.58h10.46c1.62-.44,2.46-1.29,2.89-2.05-.13-.16-.26-.32-.37-.49Z"/>
      <path class="cls-5" d="m30.18,40.12c-.07-.04-.12-.06-.18-.06l.43.2c-.09-.05-.17-.09-.25-.14Z"/>
      <path class="cls-5" d="m54.51,47.15c-1.32-.7-2.63-1.41-3.95-2.11-.97-.51-1.95-1-2.92-1.51-.57-.3-1.12-.6-1.67-.91l-.43-.2-.85-.39c-.69.96-2.84,2.55-3.1,2.74-.02.01-.03.02-.03.02-1.45.84-3,1.36-4.67,1.5-.42.04-.84.06-1.28.08,0,.1.02.19.04.28.2,1.32.41,2.65.62,3.98.29,1.92.58,3.84.88,5.76,0,.12.03.22.19.22.59,0,1.18-.02,1.77-.02.19,0,.25-.09.23-.28-.12-1.17-.22-2.35-.32-3.52-.03-.27-.11-.5-.28-.72-.45-.58-.89-1.18-1.33-1.77-.16-.23-.14-.46.04-.61.21-.18.48-.14.67.11.35.44.69.89,1.02,1.34.1.14.2.19.38.16.27-.05.54-.08.81-.08.22,0,.36-.08.44-.29.11-.24.24-.46.39-.75.17.21.3.38.44.54.13.15.16.3.05.48-.14.22-.26.45-.35.68-.07.2-.14.42-.12.63.08,1.17.2,2.35.3,3.52.01.06.03.13.06.23.63-.17,1.24-.34,1.84-.53.05,0,.1-.14.1-.22-.07-.94-.15-1.87-.24-2.81-.04-.35-.02-.7-.29-1.01-.47-.57-.89-1.18-1.33-1.77-.13-.17-.16-.34-.03-.53.18-.26.52-.27.74,0,.33.42.65.85.96,1.29.13.18.28.25.49.22.29-.04.58-.05.86-.11.11-.02.24-.11.29-.21.26-.47.49-.95.74-1.43.16-.32.42-.42.68-.29.26.12.34.36.18.69-.25.51-.53,1-.77,1.5-.17.35-.42.67-.37,1.1.08.77.13,1.54.2,2.31.01.12.04.24.06.43.62-.33,1.2-.62,1.76-.94.06-.03.1-.16.09-.24-.02-.37-.06-.74-.09-1.11-.05-.56-.09-1.11-.51-1.58-.5-.56-.45-.39-.1-1.09.02-.03.04-.06.05-.09.08-.15.18-.17.29-.04.11.13.22.26.31.4.15.24.36.33.65.29.23-.04.47-.03.71-.07.1-.02.23-.1.28-.19.23-.41.44-.84.65-1.26.08-.14.14-.29.24-.41.22-.25.49-.23.7.02.15.18.14.37.04.57-.21.41-.42.82-.62,1.25-.17.38-.34.77-.46,1.16-.05.17.03.38.05.57,0,.08.04.16.06.23.08-.02.17-.02.23-.07.43-.33.86-.65,1.26-1.01.56-.51,1.07-1.08,1.64-1.59.68-.62,1.19-1.38,1.73-2.12.14-.18.14-.3-.1-.42Zm-14.65,3.83c-.46.01-.87-.4-.88-.87,0-.46.4-.88.87-.89.47,0,.89.41.89.89s-.41.87-.88.87Zm4.2-.37c-.49,0-.87-.4-.87-.89s.39-.88.86-.88c.5,0,.92.41.92.9-.01.46-.44.88-.91.87Zm4.22-.36c-.5.01-.96-.41-.96-.89s.47-.94,1-.96c.38,0,.85.5.86.93,0,.49-.41.91-.9.92Z"/>
      <path class="cls-3" d="m57.92,27.57c-.13.04-.24.09-.35.12-3.1,1.02-6.18,2.03-9.27,3.05l-1.79.64c-.1-.51-.7-1.59-.7-1.59l.42-1.31.32-.42.12-.16c.08-.04.19-.03.28-.02.58.08,1.16.05,1.71-.16,1.31-.5,2.06-1.47,2.28-2.83.16-1.01-.05-1.98-.48-2.9-.03-.05-.06-.1-.13-.2-.82.74-1.91.84-2.82,1.33-.93.49-1.67,1.17-1.93,2.24-.18.69-.08,1.38.2,2.03.01.03.03.07.05.1,0,.02.04.03.05.05.03-.01.05,0,.06-.01.46-.39.92-.78,1.39-1.16.7-.55,1.31-1.2,1.84-1.93,0,.03-.02.07-.03.1-.48.85-1.08,1.61-1.89,2.17-.51.37-1.02.73-1.24,1.42l-.49,1.15s-1.96-3.28-4-4.05l1.69-2.98c1.15-2.24,2.31-4.48,3.47-6.71.02-.06.06-.11.11-.18,2.18,1.02,4.1,2.39,5.8,4.07,2.35,2.32,4.12,5.03,5.33,8.14Z"/>
      <path class="cls-10" d="m46,15.31c-.93,1.99-1.84,3.94-2.77,5.92-.2-.16-.39-.31-.56-.46-.45-.4-.89-.82-1.36-1.21-.14-.12-.36-.21-.54-.23-.64-.04-1.28-.04-1.92-.05-.34,0-.59.24-.61.57-.01.32.2.55.56.57.35.02.7.02,1.05.03.08,0,.16.05.25.08,0,.03,0,.06-.02.1-.25,0-.5-.03-.74,0-.65.08-1.1-.2-1.48-.69-.34-.43-.74-.82-1.12-1.22-.21-.21-.46-.23-.67-.09-.24.15-.34.39-.25.63.03.09.09.17.15.24.69.73,1.38,1.48,2.1,2.19.17.16.44.29.67.3.76.05,1.53.06,2.29.05.28,0,.49.08.66.3.24.31.5.61.74.93.03.04.04.13.02.18-.28.53-.57,1.05-.85,1.58-.09.18-.2.08-.3.02-1.12-.59-2.3-1.04-3.55-1.28-1.63-.32-3.24-.23-4.85.17-.06.01-.12.02-.2.04-.06-.56-.12-1.09-.17-1.63-.08-.74-.17-1.48-.24-2.23-.02-.17,0-.37.08-.53.58-1.43,1.18-2.86,1.77-4.29.27-.66.25-.96-.11-1.61,2.04-.14,4.06-.11,6.08.17,2.01.27,3.97.7,5.91,1.44h-.02Zm-6.85.41c-.04-.06-.07-.1-.11-.14-.58-.59-1.44-.45-1.76.32-.22.53-.11,1.03.27,1.42.47.48,1,.91,1.51,1.35.04.04.19.02.24-.02.44-.37.9-.74,1.3-1.15.22-.22.4-.52.5-.82.17-.51-.09-1.08-.55-1.33s-.91-.16-1.31.29c-.02.02-.04.03-.1.08h.01Z"/>
      <path class="cls-7" d="m33.66,14.3l-.81-1.16s-.02-.31-.64-.37-6.88.59-10.56,1.78l-.44,1.63s5.89-1.82,9.37-1.52c0,0-6.18.81-9.47,2.32.02.04.05.08.07.12l1.05,1.47s.02.03.03.04c.02.03.05.07.08.12l.03.04s0,0,.03.03c.02.03.05.06.07.09.05.05.07.11.11.17l.12.17s0,0,0,0c0,0,.02.02.02.02.04.05.09.11.13.17,0,0,0,.01.01.02,0,0,0,.02,0,.02l.6.83s.11.28.65.23c0,0,3.31-1.09,6.3-.86,0,0-4.64.46-5.81,1.75,0,0-.08.1.05.12.13.02,6.94-1.66,6.94-1.66,0,0,.31-.23.34-.34.03-.11,1.89-4.62,1.89-4.62,0,0,.02-.13-.17-.61Z"/>
      <path class="cls-7" d="m33.22,31.03l-1.46-10.86-7.14,1.56,6.88,23.47c.16.5.31,1,.47,1.5.18.55.36,1.09.51,1.65.06.22.12.44.19.65,0,.02.04.14.05.19,0,0,0,0,0,0,0,0,0,0,0-.03.01.03.03.06.05.09.05.34.03.3.13.71l.55,1.86,2.54-.32-2.76-20.47Z"/>
      <path class="cls-16" d="m23.8,13.38s.35-6.74,11.38-5.21c0,0-4.04.7-4.27,4.14,0,0-5.99.74-7.11,1.07Z"/>
      <path class="cls-17" d="m22.98,13.64s.25-4.04,4.49-5.51c0,0,2.22-.81,5.11-.82,2.89,0,5.24.8,8.32-.58,3.08-1.38,2.57-4.31,2.46-4.7,0,0-.5,2.81-5.56,3.3-5.06.49-3.51-.09-7.64.75-4.13.84-7.55,3.25-7.19,7.55h.01Z"/>
      <path class="cls-15" d="m35.61,4.86s1.42-.44,2.5-1.66c1.08-1.22,1.38-1.81,2.57-2.23,1.19-.42,2.41-.84,3.7-.84,0,0-1.07.33-2.2,1.98,0,0-.85,1.79-3.24,2.3l-3.33.45Z"/>
      <path class="cls-9" d="m58.47,32.79c-.12-1.39-.37-2.76-.87-4.08-.07-.18-.14-.22-.33-.17-2.6.76-5.21,1.51-7.82,2.27v-.04l-2.88.84s2.08,5.66-1.76,10.39l2.55,1.11c1.17.51,2.33,1.04,3.5,1.55,1.39.62,2.79,1.23,4.19,1.86.16.07.25.05.35-.1.11-.18.25-.36.37-.54,1.23-1.9,1.99-3.98,2.44-6.19.31-1.49.43-3,.4-4.78-.03-.54-.07-1.33-.14-2.12Zm-2.89,5.76c-.72.76-1.51,1.46-2.27,2.19-.14.13-.3.14-.45,0-.72-.66-1.46-1.31-2.17-1.99-.4-.4-.68-.89-.78-1.47-.13-.8.09-1.48.76-1.94.68-.48,1.43-.5,2.15-.06.21.14.35.12.56,0,.64-.38,1.31-.4,1.97-.03.63.36.91.93.93,1.57,0,.72-.27,1.29-.7,1.74Z"/>
    </g>
  </g>
</svg>