<svg width="1024" height="710" viewBox="0 0 1024 710" fill="none" xmlns="http://www.w3.org/2000/svg">
<rect y="22" width="1024" height="688" fill="#D9D9D9"/>
<rect y="22" width="1024" height="688" fill="url(#paint0_linear_35_199)"/>
<g style="mix-blend-mode:color-burn" opacity="0.5">
<path fill-rule="evenodd" clip-rule="evenodd" d="M-107.827 404.067C-124.822 432.959 -117.741 462.842 -112.075 474.172C-211.363 409.253 -100.803 319.704 -60.8707 287.361L-60.8704 287.36C-56.3737 283.718 -52.7727 280.802 -50.4678 278.727C-37.5205 267.075 -29.3077 239.641 -23.4248 219.989C-19.6551 207.397 -16.842 198 -14.353 198C11.1398 259.183 -22.1425 311.301 -41.9702 329.713C-56.841 342.459 -90.8314 375.175 -107.827 404.067ZM-61.0105 455.053C-78.0057 483.944 -70.9243 513.828 -65.2592 525.158C-164.547 460.239 -53.9866 370.69 -14.0545 338.346C-9.55771 334.704 -5.9566 331.787 -3.65164 329.713C9.29568 318.06 17.5085 290.626 23.3914 270.975C27.1611 258.382 29.9742 248.986 32.4632 248.986C57.956 310.168 24.6737 362.287 4.84598 380.699C-10.0248 393.445 -44.0152 426.161 -61.0105 455.053ZM98.9612 392.193C70.0111 375.297 40.1524 382.481 28.8418 388.185C93.4193 288.674 183.348 398.927 215.828 438.747C219.486 443.232 222.415 446.823 224.497 449.121C236.194 462.028 263.656 470.146 283.328 475.962C295.933 479.688 305.34 482.469 305.348 484.958C244.253 510.661 192.021 477.558 173.541 457.793C160.744 442.966 127.911 409.089 98.9612 392.193ZM48.1367 439.184C19.1866 422.288 -10.6721 429.472 -21.9827 435.176C42.5948 335.665 132.523 445.918 165.004 485.738C168.661 490.223 171.59 493.814 173.673 496.112C185.37 509.019 212.832 517.137 232.503 522.953C245.109 526.679 254.515 529.46 254.524 531.949C193.429 557.652 141.196 524.549 122.717 504.784C109.919 489.957 77.0868 456.08 48.1367 439.184ZM120.548 533.788C126.251 545.099 133.431 574.959 116.532 603.907C99.632 632.855 65.7501 665.683 50.9215 678.479C31.1548 696.956 -1.9548 749.184 23.7403 810.282C26.2293 810.274 29.0112 800.868 32.7393 788.263C38.5571 768.592 46.6791 741.131 59.5878 729.436C61.8857 727.354 65.4768 724.426 69.961 720.769L69.962 720.768C109.787 688.293 220.051 598.378 120.548 533.788ZM73.5638 482.958C79.2663 494.269 86.4464 524.129 69.5469 553.077C52.6474 582.025 18.7654 614.853 3.93692 627.648C-15.8298 646.125 -48.9395 698.354 -23.2443 759.452C-20.7553 759.444 -17.9734 750.038 -14.2453 737.433C-8.42749 717.762 -0.305511 690.301 12.6032 678.605C14.9011 676.524 18.4922 673.595 22.9764 669.939L22.9774 669.938C62.8024 637.462 173.066 547.548 73.5638 482.958ZM-98.4083 620.129C-69.4209 636.961 -39.5782 629.711 -28.2802 623.982C-92.6374 723.635 -182.81 613.582 -215.378 573.833L-215.379 573.833C-219.046 569.357 -221.983 565.773 -224.07 563.48C-235.796 550.598 -263.276 542.541 -282.96 536.769C-295.574 533.07 -304.986 530.31 -305 527.821C-243.962 501.983 -191.656 534.971 -173.133 554.694C-160.303 569.493 -127.396 603.298 -98.4083 620.129ZM-47.688 573.026C-18.7006 589.858 11.1422 582.608 22.4402 576.879C-41.9171 676.532 -132.089 566.479 -164.658 526.73C-168.325 522.254 -171.262 518.669 -173.35 516.376C-185.075 503.495 -212.555 495.437 -232.239 489.665C-244.853 485.967 -254.266 483.207 -254.28 480.718C-193.242 454.88 -140.936 487.867 -122.413 507.591C-109.583 522.389 -76.6754 556.194 -47.688 573.026Z" fill="#D9D9D9"/>
</g>
<g style="mix-blend-mode:color-burn" opacity="0.5">
<path fill-rule="evenodd" clip-rule="evenodd" d="M889.67 87.4441C882.458 99.7043 885.463 112.385 887.867 117.193C845.735 89.6448 892.651 51.6448 909.596 37.92C911.504 36.3745 913.032 35.1367 914.01 34.2565C919.504 29.3117 922.989 17.6702 925.486 9.33121L925.486 9.33115C927.086 3.98747 928.279 0 929.336 0C940.153 25.9628 926.03 48.0792 917.616 55.8921C911.306 61.301 896.882 75.1839 889.67 87.4441ZM909.537 109.08C902.325 121.34 905.33 134.021 907.734 138.829C865.601 111.281 912.517 73.2805 929.462 59.5557L929.463 59.5554C931.371 58.01 932.899 56.7724 933.877 55.8921C939.371 50.9474 942.856 39.3057 945.352 30.9668C946.952 25.6231 948.146 21.6357 949.202 21.6357C960.02 47.5984 945.896 69.7149 937.483 77.5278C931.172 82.9367 916.748 96.8196 909.537 109.08ZM977.42 82.4053C965.135 75.2356 952.465 78.2841 947.665 80.7046C975.068 38.4775 1013.23 85.2628 1027.01 102.161C1028.56 104.064 1029.81 105.587 1030.69 106.563C1035.65 112.04 1047.31 115.485 1055.66 117.952L1055.66 117.952L1055.66 117.953C1061 119.534 1065 120.714 1065 121.77C1039.07 132.677 1016.91 118.63 1009.07 110.243C1003.64 103.951 989.705 89.575 977.42 82.4053ZM955.853 102.346C943.568 95.1762 930.897 98.2247 926.098 100.645C953.501 58.418 991.662 105.203 1005.45 122.101L1005.45 122.102C1007 124.004 1008.24 125.528 1009.12 126.503C1014.09 131.98 1025.74 135.425 1034.09 137.893C1039.44 139.474 1043.43 140.654 1043.43 141.711C1017.51 152.618 995.342 138.57 987.501 130.183C982.07 123.892 968.138 109.516 955.853 102.346ZM986.581 142.491C989.001 147.291 992.047 159.962 984.876 172.246C977.705 184.53 963.327 198.46 957.035 203.89C948.647 211.731 934.597 233.894 945.5 259.821C946.557 259.817 947.737 255.826 949.319 250.477L949.319 250.477L949.319 250.477C951.788 242.13 955.234 230.477 960.712 225.514C961.687 224.63 963.211 223.388 965.114 221.836C982.014 208.055 1028.8 169.9 986.581 142.491ZM966.643 120.921C969.063 125.721 972.11 138.392 964.938 150.676C957.767 162.96 943.389 176.891 937.097 182.32C928.709 190.161 914.659 212.324 925.563 238.251C926.619 238.248 927.799 234.256 929.381 228.907L929.381 228.907C931.85 220.56 935.297 208.907 940.774 203.944C941.75 203.061 943.274 201.818 945.177 200.266C962.076 186.485 1008.87 148.33 966.643 120.921ZM893.667 179.13C905.968 186.272 918.631 183.196 923.426 180.765C896.116 223.052 857.851 176.352 844.031 159.484L844.03 159.483C842.474 157.584 841.228 156.064 840.342 155.091C835.367 149.624 823.706 146.205 815.353 143.756C810 142.186 806.006 141.015 806 139.959C831.901 128.995 854.097 142.993 861.957 151.362C867.402 157.642 881.366 171.987 893.667 179.13ZM915.19 159.142C927.491 166.284 940.154 163.208 944.949 160.776C917.639 203.064 879.374 156.363 865.554 139.496L865.553 139.495C863.997 137.596 862.751 136.075 861.866 135.102C856.89 129.636 845.229 126.217 836.876 123.768C831.523 122.198 827.529 121.027 827.523 119.971C853.424 109.006 875.62 123.005 883.481 131.374C888.925 137.654 902.889 151.999 915.19 159.142Z" fill="#D9D9D9"/>
</g>
<defs>
<linearGradient id="paint0_linear_35_199" x1="512" y1="22" x2="512" y2="710" gradientUnits="userSpaceOnUse">
<stop offset="0.0176342" stop-color="#3199CC"/>
<stop offset="0.482463" stop-color="#247EBD"/>
<stop offset="1" stop-color="#0944A2"/>
</linearGradient>
</defs>
</svg>
